<?xml version="1.0" encoding="utf-8"?>
<!-- Generator: Adobe Illustrator 16.0.0, SVG Export Plug-In . SVG Version: 6.00 Build 0)  -->
<!DOCTYPE svg PUBLIC "-//W3C//DTD SVG 1.1//EN" "http://www.w3.org/Graphics/SVG/1.1/DTD/svg11.dtd">
<svg version="1.1"
	 id="svg12211" xmlns:inkscape="http://www.inkscape.org/namespaces/inkscape" xmlns:sodipodi="http://sodipodi.sourceforge.net/DTD/sodipodi-0.dtd" xmlns:svg="http://www.w3.org/2000/svg" xmlns:rdf="http://www.w3.org/1999/02/22-rdf-syntax-ns#" xmlns:cc="http://creativecommons.org/ns#" xmlns:dc="http://purl.org/dc/elements/1.1/" sodipodi:docname="acc-face-mustache.svg" inkscape:export-filename="C:\Users\Zealotlee\Dropbox\Small Projects\Steves Fuzzballs\fuschia-fuzzle.png" inkscape:export-xdpi="72.021774" inkscape:export-ydpi="72.021774" inkscape:version="0.91 r13725"
	 xmlns="http://www.w3.org/2000/svg" xmlns:xlink="http://www.w3.org/1999/xlink" x="0px" y="0px" width="331.998px"
	 height="273.169px" viewBox="89.639 119.777 331.998 273.169" enable-background="new 89.639 119.777 331.998 273.169"
	 xml:space="preserve">
<path fill="#EDD529" stroke="#E2A81A" stroke-width="5" stroke-miterlimit="10" d="M109.673,389.642
	c0,0,116.743-40.422,146.179-52.322c29.437-11.901,151.196-58.732,151.196-58.732s5.689-43.82,7.695-51.514
	c2.006-7.694,4.199-28.768,4.199-28.768s-0.855-14.718-4.535-15.722s-33.451-16.056-43.486-17.394
	c-7.024,2.342-9.7-1.674-11.707-4.684c-18.731-7.025-52.184-20.738-65.897-22.076c-8.028,1.672-31.926,10.034-29.01-4.684
	c-21.167-5.687-82.048-13.38-106.466-11.039c-6.356,15.387-8.697,19.736-8.697,19.736s4.014,2.007,1.673,6.021
	c-5.018,11.039-49.841,115.07-54.524,125.44c-4.683,10.369-3.011,12.041-3.345,18.396c-0.335,6.356-3.011,7.359,3.68,15.055
	c2.342,11.371,7.025,47.5,7.694,52.852C104.99,365.558,109.673,389.642,109.673,389.642z"/>
<path fill="none" stroke="#E2A81A" stroke-width="5" stroke-miterlimit="10" d="M416.167,184.36c0,0-127.199,48.398-147.938,54.42
	c-20.739,6.021-54.19,20.07-60.546,23.75c-6.355,3.681-30.105,10.035-45.493,14.05c-15.388,4.014-67.371,17.323-69.477,18.028"/>
<path fill="#E0B812" stroke="#E2A81A" stroke-width="5" stroke-linejoin="round" stroke-miterlimit="10" d="M96.917,308.828
	c0,0,21.074-10.765,20.427-20.669c-0.647-9.906-9.678-4.891-11.685-6.896c-2.007-2.008-10.057-6.925-11.217-2.836
	c-1.16,4.09-2.32,8.913-2.303,14.411S93.193,303.276,96.917,308.828z"/>
<path fill="#E0B812" stroke="#E2A81A" stroke-width="5" stroke-linejoin="round" stroke-miterlimit="10" d="M104.749,364.889
	c0,0,8.588-7.692,12.61,0c4.022,7.694-0.996,14.051-4.341,19.401c-3.345,5.352-3.345,5.352-3.345,5.352L104.749,364.889z"/>
<path fill="#E0B812" stroke="#E2A81A" stroke-width="5" stroke-linejoin="round" stroke-miterlimit="10" d="M418.943,198.306
	c0,0-8.494-0.859-8.857-11.636c-0.361-10.776,1.295-5.29,1.295-5.29S420.578,184.604,418.943,198.306z"/>
<path fill="#E0B812" stroke="#E2A81A" stroke-width="5" stroke-linejoin="round" stroke-miterlimit="10" d="M374.023,165.851
	c0,0-8.455,4.69-17.15,4.356c-8.697-0.335-9.934-7.694-4.684-9.032c5.248-1.338,7.023-0.669,7.023-0.669
	S360.4,168.185,374.023,165.851z"/>
<path fill="#E0B812" stroke="#E2A81A" stroke-width="5" stroke-linejoin="round" stroke-miterlimit="10" d="M150.817,148.464
	c0,0,11.373,2.008,12.042-5.018s-12.042-2.008-12.042-2.008S152.822,143.947,150.817,148.464z"/>
<path fill="#E0B812" stroke="#E2A81A" stroke-width="5" stroke-linejoin="round" stroke-miterlimit="10" d="M147.806,272.229
	c0,0-2.007-12.928,3.011-15.494c5.018-2.567,14.049,1.781,16.726,11.815c2.676,10.035,4.014,13.38-2.676,15.388
	C158.176,285.944,150.482,277.918,147.806,272.229z"/>
<path fill="#E0B812" stroke="#E2A81A" stroke-width="5" stroke-linejoin="round" stroke-miterlimit="10" d="M137.102,351.843
	c2.667-6.842,12.835-8.361,21.47,0c8.634,8.363,11.362,11.039,4.312,12.711C155.834,366.227,129.409,371.579,137.102,351.843z"/>
<path fill="#E0B812" stroke="#E2A81A" stroke-width="5" stroke-linejoin="round" stroke-miterlimit="10" d="M234.778,276.851
	c0,0,7.694-9.973,14.384-9.304c6.69,0.669,7.693,7.359,2.676,11.039C246.82,282.267,235.112,286.819,234.778,276.851z"/>
<path fill="#E0B812" stroke="#E2A81A" stroke-width="5" stroke-linejoin="round" stroke-miterlimit="10" d="M317.734,286.615
	c0,0-7.357,11.708-8.361,14.718c-1.004,3.011,7.693,5.352,13.715,0C329.107,295.979,329.443,278.921,317.734,286.615z"/>
<path fill="#E0B812" stroke="#E2A81A" stroke-width="5" stroke-linejoin="round" stroke-miterlimit="10" d="M333.123,267.517
	c0,0-0.336,9.938,6.355,9.334c6.689-0.604,7.023-11.644,4.35-15.322C341.15,257.849,332.775,263.876,333.123,267.517z"/>
<path fill="#E0B812" stroke="#E2A81A" stroke-width="5" stroke-linejoin="round" stroke-miterlimit="10" d="M386.309,255.959
	c0,0-5.353,13.263,6.69,9.247c12.041-4.016,8.697-12.377,5.352-17.061C395.005,243.463,389.318,250.392,386.309,255.959z"/>
<path fill="#E0B812" stroke="#E2A81A" stroke-width="5" stroke-linejoin="round" stroke-miterlimit="10" d="M135.712,222.39
	c0,0-5.089,11.373,11.698,5.019S148.705,212.354,135.712,222.39z"/>
<path fill="#E0B812" stroke="#E2A81A" stroke-width="5" stroke-linejoin="round" stroke-miterlimit="10" d="M172.56,179.983
	c13.094,3.182,12.711-0.075,12.377-3.086c-0.335-3.012-10.37-8.328-16.725-6.674C161.856,171.879,161.856,177.384,172.56,179.983z"
	/>
<path fill="#E0B812" stroke="#E2A81A" stroke-width="5" stroke-linejoin="round" stroke-miterlimit="10" d="M194.972,137.76
	c0,0,4.683,0.335,9.365-4.014c4.684-4.349-1.672-4.014-9.365-4.014C187.278,129.732,184.936,135.084,194.972,137.76z"/>
<path fill="#E0B812" stroke="#E2A81A" stroke-width="5" stroke-linejoin="round" stroke-miterlimit="10" d="M232.771,146.791
	c0,0,12.527,3.011,12.117,8.362c-0.41,5.353-12.786,2.008-17.135,0C223.405,153.147,222.736,146.122,232.771,146.791z"/>
<path fill="#E0B812" stroke="#E2A81A" stroke-width="5" stroke-linejoin="round" stroke-miterlimit="10" d="M292.313,198.306
	c0,0-12.041,7.693-10.369,10.369c1.673,2.676,13.716,5.018,21.408,0s6.864-10.035,5.94-12.377S294.695,196.692,292.313,198.306z"/>
</svg>
