<?xml version="1.0" encoding="utf-8"?>
<!-- Generator: Adobe Illustrator 16.0.0, SVG Export Plug-In . SVG Version: 6.00 Build 0)  -->
<!DOCTYPE svg PUBLIC "-//W3C//DTD SVG 1.1//EN" "http://www.w3.org/Graphics/SVG/1.1/DTD/svg11.dtd">
<svg version="1.1"
	 id="svg12211" xmlns:dc="http://purl.org/dc/elements/1.1/" xmlns:cc="http://creativecommons.org/ns#" xmlns:rdf="http://www.w3.org/1999/02/22-rdf-syntax-ns#" xmlns:svg="http://www.w3.org/2000/svg" xmlns:sodipodi="http://sodipodi.sourceforge.net/DTD/sodipodi-0.dtd" xmlns:inkscape="http://www.inkscape.org/namespaces/inkscape" inkscape:export-ydpi="72.021774" inkscape:export-xdpi="72.021774" inkscape:export-filename="C:\Users\Zealotlee\Dropbox\Small Projects\Steves Fuzzballs\fuschia-fuzzle.png" sodipodi:docname="acc-hat-ballcap.svg" inkscape:version="0.91 r13725"
	 xmlns="http://www.w3.org/2000/svg" xmlns:xlink="http://www.w3.org/1999/xlink" x="0px" y="0px" width="378.57px"
	 height="196.327px" viewBox="65.85 160.886 378.57 196.327" enable-background="new 65.85 160.886 378.57 196.327"
	 xml:space="preserve">
<sodipodi:namedview  showguides="true" showgrid="false" inkscape:cy="171.5403" inkscape:cx="385.24156" inkscape:zoom="1.4142136" borderopacity="1.0" bordercolor="#666666" pagecolor="#ffffff" id="base" inkscape:window-maximized="1" inkscape:window-y="-8" inkscape:window-x="-8" inkscape:window-height="988" inkscape:window-width="1680" inkscape:pageshadow="2" inkscape:current-layer="layer1" inkscape:pageopacity="0.0" inkscape:document-units="px">
	</sodipodi:namedview>
<g>
	<path fill="#C20E0D" stroke="#A41413" stroke-width="5" stroke-miterlimit="10" d="M386.643,206.698c0,0-29-25.292-97.334-37.958
		c-68.333-12.667-87,0.333-99.333,6.333s-24.667,26.667-31.333,41c-6.667,14.333-31.333,68-32.333,76.333s11.667,19,21.333,10.667
		c9.667-8.333,13-11.667,20.333-16.333c7.333-4.667,27.333,5,71.333,0.667C283.309,283.073,378.309,251.657,386.643,206.698z"/>
	<path fill="#D10708" d="M275.402,254.695c11.604-1.366,8.058-66.104,24.617-74.747c11.858-6.189,69.149,22.997,82.222,28.272
		c-12.624,22.336-66.765,52.127-89.603,63.975c-17.431,9.041-83.33,14-109.684,6.734c-14.284-3.938,0.683-32.01,9.433-53.26
		c3.5-8.5,8.605-25.967,16.921-25.792c10.114,0.213,12.804,27.45,20.329,33.523c11.521,9.298,12.663,21.537,34.061,21.939
		L275.402,254.695z"/>
	<path fill="none" stroke="#A41413" stroke-width="5" stroke-linecap="round" stroke-miterlimit="10" d="M171.525,283.971
		c0,0,5.964-75.188,37.783-89.519"/>
	<path fill="#DF0708" d="M277.512,259.46c10.682-1.131,7.135-67.858,22.377-75.015c10.912-5.125,65.617,24.798,76.473,27.732
		c-11.617,18.497-63.953,46.956-84.973,56.769c-16.041,7.488-81.25,10.355-104.34,7.555c-19.828-2.406,1.158-28.41,8.589-46.805
		c2.182-5.402,7.857-26.88,15.51-26.735c9.309,0.176,8.406,29.167,15.332,34.196c10.604,7.7,20.568,22.507,40.261,22.84
		L277.512,259.46z"/>
	<path fill="#D10708" d="M171.525,220.945c-8.392,13.729-12.941,26.697-18.299,41.614c-1.148,3.196-8.748,22.937-2.21,24.943
		c6.6,2.025,14.541-19.365,15.864-22.495c5.404-12.786,10.089-26.372,12.123-39.933c0.163-1.084,1.562-6.893-0.417-7.453
		c-1.398-0.395-6.458,1.226-7.061,1.966"/>
	<path fill="#DF0708" d="M173.225,221.85c-6.775,12.619-13.584,25.361-17.91,39.071c-0.927,2.938-7.062,21.081-1.784,22.927
		c5.328,1.862,11.739-17.799,12.807-20.675c4.362-11.752,8.145-24.239,9.787-36.703c0.131-0.997,1.261-6.335-0.337-6.85
		c-1.129-0.363-2.826,2.551-3.313,3.23"/>
	<path fill="#FFFFFF" stroke="#B7DFEC" stroke-width="10" stroke-miterlimit="10" d="M311.622,328.762
		c-79.062,22.589-138.333,22-143.333,16.333s-4.667-10.667-4.333-14.667c-5-5.333-8.667-19.333-2-25
		c-0.333-11.332,8.667-28,22.333-18c18.667,7,72.814,8.334,113.574-8.332s86.093-65.333,94.76-68.333s17.333,6.667,17,12.667
		c10.333,1.333,18.667,8,16.667,16.667c0,0,21.667,6.667,9.333,24C423.289,281.43,376.955,310.095,311.622,328.762z"/>
	<path fill="none" stroke="#B7DFEC" stroke-width="5" stroke-linecap="round" stroke-miterlimit="10" d="M182.955,315.095
		c0,0,13.333,7.667,37.667,3.333c24.333-4.333,27.333-2.333,33-5.667"/>
	<path fill="none" stroke="#B7DFEC" stroke-width="5" stroke-linecap="round" stroke-miterlimit="10" d="M285.622,312.762
		c0,0,64.333-24.666,81.333-37.332c17-12.668,15-14.668,27.333-22.667"/>
	<path fill="none" stroke="#B7DFEC" stroke-width="5" stroke-linecap="round" stroke-miterlimit="10" d="M403.288,261.096
		c0,0-11.667,13.666-26.667,21.666s-43.333,16.668-51.667,21.334"/>
	<path fill="#FFFFFF" stroke="#B7DFEC" stroke-width="10" stroke-miterlimit="10" d="M129.101,302.241c0,0-16.75-32.5-36.5-10
		c-9.25-1-26.5,8.5-16.5,24.5c-4.75,4.75-11.75,17.25,7.5,24.5c6.25,10.25,12.25,15.25,26.5,6.25c9.25,6.5,28.75,9,26.25-10.75
		C142.851,322.241,154.601,300.741,129.101,302.241z"/>
	<path fill="#D10708" d="M216.638,173.195c-3.629,2.584-7.29,5.14-10.791,7.898c-1.171,0.922-5.314,3.482-5.374,5.261
		c-0.113,3.328,11.43,0.809,13.383,0.62c8.707-0.844,18.682-1.625,26.715,2.561c7.712,4.019,10.339,12.123,11.057,20.287
		c0.567,6.455-1.475,15.964,1.656,21.886c3.036,5.742,9.78-0.729,12.495-3.554c10.966-11.412,23.293-36.085,6.677-48.079
		c-13.638-9.844-34.713-7.426-50.574-7.018C220.134,173.101,218.386,173.148,216.638,173.195"/>
	<path fill="#DF0708" d="M260.943,224.695c9.516-4.474,15.714-11.985,16.533-22.816c1.146-15.128-10.14-24.348-24.27-25.971
		c-7.171-0.824-14.587-0.235-21.643,1.211c-1.366,0.28-16.377,1.501-16.177,3.826c0.172,2.001,15.155,3.381,16.532,3.865
		c5.916,2.079,11.76,4.521,16.948,8.093c11.441,7.877,14.355,18.556,13.326,31.792"/>
	<path fill="#D10708" d="M293.864,267.633c8.987-11.151,18.61-20.525,22.895-34.597c1.39-4.565,2.53-10.009,8.093-10.692
		c5.293-0.65,9.689,3.201,14.619,4.198c6.254,1.265,9.555-4.436,12.648-8.981c-0.414,5.498-2.221,12.982-8.229,14.913
		c-4.662,1.499-8.75-2.939-13.222-1.231c-5.992,2.289-11.815,11.655-15.22,16.662c-3.434,5.05-5.543,10.968-11.038,14.142
		c-3.563,2.059-6.946,3.68-10.224,6.232"/>
	<path fill="none" stroke="#B7DFEC" stroke-width="5" stroke-linecap="round" stroke-miterlimit="10" d="M98.596,308.814
		c3.297-2.282,7.078-3.08,11.101-2.573c5.105,0.642,8.658,8.036,11.899,11.573"/>
</g>
</svg>
