<?xml version="1.0" encoding="utf-8"?>
<!-- Generator: Adobe Illustrator 16.0.0, SVG Export Plug-In . SVG Version: 6.00 Build 0)  -->
<!DOCTYPE svg PUBLIC "-//W3C//DTD SVG 1.1//EN" "http://www.w3.org/Graphics/SVG/1.1/DTD/svg11.dtd">
<svg version="1.1"
	 id="svg12211" xmlns:dc="http://purl.org/dc/elements/1.1/" xmlns:cc="http://creativecommons.org/ns#" xmlns:rdf="http://www.w3.org/1999/02/22-rdf-syntax-ns#" xmlns:svg="http://www.w3.org/2000/svg" xmlns:sodipodi="http://sodipodi.sourceforge.net/DTD/sodipodi-0.dtd" xmlns:inkscape="http://www.inkscape.org/namespaces/inkscape" inkscape:export-ydpi="72.021774" inkscape:export-xdpi="72.021774" inkscape:export-filename="C:\Users\Zealotlee\Dropbox\Small Projects\Steves Fuzzballs\fuschia-fuzzle.png" sodipodi:docname="acc-face-mustache.svg" inkscape:version="0.91 r13725"
	 xmlns="http://www.w3.org/2000/svg" xmlns:xlink="http://www.w3.org/1999/xlink" x="0px" y="0px" width="386.947px"
	 height="270.808px" viewBox="53.653 126.691 386.947 270.808" enable-background="new 53.653 126.691 386.947 270.808"
	 xml:space="preserve">
<sodipodi:namedview  showguides="true" showgrid="false" inkscape:cy="193.02625" inkscape:cx="369.48506" inkscape:zoom="0.71220416" borderopacity="1.0" bordercolor="#666666" pagecolor="#ffffff" id="base" inkscape:window-maximized="1" inkscape:window-y="-8" inkscape:window-x="-8" inkscape:window-height="988" inkscape:window-width="1680" inkscape:pageshadow="2" inkscape:current-layer="layer1" inkscape:pageopacity="0.0" inkscape:document-units="px">
	</sodipodi:namedview>
<path fill="#FDB400" d="M116.662,367.838c0,0-1.542,25.821,31.217,14.259c32.759-11.562,70.526-68.984,71.682-82.858
	C220.717,285.365,120.131,355.891,116.662,367.838z"/>
<path fill="#FAFF00" stroke="#FDB400" stroke-width="5" stroke-miterlimit="10" d="M107.027,365.911
	c0,0-27.199-13.074-12.636-29.082s74.465-65.3,107.056-51.078c32.591,14.222,6.17,17.963,6.243,18.585
	c0.073,0.622-9.593,7.233-11.386,2.61c-1.794,6.168-8.843,11.95-12.199,10.793c-3.469,7.708-15.801,16.957-20.426,13.488
	c-0.385,9.249-11.755,18.115-23.991,14.646C135.161,357.818,124.755,368.994,107.027,365.911z"/>
<path fill="#D1FF00" stroke="#FAFF00" stroke-width="5" stroke-miterlimit="10" d="M172.158,387.878
	c0,0-22.738,12.332-26.592-11.947c-3.854-24.278,22.545-15.416,22.545-15.416s4.818-6.166,9.443-8.479
	c1.156-7.708,0.771-24.28,19.269-23.895c-2.698-10.02,6.166-19.654,11.176-20.811c-1.156-13.489-3.854-11.947-1.156-13.489
	c-3.083-1.927-3.083-1.927-3.083-1.927s-18.113,4.239-21.967-4.625c-1.542,2.698-9.249,4.625-12.332,0
	c0,5.78-10.791,17.343-22.353,11.946c-2.698,8.094-15.801,20.812-26.977,16.958c-7.322,15.801-12.332,22.353-27.748,20.426
	s-24.665-19.27-14.259-31.987c10.406-12.718,124.095-63.589,146.063-39.311C246.155,289.602,238.445,315.425,172.158,387.878z"/>
<path fill="#00FE30" stroke="#D1FF00" stroke-width="5" stroke-miterlimit="10" d="M73.699,256.075c0,0-17.158,6.937-17.543,23.123
	c-0.385,16.186,30.394,35.765,42.56,12.294c7.155,4.662,33.362,9.299,38.372-12.288c15.416,2.692,26.604-2.677,31.023-9.255
	c0,0,13.682,5.395,21.39,0.771c6.937,6.551,15.801,7.707,20.04,6.165c5.01,5.781,13.874,10.791,16.572,8.864
	c-3.469,8.093,0,10.02,0,10.02s-11.157,6.938-6.542,14.26c-9.645,2.697-15.809,11.789-13.883,17.456
	c-10.021,2.969-24.28,19.541-13.104,26.863c-8.557,0.783-12.332,11.177-11.562,14.26c-6.937,2.312-18.884,17.728-1.156,24.665
	c17.728,6.937,26.977-20.812,28.133-23.51c1.156-2.697,46.632-45.171,45.476-86.56c-1.156-41.389-31.602-35.608-65.131-36.379
	C154.815,246.054,93.94,247.211,73.699,256.075z"/>
<path fill="#00ABFC" stroke="#00FE30" stroke-width="5" stroke-miterlimit="10" d="M98.163,267.251
	c-26.209,0-41.237-25.436-26.206-46.632c15.031-21.196,35.456-25.821,54.34-19.269c18.884,6.552,57.423,7.708,80.546,16.572
	c23.123,8.864,60.507,17.49,65.132,40.926c4.625,23.435-2.959,70.452-8.609,85.482c-5.651,15.03-25.691,31.008-32.628,40.747
	s-25.527,17.967-35.841-4.135c-10.314-22.104,15.416-27.363,15.416-27.363s0.771-21.582,16.957-23.895
	c-0.771-15.801,16.957-21.582,16.957-21.582s-7.322-14.645,5.781-18.884c-11.947-9.248-15.332-17.343-14.796-21.195
	c-7.941,0.981-17.172-4.239-15.64-10.791c-7.42,2.311-23.133,2.312-25.06-5.01c-9.249,5.01-18.803,5.568-24.816,0
	c-6.786,4.239-22.587,15.801-43.783,3.083C117.433,264.168,115.891,267.251,98.163,267.251z"/>
<path fill="#3800FB" stroke="#00ABFC" stroke-width="5" stroke-miterlimit="10" d="M138.629,227.942
	c-16.417-2.292-36.227-17.728-28.519-40.466c7.708-22.738,41.237-24.665,55.111-17.343c13.874,7.322,81.703,25.821,100.201,37.768
	c18.498,11.947,34.686,50.871,33.914,70.141s-2.697,66.672-10.791,80.932c-8.093,14.26-24.665,25.821-31.986,29.29
	c-7.323,3.47-26.593,3.083-27.364-15.801s17.728-18.884,17.728-18.884s-1.156-25.05,14.259-26.206
	c-2.697-13.489-1.275-16.631,4.625-20.426c-7.322-9.635-8.479-31.987,1.543-34.301c-10.021-10.405-13.397-12.883-9.636-21.582
	c-5.781-1.156-16.186-8.479-17.728-11.176c-6.937,3.854-23.894,3.469-32.758-8.864c-11.176,4.239-37.383,3.469-43.549-11.176
	C152.503,224.088,144.588,228.774,138.629,227.942z"/>
<path fill="#F800FC" stroke="#3800FB" stroke-width="5" stroke-miterlimit="10" d="M219.571,198.593c0,0-18.123,7.382-45.871-6.877
	c-27.748-14.259-0.771-47.018,13.874-51.642c14.645-4.624,37.383-5.395,51.257,7.708c13.874,13.103,77.463,61.662,85.556,80.161
	c8.094,18.499,6.938,61.663,6.553,82.088s-13.875,56.651-17.729,62.817s-13.848,6.553-13.848,6.553s-0.797,9.731-17.369,11.609
	s-21.967-10.068-21.582-22.4s10.02-12.719,10.02-12.719s-4.625-23.123,14.646-26.206c2.698-12.718,9.249-18.884,9.249-18.884
	s-13.104-8.479-13.489-24.665c-0.385-16.186,8.864-22.025,8.864-22.025s-5.781-0.713-11.947-12.273
	c-6.166-11.562,1.156-16.572,1.156-16.572s-17.991-3.194-20.426-17.728C258.484,217.536,228.445,233.989,219.571,198.593z"/>
<path fill="#FA0078" stroke="#F800FC" stroke-width="5" stroke-miterlimit="10" d="M285.848,198.593c0,0-41.622,10.08-54.34-29.615
	c-12.718-39.695,62.434-54.725,82.859-21.582s53.953,52.413,58.578,75.151c4.625,22.738,10.791,48.944,2.313,78.619
	s-31.602,67.829-39.31,74.766c-7.708,6.938-37.694,22.795-38.925-12.332c0.386-14.259,7.748-14.259,7.748-14.259
	s0.346-27.993,15.375-28.834c-1.926-6.237,2.313-10.476,2.313-10.476s-16.877-13.489-17.688-29.676
	c-0.812-16.186,10.365-21.508,10.365-21.508s-23.044-6.24-10.365-40.539C297.41,215.609,287.818,211.26,285.848,198.593z"/>
<path fill="#FC4900" stroke="#FA0078" stroke-width="5" stroke-miterlimit="10" d="M344.427,198.593c0,0-42.393-3.024-34.3-45.416
	c8.094-42.393,85.171-16.631,74.766,22.708c13.874-3.053,73.609,6.967,37.769,56.682c10.791,13.103,34.3,43.164-13.104,52.798
	c8.479,13.874,11.548,36.219-18.112,42.777c6.937,7.708,11.946,27.748-21.196,32.759c-6.552,14.645-28.903,29.675-36.612,9.249
	c-7.707-20.427,9.25-28.894,9.25-28.894s-4.625-19.666,11.562-26.603c-2.698-8.479-1.927-25.051,13.489-28.52
	c-4.625-9.249-4.625-19.746,1.156-28.757c-6.166-6.313-15.802-13.25-11.947-30.593C351.75,224.088,334.792,213.178,344.427,198.593z
	"/>
</svg>
