<?xml version="1.0" encoding="utf-8"?>
<!-- Generator: Adobe Illustrator 16.0.0, SVG Export Plug-In . SVG Version: 6.00 Build 0)  -->
<!DOCTYPE svg PUBLIC "-//W3C//DTD SVG 1.1//EN" "http://www.w3.org/Graphics/SVG/1.1/DTD/svg11.dtd">
<svg version="1.1"
	 id="svg12211" xmlns:dc="http://purl.org/dc/elements/1.1/" xmlns:cc="http://creativecommons.org/ns#" xmlns:rdf="http://www.w3.org/1999/02/22-rdf-syntax-ns#" xmlns:svg="http://www.w3.org/2000/svg" xmlns:sodipodi="http://sodipodi.sourceforge.net/DTD/sodipodi-0.dtd" xmlns:inkscape="http://www.inkscape.org/namespaces/inkscape" inkscape:export-ydpi="72.021774" inkscape:export-xdpi="72.021774" inkscape:export-filename="C:\Users\Zealotlee\Dropbox\Small Projects\Steves Fuzzballs\fuschia-fuzzle.png" sodipodi:docname="acc-face-mustache.svg" inkscape:version="0.91 r13725"
	 xmlns="http://www.w3.org/2000/svg" xmlns:xlink="http://www.w3.org/1999/xlink" x="0px" y="0px" width="495.487px"
	 height="371.929px" viewBox="8.823 78.056 495.487 371.929" enable-background="new 8.823 78.056 495.487 371.929"
	 xml:space="preserve">
<sodipodi:namedview  showguides="true" showgrid="false" inkscape:cy="193.02625" inkscape:cx="369.48506" inkscape:zoom="0.71220416" borderopacity="1.0" bordercolor="#666666" pagecolor="#ffffff" id="base" inkscape:window-maximized="1" inkscape:window-y="-8" inkscape:window-x="-8" inkscape:window-height="988" inkscape:window-width="1680" inkscape:pageshadow="2" inkscape:current-layer="layer1" inkscape:pageopacity="0.0" inkscape:document-units="px">
	</sodipodi:namedview>
<path fill="#FF00FF" stroke="#DC00DC" stroke-width="8" stroke-linejoin="round" stroke-miterlimit="10" d="M241.467,242.769
	c0,0,23.525,14.53,46.359-9.687c0,12.455,2.768,36.672,23.525,42.207s42.207-6.919,42.207-6.919s-13.839,37.753,8.994,48.283
	c22.833,10.529,28.369,0,28.369,0s-10.379,68.03,31.828,80.449s50.51-13.182,50.51-13.182s-22.833,0.692-29.061-17.99
	c17.298,3.46,40.822,4.844,42.898-9.687c-13.146-1.384-27.677-12.455-27.677-12.455s37.364,7.799,40.823-23.431
	c-11.764,6.824-32.521,8.9-41.516-8.397c22.143,0.692,42.899-6.919,41.516-31.137c-9.688,5.535-25.602,13.146-30.445-4.844
	c-4.843-17.989-2.768-52.585-25.601-62.272c4.151-13.147,14.529-35.98-22.143-46.359c2.076-20.066,4.843-35.98-8.995-44.283
	c-13.838-8.303-42.898-6.227-48.435,0c-6.919-13.838-35.979-32.52-63.657-15.914c-5.535-16.606-35.287-43.505-74.036-6.53
	c-13.147-13.535-46.359-34.293-70.576,18.293c-15.222-11.071-67.808-11.763-53.97,38.056c-23.525-5.535-43.591,2.076-46.359,17.298
	s8.303,29.061,8.303,29.061s-34.596-3.46-34.596,16.606s18.682,21.344,18.682,21.344s-39.44-6.813-35.288,23.631
	s26.985,33.212,39.44,40.823c12.455,7.61,12.455,19.374,1.384,21.449c-11.071,2.076-23.525-10.529-23.525-10.529
	s13.838,36.822,36.672,39.591c-11.071,7.611-24.217,4.152-31.828-5.535c4.843,17.298,28.369,44.283,46.359,31.828
	c-4.843,8.995-14.53,22.869-26.985,10.051c8.995,16.242,28.369,29.393,51.202,13.13c4.843,10.725,11.071,25.522-16.606,14.663
	c4.843,12.667,18.682,29.774,37.364,24.681c18.682-5.095,37.364-32.771,2.768-72.211c17.298-1.384,59.505-6.919,51.202-67.117
	C194.416,305.042,229.012,301.582,241.467,242.769z"/>
<g>
	<path fill="#DC00DC" d="M241.901,246.745c0,0-0.166,0.011-0.488,0.031c-0.287,0.011-0.696,0.019-1.203,0.009
		c-1.014-0.023-2.449-0.122-4.222-0.443c-1.77-0.322-3.881-0.871-6.174-1.81c-2.293-0.929-4.751-2.287-7.132-4.117
		c-2.383-1.825-4.674-4.128-6.676-6.812c-2.008-2.681-3.726-5.732-5.126-8.991c-1.393-3.262-2.526-6.719-3.338-10.275
		c-0.792-3.557-1.44-7.186-1.773-10.829l-0.156-1.428l-0.076-1.342l-0.152-2.679c-0.072-1.796-0.279-3.527-0.198-5.366
		c0.025-1.808,0.05-3.601,0.075-5.374c0.129-1.761,0.318-3.493,0.472-5.194c0.04-0.425,0.081-0.848,0.121-1.27
		c0.077-0.419,0.153-0.835,0.229-1.25c0.153-0.828,0.304-1.648,0.454-2.459c0.235-1.63,0.735-3.177,1.164-4.687
		c0.237-0.749,0.385-1.51,0.687-2.216c0.286-0.709,0.567-1.407,0.844-2.093c0.492-1.394,1.22-2.636,1.866-3.842
		c0.162-0.301,0.323-0.599,0.481-0.893c0.162-0.292,0.373-0.554,0.553-0.827c0.374-0.538,0.739-1.064,1.094-1.576
		c0.331-0.528,0.762-0.965,1.146-1.412c0.389-0.442,0.767-0.872,1.133-1.288c0.82-0.748,1.558-1.478,2.315-2.061
		c0.783-0.552,1.454-1.119,2.161-1.487c0.341-0.2,0.663-0.389,0.967-0.567c0.311-0.163,0.616-0.293,0.891-0.426
		c0.547-0.276,1.041-0.445,1.436-0.591c0.795-0.281,1.238-0.362,1.238-0.362s-0.437,0.112-1.206,0.446
		c-0.382,0.172-0.858,0.372-1.38,0.684c-0.263,0.15-0.553,0.299-0.848,0.48c-0.286,0.196-0.591,0.404-0.912,0.624
		c-0.664,0.406-1.287,1.013-2.01,1.6c-0.698,0.619-1.367,1.384-2.108,2.158c-0.326,0.428-0.663,0.87-1.01,1.325
		c-0.341,0.458-0.725,0.901-1.01,1.438c-0.308,0.517-0.624,1.048-0.947,1.591c-0.155,0.275-0.339,0.536-0.475,0.829
		c-0.133,0.295-0.267,0.593-0.403,0.895c-0.539,1.206-1.153,2.431-1.532,3.812c-0.219,0.675-0.442,1.362-0.668,2.059
		c-0.242,0.69-0.332,1.443-0.509,2.176c-0.31,1.48-0.687,2.98-0.802,4.574c-0.089,0.788-0.18,1.585-0.271,2.389
		c-0.045,0.401-0.091,0.805-0.137,1.21c-0.01,0.41-0.02,0.822-0.03,1.235c-0.032,1.653-0.099,3.33-0.106,5.022
		c0.094,1.685,0.188,3.391,0.284,5.111c0.031,1.695,0.367,3.493,0.562,5.256l0.339,2.662l0.17,1.333l0.227,1.232
		c0.562,3.473,1.424,6.867,2.393,10.138c0.988,3.268,2.257,6.357,3.703,9.182c1.454,2.822,3.137,5.356,4.978,7.484
		c1.838,2.133,3.828,3.855,5.811,5.164c3.971,2.648,7.864,3.551,10.505,3.841c1.33,0.145,2.366,0.138,3.03,0.105
		c0.333-0.018,0.567-0.041,0.714-0.057c0.111-0.017,0.168-0.026,0.168-0.026L241.901,246.745z"/>
</g>
<g>
	<path fill="#DC00DC" d="M278.831,183.263c1.808-0.86,3.674-1.596,5.562-2.278c1.89-0.678,3.805-1.299,5.75-1.821
		c3.889-1.048,7.877-1.838,11.948-2.152c2.035-0.171,4.091-0.169,6.152-0.093c2.06,0.138,4.132,0.362,6.181,0.829
		c2.04,0.48,4.088,1.081,6.01,2.032c0.989,0.412,1.895,1.003,2.836,1.526c0.451,0.294,0.889,0.614,1.332,0.922
		c0.451,0.302,0.885,0.625,1.285,0.99l1.236,1.06l1.134,1.168c0.789,0.757,1.399,1.655,2.086,2.498
		c0.343,0.424,0.601,0.898,0.904,1.347l0.438,0.684l0.219,0.342l0.109,0.171l0.131,0.248l1.4,2.648l0.701,1.324
		c0.229,0.447,0.418,0.972,0.629,1.455l1.225,2.968c0.346,1.002,0.637,2.016,0.955,3.027c0.35,0.999,0.551,2.049,0.764,3.098
		c0.221,1.046,0.451,2.091,0.525,3.173c0.092,1.076,0.283,2.142,0.241,3.237c-0.019,1.09,0.067,2.181-0.084,3.275
		c-0.104,1.094-0.185,2.193-0.438,3.276c-0.11,0.543-0.205,1.089-0.334,1.629l-0.473,1.604c-0.145,0.539-0.338,1.064-0.557,1.581
		c-0.219,0.516-0.397,1.049-0.656,1.551l-0.76,1.513l-0.877,1.466c-0.332,0.476-0.641,0.953-1.006,1.422
		c-0.383,0.488-0.683,0.881-1.267,1.471l-3.466-4.948c1.879-0.932,3.605-1.656,5.441-2.372c1.815-0.702,3.656-1.338,5.522-1.907
		c3.731-1.135,7.573-2.003,11.521-2.474c1.973-0.23,3.972-0.353,5.99-0.331c2.015,0.003,4.049,0.146,6.078,0.468
		c2.031,0.29,4.057,0.797,6.035,1.473c1.992,0.644,3.896,1.6,5.73,2.654c0.89,0.576,1.801,1.125,2.625,1.797l0.631,0.485
		l0.314,0.243l0.039,0.03l0.12,0.102l0.066,0.058l0.131,0.116l1.049,0.931c0.704,0.641,1.39,1.194,2.108,1.908l2.156,2.18
		c0.722,0.727,1.328,1.508,1.992,2.266c0.664,0.748,1.26,1.565,1.846,2.388l0.889,1.227c0.29,0.414,0.542,0.859,0.814,1.288
		c0.532,0.866,1.084,1.719,1.53,2.643c0.47,0.908,0.957,1.806,1.333,2.763c0.412,0.939,0.807,1.884,1.116,2.864
		c0.163,0.486,0.341,0.968,0.489,1.457l0.4,1.481c0.293,0.984,0.452,1.987,0.668,2.981c0.344,1.99,0.596,3.998,0.715,5.938
		c0.141,1.937,0.194,3.851,0.328,5.554l-2.647-2.994c2.458,0.527,4.956,1.039,7.498,1.653c2.539,0.625,5.107,1.276,7.669,2.207
		c1.283,0.41,2.551,0.995,3.82,1.522c0.628,0.299,1.248,0.635,1.871,0.953l0.932,0.488l0.902,0.576
		c2.441,1.445,4.644,3.458,6.474,5.725l1.29,1.777c0.402,0.607,0.709,1.271,1.063,1.906c0.756,1.26,1.13,2.65,1.638,3.988
		c0.133,0.336,0.229,0.676,0.294,1.021l0.229,1.03l0.448,2.059l0.212,2.058l0.103,1.028l0.05,0.515l0.024,0.257l0.012,0.128
		l0.009,0.217c0.008,1.28,0.038,2.534,0.027,3.835c-0.091,1.37-0.122,2.765-0.277,4.106c-0.198,1.33-0.295,2.673-0.604,3.981
		l-0.401,1.972c-0.157,0.649-0.344,1.291-0.515,1.938c-0.711,2.576-1.657,5.054-2.668,7.452c-1.007,2.411-2.106,4.71-3.121,7.017
		c-1.043,2.296-1.926,4.59-2.675,6.92c-0.763,2.308-1.178,4.763-1.446,7.103c-0.166,2.601-0.205,4.958,0.041,7.449
		c0.25,2.46,0.701,4.91,1.438,7.293c0.728,2.383,1.746,4.684,2.999,6.864c1.26,2.179,2.786,4.221,4.601,6.015
		c-2.029-1.554-3.785-3.469-5.311-5.552c-1.534-2.082-2.783-4.382-3.775-6.792c-0.989-2.412-1.716-4.939-2.195-7.52
		c-0.46-2.56-0.614-5.309-0.638-7.799l0.103-2.036l0.057-0.999l0.133-0.989c0.096-0.658,0.163-1.326,0.286-1.979l0.411-1.951
		c0.621-2.574,1.457-5.086,2.373-7.492c0.896-2.415,1.857-4.776,2.677-7.122c0.831-2.349,1.566-4.691,2.072-7.063
		c0.129-0.592,0.274-1.182,0.392-1.773l0.284-1.788c0.233-1.185,0.258-2.396,0.39-3.591c0.089-1.193,0.056-2.352,0.099-3.523
		c-0.042-1.244-0.128-2.537-0.19-3.803l-0.486-3.385l-0.445-1.656l-0.217-0.826c-0.061-0.281-0.148-0.55-0.269-0.802
		c-0.452-1.017-0.772-2.106-1.386-3.013c-0.282-0.467-0.512-0.969-0.825-1.411l-0.993-1.286c-1.412-1.636-3.044-3.104-5.027-4.198
		l-0.718-0.438l-0.771-0.375c-0.52-0.245-1.024-0.508-1.551-0.743c-1.099-0.413-2.154-0.884-3.311-1.216
		c-2.248-0.756-4.642-1.301-7.061-1.831l-7.452-1.515c-1.477-0.3-2.521-1.535-2.646-2.963l-0.002-0.031
		c-0.174-2.025-0.236-3.852-0.385-5.644c-0.124-1.792-0.361-3.498-0.666-5.19c-0.191-0.83-0.326-1.679-0.581-2.486l-0.34-1.224
		c-0.126-0.404-0.278-0.797-0.416-1.197c-0.257-0.805-0.594-1.581-0.94-2.352c-0.311-0.786-0.73-1.526-1.125-2.277
		c-0.367-0.763-0.846-1.474-1.299-2.197c-0.231-0.358-0.441-0.729-0.691-1.078l-0.768-1.036c-0.504-0.696-1.012-1.389-1.601-2.032
		c-0.572-0.645-1.101-1.358-1.696-1.958l-1.768-1.829c-0.598-0.614-1.361-1.249-2.034-1.873l-1.041-0.94l-0.13-0.117l-0.065-0.059
		c0.032,0.027-0.094-0.082,0.067,0.058l-0.016-0.012l-0.029-0.023l-0.24-0.185l-0.479-0.372c-0.619-0.525-1.316-0.937-1.987-1.39
		c-1.401-0.809-2.845-1.572-4.415-2.087c-1.553-0.543-3.167-0.971-4.838-1.221c-1.66-0.281-3.367-0.417-5.092-0.433
		c-1.722-0.041-3.463,0.068-5.207,0.233c-3.492,0.324-6.998,1.016-10.445,1.97c-1.725,0.478-3.436,1.02-5.124,1.624
		c-1.665,0.595-3.406,1.287-4.896,1.979l-0.096,0.044c-1.527,0.71-3.342,0.046-4.052-1.482c-0.568-1.224-0.252-2.634,0.68-3.511
		c0.124-0.116,0.46-0.492,0.696-0.788c0.258-0.312,0.498-0.67,0.751-1.003l0.688-1.087l0.612-1.149
		c0.213-0.378,0.354-0.798,0.539-1.194c0.181-0.399,0.358-0.8,0.483-1.224l0.432-1.252c0.12-0.426,0.21-0.862,0.318-1.293
		c0.25-0.855,0.342-1.75,0.469-2.638c0.174-0.883,0.123-1.799,0.184-2.702c0.086-0.905-0.056-1.822-0.089-2.737
		c-0.015-0.918-0.183-1.831-0.337-2.747c-0.145-0.916-0.273-1.837-0.553-2.739c-0.246-0.904-0.465-1.823-0.73-2.72l-0.949-2.613
		c-0.168-0.44-0.289-0.868-0.496-1.32l-0.621-1.363l-1.243-2.726l-0.039-0.085l-0.019-0.043l-0.011-0.021
		c0.017,0.03-0.049-0.097,0.033,0.062l-0.084-0.149l-0.169-0.298l-0.338-0.598c-0.233-0.391-0.426-0.817-0.692-1.184
		c-0.538-0.731-1-1.534-1.626-2.195l-0.891-1.039l-0.985-0.948c-0.317-0.331-0.668-0.624-1.034-0.899
		c-0.361-0.281-0.713-0.577-1.08-0.851c-0.781-0.486-1.518-1.048-2.357-1.45c-1.615-0.914-3.381-1.583-5.184-2.157
		c-1.813-0.56-3.705-0.911-5.615-1.184c-1.918-0.214-3.86-0.365-5.816-0.346c-1.953,0.016-3.92,0.072-5.882,0.271
		c-1.964,0.182-3.927,0.441-5.877,0.792C286.516,181.096,282.63,182.017,278.831,183.263z"/>
</g>
<g>
	<path fill="#DC00DC" d="M298.205,147.283c1.764-1.239,3.729-2.172,5.714-3.044c2.009-0.814,4.075-1.516,6.187-2.065
		c1.049-0.311,2.125-0.499,3.193-0.743c1.073-0.214,2.159-0.345,3.243-0.521c1.086-0.147,2.181-0.221,3.274-0.334
		c1.095-0.104,2.192-0.099,3.293-0.152c1.103-0.071,2.199,0.005,3.301,0.036l1.652,0.06l1.645,0.159
		c1.093,0.125,2.204,0.172,3.288,0.365l3.269,0.525c1.184,0.211,2.107,0.412,3.23,0.679c1.111,0.267,2.203,0.576,3.261,0.919
		c2.132,0.685,4.244,1.47,6.288,2.44c2.045,0.964,4.057,2.038,5.963,3.308c1.911,1.263,3.738,2.684,5.424,4.286
		c3.377,3.188,6.197,7.116,8.008,11.544c1.842,4.422,2.524,9.309,2.219,14.049c-0.18,2.37-0.581,4.704-1.186,6.969
		c-0.607,2.265-1.443,4.435-2.361,6.554l-3.914-4.847c4.102-0.911,8.306-1.62,12.652-1.883c2.174-0.125,4.385-0.146,6.635,0.056
		c1.125,0.103,2.258,0.267,3.395,0.481l1.709,0.397c0.57,0.175,1.141,0.32,1.706,0.527c1.132,0.408,2.263,0.873,3.345,1.502
		c1.094,0.588,2.123,1.35,3.079,2.19c0.481,0.416,0.908,0.9,1.355,1.354c0.398,0.497,0.814,0.986,1.175,1.508
		c0.713,1.05,1.327,2.156,1.792,3.296c0.479,1.137,0.829,2.299,1.09,3.455c0.272,1.159,0.4,2.311,0.521,3.457
		c0.057,1.136,0.12,2.274,0.07,3.384c0.006,1.125-0.132,2.209-0.206,3.309l-4.056-3.049c0.698-0.236,1.033-0.282,1.517-0.369
		c0.443-0.063,0.886-0.115,1.319-0.12c0.872-0.033,1.73,0.044,2.568,0.197c1.673,0.316,3.239,0.96,4.613,1.813
		c0.663,0.445,1.321,0.909,1.906,1.42c0.547,0.539,1.175,1.03,1.63,1.621c1.019,1.124,1.836,2.341,2.596,3.569l1.028,1.878
		c0.318,0.632,0.577,1.279,0.866,1.917l0.417,0.961l0.352,0.968l0.66,1.85c0.412,1.309,0.854,2.616,1.187,3.916
		c0.371,1.296,0.667,2.614,0.954,3.927c0.276,1.316,0.513,2.636,0.723,3.954c0.189,1.319,0.352,2.636,0.504,3.936
		c0.153,1.303,0.303,2.584,0.496,3.839c0.208,1.246,0.431,2.482,0.824,3.638c0.159,0.599,0.416,1.144,0.638,1.718l0.414,0.816
		l0.104,0.206c0.008,0.019,0.055,0.102,0.031,0.07l0.066,0.104l0.263,0.415l1.054,1.657l1.149,1.475
		c0.409,0.474,0.87,0.906,1.303,1.375c0.489,0.385,0.957,0.834,1.501,1.152c1.052,0.722,2.303,1.118,3.606,1.252
		c-1.299,0.104-2.685-0.1-3.903-0.692c-0.631-0.252-1.188-0.64-1.781-0.979c-0.528-0.414-1.091-0.805-1.595-1.262l-1.463-1.449
		l-1.262-1.507l-0.315-0.377l-0.079-0.094l-0.099-0.138l-0.148-0.215l-0.592-0.866c-0.335-0.606-0.718-1.209-0.977-1.851
		c-0.588-1.271-0.975-2.588-1.339-3.889c-0.349-1.302-0.643-2.597-0.935-3.87c-0.59-2.549-1.177-5.036-1.909-7.472
		c-0.376-1.214-0.756-2.424-1.208-3.608c-0.42-1.204-0.919-2.338-1.386-3.49l-0.812-1.784l-0.392-0.846l-0.425-0.809
		c-0.285-0.535-0.544-1.091-0.846-1.609l-0.951-1.507c-0.677-0.952-1.381-1.871-2.173-2.638c-0.364-0.435-0.819-0.706-1.214-1.07
		c-0.417-0.322-0.859-0.581-1.289-0.843c-0.883-0.468-1.796-0.759-2.7-0.873c-0.452-0.052-0.905-0.064-1.337-0.015
		c-0.221,0.013-0.426,0.05-0.629,0.087c-0.159,0.029-0.464,0.124-0.384,0.1l-4.057-3.049c0.017-0.943,0.103-1.898,0.052-2.821
		c0.004-0.937-0.096-1.84-0.174-2.745c-0.135-0.884-0.277-1.761-0.5-2.59c-0.215-0.831-0.484-1.628-0.826-2.365
		c-0.328-0.746-0.744-1.419-1.194-2.05c-0.23-0.312-0.497-0.59-0.738-0.889c-0.289-0.255-0.54-0.545-0.843-0.784
		c-0.604-0.48-1.227-0.945-1.947-1.306c-0.693-0.393-1.471-0.69-2.266-0.963c-0.396-0.139-0.824-0.232-1.232-0.355l-1.285-0.273
		c-0.877-0.146-1.771-0.261-2.686-0.327c-1.829-0.133-3.721-0.124-5.629,0.003c-1.91,0.126-3.842,0.359-5.777,0.666
		c-1.936,0.31-3.881,0.667-5.827,1.087c-1.883,0.406-3.737-0.79-4.145-2.673c-0.161-0.746-0.07-1.487,0.215-2.136l0.017-0.038
		c0.791-1.804,1.512-3.633,2.024-5.503c0.5-1.87,0.883-3.757,1.06-5.656c0.149-1.898,0.112-3.796-0.134-5.665
		c-0.243-1.867-0.667-3.716-1.345-5.484c-0.664-1.773-1.541-3.471-2.576-5.088c-1.039-1.613-2.236-3.151-3.607-4.549
		c-1.369-1.399-2.856-2.704-4.443-3.908c-1.588-1.205-3.305-2.259-5.075-3.231c-1.769-0.978-3.635-1.802-5.536-2.544
		c-0.958-0.379-1.911-0.698-2.857-1.025c-0.937-0.312-2.084-0.661-2.992-0.899l-3.024-0.751c-1.007-0.27-2.036-0.396-3.058-0.602
		l-1.536-0.282l-1.548-0.186c-1.034-0.106-2.067-0.295-3.107-0.34c-1.039-0.06-2.083-0.18-3.126-0.192
		c-1.043-0.003-2.092-0.046-3.138-0.018c-2.092,0.071-4.189,0.214-6.279,0.485c-2.094,0.257-4.163,0.688-6.224,1.201
		C302.191,145.735,300.154,146.384,298.205,147.283z"/>
</g>
<g>
	<path fill="#DC00DC" d="M241.467,144.516c-0.317-1.716-0.39-3.453-0.372-5.215c0.069-1.756,0.238-3.54,0.773-5.354
		c0.125-0.454,0.283-0.915,0.468-1.375c0.184-0.459,0.418-0.921,0.673-1.385c0.279-0.463,0.592-0.929,0.988-1.38
		c0.408-0.447,0.892-0.873,1.47-1.245c0.292-0.18,0.621-0.333,0.941-0.485c0.337-0.127,0.692-0.229,1.046-0.325
		c0.355-0.062,0.72-0.099,1.084-0.129c0.348,0.003,0.697,0.023,1.048,0.05c0.656,0.096,1.309,0.243,1.86,0.459
		c0.606,0.192,1.061,0.46,1.583,0.718l-4.461,3.379c-0.171-0.515-0.27-0.855-0.38-1.276c-0.105-0.403-0.198-0.806-0.277-1.217
		c-0.165-0.82-0.258-1.666-0.285-2.551c-0.025-0.885,0.021-1.814,0.206-2.795c0.09-0.487,0.229-0.988,0.419-1.496
		c0.18-0.504,0.419-1.02,0.723-1.518c0.593-0.999,1.464-1.939,2.476-2.6c0.254-0.155,0.512-0.311,0.773-0.451l0.789-0.35
		c0.518-0.188,1.06-0.372,1.56-0.458c0.517-0.116,1.008-0.174,1.492-0.212c0.495-0.053,0.938-0.033,1.409-0.034
		c0.449,0.024,0.887,0.065,1.327,0.105l1.259,0.192l-4,2.685c0.193-0.804,0.364-1.448,0.586-2.149
		c0.219-0.685,0.455-1.363,0.705-2.038c0.491-1.353,1.096-2.679,1.795-3.991c0.685-1.317,1.549-2.593,2.58-3.83
		c0.543-0.614,1.119-1.205,1.823-1.751c0.698-0.538,1.464-1.063,2.396-1.408c0.912-0.345,1.934-0.581,2.949-0.527
		c0.498,0.011,0.998,0.093,1.459,0.209l0.683,0.203l0.042,0.013l0.021,0.007l0.01,0.003c-0.049-0.011,0.121,0.03-0.105-0.025
		l0.059,0.021l0.118,0.042l0.237,0.084l0.929,0.326c0.22,0.058,0.442,0.126,0.675,0.201c0.232,0.063,0.476,0.075,0.725,0.125
		c0.244,0.035,0.451,0.014,0.699,0.036c0.427-0.051,0.875-0.111,1.277-0.363c0.422-0.22,0.82-0.599,1.188-1.069
		c0.378-0.462,0.668-1.039,0.974-1.627c0.319-0.585,0.567-1.235,0.947-1.819c-0.021,1.355,0.123,2.722-0.276,4.201
		c-0.073,0.371-0.237,0.738-0.383,1.116c-0.205,0.356-0.386,0.738-0.685,1.065c-0.526,0.713-1.32,1.223-2.141,1.602
		c-0.406,0.134-0.842,0.314-1.259,0.388c-0.415,0.061-0.837,0.147-1.267,0.169c-0.43,0.009-0.866,0.009-1.309,0.001
		c-0.375-0.02-0.678-0.06-1.02-0.088l-0.25-0.024l-0.125-0.012l-0.063-0.006c-0.231-0.056-0.066-0.016-0.119-0.028h-0.006h-0.01
		l-0.02,0.001l-0.295,0.004c-0.189,0.009-0.36,0.044-0.521,0.083c-0.321,0.062-0.598,0.242-0.887,0.442
		c-0.282,0.202-0.588,0.492-0.881,0.831c-0.301,0.326-0.574,0.768-0.859,1.19c-0.563,0.889-1.04,1.923-1.495,3.005
		c-0.448,1.085-0.828,2.233-1.194,3.394c-0.178,0.582-0.345,1.171-0.496,1.762c-0.145,0.575-0.317,1.216-0.42,1.707
		c-0.369,1.772-2.039,2.94-3.806,2.711l-0.196-0.026l-0.822-0.109l-0.772-0.045c-0.229,0.02-0.491-0.016-0.692,0.012
		c-0.218,0.012-0.423,0.029-0.592,0.068c-0.195,0.018-0.317,0.082-0.461,0.115c-0.057,0.028-0.115,0.05-0.176,0.068
		c-0.047,0.029-0.088,0.057-0.137,0.076c-0.167,0.1-0.297,0.188-0.442,0.381c-0.285,0.368-0.572,1.221-0.645,2.259
		c-0.039,0.517-0.028,1.074-0.003,1.644c0.014,0.285,0.04,0.573,0.074,0.858l0.108,0.771l0.052,0.373
		c0.231,1.646-0.915,3.166-2.56,3.397c-0.703,0.099-1.386-0.055-1.953-0.392c-0.222-0.131-0.458-0.359-0.648-0.449
		c-0.21-0.146-0.376-0.206-0.539-0.293c-0.068-0.015-0.136-0.045-0.206-0.078c-0.055-0.002-0.111-0.017-0.174-0.047
		c-0.053,0.006-0.11-0.011-0.177-0.022c-0.063,0.019-0.132,0.009-0.211,0.023c-0.156,0.043-0.344,0.122-0.549,0.253l-0.322,0.232
		l-0.332,0.298c-0.216,0.233-0.439,0.476-0.647,0.762c-0.209,0.282-0.43,0.573-0.624,0.897c-0.798,1.274-1.497,2.759-2.127,4.288
		c-0.33,0.764-0.64,1.547-0.927,2.343C242.045,142.891,241.759,143.696,241.467,144.516z"/>
</g>
<g>
	<path fill="#DC00DC" d="M184.037,152.819c-1.854-0.622-3.74-1.114-5.638-1.514c-1.9-0.389-3.805-0.721-5.719-0.919
		c-1.912-0.205-3.829-0.284-5.729-0.258c-1.899,0.019-3.789,0.157-5.634,0.477c-1.843,0.319-3.654,0.756-5.377,1.398
		c-1.718,0.644-3.38,1.399-4.915,2.357c-1.512,0.987-2.97,2.05-4.226,3.339c-0.66,0.604-1.222,1.318-1.825,1.977
		c-0.529,0.733-1.129,1.397-1.602,2.173l-0.75,1.125l-0.094,0.14l-0.023,0.035c-0.037,0.057,0.037-0.059,0.025-0.039l-0.011,0.02
		l-0.046,0.079l-0.184,0.316l-0.368,0.633l-1.47,2.531c-0.498,0.846-0.842,1.654-1.272,2.478c-0.414,0.818-0.833,1.631-1.158,2.494
		c-0.333,0.852-0.736,1.691-1.015,2.547l-0.802,2.566l-0.535,2.562c-0.064,0.847-0.206,1.694-0.228,2.531l0.022,1.248l0.009,0.622
		l0.088,0.614l0.163,1.226c0.079,0.406,0.202,0.809,0.298,1.213c0.159,0.809,0.511,1.609,0.773,2.415
		c0.329,0.806,0.678,1.608,1.073,2.418c0.806,1.621,1.727,3.247,2.708,4.941c0.977,1.676,1.953,3.446,2.896,5.252
		c0.855,1.638,0.22,3.658-1.417,4.513c-0.5,0.261-1.036,0.383-1.564,0.38l-0.232-0.003c-0.874-0.008-1.778-0.002-2.723,0.14
		c-0.936,0.108-1.89,0.313-2.841,0.535c-0.952,0.249-1.899,0.538-2.84,0.867c-0.94,0.334-1.871,0.705-2.784,1.121
		c-3.656,1.656-7.044,3.948-9.812,6.705l-1.001,1.062l-0.93,1.108l-0.852,1.153l-0.768,1.195l-0.677,1.233l-0.579,1.268
		l-0.483,1.296l-0.376,1.324l-0.266,1.347c-0.068,0.452-0.097,0.91-0.153,1.365c-0.05,0.916-0.064,1.838,0.029,2.766
		c0.011,0.464,0.106,0.926,0.176,1.39l0.107,0.696l0.169,0.693c0.184,0.931,0.516,1.843,0.808,2.765l0.033,0.104
		c0.563,1.778-0.422,3.676-2.2,4.239c-0.212,0.067-0.444,0.114-0.657,0.138c-1.138,0.123-2.43,0.518-3.679,1.201
		c-0.318,0.146-0.606,0.391-0.913,0.578c-0.295,0.214-0.628,0.364-0.897,0.629c-0.552,0.497-1.176,0.913-1.664,1.496l-0.785,0.816
		c-0.244,0.289-0.459,0.603-0.693,0.902c-0.22,0.308-0.484,0.59-0.674,0.919l-0.579,0.983c-0.776,1.312-1.312,2.748-1.732,4.211
		c-0.138,0.36-0.188,0.738-0.248,1.114l-0.195,1.13c-0.093,0.375-0.077,0.76-0.092,1.143l-0.041,1.153
		c0.044,1.536,0.215,3.095,0.66,4.616c0.108,0.379,0.153,0.776,0.31,1.146l0.445,1.116c0.295,0.746,0.555,1.51,0.995,2.207
		l1.207,2.193c0.458,0.769,0.916,1.513,1.379,2.359c0.926,1.643,1.742,3.275,2.498,4.967c0.763,1.68,1.442,3.395,2.045,5.133
		c0.617,1.733,1.135,3.502,1.551,5.293c0.423,1.787,0.774,3.592,1.013,5.414c0.48,3.635,0.564,7.358-0.112,10.99
		c-0.347,1.805-0.861,3.607-1.784,5.216c-0.431,0.816-1.005,1.553-1.618,2.226c-0.642,0.657-1.391,1.188-2.186,1.596
		c0.727-0.529,1.348-1.162,1.871-1.861c0.491-0.724,0.926-1.477,1.219-2.297c0.63-1.613,0.907-3.345,1.03-5.066
		c0.208-3.465-0.287-6.942-1.053-10.322c-0.801-3.383-1.98-6.666-3.369-9.838c-0.694-1.586-1.456-3.143-2.292-4.654
		c-0.821-1.51-1.725-3.009-2.667-4.408c-0.446-0.688-0.982-1.428-1.497-2.154c-0.483-0.723-1.022-1.607-1.527-2.409
		c-0.553-0.796-0.94-1.702-1.352-2.595l-0.615-1.342c-0.212-0.443-0.316-0.939-0.478-1.408c-0.658-1.879-1.015-3.877-1.178-5.894
		l-0.037-1.524c-0.007-0.509-0.041-1.02,0.039-1.525l0.169-1.523c0.056-0.509,0.106-1.019,0.25-1.511
		c0.428-2,1.106-3.953,2.062-5.761l0.731-1.351c0.246-0.45,0.568-0.851,0.851-1.278c0.297-0.418,0.579-0.848,0.895-1.252
		l1.018-1.162c0.648-0.802,1.467-1.461,2.235-2.162c0.371-0.363,0.841-0.632,1.262-0.948c0.442-0.294,0.847-0.629,1.326-0.883
		c1.857-1.081,3.971-1.911,6.391-2.196l-2.824,4.481c-0.42-1.166-0.864-2.321-1.154-3.549l-0.236-0.911l-0.167-0.935
		c-0.108-0.624-0.234-1.245-0.271-1.885c-0.145-1.268-0.158-2.556-0.103-3.841c0.059-0.642,0.097-1.287,0.183-1.925
		c0.111-0.635,0.213-1.273,0.342-1.905l0.496-1.868l0.642-1.815l0.785-1.746l0.905-1.673l1.011-1.595l1.105-1.514
		c0.387-0.487,0.791-0.956,1.188-1.433c0.41-0.463,0.839-0.903,1.26-1.353c0.867-0.87,1.768-1.698,2.704-2.475
		c0.942-0.769,1.916-1.491,2.917-2.166c2.004-1.347,4.112-2.511,6.307-3.492c1.097-0.491,2.219-0.932,3.36-1.329
		c1.141-0.398,2.314-0.721,3.502-1.012c1.2-0.262,2.411-0.498,3.669-0.625c1.243-0.158,2.553-0.171,3.881-0.118l-3.213,4.89
		c-0.833-1.667-1.72-3.324-2.651-5.051c-0.925-1.71-1.882-3.505-2.758-5.404c-0.433-0.953-0.838-1.955-1.212-2.965
		c-0.327-1.052-0.71-2.069-0.901-3.185c-0.109-0.549-0.241-1.091-0.325-1.644l-0.163-1.681l-0.075-0.839l0.012-0.84l0.043-1.678
		c0.075-1.108,0.284-2.189,0.431-3.279c0.25-1.052,0.542-2.09,0.821-3.129l1.109-2.964c0.384-0.976,0.875-1.88,1.309-2.82
		c0.421-0.942,0.943-1.838,1.462-2.734c0.519-0.878,1.018-1.835,1.556-2.642l1.61-2.444l0.402-0.611l0.201-0.306l0.05-0.076
		l0.063-0.096l0.029-0.039l0.118-0.158l0.945-1.259c0.602-0.857,1.377-1.594,2.058-2.388c0.766-0.727,1.489-1.494,2.318-2.15
		c1.59-1.387,3.394-2.51,5.233-3.506c1.865-0.963,3.827-1.696,5.822-2.24c2.003-0.525,4.042-0.807,6.069-0.952
		c4.061-0.283,8.084,0.166,11.949,1.054c1.933,0.448,3.837,0.988,5.688,1.667C180.483,151.158,182.308,151.897,184.037,152.819z"/>
</g>
<g>
	<path fill="#DC00DC" d="M131.451,332.719c2.752-0.981,5.292-2.349,7.603-3.954c1.163-0.791,2.245-1.678,3.284-2.588
		c1.027-0.927,1.984-1.912,2.869-2.946c0.873-1.045,1.691-2.122,2.411-3.26c0.356-0.57,0.728-1.127,1.025-1.731
		c0.312-0.595,0.659-1.162,0.915-1.785c0.587-1.2,1.033-2.465,1.48-3.718l0.578-1.918l0.446-1.96c0.177-0.643,0.246-1.32,0.364-1.98
		c0.108-0.663,0.231-1.321,0.274-1.999l0.199-2.014l0.085-2.035c0.104-1.35-0.028-2.729-0.009-4.087
		c-0.068-1.368-0.164-2.74-0.282-4.109c-0.195-1.37-0.289-2.743-0.514-4.114c-0.244-1.371-0.419-2.744-0.715-4.109
		c-0.29-1.367-0.534-2.74-0.86-4.104l-1.008-4.09l-0.044-0.177c-0.418-1.694,0.547-3.41,2.163-3.972
		c2.236-0.77,4.437-1.338,6.58-1.801c2.145-0.461,4.208-0.896,6.206-1.361c1.001-0.231,1.967-0.497,2.923-0.78
		c0.939-0.306,1.875-0.604,2.763-0.974c0.898-0.357,1.756-0.774,2.579-1.241c0.835-0.451,1.614-0.983,2.378-1.546
		c0.736-0.592,1.454-1.221,2.126-1.91c0.669-0.694,1.292-1.444,1.877-2.24c0.592-0.792,1.122-1.643,1.638-2.514
		c0.477-0.895,0.975-1.791,1.388-2.741c0.435-0.937,0.824-1.91,1.197-2.892c0.35-0.991,0.731-1.983,1.031-3.005
		c0.349-1.011,0.583-2.052,0.896-3.086c0.298-1.037,0.52-2.091,0.816-3.142c0.104,2.168,0.129,4.356-0.061,6.542
		c-0.069,1.097-0.19,2.195-0.358,3.291c-0.181,1.092-0.366,2.197-0.656,3.282c-0.262,1.093-0.601,2.176-0.978,3.255
		c-0.416,1.066-0.861,2.132-1.401,3.17c-0.545,1.033-1.168,2.038-1.865,3.005c-0.341,0.488-0.736,0.94-1.11,1.41
		c-0.394,0.452-0.82,0.879-1.233,1.319c-0.874,0.828-1.789,1.627-2.773,2.324c-0.983,0.696-2.011,1.324-3.063,1.87
		c-2.099,1.126-4.291,1.923-6.433,2.608c-2.143,0.695-4.273,1.217-6.302,1.787c-2.029,0.568-3.988,1.111-5.794,1.814l2.119-4.148
		l1.157,4.328c0.363,1.449,0.646,2.928,0.971,4.391c0.304,1.469,0.483,2.975,0.728,4.46c0.222,1.491,0.336,3.011,0.48,4.517
		c0.083,1.52,0.139,3.043,0.163,4.568l-0.065,2.298c-0.01,0.765-0.07,1.531-0.153,2.3l-0.226,2.299l-0.384,2.291
		c-0.111,0.765-0.307,1.521-0.491,2.276c-0.194,0.754-0.338,1.515-0.598,2.255l-0.738,2.221l-0.892,2.171
		c-0.65,1.425-1.373,2.815-2.216,4.138c-0.82,1.331-1.752,2.596-2.777,3.77c-1.001,1.192-2.122,2.278-3.295,3.282
		c-0.577,0.513-1.208,0.961-1.811,1.433c-0.636,0.432-1.265,0.868-1.916,1.266c-1.303,0.796-2.661,1.479-4.049,2.063
		c-1.401,0.56-2.822,1.033-4.263,1.396C134.385,332.422,132.919,332.677,131.451,332.719z"/>
</g>
</svg>
