<?xml version="1.0" encoding="utf-8"?>
<!-- Generator: Adobe Illustrator 16.0.0, SVG Export Plug-In . SVG Version: 6.00 Build 0)  -->
<!DOCTYPE svg PUBLIC "-//W3C//DTD SVG 1.1//EN" "http://www.w3.org/Graphics/SVG/1.1/DTD/svg11.dtd">
<svg version="1.1"
	 id="svg12211" xmlns:dc="http://purl.org/dc/elements/1.1/" xmlns:cc="http://creativecommons.org/ns#" xmlns:rdf="http://www.w3.org/1999/02/22-rdf-syntax-ns#" xmlns:svg="http://www.w3.org/2000/svg" xmlns:sodipodi="http://sodipodi.sourceforge.net/DTD/sodipodi-0.dtd" xmlns:inkscape="http://www.inkscape.org/namespaces/inkscape" inkscape:export-ydpi="72.021774" inkscape:export-xdpi="72.021774" inkscape:export-filename="C:\Users\Zealotlee\Dropbox\Small Projects\Steves Fuzzballs\fuschia-fuzzle.png" sodipodi:docname="acc-face-mustache.svg" inkscape:version="0.91 r13725"
	 xmlns="http://www.w3.org/2000/svg" xmlns:xlink="http://www.w3.org/1999/xlink" x="0px" y="0px" width="463.065px"
	 height="346.982px" viewBox="27.936 83.039 463.065 346.982" enable-background="new 27.936 83.039 463.065 346.982"
	 xml:space="preserve">
<path fill="#DC00DC" stroke="#C800C8" stroke-width="5" stroke-linejoin="round" stroke-miterlimit="10" d="M86.501,425.039
	c0,0-13.5,14-30-24.5s-27-25.5-26-67.5s67.5-135.5,105.5-171.5c-3,22,0.5,42,4,61c46-50.5,123.5-115.5,186-137
	c-12,31.5-21.5,70-27,84c49-26,111.5-62,121.5-84c0,48.5-8.5,118-29.5,136.5c29-1.5,70.5-33,82.5-51c-0.5,41-7,89-23,104.5
	c14.5-5.5,30.5-20,38-28c-3,34.5,3.5,80-82,122.5c-15-20.5-30.5-42.5-43.5-51c0,26-1,30-2.5,37c-13.5-25.5-34.065-56-101.033-63
	c2.533,11.5,7.533,20,12.033,24c-16.5,1.5-52.5,1-78-17.5c-8.5,17.5-63.5,75.5-77,81.5c7-22.5,13-45.5,13.5-54.5
	C113.501,346.539,93.501,373.539,86.501,425.039z"/>
<path fill="#FF00FF" d="M165.835,240.872c0,0,45.398-65.333,76.199-86c30.801-20.667,40.467-23,40.467-23
	s-20.399,17.333-23.033,26.667c-2.634,9.333-15.235,30.667-17.435,33.667C239.833,195.206,179.168,236.872,165.835,240.872z"/>
<path fill="#FF00FF" d="M288.501,209.206c0,0,31.667,2.333,59-12s49.333-18.627,49.333-69.667
	C396.835,127.539,361.835,176.872,288.501,209.206z"/>
<path fill="#FF00FF" d="M446.501,219.539c0,0,0.667,29-14.333,35s-32.333,1.99-32.333,1.99S438.835,233.539,446.501,219.539z"/>
<path fill="#FF00FF" d="M458.168,290.872c0,0-6,32-19.667,35.667s-28.667,0-28.667,0S446.168,313.539,458.168,290.872z"/>
<path fill="#FF00FF" d="M271.835,257.841c0,0,31.333-7.636,50.333,7.031s22,29.333,22,29.333S291.835,283.811,271.835,257.841z"/>
<path fill="#FF00FF" d="M193.168,268.539c0,0,37.333,0.667,45,25.667c-16-5.667-26.667,0.667-31.333-8.333
	C202.168,276.872,193.168,268.539,193.168,268.539z"/>
<path fill="#FF00FF" d="M153.835,300.206c0,0-6.667,27.333-10,34s11,3.667,16-3.667S183.501,301.206,153.835,300.206z"/>
<path fill="#FF00FF" d="M66.501,386.539c0,0-24-6.667-18.667-54.333s48.333-95,54.333-98.667c-7,28.667-15.44,67.667-27.553,88.333
	C62.501,342.539,59.168,368.539,66.501,386.539z"/>
<g>
	<path fill="#C800C8" d="M302.781,170.257c0,0-1.061,0.933-2.92,2.567c-1.857,1.623-4.541,3.897-7.791,6.588
		c-1.637,1.329-3.409,2.77-5.285,4.293c-1.905,1.488-3.878,3.097-5.982,4.686c-2.094,1.601-4.248,3.263-6.49,4.887
		c-1.114,0.818-2.237,1.643-3.367,2.471c-1.145,0.805-2.293,1.614-3.443,2.423c-2.279,1.641-4.639,3.174-6.936,4.712
		c-2.28,1.562-4.641,2.935-6.858,4.35c-2.235,1.391-4.481,2.604-6.561,3.822c-2.104,1.182-4.165,2.174-6.025,3.155
		c-0.924,0.503-1.855,0.898-2.732,1.289c-0.876,0.39-1.708,0.759-2.489,1.107c-0.785,0.338-1.501,0.693-2.195,0.95
		c-0.697,0.249-1.336,0.479-1.914,0.686c-2.306,0.826-3.624,1.298-3.624,1.298s1.289-0.544,3.544-1.497
		c0.563-0.238,1.186-0.501,1.864-0.787c0.674-0.294,1.37-0.689,2.132-1.068c0.757-0.388,1.562-0.802,2.411-1.238
		c0.848-0.436,1.747-0.877,2.639-1.43c1.796-1.079,3.779-2.174,5.8-3.462c1.999-1.327,4.151-2.648,6.291-4.152
		c2.124-1.529,4.377-3.012,6.553-4.69c2.193-1.652,4.44-3.298,6.611-5.052c1.092-0.864,2.187-1.728,3.275-2.589
		c1.072-0.883,2.139-1.762,3.199-2.635c2.128-1.731,4.172-3.498,6.156-5.198c1.992-1.688,3.859-3.393,5.662-4.969
		c1.771-1.611,3.445-3.134,4.991-4.539c3.063-2.841,5.591-5.235,7.328-6.934c1.729-1.7,2.716-2.672,2.716-2.672L302.781,170.257z"/>
</g>
<g>
	<path fill="#C800C8" d="M143.115,222.239c0,0-0.242,0.294-0.697,0.844c-0.428,0.546-1.181,1.369-1.911,2.376
		c-0.38,0.506-0.8,1.066-1.258,1.676c-0.45,0.623-0.915,1.333-1.425,2.073c-1,1.497-2.082,3.225-3.164,5.174
		c-1.104,1.936-2.189,4.106-3.286,6.431c-1.069,2.34-2.147,4.839-3.155,7.479c-2.049,5.265-3.918,11.038-5.731,16.847
		c-0.894,2.907-1.832,5.832-2.751,8.676c-0.965,2.848-1.915,5.648-2.833,8.36c-0.922,2.702-1.813,5.313-2.657,7.791
		c-0.798,2.488-1.61,4.827-2.251,7.015c-0.661,2.184-1.279,4.184-1.734,5.979c-0.475,1.792-0.924,3.348-1.191,4.652
		c-0.588,2.6-0.924,4.085-0.924,4.085s0.259-1.502,0.713-4.129c0.2-1.321,0.569-2.898,0.953-4.719c0.365-1.824,0.88-3.857,1.43-6.08
		c0.531-2.229,1.222-4.607,1.894-7.144c0.718-2.521,1.474-5.177,2.257-7.926c0.775-2.743,1.577-5.577,2.391-8.456
		c0.777-2.907,1.552-5.829,2.298-8.789c1.517-5.909,3.1-11.829,4.917-17.314c0.891-2.747,1.866-5.375,2.848-7.851
		c1.012-2.465,2.026-4.783,3.079-6.874c1.029-2.102,2.078-3.985,3.057-5.627c0.502-0.816,0.952-1.584,1.406-2.287
		c0.472-0.7,0.905-1.343,1.296-1.924c0.783-1.188,1.416-1.944,1.84-2.543c0.426-0.573,0.653-0.879,0.653-0.879L143.115,222.239z"/>
</g>
<g>
	<path fill="#C800C8" d="M398.885,215.065c0,0-0.137,0.321-0.393,0.922c-0.277,0.612-0.558,1.443-1.269,2.696
		c-0.625,1.261-1.501,2.589-2.548,4.076c-0.568,0.707-1.152,1.479-1.81,2.248c-0.697,0.73-1.384,1.546-2.187,2.299
		c-0.808,0.745-1.615,1.562-2.541,2.288c-0.453,0.374-0.914,0.754-1.383,1.14c-0.486,0.359-0.979,0.723-1.48,1.092
		c-0.983,0.762-2.074,1.413-3.146,2.144c-1.114,0.656-2.223,1.379-3.407,2.001c-2.33,1.317-4.818,2.5-7.363,3.63
		c-2.547,1.131-5.178,2.147-7.825,3.103c-2.624,0.952-5.328,1.841-7.978,2.607c-2.654,0.79-5.306,1.438-7.884,1.992
		c-2.582,0.541-5.098,0.96-7.499,1.238c-1.197,0.162-2.374,0.219-3.504,0.329c-1.136,0.054-2.232,0.103-3.284,0.127
		c-1.054-0.019-2.063-0.003-3.021-0.05c-0.958-0.068-1.866-0.112-2.717-0.19c-0.847-0.108-1.64-0.208-2.373-0.302
		c-0.729-0.107-1.392-0.262-1.993-0.371c-1.207-0.201-2.122-0.514-2.757-0.67c-0.631-0.171-0.967-0.262-0.967-0.262
		s0.34,0.072,0.98,0.208c0.643,0.12,1.566,0.38,2.779,0.512c0.604,0.075,1.269,0.192,1.998,0.257
		c0.73,0.052,1.521,0.107,2.365,0.167c0.844,0.031,1.745,0.023,2.692,0.037c0.946-0.007,1.942-0.078,2.979-0.117
		c1.037-0.082,2.113-0.19,3.227-0.306c1.107-0.171,2.258-0.291,3.427-0.517c2.345-0.405,4.792-0.956,7.298-1.628
		c2.5-0.687,5.064-1.468,7.627-2.39c2.58-0.907,5.127-1.904,7.691-3c2.543-1.084,5.061-2.221,7.469-3.457
		c2.407-1.234,4.741-2.509,6.891-3.889c1.098-0.657,2.104-1.401,3.125-2.078c0.965-0.745,1.961-1.413,2.83-2.172
		c0.445-0.368,0.883-0.731,1.315-1.088c0.41-0.379,0.813-0.751,1.21-1.118c0.814-0.712,1.496-1.493,2.189-2.204
		c0.686-0.718,1.246-1.478,1.832-2.157c0.541-0.711,1.009-1.414,1.474-2.055c0.425-0.665,0.778-1.311,1.13-1.892
		c0.369-0.584,0.547-1.121,0.799-1.6c0.475-0.886,0.778-1.892,1.006-2.486c0.222-0.615,0.34-0.943,0.34-0.943L398.885,215.065z"/>
</g>
<g>
	<path fill="#C800C8" d="M454.036,277.033c0,0-0.301,0.105-0.866,0.301c-0.554,0.199-1.432,0.475-2.367,0.87
		c-0.954,0.364-2.173,0.896-3.576,1.514c-1.429,0.638-3.041,1.355-4.801,2.14c-0.914,0.371-1.833,0.793-2.854,1.15
		c-0.503,0.186-1.016,0.375-1.534,0.567c-0.536,0.163-1.08,0.331-1.631,0.5c-0.276,0.084-0.554,0.168-0.832,0.253
		c-0.373,0.102-0.571,0.138-0.867,0.211c-0.547,0.129-1.101,0.26-1.661,0.393c-1.101,0.281-2.295,0.506-3.513,0.726
		c-0.605,0.112-1.216,0.225-1.831,0.339c-0.61,0.09-1.225,0.181-1.841,0.271c-1.234,0.18-2.482,0.369-3.741,0.5
		c-2.518,0.31-5.069,0.543-7.616,0.773c-2.54,0.221-5.08,0.443-7.581,0.66c-2.5,0.234-4.961,0.464-7.342,0.688
		c-1.206,0.071-2.392,0.144-3.552,0.213c-1.162,0.037-2.3,0.035-3.404,0.055c-2.213-0.051-4.306-0.135-6.217-0.426
		c-0.478-0.06-0.947-0.117-1.404-0.176c-0.455-0.074-0.894-0.183-1.325-0.27c-0.856-0.186-1.671-0.361-2.435-0.525
		c-1.491-0.477-2.806-0.828-3.851-1.228c-2.065-0.851-3.246-1.336-3.246-1.336s1.205,0.411,3.314,1.133
		c1.061,0.332,2.391,0.601,3.885,0.981c0.764,0.117,1.576,0.24,2.432,0.371c0.429,0.059,0.865,0.14,1.316,0.185
		c0.453,0.028,0.918,0.058,1.391,0.087c1.889,0.17,3.947,0.125,6.113,0.043c1.084-0.086,2.197-0.152,3.332-0.258
		c1.131-0.139,2.285-0.278,3.46-0.422c2.363-0.367,4.805-0.748,7.285-1.135c2.484-0.371,5.008-0.746,7.532-1.123
		c2.516-0.384,5.025-0.771,7.47-1.225c1.229-0.204,2.432-0.463,3.619-0.712c0.593-0.125,1.183-0.249,1.769-0.373
		c0.57-0.144,1.139-0.284,1.701-0.425c1.122-0.271,2.226-0.546,3.336-0.904c0.551-0.166,1.096-0.33,1.634-0.492
		c0.245-0.076,0.59-0.174,0.749-0.231l0.735-0.276c0.486-0.182,0.966-0.361,1.439-0.538c0.468-0.206,0.928-0.409,1.381-0.61
		c0.906-0.377,1.774-0.842,2.609-1.242c1.685-0.879,3.229-1.684,4.599-2.397c1.401-0.722,2.63-1.352,3.732-1.854
		c1.094-0.534,1.876-0.827,2.434-1.068c0.552-0.229,0.846-0.353,0.846-0.353L454.036,277.033z"/>
</g>
</svg>
