<?xml version="1.0" encoding="utf-8"?>
<!-- Generator: Adobe Illustrator 16.0.0, SVG Export Plug-In . SVG Version: 6.00 Build 0)  -->
<!DOCTYPE svg PUBLIC "-//W3C//DTD SVG 1.1//EN" "http://www.w3.org/Graphics/SVG/1.1/DTD/svg11.dtd">
<svg version="1.1"
	 id="svg12211" xmlns:dc="http://purl.org/dc/elements/1.1/" xmlns:cc="http://creativecommons.org/ns#" xmlns:rdf="http://www.w3.org/1999/02/22-rdf-syntax-ns#" xmlns:svg="http://www.w3.org/2000/svg" xmlns:sodipodi="http://sodipodi.sourceforge.net/DTD/sodipodi-0.dtd" xmlns:inkscape="http://www.inkscape.org/namespaces/inkscape" inkscape:export-ydpi="72.021774" inkscape:export-xdpi="72.021774" inkscape:export-filename="C:\Users\Zealotlee\Dropbox\Small Projects\Steves Fuzzballs\fuschia-fuzzle.png" sodipodi:docname="acc-face-mustache.svg" inkscape:version="0.91 r13725"
	 xmlns="http://www.w3.org/2000/svg" xmlns:xlink="http://www.w3.org/1999/xlink" x="0px" y="0px" width="486.153px"
	 height="457.999px" viewBox="6.583 26.962 486.153 457.999" enable-background="new 6.583 26.962 486.153 457.999"
	 xml:space="preserve">
<sodipodi:namedview  showguides="true" showgrid="false" inkscape:cy="193.02625" inkscape:cx="369.48506" inkscape:zoom="0.71220416" borderopacity="1.0" bordercolor="#666666" pagecolor="#ffffff" id="base" inkscape:window-maximized="1" inkscape:window-y="-8" inkscape:window-x="-8" inkscape:window-height="988" inkscape:window-width="1680" inkscape:pageshadow="2" inkscape:current-layer="layer1" inkscape:pageopacity="0.0" inkscape:document-units="px">
	</sodipodi:namedview>
<path fill="#DC00DC" stroke="#C800C8" stroke-width="5" stroke-linejoin="round" stroke-miterlimit="10" d="M298.449,81.06
	c0,0,59.053-18.619,88.535-8.147c124.929,48.342,60.292,159.691,63.008,178.701c2.716,19.011,41.824,41.28,40.193,72.241
	c-1.629,30.96-28.244,54.316-28.787,68.438s19.554,38.022,19.554,38.022s-9.234,1.086-24.442-2.717
	c-15.209-3.802-13.036-13.035-13.036-13.035s-5.432,17.381,1.087,25.528c-11.406-4.345-19.555-10.863-20.098-27.701
	s9.234-13.579,4.345-30.417c-4.889-16.838-16.295-27.157-26.071,9.777c-5.433-33.133-7.062-40.194,6.518-61.921
	c13.579-21.728,20.097-44.54-0.543-71.155c-20.64-26.615-56.488-30.96-69.525-31.504c-13.035-0.543-27.701-9.234-30.416-23.899
	l-65.724,1.086c0,0-16.838,20.64-29.331,24.442c-12.493,3.802-42.367,23.899-43.453,58.119s19.554,58.662,23.356,84.734
	c3.802,26.071-9.86,50.514-23.397,57.576c2.757-17.925,1.128-49.972-18.426-56.489c-19.554-6.519-15.752,29.331-9.777,38.564
	c5.975,9.234,19.554,45.083-27.701,71.155c10.32-27.158,18.468-72.784-12.493-75.5c-30.96-2.716-16.295,64.094-16.295,64.094
	s-61.378-42.91-62.464-62.464s23.899-50.514,22.27-62.464s-27.701-22.813-33.676-29.331c-5.975-6.518-0.543-29.806,5.975-39.889
	c6.518-10.083,46.169-32.896,56.489-44.845c10.32-11.95-1.086-55.946-1.086-86.363c0-27.294,30.417-116.237,126.558-116.237
	C243.047,29.46,269.119,46.298,298.449,81.06z"/>
<path fill="#DC00DC" stroke="#C800C8" stroke-width="5" stroke-linejoin="round" stroke-miterlimit="10" d="M298.449,81.06
	c0,0-42.178,14.665-48.79,68.982c-6.612,54.317-19.648,83.104-34.314,93.424c29.874-9.234,29.331-13.036,29.331-13.036
	s-9.777,19.554-19.554,25.529c24.986-7.061,46.712-19.011,49.971-26.072c-8.147,16.295-14.122,20.64-14.122,20.64
	s55.946-27.701,57.576-86.906C320.176,104.416,298.449,81.06,298.449,81.06z"/>
<g>
	<path fill="#C800C8" d="M290.139,98.116c0,0-1.33,9.818-3.845,24.468c-0.623,3.664-1.323,7.629-2.086,11.821
		c-0.769,4.191-1.64,8.599-2.587,13.154c-0.459,2.28-0.953,4.593-1.475,6.932c-0.51,2.341-1.028,4.71-1.604,7.09
		c-0.562,2.383-1.116,4.787-1.756,7.188c-0.613,2.406-1.233,4.821-1.952,7.223l-1.034,3.613c-0.392,1.199-0.782,2.397-1.174,3.593
		l-0.587,1.793l-0.691,1.784c-0.479,1.203-0.884,2.35-1.429,3.591c-2.051,4.424-4.028,8.765-6.33,12.901
		c-2.231,4.159-4.528,8.034-6.803,11.651c-2.213,3.658-4.475,7.002-6.537,10.107c-1.013,1.563-2.062,3.011-3.035,4.403
		c-0.983,1.386-1.889,2.716-2.788,3.936c-1.787,2.447-3.373,4.56-4.702,6.285c-2.669,3.443-4.299,5.339-4.299,5.339l-0.505-0.325
		c0,0,0.266-0.563,0.766-1.619c0.494-1.059,1.242-2.597,2.215-4.539c0.954-1.954,2.153-4.3,3.538-6.981
		c1.376-2.687,2.952-5.702,4.696-8.971c0.865-1.637,1.767-3.343,2.7-5.108c0.967-1.745,1.949-3.557,2.929-5.434
		c0.979-1.878,2.02-3.786,3.094-5.73c1.048-1.94,2.119-3.922,3.208-5.938c2.261-3.946,4.483-8.226,6.828-12.495
		c0.494-0.96,0.982-2.093,1.479-3.139c0.246-0.536,0.498-1.065,0.731-1.613l0.65-1.686c0.436-1.126,0.871-2.255,1.307-3.384
		l1.191-3.465c0.807-2.306,1.525-4.654,2.236-6.996c0.736-2.332,1.395-4.685,2.057-7.017c0.678-2.327,1.299-4.653,1.909-6.953
		c0.624-2.296,1.218-4.571,1.778-6.817c1.162-4.48,2.18-8.84,3.205-12.962c1.002-4.128,1.93-8.036,2.763-11.651
		c1.674-7.227,2.976-13.272,3.916-17.499c0.911-4.233,1.432-6.652,1.432-6.652L290.139,98.116z"/>
</g>
<g>
	<path fill="#C800C8" d="M298.195,93.653c0,0,0.775,2.411,1.99,6.669c0.61,2.129,1.313,4.725,2.076,7.716
		c0.748,2.994,1.57,6.38,2.372,10.099c0.388,1.862,0.823,3.797,1.185,5.819c0.191,1.01,0.385,2.036,0.582,3.079
		c0.17,1.049,0.344,2.113,0.52,3.192c0.711,4.318,1.225,8.922,1.452,13.743c0.032,1.209,0.103,2.424,0.103,3.658
		c-0.039,1.24-0.078,2.489-0.119,3.746c-0.217,2.517-0.535,5.161-1.121,7.586c-1.127,5.014-2.625,9.857-4.201,14.72
		c-1.57,4.852-3.309,9.637-5.049,14.339c-1.742,4.701-3.594,9.277-5.557,13.633c-1.992,4.342-4.045,8.485-6.188,12.316
		c-1.07,1.917-2.118,3.776-3.168,5.557c-1.077,1.767-2.124,3.467-3.18,5.075c-2.084,3.227-4.156,6.091-6.115,8.545
		c-1.976,2.443-3.786,4.503-5.45,6.055c-0.784,0.81-1.606,1.435-2.257,2.018c-0.701,0.544-1.301,0.993-1.797,1.341
		c-1.041,0.633-1.594,0.97-1.594,0.97l-0.348-0.489c0,0,0.438-0.445,1.256-1.278c0.376-0.444,0.842-0.992,1.387-1.636
		c0.5-0.691,1.114-1.426,1.726-2.333c0.309-0.446,0.634-0.916,0.976-1.408c0.323-0.507,0.661-1.038,1.014-1.591
		c0.707-1.102,1.444-2.314,2.197-3.633c1.54-2.61,3.139-5.648,4.857-8.972c0.867-1.656,1.724-3.412,2.604-5.23
		c0.905-1.804,1.808-3.689,2.726-5.631c1.803-3.903,3.704-8.018,5.672-12.276c1.974-4.257,4.017-8.66,6.038-13.162
		c2.02-4.502,3.929-9.14,5.725-13.812c1.751-4.67,3.446-9.426,4.708-14.067c0.687-2.385,1.039-4.643,1.355-6.963
		c0.09-1.176,0.179-2.345,0.268-3.506c0.052-1.169,0.035-2.342,0.056-3.5c0.037-1.158-0.013-2.313-0.063-3.459
		c-0.056-1.145-0.069-2.28-0.155-3.403c-0.191-2.246-0.316-4.449-0.566-6.591c-0.111-1.072-0.223-2.129-0.332-3.17
		c-0.135-1.04-0.269-2.063-0.399-3.07c-0.243-2.017-0.565-3.956-0.844-5.822c-0.585-3.729-1.209-7.136-1.784-10.154
		c-0.595-3.013-1.137-5.637-1.594-7.797c-0.928-4.318-1.539-6.764-1.539-6.764L298.195,93.653z"/>
</g>
<g>
	<path fill="#C800C8" d="M389.882,141.352c0,0-0.271-1.739-0.95-4.725c-0.677-2.985-1.773-7.221-3.492-12.142
		c-1.758-4.9-4.146-10.508-7.611-15.927c-1.732-2.705-3.784-5.311-6.094-7.714c-2.316-2.396-4.961-4.532-7.861-6.222
		c-2.881-1.723-6.018-2.997-9.23-3.804c-0.813-0.171-1.621-0.341-2.425-0.51c-0.76-0.148-1.663-0.266-2.479-0.4
		c-1.666-0.234-3.337-0.573-4.933-0.709c-1.607-0.166-3.185-0.367-4.74-0.498c-1.557-0.099-3.084-0.236-4.568-0.298
		c-1.484-0.016-2.934-0.068-4.33-0.053c-1.393,0.063-2.751,0.043-4.039,0.168c-1.285,0.134-2.533,0.195-3.691,0.408
		c-0.584,0.088-1.153,0.173-1.707,0.256c-0.549,0.102-1.074,0.234-1.59,0.344c-2.058,0.449-3.795,1.058-5.185,1.659
		c-1.39,0.61-2.401,1.249-3.069,1.723c-0.65,0.494-0.945,0.826-0.945,0.826s0.248-0.366,0.84-0.95
		c0.609-0.555,1.542-1.366,2.902-2.13c1.352-0.765,3.071-1.599,5.149-2.234c0.519-0.16,1.051-0.344,1.606-0.5
		c0.562-0.136,1.138-0.276,1.729-0.419c1.183-0.325,2.452-0.461,3.771-0.696c1.319-0.22,2.705-0.298,4.139-0.461
		c1.434-0.112,2.919-0.116,4.447-0.181c1.525-0.013,3.091,0.048,4.695,0.071c1.604,0.039,3.239,0.23,4.906,0.343
		c1.686,0.097,3.305,0.379,4.996,0.564c0.855,0.114,1.646,0.189,2.57,0.336c0.871,0.174,1.746,0.349,2.625,0.524
		c3.49,0.838,6.93,2.188,10.08,4.039c3.141,1.871,5.975,4.213,8.428,6.802c2.466,2.583,4.498,5.452,6.242,8.324
		c1.738,2.881,3.109,5.826,4.259,8.66c1.155,2.833,2.039,5.584,2.75,8.143c0.722,2.557,1.221,4.939,1.614,7.053
		c0.401,2.114,0.652,3.972,0.826,5.503C389.863,139.591,389.882,141.352,389.882,141.352z"/>
</g>
<g>
	<path fill="#C800C8" d="M389.882,126.867c0,0-0.233-1.684-0.899-4.564c-0.67-2.874-1.771-6.953-3.635-11.612
		c-0.938-2.324-2.088-4.782-3.477-7.268c-1.396-2.482-3.085-4.965-5.057-7.322c-1.973-2.357-4.309-4.513-6.903-6.371
		c-2.599-1.854-5.511-3.34-8.582-4.372c-1.511-0.544-3.142-0.946-4.655-1.279c-1.66-0.292-3.314-0.584-4.956-0.873
		c-1.61-0.186-3.21-0.371-4.79-0.553c-1.589-0.139-3.179-0.182-4.734-0.277c-1.558-0.048-3.088,0.033-4.592,0.013
		c-1.498,0.049-2.963,0.18-4.393,0.261c-1.421,0.176-2.803,0.347-4.141,0.512c-1.323,0.244-2.615,0.442-3.842,0.699
		c-2.441,0.553-4.674,1.13-6.613,1.774c-0.969,0.323-1.879,0.627-2.702,0.955c-0.833,0.305-1.591,0.609-2.261,0.912
		c-2.711,1.165-4.158,2.065-4.158,2.065s0.326-0.271,0.974-0.736c0.653-0.455,1.611-1.137,2.916-1.862
		c0.644-0.381,1.371-0.773,2.179-1.174c0.793-0.433,1.691-0.81,2.646-1.233c1.91-0.841,4.13-1.642,6.603-2.372
		c1.237-0.354,2.545-0.654,3.894-1.002c1.364-0.262,2.78-0.519,4.239-0.762c1.468-0.162,2.977-0.375,4.524-0.506
		c1.552-0.078,3.14-0.176,4.754-0.187c1.615,0.046,3.255,0.04,4.923,0.134c1.668,0.144,3.369,0.287,5.061,0.482
		c1.645,0.272,3.301,0.546,4.965,0.821c1.783,0.367,3.449,0.763,5.132,1.35c3.333,1.157,6.497,2.815,9.302,4.86
		c2.817,2.034,5.217,4.494,7.254,7.053c2.045,2.562,3.66,5.285,4.985,7.943c1.334,2.657,2.332,5.28,3.118,7.73
		c1.576,4.906,2.261,9.139,2.607,12.094c0.18,1.479,0.234,2.649,0.276,3.444C389.869,126.443,389.882,126.867,389.882,126.867z"/>
</g>
<g>
	<path fill="#C800C8" d="M202.309,81.06c0,0,0.189-0.348,0.591-0.973c0.405-0.622,0.998-1.544,1.864-2.634
		c0.851-1.102,1.941-2.404,3.312-3.787c1.35-1.406,2.994-2.882,4.912-4.344c1.899-1.49,4.126-2.895,6.599-4.169
		c2.459-1.308,5.233-2.35,8.173-3.16c0.742-0.182,1.49-0.365,2.243-0.55c0.759-0.156,1.534-0.265,2.309-0.401l1.168-0.193
		l1.185-0.106c0.793-0.063,1.59-0.136,2.391-0.177c1.602,0.03,3.226-0.078,4.839,0.108l2.429,0.193l2.407,0.378
		c3.209,0.529,6.323,1.453,9.33,2.481c1.503,0.513,2.936,1.173,4.373,1.763c1.426,0.617,2.769,1.359,4.121,2.017l1.004,0.504
		l0.963,0.559c0.635,0.375,1.264,0.746,1.887,1.113c0.619,0.371,1.232,0.737,1.837,1.1c0.582,0.396,1.157,0.788,1.726,1.174
		c1.129,0.781,2.25,1.504,3.287,2.267c1.016,0.793,1.995,1.56,2.936,2.296c1.918,1.422,3.5,2.94,4.959,4.209
		c0.716,0.651,1.416,1.221,2.006,1.817c0.593,0.59,1.137,1.132,1.629,1.622c1.96,1.963,3.055,3.1,3.055,3.1s-1.27-0.954-3.447-2.651
		c-1.082-0.857-2.398-1.891-3.968-2.998c-1.567-1.107-3.267-2.443-5.251-3.71c-0.978-0.65-1.998-1.328-3.052-2.029
		c-1.081-0.655-2.198-1.332-3.347-2.028c-0.573-0.346-1.155-0.697-1.744-1.052c-0.608-0.319-1.225-0.642-1.846-0.969
		c-1.262-0.618-2.473-1.402-3.816-1.964c-1.329-0.59-2.648-1.266-4.038-1.811c-0.697-0.266-1.397-0.533-2.103-0.801
		c-0.707-0.26-1.394-0.592-2.125-0.794c-2.881-0.95-5.85-1.791-8.879-2.26l-2.265-0.383l-2.279-0.204
		c-1.516-0.196-3.033-0.103-4.536-0.153c-2.995,0.157-5.958,0.387-8.745,1.09c-2.775,0.695-5.451,1.5-7.851,2.617
		c-2.402,1.099-4.635,2.268-6.573,3.557c-1.941,1.278-3.675,2.545-5.124,3.78c-1.456,1.226-2.682,2.358-3.642,3.341
		C203.267,79.792,202.309,81.06,202.309,81.06z"/>
</g>
<g>
	<path fill="#C800C8" d="M291.389,87.266c0,0-0.861-1.403-2.51-3.746c-1.648-2.341-4.072-5.636-7.251-9.339
		c-1.592-1.849-3.381-3.789-5.34-5.763c-1.966-1.968-4.142-3.93-6.478-5.836c-2.336-1.906-4.9-3.672-7.602-5.271
		c-2.705-1.592-5.594-2.952-8.594-3.95c-2.982-1.019-6.105-1.723-9.169-1.917c-0.805-0.057-1.607-0.114-2.404-0.171
		c-0.396-0.026-0.803-0.08-1.186-0.083l-1.129,0.033c-1.502,0.073-2.989-0.017-4.459,0.266c-0.735,0.1-1.464,0.2-2.187,0.299
		c-0.365,0.034-0.717,0.118-1.064,0.214c-0.35,0.085-0.698,0.17-1.045,0.254c-0.694,0.169-1.381,0.336-2.06,0.501
		c-0.656,0.239-1.303,0.475-1.942,0.708c-2.572,0.91-4.824,2.206-6.856,3.474c-0.963,0.708-1.908,1.372-2.753,2.072
		c-0.815,0.732-1.654,1.369-2.317,2.095c-0.346,0.35-0.681,0.689-1.005,1.016c-0.319,0.332-0.596,0.679-0.884,0.996
		c-0.579,0.632-1.064,1.251-1.493,1.819c-1.733,2.265-2.475,3.747-2.475,3.747s0.134-0.388,0.441-1.098
		c0.319-0.701,0.784-1.744,1.539-2.981c0.368-0.625,0.788-1.311,1.303-2.02c0.477-0.739,1.08-1.472,1.729-2.255
		c0.616-0.814,1.412-1.551,2.191-2.394c0.81-0.81,1.754-1.566,2.711-2.389c2.023-1.497,4.322-3.053,7.023-4.155
		c0.671-0.285,1.352-0.574,2.041-0.867c0.716-0.217,1.44-0.436,2.172-0.657c0.738-0.198,1.468-0.496,2.242-0.598
		c0.77-0.131,1.547-0.264,2.331-0.398c1.553-0.345,3.212-0.321,4.865-0.441l1.249-0.067c0.411-0.008,0.799,0.032,1.202,0.045
		c0.798,0.048,1.601,0.096,2.406,0.145c3.38,0.184,6.72,0.898,9.947,1.969c3.212,1.107,6.272,2.592,9.11,4.303
		c2.85,1.702,5.435,3.694,7.81,5.734c2.381,2.039,4.497,4.202,6.407,6.324c1.918,2.117,3.591,4.232,5.063,6.231
		c2.956,3.991,5.04,7.563,6.414,10.095C290.751,85.748,291.389,87.266,291.389,87.266z"/>
</g>
<path fill="#DC00DC" stroke="#C800C8" stroke-width="5" stroke-linejoin="round" stroke-miterlimit="10" d="M242.55,190.427
	c0,0-18.152-22.279-52.552-9.604c-9.415-4.707-23.175-20.203-48.161-9.377c-15.209-4.383-38.022,0.324-47.436,9.739
	c-7.966-6.88-29.331-11.225-32.228,5.794s8.329,31.141,26.434,23.175c4.345,5.794,23.175,12.674,34.4-3.983
	c9.415,4.707,39.47,18.106,48.523-0.724c8.691,7.966,57.606,23.56,66.1,2.003C246.125,185.891,242.55,190.427,242.55,190.427z"/>
<g>
	<path fill="#C800C8" d="M143.353,173.432c0,0-0.198,0.105-0.544,0.288c-0.349,0.19-0.854,0.468-1.451,0.819
		c-1.196,0.699-2.78,1.676-4.275,2.766c-0.745,0.547-1.483,1.112-2.127,1.686c-0.329,0.284-0.64,0.565-0.912,0.85
		c-0.291,0.276-0.543,0.551-0.758,0.819c-0.236,0.26-0.427,0.512-0.573,0.751c-0.155,0.235-0.311,0.439-0.38,0.628
		c-0.174,0.377-0.273,0.593-0.273,0.593s0.025-0.239,0.068-0.657c0.008-0.22,0.089-0.462,0.164-0.753
		c0.068-0.296,0.174-0.619,0.32-0.956c0.128-0.351,0.29-0.72,0.485-1.093c0.181-0.388,0.397-0.779,0.63-1.177
		c0.457-0.808,1.003-1.627,1.567-2.436c1.133-1.615,2.384-3.131,3.352-4.252c0.483-0.561,0.899-1.019,1.196-1.342
		c0.305-0.324,0.479-0.509,0.479-0.509L143.353,173.432z"/>
</g>
<g>
	<path fill="#C800C8" d="M191.197,183.015c0,0-0.057,0.021-0.163,0.059c-0.092,0.033-0.219,0.072-0.415,0.152
		c-0.379,0.144-0.928,0.38-1.581,0.684c-0.649,0.31-1.404,0.694-2.182,1.158c-0.781,0.46-1.591,0.993-2.348,1.592
		c-0.401,0.285-0.731,0.622-1.101,0.933c-0.35,0.323-0.656,0.671-0.982,1c-0.274,0.353-0.558,0.697-0.805,1.038
		c-0.218,0.362-0.424,0.704-0.614,1.019c-0.146,0.343-0.279,0.657-0.398,0.935c-0.139,0.281-0.154,0.548-0.221,0.761
		c-0.106,0.438-0.167,0.688-0.167,0.688s-0.017-0.257-0.047-0.708c0-0.226-0.066-0.515-0.017-0.83
		c0.032-0.324,0.068-0.69,0.108-1.089c0.095-0.394,0.198-0.82,0.307-1.271c0.145-0.44,0.328-0.896,0.512-1.381
		c0.228-0.45,0.448-0.941,0.716-1.407c0.283-0.45,0.545-0.948,0.871-1.382c0.617-0.908,1.31-1.759,1.997-2.522
		c0.685-0.768,1.369-1.44,1.974-2.004c0.609-0.559,1.133-1.011,1.523-1.32c0.206-0.16,0.368-0.286,0.478-0.371
		c0.102-0.078,0.157-0.12,0.157-0.12L191.197,183.015z"/>
</g>
<g>
	<path fill="#C800C8" d="M169.471,206.863c0,0-0.049-0.09-0.141-0.258c-0.103-0.185-0.238-0.442-0.397-0.756
		c-0.324-0.637-0.763-1.541-1.242-2.64c-0.49-1.093-1-2.391-1.514-3.786c-0.247-0.702-0.497-1.428-0.735-2.169
		c-0.219-0.75-0.474-1.494-0.662-2.264c-0.41-1.524-0.768-3.057-1.002-4.512c-0.133-0.723-0.241-1.423-0.308-2.094
		c-0.077-0.668-0.166-1.293-0.186-1.88c-0.035-0.582-0.066-1.115-0.094-1.587c0.002-0.473,0.003-0.885,0.005-1.225
		c0.004-0.674,0.007-1.06,0.007-1.06s0.075,0.378,0.207,1.04c0.066,0.328,0.147,0.727,0.239,1.185
		c0.121,0.45,0.257,0.958,0.406,1.512c0.133,0.554,0.344,1.141,0.547,1.76c0.193,0.622,0.434,1.267,0.701,1.926
		c0.502,1.326,1.138,2.7,1.813,4.044c0.321,0.678,0.707,1.33,1.051,1.981c0.364,0.644,0.734,1.269,1.095,1.87
		c0.742,1.193,1.454,2.286,2.107,3.191c0.642,0.91,1.205,1.642,1.601,2.137c0.201,0.252,0.353,0.437,0.451,0.55
		c0.109,0.129,0.168,0.198,0.168,0.198L169.471,206.863z"/>
</g>
<g>
	<path fill="#C800C8" d="M121.374,208.062c0,0-0.066-0.072-0.189-0.206c-0.153-0.16-0.329-0.369-0.538-0.624
		c-0.417-0.521-0.984-1.258-1.569-2.186c-0.6-0.918-1.214-2.031-1.788-3.248c-0.56-1.226-1.092-2.551-1.47-3.918
		c-0.223-0.669-0.35-1.37-0.509-2.04c-0.167-0.668-0.222-1.353-0.331-1.993c-0.111-0.641-0.107-1.279-0.161-1.867
		c-0.059-0.589-0.034-1.151-0.027-1.665c0.018-0.515-0.006-0.981,0.045-1.396c0.042-0.413,0.079-0.772,0.109-1.068
		c0.061-0.587,0.095-0.923,0.095-0.923s0.044,0.335,0.12,0.921c0.038,0.291,0.084,0.643,0.137,1.048
		c0.044,0.403,0.174,0.851,0.271,1.339c0.108,0.487,0.207,1.013,0.393,1.553c0.182,0.539,0.311,1.117,0.555,1.685
		c0.242,0.567,0.43,1.165,0.727,1.735c0.289,0.572,0.541,1.161,0.884,1.71c0.617,1.125,1.359,2.171,2.084,3.104
		c0.739,0.926,1.477,1.738,2.152,2.376c0.663,0.651,1.257,1.128,1.662,1.443c0.208,0.157,0.363,0.271,0.445,0.318
		c0.111,0.075,0.17,0.115,0.17,0.115L121.374,208.062z"/>
</g>
<g>
	<path fill="#C800C8" d="M96.497,182.546c0,0-0.098,0.081-0.269,0.224c-0.156,0.125-0.382,0.301-0.659,0.56
		c-0.562,0.495-1.264,1.206-1.936,1.969c-0.326,0.382-0.623,0.783-0.924,1.169c-0.254,0.407-0.49,0.787-0.693,1.113
		c-0.305,0.683-0.513,1.208-0.513,1.208s-0.112-0.5-0.255-1.35c-0.014-0.422-0.031-0.915-0.048-1.443
		c0.035-0.517,0.063-1.094,0.127-1.662c0.145-1.124,0.36-2.258,0.578-3.094c0.096-0.416,0.21-0.785,0.29-1.044
		c0.07-0.238,0.109-0.374,0.109-0.374L96.497,182.546z"/>
</g>
<g>
	<path fill="#C800C8" d="M86.596,208.667c0,0,0.115-0.092,0.317-0.252c0.097-0.079,0.216-0.174,0.351-0.283
		c0.124-0.104,0.264-0.221,0.416-0.348c0.155-0.13,0.322-0.271,0.5-0.42c0.175-0.156,0.377-0.299,0.558-0.491
		c0.377-0.374,0.778-0.772,1.18-1.17c0.204-0.204,0.407-0.408,0.608-0.608c0.205-0.2,0.363-0.421,0.541-0.624
		c0.347-0.417,0.67-0.807,0.948-1.141c0.563-0.686,0.938-1.143,0.938-1.143s-0.089,0.581-0.221,1.453
		c-0.07,0.445-0.153,0.964-0.241,1.52c-0.051,0.278-0.08,0.579-0.156,0.864c-0.073,0.288-0.147,0.58-0.221,0.873
		c-0.154,0.594-0.307,1.188-0.452,1.745c-0.064,0.282-0.177,0.55-0.259,0.81c-0.09,0.26-0.175,0.506-0.254,0.733
		c-0.081,0.229-0.155,0.439-0.221,0.626c-0.065,0.173-0.121,0.324-0.167,0.449c-0.091,0.242-0.144,0.38-0.144,0.38L86.596,208.667z"
		/>
</g>
<g>
	<path fill="#C800C8" d="M124.455,255.96c0,0-0.453,0.374-1.27,1.108c-0.826,0.726-1.99,1.841-3.469,3.255
		c-1.465,1.429-3.216,3.192-5.096,5.325c-1.907,2.106-3.901,4.617-5.953,7.418c-2.043,2.812-3.97,6.05-5.612,9.61
		c-0.363,0.909-0.834,1.796-1.124,2.751c-0.297,0.953-0.632,1.909-0.91,2.887c-0.203,0.99-0.408,1.994-0.615,3.004
		c-0.128,0.955-0.23,2.125-0.348,3.19c-0.31,4.194,0.038,8.659,0.882,13.067c0.85,4.417,2.256,8.807,4.074,13.021
		c1.785,4.23,4.004,8.285,6.503,12.06c0.632,0.938,1.253,1.881,1.931,2.772c0.644,0.919,1.32,1.806,2.014,2.668l0.513,0.653
		l0.299,0.39l0.251,0.339l1,1.351c0.329,0.471,0.633,1.053,0.942,1.574c0.146,0.271,0.321,0.526,0.44,0.81l0.34,0.854l0.333,0.851
		c0.098,0.289,0.143,0.605,0.214,0.906l0.188,0.91c0.054,0.304,0.033,0.625,0.05,0.935l0.016,0.934l-0.14,0.917
		c-0.069,0.62-0.27,1.187-0.468,1.748c-0.827,2.24-2.18,3.967-3.368,5.582c-1.207,1.609-2.315,3.139-3.029,4.738
		c-0.676,1.528-1.057,3.421-1.481,5.083c-0.8,3.39-1.338,6.529-1.507,9.339c-0.178,2.81,0.088,5.269,0.57,7.229
		c0.462,1.976,1.202,3.408,1.699,4.381c0.592,0.924,0.908,1.417,0.908,1.417s-0.364-0.462-1.045-1.329
		c-0.579-0.929-1.519-2.301-2.123-4.307c-0.642-1.979-1.099-4.507-1.125-7.413c-0.043-2.906,0.277-6.182,0.938-9.669
		c0.362-1.759,0.579-3.512,1.315-5.507c0.745-1.911,1.922-3.609,3.06-5.266c1.137-1.653,2.286-3.31,2.853-5.085
		c0.578-1.763,0.482-3.609-0.308-5.409l-0.283-0.677c-0.097-0.224-0.248-0.422-0.369-0.636c-0.27-0.422-0.471-0.837-0.789-1.274
		l-1.031-1.327l-0.259-0.333l-0.22-0.275l-0.549-0.667c-1.495-1.761-2.876-3.646-4.188-5.597c-2.623-3.9-4.962-8.089-6.85-12.487
		c-1.863-4.407-3.301-9.01-4.161-13.664c-0.873-4.659-1.082-9.341-0.655-13.908c0.15-1.114,0.253-2.117,0.437-3.296
		c0.26-1.096,0.517-2.182,0.772-3.255c0.338-1.044,0.732-2.054,1.09-3.06c0.352-1.01,0.877-1.924,1.298-2.867
		c1.849-3.695,4.022-6.929,6.263-9.693c2.227-2.776,4.438-5.168,6.518-7.153c2.051-2.015,3.938-3.661,5.51-4.989
		c1.573-1.328,2.871-2.293,3.756-2.947C123.97,256.288,124.455,255.96,124.455,255.96z"/>
</g>
<path fill="#C800C8" d="M310.941,202.186c0,0,22.09,2.897,43.815,13.398c21.728,10.501,20.278,1.448,46.712,24.986
	c26.435,23.538,33.676,40.194,30.779,60.834c-2.897,20.642-0.362,28.97-13.76,47.8c-13.398,18.83-19.012,22.586-17.381,32.567
	c1.63,9.98-6.883-19.084,6.518-49.28c13.401-30.196,20.307-30.993,13.401-48.454c-6.906-17.461-22.25-43.078-45.63-49.315
	c-23.377-6.237-44.666-6.756-51.744-11.964C316.576,217.548,312.227,209.065,310.941,202.186z"/>
<path fill="#DC00DC" stroke="#C800C8" stroke-width="5" stroke-linejoin="round" stroke-miterlimit="10" d="M310.941,188.788
	c0,0,25.349-22.55,43.815-1.86c16.657-10.09,31.866-12.262,39.832-1.942c13.398-6.699,36.936-11.769,48.161,5.975
	c11.95-4.345,40.556-7.966,44.54,11.225s-29.331,35.125-38.384,21.002c-5.433,6.88-25.349,16.657-40.194-9.053
	c-9.053,7.242-27.157,17.381-39.832-3.983c-11.95,6.88-40.194,11.95-57.938-7.966C308.045,193.858,310.941,188.788,310.941,188.788z
	"/>
<g>
	<path fill="#C800C8" d="M367.452,208.101c0,0,0.062-0.033,0.179-0.094c0.152-0.077,0.178-0.105,0.322-0.18
		c0.064-0.033,0.136-0.07,0.214-0.109c0.093-0.073,0.194-0.151,0.302-0.235c0.213-0.18,0.484-0.345,0.741-0.6
		c0.258-0.262,0.537-0.546,0.833-0.846c0.325-0.282,0.553-0.693,0.855-1.065c0.272-0.394,0.625-0.767,0.869-1.222
		c0.254-0.456,0.512-0.919,0.77-1.382c0.263-0.467,0.541-0.935,0.71-1.441c0.198-0.499,0.392-0.991,0.581-1.467
		c0.181-0.481,0.393-0.943,0.531-1.397c0.119-0.461,0.232-0.896,0.338-1.298c0.422-1.634,0.703-2.724,0.703-2.724
		s0.029,1.131,0.072,2.828c0.01,0.431,0.02,0.897,0.03,1.391c-0.009,0.493-0.086,1.007-0.131,1.548
		c-0.054,0.543-0.11,1.105-0.168,1.675c-0.03,0.581-0.177,1.15-0.312,1.727c-0.138,0.582-0.274,1.165-0.41,1.738
		c-0.131,0.58-0.393,1.115-0.58,1.659c-0.223,0.532-0.367,1.08-0.652,1.547c-0.262,0.482-0.509,0.938-0.736,1.358
		c-0.238,0.421-0.537,0.781-0.769,1.116c-0.123,0.166-0.238,0.322-0.345,0.466c-0.145,0.154-0.277,0.295-0.396,0.423
		c-0.234,0.237-0.42,0.423-0.546,0.55c-0.097,0.091-0.147,0.14-0.147,0.14L367.452,208.101z"/>
</g>
<g>
	<path fill="#C800C8" d="M396.193,186.904c0.015-0.01-0.178,0.091-0.322,0.145c-0.16,0.048-0.438,0.197-0.787,0.397
		c-0.178,0.09-0.35,0.219-0.545,0.346c-0.189,0.132-0.408,0.26-0.607,0.42c-0.384,0.328-0.865,0.653-1.242,1.063
		c-0.203,0.202-0.405,0.403-0.605,0.602c-0.215,0.196-0.357,0.426-0.536,0.635c-0.328,0.429-0.692,0.827-0.894,1.217
		c-0.463,0.784-0.772,1.306-0.772,1.306s0.013-0.618,0.029-1.545c-0.015-0.485,0.106-1.013,0.188-1.615
		c0.057-0.294,0.077-0.622,0.174-0.922c0.086-0.31,0.172-0.626,0.258-0.941c0.156-0.652,0.439-1.245,0.662-1.846
		c0.119-0.297,0.267-0.563,0.394-0.83c0.133-0.263,0.249-0.52,0.39-0.742c0.258-0.448,0.493-0.834,0.724-1.128
		c0.182-0.252,0.286-0.397,0.286-0.397L396.193,186.904z"/>
</g>
<g>
	<path fill="#C800C8" d="M406.213,212.073c0,0,0.157-0.063,0.431-0.173c0.251-0.096,0.618-0.243,1.078-0.46
		c0.464-0.199,0.979-0.472,1.548-0.759c0.563-0.291,1.136-0.642,1.732-0.984c0.281-0.189,0.563-0.377,0.84-0.563
		c0.272-0.193,0.574-0.364,0.813-0.569c0.249-0.202,0.49-0.398,0.719-0.583c0.225-0.191,0.463-0.361,0.644-0.543
		c0.729-0.762,1.215-1.271,1.215-1.271s-0.228,0.684-0.568,1.71c-0.092,0.261-0.234,0.514-0.364,0.802
		c-0.137,0.286-0.282,0.588-0.432,0.901c-0.146,0.323-0.346,0.608-0.525,0.927c-0.188,0.315-0.379,0.635-0.57,0.956
		c-0.418,0.604-0.832,1.235-1.256,1.793c-0.427,0.552-0.824,1.083-1.196,1.508c-0.355,0.433-0.688,0.798-0.933,1.056
		c-0.222,0.24-0.349,0.378-0.349,0.378L406.213,212.073z"/>
</g>
<g>
	<path fill="#C800C8" d="M445.63,223.051c0,0,0.032-0.022,0.093-0.064c0.078-0.056,0.106-0.065,0.178-0.101
		c0.066-0.037,0.145-0.054,0.268-0.166c0.119-0.095,0.253-0.203,0.4-0.321c0.263-0.28,0.638-0.58,0.942-0.998
		c0.164-0.206,0.334-0.419,0.506-0.636c0.165-0.226,0.304-0.474,0.46-0.718c0.149-0.248,0.318-0.495,0.454-0.751
		c0.124-0.265,0.245-0.525,0.363-0.777c0.12-0.259,0.235-0.51,0.345-0.748c0.104-0.242,0.164-0.479,0.24-0.697
		c0.286-0.894,0.477-1.491,0.477-1.491s0.12,0.622,0.303,1.555c0.111,0.478,0.164,1.037,0.195,1.652
		c0.02,0.311,0.039,0.633,0.061,0.96c0.005,0.328-0.024,0.661-0.037,1.001c-0.021,0.338-0.027,0.685-0.069,1.023
		c-0.056,0.339-0.11,0.673-0.163,0.996c-0.091,0.659-0.311,1.258-0.455,1.795c-0.104,0.266-0.197,0.51-0.28,0.726
		c-0.071,0.207-0.202,0.438-0.296,0.614c-0.09,0.165-0.161,0.295-0.209,0.383c-0.034,0.066-0.051,0.101-0.051,0.101L445.63,223.051z
		"/>
</g>
<g>
	<path fill="#C800C8" d="M356.811,185.501c0,0,0.065,0.166,0.179,0.456c0.127,0.314,0.297,0.756,0.46,1.264
		c0.182,0.507,0.35,1.116,0.533,1.755c0.183,0.641,0.324,1.348,0.483,2.027c0.056,0.351,0.112,0.702,0.167,1.048
		c0.047,0.346,0.12,0.669,0.137,1.005c0.021,0.329,0.039,0.648,0.059,0.95c0.012,0.3,0.045,0.574,0.033,0.836
		c-0.072,1.025-0.121,1.708-0.121,1.708s-0.256-0.615-0.641-1.537c-0.101-0.221-0.254-0.452-0.39-0.696
		c-0.14-0.24-0.288-0.493-0.44-0.755c-0.146-0.259-0.354-0.512-0.533-0.772c-0.184-0.255-0.371-0.515-0.558-0.775
		c-0.421-0.499-0.809-0.997-1.217-1.438c-0.411-0.44-0.778-0.849-1.125-1.175c-0.338-0.342-0.615-0.589-0.806-0.753
		c-0.209-0.186-0.327-0.293-0.327-0.293L356.811,185.501z"/>
</g>
<g>
	<path fill="#DC00DC" d="M442.75,190.961c0,0-8.691,5.432-7.242,15.209"/>
	<path fill="#C800C8" d="M444.105,193.061c0,0-0.055,0.025-0.156,0.071c-0.073,0.027-0.198,0.083-0.392,0.185
		c-0.366,0.187-0.903,0.495-1.521,0.919c-0.311,0.212-0.645,0.449-0.979,0.723c-0.353,0.26-0.678,0.576-1.041,0.891
		c-0.338,0.331-0.693,0.68-1.025,1.057c-0.315,0.387-0.674,0.77-0.95,1.201l-0.447,0.638l-0.38,0.671
		c-0.275,0.442-0.467,0.909-0.662,1.366c-0.221,0.452-0.34,0.917-0.476,1.359c-0.065,0.222-0.138,0.438-0.192,0.651
		c-0.038,0.215-0.075,0.424-0.109,0.623c-0.063,0.402-0.155,0.777-0.179,1.11c-0.018,0.336-0.034,0.63-0.047,0.871
		c-0.024,0.491-0.04,0.771-0.04,0.771s-0.063-0.273-0.174-0.75c-0.056-0.242-0.123-0.537-0.201-0.875
		c-0.073-0.341-0.089-0.731-0.142-1.161c-0.022-0.216-0.045-0.442-0.069-0.675c-0.007-0.233,0.002-0.475,0.004-0.725
		c0.008-0.501-0.003-1.04,0.09-1.584c0.066-0.551,0.136-1.128,0.292-1.695c0.07-0.288,0.141-0.579,0.211-0.87l0.29-0.854
		c0.179-0.585,0.446-1.124,0.687-1.678c0.256-0.542,0.545-1.059,0.83-1.56c0.307-0.482,0.592-0.968,0.91-1.388
		c0.303-0.436,0.612-0.831,0.909-1.19c0.593-0.721,1.138-1.288,1.55-1.679c0.194-0.191,0.381-0.356,0.524-0.474
		c0.114-0.098,0.175-0.15,0.175-0.15L444.105,193.061z"/>
</g>
<path fill="#FF00FF" d="M180.583,47.927c-27.943,1.819-47.251,24.186-59.337,47.846c-8.708,17.047-11.358,36.925-16.732,55.201
	c-0.852-8.354,20.605-19.865,26.094-23.53c5.818-3.886,12.414-7.614,19.517-8.318c1.372,6.137-9.652,14.751-12.268,20.036
	c-2.101,4.244-2.014,8.466-3.474,12.833c2.31-3.991,15.009-27.443,21.729-24.191c4.33,2.095-2.248,17.176-3.235,20.591
	c3.259-6.081,9.913-10.878,14.191-16.435c2.588-3.362,4.783-8.748,8.653-10.847c5.514,7.9-0.055,16.487-1.689,24.415
	c3.444-7.869,12.808-12.773,15.782-20.48c5.409,2.879,2.969,19.909,2.172,25.299c2.882-4.06,14.967-24.789,21.176-22.264
	c5.223,2.125,1.767,18.101,1.588,22.645c3.765-17.39,15.145-28.2,26.728-40.744c8.256-8.94,20.227-11.359,28.681-19.836
	c-7.376-4.029-23.444,1.76-30.613,4.35c-6.774,2.447-16.037,5.561-21.54,10.131c0.829-9.786,5.276-21.479,9.232-30.516
	c-11.474,0.01-26.06,14.876-35.716,20.353c-0.853-6.918,3.262-13.4,5.826-19.283c-6.899,0.037-13.28,4.931-20.481,4.673
	c-0.525-9.499,4.223-20.831,10.881-27.841c-1.499,1.873-3.787,2.754-5.533,4.316c2.459-2.176,6.267-4.672,6.458-7.887
	c-3.296-1.122-7.034-0.374-10.263,0.569"/>
<path fill="#C800C8" d="M82.067,439.368c0,0-28.585-19.915-30.758-45.625s12.674-40.556,11.95-62.283
	c-0.724-21.727-23.175-13.397-17.381-42.367c5.794-28.969,34.434-27.948,41.281-51.42c6.847-23.472,6.847-23.472,6.847-23.472
	l-14.085-1.815c0,0,0.981,16.007-13.557,26.803c-14.539,10.796-48.529,32.436-52.269,44.722
	c-3.74,12.287-13.833,30.648,21.468,49.419c8.258,8.645,11.107,12.489,9.293,17.885c-1.814,5.396-21.121,41.438-21.818,55.562
	c-0.697,14.124,49.56,56.42,58.651,61.524C83.343,457.861,82.067,439.368,82.067,439.368z"/>
<path fill="#FF00FF" d="M320.176,112.021c0.943,3.949,3.988,6.71,5.399,10.443c1.387,3.669,1.929,8.171,2.794,12.012
	c1.527,6.777,1.434,13.437,1.584,20.319c0.354-9.143-0.708-18.417,2.214-27.069c4.271,3.758,7.627,11.673,10.74,16.729
	c-0.013-5.833,0.366-11.921,0.709-17.75c4.083,3.112,7.118,9.123,10.669,12.995c0.873-4.063-1.051-9.357-0.922-13.729
	c1.67,2.643,6.242,13.577,9.443,14.244c4.982,1.037,6.418-10.68,6.865-14.047c3.577,5.49,9.16,20.59,15.143,23.549
	c4.735,2.343,7.677-0.417,12.868,4.426c3.941,3.677,13.087,19.786,13.897,8.05c0.617-8.952-3.546-18.277-3.911-27.299
	c12.19,3.821,16.141,18.234,26.479,23.388c0.225,0.516,0.381,1.254,0.523,1.567c0.8-8.115-5.831-19.283-9.543-26.276
	c-2.476-4.665-4.596-9.805-6.177-14.783c3.019,5.542,6.69,11.131,9.364,16.458c-0.745-6.006-8.452-11.385-7.599-17.564
	c2.332,3.906,6.063,7.736,9.646,10.464c-8.279-17.916-20.735-32.626-38.427-41.543c0.041,4.981,5.373,9.624,6.993,14.482
	c-3.409-4.847-8.337-8.614-13.665-10.91c-0.093,3.206,3.413,5.351,3.277,8.724c-3.284,0.427-9.596-1.956-12.361-3.675
	c0.35,3.014,2.801,4.784,2.602,8.047c-4.178-0.367-7.529-5.004-12.364-5.221c-0.138,3.355,2.088,6.129,1.485,9.566
	c-3.555-1.921-27.322-20.927-24.996-5.407c-4.403-1.027-6.938-7.188-10.127-10.244c0.018,1.982,0.375,3.838,0.402,5.847
	c-5.275,0.659-10.964-3.371-15.703-4.924c-4.598,6.208,0.524,14.751,0.525,21.303"/>
<path fill="#FF00FF" d="M434.784,248.898c10.282,18.384,24.753,30.604,37.645,46.741c11.543,14.45,10.822,31.247,2.889,47.287
	c-2.495,5.045-5.589,9.724-9.027,14.169c-0.034-8.134,0.926-16.925,0.539-24.668c-0.159,5.223-3.4,12.631-8.049,15.136
	c0.589-8.859,4.716-17.098,5.081-26.285c0.302-7.633-2.373-13.145-6.715-19.242c-2.079-9.139-9.146-17.02-13.161-25.641
	c-3.79-8.135-4.109-17.613-7.571-25.868"/>
<path fill="#FF00FF" d="M477.513,196.755c-7.126-3.578-16.463-4.045-24.27-3.36c-7.458,0.655-8.748,4.006-9.793,10.828
	c9.555-4.237,29.271-5.894,32.975,7.075c0.914-1.805,0.222-7.015-0.204-9.262c-0.385-2.029-0.735-6.673-1.967-8.178"/>
<path fill="#FF00FF" d="M418.489,184.081c-6.929,0.827-12.248,2.216-18.565,5.415c-3.31,1.676-5.453,3.091-7.287,6.321
	c-1.051,1.848-1.408,3.756-3.304,4.965c6.426-1.999,10.65-6.46,17.534-8.068c4.257-0.995,7.919-1.337,12.256-1.392
	c-3.738-0.12-8.212,0.473-8.916,5.015c3.738-0.221,17.664,1.59,19.264-2.921c2.163-6.097-9.393-8.963-13.154-8.974"/>
<path fill="#FF00FF" d="M371.415,181.546c-5.347,1.164-4.946,6.022-7.612,9.721c2.51-0.853,19.102-3.89,19.04-5.635
	c-0.169-4.77-9.52-5.304-12.151-3"/>
<path fill="#FF00FF" d="M329.41,183.719c-6.51-0.665-10.426,5.116-11.904,10.836c4.182-3.973,10.889-4.013,16.211-5.701
	c-0.742,0.638-0.633,1.399-0.99,2.044c3.205,1.128,6.892-0.001,10.141,0.631c2.669,0.519,4.404,1.351,7.498,1.197
	c-1.891-8.573-15.319-7.404-21.68-8.644"/>
<path fill="#FF00FF" d="M202.309,182.994c-4.114-0.647-8.053-0.619-11.012,2.667c-1.605,1.782-1.982,4.589-4.591,5.218
	c3.703,0.214,9.181,0.272,12.396-1.363c-1.389,0.064-2.447,0.875-3.223,2.132c12.066,0.026,23.076-2.031,34.639,2.524
	c-1.017-2.564-3.771-7.438-7.079-6.769c0.397,0.488,0.687,0.984,1.176,1.43c-6.522-6.466-16.058-5.096-24.478-5.114"/>
<path fill="#FF00FF" d="M159.218,174.304c-7.4,1.209-13.511,3.268-17.28,10.137c1.944-1.294,3.772-3.732,5.987-4.422
	c2.094-0.652,4.65,0.448,6.861-0.174c5.998-1.686,10.827-3.538,17.412-2.512c0.089,0.335,0.109,0.674,0.062,1.017
	c-2.45-3.502-7.867-7.807-12.318-4.409"/>
<path fill="#FF00FF" d="M116.489,175.028c-4.072-0.433-9.85,3.265-12.552,6.183c4.262,0.096,11.675,0.174,15.473-2.287
	c5.333-3.456-1.623-5.248-5.094-4.982"/>
</svg>
