<?xml version="1.0" encoding="utf-8"?>
<!-- Generator: Adobe Illustrator 16.0.0, SVG Export Plug-In . SVG Version: 6.00 Build 0)  -->
<!DOCTYPE svg PUBLIC "-//W3C//DTD SVG 1.1//EN" "http://www.w3.org/Graphics/SVG/1.1/DTD/svg11.dtd">
<svg version="1.1"
	 id="svg12211" xmlns:dc="http://purl.org/dc/elements/1.1/" xmlns:cc="http://creativecommons.org/ns#" xmlns:rdf="http://www.w3.org/1999/02/22-rdf-syntax-ns#" xmlns:svg="http://www.w3.org/2000/svg" xmlns:sodipodi="http://sodipodi.sourceforge.net/DTD/sodipodi-0.dtd" xmlns:inkscape="http://www.inkscape.org/namespaces/inkscape" inkscape:export-ydpi="72.021774" inkscape:export-xdpi="72.021774" inkscape:export-filename="C:\Users\Zealotlee\Dropbox\Small Projects\Steves Fuzzballs\fuschia-fuzzle.png" sodipodi:docname="acc-face-mustache.svg" inkscape:version="0.91 r13725"
	 xmlns="http://www.w3.org/2000/svg" xmlns:xlink="http://www.w3.org/1999/xlink" x="0px" y="0px" width="390.122px"
	 height="150.583px" viewBox="64.63 181.372 390.122 150.583" enable-background="new 64.63 181.372 390.122 150.583"
	 xml:space="preserve">
<sodipodi:namedview  showguides="true" showgrid="false" inkscape:cy="193.02625" inkscape:cx="369.48506" inkscape:zoom="0.71220416" borderopacity="1.0" bordercolor="#666666" pagecolor="#ffffff" id="base" inkscape:window-maximized="1" inkscape:window-y="-8" inkscape:window-x="-8" inkscape:window-height="988" inkscape:window-width="1680" inkscape:pageshadow="2" inkscape:current-layer="layer1" inkscape:pageopacity="0.0" inkscape:document-units="px">
	</sodipodi:namedview>
<path fill="#DC00DC" stroke="#C800C8" stroke-width="5" stroke-miterlimit="10" d="M80.841,329.207
	c43.333-9.287,186.951-17.297,231.392-24.532c44.441-7.235,89.775,13.215,112.441,17.99c22.667,4.775,31.137-27.892,26.235-54.558
	c-4.902-26.667-9.568-13.333-9.568-13.333s-8-32-36-40c-23.333-12.667-44.112-33.333-127.389-30.667
	c-83.277,2.666-129.839,5.333-159.558,26.667c-28.386-7.333-21.719,11.333-23.719,21.333c-7.333,3.333-18,17.333-16.667,36
	C70.007,270.107,56.841,302.495,80.841,329.207z"/>
<path fill="none" stroke="#C800C8" stroke-width="5" stroke-miterlimit="10" d="M440.747,252.764c0,0-146.692-3.653-252.383,62.345"
	/>
<path fill="none" stroke="#C800C8" stroke-width="5" stroke-miterlimit="10" d="M76.341,266.439c0,0,145.256-3.309,182.628,15.513"
	/>
<path fill="none" stroke="#C800C8" stroke-width="5" stroke-miterlimit="10" d="M95.038,229.164c0,0,202.524-10.427,265.747,29.091"
	/>
<path fill="none" stroke="#C800C8" stroke-width="5" stroke-miterlimit="10" d="M405.341,214.774c0,0-81.667-10.333-133.333,0
	s-123.228,4.333-153.614-4"/>
</svg>
