<?xml version="1.0" encoding="utf-8"?>
<!-- Generator: Adobe Illustrator 16.0.0, SVG Export Plug-In . SVG Version: 6.00 Build 0)  -->
<!DOCTYPE svg PUBLIC "-//W3C//DTD SVG 1.1//EN" "http://www.w3.org/Graphics/SVG/1.1/DTD/svg11.dtd">
<svg version="1.1"
	 id="svg12211" xmlns:dc="http://purl.org/dc/elements/1.1/" xmlns:cc="http://creativecommons.org/ns#" xmlns:rdf="http://www.w3.org/1999/02/22-rdf-syntax-ns#" xmlns:svg="http://www.w3.org/2000/svg" xmlns:sodipodi="http://sodipodi.sourceforge.net/DTD/sodipodi-0.dtd" xmlns:inkscape="http://www.inkscape.org/namespaces/inkscape" inkscape:export-ydpi="72.021774" inkscape:export-xdpi="72.021774" inkscape:export-filename="C:\Users\Zealotlee\Dropbox\Small Projects\Steves Fuzzballs\fuschia-fuzzle.png" sodipodi:docname="acc-face-mustache.svg" inkscape:version="0.91 r13725"
	 xmlns="http://www.w3.org/2000/svg" xmlns:xlink="http://www.w3.org/1999/xlink" x="0px" y="0px" width="165.98px"
	 height="149.331px" viewBox="176.604 183.116 165.98 149.331" enable-background="new 176.604 183.116 165.98 149.331"
	 xml:space="preserve">
<g id="g6259" transform="matrix(0.86122718,0,0,0.86122718,-33.169793,96.842238)">
	
		<path id="path12759-7" sodipodi:nodetypes="csscsscszscsc" inkscape:connector-curvature="0" fill="#FFAAEE" stroke="#BC5FD3" stroke-width="3.3608" d="
		M352.009,229.589c0,0,21.286,24.646,46.492,24.646c25.206,0,35.288-22.965,35.288-28.007c0-5.041-17.924-30.246-17.924-30.246
		s18.484-16.245,18.484-59.934s-48.171-34.168-53.214-30.247c-5.04,3.921-29.686,26.886-38.088,73.937
		c0,0-42.01-38.089-75.618-35.288c-33.608,2.801-19.749,43.516-15.124,53.213c4.625,9.697,26.886,29.687,31.367,31.928
		c4.481,2.242-2.801,10.082-2.801,10.082s-6.722,27.447,16.804,31.368C321.203,274.96,345.29,258.716,352.009,229.589z"/>
	<path id="path12803-4" sodipodi:nodetypes="cszcssc" inkscape:connector-curvature="0" fill="#F4D7EE" d="M279.281,175.887
		c0,0,27.329,24.952,27.725,33.271c0.396,8.317-10.827,31.713-3.961,35.249c6.866,3.536,24.16-19.804,30.498-34.458
		c0,0-5.149-19.408-31.686-35.251c-9.631-5.75-17.823-9.506-21.388-6.733C276.905,170.738,277.697,174.698,279.281,175.887z"/>
	<path id="path12761-0" inkscape:connector-curvature="0" fill="#FF0066" d="M334.335,207.573c0,0-6.733,16.635-15.051,19.805
		c-8.318,3.168-8.318-9.11-5.149-12.675c0,0-8.714-5.545-3.961-13.861C314.928,192.522,331.959,205.196,334.335,207.573z"/>
	<path id="path12805-9" inkscape:connector-curvature="0" fill="#F4D7EE" d="M363.646,197.671c0,0,20.991-60.203,31.289-63.768
		c10.298-3.565,7.525,20.596,5.942,27.329c-1.585,6.733-5.942,19.804-5.546,24.161c0.396,4.357,7.92,19.408,9.11,22.972
		c1.188,3.565,2.376,8.317-0.791,9.903C400.479,219.851,375.924,211.138,363.646,197.671z"/>
	<path id="path12761-2-4" inkscape:connector-curvature="0" fill="#FF0066" d="M362.194,198.027c0,0,16.049,13.69,26.361,12.384
		c10.31-1.305,3.59-14.175-1.628-16.148c0,0,5.95-10.661-3.504-16.734C373.969,171.455,363.345,194.215,362.194,198.027z"/>
	<circle id="path12783-8" fill="#AA00D4" cx="283.986" cy="172.67" r="6.337"/>
	<circle id="path12783-9-8" fill="#AA00D4" cx="396.519" cy="137.071" r="6.337"/>
</g>
</svg>
