<?xml version="1.0" encoding="utf-8"?>
<!-- Generator: Adobe Illustrator 16.0.0, SVG Export Plug-In . SVG Version: 6.00 Build 0)  -->
<!DOCTYPE svg PUBLIC "-//W3C//DTD SVG 1.1//EN" "http://www.w3.org/Graphics/SVG/1.1/DTD/svg11.dtd">
<svg version="1.1"
	 id="svg12211" xmlns:dc="http://purl.org/dc/elements/1.1/" xmlns:cc="http://creativecommons.org/ns#" xmlns:rdf="http://www.w3.org/1999/02/22-rdf-syntax-ns#" xmlns:svg="http://www.w3.org/2000/svg" xmlns:sodipodi="http://sodipodi.sourceforge.net/DTD/sodipodi-0.dtd" xmlns:inkscape="http://www.inkscape.org/namespaces/inkscape" inkscape:export-ydpi="72.021774" inkscape:export-xdpi="72.021774" inkscape:export-filename="C:\Users\Zealotlee\Dropbox\Small Projects\Steves Fuzzballs\fuschia-fuzzle.png" sodipodi:docname="acc-face-beard.svg" inkscape:version="0.91 r13725"
	 xmlns="http://www.w3.org/2000/svg" xmlns:xlink="http://www.w3.org/1999/xlink" x="0px" y="0px" width="126.823px"
	 height="121.086px" viewBox="214.188 197.064 126.823 121.086" enable-background="new 214.188 197.064 126.823 121.086"
	 xml:space="preserve">
<sodipodi:namedview  showguides="true" showgrid="false" inkscape:cy="193.02625" inkscape:cx="369.48506" inkscape:zoom="0.71220416" borderopacity="1.0" bordercolor="#666666" pagecolor="#ffffff" id="base" inkscape:window-maximized="1" inkscape:window-y="-8" inkscape:window-x="-8" inkscape:window-height="988" inkscape:window-width="1680" inkscape:pageshadow="2" inkscape:current-layer="layer1" inkscape:pageopacity="0.0" inkscape:document-units="px">
	</sodipodi:namedview>
<path fill="#CC00FF" stroke="#9A00DC" stroke-width="6" stroke-miterlimit="10" d="M274.145,236.961
	c-21.75-15.99-42.375-14.736-52.521,4.465c-10.147,19.201-3.385,36.928,25.491,51.268c28.876,14.339,59.503,22.021,59.503,22.021
	l0,0c0,0,18.314-28.876,27.613-59.746c9.297-30.87,0.996-47.931-19.949-53.666C293.334,195.565,277.361,210.159,274.145,236.961
	L274.145,236.961z"/>
<g>
	<polygon fill="#DDDDF2" points="283.383,295.344 304.314,308.023 306.492,286.125 289.413,274.702 	"/>
	<polygon fill="#EBE5E9" points="288.443,293.93 300.613,301.302 301.878,288.57 291.949,281.93 	"/>
	<polygon fill="#FBFAFA" points="292.098,292.909 297.939,296.447 298.546,290.336 293.779,287.148 	"/>
</g>
<g>
	<polygon fill="#DDDDF2" points="256.779,274.113 277.71,286.793 279.887,264.895 262.809,253.472 	"/>
	<polygon fill="#EBE5E9" points="261.839,272.699 274.008,280.07 275.273,267.339 265.344,260.698 	"/>
	<polygon fill="#FBFAFA" points="265.493,271.678 271.334,275.216 271.941,269.105 267.176,265.918 	"/>
</g>
<g>
	<polygon fill="#DDDDF2" points="227.731,256.518 248.662,269.197 250.839,247.299 233.76,235.876 	"/>
	<polygon fill="#EBE5E9" points="232.791,255.104 244.96,262.477 246.226,249.744 236.296,243.103 	"/>
	<polygon fill="#FBFAFA" points="236.445,254.083 242.286,257.621 242.894,251.51 238.128,248.322 	"/>
</g>
<g>
	<polygon fill="#DDDDF2" points="312.307,250.068 307.232,274.008 289.771,260.614 293.126,240.343 	"/>
	<polygon fill="#EBE5E9" points="307.813,252.79 304.863,266.71 294.712,258.922 296.662,247.136 	"/>
	<polygon fill="#FBFAFA" points="304.568,254.757 303.152,261.438 298.279,257.7 299.215,252.043 	"/>
</g>
<g>
	<polygon fill="#DDDDF2" points="319.348,216.844 314.273,240.785 296.814,227.39 300.168,207.119 	"/>
	<polygon fill="#EBE5E9" points="314.854,219.567 311.904,233.486 301.753,225.698 303.703,213.913 	"/>
	<polygon fill="#FBFAFA" points="311.609,221.534 310.193,228.215 305.32,224.477 306.257,218.82 	"/>
</g>
</svg>
