<?xml version="1.0" encoding="utf-8"?>
<!-- Generator: Adobe Illustrator 16.0.0, SVG Export Plug-In . SVG Version: 6.00 Build 0)  -->
<!DOCTYPE svg PUBLIC "-//W3C//DTD SVG 1.1//EN" "http://www.w3.org/Graphics/SVG/1.1/DTD/svg11.dtd">
<svg version="1.1"
	 id="svg12211" xmlns:dc="http://purl.org/dc/elements/1.1/" xmlns:cc="http://creativecommons.org/ns#" xmlns:rdf="http://www.w3.org/1999/02/22-rdf-syntax-ns#" xmlns:svg="http://www.w3.org/2000/svg" xmlns:sodipodi="http://sodipodi.sourceforge.net/DTD/sodipodi-0.dtd" xmlns:inkscape="http://www.inkscape.org/namespaces/inkscape" inkscape:export-ydpi="72.021774" inkscape:export-xdpi="72.021774" inkscape:export-filename="C:\Users\Zealotlee\Dropbox\Small Projects\Steves Fuzzballs\fuschia-fuzzle.png" sodipodi:docname="acc-face-mustache.svg" inkscape:version="0.91 r13725"
	 xmlns="http://www.w3.org/2000/svg" xmlns:xlink="http://www.w3.org/1999/xlink" x="0px" y="0px" width="166.069px"
	 height="161.889px" viewBox="197.146 184.551 166.069 161.889" enable-background="new 197.146 184.551 166.069 161.889"
	 xml:space="preserve">
<g>
	<path fill="none" d="M246.273,261.95"/>
	<path fill="#DC00DC" stroke="#C800C8" stroke-width="4" stroke-miterlimit="10" d="M264.434,229.998c0,0-24.208-9.687-45.548-7.411
		c-9.143,0.975-16.992,0.094-18.494,3.946c-1.502,3.852-2.631,17.355,2.712,32.402c5.343,15.047,12.816,33.189,26.251,45.446
		c-3.23,6.646-8.739,17.387-6.847,22.716c1.892,5.329,5.356,7.938,7.954,8.892s9.964,0.041,20.622,5.483
		c10.658,5.443,19.305,1.997,27.039,0.622c7.734-1.376,11.309-1.66,11.122-5.551s3.463-3.79,3.567-10.876s0.814-13.452,0.814-13.452
		s9.907,7.239,15.152,12.664c5.244,5.424,12.303,4.639,16.027,1.845c3.723-2.794,12.842-6.635,14.817-11.401
		c1.976-4.768,8.241-7.294,10.377-13.578s5.896-7.507,9.915-11.435c4.02-3.931-2.412-10.729-4.204-11.84
		c-1.792-1.111-17.543-10.541-17.543-10.541s1.903,1.428,1.95-2.873c0.046-4.3,0.146-23.202-7.178-43.833
		c-7.325-20.632-16.496-31.701-19.504-33.777c-3.008-2.076-5.99-0.144-8.974,1.788S281.318,201.294,264.434,229.998z"/>
	<path fill="#FF00FF" d="M265.386,236.124c-0.745,3.077-8.092-5.861-16.686-6.304c-8.594-0.443-35.321-0.211-38.407-0.164
		c-3.086,0.048-4.137-0.453-6.149-2.184s-1.392-1.952,1.986-2.277c3.378-0.325,25.672-4.223,39.861,0.696
		C260.18,230.81,266.591,231.154,265.386,236.124z"/>
	<path fill="#C800C8" d="M216.551,288.581c0,0,7.737,4.583,9.773,8.053c2.036,3.47,2.293,2.505,3.692-0.088
		c1.4-2.593,3.401-8.894,3.401-8.894s-7.101-7.437-8.952-12.719c-1.851-5.281,8.914,2.076,8.914,2.076l4.529,10.795l-8.553,16.579
		C229.354,304.383,218.679,292.202,216.551,288.581z"/>
	<path fill="none" stroke="#DC00DC" stroke-width="6" stroke-miterlimit="10" d="M218.679,292.202"/>
	<path fill="#FF00FF" d="M235.81,292.26c0,0-13.028,24.61-13.51,30.141c-0.482,5.529,4.345,11.174,7.468,11.638
		s-2.929-3.873-1.641-7.824s7.306-16.635,8.063-20.103c0.757-3.467,2.388-7.889,4.417-10.706
		C242.636,292.589,235.81,292.26,235.81,292.26z"/>
	<path fill="#C800C8" d="M249.704,309.12c-2.55,2.183-1.65,8.383,6.843,11.849c8.492,3.465,19.211-5.322,14.282-8.951
		C265.898,308.391,252.42,306.795,249.704,309.12z"/>
	<path fill="#C800C8" d="M281.156,310.163c0,0,1.141,7.04-1.366,10.924s-8.449,5.276-9.247,5.412
		c-0.797,0.136,4.727,5.975,9.787,3.093c5.061-2.883,7.223-13.285,5.102-20.229C283.311,302.417,281.156,310.163,281.156,310.163z"
		/>
	<path fill="#FF00FF" d="M270.544,326.499c0,0-3.968,2.029-7.53-2.592c4.114-2.437,10.021-4.536,12.307-7.269
		c2.287-2.731,4.369-4.082,6.056-1.415C283.063,317.889,277.305,327.066,270.544,326.499z"/>
	<path fill="none" d="M295.628,244.427"/>
	<path fill="#FF00FF" d="M264.508,236.435c2.52,1.918,2.584-9.652,8.975-15.414c6.391-5.763,27.281-22.438,29.705-24.347
		c2.426-1.909,2.926-2.96,3.396-5.573c0.47-2.612-0.151-2.392-2.978-0.515c-2.828,1.877-22.588,12.911-30.498,25.676
		C265.197,229.028,260.439,233.338,264.508,236.435z"/>
	<path fill="#C800C8" d="M335.489,246.352c0,0-3.115,8.436-2.507,12.414c0.607,3.976-0.2,3.39-2.922,2.26
		c-2.722-1.131-8.248-4.758-8.248-4.758s0.822-10.249-1.071-15.516s-5.609,7.232-5.609,7.232l3.292,11.234l17.094,7.473
		C335.518,266.691,336.121,250.505,335.489,246.352z"/>
	<path fill="none" stroke="#DC00DC" stroke-width="6" stroke-miterlimit="10" d="M336.121,250.505"/>
	<path fill="#FF00FF" d="M322.861,261.352c0,0,25.631,10.885,29.492,14.873c3.86,3.988,3.674,11.414,1.543,13.742
		c-2.131,2.329-0.17-4.854-3.66-7.107c-3.491-2.254-16.16-8.303-18.936-10.517c-2.775-2.213-6.828-4.616-10.179-5.524
		C317.771,265.912,322.861,261.352,322.861,261.352z"/>
	<path fill="#C800C8" d="M322.711,283.199c3.355,0.086,6.566,5.466,2.161,13.511c-4.406,8.045-18.267,7.983-16.729,2.06
		C309.682,292.848,319.136,283.107,322.711,283.199z"/>
	<path fill="#C800C8" d="M298.958,303.842c0,0,3.554,6.184,7.948,7.617s9.885-1.234,10.589-1.631
		c0.704-0.397,0.099,7.618-5.646,8.572c-5.746,0.953-13.983-5.757-16.717-12.484C292.4,299.188,298.958,303.842,298.958,303.842z"/>
	<path fill="#FF00FF" d="M317.496,309.829c0,0,4.359-0.927,4.21-6.761c-4.729,0.703-10.638,2.798-14.136,2.119
		c-3.497-0.678-5.963-0.412-5.592,2.721C302.352,311.041,312.605,314.532,317.496,309.829z"/>
</g>
<g>
	<path fill="#FFFFFF" stroke="#390A44" stroke-width="3" stroke-linejoin="bevel" stroke-miterlimit="10" d="M296.41,233.929
		l8.266-17.31c0,0-2.564-4.782-1.377-8.419c1.188-3.637,7.756-6.062,10.553-3.897c2.799,2.165,2.599,7.036,1.01,11.753
		c8.916-13.02,16.408-7.525,11.934,0.923c-2.751,5.193-9.415,7.341-9.415,7.341l-7.885,14.371L296.41,233.929z"/>
	<path fill="#FFFFFF" stroke="#390A44" stroke-width="3" stroke-linejoin="bevel" stroke-miterlimit="10" d="M243.787,254.69
		l-17.532-7.784c0,0-1.158-5.302-4.425-7.294c-3.267-1.992-9.834,0.433-10.553,3.897c-0.719,3.464,2.598,7.036,6.872,9.588
		c-15.239-4.1-17.362,4.945-8.47,8.458c5.465,2.159,11.926-0.539,11.926-0.539l15.333,5.797L243.787,254.69z"/>
	<path fill="#FFFFFF" stroke="#390A44" stroke-width="3" stroke-linejoin="bevel" stroke-miterlimit="10" d="M312.922,278.645
		l17.532,7.783c0,0,1.157,5.303,4.425,7.295c3.268,1.991,9.834-0.434,10.553-3.897c0.721-3.464-2.598-7.036-6.871-9.589
		c15.238,4.101,17.361-4.944,8.469-8.457c-5.465-2.159-11.926,0.539-11.926,0.539l-15.332-5.797L312.922,278.645z"/>
	<path fill="#FFFFFF" stroke="#390A44" stroke-width="3" stroke-linejoin="bevel" stroke-miterlimit="10" d="M259.434,297.064
		l-8.266,17.311c0,0,2.565,4.782,1.377,8.419s-7.755,6.063-10.553,3.897c-2.798-2.165-2.598-7.036-1.009-11.753
		c-8.917,13.02-16.409,7.524-11.934-0.924c2.751-5.192,9.415-7.341,9.415-7.341l7.885-14.371L259.434,297.064z"/>
	<g>
		<path fill="#FFFFFF" stroke="#390A44" stroke-width="3" stroke-miterlimit="10" d="M289.364,291.949
			c-4.39,1.621-48.856,20.693-54.813-8.908c-5.957-29.603,13.734-38.828,33.277-46.045c31.582-11.662,48.542,0.868,54.313,13.128
			C322.141,250.125,338.77,273.706,289.364,291.949z"/>
		<g>
			<path fill="#390A44" d="M246.233,280.516c-3.868-10.476-0.164-21.615,9.686-25.252c9.851-3.637,14.194,5.241,16.33,11.026
				s-0.11,17.984-9.491,21.449C253.377,291.202,248.253,285.988,246.233,280.516z"/>
			<path fill="#390A44" d="M312.547,256.028c-3.867-10.475-13.923-16.534-23.773-12.897c-9.85,3.637-7.381,13.208-5.246,18.993
				c2.137,5.785,11.772,13.597,21.154,10.133C314.063,268.793,314.568,261.5,312.547,256.028z"/>
			<path fill="#FFFFFF" stroke="#390A44" stroke-width="3" stroke-miterlimit="10" d="M275.393,288.758l3.061,8.286
				c0,0,3.762,0.565,6.049-0.457c-1.963-5.315-3.35-9.069-3.35-9.069"/>
			<path fill="#FFFFFF" stroke="#390A44" stroke-width="3" stroke-miterlimit="10" d="M281.799,287.279l3.717,8.621
				c0,0,4.461-0.914,5.336-1.971c-2.035-5.511-3.14-8.5-3.14-8.5"/>
			<path fill="#FFFFFF" stroke="#390A44" stroke-width="3" stroke-miterlimit="10" d="M294.525,282.049l2.943,7.975
				c0,0-2.492,2.873-4.895,3.584c-1.963-5.316-3.262-8.834-3.262-8.834"/>
		</g>
	</g>
</g>
</svg>
