<svg xmlns="http://www.w3.org/2000/svg" width="32" height="32" xmlns:xlink="http://www.w3.org/1999/xlink"><defs><path id="0" d="m-262.71 1607.38v16.808" style="fill:none;stroke:#e2e2ef;stroke-linecap:round"/><path id="1" d="m-262.71 1617.8l3.803-2.629" style="fill:none;stroke:#e2e2ef;stroke-linecap:round"/><path id="2" d="m-262.76 1615.97l-2.582-1.831" style="fill:none;stroke:#e2e2ef;stroke-linecap:round"/><path id="3" d="m-262.67 1609.07l-1.268-1.127" style="fill:none;stroke:#e2e2ef;stroke-linecap:round"/><path id="4" d="m-262.81 1609.07l1.268-1.127" style="fill:none;stroke:#e2e2ef;stroke-linecap:round"/><path id="5" d="m-262.71 1615.97l2.582-1.831" style="fill:none;stroke:#e2e2ef;stroke-linecap:round"/><path id="6" d="m-262.76 1617.8l-3.803-2.629" style="fill:none;stroke:#e2e2ef;stroke-linecap:round"/><path id="7" d="m-260.97 1620.95l-1.591 3.049" style="fill:none;stroke:#e2e2ef;stroke-linecap:round"/><path id="8" d="m-261.42 1621.91l-1.591 3.049" style="fill:none;stroke:#e2e2ef;stroke-linecap:round"/><path id="9" d="m-262.6 1618.79l1.547 2.121 3.094.574" style="fill:none;stroke:#e2e2ef;stroke-linecap:round"/></defs><g transform="matrix(.872 0 0 .872 245.09-1400.7)"><use xlink:href="#0"/><path d="m-262.71 1615.97l2.582-1.831" style="fill:none;stroke:#e2e2ef;stroke-linecap:round"/><use xlink:href="#1"/><path d="m-262.81 1609.07l1.268-1.127" style="fill:none;stroke:#e2e2ef;stroke-linecap:round"/><use xlink:href="#2"/><path d="m-262.76 1617.8l-3.803-2.629" style="fill:none;stroke:#e2e2ef;stroke-linecap:round"/><use xlink:href="#3"/><g transform="matrix(.5.866-.866.5 1275.49 1039.51)"><use xlink:href="#0"/><path d="m-262.71 1615.97l2.582-1.831" style="fill:none;stroke:#e2e2ef;stroke-linecap:round"/><use xlink:href="#1"/><use xlink:href="#4"/><use xlink:href="#2"/><path d="m-262.76 1617.8l-3.803-2.629" style="fill:none;stroke:#e2e2ef;stroke-linecap:round"/><use xlink:href="#3"/></g><g transform="matrix(-.5.866-.866-.5 1012.56 2663.9)"><use xlink:href="#0"/><use xlink:href="#5"/><use xlink:href="#1"/><use xlink:href="#4"/><use xlink:href="#2"/><path d="m-262.76 1617.8l-3.803-2.629" style="fill:none;stroke:#e2e2ef;stroke-linecap:round"/><use xlink:href="#3"/></g><g transform="matrix(-1 0 0-1-525.39 3248.75)"><use xlink:href="#0"/><use xlink:href="#5"/><use xlink:href="#1"/><use xlink:href="#4"/><use xlink:href="#2"/><use xlink:href="#6"/><use xlink:href="#3"/></g><g transform="matrix(-.5.866.866.5-1801.13 1039.51)"><use xlink:href="#0"/><use xlink:href="#5"/><use xlink:href="#1"/><use xlink:href="#4"/><use xlink:href="#2"/><use xlink:href="#6"/><use xlink:href="#3"/></g><g transform="matrix(.5.866.866-.5-1538.19 2663.9)"><use xlink:href="#0"/><use xlink:href="#5"/><use xlink:href="#1"/><use xlink:href="#4"/><use xlink:href="#2"/><use xlink:href="#6"/><use xlink:href="#3"/></g><g><path d="m-262.6 1618.79l1.547 2.121 3.094.574" style="fill:none;stroke:#e2e2ef;stroke-linecap:round"/><use xlink:href="#7"/></g><g transform="matrix(.461.887-.887.461 1300.92 1108.12)"><path d="m-263.05 1619.75l1.547 2.121 3.094.574" style="fill:none;stroke:#e2e2ef;stroke-linecap:round"/><use xlink:href="#8"/></g><g transform="matrix(-.461.887-.887-.461 1057.2 2607.06)"><path d="m-262.6 1618.79l1.547 2.121 3.094.574" style="fill:none;stroke:#e2e2ef;stroke-linecap:round"/><use xlink:href="#7"/></g><g><use xlink:href="#9"/><use xlink:href="#7"/></g><g transform="matrix(.461.887-.887.461 1300.92 1108.12)"><path d="m-263.05 1619.75l1.547 2.121 3.094.574" style="fill:none;stroke:#e2e2ef;stroke-linecap:round"/><use xlink:href="#8"/></g><g transform="matrix(-.461.887-.887-.461 1057.2 2607.06)"><use xlink:href="#9"/><use xlink:href="#7"/></g><g transform="matrix(-1 0 0 1-525.72-.147)"><use xlink:href="#9"/><use xlink:href="#7"/></g><g transform="matrix(-.461.887.887.461-1826.64 1107.97)"><path d="m-263.05 1619.75l1.547 2.121 3.094.574" style="fill:none;stroke:#e2e2ef;stroke-linecap:round"/><use xlink:href="#8"/></g><g transform="matrix(.461.887.887-.461-1582.92 2606.91)"><use xlink:href="#9"/><use xlink:href="#7"/></g></g></svg>