<svg xmlns="http://www.w3.org/2000/svg" width="362.3" height="93.97" viewBox="0 0.0002441 362.296875 93.9707031" style="enable-background:new 0 0.0002441 362.296875 93.9707031"><g transform="matrix(.587 0 0 .587-27.931-410.35)"><path d="m47.603 859.74v-112.93c0-21.509 14.01-38.945 31.29-38.945h554.89c17.283 0 31.29 17.436 31.29 38.945v112.93" style="fill-opacity:.165"/><path d="m47.603 851.24v-112.93c0-21.509 14.01-38.945 31.29-38.945h554.89c17.283 0 31.29 17.436 31.29 38.945v112.93" style="fill:#f7f9b9"/><path d="m53.945 842.32v-96.45c0-20.62 13.432-37.33 30-37.33h545.5c16.567 0 29.999 16.713 29.999 37.33v96.45" style="fill:#d8d719;stroke:#698612"/><path d="m658.73 830.05c0 0-.529-24.17-.529-69.43 0-36.02-12.05-50.21-28.751-50.21-11.751 0-534.5-.135-544.75 0-11.875.156-28.3 11.1-29.614 37.3 0 0 13.516-21.981 31.864-25.616 19.712-3.906 518-6.398 536.5 6.533 18.501 12.933 32.532 12.669 35.28 101.43" style="fill:#e6e447"/><path d="m54.756 768.89c0 0-.354 29.454-.354 74.71" style="fill:#a9b618"/><path d="m652.59 758.56c0 0-11.138-20.02-16.794-25.08-5.656-5.058-19.447-11-28.99-11.879-9.547-.88-42.958-1.98-42.958-1.98s33.94-2.863 44.37-2.639c13.269.285 29.27 5.52 32.702 9.679 3.492 4.236 10.962 14.08 11.667 31.898" style="fill:#efef90"/><path d="m54.38 827.2c0 0-.176 9.46-.176 15.401" style="fill:#698612"/></g></svg>