<?xml version="1.0" encoding="utf-8"?>
<!-- Generator: Adobe Illustrator 16.0.0, SVG Export Plug-In . SVG Version: 6.00 Build 0)  -->
<!DOCTYPE svg PUBLIC "-//W3C//DTD SVG 1.1//EN" "http://www.w3.org/Graphics/SVG/1.1/DTD/svg11.dtd">
<svg version="1.1"
	 id="svg5036" xmlns:inkscape="http://www.inkscape.org/namespaces/inkscape" xmlns:sodipodi="http://sodipodi.sourceforge.net/DTD/sodipodi-0.dtd" xmlns:svg="http://www.w3.org/2000/svg" xmlns:cc="http://creativecommons.org/ns#" xmlns:rdf="http://www.w3.org/1999/02/22-rdf-syntax-ns#" xmlns:dc="http://purl.org/dc/elements/1.1/" inkscape:version="0.48.4 r9939" sodipodi:docname="ui-facebook-btn-p.svg"
	 xmlns="http://www.w3.org/2000/svg" xmlns:xlink="http://www.w3.org/1999/xlink" x="0px" y="0px" width="617.462px"
	 height="160.139px" viewBox="-117.422 -14.139 617.462 160.139" enable-background="new -117.422 -14.139 617.462 160.139"
	 xml:space="preserve">
<sodipodi:namedview  pagecolor="#ffffff" showgrid="false" inkscape:zoom="2.6136284" inkscape:cy="13.17745" id="base" bordercolor="#666666" inkscape:cx="271.87746" borderopacity="1.0" inkscape:pageshadow="2" inkscape:window-height="988" inkscape:window-x="-8" inkscape:current-layer="layer1" inkscape:pageopacity="0.0" inkscape:window-width="1680" inkscape:window-maximized="1" inkscape:window-y="-8" inkscape:document-units="px">
	</sodipodi:namedview>
<g id="layer1_1_" transform="translate(0,-924.36218)" inkscape:groupmode="layer" inkscape:label="Layer 1">
	<path id="rect3218-7-0-9-8" fill-opacity="0.1647" d="M-86.128,913.286h554.876c17.282,0,31.292,14.445,31.292,32.263v93.552
		c0,17.819-14.012,32.262-31.292,32.262H-86.128c-17.283,0-31.293-14.444-31.293-32.262v-93.552
		C-117.422,927.731-103.411,913.286-86.128,913.286z"/>
	<path id="rect3218-7-4-4" fill="#FDF5F3" d="M-86.128,911.223h554.876c17.282,0,31.292,14.445,31.292,32.263v93.551
		c0,17.818-14.012,32.261-31.292,32.261H-86.128c-17.283,0-31.293-14.444-31.293-32.261v-93.551
		C-117.422,925.668-103.411,911.223-86.128,911.223z"/>
	<path id="rect3218-8-0" fill="#B83121" stroke="#7F2217" stroke-width="0.5813" d="M-81.081,918.82h545.487
		c16.569,0,30.001,13.847,30.001,30.929v79.897c0,17.082-13.434,30.929-30.001,30.929H-81.081c-16.567,0-30-13.849-30-30.929
		v-79.897C-111.079,932.666-97.647,918.82-81.081,918.82z"/>
	<path id="path3222-8-5" sodipodi:nodetypes="cssscssc" inkscape:connector-curvature="0" fill="#DC4A38" d="M-110.867,960.767
		c0,0,0.816,24.157,0.033,61.641c-0.501,23.911,12.579,37.474,29.32,37.474c11.78,0,535.817,0.112,546.092,0
		c11.904-0.125,28.364-9.195,29.688-30.902c0,0-13.549,18.21-31.942,21.224c-19.759,3.233-519.276,5.297-537.821-5.416
		C-94.045,1034.075-108.109,1034.294-110.867,960.767L-110.867,960.767z"/>
	<path id="path3222-1-2-4" sodipodi:nodetypes="cssscssc" inkscape:connector-curvature="0" fill="#7F2217" d="M494.547,1009.629
		c0,0,0.353-24.398,0.353-61.894c0-14.714-12.757-29.934-31.4-29.934c-11.75,0-533.251,0.254-543.501,0.364
		c-11.874,0.13-20.517,7.19-24.663,13.954c0,0,8.211-5.816,27.621-6.641c19.944-0.848,530.539-6.575,549.04,4.138
		C490.494,940.331,486.847,955.236,494.547,1009.629L494.547,1009.629z"/>
	<path id="path4072-5-7" sodipodi:nodetypes="cssssssc" inkscape:connector-curvature="0" fill="#E47264" d="M-110.752,1016.191
		c0,0-0.177,7.836-0.177,12.757c0,7.836,3.006,15.672,8.84,21.688c5.834,6.015,12.904,8.748,15.201,8.931
		c2.298,0.185,13.612,0.547,18.916,0.547c5.304,0-7.778-1.82-13.259-2.55c-5.479-0.729-14.142-4.921-17.676-8.02
		C-102.442,1046.444-110.044,1038.79-110.752,1016.191L-110.752,1016.191z"/>
	<path id="path9093-2" inkscape:connector-curvature="0" fill="#FFFFFF" d="M-43.303,998.127l-3.982-3.187
		c-1.213-1.041-2.871-2.407-2.871-4.914c0-2.517,1.658-4.117,3.098-5.598c4.64-3.766,9.276-7.772,9.276-16.218
		c0-8.685-5.301-13.251-7.84-15.419h6.849l7.189-4.658h-21.78c-5.976,0-14.587,1.458-20.893,6.825
		c-4.751,4.227-7.069,10.054-7.069,15.302c0,8.904,6.632,17.933,18.346,17.933c1.106,0,2.316-0.113,3.534-0.229
		c-0.548,1.37-1.102,2.516-1.102,4.457c0,3.535,1.764,5.705,3.316,7.76c-4.976,0.352-14.267,0.922-21.115,5.262
		c-6.524,3.998-8.507,9.817-8.507,13.927c0,8.456,7.732,16.333,23.762,16.333c19.008,0,29.073-10.845,29.073-21.58
		C-34.018,1006.234-38.438,1002.351-43.303,998.127z M-57.782,984.995c-9.51,0-13.818-12.676-13.818-20.323
		c0-2.978,0.548-6.052,2.428-8.454c1.774-2.288,4.862-3.771,7.743-3.771c9.168,0,13.923,12.787,13.923,21.011
		c0,2.058-0.22,5.705-2.761,8.342C-52.046,983.63-55.021,984.995-57.782,984.995z M-57.673,1030.916
		c-11.826,0-19.452-5.832-19.452-13.94c0-8.107,7.071-10.85,9.503-11.757c4.64-1.611,10.612-1.836,11.607-1.836
		c1.104,0,1.657,0,2.538,0.114c8.408,6.17,12.055,9.244,12.055,15.081C-41.42,1025.651-47.059,1030.918-57.673,1030.916
		L-57.673,1030.916z"/>
	<polygon id="polygon9095-1" fill="#FFFFFF" points="-20.859,973.402 -20.859,984.821 -31.916,984.821 -31.916,990.521 
		-20.859,990.521 -20.859,1002.009 -15.39,1002.009 -15.39,990.521 -4.276,990.521 -4.276,984.821 -15.39,984.821 -15.39,973.402 	
		"/>
</g>
</svg>
