<?xml version="1.0" encoding="utf-8"?>
<!-- Generator: Adobe Illustrator 16.0.0, SVG Export Plug-In . SVG Version: 6.00 Build 0)  -->
<!DOCTYPE svg PUBLIC "-//W3C//DTD SVG 1.1//EN" "http://www.w3.org/Graphics/SVG/1.1/DTD/svg11.dtd">
<svg version="1.1"
	 id="svg5036" xmlns:inkscape="http://www.inkscape.org/namespaces/inkscape" xmlns:sodipodi="http://sodipodi.sourceforge.net/DTD/sodipodi-0.dtd" xmlns:svg="http://www.w3.org/2000/svg" xmlns:cc="http://creativecommons.org/ns#" xmlns:rdf="http://www.w3.org/1999/02/22-rdf-syntax-ns#" xmlns:dc="http://purl.org/dc/elements/1.1/" inkscape:version="0.48.4 r9939" sodipodi:docname="ui-facebook-btn-p.svg"
	 xmlns="http://www.w3.org/2000/svg" xmlns:xlink="http://www.w3.org/1999/xlink" x="0px" y="0px" width="617.462px"
	 height="160.139px" viewBox="-117.422 -14.139 617.462 160.139" enable-background="new -117.422 -14.139 617.462 160.139"
	 xml:space="preserve">
<sodipodi:namedview  pagecolor="#ffffff" showgrid="false" inkscape:zoom="2.6136284" inkscape:cy="13.17745" id="base" bordercolor="#666666" inkscape:cx="271.87746" borderopacity="1.0" inkscape:pageshadow="2" inkscape:window-height="988" inkscape:window-x="-8" inkscape:current-layer="layer1" inkscape:pageopacity="0.0" inkscape:window-width="1680" inkscape:window-maximized="1" inkscape:window-y="-8" inkscape:document-units="px">
	</sodipodi:namedview>
<g id="layer1" transform="translate(0,-924.36218)" inkscape:groupmode="layer" inkscape:label="Layer 1">
	<path id="rect3218-7-0-8" fill-opacity="0.1647" d="M-86.127,915.293h554.875c17.282,0,31.293,14.261,31.293,31.854v92.361
		c0,17.595-14.011,31.854-31.293,31.854H-86.127c-17.283,0-31.294-14.26-31.294-31.854v-92.361
		C-117.422,929.556-103.412,915.293-86.127,915.293z"/>
	<path id="rect3218-7-9" fill="#FDF5F3" d="M-86.127,911.223h554.875c17.282,0,31.293,14.259,31.293,31.854v92.361
		c0,17.594-14.011,31.853-31.293,31.853H-86.127c-17.283,0-31.294-14.259-31.294-31.851v-92.363
		C-117.422,925.484-103.412,911.223-86.127,911.223z"/>
	<path id="rect3218-83" fill="#DC4A38" stroke="#7F2217" stroke-width="0.5817" d="M-81.08,918.723h545.484
		c16.569,0,29.999,13.669,29.999,30.533v78.883c0,16.864-13.43,30.536-29.999,30.536H-81.08c-16.568,0-30-13.672-30-30.536v-78.883
		C-111.081,932.392-97.648,918.723-81.08,918.723z"/>
	<path id="path3222-5" sodipodi:nodetypes="cssscssc" inkscape:connector-curvature="0" fill="#E47264" d="M493.683,1018.105
		c0,0-0.53-19.77-0.53-56.787c0-29.46-12.052-41.069-28.75-41.069c-11.751,0-534.484-0.109-544.735,0
		c-11.875,0.128-28.294,9.078-29.613,30.511c0,0,13.515-17.978,31.864-20.951c19.711-3.195,517.985-5.232,536.483,5.343
		C476.904,945.729,490.933,945.512,493.683,1018.105L493.683,1018.105z"/>
	<path id="path3222-1-5" sodipodi:nodetypes="cssscssc" inkscape:connector-curvature="0" fill="#B83121" d="M-110.269,968.082
		c0,0-0.354,24.088-0.354,61.105c0,14.527,12.756,29.554,31.401,29.554c11.75,0,533.247-0.249,543.496-0.358
		c11.874-0.128,20.519-7.1,24.665-13.776c0,0-8.212,5.742-27.621,6.555c-19.943,0.84-530.535,6.492-549.035-4.083
		C-106.217,1036.501-102.569,1021.782-110.269,968.082L-110.269,968.082z"/>
	<path id="path4068-1" sodipodi:nodetypes="csscssc" inkscape:connector-curvature="0" fill="#EA9489" d="M487.549,959.638
		c0,0-11.137-16.375-16.794-20.513c-5.657-4.137-19.446-8.996-28.991-9.716c-9.545-0.721-42.955-1.62-42.955-1.62
		s33.94-2.341,44.372-2.16c13.269,0.232,29.273,4.515,32.703,7.918C479.373,937.011,486.839,945.063,487.549,959.638
		L487.549,959.638z"/>
	<path id="path4072-55" sodipodi:nodetypes="cssssssc" inkscape:connector-curvature="0" fill="#7F2217" d="M-110.647,1015.776
		c0,0-0.177,7.737-0.177,12.594c0,7.738,3.005,15.476,8.839,21.412c5.834,5.938,12.904,8.639,15.203,8.816
		c2.298,0.178,13.611,0.538,18.914,0.538c5.303,0-7.778-1.796-13.258-2.517c-5.48-0.72-14.142-4.857-17.677-7.916
		S-109.939,1038.087-110.647,1015.776L-110.647,1015.776z"/>
	<path id="path9093" inkscape:connector-curvature="0" fill="#FFFFFF" d="M-43.303,997.043l-3.984-3.149
		c-1.213-1.023-2.872-2.376-2.872-4.851c0-2.482,1.659-4.063,3.1-5.526c4.639-3.718,9.276-7.674,9.276-16.009
		c0-8.574-5.3-13.085-7.84-15.223h6.848l7.189-4.598h-21.776c-5.977,0-14.588,1.44-20.893,6.737
		c-4.751,4.173-7.07,9.926-7.07,15.107c0,8.793,6.632,17.707,18.345,17.707c1.105,0,2.316-0.109,3.535-0.226
		c-0.546,1.355-1.101,2.483-1.101,4.398c0,3.493,1.764,5.634,3.318,7.664c-4.977,0.347-14.269,0.908-21.117,5.194
		c-6.522,3.947-8.507,9.695-8.507,13.748c0,8.349,7.732,16.127,23.761,16.127c19.011,0,29.074-10.707,29.074-21.308
		C-34.018,1005.047-38.438,1001.213-43.303,997.043z M-57.783,984.076c-9.509,0-13.816-12.516-13.816-20.064
		c0-2.941,0.546-5.976,2.428-8.347c1.772-2.259,4.861-3.722,7.745-3.722c9.167,0,13.921,12.625,13.921,20.745
		c0,2.032-0.22,5.632-2.761,8.236C-52.044,982.73-55.02,984.076-57.783,984.076z M-57.673,1029.415
		c-11.825,0-19.45-5.759-19.45-13.764c0-8.006,7.071-10.714,9.505-11.609c4.639-1.589,10.609-1.812,11.606-1.812
		c1.105,0,1.657,0,2.538,0.113c8.407,6.088,12.055,9.124,12.055,14.89C-41.421,1024.214-47.06,1029.413-57.673,1029.415
		L-57.673,1029.415z"/>
	<polygon id="polygon9095" fill="#FFFFFF" points="-15.391,989.535 -4.277,989.535 -4.277,983.905 -15.391,983.905 -15.391,972.631 
		-20.861,972.631 -20.861,983.905 -31.917,983.905 -31.917,989.535 -20.861,989.535 -20.861,1000.874 -15.391,1000.874 	"/>
</g>
</svg>
