<?xml version="1.0" encoding="utf-8"?>
<!-- Generator: Adobe Illustrator 16.0.0, SVG Export Plug-In . SVG Version: 6.00 Build 0)  -->
<!DOCTYPE svg PUBLIC "-//W3C//DTD SVG 1.1//EN" "http://www.w3.org/Graphics/SVG/1.1/DTD/svg11.dtd">
<svg version="1.1" id="Layer_1" xmlns="http://www.w3.org/2000/svg" xmlns:xlink="http://www.w3.org/1999/xlink" x="0px" y="0px"
	 width="105.532px" height="108.542px" viewBox="-0.79 0 105.532 108.542" enable-background="new -0.79 0 105.532 108.542"
	 xml:space="preserve">
<g>
	<path fill-opacity="0.165" d="M104.385,54.702c0,29.672-23.505,53.723-52.498,53.723c-28.994,0-52.498-24.053-52.498-53.723
		c0-29.673,23.506-53.724,52.498-53.724C80.882,0.978,104.385,25.032,104.385,54.702"/>
	<path fill="#F7F9B9" d="M104.205,52.794c0,29.222-23.076,52.911-51.541,52.911c-28.466,0-51.54-23.69-51.54-52.911
		c0-29.224,23.076-52.913,51.54-52.913C81.132-0.118,104.205,23.573,104.205,52.794"/>
	<path fill="#A9B618" stroke="#698612" d="M96.755,53.636c0,25.302-20.039,45.812-44.766,45.812
		c-24.728,0-44.767-20.508-44.767-45.812c0-25.3,20.039-45.81,44.767-45.81C76.716,7.826,96.755,28.333,96.755,53.636z"/>
	<path fill="#698612" d="M28.148,15.477c0,0,7.577-8.333,24.896-8.333c17.318,0,30.149,9.134,37.887,22.595
		c7.731,13.461,5.721,26.76,4.329,33.81c0,0-0.527-27.773-23.567-43.317c-23.039-15.542-43.545-4.752-43.545-4.752"/>
	<path fill="#D8D719" d="M77.066,91.029c0,0-7.702,7.821-25.02,7.821c-17.319,0-30.653-9.26-38.389-22.718
		c-7.731-13.46-6.347-25.863-4.954-32.919c0,0,0.364,26.56,23.406,42.1c23.039,15.541,44.956,5.712,44.956,5.712"/>
</g>
<path fill="#F7F9B9" d="M69.412,32.53c-1.563,0-2.683,0.615-3.42,1.25c0.011-1.645-0.134-2.617-0.134-2.617
	s-6.84-1.203-13.356-1.203s-13.356,1.203-13.356,1.203h-0.001c0,0-0.106,0.717-0.13,1.965c-0.002,0.104-0.003,0.211-0.004,0.32
	c-0.001,0.26,0.001,0.539,0.009,0.834c-0.683-0.762-1.952-1.752-3.933-1.752c-3.137,0-4.912,3.646-4.863,8.658
	c-0.002,0.24-0.001,0.482,0.006,0.729c0.145,5.207,10.91,11.637,12.551,12.541c1.282,0.705,2.061,1.313,2.203,1.85
	c-0.008,0.029-0.017,0.059-0.03,0.088c-0.29,0.639-1.448,0.213-1.448,0.213l-0.483,1.063c0,0,0.018,0.004,0.044,0.008l0.107,0.285
	c0,0,2.069,0.479,2.504-0.531c0.209-0.486,0.418-0.973,0.362-1.479c0.069-0.648-0.21-1.32-1.424-2.057
	c-1.931-1.168-13.246-7.645-13.372-12.381c-0.004-0.123-0.005-0.242-0.006-0.361c0.04-4.916,1.935-7.051,3.964-7.051
	c2.004,0,3.405,1.844,4.044,3.168c0.208,1.654,0.582,3.559,1.23,5.607c1.696,5.361,5.19,13.096,9.178,15.826
	c0.08,1.16,0.111,4.338-1.641,6.604h-1.35l-1.278,2.855h0.038v7.455h-0.519l-1.661,2.855h0.049v1.877h18.465v-1.877h0.049
	l-1.662-2.855h-0.518v-7.455h0.037l-1.277-2.855h-1.461c-1.711-2.213-1.723-5.301-1.646-6.523c1.224-0.789,2.314-1.979,3.175-3.133
	c-0.007,0.102-0.005,0.201,0.005,0.301c-0.055,0.506,0.154,0.992,0.363,1.479c0.436,1.01,2.504,0.531,2.504,0.531l0.107-0.285
	c0.025-0.004,0.043-0.008,0.043-0.008l-0.482-1.063c0,0-1.158,0.426-1.447-0.213c-0.014-0.029-0.023-0.059-0.031-0.088
	c0.143-0.537,0.92-1.145,2.203-1.85c1.642-0.904,12.406-7.334,12.551-12.541c0.008-0.246,0.009-0.488,0.007-0.729
	C74.324,36.176,72.55,32.53,69.412,32.53 M60.179,52.887c1.865-3.209,3.394-6.986,4.35-10.008c0.79-2.498,1.172-4.781,1.343-6.656
	c0.759-1.078,1.921-2.119,3.427-2.119c2.028,0,3.924,2.135,3.963,7.051c0,0.119-0.002,0.238-0.006,0.361
	c-0.125,4.736-11.441,11.213-13.371,12.381c-0.162,0.1-0.305,0.195-0.435,0.291C59.761,53.682,60.007,53.233,60.179,52.887"/>
<path fill="none" stroke="#A9B618" stroke-width="0.61" d="M69.412,32.53c-1.563,0-2.683,0.615-3.42,1.25
	c0.011-1.645-0.134-2.617-0.134-2.617s-6.84-1.203-13.356-1.203s-13.356,1.203-13.356,1.203h-0.001c0,0-0.106,0.717-0.13,1.965
	c-0.002,0.104-0.003,0.211-0.004,0.32c-0.001,0.26,0.001,0.539,0.009,0.834c-0.683-0.762-1.952-1.752-3.933-1.752
	c-3.137,0-4.912,3.646-4.863,8.658c-0.002,0.24-0.001,0.482,0.006,0.729c0.145,5.207,10.91,11.637,12.551,12.541
	c1.282,0.705,2.061,1.313,2.203,1.85c-0.008,0.029-0.017,0.059-0.03,0.088c-0.29,0.639-1.448,0.213-1.448,0.213l-0.483,1.063
	c0,0,0.018,0.004,0.044,0.008l0.107,0.285c0,0,2.069,0.479,2.504-0.531c0.209-0.486,0.418-0.973,0.362-1.479
	c0.069-0.648-0.21-1.32-1.424-2.057c-1.931-1.168-13.246-7.645-13.372-12.381c-0.004-0.123-0.005-0.242-0.006-0.361
	c0.04-4.916,1.935-7.051,3.964-7.051c2.004,0,3.405,1.844,4.044,3.168c0.208,1.654,0.582,3.559,1.23,5.607
	c1.696,5.361,5.19,13.096,9.178,15.826c0.08,1.16,0.111,4.338-1.641,6.604h-1.35l-1.278,2.855h0.038v7.455h-0.519l-1.661,2.855
	h0.049v1.877h18.465v-1.877h0.049l-1.662-2.855h-0.518v-7.455h0.037l-1.277-2.855h-1.461c-1.711-2.213-1.723-5.301-1.646-6.523
	c1.224-0.789,2.314-1.979,3.175-3.133c-0.007,0.102-0.005,0.201,0.005,0.301c-0.055,0.506,0.154,0.992,0.363,1.479
	c0.436,1.01,2.504,0.531,2.504,0.531l0.107-0.285c0.025-0.004,0.043-0.008,0.043-0.008l-0.482-1.063c0,0-1.158,0.426-1.447-0.213
	c-0.014-0.029-0.023-0.059-0.031-0.088c0.143-0.537,0.92-1.145,2.203-1.85c1.642-0.904,12.406-7.334,12.551-12.541
	c0.008-0.246,0.009-0.488,0.007-0.729C74.324,36.176,72.55,32.53,69.412,32.53z M60.179,52.887c1.865-3.209,3.394-6.986,4.35-10.008
	c0.79-2.498,1.172-4.781,1.343-6.656c0.759-1.078,1.921-2.119,3.427-2.119c2.028,0,3.924,2.135,3.963,7.051
	c0,0.119-0.002,0.238-0.006,0.361c-0.125,4.736-11.441,11.213-13.371,12.381c-0.162,0.1-0.305,0.195-0.435,0.291
	C59.761,53.682,60.007,53.233,60.179,52.887z"/>
</svg>
