<svg xmlns="http://www.w3.org/2000/svg" width="101.25" height="104.13" viewBox="13.921 12.467 101.246 104.128" style="enable-background:new 13.921 12.467 101.246 104.128"><g transform="translate(0-924.36)"><g transform="matrix(.959 0 0 .959-450.59 890.35)"><path d="m589.2 104.49c0 28.996-23.506 52.5-52.5 52.5-28.997 0-52.5-23.506-52.5-52.5 0-28.996 23.506-52.5 52.5-52.5 28.997 0 52.5 23.506 52.5 52.5" style="fill-opacity:.165"/><path d="m589.73 100.95c0 28.996-23.506 52.5-52.5 52.5-28.997 0-52.5-23.506-52.5-52.5 0-28.996 23.506-52.5 52.5-52.5 28.996.0001 52.5 23.507 52.5 52.5" style="fill:#f7f9b9"/><path d="m582.28 100.97c0 24.725-20.04 44.768-44.768 44.768s-44.768-20.04-44.768-44.768 20.04-44.768 44.768-44.768 44.768 20.04 44.768 44.768z" style="fill:#d6d50f;fill-opacity:.941;stroke:#698612"/><path d="m512.79 65.45c0 0 7.578-8.143 24.897-8.143 17.321 0 30.15 8.926 37.888 22.08 7.732 13.154 5.723 26.15 4.33 33.04 0 0-.527-27.14-23.569-42.33-23.04-15.19-43.546-4.645-43.546-4.645" style="fill:#e6e447"/><path d="m562.59 137.52c0 0-7.703 7.644-25.02 7.644-17.32 0-30.655-9.05-38.39-22.2s-6.347-25.276-4.955-32.17c0 0 .365 25.953 23.406 41.14 23.04 15.189 44.959 5.585 44.959 5.585" style="fill:#a9b618"/></g><path d="m54.11 960.78v57.661l28.746-28.745-28.746-28.916" style="fill:#a9b618"/><path d="m53.992 956.19v57.661l28.747-28.746-28.747-28.915z" style="fill:#f7f9b9;stroke:#a9b618;stroke-width:.959"/></g></svg>