<svg xmlns="http://www.w3.org/2000/svg" width="100.91" height="101.75" viewBox="13.247 15.382 100.906 101.754" style="enable-background:new 13.247 15.382 100.906 101.754"><g transform="translate(0-924.36)"><g transform="matrix(.959 0 0 .959-452.2 782.01)"><path d="m590.35 217.98c0 28.996-23.506 52.5-52.5 52.5-28.996 0-52.5-23.506-52.5-52.5 0-28.996 23.506-52.5 52.5-52.5 28.996 0 52.5 23.507 52.5 52.5" style="fill-opacity:.165"/><path d="m590.17 216.91c0 28.996-23.506 52.5-52.5 52.5-28.996 0-52.5-23.506-52.5-52.5 0-28.996 23.506-52.5 52.5-52.5 28.997.0001 52.5 23.507 52.5 52.5" style="fill:#f7f9b9"/><path d="m582.72 216.94c0 24.725-20.04 44.768-44.768 44.768s-44.768-20.04-44.768-44.768c0-24.724 20.04-44.767 44.768-44.767s44.768 20.04 44.768 44.767z" style="fill:#a9b618;stroke:#698612"/><path d="m514.11 179.65c0 0 7.578-8.144 24.898-8.144 17.319 0 30.15 8.926 37.888 22.08 7.732 13.154 5.721 26.15 4.329 33.04 0 0-.527-27.14-23.568-42.33-23.04-15.189-43.547-4.644-43.547-4.644" style="fill:#698612"/><path d="m563.03 253.48c0 0-7.702 7.644-25.02 7.644-17.32 0-30.655-9.05-38.39-22.2-7.732-13.154-6.347-25.276-4.955-32.17 0 0 .365 25.954 23.407 41.14 23.04 15.188 44.958 5.583 44.958 5.583" style="fill:#d8d719"/></g><path d="m54.11 960.78v57.661l28.746-28.745-28.746-28.916" style="fill:#a9b618"/><path d="m53.992 960.11v57.661l28.747-28.745-28.747-28.916z" style="fill:#f7f9b9;stroke:#a9b618;stroke-width:.959"/></g></svg>