<?xml version="1.0" encoding="UTF-8" standalone="no"?>
<!-- Created with Inkscape (http://www.inkscape.org/) -->

<svg
   xmlns:dc="http://purl.org/dc/elements/1.1/"
   xmlns:cc="http://creativecommons.org/ns#"
   xmlns:rdf="http://www.w3.org/1999/02/22-rdf-syntax-ns#"
   xmlns:svg="http://www.w3.org/2000/svg"
   xmlns="http://www.w3.org/2000/svg"
   xmlns:sodipodi="http://sodipodi.sourceforge.net/DTD/sodipodi-0.dtd"
   xmlns:inkscape="http://www.inkscape.org/namespaces/inkscape"
   width="64"
   height="64"
   id="svg28878"
   version="1.1"
   inkscape:version="0.48.4 r9939"
   sodipodi:docname="ui-online-green.svg">
  <defs
     id="defs28880" />
  <sodipodi:namedview
     id="base"
     pagecolor="#ffffff"
     bordercolor="#666666"
     borderopacity="1.0"
     inkscape:pageopacity="0.0"
     inkscape:pageshadow="2"
     inkscape:zoom="1.1224609"
     inkscape:cx="139.80251"
     inkscape:cy="7.7327301"
     inkscape:document-units="px"
     inkscape:current-layer="layer1"
     showgrid="false"
     inkscape:window-width="1680"
     inkscape:window-height="988"
     inkscape:window-x="-8"
     inkscape:window-y="-8"
     inkscape:window-maximized="1" />
  <metadata
     id="metadata28883">
    <rdf:RDF>
      <cc:Work
         rdf:about="">
        <dc:format>image/svg+xml</dc:format>
        <dc:type
           rdf:resource="http://purl.org/dc/dcmitype/StillImage" />
        <dc:title></dc:title>
      </cc:Work>
    </rdf:RDF>
  </metadata>
  <g
     inkscape:label="Layer 1"
     inkscape:groupmode="layer"
     id="layer1"
     transform="translate(0,-988.36218)">
    <g
       transform="translate(-332.27284,113.97682)"
       id="g28855">
      <path
         transform="matrix(0.83191706,0,0,0.83191706,39.411483,199.77051)"
         d="m 424.84317,850.56927 c 0,19.20346 -15.56748,34.77094 -34.77093,34.77094 -19.20346,0 -34.77094,-15.56748 -34.77094,-34.77094 0,-19.20345 15.56748,-34.77093 34.77094,-34.77093 19.20345,0 34.77093,15.56748 34.77093,34.77093 z"
         sodipodi:ry="34.770939"
         sodipodi:rx="34.770939"
         sodipodi:cy="850.56927"
         sodipodi:cx="390.07224"
         id="path28742-8-8"
         style="fill:#e7bf3c;fill-opacity:1;stroke:none"
         sodipodi:type="arc" />
      <path
         transform="matrix(0.83191706,0,0,0.83191706,40.699873,198.52207)"
         d="m 424.84317,850.56927 c 0,19.20346 -15.56748,34.77094 -34.77093,34.77094 -19.20346,0 -34.77094,-15.56748 -34.77094,-34.77094 0,-19.20345 15.56748,-34.77093 34.77094,-34.77093 19.20345,0 34.77093,15.56748 34.77093,34.77093 z"
         sodipodi:ry="34.770939"
         sodipodi:rx="34.770939"
         sodipodi:cy="850.56927"
         sodipodi:cx="390.07224"
         id="path28742-2"
         style="fill:#e7df3c;fill-opacity:1;stroke:none"
         sodipodi:type="arc" />
      <path
         transform="matrix(0.72052402,0,0,0.72052402,84.151211,293.26957)"
         d="m 424.84317,850.56927 c 0,19.20346 -15.56748,34.77094 -34.77093,34.77094 -19.20346,0 -34.77094,-15.56748 -34.77094,-34.77094 0,-19.20345 15.56748,-34.77093 34.77094,-34.77093 19.20345,0 34.77093,15.56748 34.77093,34.77093 z"
         sodipodi:ry="34.770939"
         sodipodi:rx="34.770939"
         sodipodi:cy="850.56927"
         sodipodi:cx="390.07224"
         id="path28742-1-7"
         style="fill:#dc0000;fill-opacity:1;stroke:none"
         sodipodi:type="arc" />
      <path
         sodipodi:nodetypes="ccc"
         inkscape:connector-curvature="0"
         id="path28774-7"
         d="m 362.09494,883.27351 c 20.04898,-1.00779 30.27066,16.18544 24.90145,29.60844 -5.7036,-9.8517 1.05826,-21.97489 -24.90145,-29.60844 z"
         style="fill:#f85514;fill-opacity:1;stroke:none" />
      <path
         sodipodi:nodetypes="ccc"
         inkscape:connector-curvature="0"
         id="path28774-6-1"
         d="m 367.13117,930.47401 c -20.04898,1.00779 -30.27066,-16.18544 -24.90145,-29.60844 5.7036,9.8517 -1.05826,21.97489 24.90145,29.60844 z"
         style="fill:#a12846;fill-opacity:1;stroke:none" />
    </g>
  </g>
</svg>
