<?xml version="1.0" encoding="utf-8"?>
<!-- Generator: Adobe Illustrator 16.0.0, SVG Export Plug-In . SVG Version: 6.00 Build 0)  -->
<!DOCTYPE svg PUBLIC "-//W3C//DTD SVG 1.1//EN" "http://www.w3.org/Graphics/SVG/1.1/DTD/svg11.dtd">
<svg version="1.1" id="Layer_1" xmlns="http://www.w3.org/2000/svg" xmlns:xlink="http://www.w3.org/1999/xlink" x="0px" y="0px"
	 width="617.463px" height="160.139px" viewBox="0 0 617.463 160.139" enable-background="new 0 0 617.463 160.139"
	 xml:space="preserve">
<g>
	<path fill-opacity="0.165" d="M32.29,6.821h554.885c17.283,0,31.289,14.01,31.289,31.289v90.74
		c0,17.283-14.01,31.289-31.289,31.289H32.29C15.007,160.139,1,146.129,1,128.85V38.11C1,20.828,15.01,6.821,32.29,6.821"/>
	<path fill="#F7F9B9" d="M32.29,0h554.885c17.283,0,31.289,14.01,31.289,31.291v90.738c0,17.283-14.01,31.289-31.289,31.289H32.29
		C15.007,153.319,1,139.309,1,122.03V31.291C1,14.008,15.01,0,32.29,0"/>
	<path fill="#D8D719" stroke="#698612" d="M37.34,7.362h545.495c16.566,0,29.998,13.43,29.998,29.998v77.5
		c0,16.566-13.432,29.998-29.998,29.998H37.34c-16.568,0-30-13.432-30-29.998v-77.5C7.34,20.791,20.772,7.362,37.34,7.362z"/>
	<path fill="#E6E447" d="M612.114,105c0,0-0.531-19.424-0.531-55.791c0-28.945-12.051-40.35-28.748-40.35
		c-11.752,0-534.496-0.107-544.745,0C26.215,8.985,9.79,17.78,8.476,38.834c0,0,13.516-17.662,31.864-20.584
		c19.711-3.139,517.995-5.141,536.495,5.25C595.335,33.893,609.366,33.68,612.114,105"/>
	<path fill="#A9B618" d="M8.151,55.86c0,0-0.354,23.668-0.354,60.029c0,14.271,12.757,29.041,31.401,29.041
		c11.75,0,533.254-0.246,543.504-0.355c11.875-0.125,20.518-6.975,24.664-13.533c0,0-8.213,5.641-27.621,6.441
		c-19.943,0.82-530.544,6.377-549.044-4.01c-18.5-10.391-14.853-24.852-22.552-77.609"/>
	<path fill="#EFEF90" d="M605.974,47.561c0,0-11.135-16.09-16.793-20.15c-5.656-4.064-19.445-8.838-28.99-9.545
		c-9.547-0.707-42.955-1.592-42.955-1.592s33.939-2.301,44.369-2.119c13.27,0.229,29.27,4.434,32.703,7.777
		c3.492,3.402,10.959,11.313,11.666,25.631"/>
	<path fill="#698612" d="M7.77,102.709c0,0-0.177,7.602-0.177,12.375c0,7.602,3.01,15.203,8.839,21.041
		c5.833,5.832,12.905,8.484,15.203,8.66c2.298,0.178,13.611,0.531,18.915,0.531c5.303,0-7.779-1.768-13.259-2.475
		s-14.14-4.773-17.678-7.779c-3.535-3.01-11.137-10.43-11.843-32.35"/>
</g>
<g>
	<polygon fill="#A9B618" points="63.738,35.573 63.738,127.639 109.639,81.742 	"/>
	<polygon fill="#F7F9B9" points="63.544,28.239 63.544,120.302 109.442,74.406 	"/>
	<polygon fill="none" stroke="#A9B618" stroke-width="0.959" points="63.544,28.239 63.544,120.302 109.442,74.406 	"/>
</g>
</svg>
