<?xml version="1.0" encoding="utf-8"?>
<!-- Generator: Adobe Illustrator 16.0.0, SVG Export Plug-In . SVG Version: 6.00 Build 0)  -->
<!DOCTYPE svg PUBLIC "-//W3C//DTD SVG 1.1//EN" "http://www.w3.org/Graphics/SVG/1.1/DTD/svg11.dtd">
<svg version="1.1" id="Layer_1" xmlns="http://www.w3.org/2000/svg" xmlns:xlink="http://www.w3.org/1999/xlink" x="0px" y="0px"
	 width="617.464px" height="160.138px" viewBox="-120.158 -33.084 617.464 160.138"
	 enable-background="new -120.158 -33.084 617.464 160.138" xml:space="preserve">
<g>
	<path fill-opacity="0.165" d="M-88.868-26.264h554.885c17.283,0,31.289,14.011,31.289,31.289v90.74
		c0,17.283-14.01,31.289-31.289,31.289H-88.868c-17.283,0-31.29-14.01-31.29-31.289V5.025
		C-120.157-12.256-106.147-26.264-88.868-26.264"/>
	<path fill="#F7F9B9" d="M-88.868-33.084h554.885c17.283,0,31.289,14.01,31.289,31.291v90.737c0,17.283-14.01,31.289-31.289,31.289
		H-88.868c-17.283,0-31.29-14.01-31.29-31.289V-1.793C-120.157-19.077-106.147-33.084-88.868-33.084"/>
	<path fill="#D8D719" stroke="#698612" d="M-83.817-25.723h545.495c16.566,0,29.998,13.431,29.998,29.998v77.5
		c0,16.566-13.432,29.998-29.998,29.998H-83.817c-16.568,0-30-13.432-30-29.998v-77.5C-113.817-12.293-100.385-25.723-83.817-25.723
		z"/>
	<path fill="#E6E447" d="M490.957,71.916c0,0-0.531-19.424-0.531-55.791c0-28.945-12.051-40.351-28.748-40.351
		c-11.752,0-534.495-0.106-544.745,0c-11.875,0.125-28.3,8.92-29.614,29.976c0,0,13.516-17.662,31.864-20.584
		c19.711-3.14,517.995-5.142,536.495,5.25C474.177,0.808,488.208,0.595,490.957,71.916"/>
	<path fill="#A9B618" d="M-113.006,22.775c0,0-0.354,23.668-0.354,60.029c0,14.271,12.757,29.041,31.401,29.041
		c11.75,0,533.254-0.246,543.504-0.354c11.875-0.125,20.519-6.976,24.664-13.533c0,0-8.213,5.641-27.621,6.44
		c-19.942,0.82-530.544,6.377-549.044-4.01c-18.5-10.391-14.853-24.852-22.552-77.609"/>
	<path fill="#EFEF90" d="M484.816,14.476c0,0-11.136-16.09-16.793-20.149c-5.656-4.064-19.445-8.839-28.99-9.545
		c-9.547-0.707-42.955-1.593-42.955-1.593s33.938-2.301,44.369-2.119c13.27,0.229,29.27,4.435,32.703,7.777
		c3.491,3.402,10.959,11.313,11.666,25.631"/>
	<path fill="#698612" d="M-113.387,69.625c0,0-0.177,7.602-0.177,12.375c0,7.602,3.01,15.203,8.839,21.041
		c5.833,5.832,12.905,8.483,15.203,8.66c2.298,0.178,13.611,0.53,18.915,0.53c5.303,0-7.779-1.768-13.259-2.475
		s-14.14-4.773-17.678-7.779c-3.535-3.01-11.137-10.43-11.843-32.35"/>
</g>
<path fill="#F9F9F7" d="M4.344,46.993c0,3.622-2.933,6.558-6.557,6.558h-67.658c-3.62,0-6.555-2.936-6.555-6.558v-9.194
	c0-3.62,2.935-6.555,6.555-6.555h67.658c3.625,0,6.557,2.935,6.557,6.555V46.993z"/>
<path fill="#F9F9F7" d="M-40.638,82.781c-3.619,0-6.557-2.934-6.557-6.558V8.565c0-3.62,2.938-6.554,6.557-6.554h9.195
	c3.62,0,6.555,2.935,6.555,6.554v67.658c0,3.624-2.935,6.558-6.555,6.558H-40.638z"/>
</svg>
