<?xml version="1.0" encoding="utf-8"?>
<!-- Generator: Adobe Illustrator 16.0.0, SVG Export Plug-In . SVG Version: 6.00 Build 0)  -->
<!DOCTYPE svg PUBLIC "-//W3C//DTD SVG 1.1//EN" "http://www.w3.org/Graphics/SVG/1.1/DTD/svg11.dtd">
<svg version="1.1"
	 id="Layer_1" xmlns:sodipodi="http://sodipodi.sourceforge.net/DTD/sodipodi-0.dtd" xmlns:inkscape="http://www.inkscape.org/namespaces/inkscape"
	 xmlns="http://www.w3.org/2000/svg" xmlns:xlink="http://www.w3.org/1999/xlink" x="0px" y="0px" width="544.877px"
	 height="365.318px" viewBox="33.442 218.08 544.877 365.318" enable-background="new 33.442 218.08 544.877 365.318"
	 xml:space="preserve">
<g id="Layer_1_1_">
	<g id="g4420" transform="matrix(0.58673783,0,0,0.58673783,326.54098,313.19625)">
		<path id="rect3218-7-0" fill-opacity="0.1647" d="M-468.246-155.281h866.068c17.283,0,31.294,14.011,31.294,31.294v553.209
			c0,17.283-14.011,31.294-31.294,31.294h-866.068c-17.283,0-31.294-14.011-31.294-31.294v-553.209
			C-499.54-141.271-485.529-155.281-468.246-155.281z"/>
		<path id="rect3218-7" fill="#FFFFFF" d="M-468.246-162.11h866.068c17.283,0,31.294,14.011,31.294,31.294v553.209
			c0,17.283-14.011,31.294-31.294,31.294h-866.068c-17.283,0-31.294-14.011-31.294-31.294v-553.209
			C-499.54-148.099-485.529-162.11-468.246-162.11z"/>
		<path id="rect3218" fill="#73BB44" d="M-463.198-154.743h856.677c16.569,0,30.001,13.431,30.001,30v539.966
			c0,16.569-13.432,30.001-30.001,30.001h-856.676c-16.569,0-30-13.432-30-30.001v-539.966
			C-493.198-141.311-479.766-154.743-463.198-154.743z"/>
		<path id="path3222" sodipodi:nodetypes="cssscssc" inkscape:connector-curvature="0" fill="#228441" d="M423.48-73.23
			c0,0,0.454-4.999,0.454-41.368c0-30.428-13.755-40.348-30.455-40.348c-11.749,0-845.677-0.108-855.926,0
			c-11.875,0.125-30.001,8.919-31.318,29.975c0,0,15.22-17.663,33.567-20.584c19.712-3.137,831.7-1.107,847.678,0.138
			C403.457-144.174,420.73-144.551,423.48-73.23z"/>
		<path id="path3222-1" sodipodi:nodetypes="cssscssc" inkscape:connector-curvature="0" fill="#228441" d="M-492.844,356.153
			c0,0-0.354,23.666-0.354,60.035c0,14.272,12.757,29.035,31.402,29.035c11.75,0,844.441-0.246,854.689-0.353
			c11.875-0.126,20.519-6.975,24.665-13.535c0,0-8.214,5.641-27.621,6.441c-19.944,0.822-841.729,6.378-860.229-4.013
			C-488.792,423.372-485.144,408.913-492.844,356.153z"/>
		<path id="path3222-1_2_" sodipodi:nodetypes="cssscssc" inkscape:connector-curvature="0" fill="#228441" d="M392.893,444.871
			c16.955,0.353,21.755-6.975,25.903-13.535c0,0-9.45,5.641-28.859,6.441"/>
	</g>
</g>
</svg>
