<?xml version="1.0" encoding="utf-8"?>
<!-- Generator: Adobe Illustrator 16.0.0, SVG Export Plug-In . SVG Version: 6.00 Build 0)  -->
<!DOCTYPE svg PUBLIC "-//W3C//DTD SVG 1.1//EN" "http://www.w3.org/Graphics/SVG/1.1/DTD/svg11.dtd">
<svg version="1.1"
	 id="Layer_1" xmlns:sodipodi="http://sodipodi.sourceforge.net/DTD/sodipodi-0.dtd" xmlns:inkscape="http://www.inkscape.org/namespaces/inkscape"
	 xmlns="http://www.w3.org/2000/svg" xmlns:xlink="http://www.w3.org/1999/xlink" x="0px" y="0px" width="544.877px"
	 height="93.391px" viewBox="30 686.592 544.877 93.391" enable-background="new 30 686.592 544.877 93.391" xml:space="preserve">
<g id="Layer_1_1_">
	<g id="g4420_5_" transform="matrix(0.58673783,0,0,0.58673783,326.54098,313.19625)">
		<path id="rect3218-7-0_3_" fill-opacity="0.1647" d="M-474.112,643.221h866.067c17.283,0,31.294,14.011,31.294,31.294v89.752
			c0,17.283-14.011,31.294-31.294,31.294h-866.067c-17.282,0-31.294-14.011-31.294-31.294v-89.752
			C-505.406,657.232-491.395,643.221-474.112,643.221z"/>
		<path id="rect3218-7_5_" fill="#FFFFFF" d="M-474.112,636.392h866.067c17.283,0,31.294,14.011,31.294,31.294v89.754
			c0,17.283-14.011,31.294-31.294,31.294h-866.067c-17.282,0-31.294-14.011-31.294-31.294v-89.754
			C-505.406,650.403-491.395,636.392-474.112,636.392z"/>
		<path id="rect3218_5_" fill="#73BB44" d="M-469.064,643.761h856.676c16.569,0,30.001,13.43,30.001,29.999v76.51
			c0,16.569-13.432,29.999-30.001,29.999h-856.676c-16.569,0-30-13.43-30-29.999v-76.51
			C-499.064,657.192-485.632,643.761-469.064,643.761z"/>
		<path id="path3222_5_" sodipodi:nodetypes="cssscssc" inkscape:connector-curvature="0" fill="#228441" d="M417.615,725.273
			c0,0,0.453-5,0.453-41.369c0-30.428-13.755-40.35-30.453-40.35c-11.751,0-845.678-0.108-855.927,0
			c-11.875,0.125-30,8.919-31.318,29.976c0,0,15.22-17.663,33.567-20.584c19.712-3.137,831.7-1.107,847.677,0.138
			C397.59,654.329,414.863,653.952,417.615,725.273z"/>
		<path id="path3222-1_10_" sodipodi:nodetypes="cssscssc" inkscape:connector-curvature="0" fill="#228441" d="M-498.71,691.201
			c0,0-0.355,23.666-0.355,60.035c0,14.272,12.757,29.035,31.402,29.035c11.75,0,844.44-0.246,854.69-0.354
			c11.875-0.125,20.519-6.974,24.665-13.533c0,0-8.214,5.641-27.622,6.441c-19.943,0.822-841.728,6.378-860.228-4.013
			C-494.658,758.419-491.01,743.96-498.71,691.201z"/>
		<path id="path3222-1_9_" sodipodi:nodetypes="cssscssc" inkscape:connector-curvature="0" fill="#228441" d="M387.028,779.916
			c16.953,0.354,21.755-6.974,25.901-13.533c0,0-9.449,5.641-28.859,6.441"/>
	</g>
</g>
</svg>
