<?xml version="1.0" encoding="UTF-8" standalone="no"?>
<!-- Generator: Adobe Illustrator 16.0.0, SVG Export Plug-In . SVG Version: 6.00 Build 0)  -->

<svg
   xmlns:dc="http://purl.org/dc/elements/1.1/"
   xmlns:cc="http://creativecommons.org/ns#"
   xmlns:rdf="http://www.w3.org/1999/02/22-rdf-syntax-ns#"
   xmlns:svg="http://www.w3.org/2000/svg"
   xmlns="http://www.w3.org/2000/svg"
   xmlns:sodipodi="http://sodipodi.sourceforge.net/DTD/sodipodi-0.dtd"
   xmlns:inkscape="http://www.inkscape.org/namespaces/inkscape"
   version="1.1"
   id="Layer_1"
   x="0px"
   y="0px"
   width="80.459198"
   height="76.362434"
   viewBox="0 0 80.459199 76.362434"
   enable-background="new 0 0 612 94.082"
   xml:space="preserve"
   sodipodi:docname="ui-special-corner-ingame.svg"
   inkscape:version="0.92.3 (2405546, 2018-03-11)"><metadata
   id="metadata37"><rdf:RDF><cc:Work
       rdf:about=""><dc:format>image/svg+xml</dc:format><dc:type
         rdf:resource="http://purl.org/dc/dcmitype/StillImage" /><dc:title /></cc:Work></rdf:RDF></metadata><defs
   id="defs35" /><sodipodi:namedview
   pagecolor="#ffffff"
   bordercolor="#666666"
   borderopacity="1"
   objecttolerance="10"
   gridtolerance="10"
   guidetolerance="10"
   inkscape:pageopacity="0"
   inkscape:pageshadow="2"
   inkscape:window-width="3840"
   inkscape:window-height="2081"
   id="namedview33"
   showgrid="false"
   inkscape:zoom="16"
   inkscape:cx="66.738217"
   inkscape:cy="41.23274"
   inkscape:window-x="3831"
   inkscape:window-y="-9"
   inkscape:window-maximized="1"
   inkscape:current-layer="Layer_1" />


<path
   id="rect3218_5_-7"
   d="m 2.633183,0 h 75.192746 c 1.454306,0 2.633269,7.5127286 2.633269,16.78141 v 42.799618 c 0,9.268677 -1.178961,16.781405 -2.633269,16.781405 H 2.633183 C 1.178876,76.362433 0,68.849705 0,59.581028 V 16.78141 C 0,7.5132892 1.178965,0 2.633183,0 Z"
   inkscape:connector-curvature="0"
   style="fill:#ffffff;fill-opacity:1;stroke-width:0.22158505" /><path
   id="rect3218_5_"
   d="m 5.171962,6.4992919 h 67.365931 c 1.302928,0 2.359171,6.1046291 2.359171,13.6360951 v 34.777748 c 0,7.531461 -1.056243,13.63609 -2.359171,13.63609 H 5.171962 c -1.302929,0 -2.359095,-6.104629 -2.359095,-13.63609 V 20.135387 c 0,-7.531011 1.056246,-13.6360951 2.359095,-13.6360951 z"
   inkscape:connector-curvature="0"
   style="fill:#73bb44;stroke-width:0.18906166" /><path
   d="m 9.337842,8.5389608 c 0,0 -5.851146,-0.92 -5.851146,11.0800002 0,12 0,31 0,36.667 0,5.667 3.932415,8.492 5.851146,8.492 1.918723,0 2.440617,2.544 2.440617,2.544 H -0.014983 V 7.5439608 c 0,0 9.033358,-1.418 9.352825,0.995 z"
   id="path6"
   inkscape:connector-curvature="0"
   style="fill:#228441;stroke-width:0.97947043" />

<rect
   y="64.777954"
   width="75.400208"
   height="6.1739998"
   id="rect10"
   x="-75.397659"
   style="fill:#228441;stroke-width:0.35100278"
   transform="scale(-1,1)" />
<rect
   y="2.3649609"
   width="75.396744"
   height="6.1739998"
   id="rect12"
   x="-75.394203"
   style="fill:#228441;stroke-width:0.35099474"
   transform="scale(-1,1)" />


<path
   d="m 65.97372,8.5389608 c 0,0 5.882792,-0.92 5.882792,11.0800002 0,12 0,31 0,36.667 0,5.667 -3.953692,8.492 -5.882792,8.492 -1.92911,0 -2.453828,2.544 -2.453828,2.544 H 75.376164 V 7.5439608 c 9.62e-4,0 -9.081257,-1.418 -9.402444,0.995 z"
   id="path18"
   inkscape:connector-curvature="0"
   style="fill:#228441;stroke-width:0.98211598" />




</svg>