<svg xmlns="http://www.w3.org/2000/svg" width="101.25" height="104.13" viewBox="128.976 -11.069 101.246 104.129" style="enable-background:new 128.976 -11.069 101.246 104.129"><g transform="matrix(.959 0 0 .959-450.59-34.01)"><path d="m709.13 79.953c0 28.996-23.506 52.5-52.5 52.5-28.997 0-52.5-23.506-52.5-52.5s23.505-52.5 52.5-52.5c28.997 0 52.5 23.505 52.5 52.5" style="fill-opacity:.165"/><path d="m709.66 76.42c0 28.995-23.506 52.5-52.5 52.5-28.997 0-52.5-23.506-52.5-52.5 0-28.996 23.506-52.5 52.5-52.5 28.995.0001 52.5 23.507 52.5 52.5" style="fill:#fdf5f3"/><path d="m702.21 76.44c0 24.725-20.04 44.768-44.768 44.768-24.725 0-44.768-20.04-44.768-44.768 0-24.725 20.04-44.768 44.768-44.768 24.725 0 44.768 20.04 44.768 44.768z" style="fill:#55acee;fill-opacity:.941;stroke:#c0deed"/><path d="m632.72 40.922c0 0 7.578-8.143 24.897-8.143 17.321 0 30.15 8.926 37.888 22.08 7.732 13.154 5.723 26.15 4.33 33.04 0 0-.527-27.14-23.569-42.33-23.04-15.19-43.546-4.645-43.546-4.645" style="fill:#1dcaff"/><path d="m682.52 112.98c0 0-7.703 7.644-25.02 7.644-17.32 0-30.655-9.05-38.39-22.2-7.731-13.155-6.347-25.276-4.954-32.17 0 0 .364 25.953 23.405 41.14 23.04 15.188 44.959 5.584 44.959 5.584" style="fill:#c0deed"/></g><path d="m171.36 56.786c-4.986 0-9.627-1.462-13.535-3.967.69.082 1.394.123 2.106.123 4.136 0 7.943-1.411 10.965-3.779-3.864-.071-7.125-2.624-8.248-6.132.539.103 1.092.158 1.661.158.805 0 1.585-.107 2.326-.31-4.04-.811-7.083-4.379-7.083-8.657 0-.038 0-.074.0001-.111 1.19.662 2.552 1.059 3.999 1.104-2.369-1.583-3.928-4.286-3.928-7.349 0-1.618.435-3.135 1.195-4.439 4.354 5.342 10.86 8.857 18.199 9.225-.151-.646-.229-1.32-.229-2.01 0-4.875 3.953-8.829 8.83-8.829 2.539 0 4.834 1.072 6.444 2.789 2.01-.396 3.9-1.131 5.606-2.143-.659 2.062-2.059 3.792-3.882 4.885 1.786-.213 3.487-.688 5.071-1.39-1.184 1.771-2.681 3.326-4.406 4.57.018.379.025.759.025 1.142.003 11.668-8.877 25.12-25.12 25.12" style="fill:#f7f8f8"/></svg>