<?xml version="1.0" encoding="utf-8"?>
<!-- Generator: Adobe Illustrator 16.0.0, SVG Export Plug-In . SVG Version: 6.00 Build 0)  -->
<!DOCTYPE svg PUBLIC "-//W3C//DTD SVG 1.1//EN" "http://www.w3.org/Graphics/SVG/1.1/DTD/svg11.dtd">
<svg version="1.1"
	 id="svg12211" xmlns:dc="http://purl.org/dc/elements/1.1/" xmlns:cc="http://creativecommons.org/ns#" xmlns:rdf="http://www.w3.org/1999/02/22-rdf-syntax-ns#" xmlns:svg="http://www.w3.org/2000/svg" xmlns:sodipodi="http://sodipodi.sourceforge.net/DTD/sodipodi-0.dtd" xmlns:inkscape="http://www.inkscape.org/namespaces/inkscape" inkscape:export-ydpi="72.021774" inkscape:export-xdpi="72.021774" inkscape:export-filename="C:\Users\Zealotlee\Dropbox\Small Projects\Steves Fuzzballs\fuschia-fuzzle.png" sodipodi:docname="acc-face-mustache.svg" inkscape:version="0.91 r13725"
	 xmlns="http://www.w3.org/2000/svg" xmlns:xlink="http://www.w3.org/1999/xlink" x="0px" y="0px" width="310.628px"
	 height="200.161px" viewBox="100.055 155.617 310.628 200.161" enable-background="new 100.055 155.617 310.628 200.161"
	 xml:space="preserve">
<sodipodi:namedview  showguides="true" showgrid="false" inkscape:cy="193.02625" inkscape:cx="369.48506" inkscape:zoom="0.71220416" borderopacity="1.0" bordercolor="#666666" pagecolor="#ffffff" id="base" inkscape:window-maximized="1" inkscape:window-y="-8" inkscape:window-x="-8" inkscape:window-height="988" inkscape:window-width="1680" inkscape:pageshadow="2" inkscape:current-layer="layer1" inkscape:pageopacity="0.0" inkscape:document-units="px">
	</sodipodi:namedview>
<linearGradient id="SVGID_1_" gradientUnits="userSpaceOnUse" x1="-1.9741" y1="347.207" x2="10.042" y2="347.207" gradientTransform="matrix(1 0 0 -1 104 582)">
	<stop  offset="0" style="stop-color:#5AD94A"/>
	<stop  offset="0.5972" style="stop-color:#63DF56"/>
	<stop  offset="1" style="stop-color:#52CB4A"/>
</linearGradient>
<path fill="url(#SVGID_1_)" stroke="#56AF21" stroke-width="3.9421" stroke-linecap="round" d="M110.857,220.081
	c0,0-1.737,17.952,3.185,21.282c-3.909,3.33-11.437,6.002-12.016,8.141"/>
<linearGradient id="SVGID_2_" gradientUnits="userSpaceOnUse" x1="289.3662" y1="380.0156" x2="304.7119" y2="380.0156" gradientTransform="matrix(1 0 0 -1 104 582)">
	<stop  offset="0" style="stop-color:#5AD94A"/>
	<stop  offset="0.5972" style="stop-color:#63DF56"/>
	<stop  offset="1" style="stop-color:#52CB4A"/>
</linearGradient>
<path fill="url(#SVGID_2_)" stroke="#56AF21" stroke-width="3.9421" stroke-linecap="round" d="M393.366,193.298
	c0,0,5.791,10.858,2.751,17.373c6.081-4.343,9.555-4.343,12.595-1.737"/>
<path fill="#F2F2F2" stroke="#EF1818" stroke-width="5" stroke-miterlimit="10" d="M169.491,254.972c0,0-4.633,49.801,15.057,70.071
	s63.411,33.298,103.659,26.349c40.248-6.948,67.175-28.227,73.545-47.267s9.266-41.625,2.316-67.105
	c-6.37,1.737-70.36,12.451-97,14.767C240.431,254.104,199.025,256.999,169.491,254.972z"/>
<path fill="none" stroke="#EF1818" stroke-width="5" stroke-linecap="round" stroke-miterlimit="10" d="M115.635,241.363
	c0,0,37.804,19.974,53.503,19.687"/>
<path fill="none" stroke="#EF1818" stroke-width="5" stroke-linecap="round" stroke-miterlimit="10" d="M364.479,238.587
	c0,0,22.174-21.835,32.888-29.653"/>
<path fill="#E3DD96" d="M197.683,221.43c7.483,4.332,14.087,4.825,22.352,2.203c4.293-1.362,17.761-9.077,21.802-4.492
	c4.707,5.34-6.687,15.948-10.289,18.467c-6.467,4.521-13.326,5.275-20.571,2.461c-4.679-1.818-6.09-1.47-7.555,3.605
	c-2.599-0.134-7.714-5.227-10.033-1.636c-1.848,4.084-7.509,7.437-11.954,7.212c-5.711-0.289-7.888-6.808-2.61-9.628
	c-7.176-3.527-10.685-10.171-2.599-15.057c-7.491-4.366-10.209-16.463-5.252-23.672c5.181-7.534,14.715-3.807,15.996,4.279
	c8.054-0.616,6.677,7.399,6.999,13.314c0.901,0.638,1.706,1.559,2.845,2.076"/>
<path fill="#E3DD96" d="M326.716,182.585c-2.25-2.654-3.212-5.973-6.421-7.487c-4.327-2.042-8.838,1.898-15.831-2.981
	s-0.319-14.717,8.685-15.534c6.828-0.62,13.002,2.442,18.246,6.484c1.976,1.523,3.922,3.053,5.99,4.451
	c-0.25-2.765-1.59-9.54,1.41-11.427c2.852-1.793,6.016,1.927,7.217,4.132c1.87,3.435,1.709,7.148,0.709,10.805
	c-0.69,2.521-1.875,4.65-0.867,7.245c1.014,2.605,3.619,4.441,4.854,6.969c1.401,2.865,1.226,5.551,0.675,8.601
	c-0.515,2.855-1.017,5.347-0.559,8.257c0.352,2.235,1.697,4.97,0.689,7.208c-3.201,7.103-12.347,0.477-14.742-3.538
	c-2.475,3.964-6.004,7.653-10.229,3.393c-3.502-3.53-3.407-8.415-1.528-12.673c-6.982-4.603-10.432-16.165,1.702-14.486"/>
<path fill="#E3DD96" d="M199.315,272.635c4.784,3.456,17.616,12.694,5.283,15.395c-5.628,1.232-19.4,0.746-20.679-6.957
	c-0.526-3.17,1.867-6.303,3.569-8.727c-8.871-8.892,20.15-16.292,11.249,1.157"/>
<path fill="#E3DD96" d="M343.8,282.189c5.442,5.256,10.683,12.894,3.28,19.15c-5.909,4.995-17.516,4.7-21.16-2.994
	c-2.868-6.058,1.721-13.002,4.503-18.229c2.774-5.213,6.672-11.7,13.623-10.357c9.853,1.903,3.119,9.398-1.694,12.43"/>
<path fill="#EF1818" d="M230.731,278.136c0,0-11.003-2.461-12.016-10.569c-1.013-8.106,9.555-6.515,9.555-6.515
	s4.488,6.804,4.343,12.595C232.468,279.439,230.731,278.136,230.731,278.136z"/>
<path fill="#EF1818" d="M238.549,271.332c-0.29-3.909-2.027-3.475-1.448-5.501s3.185-2.315,5.357,2.751s-1.524,7.818-2.21,8.977
	c-0.686,1.157-3.671,0.977-3.264-1.828C237.391,272.925,238.549,271.332,238.549,271.332z"/>
<path fill="#EF1818" d="M241.299,284.361c0.732,2.197,5.936,6.515,9.266,8.252c3.33,1.736,6.66,2.027,6.66,0
	s1.158-4.922-2.315-6.949c-3.475-2.027-5.501-4.922-7.963-4.922C244.484,280.742,240.897,283.154,241.299,284.361z"/>
<path fill="#EF1818" d="M307.172,264.463c0.13-1.963,0.29-6.449,0.869-7.753c0.579-1.303,1.447-2.027,1.447-3.764
	c0-1.737,4.779-2.461,6.516,0c1.737,2.461,4.488,6.66,4.055,8.832c-0.435,2.172-5.067,8.713-6.949,9.568
	c-1.883,0.855-6.226,0.104-6.66-1.764C306.014,267.712,307.128,265.128,307.172,264.463z"/>
<path fill="#EF1818" d="M302.395,266.12c-0.83,1.97,3.764,5.094,1.303,5.226c-2.461,0.131-5.502-1.896-5.936-5.226
	c-0.436-3.329,2.299-5.937,3.465-6.804C302.395,258.447,304.219,261.779,302.395,266.12z"/>
<path fill="#EF1818" d="M290.523,279.294c2.57-3.194,9.318-4.813,11.029-3.565c1.711,1.25,1.186,2.986,0,5.014
	c-1.185,2.027-3.936,7.064-7.555,7.803C290.378,289.284,285.745,285.23,290.523,279.294z"/>
<path fill="#EF1818" d="M271.848,303.327c4.019,0.526,9.12-3.765,9.409-5.646c0.29-1.883-1.882-4.634-5.937-6.371
	c-4.053-1.736-9.844-0.578-11.871,2.027C261.423,295.943,263.016,302.169,271.848,303.327z"/>
<path fill="#EF1818" d="M262.665,310.131c-0.299,2.152,4.403,4.488,7.444,4.488s8.397-0.869,8.687-3.33
	c0.29-2.461-1.593-3.33-5.067-3.764C270.254,307.091,263.328,305.354,262.665,310.131z"/>
<path fill="#EF1818" d="M266.346,323.451c-2.356,2.285-4.055,4.488-4.634,7.817c-0.579,3.33-0.873,6.805,0.938,6.805
	c1.813,0,8.906-0.29,10.644-4.488c1.737,2.461,5.698,5.357,7.988,4.488c2.291-0.869,3.304-3.765,1.567-8.107
	c-1.738-4.343-4.923-5.356-6.371-6.515C275.032,322.292,267.66,322.176,266.346,323.451z"/>
<path fill="#EF1818" d="M272.497,287.385c6.165-0.209,9.21-4.144,11.229-9.156c2.019-5.015,3.176-6.027,2.888-9.357
	c-0.29-3.33,0.868-3.953,3.04-5.958s1.447-4.321-0.579-3.019c-2.027,1.304-5.196,3.33-5.349,7.385
	c-0.153,4.054-1.746,9.266-4.063,11.727c-1.737-3.475-4.633-6.37-4.633-6.37s-1.014-2.172-0.145-5.646
	c0.868-3.475-2.353-4.907-2.914-2.526c-0.561,2.382-0.307,5.158,0,6.882c-2.299-4.357-5.772-8.41-5.772-4.212
	s1.448,4.237,1.157,6.317c-0.289,2.08-0.434,4.976-2.026,5.844c-1.882-5.212-3.33-9.41-5.937-10.857
	c-2.605-1.449-7.962-1.594-9.41-1.449c-1.447,0.146-1.303,2.605,1.303,2.605c2.606,0.001,8.252,1.581,9.121,5.713
	C261.277,279.439,264.461,287.657,272.497,287.385z"/>
</svg>
