<?xml version="1.0" encoding="utf-8"?>
<!-- Generator: Adobe Illustrator 16.0.0, SVG Export Plug-In . SVG Version: 6.00 Build 0)  -->
<!DOCTYPE svg PUBLIC "-//W3C//DTD SVG 1.1//EN" "http://www.w3.org/Graphics/SVG/1.1/DTD/svg11.dtd">
<svg version="1.1"
	 id="svg12211" xmlns:dc="http://purl.org/dc/elements/1.1/" xmlns:cc="http://creativecommons.org/ns#" xmlns:rdf="http://www.w3.org/1999/02/22-rdf-syntax-ns#" xmlns:svg="http://www.w3.org/2000/svg" xmlns:sodipodi="http://sodipodi.sourceforge.net/DTD/sodipodi-0.dtd" xmlns:inkscape="http://www.inkscape.org/namespaces/inkscape" inkscape:export-ydpi="72.021774" inkscape:export-xdpi="72.021774" inkscape:export-filename="C:\Users\Zealotlee\Dropbox\Small Projects\Steves Fuzzballs\fuschia-fuzzle.png" sodipodi:docname="acc-face-mustache.svg" inkscape:version="0.91 r13725"
	 xmlns="http://www.w3.org/2000/svg" xmlns:xlink="http://www.w3.org/1999/xlink" x="0px" y="0px" width="136.183px"
	 height="107.687px" viewBox="188.399 202.989 136.183 107.687" enable-background="new 188.399 202.989 136.183 107.687"
	 xml:space="preserve">
<g id="g6143_1_" transform="translate(-140.85685,327.11385)">
	
		<path id="path6111_1_" sodipodi:nodetypes="sssscssss" inkscape:connector-curvature="0" fill="#FF00FF" stroke="#DC00DC" stroke-width="5" d="
		M379.179-91.44c16.134,0,19.426-16.463,16.134-21.402c-3.293-4.939-9.878-9.219-19.756-8.231
		c-9.878,0.988-22.719,16.134-24.694,16.792c-1.976,0.659-10.207,0.659-11.853-6.585c0,0-7.573,1.317-7.244,6.914
		c0.329,5.597,12.183,15.804,20.085,13.829c7.902-1.976,12.183-9.549,14.158-9.549C367.985-99.672,366.338-91.44,379.179-91.44
		L379.179-91.44z"/>
	
		<path id="path6111-3_1_" sodipodi:nodetypes="sssscssss" inkscape:connector-curvature="0" fill="#FF00FF" stroke="#DC00DC" stroke-width="5" d="
		M415.515-91.849c-16.134,0-19.426-16.463-16.134-21.402s9.878-9.219,19.756-8.231c9.878,0.988,22.719,16.134,24.694,16.792
		c1.976,0.659,10.207,0.659,11.853-6.585c0,0,7.573,1.317,7.244,6.914c-0.329,5.597-12.183,15.804-20.085,13.829
		c-7.902-1.976-12.184-9.549-14.158-9.549S428.356-91.849,415.515-91.849L415.515-91.849z"/>
</g>
<path fill="#FF00FF" stroke="#DC00DC" stroke-width="5" d="M236.467,268.777c0,0,7.935,8.668,8.734,5
	c0.798-3.666,3.465-3.666,3.465-3.666l6.155,8.57l8.029-8.57l4.004,4.57l6.479-5.904c0,0-7.333,27.334-16.333,38.001
	C247.332,295.111,239.269,289.111,236.467,268.777z"/>
</svg>
