<?xml version="1.0" encoding="utf-8"?>
<!-- Generator: Adobe Illustrator 16.0.0, SVG Export Plug-In . SVG Version: 6.00 Build 0)  -->
<!DOCTYPE svg PUBLIC "-//W3C//DTD SVG 1.1//EN" "http://www.w3.org/Graphics/SVG/1.1/DTD/svg11.dtd">
<svg version="1.1"
	 id="svg12211" xmlns:dc="http://purl.org/dc/elements/1.1/" xmlns:cc="http://creativecommons.org/ns#" xmlns:rdf="http://www.w3.org/1999/02/22-rdf-syntax-ns#" xmlns:svg="http://www.w3.org/2000/svg" xmlns:sodipodi="http://sodipodi.sourceforge.net/DTD/sodipodi-0.dtd" xmlns:inkscape="http://www.inkscape.org/namespaces/inkscape" inkscape:export-ydpi="72.021774" inkscape:export-xdpi="72.021774" inkscape:export-filename="C:\Users\Zealotlee\Dropbox\Small Projects\Steves Fuzzballs\fuschia-fuzzle.png" sodipodi:docname="acc-face-mustache.svg" inkscape:version="0.91 r13725"
	 xmlns="http://www.w3.org/2000/svg" xmlns:xlink="http://www.w3.org/1999/xlink" x="0px" y="0px" width="168.979px"
	 height="44.69px" viewBox="172.459 249.541 168.979 44.69" enable-background="new 172.459 249.541 168.979 44.69"
	 xml:space="preserve">
<sodipodi:namedview  showguides="true" showgrid="false" inkscape:cy="193.02625" inkscape:cx="369.48506" inkscape:zoom="0.71220416" borderopacity="1.0" bordercolor="#666666" pagecolor="#ffffff" id="base" inkscape:window-maximized="1" inkscape:window-y="-8" inkscape:window-x="-8" inkscape:window-height="988" inkscape:window-width="1680" inkscape:pageshadow="2" inkscape:current-layer="layer1" inkscape:pageopacity="0.0" inkscape:document-units="px">
	</sodipodi:namedview>
<g id="layer1" transform="translate(0,-540.36218)" inkscape:label="Layer 1" inkscape:groupmode="layer">
	
		<path id="path6111-0" sodipodi:nodetypes="sssscssss" inkscape:connector-curvature="0" fill="#FF00FF" stroke="#DC00DC" stroke-width="5" d="
		M234.239,830.135c20.167,0,24.282-20.579,20.167-26.752c-4.116-6.174-12.347-11.524-24.694-10.29
		c-12.348,1.235-28.399,20.167-30.868,20.99c-2.47,0.824-12.759,0.824-14.817-8.23c0,0-9.466,1.646-9.054,8.643
		c0.411,6.996,15.228,19.756,25.106,17.286c9.877-2.47,15.228-11.936,17.697-11.936
		C220.246,819.846,218.188,830.135,234.239,830.135L234.239,830.135z"/>
	
		<path id="path6111-3-0" sodipodi:nodetypes="sssscssss" inkscape:connector-curvature="0" fill="#FF00FF" stroke="#DC00DC" stroke-width="5" d="
		M279.658,829.624c-20.167,0-24.283-20.579-20.167-26.752c4.116-6.174,12.348-11.525,24.694-10.29
		c12.348,1.235,28.398,20.167,30.868,20.99s12.759,0.823,14.817-8.231c0,0,9.466,1.646,9.055,8.643
		c-0.412,6.997-15.229,19.756-25.106,17.287c-9.878-2.47-15.229-11.936-17.698-11.936
		C293.652,819.335,295.71,829.624,279.658,829.624L279.658,829.624z"/>
</g>
</svg>
