<?xml version="1.0" encoding="utf-8"?>
<!-- Generator: Adobe Illustrator 16.0.0, SVG Export Plug-In . SVG Version: 6.00 Build 0)  -->
<!DOCTYPE svg PUBLIC "-//W3C//DTD SVG 1.1//EN" "http://www.w3.org/Graphics/SVG/1.1/DTD/svg11.dtd">
<svg version="1.1"
	 id="svg12211" xmlns:dc="http://purl.org/dc/elements/1.1/" xmlns:cc="http://creativecommons.org/ns#" xmlns:rdf="http://www.w3.org/1999/02/22-rdf-syntax-ns#" xmlns:svg="http://www.w3.org/2000/svg" xmlns:sodipodi="http://sodipodi.sourceforge.net/DTD/sodipodi-0.dtd" xmlns:inkscape="http://www.inkscape.org/namespaces/inkscape" inkscape:export-ydpi="72.021774" inkscape:export-xdpi="72.021774" inkscape:export-filename="C:\Users\Zealotlee\Dropbox\Small Projects\Steves Fuzzballs\fuschia-fuzzle.png" sodipodi:docname="acc-face-gasmask.svg" inkscape:version="0.91 r13725"
	 xmlns="http://www.w3.org/2000/svg" xmlns:xlink="http://www.w3.org/1999/xlink" x="0px" y="0px" width="458.621px"
	 height="386.872px" viewBox="21.836 77.626 458.621 386.872" enable-background="new 21.836 77.626 458.621 386.872"
	 xml:space="preserve">
<sodipodi:namedview  showguides="true" showgrid="false" inkscape:cy="312.93981" inkscape:cx="184.55727" inkscape:zoom="1.2263755" borderopacity="1.0" bordercolor="#666666" pagecolor="#ffffff" id="base" inkscape:window-maximized="1" inkscape:window-y="-8" inkscape:window-x="-8" inkscape:window-height="988" inkscape:window-width="1680" inkscape:pageshadow="2" inkscape:current-layer="layer1" inkscape:pageopacity="0.0" inkscape:document-units="px">
	</sodipodi:namedview>
<g id="layer1" transform="translate(0,-540.36218)" inkscape:label="Layer 1" inkscape:groupmode="layer">
	<path id="path6964-7" sodipodi:nodetypes="ccccc" inkscape:connector-curvature="0" fill="#242426" d="M479.176,691.576
		c0,0,15.248,140.957-59.468,197.849l-102.925-5.096l32.783-196.999L479.176,691.576z"/>
	<path id="path6964" sodipodi:nodetypes="ccccc" inkscape:connector-curvature="0" fill="#242426" d="M23.811,691.576
		c0,0-15.249,140.957,59.468,197.849l102.925-5.096L153.42,687.33L23.811,691.576z"/>
	<g id="g6127" transform="matrix(0.79424875,0,0,0.79424875,350.51285,-267.348)">
		
			<path id="path5861" sodipodi:nodetypes="cc" inkscape:connector-curvature="0" fill="none" stroke="#242426" stroke-width="3" stroke-linecap="round" d="
			M-231.475,1447.78c0,0,31.284-2.786,60.278-6.406"/>
		<path id="path5863" inkscape:connector-curvature="0" fill="#5C5C60" d="M-127.019,1522.993
			c-15.725,1.498-43.43-4.493-43.43-4.493c-2.995-20.217-6.739-86.112-6.739-86.112s34.444-5.99,49.42-5.99"/>
		<path id="path5865" inkscape:connector-curvature="0" fill="none" stroke="#373739" stroke-width="5" stroke-linecap="round" d="
			M-156.221,1445.119l2.995,45.676"/>
		<path id="path5867" inkscape:connector-curvature="0" fill="none" stroke="#373739" stroke-width="5" stroke-linecap="round" d="
			M-138.999,1447.364l-0.749,48.673"/>
		
			<path id="path5871" sodipodi:nodetypes="csssc" inkscape:connector-curvature="0" fill="#47474A" stroke="#373739" stroke-width="7.9367" d="
			M-355.798,1431.155c0,0-2.168,9.579-2.168,18.275s27.418,65.939,38.08,84.778c10.663,18.839,48.732,55.793,68.533,62.314
			S-283.446,1483.326-355.798,1431.155z"/>
		<path id="path5873" inkscape:connector-curvature="0" fill="#47474A" stroke="#373739" stroke-width="4" d="M-317.962,1505.771
			c17.222,31.449,25.459,44.179,24.71,48.671c-0.749,4.493-20.966-16.473-28.455-31.449c-7.488-14.976-21.715-37.44-15.725-39.686
			S-320.957,1499.781-317.962,1505.771L-317.962,1505.771z"/>
		<path id="path5875" inkscape:connector-curvature="0" fill="none" stroke="#242426" d="M-152.046,1520.433l-3.744,60.653"/>
		<path id="path5877" inkscape:connector-curvature="0" fill="none" stroke="#242426" stroke-width="4" stroke-linecap="round" d="
			M-133.326,1544.636l-1.498,20.217"/>
		<path id="path5879" sodipodi:nodetypes="cccccccc" inkscape:connector-curvature="0" fill="#242426" d="M-160.526,1588.078
			l32.938-0.749l-4.493-5.242l-1.498-8.985h-12.729l-7.489,7.488h-7.983L-160.526,1588.078z"/>
		<path id="path5881" inkscape:connector-curvature="0" fill="none" stroke="#242426" stroke-width="4" stroke-linecap="round" d="
			M-142.818,1542.914l-1.726,17.263"/>
		<path id="path5885" inkscape:connector-curvature="0" fill="#5C5C60" d="M-185.976,1396.52
			c6.042,2.589,31.937-17.263,40.568-28.484c8.632-11.221,9.495-52.652,9.495-59.558c0-6.905-10.358-10.358-12.948-2.589
			C-151.45,1313.658-184.25,1361.995-185.976,1396.52z"/>
		
			<path id="path5887" sodipodi:nodetypes="cc" inkscape:connector-curvature="0" fill="none" stroke="#47474A" stroke-width="8" stroke-linecap="round" d="
			M-274.88,1373.215c0,0,54.378,12.947,77.684,23.305"/>
		<path id="path5889" inkscape:connector-curvature="0" fill="none" stroke="#242426" stroke-width="3" stroke-linecap="round" d="
			M-278.333,1379.257c0,0,81.999,30.211,97.536,52.653"/>
		<path id="path5895" inkscape:connector-curvature="0" fill="#5C5C60" d="M-300.998,1391.509c-10.653,2.359-20.332,10.331-27,17
			c52.425,36.156,94.765,108.175,100,171c8.644-1.638,15.611-5.769,23-7C-217.458,1497.743-233.317,1434.913-300.998,1391.509z"/>
		<path id="path5855-9" sodipodi:nodetypes="ccscccccscccc" inkscape:connector-curvature="0" fill="#373739" stroke="#333333" d="
			M-159.217,1585.144l-37.44-62.9c0,0-24.71,5.99-25.459-2.995c-0.749-8.985-78.249-127.296-78.249-127.296
			c4.118-5.241,21.715-12.354,21.715-12.354c34.071-47.549,153.042-115.136,153.042-115.136s118.972,67.197,153.042,114.745
			c0,0,17.597,7.114,21.716,12.356c0,0-77.5,118.31-78.251,127.296c-0.748,8.985-25.459,2.995-25.459,2.995l-37.44,62.898
			l-33.609,1.693L-159.217,1585.144z"/>
		<path id="path6014" inkscape:connector-curvature="0" fill="#47474A" d="M-175.009,1442.33c0,0-9.193-31.465-105.005-63.639
			l-13.789,7.778c0,0,60.104,39.952,66.468,60.458L-175.009,1442.33z"/>
		<path id="path6012" sodipodi:nodetypes="csccccc" inkscape:connector-curvature="0" fill="#242426" d="M-197.636,1522.411
			c0,0,9.192-9.546,26.34-4.949c17.147,4.596,44.548,3.535,44.548,3.535l0.884,65.584l-35.179,0.884l-0.53-6.364L-197.636,1522.411z
			"/>
		
			<path id="path5875-8" sodipodi:nodetypes="cc" inkscape:connector-curvature="0" fill="none" stroke="#101011" stroke-width="2" d="
			M-159.046,1517.934l-1.244,65.152"/>
		
			<path id="path5861-7" sodipodi:nodetypes="cc" inkscape:connector-curvature="0" fill="none" stroke="#242426" stroke-width="3" stroke-linecap="round" d="
			M-231.475,1447.78c0,0,31.284-2.786,60.278-6.406"/>
		<path id="path5869" inkscape:connector-curvature="0" fill="#47474A" stroke="#373739" stroke-width="8" d="M-354.653,1426.398
			c0,0,7.488-24.71,44.928-41.932c0,0,68.889,13.478,89.856,81.62c20.966,68.14,21.715,112.319,21.715,112.319
			s-29.952,17.223-50.169,17.972C-248.323,1596.376-305.232,1454.104-354.653,1426.398z"/>
		
			<path id="path5877-1" sodipodi:nodetypes="cc" inkscape:connector-curvature="0" fill="none" stroke="#101011" stroke-width="4" stroke-linecap="round" d="
			M-133.826,1534.636l-0.998,30.217"/>
		<path id="path5879-5" sodipodi:nodetypes="cccccccc" inkscape:connector-curvature="0" fill="#101011" d="M-160.526,1588.078
			l32.938-0.749l-4.493-5.242l-1.498-8.985h-12.729l-7.489,7.488h-7.983L-160.526,1588.078z"/>
		
			<path id="path5881-0" sodipodi:nodetypes="cc" inkscape:connector-curvature="0" fill="none" stroke="#101011" stroke-width="4" stroke-linecap="round" d="
			M-143.818,1533.914l-0.727,26.263"/>
		<path id="path5883-2" sodipodi:nodetypes="csccc" inkscape:connector-curvature="0" fill="#47474A" d="M-125.555,1266.185
			c0,0-70.779,92.357-75.094,117.388c-4.316,25.032,21.578,47.474,21.578,47.474l53.516-0.863V1266.185z"/>
		<path id="path5885-9" inkscape:connector-curvature="0" fill="#5C5C60" d="M-185.976,1396.52
			c6.042,2.589,31.937-17.263,40.568-28.484c8.632-11.221,9.495-52.652,9.495-59.558c0-6.905-10.358-10.358-12.948-2.589
			C-151.45,1313.658-184.25,1361.995-185.976,1396.52z"/>
		<path id="path5895-2" inkscape:connector-curvature="0" fill="#5C5C60" d="M-300.998,1391.509c-10.653,2.359-20.332,10.331-27,17
			c52.425,36.156,94.765,108.175,100,171c8.644-1.638,15.611-5.769,23-7C-217.458,1497.743-233.317,1434.913-300.998,1391.509z"/>
		
			<path id="path5887-8" sodipodi:nodetypes="cc" inkscape:connector-curvature="0" fill="none" stroke="#47474A" stroke-width="8" stroke-linecap="round" d="
			M-274.88,1373.215c0,0,54.378,12.947,77.684,23.305"/>
		
			<path id="path5861-6" sodipodi:nodetypes="cc" inkscape:connector-curvature="0" fill="none" stroke="#242426" stroke-width="3" stroke-linecap="round" d="
			M-19.74,1447.39c0,0-31.284-2.786-60.277-6.406"/>
		
			<path id="path5865-20" inkscape:connector-curvature="0" fill="none" stroke="#373739" stroke-width="5" stroke-linecap="round" d="
			M-94.993,1444.728l-2.995,45.677"/>
		
			<path id="path5867-3" inkscape:connector-curvature="0" fill="none" stroke="#373739" stroke-width="5" stroke-linecap="round" d="
			M-112.216,1446.974l0.749,48.673"/>
		
			<path id="path5871-4" sodipodi:nodetypes="csssc" inkscape:connector-curvature="0" fill="#47474A" stroke="#373739" stroke-width="7.9325" d="
			M104.237,1429.707c0,0,2.161,9.601,2.161,18.314c0,8.715-27.33,66.081-37.958,84.96c-10.629,18.88-48.577,55.913-68.316,62.448
			C-19.615,1601.964,32.114,1481.989,104.237,1429.707z"/>
		<path id="path5873-2" inkscape:connector-curvature="0" fill="#47474A" stroke="#373739" stroke-width="4" d="M66.747,1505.381
			c-17.222,31.449-25.459,44.179-24.71,48.671c0.749,4.493,20.966-16.473,28.454-31.449s21.715-37.44,15.725-39.686
			C80.225,1480.671,69.742,1499.391,66.747,1505.381z"/>
		<path id="path5875-7" inkscape:connector-curvature="0" fill="none" stroke="#242426" d="M-99.169,1520.044l3.744,60.652"/>
		
			<path id="path5877-19" inkscape:connector-curvature="0" fill="none" stroke="#242426" stroke-width="4" stroke-linecap="round" d="
			M-117.889,1544.245l1.498,20.219"/>
		<path id="path5879-7" sodipodi:nodetypes="cccccccc" inkscape:connector-curvature="0" fill="#242426" d="M-90.69,1587.688
			l-32.937-0.749l4.493-5.242l1.498-8.985h12.729l7.488,7.488h7.983L-90.69,1587.688z"/>
		
			<path id="path5881-6" inkscape:connector-curvature="0" fill="none" stroke="#242426" stroke-width="4" stroke-linecap="round" d="
			M-108.397,1542.525l1.726,17.263"/>
		<path id="path5885-3" inkscape:connector-curvature="0" fill="#5C5C60" d="M-65.238,1396.132
			c-6.042,2.589-31.937-17.264-40.569-28.485c-8.631-11.221-9.496-52.653-9.496-59.558c0-6.905,10.359-10.358,12.948-2.589
			S-66.965,1361.605-65.238,1396.132z"/>
		
			<path id="path5887-0" sodipodi:nodetypes="cc" inkscape:connector-curvature="0" fill="none" stroke="#47474A" stroke-width="8" stroke-linecap="round" d="
			M23.665,1372.826c0,0-54.378,12.947-77.682,23.305"/>
		
			<path id="path5889-8" inkscape:connector-curvature="0" fill="none" stroke="#242426" stroke-width="3" stroke-linecap="round" d="
			M27.117,1378.868c0,0-81.998,30.211-97.535,52.653"/>
		<path id="path6014-9" inkscape:connector-curvature="0" fill="#47474A" d="M-76.206,1441.941c0,0,9.192-31.465,105.005-63.64
			l13.788,7.778c0,0-60.104,39.953-66.468,60.459L-76.206,1441.941z"/>
		<path id="path6012-6" sodipodi:nodetypes="csccccc" inkscape:connector-curvature="0" fill="#242426" d="M-53.579,1522.021
			c0,0-9.192-9.546-26.34-4.95c-17.147,4.597-46.669,3.182-46.669,3.182l1.238,65.938l35.179,0.884l0.53-6.364L-53.579,1522.021z"/>
		
			<path id="path5875-8-7" sodipodi:nodetypes="cc" inkscape:connector-curvature="0" fill="none" stroke="#101011" stroke-width="2" d="
			M-92.169,1517.544l1.244,65.152"/>
		
			<path id="path5861-7-3" sodipodi:nodetypes="cc" inkscape:connector-curvature="0" fill="none" stroke="#242426" stroke-width="3" stroke-linecap="round" d="
			M-19.74,1447.39c0,0-31.284-2.786-60.277-6.406"/>
		<path id="path5869-5" inkscape:connector-curvature="0" fill="#47474A" stroke="#373739" stroke-width="8" d="M103.438,1426.008
			c0,0-7.488-24.71-44.927-41.932c0,0-68.889,13.478-89.855,81.618c-20.966,68.141-21.716,112.32-21.716,112.32
			s29.952,17.222,50.17,17.972C-2.891,1595.986,54.017,1453.714,103.438,1426.008z"/>
		<path id="path5895-4" inkscape:connector-curvature="0" fill="#5C5C60" d="M49.783,1391.118
			c10.653,2.361,20.332,10.332,27.001,17.001c-52.425,36.155-94.766,108.175-100.001,171c-8.644-1.639-15.61-5.769-23-7
			C-33.757,1497.354-17.897,1434.523,49.783,1391.118z"/>
		
			<path id="path5877-1-1" sodipodi:nodetypes="cc" inkscape:connector-curvature="0" fill="none" stroke="#101011" stroke-width="4" stroke-linecap="round" d="
			M-117.388,1534.245l0.997,30.218"/>
		<path id="path5879-5-4" sodipodi:nodetypes="cccccccc" inkscape:connector-curvature="0" fill="#101011" d="M-90.69,1587.688
			l-32.937-0.749l4.493-5.242l1.498-8.985h12.729l7.488,7.488h7.983L-90.69,1587.688z"/>
		
			<path id="path5881-0-1" sodipodi:nodetypes="cc" inkscape:connector-curvature="0" fill="none" stroke="#101011" stroke-width="4" stroke-linecap="round" d="
			M-107.397,1533.524l0.727,26.263"/>
		<path id="path5883-2-8" sodipodi:nodetypes="csccc" inkscape:connector-curvature="0" fill="#47474A" d="M-125.66,1265.795
			c0,0,70.779,92.358,75.095,117.389c4.316,25.032-21.578,47.474-21.578,47.474l-53.516-0.863V1265.795z"/>
		<path id="path5885-9-8" inkscape:connector-curvature="0" fill="#5C5C60" d="M-65.238,1396.132
			c-6.042,2.589-31.937-17.264-40.569-28.485c-8.631-11.221-9.496-52.653-9.496-59.558c0-6.905,10.359-10.358,12.948-2.589
			S-66.965,1361.605-65.238,1396.132z"/>
		
			<path id="path5887-8-3" sodipodi:nodetypes="cc" inkscape:connector-curvature="0" fill="none" stroke="#47474A" stroke-width="8" stroke-linecap="round" d="
			M23.665,1372.826c0,0-54.378,12.947-77.682,23.305"/>
		<path id="path5863-7-6" sodipodi:nodetypes="ccccccc" inkscape:connector-curvature="0" fill="#5C5C60" d="M-81.473,1517.404
			c2.995-20.219,7.092-88.587,7.092-88.587s-37.009-3.515-51.933-3.32c-14.924,0.194-51.934,3.709-51.934,3.709
			s4.098,68.37,7.093,88.587c0,0,29.168,5.99,44.841,4.297C-110.643,1523.394-81.473,1517.404-81.473,1517.404z"/>
		
			<path id="path5865-2" sodipodi:nodetypes="cc" inkscape:connector-curvature="0" fill="none" stroke="#373739" stroke-width="5" stroke-linecap="round" d="
			M-156.575,1447.593l2.995,45.677"/>
		
			<path id="path5867-7" sodipodi:nodetypes="cc" inkscape:connector-curvature="0" fill="none" stroke="#373739" stroke-width="5" stroke-linecap="round" d="
			M-139.353,1449.839l-0.749,48.673"/>
		
			<path id="path5865-2-2" sodipodi:nodetypes="cc" inkscape:connector-curvature="0" fill="none" stroke="#373739" stroke-width="5" stroke-linecap="round" d="
			M-95.347,1447.203l-2.995,45.677"/>
		
			<path id="path5867-7-1" sodipodi:nodetypes="cc" inkscape:connector-curvature="0" fill="none" stroke="#373739" stroke-width="5" stroke-linecap="round" d="
			M-112.568,1449.449l0.748,48.673"/>
	</g>
	<path id="path5909" sodipodi:nodetypes="zsccccsz" inkscape:connector-curvature="0" fill="#242426" d="M253.859,617.999
		c-1.783,0.016-26.455-1.061-39.958,14.824C200.4,648.708,226.213,750.57,226.213,750.57l24.919-13.205v-0.029l24.197,13.127
		c0,0,26.409-101.962,12.906-117.847C276.421,618.717,255.643,617.983,253.859,617.999L253.859,617.999z"/>
	<path id="path4802" sodipodi:nodetypes="csssssssssc" inkscape:connector-curvature="0" fill="#131313" d="M82.087,631.678
		c30.279-6.308,86.21-11.354,95.042-10.934c8.831,0.42,49.624-0.42,63.922,37.007c14.298,37.428,6.308,74.015,4.206,80.323
		c-2.103,6.308-15.98,15.98-24.812,23.971s-62.66,46.26-70.23,52.146c-7.57,5.888-17.663,7.149-26.494,7.149
		c-8.831,0-41.213-12.616-47.521-21.447c-6.308-8.832-46.688-63.84-52.567-87.893c-5.986-24.491,4.626-44.157,7.99-49.203
		C34.987,657.752,53.07,637.987,82.087,631.678L82.087,631.678z"/>
	<path id="path4804" sodipodi:nodetypes="cssssssssc" inkscape:connector-curvature="0" fill="#C800C8" d="M61.481,694.76
		c0-27.756,22.709-36.167,34.064-39.11s56.797-12.021,79.061-12.616c7.988-0.213,42.475,12.616,45.839,29.017
		s3.785,32.802,1.262,38.69c-2.523,5.887-1.411,17.507-14.298,26.914c-19.781,14.44-56.352,37.849-63.501,43.316
		c-7.149,5.467-33.643,5.467-48.362-17.663c-14.719-23.13-22.441-33.316-31.33-49.834C61.227,707.922,61.481,694.76,61.481,694.76
		L61.481,694.76z"/>
	<path id="path4806" inkscape:connector-curvature="0" fill="#DC00DC" d="M76.483,697.873c-2.103-17.242,0-28.176,25.653-34.484
		c25.653-6.308,66.866-13.458,76.959-10.934c10.093,2.523,26.494,9.252,28.176,24.812c1.683,15.56,11.775,30.7-0.841,41.634
		c-12.616,10.934-67.286,42.054-74.015,47.1c-6.729,5.046-20.606,0-28.176-8.831C96.669,748.338,79.847,733.619,76.483,697.873
		L76.483,697.873z"/>
	<path id="path4808" inkscape:connector-curvature="0" fill="#FF00FF" d="M90.781,699.135c-2.944-10.093,2.103-18.924,18.924-21.447
		c16.822-2.523,60.137-13.458,67.707-8.411c7.57,5.047,12.195,10.514,14.298,20.186c2.103,9.672-1.262,20.606-7.57,25.653
		c-6.308,5.047-41.633,29.018-50.465,32.802c-8.831,3.785-20.186,2.103-29.017-13.458C95.828,718.9,91.623,707.546,90.781,699.135z"
		/>
	<path id="path5897" sodipodi:nodetypes="cssc" inkscape:connector-curvature="0" fill="#272728" d="M151.951,630.441
		c31.338-15.847,96.968,10.255,84.19,50.038c-1.321,4.113-23.712-37.272-33.358-42.095
		C195.354,634.669,118.536,633.225,151.951,630.441L151.951,630.441z"/>
	
		<path id="path5899" sodipodi:nodetypes="cssssc" inkscape:connector-curvature="0" fill="#272728" stroke="#000000" stroke-width="0.7942" d="
		M66.966,762.286c-1.055-3.986-9.616-15.006-5.56-19.062c6.418-6.418,40.919,39.775,46.861,43.684
		c32.702,21.514,51.028-8.541,58.774-0.794c13.833,13.833-52.945,30.452-61.157,22.239
		C92.671,795.139,77.743,777.034,66.966,762.286z"/>
	<path id="path4802-4" sodipodi:nodetypes="csssssssssc" inkscape:connector-curvature="0" fill="#131313" d="M420.05,631.471
		c-30.278-6.308-86.21-11.355-95.042-10.934c-8.831,0.42-49.623-0.421-63.922,37.007c-14.298,37.428-6.308,74.015-4.205,80.323
		c2.103,6.309,15.98,15.98,24.812,23.971s62.661,46.26,70.229,52.147c7.57,5.887,17.664,7.148,26.494,7.148
		c8.832,0,41.213-12.615,47.521-21.447c6.308-8.831,46.688-63.84,52.567-87.893c5.985-24.491-4.626-44.157-7.99-49.203
		S449.067,637.779,420.05,631.471z"/>
	<path id="path4804-6" sodipodi:nodetypes="cssssssssc" inkscape:connector-curvature="0" fill="#C800C8" d="M440.656,694.552
		c0-27.755-22.709-36.166-34.063-39.11s-56.798-12.021-79.062-12.616c-7.987-0.213-42.475,12.616-45.839,29.017
		s-3.784,32.802-1.261,38.689c2.522,5.888,1.41,17.507,14.298,26.915c19.78,14.44,56.353,37.849,63.501,43.315
		c7.149,5.467,33.644,5.467,48.362-17.663c14.719-23.129,22.441-33.315,31.33-49.834
		C440.91,707.714,440.656,694.552,440.656,694.552z"/>
	<path id="path4806-9" inkscape:connector-curvature="0" fill="#DC00DC" d="M425.654,697.665c2.103-17.242,0-28.176-25.652-34.484
		c-25.653-6.309-66.866-13.458-76.959-10.934c-10.094,2.523-26.494,9.251-28.176,24.812c-1.683,15.56-11.775,30.7,0.841,41.633
		c12.616,10.934,67.286,42.054,74.015,47.101s20.606,0,28.176-8.831C405.469,748.13,422.29,733.411,425.654,697.665L425.654,697.665
		z"/>
	<path id="path4808-5" inkscape:connector-curvature="0" fill="#FF00FF" d="M411.356,698.927
		c2.943-10.093-2.104-18.924-18.925-21.448c-16.821-2.523-60.137-13.457-67.707-8.411c-7.569,5.046-12.195,10.514-14.298,20.186
		s1.262,20.606,7.569,25.653c6.309,5.046,41.634,29.017,50.465,32.802c8.832,3.785,20.186,2.103,29.018-13.458
		C406.31,718.692,410.515,707.338,411.356,698.927z"/>
	<path id="path5897-5" sodipodi:nodetypes="cssc" inkscape:connector-curvature="0" fill="#272728" d="M350.188,630.233
		c-31.34-15.847-96.969,10.255-84.191,50.038c1.321,4.113,23.713-37.272,33.359-42.095
		C306.783,634.461,383.602,633.017,350.188,630.233L350.188,630.233z"/>
	
		<path id="path5899-4" sodipodi:nodetypes="cssssc" inkscape:connector-curvature="0" fill="#272728" stroke="#000000" stroke-width="0.7942" d="
		M435.172,762.078c1.055-3.986,9.615-15.006,5.56-19.062c-6.418-6.418-40.919,39.775-46.86,43.684
		c-32.703,21.514-51.029-8.54-58.775-0.794c-13.833,13.833,52.945,30.451,61.157,22.239
		C409.467,794.931,424.395,776.827,435.172,762.078L435.172,762.078z"/>
</g>
</svg>
