<?xml version="1.0" encoding="utf-8"?>
<!-- Generator: Adobe Illustrator 16.0.0, SVG Export Plug-In . SVG Version: 6.00 Build 0)  -->
<!DOCTYPE svg PUBLIC "-//W3C//DTD SVG 1.1//EN" "http://www.w3.org/Graphics/SVG/1.1/DTD/svg11.dtd">
<svg version="1.1"
	 id="svg12211" xmlns:dc="http://purl.org/dc/elements/1.1/" xmlns:cc="http://creativecommons.org/ns#" xmlns:rdf="http://www.w3.org/1999/02/22-rdf-syntax-ns#" xmlns:svg="http://www.w3.org/2000/svg" xmlns:sodipodi="http://sodipodi.sourceforge.net/DTD/sodipodi-0.dtd" xmlns:inkscape="http://www.inkscape.org/namespaces/inkscape" inkscape:export-ydpi="72.021774" inkscape:export-xdpi="72.021774" inkscape:export-filename="C:\Users\Zealotlee\Dropbox\Small Projects\Steves Fuzzballs\fuschia-fuzzle.png" sodipodi:docname="acc-face-mustache.svg" inkscape:version="0.91 r13725"
	 xmlns="http://www.w3.org/2000/svg" xmlns:xlink="http://www.w3.org/1999/xlink" x="0px" y="0px" width="412.256px"
	 height="166.365px" viewBox="56.698 172.957 412.256 166.365" enable-background="new 56.698 172.957 412.256 166.365"
	 xml:space="preserve">
<sodipodi:namedview  showguides="true" showgrid="false" inkscape:cy="193.02625" inkscape:cx="369.48506" inkscape:zoom="0.71220416" borderopacity="1.0" bordercolor="#666666" pagecolor="#ffffff" id="base" inkscape:window-maximized="1" inkscape:window-y="-8" inkscape:window-x="-8" inkscape:window-height="988" inkscape:window-width="1680" inkscape:pageshadow="2" inkscape:current-layer="layer1" inkscape:pageopacity="0.0" inkscape:document-units="px">
	</sodipodi:namedview>
<path fill="#DC00DC" stroke="#C800C8" stroke-width="5" stroke-miterlimit="10" d="M72.13,185.94c0,0,105.911-9.296,192.562-10.398
	c86.649-1.102,158.463,8.737,181.056,13.567c0,0,16.593,20.548,19.593,30.189c3,9.642-0.178,9.142-8.089,13.642
	s-11.597,9.497-11.504,17.248c0.093,7.751,3.593,11.751-2.907,18.751s-7.5,11-7.5,17s-1,6-11,12s-12.5,6.5-14,13.501
	c-1.5,7-7.5,1.984-11,12.491c-3.5,10.509-12.5,9.009-11.5,11.509c-25.011,3.706-77-1-126.5-3s-111-12.516-126-8.509
	c-15,4.009-19-1.991-18-8.491s3-8-2.5-11.501c-5.5-3.5-19.5-9-19.5-15s-4.999-17.217-8.491-17.207
	c-3.492,0.009-14.509-10.895-12.009-15.593c2.5-4.699-8.5-14.699-8.5-26.199s0.5-14.915,3-18.457S43.42,207.94,72.13,185.94z"/>
<path fill="#C800C8" d="M466.962,224.681c-33.099-1.321-67.52-3.135-100.321,0.316c-11.125,1.17-21.871,3.155-33.271,3.582
	c-8.312,0.311-16.638-0.063-24.907-0.484c19.645,1.993,40.159,1.502,60.049,2.476c13.159,0.644,26.104,2.114,39.142,3.194
	c12.505,1.036,26.611,9.977,39.758,8.454c0.101-4.186,2.133-7.524,9.839-9.278C461.686,231.931,466.846,227.6,466.962,224.681"/>
<path fill="none" stroke="#C800C8" stroke-width="5" stroke-linecap="round" stroke-miterlimit="10" d="M463.674,224.107
	c-14.52,1.731-28.774-0.771-43.314-0.586c-14.046,0.179-27.957,0.734-41.969,1.702c-17.043,1.178-33.855-1.799-50.277,3.755
	c-14.366,4.859-32.649,1.455-47.362,0.782c-27.127-1.241-54.285-2.526-81.446-1.782c-5.319,0.146-10.782,0.656-16.042-0.395
	c-5.353-1.07-10.534-3.234-15.724-4.88c-11.438-3.627-23.156-6.98-35.2-7.596"/>
<path fill="none" stroke="#C800C8" stroke-width="5" stroke-linecap="round" stroke-miterlimit="10" d="M88.674,271.773
	c21.223,7.768,41.468,14.256,64.276,12.817c20.806-1.313,41.216-4.61,61.882-7.04c20.178-2.372,39.264,3.608,59.396,3.34
	c20.849-0.277,42.451-4.666,63.061,0.033c9.48,2.162,18.432,5.859,27.639,8.889c4.11,1.352,8.486,2.842,12.746,1.297"/>
<path fill="none" stroke="#C800C8" stroke-width="5" stroke-linecap="round" stroke-miterlimit="10" d="M70.341,211.107
	c5.64-2.89,13.571-3.984,19.799-5.321c6.977-1.497,13.878-2.932,21.035-3.009c11.8-0.128,22.619,1.266,33.832-3.003"/>
<path fill="none" stroke="#C800C8" stroke-width="5" stroke-linecap="round" stroke-miterlimit="10" d="M444.341,269.107
	c-3.664,4.189-5.61,4.713-11.412,4.636c-5.385-0.072-11.255,1.225-16.534,0.604c-11.769-1.385-22.588-8.701-34.146-11.131
	c-14.378-3.021-28.577-1.986-43.078-2.736c-11.749-0.607-23.333-5.019-35.248-2.854c-5.326,0.968-10.156,2.771-15.65,2.863
	c-5.102,0.084-10.168-0.817-15.264-0.717"/>
<path fill="none" stroke="#C800C8" stroke-width="5" stroke-linecap="round" stroke-miterlimit="10" d="M114.674,303.107
	c17.854,6.532,38.154,7.465,56.945,6.371c25.296-1.471,50.802-4.32,76.129-4.471c10.275-0.061,20.441,1.505,30.705,1.755
	c11.138,0.272,22.287-0.2,33.426-0.237c13.078-0.044,26.128-0.678,39.129,0.915"/>
<path fill="#C800C8" d="M117.425,319.35c0,0,48.928-3.908,87.255-4.575c38.327-0.667,24.348-7.83,42.994-8.286
	c18.646-0.456-105.333,6.381-126.333,0C118.518,309.147,117.425,319.35,117.425,319.35z"/>
<path fill="#C800C8" d="M97.674,291.764c0,0,26.333,0.657,53,0c26.667-0.656,29.07-8.332,52.035-9.994s41.873,0.004,55.419,1.338
	c13.546,1.332-4.568-3.767-13.997-4.725c-9.429-0.958-67.703,2.618-78.413,5.172c-10.71,2.553-57.159,2.231-73.966-10.662
	C95.341,283.773,97.674,291.764,97.674,291.764z"/>
<path fill="#C800C8" d="M434.497,290.792c0,0-9.823-2.618-25.156-8.317c-15.333-5.701-11.333-15.035-31.667-14.701
	c-20.333,0.334-21.115,5.785-38.667-1.998c-17.55-7.783-20.739-5.871,4.671-5.113c25.41,0.756,41.118,3.316,58.558,9.715
	c17.438,6.398,33.102,6.752,36.152,4.141C435.341,285.939,434.497,290.792,434.497,290.792z"/>
<path fill="#C800C8" d="M66.371,225.768c0,0,22.97-13.828,34.97-16.328s15.512-1.412,20.833-4
	c5.322-2.588-47.667-0.833-51.833,4.833C66.174,215.94,66.371,225.768,66.371,225.768z"/>
<path fill="#FF00FF" d="M444.354,194.419c-13.358-4.45-27.604-3.294-41.438-2.355c-14.287,0.969-28.558,2.123-42.815,3.461
	c-18.295,1.718-36.869,3.752-55.258,2.404c-10.516-0.771-20.654-3.416-31.027-5.096c-9.321-1.51-18.625-1.803-28.043-1.421
	c13.264,3.885,26.573,5.49,40.37,5.487c15.863-0.003,31.691,5.014,46.688,9.702c8.348,2.61,16.67,5.754,25.391,6.868
	c7.219,0.922,14.525,0.469,21.77,0.189c15.881-0.613,30.591-3.659,45.981-7.712c4.907-1.292,9.791-2.673,14.704-3.939
	c1.678-0.432,4.358-1.622,6.148-1.222c1.777,0.397,3.47,2.364,5.146,3.201c0.452-4.056-4.594-7.605-6.339-10.851
	c-0.311-0.078-0.647,0.031-0.942-0.049"/>
<path fill="#FF00FF" d="M68.674,228.107c-1.188,6.257-0.605,11.181,5.889,13.772c9.426,3.76,21.256,2.455,31.168,2.534
	c26.14,0.21,50.585,7.747,76.204,11.903c14.144,2.293,28.306,3.261,42.62,3.473c-9.519-4.66-18.091-5.14-28.344-6.633
	c-12.217-1.779-23.785-7.021-35.927-9.419c-15.16-2.995-30.103-7.832-45.278-10.451c-7.944-1.371-14.871,3.768-22.381,1.991
	c-7.368-1.743-15.015-10.421-22.95-6.837"/>
</svg>
