<svg xmlns="http://www.w3.org/2000/svg" width="244.87" height="120.57" viewBox="4.517 64.188 244.873 120.566" style="enable-background:new 4.517 64.188 244.873 120.566"><g transform="matrix(1.184 0 0 1.184-38.945 464.66)" style="fill:#fff;stroke:#ebf6ff;stroke-width:6.072"><path d="m132.36-301.21c12.506.266 27.556 2.916 37.09 9.275 15.954-1.451 32.66 2.073 42.824 12.238 46.22 2.289 31.16 44.43-8.04 26.14-.963 7.89-12.674 4.667-17.433 3.478-4.95 3.041-11.29 2.571-14.334.745-14.419 15.588-30.06 10.448-42.982 5.603-6.01 7.953-22.13-2.473-28.392-5.603-15.701 7.662-34.19 5.946-46.845-.805-26.485-4.056-11.238-24.621-4.323-30.16-13.302-60.62 69.988-76.79 82.43-20.909z"/><g style="stroke-linecap:round"><path d="m138.56-300.7c4.756 40.43-62.42 51.718-79.08 18.401-20.609-41.22 29.378-64.879 57.62-36.632 3.815 3.815 6.072 12.877 6.072 18.384 0 36.02-57.818 25.534-48.3-3.02 9.08-27.24 35.09 5.744 11.538 3.419 2.983 21.972 35.06 4.586 24.442-11.337-23.07-34.606-67.43 9.343-36.768 34.24 27.13 22.03 78.1-8.498 50.27-40.841"/><g style="stroke-linejoin:round"><path d="m135.75-300.12c28.21-1.893 46.22 35.625 22.875 39.874-8.798 1.602-19.05-11.722-7.25-19.999 2.1-1.473 4.073-.716 6.125.749 2.536 1.812-.343 4.248-.75 9.376 7.02-1.196 13.188-13.355 4-18.376-16.716-9.135-27.401 14.699-22.375 24.751 8.629 17.26 33.02 18.653 39.875.875 3.237-8.398-1.146-19.846-1.875-21-2.563-4.059-7.217-7.875-5.75-7.875 17.643 0 12.488 18.662 7.75 32.875-3.576 10.728-20.784 20.387-36.12 16.625-7.287-1.786-16.441-7.335-16.5-29.25"/><path d="m185.65-283.75c40.836 2.088 25.834 34.708-.743 34.503 23.785-12.639 11.365-18.01.657-20.76"/><path d="m214.44-275.47c21.09 8.345 18.347 21.724.747 23.856 8-9.97 2.729-13.144-2.932-13.221"/><path d="m50.25-280.25c4.359 23.436 30.01 32.12 50.25 30"/><path d="m45.5-272.25c-1.744 10.05 9.936 20.455 15.25 24.25"/><path d="m101.25-250.5c-3.821-2.226-7.481-7.923-8-9.999"/><path d="m126.75-249.5c-10.1-1.647-17.09-4.437-21.25-11.25"/><path d="m124.5-256.75c-4.898-1.342-5.67-3.788-7.25-8"/></g></g></g></svg>