<?xml version="1.0" encoding="UTF-8" standalone="no"?>
<!-- Created with Inkscape (http://www.inkscape.org/) -->

<svg
   xmlns:dc="http://purl.org/dc/elements/1.1/"
   xmlns:cc="http://creativecommons.org/ns#"
   xmlns:rdf="http://www.w3.org/1999/02/22-rdf-syntax-ns#"
   xmlns:svg="http://www.w3.org/2000/svg"
   xmlns="http://www.w3.org/2000/svg"
   xmlns:sodipodi="http://sodipodi.sourceforge.net/DTD/sodipodi-0.dtd"
   xmlns:inkscape="http://www.inkscape.org/namespaces/inkscape"
   width="256"
   height="256"
   id="svg28860"
   version="1.1"
   inkscape:version="0.48.4 r9939"
   sodipodi:docname="item-icon-jetpack.svg">
  <defs
     id="defs28862" />
  <sodipodi:namedview
     id="base"
     pagecolor="#ffffff"
     bordercolor="#666666"
     borderopacity="1.0"
     inkscape:pageopacity="0.0"
     inkscape:pageshadow="2"
     inkscape:zoom="1.1224609"
     inkscape:cx="285.91004"
     inkscape:cy="126.22238"
     inkscape:document-units="px"
     inkscape:current-layer="layer1"
     showgrid="false"
     inkscape:window-width="1680"
     inkscape:window-height="988"
     inkscape:window-x="-8"
     inkscape:window-y="-8"
     inkscape:window-maximized="1" />
  <metadata
     id="metadata28865">
    <rdf:RDF>
      <cc:Work
         rdf:about="">
        <dc:format>image/svg+xml</dc:format>
        <dc:type
           rdf:resource="http://purl.org/dc/dcmitype/StillImage" />
        <dc:title></dc:title>
      </cc:Work>
    </rdf:RDF>
  </metadata>
  <g
     inkscape:label="Layer 1"
     inkscape:groupmode="layer"
     id="layer1"
     transform="translate(0,-796.36218)">
    <g
       transform="matrix(0.7989765,0,0,0.7989765,-349.75267,565.27525)"
       id="g30567">
      <path
         sodipodi:nodetypes="cccccccccccccccccccccccccccccccccccccccccccc"
         inkscape:connector-curvature="0"
         id="path30490-8-3"
         d="m 658.21875,294.53125 -15.6875,9.28125 -44,26 -2.1875,1.28125 -0.65625,2.40625 -30,107 -4.96875,17.75 14.71875,-11.0625 12.59375,-9.4375 -14.9375,68.625 -3.875,17.78125 13.96875,-11.65625 2.90625,-2.4375 c -4.66633,17.51174 -14.15999,61.98821 -19.6827,93.16309 17.10471,-35.29315 68.5577,-151.10059 68.5577,-151.10059 l 9.21875,-21.96875 -18.8125,14.59375 -4,3.09375 25.28125,-78.21875 5.875,-18.25 -15.5,11.25 -8.125,5.875 22.59375,-57 z m -25.0625,29.3125 -23.78125,60.0625 -7.90625,19.96875 17.40625,-12.625 10,-7.25 -25.625,79.28125 -6.21875,19.25 16,-12.40625 1.09375,-0.84375 c -2.18213,5.18207 -7.40211,17.46131 -11.4375,27.03125 0.0299,-0.11052 0.53125,-1.96875 0.53125,-1.96875 l 5.1875,-19.125 -15.21875,12.6875 -4,3.34375 14.625,-67.21875 3.5625,-16.40625 -13.4375,10.0625 -11.25,8.4375 24.34375,-86.84375 z"
         style="font-size:medium;font-style:normal;font-variant:normal;font-weight:normal;font-stretch:normal;text-indent:0;text-align:start;text-decoration:none;line-height:normal;letter-spacing:normal;word-spacing:normal;text-transform:none;direction:ltr;block-progression:tb;writing-mode:lr-tb;text-anchor:start;baseline-shift:baseline;color:#000000;fill:#afc6e9;fill-opacity:1;fill-rule:nonzero;stroke:none;stroke-width:12.5;marker:none;visibility:visible;display:inline;overflow:visible;enable-background:accumulate;font-family:Sans;-inkscape-font-specification:Sans" />
      <path
         sodipodi:nodetypes="cccccccccccc"
         inkscape:connector-curvature="0"
         id="path30490"
         d="m 601,335.36218 -30,107 26,-19.5 -18.5,85 18,-15 -21.5,83.5 53.5,-126.5 -20,15.5 31.5,-97.5 -25.5,18.5 30.5,-77 z"
         style="fill:#fcfdff;fill-opacity:1;stroke:#d5e5ff;stroke-width:2.5;stroke-linecap:butt;stroke-linejoin:miter;stroke-miterlimit:4;stroke-opacity:1;stroke-dasharray:none" />
    </g>
  </g>
</svg>
