<svg xmlns="http://www.w3.org/2000/svg" width="61.759" height="64.783" viewBox="0 0 61.759 64.783" style="enable-background:new 0 0 61.759 64.783"><defs><linearGradient id="0" gradientUnits="userSpaceOnUse" x1="-466.31" y1="-796.21" x2="-429" y2="-841.58"><stop offset="0" style="stop-color:#f3ab1d"/><stop offset=".176" style="stop-color:#f8ef65"/><stop offset=".322" style="stop-color:#fced32"/><stop offset=".469" style="stop-color:#ffe300"/><stop offset=".596" style="stop-color:#ffca23"/><stop offset="1" style="stop-color:#feea45"/></linearGradient><linearGradient id="1" gradientUnits="userSpaceOnUse" x1="-443.43" y1="-825.85" x2="-470.13" y2="-789.24"><stop offset="0" style="stop-color:#ffe400"/><stop offset=".11" style="stop-color:#febc25"/><stop offset=".634" style="stop-color:#efc11a"/><stop offset=".68" style="stop-color:#ffe400"/><stop offset=".821" style="stop-color:#fed51e"/><stop offset=".887" style="stop-color:#f1bb1b"/><stop offset="1" style="stop-color:#ffd10f"/></linearGradient></defs><g transform="matrix(1.592 0 0 1.592 755.3 1320.19)"><path d="m-436.74-809.91c0 10.113-8.199 18.313-18.312 18.313s-18.313-8.199-18.313-18.313c0-10.114 8.199-18.312 18.313-18.312s18.312 8.198 18.312 18.312" style="fill:url(#0)"/><path d="m-455.05-829.26c-10.68 0-19.366 8.686-19.366 19.366 0 10.68 8.686 19.325 19.366 19.325 10.68 0 19.366-8.645 19.366-19.325-.0001-10.68-8.686-19.366-19.366-19.366zm0 2.067c9.547 0 17.259 7.752 17.259 17.3 0 9.547-7.712 17.259-17.259 17.259-9.548 0-17.259-7.712-17.259-17.259-.0001-9.548 7.711-17.3 17.259-17.3z" style="fill:url(#1);stroke:#dbb227;stroke-width:.1"/><g transform="matrix(.628 0 0 .628-467.24-798.65)" style="font-size:48.822;font-family:&apos;ArialMT&apos;"><text>K</text><text style="fill:none;stroke:#dbb227;stroke-width:.3">K</text></g><g style="fill:#010101;fill-opacity:.149"><path d="m-446.54-821.14h-4.861l.347-.395h4.795l-.281.396"/><path d="m-464.13-821.54h4.243v11.225l-.287.354v-11.159h-3.955v-.42z"/><path d="m-454.13-811.36l-.008.398c0 0 4.891 7.406 5.234 7.906.344.5 1.133.875 1.445.875.312 0 .797.055 1.11-.195v-.188c0 0-.352.156-.875.156-.524 0-1.086-.294-1.454-.711-.405-.46-5.452-8.241-5.452-8.241"/></g><path d="m-458.74-826.22c0 0 6.585-1.282 10.12.663 3.536 1.945 6.939 4.95 7.337 6.099.398 1.149 3.314 5.348 3.138 8.927-.177 3.58-.619 5.391-1.016 6.143-.398.751 0-3.05 0-4.376s-1.326-7.336-1.989-8.618c-.663-1.282-3.403-5.04-7.07-6.452-3.668-1.414-3.535-2.431-9.678-2.033-6.144.398-.841-.353-.841-.353" style="fill:#fef493;fill-opacity:.649"/></g></svg>