<svg xmlns="http://www.w3.org/2000/svg" xmlns:xlink="http://www.w3.org/1999/xlink" width="360" height="270"><defs><linearGradient xlink:href="#0" id="4" gradientUnits="userSpaceOnUse" x1="1307.46" y1="-138.21" x2="1302.1" y2="169.79"/><linearGradient id="5" gradientUnits="userSpaceOnUse" x1="836.44" y1="212.77" x2="830.75" y2="645.52"><stop offset="0" style="stop-color:#00efef"/><stop offset="1" style="stop-color:#00caca"/></linearGradient><linearGradient xlink:href="#0" id="3" gradientUnits="userSpaceOnUse" x1="1051.54" y1="-144.21" x2="1051.99" y2="169.79"/><linearGradient xlink:href="#0" id="1" gradientUnits="userSpaceOnUse" x1="495.06" y1="-142.68" x2="490.56" y2="187.32"/><linearGradient id="0"><stop offset="0" style="stop-color:#d8f72b"/><stop offset="1" style="stop-color:#b5d408"/></linearGradient><linearGradient xlink:href="#0" id="2" gradientUnits="userSpaceOnUse" x1="782.01" y1="-138.31" x2="795.4" y2="187.69"/></defs><g transform="matrix(.288 0 0 .288-69.41 63.56)"><g transform="translate(-721.49-1092.05)"><g style="fill:#54530b"><path d="m1123.01 976.73c0 0 18.976-16.646 28.17-20.694 0 0-5.43 18.229-.742 22.432 0 0 24.654-17.796 38.479-21.556 0 0-7.694 9.365-4.04 16.07 0 0 26.649-2.878 39.701-10.897 0 0 3.63 4.93 2.656 11.35 0 0 21.947-8.148 37.21-10.861 0 0-9.122 9.03-3.393 11.438 0 0 15.733 5.11 45.04-10.975 0 0 .882 11.732 4.518 17.02 0 0 15.11-13.03 34.993-16.523 0 0-1.335 6.069 4.414 9.901 0 0 6.674.103 10.251 3.826 0 0-8.252 3.643-7.187 7.654 0 0 6.086 3.183 6.476 12.74 0 0-7.03 1.36-7.952 6.91 0 0 6.1 4.19 6.48 12.992 0 0-8.551.377-12.554 1.944 0 0 3.344 4.984 3.727 14.04 0 0-6.99 3.876-7.22 5.389 0 0 1.816 3.749-2.596 11.865 0 0-7.872-4.919-14.418-5.075 0 0 3.581 3.974 2.866 6.753 0 0-14.936-6.075-14.925-5.32 0 0 2.315 3.489 3.129 7.504 0 0-9.07-.623-17.2-6.04 0 0-1.225 2.283-.416 6.05 0 0-7.348-3.416-9.922-7.405 0 0-3.686 6.093-1.364 10.09 0 0-11.657-5.619-12.722-9.63 0 0-8.775.973-8.896 4.89 0 0-9.612-.217-11.474-5.883 0 0-4.527 6.828-3.736 12.332 0 0-9.849-4.306-14.04-11.185 0 0 4.046 9.02 4.123 14.354 0 0-2.174-2.638-4.855-3.488 0 0 1.475 3.538-1.588 13.191 0 0-3.414-2.264-4.819-.998 0 0 2.408 6.549 1.97 13.14 0 0-4.924 4.805-1.567 14.408 0 0 15.854 6.204 27.903-5.874 0 0 .751 7.389 2.746 11.864 0 0 19.289-.923 25.27-9.696 0 0 4.275 6.372 4.03 11.523 0 0 15.364-5.37 21.377-12.214 0 0 .415 6.428 4.02 11.202 0 0 11.593.797 16.01-5.058 0 0-6.512 16.823-11.602 20.758 0 0 8.433 4.703 11.924 1.436 0 0-12.954 16.273-18.366 20.21 0 0 11.649 4.657 15.14 1.067 0 0-8.162 13.952-14.534 18.227 0 0 4.611 7.332 9.393 4.367 0 0-16.17 16.642-24.19 17.724 0 0-15.975 7.631-28.309.089 0 0-7.696 1.72-5.05 6.508 0 0-9.351-1.473-15.248-8.787 0 0-9.08-4.694-7.654 4.615 0 0-10.954-1.128-12.465 5.65 0 0 6.857 6.978 10.996 4.02 0 0-7.225 12.01-14.231 16.935 0 0 5.822 2.168 10.283-.793 0 0-3.617 16.781-11.574 22.688 0 0 8.08 2.456 14.721-5.361 0 0-3.277 18.06-14.758 24.986 0 0 2.974 5.426 8.698.839 0 0-5.556 16.17-12.879 21.42 0 0-13.551 19.499-22.19 22.842 0 0-4.61-7.333-5.939-10.209 0 0-5.211 17.77-8.05 21.672 0 0-8.214-11.784-17.877-12.609 0 0-4.68 10.04-7.505 14.908 0 0-8.437-5.03-8.54-12.1 0 0-12.446 6.937-13.639 13.388 0 0-11.37-7.556-10.47-12.07 0 0-11.793 7.571-11.751 10.465 0 0-2.447-13.476 1.37-16.427 0 0-5.561-6.353-7.771-3.426 0 0 4.288-14.861 9.691-19.443 0 0-11.602-1.44-15.411 2.154 0 0 10.06-15.91 15.187-17.593 0 0-7.785-4.391-10.978-2.736 0 0 9.998-20.413 16.08-22.431 0 0-9.07-4.372-13.901-4.624 0 0 11.989-16.259 18.394-18.283 0 0-8.097-3.743-12.269-3.039 0 0 7.5-15.229 14.189-19.83 0 0-25.841 8.898-35.11 2.896-2.521-1.632 12.702-15.628 10.128-17.654 0 0-18.669-.694-25.601-12.819 0 0 17.905-7.659 23.23-17.709 0 0-5.803-.881-9.756-7.257 0 0 22.408-7.725 26.16-14.857 0 0-14.488-.755-18.08-4.563 0 0 23.34-9.99 27.11-16.16 0 0-16.15-4.591-20.06-7.752 0 0 17.634-4.116 19.778-11.547 0 0-20.641-3.561-23.578-6.414 0 0 20.417-11.878 25.15-18.381 0 0-22.79 3.548-31.521.457 0 0 3.114-7.123-3.445-15.714 0 0-13.206-1.095-17.15-7.15 0 0 25.01-5.51 27.484-12.624 0 0-15.63-12.963-16.02-17.783 0 0 24.571 8.329 27.726 4.102 0 0-11.882-20.739-12.438-36.816 0 0 13.13 8.996 19.15 7.05"/><path d="m1497.9 1310.14c11.523 5.946 24.81 7.954 24.81 7.954-2.107-4.095 6.02-9.917 6.02-9.917 24.98 4.405 36.03-7.761 36.03-7.761-2.272.097-3.551-8.499-3.551-8.499 6.876 1.072 27.13-4.348 27.13-4.348-5.116-2.513.267-15.04.267-15.04 13.161-1.019 26.395-21.62 26.395-21.62-4.526.649-12.719-9.928-12.719-9.928 9.389-4.045 25.12-30.22 25.12-30.22-6.305 1.636-16.219-6.591-16.219-6.591 14.59-10.186 25.1-41.14 25.1-41.14-4.351 4.74-12.174 2.798-12.174 2.798 5.675-5.707 10.242-37.32 10.242-37.32-2.117 3.733-12.08 5.07-12.08 5.07 5.636-6.616 6.482-29.419 6.482-29.419-2.591 3.298-10.123 8.174-10.123 8.174 8.04-3.532 16.554-49.43 16.554-49.43-1.208 3.694-10.356 2.72-10.356 2.72 8.344-7.187 15.591-29.353 15.591-29.353-.259 4.564-12.233 1.434-12.233 1.434 5.656-6.161 18.917-36.781 18.917-36.781-.773 3.22-8.5 3.551-8.5 3.551-4.083-10.298-1.835-32.25-1.835-32.25-4.071.63-10.857 12.303-10.857 12.303-2.448-3.993-3.485-17.609-3.485-17.609-4.448 2.467-19.531 11.764-19.531 11.764-3.298-2.591-6.888-12-6.888-12-8.973 3.116-19.578 21.328-19.578 21.328-.707-5.889-12.459-14.493-12.459-14.493-.838 12.33-14.201 19.276-14.201 19.276-.234-5.454-14.537-9.85-14.537-9.85 5.921 10.675 4.99 42.13 4.99 42.13-2.824-2.156-13.694-.78-13.694-.78 5.765 7.04 14.15 32.634 14.15 32.634-2.409-3.084-9.7-3.228-9.7-3.228 5.726 6.13 9.05 30.576 9.05 30.576-2.071-5.831-14.622-1.196-14.622-1.196 5.272 6.149 9.309 26.01 9.309 26.01-3.396-4.863-11.518-3.15-11.518-3.15 6.239 7.474 13.178 31.31 13.178 31.31-3.038-7.155-12.33-.838-12.33-.838 4.305 4.824 11.9 22.713 11.9 22.713-2.506-5.357-15.1-1.631-15.1-1.631 4.363 6.188 8.237 32.887 8.237 32.887-1.123-4.961-9.362-5.974-9.362-5.974 5.428 9.785.992 23.18.992 23.18-3.435-5.773-9.622-1.41-9.622-1.41 2.661 8.993-11.389 10.505-11.389 10.505-7.35-1.507-8.978-18.284-8.978-18.284-8.825 17.225-15.181 7.02-15.181 7.02-2.324-11.739 5.04-31.18 5.04-31.18-6.363.273-10.811 2.739-10.811 2.739-2.168-8.103 6.898-30.347 6.898-30.347-1.857-.831-9.447 2.681-9.447 2.681-1.298-9.05 13.436-26.529 13.436-26.529-1.838-.377-10.869 1.376-10.869 1.376.072-19.583 17.261-43.54 17.261-43.54-4.526.649-12.59 3.726-12.59 3.726-.467-10.908 10.747-25.503 10.747-25.503-4.428 2.921-10.811 2.739-10.811 2.739.067-9.109 14.585-31.587 14.585-31.587-4.03 1.538-12.61 3.271-12.61 3.271 1.332-11.44 12.864-29.24 12.864-29.24-2.785-1.247-18.12 2.141-18.12 2.141-.863-9.525 12.429-28.763 12.429-28.763-5.493-.676-10.317 3.629-10.317 3.629-1.123-4.961 3.825-17.01 3.825-17.01-11.285 2.304-33.03 19.441-33.03 19.441 0 0-3.766-8.453-3.499-20.808 0 0-17.762 11.616-18.993 17.418 0 0 .843-14.04-7.816-17.946 0 0-4.416 9.05-7.933 11.336 0 0-14.193-10.607-18.402-13.462 0 0-2.25 13.468-5.04 17.227 0 0-5.716-12.233-9.714-13.224 0 0 .278 22.07-4.709 31.957 0 0-7.666-1.019-8.148-4.296 0 0 10.472 31.682 15.554 38.32 0 0-12.204 2.048-12.06-2.521 0 0 5.238 22.725 12.907 30.628 0 0-9.199.156-10.07-3.634 0 0 4.374 46.47 12.07 50.711 0 0-7.07-5.529-9.352-9.05 0 0-1.195 22.787 3.828 29.88 0 0-9.801-2.221-11.576-6.129 0 0 1.724 31.895 6.867 38.09 0 0-7.966 1.235-11.876-3.874 0 0 7.706 31.773 21.328 43.22 0 0-10.609 7.308-16.743 5.116 0 0 13.326 27.472 22.316 32.34 0 0-9.105 9.803-13.555 8.752 0 0 11.34 21.701 24.358 23.891 0 0 4.243 12.955-1.077 15 0 0 19.693 7.208 26.637 6.755 0 0-2.041 8.448-4.296 8.148 0 0 12.531 1.656 16.92-1.108 0 0 1.322 8.315 4.113 13.347 0 0 11.04-5.302 17.791-5.591 0 0 6.17 8.751 14.649 11.286 0 0 9.674-7.175 14.899-5.467 0 0 8.351 7.05 14.581 9.679 0 0-2.272-7.952-.078-9.334z"/><path d="m1829.85 1165.26c0 0-4.838-2.725-7.421-1.101 0 0 21.413-24.04 27.316-33.76 0 0-7.652 1.207-14.941 1.464 0 0 24.724-27.564 28-36.11 0 0-8.105 1.252-10.689 2.876 0 0 20.276-21.643 22.372-28.25 0 0-7.244.71-11.496-.702 0 0 14.755-22.02 16.992-31.834 0 0-7.02 2.974-9.508.932 0 0 20.774-21.234 22.505-26.889 0 0-5.797 1.482-8.647.39 0 0 14.479-20.16 17.223-34.14 0 0-12.73 5.361-18.208 5.441 0 0-1.296-8.558 4.048-9.996 0 0-17.835-.081-26.499 9.454 0 0-13.342-5.549-9.07-13.281 0 0-21.466 4.846-27.502 13.209 0 0-9.179-5.04-9.215-10.07 0 0-22.596 6.813-29.28 17.81 0 0-5.122-15.982 1.319-19.522 0 0-22.17 7.991-24.739 14.707 0 0-6.06-12.335-2.85-15.882 0 0-32.2 14.468-32.429 18.693 0 0-2.78-18.474.841-21.09 0 0-30.21 14.921-33.521 20.739 0 0-5.411-15.63-2.492-18.826 0 0-27.821 19.534-29.372 26.797 0 0-7.451-3.471-6.484-6.798 0 0-1.362 25.668 3.552 32.943 0 0-10.678 9.774-11.23 14.03 0 0 10.301 2.869 11.412 7.608 0 0-11.186 7.884-11.04 12.717 0 0 6.29 8.111 5.995 11.695 0 0-9.536 14.833-9.197 21.587 0 0 17.231-5.567 25.329-5.391 0 0 5.43 5.932 8.625 8.851 0 0 11.833-11.18 16.09-10.627 0 0 4.72 8.587 7.275 11.569 0 0 5.455-6.999 10.07-9.391 0 0 2.26 6.566 4.657 7.947 0 0 8.726-9.905 10.615-10.414 0 0 8.537 4.658 14.262 7.01 0 0 11.186-7.884 16.08-7.395 0 0 4.476 2.793 3.894 9.704 0 0-22.94 17.754-24.742 26.11 0 0 4.619 2.56 7.09 1.027 0 0-20.492 22.668-26.15 31.831 0 0 7.313-1.147 14.277-1.399 0 0-23.66 25.992-26.802 34.05 0 0 7.746-1.19 10.216-2.723 0 0-19.403 20.41-21.414 26.632 0 0 6.922-.678 10.983.645 0 0-14.13 20.753-16.278 30 0 0 6.713-2.81 9.09-.891 0 0-19.877 20.03-21.539 25.353 0 0 5.541-1.404 8.262-.379 0 0-13.862 19.01-16.502 32.18 0 0 12.171-5.066 17.404-5.149 0 0 1.227 8.06-3.882 9.419 0 0 17.04.053 25.332-8.939 0 0 12.741 5.207 8.651 12.495 0 0 20.516-4.593 26.295-12.477 0 0 8.764 4.736 8.791 9.468 0 0 21.599-6.446 27.996-16.812 0 0 4.872 15.04-1.287 18.387 0 0 21.19-7.555 23.657-13.884 0 0 5.771 11.609 2.701 14.953 0 0 30.782-13.67 31.01-17.649 0 0 2.632 17.394-.833 19.864 0 0 28.887-14.09 32.06-19.577 0 0 5.149 14.713 2.355 17.726 0 0 26.609-18.434 28.1-25.276 0 0 7.114 3.259 6.186 6.393 0 0 1.337-24.17-3.349-31.02 0 0 10.216-9.219 10.749-13.227 0 0-9.839-2.688-10.894-7.15 0 0 10.699-7.44 10.562-11.992 0 0-5.999-7.629-5.712-11.01 0 0 9.131-13.982 8.816-20.342 0 0-16.471 5.266-24.21 5.112 0 0-5.18-5.579-8.229-8.324 0 0-11.321 10.544-15.387 10.03 0 0-4.499-8.08-6.936-10.886 0 0-5.221 6.599-9.633 8.858 0 0-2.15-6.18-4.439-7.478 0 0-8.351 9.34-10.157 9.822 0 0 2.214-9.107-3.253-11.311 0 0-21.06 12.173-25.454 11.643 0 0 21.973-21.939 23.846-30.807"/><path d="m2095.91 1165.17c0 0-4.843-2.716-7.424-1.087 0 0 21.367-24.08 27.25-33.812 0 0-7.65 1.222-14.938 1.493 0 0 24.672-27.61 27.932-36.17 0 0-8.103 1.267-10.683 2.896 0 0 20.236-21.681 22.318-28.29 0 0-7.243.724-11.498-.68 0 0 14.713-22.04 16.932-31.866 0 0-7.02 2.987-9.506.95 0 0 20.734-21.273 22.454-26.931 0 0-5.794 1.493-8.646.407 0 0 14.441-20.19 17.16-34.17 0 0-12.72 5.385-18.2 5.476 0 0-1.312-8.556 4.03-10 0 0-17.835-.047-26.481 9.504 0 0-13.353-5.524-9.1-13.264 0 0-21.457 4.887-27.477 13.261 0 0-9.189-5.03-9.234-10.05 0 0-22.583 6.855-29.24 17.865 0 0-5.152-15.973 1.282-19.525 0 0-22.15 8.03-24.711 14.754 0 0-6.081-12.324-2.879-15.876 0 0-32.17 14.529-32.394 18.754 0 0-2.815-18.469.802-21.09 0 0-30.18 14.978-33.482 20.803 0 0-5.44-15.62-2.527-18.821 0 0-27.785 19.587-29.322 26.852 0 0-7.457-3.457-6.497-6.786 0 0-1.314 25.67 3.614 32.936 0 0-10.659 9.794-11.204 14.05 0 0 10.306 2.85 11.426 7.587 0 0-11.171 7.905-11.01 12.738 0 0 6.305 8.099 6.02 11.684 0 0-9.507 14.851-9.156 21.605 0 0 17.221-5.6 25.319-5.439 0 0 5.441 5.922 8.641 8.835 0 0 11.812-11.202 16.07-10.657 0 0 4.736 8.579 7.297 11.555 0 0 5.442-7.01 10.05-9.409 0 0 2.272 6.562 4.673 7.938 0 0 8.707-9.922 10.595-10.434 0 0 8.546 4.642 14.275 6.979 0 0 11.171-7.905 16.07-7.425 0 0 4.481 2.785 3.913 9.697 0 0-22.906 17.797-24.692 26.16 0 0 4.624 2.551 7.091 1.013 0 0-20.449 22.707-26.09 31.88 0 0 7.311-1.161 14.275-1.426 0 0-23.611 26.04-26.738 34.1 0 0 7.744-1.204 10.211-2.742 0 0-19.364 20.446-21.363 26.673 0 0 6.921-.691 10.984.624 0 0-14.09 20.78-16.222 30.03 0 0 6.708-2.823 9.08-.908 0 0-19.839 20.06-21.491 25.394 0 0 5.538-1.414 8.261-.395 0 0-13.826 19.03-16.442 32.21 0 0 12.161-5.09 17.395-5.182 0 0 1.242 8.06-3.864 9.426 0 0 17.04.028 25.315-8.987 0 0 12.751 5.183 8.674 12.478 0 0 20.508-4.632 26.27-12.526 0 0 8.772 4.72 8.808 9.451 0 0 21.587-6.487 27.964-16.865 0 0 4.9 15.04-1.252 18.389 0 0 21.17-7.595 23.631-13.929 0 0 5.793 11.598 2.729 14.948 0 0 30.757-13.728 30.977-17.707 0 0 2.664 17.389-.795 19.866 0 0 28.861-14.15 32.02-19.638 0 0 5.176 14.703 2.389 17.721 0 0 26.574-18.484 28.05-25.329 0 0 7.121 3.246 6.198 6.382 0 0 1.291-24.18-3.408-31.01 0 0 10.198-9.238 10.724-13.248 0 0-9.843-2.669-10.907-7.129 0 0 10.685-7.46 10.539-12.01 0 0-6.01-7.618-5.733-10.995 0 0 9.105-13.999 8.778-20.359 0 0-16.462 5.297-24.2 5.157 0 0-5.19-5.569-8.244-8.308 0 0-11.301 10.566-15.368 10.06 0 0-4.514-8.07-6.956-10.872 0 0-5.209 6.609-9.617 8.876 0 0-2.162-6.176-4.454-7.47 0 0-8.333 9.356-10.138 9.841 0 0 2.196-9.112-3.275-11.305 0 0-21.04 12.212-25.432 11.691 0 0 21.931-21.98 23.788-30.852"/></g><g style="fill:#045"><path d="m1028.86 1748.3c0 0 2.189 8.584-.931 12.489 0 0 14.38-7.451 19.448-13.353 0 0 6.06 9.166 4.889 11.583 0 0 14.392-9.993 16.359-16.06 0 0 6.56 6.634 6.157 9.981 0 0 12.854-12.869 13.757-19.258 0 0 5.109 6.097 4.516 8.322 0 0 10.835-16.263 11.05-20.733 0 0 14.533 7.564 14.712 10.719 0 0 3.662-22.364 3.36-26.02 0 0 16.08 8.02 15.07 13.02 0 0 3.181-22.2 5.01-29.941 0 0 11.404 13.144 11.447 15.872 0 0 6.197-23.888 5.23-30.25 0 0 8.71 2.701 9.844 5.88 7.833 14.612 6.765-15.528 3.525-23.887 0 0 9.989 7.299 10.458 9.571 0 0-.502-24.16-2.3-28.24 0 0 10.41 4.311 11.968 7.02 0 0-1-26.385-2.549-28.2 0 0 10.458 6.778 10.924 8.823 0 0-1.412-24.09-4.756-29.99 0 0 10.69 4.21 11.578 5.572 0 0-1.886-19.918-9.136-29.455 0 0 13.12 4.178 13.994 4.855 0 0-11.05-24.648-14.163-29.413 0 0 12.994 1.33 14.539 3.144 0 0-8.974-21.352-11.426-25.665 0 0 13.496 3.539 14.395 5.582 0 0-9.05-24.24-12.607-29.691 0 0 9.939-.044 12.153 2.904 0 0-7.857-32.933-11.204-39.06 0 0 11.441 1.151 12.567 3.876 0 .033-2.558-3.918-8.193-28.902 0 0 9.805 3.095 11.571 5.136 0 0-5.317-20.846-9.104-27.428 0 0 8.854-17.254 12.158-13.854 0 0-5.573-17.509-9.595-25.23 0 0 2.033-13.231 11.492-18.04 0 0-4.502-10.673-9.06-10.886 0 0 2.052-7.283 3.569-7.287 0 0-14.919 2.093-19.835 6.431 0 0-2.718-7.495-.161-10.232 0 0-17.05 4.375-18.901 10.748 0 0-7.269-7.48-6.04-12.03 0 0-12.709 4.816-17.877 20.75 0 0-8.721-3.382-11.332-4.056 0 0-3.335 8.424-7.423 10.256 0 0-7.183-2.024-8.406-10.888 0 0-18.12 5.062-19.361 22.801-.895-1.816-15.29-7.681-19.759-16.307 0 0 1.593 18.641 11.306 29.979 0 0-4.219 7.289-7.744 3.663 0 0 3.959 17.496 12.11 26.11 0 0-6.592 7.98-13.15 4.363 0 0 3.244 13.405 11.16 20.656 0 0-5.559 4.793-11.64 3.903 0 0 1.795 17.73 11.195 22.93 0 0-8.08 10.03-11.31 11.178 0 0 5.82 11.805 8.889 14.07 0 0-4.173 10.246-7.207 10.255 0 0 3.02 13.179 8.939 17.253 0 0-10.663 10.949-12.634 9.591 0 0 2.48 6.132 8.832 10.431 0 0-9.745 12.929-13.572 9.729-2.869 3.905 4.59 32.21 4.59 32.21-.565-1.538-14.834-7.03-14.834-7.03 1.953 6.537 3.01 26.879 3.01 26.879-.0001-2.096-13.727-7.865-13.727-7.865 1.105 2.136 3.365 29.647 3.365 29.647-.918-3.02-17.252-11.417-17.252-11.417.848 4.401-1.337 30.496-1.337 30.496.046-2.317-10.763-14.387-10.763-14.387.637 6.445-8.737 22.296-8.737 22.296-.401-3.359-8.3-8.103-8.3-8.103-.468 6.405-12.01 19.859-12.01 19.859.563-2.655-5.729-11.818-5.729-11.818-3.5 7.05-15.936-1.628-15.936-1.628 0 0 1.791 22.593 10.348 28.34 0 0-7.515 5.911-11.795 15.765 0 0 17.189 22.13 22.956 25.444 0 0-10.98 5.523-12.497 3.306 0 0 20.628 17.447 31.84 22.901"/><path d="m1394.64 1688.71c11.819 5.334 25.19 6.643 25.19 6.643-2.319-3.979 5.487-10.218 5.487-10.218 25.18 3.09 35.573-9.638 35.573-9.638-2.264.217-3.991-8.302-3.991-8.302 6.922.71 26.869-5.764 26.869-5.764-5.241-2.242-.521-15.03-.521-15.03 13.09-1.707 25.23-22.973 25.23-22.973-4.485.885-13.221-9.248-13.221-9.248 9.164-4.531 23.499-31.49 23.499-31.49-6.21 1.964-16.542-5.733-16.542-5.733 14.04-10.937 22.914-42.4 22.914-42.4-4.096 4.961-12.01 3.431-12.01 3.431 5.368-5.996 8.273-37.805 8.273-37.805-1.918 3.839-11.795 5.696-11.795 5.696 5.282-6.902 4.932-29.718 4.932-29.718-2.415 3.429-9.681 8.693-9.681 8.693 7.849-3.948 13.941-50.23 13.941-50.23-1.013 3.753-10.199 3.259-10.199 3.259 7.956-7.614 14.03-30.13 14.03-30.13-.028 4.572-12.141 2.073-12.141 2.073 5.325-6.449 16.964-37.721 16.964-37.721-.603 3.256-8.302 3.991-8.302 3.991-4.617-10.07-3.522-32.11-3.522-32.11-4.03.842-10.197 12.855-10.197 12.855-2.653-3.86-4.403-17.402-4.403-17.402-4.312 2.697-18.888 12.771-18.888 12.771-3.429-2.415-7.507-11.622-7.507-11.622-8.798 3.582-18.433 22.324-18.433 22.324-1.015-5.844-13.201-13.821-13.201-13.821-.192 12.357-13.172 19.994-13.172 19.994-.519-5.434-15.03-9.08-15.03-9.08 6.472 10.35 7.19 41.814 7.19 41.814-2.933-2-13.715-.061-13.715-.061 6.126 6.727 15.836 31.848 15.836 31.848-2.567-2.954-9.856-2.715-9.856-2.715 6.04 5.822 10.638 30.06 10.638 30.06-2.373-5.714-14.665-.428-14.665-.428 5.587 5.864 10.659 25.488 10.659 25.488-3.646-4.679-11.667-2.542-11.667-2.542 6.622 7.136 14.8 30.576 14.8 30.576-3.409-6.987-12.357-.192-12.357-.192 4.551 4.592 13.07 22.06 13.07 22.06-2.783-5.218-15.16-.838-15.16-.838 4.681 5.951 9.949 32.41 9.949 32.41-1.381-4.895-9.662-5.475-9.662-5.475 5.932 9.487 2.205 23.1 2.205 23.1-3.732-5.585-9.683-.904-9.683-.904 3.129 8.841-10.823 11.09-10.823 11.09-7.418-1.12-9.924-17.789-9.924-17.789-7.91 17.664-14.792 7.81-14.792 7.81-2.935-11.601 3.4-31.399 3.4-31.399-6.34.605-10.652 3.302-10.652 3.302-2.59-7.979 5.298-30.667 5.298-30.667-1.898-.733-9.294 3.172-9.294 3.172-1.77-8.971 12.03-27.2 12.03-27.2-1.854-.28-10.782 1.943-10.782 1.943-.953-19.56 14.956-44.38 14.956-44.38-4.485.885-12.378 4.38-12.378 4.38-1.037-10.869 9.397-26.03 9.397-26.03-4.269 3.15-10.652 3.302-10.652 3.302-.412-9.101 12.91-32.31 12.91-32.31-3.946 1.747-12.421 3.927-12.421 3.927.731-11.494 11.315-29.87 11.315-29.87-2.847-1.099-17.985 3.088-17.985 3.088-1.361-9.467 10.906-29.374 10.906-29.374-5.521-.387-10.113 4.164-10.113 4.164-1.381-4.895 2.929-17.188 2.929-17.188-11.149 2.892-31.968 21.14-31.968 21.14 0 0-4.203-8.244-4.584-20.597 0 0-17.13 12.531-18.05 18.389 0 0 .106-14.07-8.745-17.512 0 0-3.936 9.269-7.328 11.736 0 0-14.729-9.849-19.08-12.479 0 0-1.541 13.568-4.135 17.468 0 0-6.349-11.917-10.394-12.697 0 0 1.434 22.02-3.03 32.16 0 0-7.709-.617-8.362-3.863 0 0 12.12 31.09 17.541 37.456 0 0-12.08 2.685-12.171-1.886 0 0 6.421 22.42 14.493 29.91 0 0-9.178.636-10.248-3.101 0 0 6.803 46.18 14.711 50.01 0 0-7.346-5.151-9.813-8.543 0 0 .0001 22.818 5.388 29.639 0 0-9.904-1.705-11.881-5.514 0 0 3.392 31.761 8.852 37.674 0 0-7.89 1.651-12.06-3.246 0 0 9.36 31.33 23.563 42.05 0 0-10.212 7.854-16.452 5.986 0 0 14.747 26.736 23.98 31.13 0 0-8.579 10.266-13.08 9.45 0 0 12.461 21.08 25.576 22.583 0 0 4.916 12.715-.29 15.04 0 0 20.04 6.167 26.954 5.35 0 0-1.596 8.543-3.863 8.362 0 0 12.6.997 16.838-1.993 0 0 1.755 8.234 4.806 13.11 0 0 10.749-5.873 17.474-6.515 0 0 6.62 8.416 15.221 10.503 0 0 9.285-7.672 14.592-6.24 0 0 8.709 6.601 15.07 8.902 0 0-2.686-7.822-.566-9.317"/><path d="m1600.35 1378.89c-2.937-9.638.721-30.609.721-30.609 0 0 8.782 14.516 13.86 13.695 0 0 14.885-13.13 17.699-24.16 0 0 5.212 12.335 6.707 16.844 0 0 8.712-6.771 11.263-14.692 0 0 8.12 7.575 11.954 6.649 0 0 9.638-2.937 13.22-8.266 0 0 5.901 18.966 2.471 26.19 0 0 8.237-1.178 8.759-3.637 0 0-1.431 20.534-6.414 27.622 0 0 10.254.871 12.745-2.673 0 0-1.404 20.223-4.934 24.931 0 0 14.452-.651 15.11-4.664 0 0-9.884 27.953-13.619 31.391 0 0 11.781 1.313 15.258-2.773 0 0-6.634 19.15-5.297 25.526 0 0 9.263 5.168 9.257 8.923 0 0 11.333-26.578 15.689-29.964 0 0 4.47 6.326 6.619 6.821 0 0 3.48-22.551 4.887-28.06 0 0 5.924 3.946 7.531 3.456 0 0-.117-24.421 1.806-28.639 0 0 4.55 5.394 5.872 4.567 0 0 1.225-21.803 4.239-27.807 0 0 6.05 6.147 8.641 5.115 0 0-5.133-13.267-3.752-18.47 0 0 7.141 4.362 10.122 2.424 0 0 1.856-10.796 3.283-12.866 0 0 9.794 13.663 16.504 12.04 0 0 3.931-13.12 9.424-15.16 0 0 2.753 11.813 10.858 12.189 0 0 7.507-14.698 12.353-16.477 0 0 2.316 9.586 6.481 12.13 0 0 8.486-11.485 12.658-12.696 0 0 1.563 11.09 7.05 12.804 0 0 8.176-11.512 11.93-11.506 0 0-4.731 11.491-2.673 20.429 0 0 3.471-.331 9.02-6.745 0 0-.783 20.277-4.702 25.89 0 0 9.374.17 11.635-4.332 0 0-4.418 26.23-9.811 30.776 0 0 7.358-1.879 8.785-3.948 0 0-1.926 22.683-5.092 26.795 0 0 2.565-.721 4.925-2.711 0 0-.434 12.482-3.579 20.04 0 0 10.207-2.263 10.497-5.681 0 0-3.705 17.837-9.284 24.562 0 0 12.145.718 14.973-3.11 0 0-6.191 17.626-10.369 22.592 0 0 6.03 2.703 9.09-.167 0 0-4.04 18.12-8.762 22.1 0 0 6.393 2.108 8.468-.22 0 0-5.186 20.528-7.44 21.275 0 0 6.783 1.202 8.859-1.126 0 0-4.869 16.8-10.6 21.634 0 0 6.704 2.134 8.806-.504 0 0-1.814 17.685-6.481 21.04 0 0 5.93.189 7.695-2.163 0 0-1.656 15.82-4.975 18.04 0 0 8.495-.531 9.612-2.627 0 0-3.679 17.526-8.09 21.534 0 0 11.523.666 12.435-2.7 0 0-2.594 19.497-6.977 23.19 0 0 8.569 2.293 9.427-.451 0 0-5.974 11.386-9.993 14.487 0 0 4.186 5.989 7.299 2.497 0 0-5.875 13.898-11.684 19.663 0 0 5.666 3.298 8.105.375 0 0-7.17 14.413-19.684 18.05 0 0-.27 6.862 2.058 8.938 0 0-18.875-2.542-23.345-8.867 0 0-6.616 7.888-12.06 13.06 0 0-4.265-5.056-5.918-7.701 0 0-14.05 6.944-17.893 15.381 0 0-11.253-7.528-17.257-10.541 0 0-8.01 2.137-9.36 7.03 0 0-1.067-13.235 3.175-26.332 0 0-6.982-6.226-8.906-2.01 0 0 1.583-18.643 4.928-21.18 0 0-8.178-3.198-10.201-1.492 0 0 4.3-17.474 8.578-19.927 0 0-11.491-4.732-14.419-3.415 0 0 8.24-19.643 12.59-19.273 0 0-7.504-3.767-9.111-3.278 0 0 11.3-22.513 17.521-25.74 0 0-9.938-4.599-12.634-2.324 0 0 6.619-26.353 13.361-32.04 0 0-6.639-10.266-7.249-17.828 0 0-.316 3.729-7.976 16.536 0 0-9.137-2.966-10.955 0 0 0-3.778 15.01-13.329 27.974 0 0-9.547-5.505-11.312-3.151 0 0 5.722 17.386 4.731 21.683 0 0-8.595-1.982-9.738.425 0 0-2.225 15.15-6.461 24.489 0 0-5.461-2.029-6.525-.554 0 0 2.726 12.12 2.02 16.759 0 0-10.406-2.761-11.265-.028 0 0 6.217 15.237 6.291 18.06 0 0-12.529-3.568-13.335-1.445 0 0 4.564 12.593 3.6 16.58 0 0-13.713-8.05-16.41-5.775 0 0 4.253 12.567 2.588 17.433 0 0-11.353-10.04-17.403-16.187 0 0-7.965 9.03-7.223 15.04 0 0-10.142-5.869-9.324-15.501 0 0-9.996-.222-11.687 4.954 0 0 .031-18.775 6.02-22.961 0 0-10.459-2.14-11.03.941 0 0 3.195-22.888 8.226-26.842 0 0-9.527-2.061-11.602.267 0 0 6.329-22.935 10.738-26.942 0 0-11.212-.639-12.745 2.673 0 0-.639-21.962 2.943-27.29 0 0-6.552-.245-8.316 2.111 0 0-10.1 19.485-16.04 23.05 0 0-5.303-3.893-7.273-2.808 0 0 5.643 18.318 4.646 26.37 0 0-6.809-.891-7.252.636 0 0 5.775 16.765 5.347 25.491 0 0-7.504-3.767-9.04-.455 0 0 1.615 10.465.466 16.627 0 0-13.408-4.268-13.698-.85 0 0 5.159 12.957 3.72 22.536 0 0-11.386-5.974-12.35-1.988 0 0 10.811 9.06 9.345 18.946 0 0-17.6-6.502-25.289-8.094 0 0-17.12-1.14-19.35 3.052 0 0-2.958-13.08-.909-15.1 0 0-16.758 2.02-19.329 6.495 0 0-5.265-11.713-2.615-17.12 0 0-13.303-5.511-15.668.234 0 0 1.489-24.911 9.785-30.466 0 0-1.633-32.374-.172-38.509 0 0 6.182 4.593 8.668 4.805 0 0-1.524-18.907 1.448-31.799l5.561 4.541c0 0 3.227-26.954 7.663-31.27 0 0 2.711 4.925 5.845 4.878 0 0 .446-19.992 3.869-23.457l6.651 2.755c0 0-2.905-13.704-2.087-23.336 0 0 5.309.139 6.736-1.931 0 0-5.49-16.428-5.558-23.01 0 0 6.393 2.108 8.158-.247 0 0-3.052-19.35-1.381-27.971 0 0 6.988 2.471 8.727.428 0 0-3.236-17.17-.627-29.472 0 0 5.745 2.366 7.352 1.876 0 0-3.758-14.715-3.271-27.819 0 0 4.476 2.571 11.544 4.11 0 0-4.585-16.04-4-22.874 0 0 8.768 7.317 15.624 11.341z"/><path d="m2082.23 1317.51c-.267 5.555-12.225 15.421-12.225 15.421-4.183.147-7.335-13.924-7.335-13.924-4.563.825-17.316 12.74-17.316 12.74-6.961 0-10.94-11.313-10.94-11.313-5.639 1.469-11.43 13.37-11.43 13.37-7.308 0-13.471-9.347-13.471-9.347-1.852 2.347-15.233 12.84-15.233 12.84-1.402-7.03-13.421-10.389-13.421-10.389-.184 3.819-7.758 9.371-7.758 9.371-8.249-2.136-6.46-10.402-6.46-10.402-5.241.444-18.507 15.815-18.507 15.815-7.208-2.086-6.13-10.04-6.13-10.04-8.252 5.172-9.721 17.629-9.721 17.629-2.582 1.749-14.05-6.243-14.05-6.243-7.537 6.259-2.56 22.497-2.56 22.497-6.697 1.766-19.02 19.27-19.02 19.27 3.258-2.628 11.177-.855 11.177-.855-4.597 1.519-17.716 21.07-17.716 21.07 2.2-2.33 9.391.103 9.391.103-5.705 2.858-8.095 23.623-8.095 23.623.894-4.133 9.905-3.352 9.905-3.352-.4 8.332 13.22 14.555 13.22 14.555 7.741-9.02 18.782.206 18.782.206-7.408 2.08-10.208 16.909-10.208 16.909 8.627 8.766 6.654 20.851 6.654 20.851-1.422.628-7.522-2.797-7.522-2.797-.647 6.233 2.204 26.553 2.204 26.553-1.405.28-7.885-2.467-7.885-2.467-.136 10.09 2.351 30.736 2.351 30.736l-8.216-2.831c-1.872 10 2.849 27.628 2.849 27.628-2.083-.1-5.438-2.697-5.438-2.697-.878 3.786 4.01 25.25 4.01 25.25-3.539 1.222-7.521-2.797-7.521-2.797.441 12.549 9.05 21.662 9.05 21.662 0 0-2.811.561-8.697-.07 1.285 9.457 4.521 21.793 4.521 21.793-5.094 4.627-13.489 34.499-13.489 34.499 1.405-.281 7.388 5.575 7.388 5.575 1.533 11.558.602 23.692.602 23.692 7.077-2.444 8.319-6.56 8.319-6.56 3.585 5.04 4.193 14.12 4.193 14.12 4.961-1.85 10.933-10.263 10.933-10.263 4.05 2.631 4.577 6.136 4.577 6.136 3.489-.181 13.644-8.74 13.644-8.74 4.447 1.606 9.538 4.286 9.538 4.286 8.713-.278 22.424-10.407 22.424-10.407 8.563 2.848 19.276 4.406 19.276 4.406-2.777-.133.764-8.663.764-8.663 6.944.334 15.71-8.293 15.71-8.293-5.719-4.103-8.64-15.727-8.64-15.727.184-3.819 8.649-6.196 8.649-6.196.648-6.233-4.471-22.834-4.471-22.834 8.666-6.544 12.822-20.612 12.822-20.612-2.2 2.33-7.622-.714-7.622-.714 1.425-7.935 8.309-20.829 8.309-20.829 3.786.878 10.149 6.06 10.149 6.06 4.333-3.272 12.949-8.774 12.949-8.774 3.075 1.192 7.221 9.05 7.221 9.05 5.291-1.486 16.655-13.468 16.655-13.468 2.611 3.605 2.774 7.441 2.774 7.441 9.111-1.302 22.988-14.903 22.988-14.903 1.355.761 3.469 7.475 3.469 7.475 6.266-.047 22.23-13.548 22.23-13.548 2.05.794 5.305 5.475 5.305 5.475 8.65-6.196 18.791-21.717 18.791-21.717 1.669 1.472 2.13 6.366 2.13 6.366 8.566-4.46 14.608-21.57 14.608-21.57 7.888-4.841 21.916-21.566 21.916-21.566-4.25 1.536-6.827-2.764-6.827-2.764 9.888-3 16.244-19.403 16.244-19.403-4.316 2.925-9.538-4.286-9.538-4.286 6.04-2.494 16.344-21.486 16.344-21.486-2.547 2.314-10.713-1.559-10.713-1.559 5.855-5.983 12.261-23.422 12.261-23.422-3.242 2.28-10.863 1.566-10.863 1.566 2.564-2.661 2.637-18.665 2.637-18.665-1.539 3.058-7.341.691-7.341.691 2.283-4.066 3.034-19.69 3.034-19.69-1.489 2.02-7.01 1.055-7.01 1.055 1.903-3.389-2.324-16.815-2.324-16.815-2.2 2.33-8.63-1.458-8.63-1.458.133-2.778-9.05-14.355-9.05-14.355-6.04 2.494-15.07-12.208-15.07-12.208-4.347-3.689 2.584-10.316 2.584-10.316-4.497-.564-20.684 3.182-20.684 3.182-8.266-1.789-9.501-12.288-9.501-12.288-11.177.855-22.57 6.224-22.57 6.224-.181-3.489-14.312-13.564-14.312-13.564m-40.09 73.937c0 0 1.269 9.805 9.238 10.536 0 0 6.186-5.619 13.46-4.921 0 0 1.072 6.664 4.03 10.285 0 0 8.45-2.03 12.796 1.659 0 0-1.953 4.43-2.153 8.597 0 0 11.771 1.261 14.662 6.272 0 0-9.147 9.304-8.966 12.793 0 0 9.388 7.411 8.376 13.974 0 0-8.633 5.849-10.185 1.947 0 0-2.831 8.216-1.181 17.343 0 0-8.813 2.361-9.738-.12 0 0-5.444 11.918-4.323 17.54 0 0-3.856 7.819-12.502 6.707 0 0-7.161 4.18-6.403 10.132 0 0-8.252 5.171-15.51 4.127 0 0-2.58 3.01-1.656 5.488 0 0-8.746.972-10.807-14.09 0 0-7.688.675-7.968-.731 0 0 6.503-12.215 5.828-19.904 0 0-6.994.708-7.258-1.045 0 0 12.969-16.428 12.294-24.12 0 0-8-.036-8.596-2.153 0 0 11.07-20.348 12.992-31.391 0 0-7.738 1.716-8.382.641 0 0 21.12-19.517 21.952-29.569"/></g></g><g style="stroke-linecap:round;stroke-linejoin:round;stroke-width:8.342"><g style="stroke:#a9b618"><path d="m393.13-141.33c0 0 18.976-16.646 28.17-20.695 0 0-5.43 18.229-.742 22.432 0 0 24.654-17.796 38.479-21.556 0 0-7.694 9.365-4.04 16.07 0 0 26.649-2.878 39.701-10.897 0 0 3.63 4.93 2.656 11.35 0 0 21.947-8.148 37.21-10.861 0 0-9.122 9.03-3.393 11.438 0 0 15.733 5.11 45.04-10.975 0 0 .882 11.732 4.518 17.02 0 0 15.11-13.03 34.993-16.523 0 0-1.335 6.07 4.414 9.901 0 0 6.674.103 10.251 3.826 0 0-8.251 3.643-7.187 7.654 0 0 6.086 3.183 6.476 12.74 0 0-7.03 1.36-7.952 6.91 0 0 6.1 4.19 6.48 12.992 0 0-8.551.377-12.554 1.944 0 0 3.344 4.984 3.727 14.04 0 0-6.99 3.876-7.22 5.389 0 0 1.816 3.749-2.596 11.865 0 0-7.872-4.919-14.418-5.075 0 0 3.581 3.974 2.866 6.753 0 0-14.936-6.075-14.924-5.32 0 0 2.316 3.489 3.129 7.504 0 0-9.07-.623-17.2-6.04 0 0-1.225 2.283-.416 6.05 0 0-7.347-3.416-9.922-7.405 0 0-3.686 6.093-1.364 10.09 0 0-11.657-5.619-12.722-9.63 0 0-8.775.973-8.896 4.89 0 0-9.612-.217-11.474-5.883 0 0-4.527 6.827-3.736 12.332 0 0-9.849-4.306-14.04-11.185 0 0 4.046 9.02 4.123 14.354 0 0-2.174-2.638-4.855-3.489 0 0 1.475 3.538-1.588 13.191 0 0-3.414-2.264-4.819-.998 0 0 2.408 6.549 1.97 13.14 0 0-4.924 4.805-1.567 14.408 0 0 15.854 6.204 27.904-5.874 0 0 .751 7.389 2.746 11.864 0 0 19.289-.923 25.27-9.696 0 0 4.275 6.372 4.03 11.523 0 0 15.364-5.37 21.377-12.214 0 0 .415 6.428 4.02 11.202 0 0 11.593.797 16.01-5.058 0 0-6.512 16.823-11.602 20.758 0 0 8.433 4.703 11.924 1.436 0 0-12.954 16.273-18.366 20.21 0 0 11.649 4.657 15.14 1.067 0 0-8.162 13.952-14.534 18.227 0 0 4.611 7.332 9.393 4.367 0 0-16.17 16.642-24.19 17.724 0 0-15.975 7.631-28.309.089 0 0-7.696 1.72-5.05 6.508 0 0-9.351-1.473-15.248-8.787 0 0-9.08-4.694-7.654 4.615 0 0-10.954-1.128-12.465 5.65 0 0 6.857 6.978 10.997 4.02 0 0-7.225 12.01-14.231 16.935 0 0 5.822 2.168 10.283-.793 0 0-3.617 16.781-11.574 22.688 0 0 8.08 2.456 14.721-5.361 0 0-3.277 18.06-14.758 24.986 0 0 2.974 5.426 8.698.839 0 0-5.556 16.17-12.879 21.42 0 0-13.55 19.499-22.19 22.842 0 0-4.61-7.333-5.939-10.209 0 0-5.211 17.77-8.05 21.672 0 0-8.214-11.784-17.877-12.609 0 0-4.68 10.04-7.505 14.907 0 0-8.437-5.03-8.54-12.1 0 0-12.446 6.937-13.639 13.388 0 0-11.37-7.556-10.47-12.07 0 0-11.793 7.571-11.751 10.465 0 0-2.447-13.476 1.37-16.427 0 0-5.561-6.353-7.771-3.426 0 0 4.288-14.861 9.691-19.443 0 0-11.602-1.44-15.411 2.154 0 0 10.06-15.91 15.187-17.593 0 0-7.785-4.391-10.978-2.736 0 0 9.998-20.413 16.08-22.431 0 0-9.07-4.373-13.901-4.624 0 0 11.989-16.259 18.394-18.282 0 0-8.097-3.743-12.269-3.039 0 0 7.5-15.229 14.189-19.83 0 0-25.841 8.898-35.11 2.896-2.521-1.632 12.702-15.628 10.128-17.654 0 0-18.669-.694-25.601-12.819 0 0 17.905-7.659 23.23-17.709 0 0-5.803-.881-9.757-7.257 0 0 22.407-7.725 26.16-14.857 0 0-14.488-.755-18.08-4.563 0 0 23.34-9.99 27.11-16.16 0 0-16.15-4.591-20.06-7.752 0 0 17.634-4.116 19.779-11.547 0 0-20.641-3.561-23.578-6.413 0 0 20.417-11.878 25.15-18.381 0 0-22.79 3.548-31.521.457 0 0 3.114-7.123-3.445-15.714 0 0-13.206-1.095-17.15-7.15 0 0 25.01-5.51 27.484-12.624 0 0-15.63-12.963-16.02-17.783 0 0 24.571 8.329 27.726 4.102 0 0-11.882-20.739-12.438-36.816 0 0 13.13 8.996 19.15 7.05z" style="fill:url(#1)"/><path d="m768.02 192.09c11.523 5.946 24.81 7.953 24.81 7.953-2.107-4.095 6.01-9.917 6.01-9.917 24.98 4.405 36.03-7.761 36.03-7.761-2.272.097-3.551-8.499-3.551-8.499 6.876 1.072 27.13-4.348 27.13-4.348-5.116-2.513.267-15.04.267-15.04 13.161-1.019 26.395-21.62 26.395-21.62-4.526.649-12.719-9.928-12.719-9.928 9.389-4.045 25.12-30.22 25.12-30.22-6.305 1.636-16.219-6.591-16.219-6.591 14.59-10.186 25.1-41.14 25.1-41.14-4.351 4.74-12.174 2.798-12.174 2.798 5.675-5.707 10.242-37.32 10.242-37.32-2.117 3.733-12.08 5.07-12.08 5.07 5.636-6.616 6.482-29.419 6.482-29.419-2.591 3.298-10.123 8.174-10.123 8.174 8.04-3.531 16.554-49.43 16.554-49.43-1.208 3.694-10.356 2.72-10.356 2.72 8.344-7.187 15.591-29.353 15.591-29.353-.259 4.564-12.233 1.434-12.233 1.434 5.656-6.161 18.917-36.781 18.917-36.781-.773 3.22-8.5 3.551-8.5 3.551-4.083-10.298-1.835-32.25-1.835-32.25-4.071.63-10.857 12.303-10.857 12.303-2.448-3.993-3.485-17.609-3.485-17.609-4.448 2.467-19.531 11.764-19.531 11.764-3.298-2.591-6.888-11.999-6.888-11.999-8.973 3.116-19.577 21.328-19.577 21.328-.707-5.889-12.459-14.493-12.459-14.493-.838 12.33-14.201 19.276-14.201 19.276-.234-5.454-14.537-9.85-14.537-9.85 5.921 10.675 4.99 42.13 4.99 42.13-2.824-2.156-13.693-.78-13.693-.78 5.765 7.04 14.15 32.634 14.15 32.634-2.409-3.084-9.7-3.228-9.7-3.228 5.726 6.13 9.05 30.576 9.05 30.576-2.071-5.831-14.622-1.196-14.622-1.196 5.272 6.149 9.309 26.01 9.309 26.01-3.396-4.863-11.518-3.15-11.518-3.15 6.239 7.473 13.178 31.31 13.178 31.31-3.038-7.155-12.33-.838-12.33-.838 4.305 4.824 11.9 22.713 11.9 22.713-2.506-5.357-15.1-1.631-15.1-1.631 4.363 6.188 8.237 32.887 8.237 32.887-1.123-4.961-9.362-5.974-9.362-5.974 5.428 9.785.992 23.18.992 23.18-3.434-5.773-9.622-1.41-9.622-1.41 2.661 8.993-11.389 10.505-11.389 10.505-7.35-1.507-8.978-18.284-8.978-18.284-8.825 17.225-15.181 7.02-15.181 7.02-2.324-11.739 5.04-31.18 5.04-31.18-6.363.273-10.811 2.739-10.811 2.739-2.168-8.103 6.898-30.347 6.898-30.347-1.857-.831-9.447 2.681-9.447 2.681-1.298-9.05 13.436-26.529 13.436-26.529-1.837-.377-10.869 1.376-10.869 1.376.072-19.583 17.261-43.54 17.261-43.54-4.526.649-12.59 3.726-12.59 3.726-.467-10.908 10.747-25.503 10.747-25.503-4.428 2.922-10.811 2.739-10.811 2.739.067-9.109 14.585-31.587 14.585-31.587-4.03 1.538-12.61 3.271-12.61 3.271 1.332-11.44 12.865-29.24 12.865-29.24-2.785-1.247-18.12 2.141-18.12 2.141-.863-9.525 12.429-28.763 12.429-28.763-5.493-.676-10.317 3.629-10.317 3.629-1.123-4.961 3.825-17.01 3.825-17.01-11.285 2.304-33.03 19.441-33.03 19.441 0 0-3.766-8.453-3.499-20.809 0 0-17.762 11.616-18.992 17.418 0 0 .843-14.04-7.816-17.946 0 0-4.416 9.05-7.933 11.336 0 0-14.193-10.607-18.402-13.462 0 0-2.25 13.469-5.04 17.227 0 0-5.716-12.233-9.714-13.224 0 0 .278 22.07-4.709 31.957 0 0-7.666-1.019-8.148-4.296 0 0 10.472 31.682 15.554 38.32 0 0-12.204 2.048-12.06-2.521 0 0 5.238 22.725 12.907 30.628 0 0-9.199.156-10.07-3.634 0 0 4.374 46.47 12.07 50.711 0 0-7.07-5.529-9.352-9.05 0 0-1.195 22.787 3.828 29.88 0 0-9.801-2.221-11.576-6.129 0 0 1.724 31.895 6.867 38.09 0 0-7.966 1.235-11.876-3.874 0 0 7.706 31.773 21.328 43.22 0 0-10.609 7.308-16.743 5.115 0 0 13.326 27.472 22.316 32.34 0 0-9.106 9.803-13.555 8.752 0 0 11.34 21.701 24.358 23.892 0 0 4.243 12.955-1.077 15 0 0 19.693 7.208 26.637 6.756 0 0-2.041 8.448-4.296 8.148 0 0 12.53 1.656 16.92-1.108 0 0 1.322 8.315 4.113 13.347 0 0 11.04-5.302 17.791-5.591 0 0 6.17 8.751 14.649 11.286 0 0 9.674-7.175 14.899-5.467 0 0 8.351 7.05 14.581 9.679 0 0-2.272-7.952-.078-9.334z" style="fill:url(#2)"/><path d="m1099.96 47.21c0 0-4.838-2.725-7.421-1.101 0 0 21.413-24.04 27.316-33.76 0 0-7.652 1.207-14.941 1.464 0 0 24.724-27.564 28-36.11 0 0-8.105 1.252-10.689 2.876 0 0 20.276-21.643 22.372-28.25 0 0-7.244.71-11.496-.702 0 0 14.755-22.02 16.992-31.834 0 0-7.02 2.974-9.508.932 0 0 20.774-21.234 22.505-26.889 0 0-5.797 1.482-8.647.39 0 0 14.479-20.16 17.223-34.14 0 0-12.73 5.362-18.208 5.441 0 0-1.296-8.558 4.048-9.996 0 0-17.835-.081-26.499 9.454 0 0-13.342-5.549-9.07-13.281 0 0-21.466 4.847-27.502 13.209 0 0-9.179-5.04-9.215-10.07 0 0-22.596 6.813-29.28 17.81 0 0-5.122-15.982 1.319-19.522 0 0-22.17 7.991-24.739 14.707 0 0-6.06-12.335-2.85-15.882 0 0-32.2 14.468-32.429 18.693 0 0-2.78-18.474.841-21.09 0 0-30.21 14.921-33.521 20.739 0 0-5.411-15.631-2.492-18.826 0 0-27.821 19.534-29.372 26.797 0 0-7.451-3.471-6.484-6.798 0 0-1.362 25.668 3.552 32.943 0 0-10.678 9.774-11.231 14.03 0 0 10.301 2.869 11.412 7.608 0 0-11.186 7.884-11.04 12.717 0 0 6.29 8.111 5.995 11.695 0 0-9.536 14.833-9.197 21.587 0 0 17.231-5.567 25.329-5.392 0 0 5.43 5.932 8.625 8.851 0 0 11.833-11.18 16.09-10.627 0 0 4.72 8.587 7.275 11.569 0 0 5.455-6.999 10.07-9.391 0 0 2.26 6.566 4.657 7.947 0 0 8.726-9.905 10.615-10.414 0 0 8.537 4.658 14.262 7.01 0 0 11.186-7.884 16.08-7.395 0 0 4.476 2.794 3.894 9.704 0 0-22.94 17.754-24.742 26.11 0 0 4.619 2.56 7.09 1.027 0 0-20.492 22.668-26.15 31.831 0 0 7.313-1.147 14.277-1.399 0 0-23.66 25.992-26.802 34.05 0 0 7.746-1.19 10.216-2.723 0 0-19.403 20.41-21.414 26.633 0 0 6.922-.678 10.983.645 0 0-14.13 20.753-16.278 30 0 0 6.713-2.81 9.09-.891 0 0-19.877 20.03-21.539 25.353 0 0 5.541-1.404 8.262-.379 0 0-13.862 19.01-16.502 32.18 0 0 12.171-5.066 17.404-5.149 0 0 1.227 8.06-3.882 9.419 0 0 17.04.053 25.332-8.939 0 0 12.741 5.207 8.651 12.495 0 0 20.516-4.593 26.295-12.477 0 0 8.764 4.736 8.791 9.468 0 0 21.599-6.446 27.996-16.812 0 0 4.872 15.04-1.287 18.387 0 0 21.19-7.555 23.657-13.884 0 0 5.771 11.608 2.701 14.953 0 0 30.782-13.67 31.01-17.649 0 0 2.632 17.394-.833 19.864 0 0 28.887-14.09 32.06-19.577 0 0 5.149 14.713 2.355 17.726 0 0 26.609-18.434 28.1-25.276 0 0 7.114 3.259 6.186 6.393 0 0 1.337-24.17-3.349-31.02 0 0 10.216-9.219 10.749-13.227 0 0-9.839-2.688-10.894-7.15 0 0 10.699-7.44 10.562-11.992 0 0-5.999-7.629-5.712-11.01 0 0 9.131-13.982 8.816-20.343 0 0-16.471 5.266-24.21 5.112 0 0-5.18-5.579-8.229-8.324 0 0-11.321 10.544-15.387 10.03 0 0-4.499-8.08-6.936-10.885 0 0-5.221 6.599-9.633 8.858 0 0-2.15-6.18-4.439-7.478 0 0-8.351 9.34-10.157 9.822 0 0 2.214-9.107-3.253-11.311 0 0-21.06 12.173-25.454 11.644 0 0 21.973-21.939 23.846-30.807z" style="fill:url(#3)"/><path d="m1366.03 47.12c0 0-4.843-2.717-7.424-1.087 0 0 21.367-24.08 27.25-33.812 0 0-7.65 1.222-14.938 1.493 0 0 24.672-27.61 27.932-36.17 0 0-8.103 1.267-10.683 2.896 0 0 20.236-21.681 22.319-28.29 0 0-7.243.724-11.498-.68 0 0 14.713-22.04 16.932-31.865 0 0-7.02 2.987-9.506.95 0 0 20.734-21.273 22.454-26.931 0 0-5.794 1.493-8.646.407 0 0 14.441-20.19 17.16-34.17 0 0-12.72 5.385-18.2 5.476 0 0-1.312-8.555 4.03-10 0 0-17.835-.047-26.482 9.504 0 0-13.353-5.524-9.1-13.263 0 0-21.457 4.887-27.477 13.261 0 0-9.189-5.03-9.234-10.05 0 0-22.583 6.855-29.24 17.865 0 0-5.152-15.973 1.282-19.525 0 0-22.15 8.03-24.711 14.754 0 0-6.081-12.324-2.879-15.876 0 0-32.17 14.529-32.394 18.754 0 0-2.815-18.469.802-21.09 0 0-30.18 14.978-33.482 20.803 0 0-5.44-15.62-2.527-18.821 0 0-27.785 19.587-29.322 26.852 0 0-7.457-3.457-6.497-6.786 0 0-1.314 25.67 3.614 32.937 0 0-10.659 9.794-11.204 14.05 0 0 10.306 2.85 11.426 7.587 0 0-11.171 7.905-11.01 12.738 0 0 6.305 8.099 6.02 11.684 0 0-9.507 14.851-9.156 21.605 0 0 17.221-5.6 25.319-5.439 0 0 5.441 5.922 8.641 8.835 0 0 11.812-11.202 16.07-10.657 0 0 4.736 8.579 7.297 11.555 0 0 5.442-7.01 10.05-9.409 0 0 2.272 6.562 4.673 7.938 0 0 8.707-9.922 10.595-10.434 0 0 8.546 4.642 14.275 6.979 0 0 11.171-7.905 16.07-7.425 0 0 4.481 2.785 3.913 9.697 0 0-22.906 17.797-24.692 26.16 0 0 4.624 2.551 7.091 1.013 0 0-20.449 22.707-26.09 31.88 0 0 7.311-1.161 14.275-1.426 0 0-23.611 26.04-26.738 34.1 0 0 7.744-1.204 10.211-2.742 0 0-19.364 20.446-21.363 26.673 0 0 6.921-.692 10.984.624 0 0-14.09 20.78-16.222 30.03 0 0 6.708-2.823 9.08-.908 0 0-19.839 20.06-21.491 25.394 0 0 5.538-1.414 8.261-.395 0 0-13.826 19.03-16.442 32.21 0 0 12.161-5.09 17.395-5.182 0 0 1.242 8.06-3.864 9.426 0 0 17.04.028 25.315-8.987 0 0 12.751 5.183 8.674 12.478 0 0 20.508-4.632 26.27-12.526 0 0 8.772 4.72 8.808 9.451 0 0 21.587-6.487 27.964-16.865 0 0 4.9 15.04-1.252 18.389 0 0 21.17-7.595 23.631-13.929 0 0 5.793 11.598 2.729 14.948 0 0 30.757-13.728 30.977-17.707 0 0 2.664 17.389-.795 19.866 0 0 28.861-14.15 32.02-19.637 0 0 5.176 14.703 2.389 17.721 0 0 26.574-18.484 28.05-25.329 0 0 7.121 3.246 6.198 6.382 0 0 1.291-24.18-3.408-31.01 0 0 10.198-9.238 10.724-13.248 0 0-9.843-2.669-10.907-7.129 0 0 10.685-7.46 10.539-12.01 0 0-6.01-7.618-5.733-10.995 0 0 9.105-13.999 8.778-20.359 0 0-16.462 5.297-24.2 5.157 0 0-5.19-5.569-8.244-8.308 0 0-11.301 10.566-15.368 10.06 0 0-4.514-8.07-6.956-10.872 0 0-5.209 6.609-9.617 8.876 0 0-2.162-6.176-4.454-7.47 0 0-8.333 9.356-10.138 9.841 0 0 2.196-9.112-3.275-11.305 0 0-21.04 12.212-25.432 11.691 0 0 21.931-21.98 23.788-30.852z" style="fill:url(#4)"/></g><path d="m1352.35 199.46c-.267 5.555-12.225 15.421-12.225 15.421-4.183.147-7.335-13.924-7.335-13.924-4.563.825-17.316 12.74-17.316 12.74-6.961 0-10.94-11.314-10.94-11.314-5.639 1.469-11.43 13.37-11.43 13.37-7.308 0-13.471-9.347-13.471-9.347-1.852 2.347-15.233 12.84-15.233 12.84-1.402-7.03-13.421-10.389-13.421-10.389-.184 3.819-7.758 9.371-7.758 9.371-8.249-2.136-6.46-10.402-6.46-10.402-5.241.444-18.507 15.815-18.507 15.815-7.208-2.086-6.13-10.04-6.13-10.04-8.252 5.172-9.721 17.629-9.721 17.629-2.582 1.749-14.05-6.243-14.05-6.243-7.537 6.259-2.56 22.497-2.56 22.497-6.697 1.766-19.02 19.27-19.02 19.27 3.258-2.628 11.177-.855 11.177-.855-4.597 1.519-17.716 21.07-17.716 21.07 2.2-2.33 9.391.103 9.391.103-5.705 2.858-8.095 23.623-8.095 23.623.894-4.133 9.905-3.352 9.905-3.352-.4 8.332 13.22 14.555 13.22 14.555 7.741-9.02 18.782.206 18.782.206-7.408 2.08-10.208 16.909-10.208 16.909 8.627 8.766 6.654 20.851 6.654 20.851-1.422.628-7.522-2.797-7.522-2.797-.647 6.233 2.204 26.553 2.204 26.553-1.405.28-7.885-2.467-7.885-2.467-.136 10.09 2.351 30.736 2.351 30.736l-8.216-2.831c-1.872 10 2.849 27.628 2.849 27.628-2.083-.1-5.438-2.697-5.438-2.697-.878 3.786 4.01 25.25 4.01 25.25-3.539 1.222-7.521-2.797-7.521-2.797.441 12.549 9.05 21.663 9.05 21.663 0 0-2.811.561-8.697-.07 1.285 9.457 4.521 21.793 4.521 21.793-5.094 4.627-13.489 34.499-13.489 34.499 1.405-.281 7.388 5.575 7.388 5.575 1.533 11.558.602 23.692.602 23.692 7.077-2.444 8.319-6.56 8.319-6.56 3.585 5.04 4.193 14.12 4.193 14.12 4.961-1.85 10.933-10.263 10.933-10.263 4.05 2.631 4.577 6.136 4.577 6.136 3.489-.181 13.644-8.74 13.644-8.74 4.447 1.606 9.538 4.286 9.538 4.286 8.713-.278 22.424-10.407 22.424-10.407 8.563 2.847 19.276 4.406 19.276 4.406-2.777-.134.764-8.663.764-8.663 6.944.334 15.71-8.293 15.71-8.293-5.719-4.103-8.64-15.727-8.64-15.727.184-3.819 8.649-6.196 8.649-6.196.648-6.233-4.471-22.834-4.471-22.834 8.666-6.544 12.822-20.612 12.822-20.612-2.2 2.33-7.622-.714-7.622-.714 1.425-7.935 8.309-20.829 8.309-20.829 3.786.878 10.149 6.06 10.149 6.06 4.333-3.272 12.949-8.774 12.949-8.774 3.075 1.192 7.221 9.05 7.221 9.05 5.291-1.486 16.655-13.468 16.655-13.468 2.611 3.606 2.774 7.441 2.774 7.441 9.111-1.302 22.988-14.903 22.988-14.903 1.355.761 3.469 7.475 3.469 7.475 6.266-.047 22.23-13.548 22.23-13.548 2.05.795 5.305 5.475 5.305 5.475 8.65-6.196 18.791-21.717 18.791-21.717 1.669 1.472 2.13 6.366 2.13 6.366 8.566-4.46 14.608-21.57 14.608-21.57 7.888-4.841 21.916-21.567 21.916-21.567-4.25 1.536-6.827-2.764-6.827-2.764 9.888-3 16.244-19.403 16.244-19.403-4.316 2.925-9.538-4.286-9.538-4.286 6.04-2.494 16.344-21.486 16.344-21.486-2.547 2.314-10.713-1.559-10.713-1.559 5.855-5.983 12.261-23.422 12.261-23.422-3.242 2.28-10.863 1.566-10.863 1.566 2.564-2.661 2.637-18.665 2.637-18.665-1.539 3.058-7.341.691-7.341.691 2.283-4.066 3.034-19.69 3.034-19.69-1.489 2.02-7.01 1.055-7.01 1.055 1.903-3.389-2.324-16.815-2.324-16.815-2.2 2.33-8.63-1.458-8.63-1.458.133-2.778-9.05-14.355-9.05-14.355-6.04 2.494-15.07-12.208-15.07-12.208-4.347-3.689 2.584-10.316 2.584-10.316-4.497-.564-20.685 3.182-20.685 3.182-8.266-1.789-9.502-12.288-9.502-12.288-11.177.855-22.57 6.224-22.57 6.224-.181-3.489-14.312-13.564-14.312-13.564zm-40.09 73.936c0 0 1.269 9.805 9.238 10.536 0 0 6.186-5.619 13.46-4.921 0 0 1.072 6.663 4.03 10.285 0 0 8.449-2.03 12.796 1.659 0 0-1.953 4.43-2.153 8.597 0 0 11.771 1.261 14.662 6.272 0 0-9.147 9.304-8.966 12.793 0 0 9.388 7.411 8.376 13.974 0 0-8.633 5.849-10.185 1.947 0 0-2.831 8.216-1.181 17.343 0 0-8.813 2.361-9.738-.12 0 0-5.444 11.918-4.323 17.54 0 0-3.855 7.819-12.502 6.707 0 0-7.161 4.18-6.403 10.132 0 0-8.252 5.171-15.51 4.127 0 0-2.58 3.01-1.656 5.488 0 0-8.746.971-10.807-14.09 0 0-7.688.675-7.968-.731 0 0 6.503-12.215 5.828-19.904 0 0-6.994.708-7.258-1.045 0 0 12.969-16.428 12.294-24.12 0 0-8-.036-8.596-2.153 0 0 11.07-20.348 12.992-31.391 0 0-7.738 1.716-8.382.641 0 0 21.12-19.517 21.952-29.569zm-441.79-12.558c-2.937-9.638.721-30.609.721-30.609 0 0 8.782 14.516 13.86 13.695 0 0 14.885-13.13 17.699-24.16 0 0 5.212 12.335 6.707 16.844 0 0 8.712-6.771 11.263-14.692 0 0 8.12 7.575 11.954 6.649 0 0 9.638-2.937 13.22-8.266 0 0 5.901 18.966 2.471 26.19 0 0 8.237-1.178 8.759-3.637 0 0-1.431 20.534-6.414 27.622 0 0 10.254.871 12.745-2.673 0 0-1.404 20.223-4.934 24.931 0 0 14.452-.651 15.11-4.664 0 0-9.884 27.953-13.619 31.391 0 0 11.781 1.313 15.258-2.773 0 0-6.634 19.15-5.297 25.526 0 0 9.263 5.168 9.257 8.923 0 0 11.333-26.578 15.689-29.964 0 0 4.47 6.326 6.619 6.821 0 0 3.48-22.551 4.887-28.06 0 0 5.924 3.946 7.53 3.456 0 0-.117-24.421 1.806-28.639 0 0 4.55 5.394 5.872 4.567 0 0 1.225-21.803 4.239-27.807 0 0 6.05 6.147 8.641 5.115 0 0-5.133-13.268-3.752-18.471 0 0 7.141 4.362 10.122 2.424 0 0 1.856-10.796 3.283-12.866 0 0 9.794 13.663 16.504 12.04 0 0 3.931-13.12 9.424-15.16 0 0 2.753 11.813 10.858 12.189 0 0 7.507-14.698 12.353-16.477 0 0 2.316 9.586 6.481 12.13 0 0 8.486-11.485 12.658-12.696 0 0 1.563 11.09 7.05 12.804 0 0 8.176-11.512 11.93-11.506 0 0-4.731 11.491-2.673 20.429 0 0 3.471-.331 9.02-6.745 0 0-.783 20.277-4.702 25.89 0 0 9.374.17 11.635-4.332 0 0-4.418 26.23-9.811 30.776 0 0 7.358-1.879 8.785-3.948 0 0-1.926 22.683-5.092 26.795 0 0 2.565-.721 4.925-2.712 0 0-.434 12.482-3.579 20.04 0 0 10.207-2.263 10.497-5.681 0 0-3.705 17.837-9.284 24.562 0 0 12.145.718 14.973-3.11 0 0-6.191 17.626-10.369 22.592 0 0 6.03 2.703 9.09-.167 0 0-4.04 18.12-8.762 22.1 0 0 6.393 2.108 8.468-.22 0 0-5.186 20.528-7.44 21.275 0 0 6.783 1.202 8.859-1.126 0 0-4.869 16.8-10.6 21.634 0 0 6.704 2.134 8.806-.504 0 0-1.814 17.685-6.481 21.04 0 0 5.93.189 7.695-2.163 0 0-1.656 15.82-4.975 18.04 0 0 8.495-.531 9.612-2.627 0 0-3.679 17.526-8.09 21.534 0 0 11.523.666 12.435-2.7 0 0-2.594 19.497-6.977 23.19 0 0 8.569 2.293 9.427-.451 0 0-5.974 11.386-9.993 14.487 0 0 4.186 5.989 7.299 2.497 0 0-5.875 13.898-11.684 19.663 0 0 5.666 3.298 8.105.375 0 0-7.17 14.413-19.684 18.05 0 0-.27 6.862 2.058 8.938 0 0-18.875-2.542-23.345-8.867 0 0-6.616 7.888-12.06 13.06 0 0-4.265-5.057-5.918-7.701 0 0-14.05 6.944-17.893 15.381 0 0-11.253-7.528-17.257-10.541 0 0-8.01 2.137-9.36 7.03 0 0-1.067-13.235 3.175-26.332 0 0-6.982-6.226-8.906-2.01 0 0 1.583-18.644 4.928-21.18 0 0-8.178-3.198-10.201-1.492 0 0 4.3-17.474 8.578-19.927 0 0-11.491-4.731-14.419-3.415 0 0 8.24-19.643 12.59-19.273 0 0-7.504-3.767-9.111-3.278 0 0 11.3-22.512 17.521-25.74 0 0-9.938-4.599-12.634-2.324 0 0 6.619-26.353 13.361-32.04 0 0-6.639-10.266-7.249-17.828 0 0-.316 3.729-7.976 16.536 0 0-9.137-2.966-10.955 0 0 0-3.778 15.01-13.329 27.974 0 0-9.547-5.505-11.312-3.151 0 0 5.722 17.386 4.731 21.683 0 0-8.595-1.981-9.738.425 0 0-2.225 15.15-6.461 24.489 0 0-5.461-2.029-6.525-.554 0 0 2.726 12.12 2.02 16.759 0 0-10.406-2.761-11.265-.028 0 0 6.217 15.237 6.291 18.06 0 0-12.529-3.568-13.335-1.445 0 0 4.564 12.593 3.6 16.58 0 0-13.713-8.05-16.41-5.775 0 0 4.253 12.567 2.588 17.433 0 0-11.353-10.04-17.404-16.187 0 0-7.965 9.03-7.223 15.04 0 0-10.143-5.869-9.324-15.501 0 0-9.996-.222-11.687 4.954 0 0 .031-18.775 6.02-22.961 0 0-10.459-2.14-11.03.941 0 0 3.195-22.888 8.226-26.842 0 0-9.527-2.061-11.602.267 0 0 6.329-22.935 10.738-26.942 0 0-11.212-.639-12.745 2.673 0 0-.639-21.962 2.943-27.29 0 0-6.552-.245-8.316 2.111 0 0-10.1 19.485-16.04 23.05 0 0-5.303-3.893-7.273-2.808 0 0 5.643 18.318 4.646 26.37 0 0-6.809-.892-7.252.636 0 0 5.775 16.765 5.347 25.491 0 0-7.504-3.767-9.04-.455 0 0 1.615 10.465.466 16.627 0 0-13.408-4.268-13.698-.85 0 0 5.159 12.957 3.72 22.536 0 0-11.385-5.974-12.35-1.988 0 0 10.811 9.06 9.345 18.946 0 0-17.6-6.502-25.289-8.094 0 0-17.12-1.14-19.35 3.052 0 0-2.958-13.08-.909-15.1 0 0-16.758 2.02-19.329 6.495 0 0-5.265-11.713-2.615-17.12 0 0-13.303-5.511-15.668.234 0 0 1.489-24.911 9.785-30.466 0 0-1.633-32.374-.172-38.509 0 0 6.182 4.594 8.668 4.805 0 0-1.524-18.907 1.448-31.799l5.561 4.541c0 0 3.227-26.954 7.663-31.27 0 0 2.712 4.925 5.845 4.878 0 0 .446-19.992 3.869-23.457l6.651 2.755c0 0-2.905-13.704-2.087-23.337 0 0 5.309.139 6.736-1.932 0 0-5.49-16.428-5.558-23.01 0 0 6.393 2.108 8.158-.248 0 0-3.052-19.35-1.381-27.971 0 0 6.988 2.471 8.727.428 0 0-3.236-17.17-.627-29.472 0 0 5.745 2.366 7.352 1.876 0 0-3.758-14.715-3.271-27.819 0 0 4.476 2.571 11.544 4.11 0 0-4.585-16.04-4-22.874 0 0 8.768 7.317 15.624 11.341zm-205.71 309.82c11.819 5.335 25.19 6.643 25.19 6.643-2.319-3.98 5.487-10.218 5.487-10.218 25.18 3.09 35.573-9.638 35.573-9.638-2.264.217-3.991-8.302-3.991-8.302 6.922.71 26.869-5.764 26.869-5.764-5.241-2.241-.521-15.03-.521-15.03 13.09-1.707 25.23-22.973 25.23-22.973-4.485.885-13.221-9.248-13.221-9.248 9.164-4.531 23.499-31.49 23.499-31.49-6.21 1.964-16.542-5.733-16.542-5.733 14.04-10.937 22.914-42.4 22.914-42.4-4.096 4.961-12.01 3.431-12.01 3.431 5.368-5.996 8.273-37.805 8.273-37.805-1.918 3.839-11.795 5.696-11.795 5.696 5.282-6.902 4.932-29.718 4.932-29.718-2.414 3.43-9.681 8.693-9.681 8.693 7.849-3.948 13.942-50.23 13.942-50.23-1.013 3.753-10.199 3.259-10.199 3.259 7.956-7.614 14.03-30.13 14.03-30.13-.028 4.572-12.141 2.073-12.141 2.073 5.325-6.449 16.963-37.721 16.963-37.721-.603 3.257-8.302 3.991-8.302 3.991-4.617-10.07-3.522-32.11-3.522-32.11-4.03.842-10.197 12.855-10.197 12.855-2.653-3.86-4.403-17.402-4.403-17.402-4.312 2.696-18.888 12.771-18.888 12.771-3.429-2.415-7.507-11.622-7.507-11.622-8.798 3.582-18.433 22.324-18.433 22.324-1.015-5.844-13.201-13.821-13.201-13.821-.192 12.357-13.172 19.994-13.172 19.994-.519-5.434-15.03-9.08-15.03-9.08 6.472 10.35 7.19 41.814 7.19 41.814-2.933-2-13.715-.061-13.715-.061 6.126 6.727 15.836 31.848 15.836 31.848-2.567-2.954-9.856-2.715-9.856-2.715 6.04 5.822 10.638 30.06 10.638 30.06-2.373-5.714-14.664-.428-14.664-.428 5.587 5.864 10.659 25.488 10.659 25.488-3.646-4.679-11.667-2.542-11.667-2.542 6.622 7.136 14.8 30.576 14.8 30.576-3.409-6.987-12.357-.192-12.357-.192 4.551 4.592 13.07 22.06 13.07 22.06-2.783-5.218-15.16-.838-15.16-.838 4.681 5.951 9.949 32.41 9.949 32.41-1.381-4.895-9.662-5.475-9.662-5.475 5.932 9.487 2.205 23.1 2.205 23.1-3.732-5.585-9.683-.904-9.683-.904 3.129 8.841-10.823 11.09-10.823 11.09-7.418-1.12-9.924-17.789-9.924-17.789-7.91 17.663-14.792 7.81-14.792 7.81-2.935-11.601 3.4-31.399 3.4-31.399-6.34.605-10.652 3.302-10.652 3.302-2.59-7.979 5.298-30.667 5.298-30.667-1.898-.733-9.294 3.172-9.294 3.172-1.77-8.971 12.03-27.2 12.03-27.2-1.855-.28-10.782 1.943-10.782 1.943-.953-19.56 14.956-44.38 14.956-44.38-4.485.885-12.378 4.38-12.378 4.38-1.038-10.868 9.397-26.03 9.397-26.03-4.269 3.15-10.652 3.302-10.652 3.302-.412-9.101 12.91-32.31 12.91-32.31-3.946 1.747-12.421 3.927-12.421 3.927.731-11.494 11.315-29.87 11.315-29.87-2.847-1.099-17.985 3.088-17.985 3.088-1.361-9.467 10.905-29.374 10.905-29.374-5.521-.387-10.113 4.164-10.113 4.164-1.381-4.895 2.929-17.188 2.929-17.188-11.149 2.892-31.968 21.14-31.968 21.14 0 0-4.203-8.244-4.584-20.597 0 0-17.13 12.53-18.05 18.389 0 0 .106-14.07-8.745-17.512 0 0-3.936 9.269-7.328 11.736 0 0-14.729-9.849-19.08-12.479 0 0-1.541 13.568-4.135 17.468 0 0-6.349-11.917-10.394-12.697 0 0 1.433 22.02-3.03 32.16 0 0-7.709-.616-8.362-3.863 0 0 12.12 31.09 17.541 37.456 0 0-12.08 2.685-12.171-1.886 0 0 6.422 22.42 14.493 29.91 0 0-9.178.636-10.248-3.101 0 0 6.803 46.18 14.711 50.01 0 0-7.346-5.151-9.813-8.543 0 0 .0001 22.818 5.388 29.639 0 0-9.904-1.705-11.881-5.514 0 0 3.393 31.761 8.852 37.674 0 0-7.89 1.651-12.06-3.247 0 0 9.36 31.33 23.563 42.05 0 0-10.212 7.854-16.452 5.986 0 0 14.747 26.736 23.98 31.13 0 0-8.579 10.267-13.08 9.45 0 0 12.462 21.08 25.576 22.583 0 0 4.916 12.715-.29 15.04 0 0 20.04 6.167 26.954 5.35 0 0-1.596 8.543-3.863 8.362 0 0 12.6.997 16.838-1.993 0 0 1.755 8.234 4.806 13.11 0 0 10.749-5.873 17.474-6.515 0 0 6.62 8.416 15.221 10.503 0 0 9.285-7.672 14.592-6.24 0 0 8.709 6.601 15.07 8.902 0 0-2.686-7.822-.566-9.317zm-365.79 59.59c0 0 2.189 8.584-.931 12.489 0 0 14.38-7.452 19.448-13.353 0 0 6.06 9.166 4.889 11.583 0 0 14.392-9.993 16.359-16.06 0 0 6.56 6.634 6.157 9.981 0 0 12.854-12.869 13.757-19.258 0 0 5.108 6.097 4.517 8.322 0 0 10.835-16.263 11.05-20.733 0 0 14.533 7.564 14.712 10.719 0 0 3.662-22.364 3.36-26.02 0 0 16.08 8.02 15.07 13.02 0 0 3.181-22.2 5.01-29.941 0 0 11.404 13.144 11.447 15.872 0 0 6.197-23.888 5.23-30.25 0 0 8.71 2.701 9.844 5.88 7.833 14.612 6.765-15.528 3.525-23.887 0 0 9.989 7.299 10.458 9.571 0 0-.502-24.16-2.3-28.24 0 0 10.41 4.311 11.968 7.02 0 0-1-26.385-2.549-28.2 0 0 10.458 6.778 10.924 8.823 0 0-1.412-24.09-4.756-29.99 0 0 10.69 4.21 11.578 5.572 0 0-1.886-19.918-9.136-29.455 0 0 13.12 4.178 13.994 4.855 0 0-11.05-24.648-14.163-29.413 0 0 12.994 1.329 14.539 3.144 0 0-8.974-21.352-11.426-25.664 0 0 13.496 3.538 14.395 5.582 0 0-9.05-24.25-12.607-29.691 0 0 9.939-.044 12.153 2.904 0 0-7.857-32.933-11.204-39.06 0 0 11.441 1.151 12.567 3.875 0 .033-2.558-3.918-8.193-28.902 0 0 9.805 3.096 11.571 5.136 0 0-5.317-20.846-9.104-27.428 0 0 8.854-17.254 12.158-13.854 0 0-5.574-17.509-9.595-25.23 0 0 2.033-13.231 11.492-18.04 0 0-4.502-10.673-9.06-10.886 0 0 2.052-7.283 3.569-7.287 0 0-14.919 2.093-19.835 6.431 0 0-2.718-7.495-.161-10.232 0 0-17.05 4.375-18.901 10.748 0 0-7.269-7.48-6.04-12.03 0 0-12.709 4.816-17.877 20.75 0 0-8.721-3.382-11.332-4.056 0 0-3.335 8.424-7.423 10.256 0 0-7.183-2.024-8.406-10.888 0 0-18.12 5.061-19.361 22.801-.895-1.816-15.29-7.681-19.759-16.307 0 0 1.593 18.641 11.306 29.979 0 0-4.219 7.289-7.744 3.663 0 0 3.959 17.496 12.11 26.11 0 0-6.592 7.98-13.15 4.363 0 0 3.244 13.405 11.16 20.656 0 0-5.559 4.793-11.64 3.903 0 0 1.796 17.73 11.195 22.93 0 0-8.08 10.03-11.31 11.178 0 0 5.82 11.805 8.889 14.07 0 0-4.173 10.246-7.207 10.255 0 0 3.02 13.179 8.939 17.252 0 0-10.663 10.949-12.635 9.591 0 0 2.48 6.132 8.832 10.431 0 0-9.745 12.929-13.572 9.729-2.869 3.905 4.59 32.21 4.59 32.21-.565-1.538-14.834-7.03-14.834-7.03 1.953 6.537 3.01 26.879 3.01 26.879-.0001-2.096-13.727-7.865-13.727-7.865 1.106 2.136 3.365 29.647 3.365 29.647-.918-3.02-17.252-11.417-17.252-11.417.848 4.401-1.337 30.496-1.337 30.496.046-2.317-10.763-14.387-10.763-14.387.637 6.445-8.737 22.296-8.737 22.296-.401-3.359-8.3-8.103-8.3-8.103-.468 6.405-12.01 19.859-12.01 19.859.563-2.655-5.729-11.818-5.729-11.818-3.5 7.05-15.936-1.628-15.936-1.628 0 0 1.791 22.593 10.349 28.34 0 0-7.515 5.911-11.795 15.765 0 0 17.188 22.13 22.956 25.444 0 0-10.98 5.523-12.497 3.307 0 0 20.628 17.447 31.84 22.901z" style="fill:url(#5);stroke:#00aad4"/></g></g></svg>