<svg xmlns="http://www.w3.org/2000/svg" width="256" height="64" xmlns:xlink="http://www.w3.org/1999/xlink"><defs><path id="0" d="m671.85 252.42c34.3 0 67.968-9.164 73.26-46.18 2.297-16.08 5.545-21.413 1.291-37.26 3.849-.025 15.677-2.473 15.933-6.305 3.551-1.969 3.33-5.71 3.576-7.63.362-2.828-15.31-4.422-20.814-3.199-.162-4.158-.771-11.494-7.963-11.546-16.759-.12-10.16 19.322-12.939 34.439-7.02 38.18-13.942 33.542-66.872 26.926-7.214-2.125-14.668-4.01-22.495-5.574-5.666-1.133-13.311-4.237-19.907-2.588-23.856 5.964-23.459 33.29-19.309 51.956 5.293 5.293 9.171-1.336 13.736-4.379 2.813-1.875 6.933-1.183 9.953-2.19 11.839-3.946 27.526 9.668 39.02 12.541 4.159 1.04 9.204 1.607 13.537.995"/><path id="1" d="m713.68 232.07c11.02 10.748 41.665 11.204 41.665 30.12-12.438 10.922-28.808 17.407-42.51 20.833-3.423 1.913-6.726 3.378-10.979 3.378-.183-1.617.101-3.341.282-4.786 2.512-1.812 3.046-2.534 6.194-2.534 11.281-5.661 24.923-10.365 31.27-16.863-9.583-7.134-26.04-7.419-29.861-18.89 1.759-4.03 3.449-7.322 3.941-11.261"/><path id="2" d="m730.29 142.55c-2.24-5.813-8.864-7.161-14.639-7.883-.204 9.09 6.708 12.234 12.95 13.795.61-2.742.566-3.947 1.689-5.912"/><path id="3" d="m563.09 247.65c-4.535 6.59-14.474 1.358-23.09-.796-1.28-1.099-3.679 0-4.379 0-4.325 2.188-6.968.472-10.351-.796-.271 2.551-.489 3.518-.796 5.972 3.192.203 6.96-.074 9.555-.398 8.55 4.874 27.609 7.66 29.06-3.981"/><path id="4" d="m730.38 227.53c48.987-3.312 20.12 31.12-5.972 39.813-7.507 2.502-16.266 1.976-23.49 3.782-2.034.453-3.556 1.577-4.977 2.389-1.354-.912-1.971-2.654-2.389-3.384 1.465-2.119 1.922-2.588 4.18-2.588 4.523-5.897 17.498-4.424 24.485-6.171 8.514-2.562 15.507-20.305 23.888-20.305-5.772-3.562-16.603.183-19.907-3.782.409-3.728 1.872-7.06 4.18-9.754"/><path id="5" d="m603.57 201.46c-18.267 20.619 14.328 56.47-33.713 45.796-16.361-3.175-17.798 15.925-37.823 15.925-2.519.653-5.327-.635-5.972-.796-1.028 1.801-.734 3.335-1.194 5.176 2.551.217 5.146-.146 7.166-.398 14.766 1.189 24.619-2.788 32.25-11.944 68.937 45.01 81.5-64.31 39.29-53.759"/><path id="6" d="m697.9 113.09c-3.326-9.712-10.934-14.05-19.988-18.581-3.366-1.683-9.09.802-12.387-.845-6.089-3.044-7.671-4.944-14.921-6.757 4.01-.606 8.612.337 11.824 1.408 4.189 1.396 9.872.009 13.795 1.971 3.237 1.619 6.669 4.883 10.416 6.757 1.099.549 2.119.074 3.097.563 3.841 1.92 8.111 5.577 11.542 9.01.998.998 1.52 5.968 1.971 7.32-1.697-.874-3.543-.393-5.349-.845"/><path id="7" d="m658.76 88.32c-2.355-4.515-4.786-7.894-4.786-13.795 3.164 3.62 4.359 8.908 7.72 12.27.891.891 1.206 2.301 1.792 2.886-1.688-.161-3.574-.416-4.726-1.362"/><path id="8" d="m695.24 102.62c-.004-1.114.443-2.127.896-3.185 1.184-2.763 3.076-5.05 5.375-6.967.729-.607 1.516-1.327 2.289-1.792.104-.062.896-.522.896-.498 0 .223-.412.175-.597.299-.432.288-.793 1.09-1.095 1.493-.262.349-.257.933-.498 1.294-1.428 2.142-1.96 4.417-3.086 6.669-.806 1.613-.83 3.42-1.493 5.076-.385.963-.336 3.01-.597 2.488-.776-1.552-.709-3.496-2.09-4.877"/><path id="9" d="m655.23 133.67c-.42-1.338-2.344-2.057-2.787-3.384-.906-2.719 1.625-6.47 3.782-6.47-1.229 1.887-.747 6.27.199 8.162.576 1.153 2.197 2.186 2.19 2.19-.674.337-2.726-.234-3.384-.498"/><path id="A" d="m682.7 141.04c-.873-2.088-2.701-7.153-.796-9.06.463-.463 1.208-.611 1.692-1.095.274 1.482-.645 2.842-.199 4.18 1.183-1.166 3.295-1.707 3.882-2.588-1 1.47-1.803 2.621-2.289 4.081-1.161.498-1.393 1.134-1.393 2.09 1.653-.359 3.077-1.424 4.479-1.891-1.199.76-2.057 2.156-2.588 2.687-.136 1.293.559 3.844-.995 2.289-.257-.257-1.447-.451-1.792-.697"/><path id="B" d="m666.08 89.73c-2.848-6.894.609-17.219 4.504-21.11.6 3.743-1.689 5.436-1.689 8.727 2.434-1.095 4.668-1.689 7.32-1.689-2.321 1.456-4.441 3.92-6.194 4.504 0 1.501 0 3 0 4.504 2.523.018 5.443-1.267 6.475-2.815-1.859 2.219-3 3.721-5.349 4.504.035 1.897-.25 3.973.845 5.067-2.851.309-3.888-.171-5.912-1.689"/><path id="C" d="m695.21 153.9c-3.326-9.712-12.925-10.271-21.979-14.798-3.366-1.683-9.09.802-12.387-.845-6.089-3.044-7.671-4.944-14.921-6.757 4.01-.606 8.612.337 11.824 1.408 4.189 1.396 9.872.009 13.795 1.971 3.237 1.619 5.773 2.494 9.521 4.368 1.099.549 4.707 1.268 5.685 1.757 3.841 1.92 8.409 2.989 11.841 6.421.998.998 1.52 5.968 1.971 7.32-1.697-.874-3.543-.393-5.349-.845"/><path id="D" d="m692.75 146.11c.128-2.3 1.911-4.817 3.583-5.375-.511 2.048-1.991 5.133-1.991 7.166-.32-.801-1.013-1.101-1.593-1.792"/></defs><g transform="matrix(1.206-.1.1 1.206-428.27-71.875)"><g transform="matrix(.197 0 0 .197 280.26 89.81)"><path d="m585.69 148.97c7.197-.821 14.642-.617 21.979 0 8.596.722 12.675 11.978 5.565 16.88-1.744 1.202-3.899 2.02-5.958 1.265-6.151-2.246-.89-10.756 1.324-5.25-3.492-1.027-1.084 3.897.806 2.667.685-.446 1.31-1.365 1.535-1.931.416-1.046-.516-3.961-.904-4.996-1.179-3.147-9.403-3.184-11.68-1.26-1.214 1.026-2.097 3.252-2.637 4.731-.826 2.263-.613 4.965-.502 7.33.183 3.884.281 7.434 1.362 11.214 1.649 5.764 4.7 6.823 4.719 13.216.548 38.443-58.739 30.22-115.25 28.531-54.42-1.627-24.794-46.674-30.351-61.872-7.07-19.351-35.08 2.257-16.562 6.292 7.234 1.576 8.116-7.716.919-6.896 14.63-5.776 13.12 16.925-1.085 16.99-11.627.053-18.327-5.737-19.631-12.11-1.09-5.33-1.802-9.706 2.089-13.981 9.277-10.192 29.16-8.03 41.43-8.52 8.623-.342 26.972-1.08 35.62-.354 3.9 4.253 3.693 43.952 7.05 46.625 15.196 0 23.756.268 28.25.354 5.697.108 21.721 0 30.07 0 6.908-5.295 14.12-38.891 14.381-38.921 1.592-.182 5.639-.407 7.456 0z" style="stroke:#000;stroke-width:.417"/><path d="m528.65 192.06c1.756 0 2.524 2.964 2.305 3.403-.22.439 2.744-4.5 4.61-5.05 1.866-.549 3.293 4.281 3.293 4.281 0 0 2.634-4.61 1.976-5.488 0 0 5.488 3.732 8.01 3.842 0 0-3.073-3.512-.439-6.366 0 0 3.951 0 5.268 2.195 0 0 .329-4.39-.659-6.256 0 0 4.939 1.976 5.05 3.183 0 0 .439-2.744-.768-5.378 0 0 4.61.878 5.378.11 0 0-2.634-1.756-3.842-4.939 0 0 3.732-.11 5.378 2.085 0 0 .768-5.05-.659-7.02 0 0 3.403-.988 4.39-3.512 0 0-1.756.439-4.5-1.098 0 0 4.281.439 5.159-3.403 0 0-2.964 1.537-4.829-4.061 0 0 2.415-1.537 4.171-.22 0 0 .549-3.512-2.744-5.05 0 0 2.305-.768 2.415-2.305 0 0-3.622 1.317-4.939-1.866 0 0 1.976-2.964 4.061-1.098 0 0-1.646-5.268-5.488-5.378 0 0 2.964.11 3.512-6.147 0 0-2.305 2.305-4.829 2.085-2.524-.22-4.061-2.964-.659-4.5 0 0-3.842.549-5.708.549-1.866 0 .22-1.976.878-2.415 0 0-3.073.549-4.061.329-.988-.22-1.207-2.524.659-4.281 0 0-2.524 1.976-3.512 1.976-.988 0-1.317-4.939 1.317-6.476 0 0-4.39 1.098-5.05 3.073 0 0-.11-4.281-2.634-7.02 0 0-1.098 7.02-5.927 8.122 0 0-1.866-2.634.439-4.39 0 0-4.5.22-5.817 1.537 0 0 3.293-5.817 6.421-6.421 0 0-7.519-.823-16.08 9.824 0 0-2.744-.988-1.537-6.476 0 0-3.403 5.05-4.281 6.04-.878.988-2.524 1.537-2.524 1.537 0 0-1.098-1.427-.329-5.05 0 0-3.512 3.073-5.598 5.05-2.085 1.976-3.073-2.085-3.293-3.842 0 0-1.866 2.524-1.756 5.378 0 0-6.147 3.183-8.232 3.403 0 0 1.646 1.427 1.866 2.305 0 0-6.04 2.415-6.805 4.829 0 0 5.927-.988 6.366 0 0 0-2.634 6.256-6.915 6.256 0 0 .439 3.293 2.305 2.195 0 0-3.293 4.061-3.732 7.464 0 0 3.403-2.634 4.281-1.427 0 0-.768 3.403-2.415 4.5-1.646 1.098-3.732 2.524-4.39 1.866 0 0 1.976 3.403 4.39 2.085 0 0-2.305 5.05-1.646 7.903 0 0 1.427-2.415 3.512-2.415 2.085 0 1.756 2.415 1.098 3.512-.659 1.098-2.854 4.281-3.293 4.39 0 0 3.842.329 4.5-.768 0 0-1.098 3.512.439 5.708 0 0 2.854-2.524 3.842-2.744 0 0 1.098 6.695 2.415 8.342 0 0 1.537-3.732 2.524-4.61 0 0 .988 3.951 3.073 5.817 0 0 .988-2.415.988-3.512 0 0 1.866 4.61 3.842 6.092 0 0 .549-2.36.988-2.25 0 0 1.207 3.293 3.732 4.39 0 0 1.317-2.854 1.866-3.073 0 0 4.171 2.085 5.05 4.5 0 0 1.976-1.756 2.085-3.842 0 0 2.634 1.427 3.073 2.744 0 0 .549-2.854 2.964-2.744"/><g transform="matrix(.667 0 0 .667 191.47 44.822)"><path d="m461.68 114.89c-2.585-5.858-2.666 16.798-1.682 13.174.074-.273-3.136 4.297-2.233 8.784.427 2.124 2.962 2.386 4.523 3.424 1.049.698 1.465-2.495 1.503-2.47 1.294.86 2.484 2.721 4.714 2.718 2.526-.003 2.068-3.083 3.169-3.305.434-.087 4.437 3.344 6.03.954 1.937-2.913 3.344 1.419 6.729-.521 4.546-2.605 11.483-3.311 15.987-4.218 1.683-.339 4.136.251 5.704-.648.577-.331.967-1.968 1.376-1.444 1.016 1.302 2.103 1.858 3.977 2.367 2.536.688 2.587-1.804 3.393-3.02.939-1.413 4.124.894 5.063-.519.537-.808 1.08-2.751 1.888-2.214 1.066.709 3.634 2.634 5.418 1.243.35-.273 1.875-2.222 2.081-2.086 3.563 2.369 5.128 1.471 7.177-1.611.383-.576-1.716-8.525-1.999-9.932-.12-.597 1.21-.56 1.441-1.123.978-2.384-1.948-6.366-2.253-7.881-.132-.655 2.238-2.397.252-3.718-.929-.618-3.288-2.225-4.777-1.372-.2.114-.801 2.062-.959 1.86-4.607-5.908-6.674.843-7.145.938-1.205.243-3.885-1.218-5.673-.858-.953.192-2.438 2.367-2.529 2.343-1.374-.373-2.162-1.232-3.687-.925-1.22.246-2.309 3.1-3.074 2.119-3.258-4.178-8.107-.869-10.1-.468-6.04 1.216-8.206 3.679-13.906 2.132-1.371-.372-2.793 4.345-3.073 2.952-.912-4.531-10.06 1.737-10.157 1.711-3.857-1.047-5.684-.753-7.177 1.611"/><path d="m433.65 78.36c-9.9 5.282-12.04 15.309-19.524 20.599.58 3.693.838 6.179-1.238 9.584 8.456 9.684 17.266-1.739 26.529-4.84 9.113-3.05 31.979-1.879 25.365 12.563 17.09-1.339 40.486 3.553 55.24-7.952 2.347-1.83 5.517-.93 6.517-4.062.395-44.36-65.05-40.746-92.89-25.892"/><path d="m405.16 99.93c-.927-5.211.201-5.555 3.104-3.625.07.046 1.23-1.978 1.407-2.117 1.134-.884 4.65 2.564 3.24 2.848-1.22.246 2.038-2.808 3.074-2.119.865.575 6.279 9.131 5.941 9.639-.606.912-4.213 1.181-3.139.965.062-.013 1.185 4.095-1.084 4.552-.946.19-3.831-.062-2.885-.253 1.481-.298.194 3.641-1.116 4.392-.471.27-1.649 1.143-2.306.964-1.037-.281-1.869-3.438-2.15-2.401-.377 1.388-2.141 4.96-4.675 3.275-.998-.663.289-2.861-.709-3.524-1.251-.832-4.381 3.476-6.06.552-1.458-2.544 2.708-2.279 2.496-3.336-.07-.347-3.984-1.939-2.633-3.971.416-.626 2.387-.459 2.787-1.061.63-.947-1.746-1.882-1.606-3.01.342-2.762 2.644-.699 3.332-.837.921-.185-.014-5.735 2.979-.933"/></g><g style="fill:none;stroke:#000;stroke-width:3"><path d="m427.09 223.31c1.12-1.189 7.881-9.443 9.899-7.425 3.53 3.53 4.439 19.393 8.839 20.86 14.172 4.724 128.91 8.236 144.25 6.718 15.04-1.489 18.505-2.888 30.406-8.839 9.366-4.683 3.182-23.888 1.061-31.82-2.451-9.166-7.136-20.729-2.828-29.345 4.335-8.671 18.19 2.318 14.496 6.01-4.495 4.495-7.778 2.37-7.778-1.414" style="stroke-linecap:round"/><path d="m474.12 216.24c-.654 10.554-8.388 15.916-12.02 22.274"/><path d="m509.12 219.07c.434 8.09-1.37 16.09-3.182 23.335"/><path d="m546.95 219.78c2 7.572 1.175 15.768 2.121 23.335"/><path d="m581.24 214.83c3.393 11.457 12.607 20.12 17.678 27.22"/><path d="m469.52 227.2c0 0 67.882 9.899 118.79 2.121"/></g></g><path d="m387.66 121.43c4.436-.848 9.823-3.337 14.563-2.044 5.377 1.467 8.178 5.323 13.285 7.03 2.46.82 5.12.513 7.665 1.022 7.29 1.458 19.444-6.884 22.994-5.11 4.076 2.038 10.423 5.73 15.457 4.471 2.562-.641 20.443-5.577 21.08-5.365 4.982 1.661 12.437 6.556 18.651 3.449 2.472-1.236 8.621-3.37 11.369-2.683 5.549 1.387 8.675 5.794 15.202 4.343" style="fill:none;stroke:#000;stroke-width:.361"/><g transform="matrix(.361 0 0 .361 231.69 88.26)"><g transform="matrix(.358 0 0 .358 294.9 29.64)"><use xlink:href="#0"/><path d="m730.38 227.53c48.987-3.312 20.12 31.12-5.972 39.813-7.507 2.502-16.266 1.976-23.49 3.782-2.034.453-3.556 1.577-4.977 2.389-1.354-.912-1.971-2.654-2.389-3.384 1.465-2.119 1.922-2.588 4.18-2.588 4.523-5.897 17.498-4.424 24.485-6.171 8.514-2.562 15.507-20.305 23.888-20.305-5.772-3.562-16.603.183-19.907-3.782.409-3.728 1.872-7.06 4.18-9.754"/><use xlink:href="#1"/><path d="m741.55 141.99c.512-5.709-.923-11.05-2.815-14.358-2.62 4.899-2.445 9.426-3.097 14.639 2 .117 3.946-.036 5.912-.282"/><use xlink:href="#2"/><g transform="matrix(1.065.293-.293 1.065 20.13-182.03)"><use xlink:href="#6"/><path d="m666.08 89.73c-2.848-6.894.609-17.219 4.504-21.11.6 3.743-1.689 5.436-1.689 8.727 2.434-1.095 4.668-1.689 7.32-1.689-2.321 1.456-4.441 3.92-6.194 4.504 0 1.501 0 3 0 4.504 2.523.018 5.443-1.267 6.475-2.815-1.859 2.219-3 3.721-5.349 4.504.035 1.897-.25 3.973.845 5.067-2.851.309-3.888-.171-5.912-1.689"/><use xlink:href="#7"/><path d="m682.6 96.05c-.333-4.603-.008-10.313 3.782-12.84.561-.374 1.327-.83 1.792-1.294.307-.307.566-.88.995-1.095.466-.233 1.084-.487 1.393-.796-.652 1.282-.649 2.744-1.095 4.081-.417 1.25-1.635 2.402-1.891 3.683-.782 3.912-1.254 7.585 0 11.347-.44-2.01-3.534-1.643-4.081-2.19-.33-.33-.281-.404-.896-.896"/><use xlink:href="#8"/></g><g transform="matrix(1.105 0 0 1.105-40.789-23.774)"><path d="m695.21 153.9c-3.326-9.712-12.925-10.271-21.979-14.798-3.366-1.683-9.09.802-12.387-.845-6.089-3.044-7.671-4.944-14.921-6.757 4.01-.606 8.612.337 11.824 1.408 4.189 1.396 9.872.009 13.795 1.971 3.237 1.619 5.773 2.494 9.521 4.368 1.099.549 4.707 1.268 5.685 1.757 3.841 1.92 8.409 2.989 11.841 6.421.998.998 1.52 5.968 1.971 7.32-1.697-.874-3.543-.393-5.349-.845"/><use xlink:href="#9"/><path d="m667.37 134.47c-.151-1.968-.907-5.159.299-6.967.863-1.294 1.891-1.381 1.891-3.384.518.991 1.518 3.658.597 4.579 1.676-.481 3.991-1.291 5.773-.697-1.136.346-5.673 2.602-5.673 2.986-.902 2.789 1.593 3.489 1.593 5.872-1.566-1.091-4.03-.602-4.479-2.389"/><use xlink:href="#A"/><path d="m692.75 146.11c.128-2.3 1.911-4.817 3.583-5.375-.511 2.048-1.991 5.133-1.991 7.166-.32-.801-1.013-1.101-1.593-1.792"/></g><path d="m603.57 201.46c-18.267 20.619 14.328 56.47-33.713 45.796-16.361-3.175-17.798 15.925-37.823 15.925-2.519.653-5.327-.635-5.972-.796-1.028 1.801-.734 3.335-1.194 5.176 2.551.217 5.146-.146 7.166-.398 14.766 1.189 24.619-2.788 32.25-11.944 68.937 45.01 81.5-64.31 39.29-53.759"/><use xlink:href="#3"/><path d="m599.19 212.6c-4.753-5.263-8.352-7.89-9.157-14.333.971 1.766 2.767 2.371 2.787 2.389.152-1.974-.172-3.37-.398-5.176 4.337 3.316 6.304 5.333 10.75 4.778-1.894 4.58-1.673 8.302-3.981 12.342"/></g><path d="m566.75 87.19c.463 8.159-2.919 10.861-7.425 13.435" style="fill:none;stroke:#000"/></g><g transform="matrix(.361 0 0 .361 231.69 88.26)"><g transform="matrix(.358 0 0 .358 387.54 30.759)"><use xlink:href="#0"/><use xlink:href="#4"/><use xlink:href="#1"/><path d="m741.55 141.99c.512-5.709-.923-11.05-2.815-14.358-2.62 4.899-2.445 9.426-3.097 14.639 2 .117 3.946-.036 5.912-.282"/><use xlink:href="#2"/><g transform="matrix(1.065.293-.293 1.065 20.13-182.03)"><use xlink:href="#6"/><use xlink:href="#B"/><use xlink:href="#7"/><path d="m682.6 96.05c-.333-4.603-.008-10.313 3.782-12.84.561-.374 1.327-.83 1.792-1.294.307-.307.566-.88.995-1.095.466-.233 1.084-.487 1.393-.796-.652 1.282-.649 2.744-1.095 4.081-.417 1.25-1.635 2.402-1.891 3.683-.782 3.912-1.254 7.585 0 11.347-.44-2.01-3.534-1.643-4.081-2.19-.33-.33-.281-.404-.896-.896"/><use xlink:href="#8"/></g><g transform="matrix(1.105 0 0 1.105-40.789-23.774)"><use xlink:href="#C"/><use xlink:href="#9"/><path d="m667.37 134.47c-.151-1.968-.907-5.159.299-6.967.863-1.294 1.891-1.381 1.891-3.384.518.991 1.518 3.658.597 4.579 1.676-.481 3.991-1.291 5.773-.697-1.136.346-5.673 2.602-5.673 2.986-.902 2.789 1.593 3.489 1.593 5.872-1.566-1.091-4.03-.602-4.479-2.389"/><use xlink:href="#A"/><use xlink:href="#D"/></g><use xlink:href="#5"/><use xlink:href="#3"/><path d="m599.19 212.6c-4.753-5.263-8.352-7.89-9.157-14.333.971 1.766 2.767 2.371 2.787 2.389.152-1.974-.172-3.37-.398-5.176 4.337 3.316 6.304 5.333 10.75 4.778-1.894 4.58-1.673 8.302-3.981 12.342"/></g><path d="m659.02 87.9c-1.79 5.911-2.348 9.763-7.425 11.667" style="fill:none;stroke:#000"/><g transform="matrix(.358 0 0 .358 477.34 27.22)"><use xlink:href="#0"/><use xlink:href="#4"/><use xlink:href="#1"/><path d="m741.55 141.99c.512-5.709-.923-11.05-2.815-14.358-2.62 4.899-2.445 9.426-3.097 14.639 2 .117 3.946-.036 5.912-.282" id="E"/><use xlink:href="#2"/><g transform="matrix(1.065.293-.293 1.065 20.13-182.03)"><use xlink:href="#6"/><use xlink:href="#B"/><use xlink:href="#7"/><path d="m682.6 96.05c-.333-4.603-.008-10.313 3.782-12.84.561-.374 1.327-.83 1.792-1.294.307-.307.566-.88.995-1.095.466-.233 1.084-.487 1.393-.796-.652 1.282-.649 2.744-1.095 4.081-.417 1.25-1.635 2.402-1.891 3.683-.782 3.912-1.254 7.585 0 11.347-.44-2.01-3.534-1.643-4.081-2.19-.33-.33-.281-.404-.896-.896"/><use xlink:href="#8"/></g><g transform="matrix(1.105 0 0 1.105-40.789-23.774)"><use xlink:href="#C"/><use xlink:href="#9"/><path d="m667.37 134.47c-.151-1.968-.907-5.159.299-6.967.863-1.294 1.891-1.381 1.891-3.384.518.991 1.518 3.658.597 4.579 1.676-.481 3.991-1.291 5.773-.697-1.136.346-5.673 2.602-5.673 2.986-.902 2.789 1.593 3.489 1.593 5.872-1.566-1.091-4.03-.602-4.479-2.389" id="G"/><use xlink:href="#A"/><use xlink:href="#D"/></g><use xlink:href="#5"/><use xlink:href="#3"/><path d="m599.19 212.6c-4.753-5.263-8.352-7.89-9.157-14.333.971 1.766 2.767 2.371 2.787 2.389.152-1.974-.172-3.37-.398-5.176 4.337 3.316 6.304 5.333 10.75 4.778-1.894 4.58-1.673 8.302-3.981 12.342" id="F"/></g><path d="m748.47 84.72c.203 6.294-2.164 10.352-7.425 11.667" style="fill:none;stroke:#000"/><g><g transform="matrix(.358 0 0 .358 563.61 31.11)"><use xlink:href="#0"/><use xlink:href="#4"/><use xlink:href="#1"/><use xlink:href="#E"/><use xlink:href="#2"/><g transform="matrix(1.065.293-.293 1.065 20.13-182.03)"><use xlink:href="#6"/><use xlink:href="#B"/><use xlink:href="#7"/><path d="m682.6 96.05c-.333-4.603-.008-10.313 3.782-12.84.561-.374 1.327-.83 1.792-1.294.307-.307.566-.88.995-1.095.466-.233 1.084-.487 1.393-.796-.652 1.282-.649 2.744-1.095 4.081-.417 1.25-1.635 2.402-1.891 3.683-.782 3.912-1.254 7.585 0 11.347-.44-2.01-3.534-1.643-4.081-2.19-.33-.33-.281-.404-.896-.896"/><use xlink:href="#8"/></g><g transform="matrix(1.105 0 0 1.105-40.789-23.774)"><use xlink:href="#C"/><use xlink:href="#9"/><use xlink:href="#G"/><use xlink:href="#A"/><use xlink:href="#D"/></g><use xlink:href="#5"/><use xlink:href="#3"/><use xlink:href="#F"/></g><path d="m838.80543 86.77305a.68501 .68501 0 1 1 -1.37002 0 .68501 .68501 0 1 1 1.37002 0" transform="translate(-.133-.309)" style="fill:#f00"/></g><path d="m834.74 88.25c.86 8.05-2.71 9.443-9.192 10.253" style="fill:none;stroke:#000"/></g></g></svg>