<svg xmlns="http://www.w3.org/2000/svg" width="32" height="32" xmlns:xlink="http://www.w3.org/1999/xlink"><g transform="matrix(.696 0 0 .696 118.18-1083.92)"><path d="m-146.81 1561.78v38.449" id="0" style="fill:none;stroke:#e2e2ef"/><path d="m-130.16 1571.39l-33.3 19.225" id="1" style="fill:none;stroke:#e2e2ef"/><path d="m-130.16 1590.61l-33.3-19.225" id="2" style="fill:none;stroke:#e2e2ef"/><use xlink:href="#0"/><use xlink:href="#1"/><use xlink:href="#2"/><g style="stroke:#e2e2ef;stroke-width:.593"><path d="m-141.11 1571.13l-11.397 19.739" style="fill:none"/><path d="m-135.42 1581h-22.793" style="fill:#fff"/><path d="m-141.11 1590.87l-11.397-19.74" style="fill:none"/></g><g style="fill:#e2e2ef"><path d="m-145.31045 1581.7957a6.938485 6.938485 0 1 1 -13.87697 0 6.938485 6.938485 0 1 1 13.87697 0" transform="translate(5.436-.796)"/><path d="m-147.91 1574.37l-3.219-6.813 4 3.125-2.813-5.188 2.938 2.063c0 0-1.264-3.091-1.264-4.717 0-1.627 1.451-4.03 1.451-4.03 0 0 1.451 2.406 1.451 4.03 0 1.627-1.264 4.717-1.264 4.717l2.938-2.063-2.813 5.188 4-3.125-3.219 6.813"/><path d="m-143.96 1574.74l1.391-2.409c0 0-.277-2.145.285-3.119.563-.974 2.777-1.247 3.618-2.422-.597 1.315.274 3.37-.289 4.344-.563.974-2.559 1.806-2.559 1.806l-1.391 2.409"/><path d="m-141.78 1576.88l4.29-6.194-.706 5.03 3.086-5.03-.317 3.575c0 0 2.045-2.64 3.453-3.453 1.409-.813 4.218-.759 4.218-.759 0 0-1.358 2.46-2.767 3.273-1.409.813-4.717 1.264-4.717 1.264l3.255 1.513-5.899.158 4.706 1.902-7.509.619"/><path d="m-140.11 1580.39h2.781c0 0 1.719-1.313 2.844-1.313 1.125 0 2.469 1.781 3.906 1.922-1.437.141-2.781 1.922-3.906 1.922-1.125 0-2.844-1.313-2.844-1.313h-2.781"/><path d="m-140.88 1583.47l7.509.619-4.706 1.902 5.899.158-3.255 1.513c0 0 3.309.451 4.717 1.264 1.409.813 2.767 3.273 2.767 3.273 0 0-2.81.054-4.218-.759-1.409-.813-3.453-3.453-3.453-3.453l.317 3.575-3.086-5.03.706 5.03-4.29-6.194"/><path d="m-143.19 1586.73l1.39 2.409c0 0 1.996.832 2.559 1.807.563.974-.308 3.03.289 4.344-.84-1.175-3.055-1.448-3.618-2.422-.563-.974-.285-3.119-.285-3.119l-1.391-2.409"/><path d="m-145.72 1587.55l3.219 6.813-4-3.125 2.812 5.187-2.938-2.063c0 0 1.264 3.091 1.264 4.717 0 1.627-1.452 4.03-1.452 4.03 0 0-1.451-2.406-1.451-4.03 0-1.626 1.264-4.717 1.264-4.717l-2.938 2.063 2.812-5.188-4 3.125 3.219-6.812"/><path d="m-150.11 1587.18l-1.391 2.409c0 0 .277 2.145-.285 3.119-.563.974-2.777 1.247-3.618 2.422.597-1.315-.274-3.37.289-4.344.563-.974 2.559-1.806 2.559-1.806l1.391-2.409"/><path d="m-152.28 1585.04l-4.29 6.194.706-5.03-3.086 5.03.317-3.575c0 0-2.045 2.64-3.453 3.453-1.409.813-4.218.759-4.218.759 0 0 1.358-2.46 2.767-3.273 1.409-.813 4.717-1.264 4.717-1.264l-3.255-1.513 5.899-.158-4.706-1.902 7.509-.619"/><path d="m-153.64 1581.61h-2.781c0 0-1.719 1.313-2.844 1.313-1.125 0-2.469-1.781-3.906-1.922 1.437-.141 2.781-1.922 3.906-1.922 1.125 0 2.844 1.313 2.844 1.313h2.781"/><path d="m-153.19 1578.45l-7.509-.619 4.706-1.902-5.899-.158 3.255-1.513c0 0-3.309-.451-4.717-1.264-1.409-.813-2.767-3.273-2.767-3.273 0 0 2.81-.054 4.218.759 1.409.813 3.453 3.453 3.453 3.453l-.317-3.575 3.086 5.03-.706-5.03 4.29 6.194"/><path d="m-150.88 1575.19l-1.39-2.409c0 0-1.996-.832-2.559-1.806-.563-.974.308-3.03-.289-4.344.84 1.175 3.055 1.448 3.618 2.422.563.974.285 3.119.285 3.119l1.391 2.409"/></g></g></svg>