<svg xmlns="http://www.w3.org/2000/svg" width="32" height="32" xmlns:xlink="http://www.w3.org/1999/xlink"><defs><path id="0" d="m-232.88 1614.53l1.95-6.806 1.95 6.806-1.95-1.9c-.343.517-1.95 1.9-1.95 1.9z" style="fill:none;stroke:#e2e2ef"/><path id="1" d="m-230.91 1612.84v7.635" style="fill:none;stroke:#e2e2ef;stroke-width:1.114"/></defs><g transform="matrix(.84 0 0 .84 210.35-1347.75)"><path d="m-220 1626.33l-7.45-1.883-2.094 7.394-2.094-7.394-7.45 1.883 5.356-5.51-5.356-5.51 7.45 1.883 2.094-7.394 2.094 7.394 7.45-1.883-5.356 5.51z" transform="matrix(.674.389-.389.674 554.01 621.71)" style="fill:none;stroke:#e2e2ef;stroke-linecap:round;stroke-width:2"/><g><use xlink:href="#0"/><path d="m-230.91 1612.84v7.635" style="fill:none;stroke:#e2e2ef;stroke-width:1.114"/></g><g transform="matrix(.5.866-.866.5 1290.46 1012.27)"><use xlink:href="#0"/><use xlink:href="#1"/></g><g transform="matrix(-.5.866-.866-.5 1059.43 2636.08)"><use xlink:href="#0"/><use xlink:href="#1"/></g><g transform="matrix(-1 0 0-1-461.77 3248.58)"><use xlink:href="#0"/><use xlink:href="#1"/></g><g transform="matrix(-.5.866.866.5-1752.78 1012.27)"><use xlink:href="#0"/><use xlink:href="#1"/></g><g transform="matrix(.5.866.866-.5-1521.75 2636.08)"><use xlink:href="#0"/><use xlink:href="#1"/></g></g></svg>