<svg xmlns="http://www.w3.org/2000/svg" width="32" height="32" xmlns:xlink="http://www.w3.org/1999/xlink"><defs><path id="0" d="m-199.44 1577.12v-15.375" style="fill:none;stroke:#e2e2ef;stroke-linecap:round"/><path id="1" d="m-199.19 1573.31l3.375-1.063" style="fill:none;stroke:#e2e2ef;stroke-linecap:round"/><path id="2" d="m-199.16 1569.5l4.938-1.75" style="fill:none;stroke:#e2e2ef;stroke-linecap:round"/><path id="3" d="m-199.53 1565.5l4.938-1.75" style="fill:none;stroke:#e2e2ef;stroke-linecap:round"/><path id="4" d="m-199.69 1575.06l-2.5-.813" style="fill:none;stroke:#e2e2ef;stroke-linecap:round"/><path id="5" d="m-199.62 1571.5l-4.938-1.75" style="fill:none;stroke:#e2e2ef;stroke-linecap:round"/><path id="6" d="m-199.78 1567.5l-4.938-1.75" style="fill:none;stroke:#e2e2ef;stroke-linecap:round"/><path id="7" d="m-199.75 1563.41l-3.375-1.063" style="fill:none;stroke:#e2e2ef;stroke-linecap:round"/><path id="8" d="m-199.5 1571.5l4.938-1.75" style="fill:none;stroke:#e2e2ef;stroke-linecap:round"/><path id="9" d="m-199.37 1563.41l3.375-1.063" style="fill:none;stroke:#e2e2ef;stroke-linecap:round"/><path id="A" d="m-199.97 1569.5l-4.938-1.75" style="fill:none;stroke:#e2e2ef;stroke-linecap:round"/><path id="B" d="m-199.44 1575.06l2.5-.813" style="fill:none;stroke:#e2e2ef;stroke-linecap:round"/><path id="C" d="m-199.94 1573.31l-3.375-1.063" style="fill:none;stroke:#e2e2ef;stroke-linecap:round"/><path id="D" d="m-199.34 1567.5l4.938-1.75" style="fill:none;stroke:#e2e2ef;stroke-linecap:round"/></defs><g transform="matrix(.823 0 0 .823 180.01-1284.34)"><path d="m-196.97 1581.42c0 0-2.274 1.313-2.274 1.313 0 0-2.274-1.313-2.274-1.313v-3.935c1.791 1.309 4.065-.004 4.065-.004 0 0 2.274 1.313 2.274 1.313z" style="fill:none;stroke:#e2e2ef;stroke-linecap:round"/><g transform="translate(.184.03)"><use xlink:href="#0"/><path d="m-199.44 1575.06l2.5-.813" style="fill:none;stroke:#e2e2ef;stroke-linecap:round"/><use xlink:href="#1"/><path d="m-199.5 1571.5l4.938-1.75" style="fill:none;stroke:#e2e2ef;stroke-linecap:round"/><use xlink:href="#2"/><path d="m-199.34 1567.5l4.938-1.75" style="fill:none;stroke:#e2e2ef;stroke-linecap:round"/><use xlink:href="#3"/><path d="m-199.37 1563.41l3.375-1.063" style="fill:none;stroke:#e2e2ef;stroke-linecap:round"/><use xlink:href="#4"/><path d="m-199.94 1573.31l-3.375-1.063" style="fill:none;stroke:#e2e2ef;stroke-linecap:round"/><use xlink:href="#5"/><path d="m-199.97 1569.5l-4.938-1.75" style="fill:none;stroke:#e2e2ef;stroke-linecap:round"/><use xlink:href="#6"/><path d="m-199.59 1565.5l-4.938-1.75" style="fill:none;stroke:#e2e2ef;stroke-linecap:round"/><use xlink:href="#7"/></g><g transform="matrix(.5.866-.866.5 1268.72 962.86)"><use xlink:href="#0"/><path d="m-199.44 1575.06l2.5-.813" style="fill:none;stroke:#e2e2ef;stroke-linecap:round"/><use xlink:href="#1"/><use xlink:href="#8"/><use xlink:href="#2"/><path d="m-199.34 1567.5l4.938-1.75" style="fill:none;stroke:#e2e2ef;stroke-linecap:round"/><use xlink:href="#3"/><use xlink:href="#9"/><use xlink:href="#4"/><path d="m-199.94 1573.31l-3.375-1.063" style="fill:none;stroke:#e2e2ef;stroke-linecap:round"/><use xlink:href="#5"/><use xlink:href="#A"/><use xlink:href="#6"/><path d="m-199.59 1565.5l-4.938-1.75" style="fill:none;stroke:#e2e2ef;stroke-linecap:round"/><use xlink:href="#7"/></g><g transform="matrix(-.5.866-.866-.5 1069.16 2542.86)"><use xlink:href="#0"/><use xlink:href="#B"/><use xlink:href="#1"/><use xlink:href="#8"/><use xlink:href="#2"/><path d="m-199.34 1567.5l4.938-1.75" style="fill:none;stroke:#e2e2ef;stroke-linecap:round"/><use xlink:href="#3"/><use xlink:href="#9"/><use xlink:href="#4"/><use xlink:href="#C"/><use xlink:href="#5"/><use xlink:href="#A"/><use xlink:href="#6"/><path d="m-199.59 1565.5l-4.938-1.75" style="fill:none;stroke:#e2e2ef;stroke-linecap:round"/><use xlink:href="#7"/></g><g transform="matrix(-1 0 0-1-398.72 3160.07)"><use xlink:href="#0"/><use xlink:href="#B"/><use xlink:href="#1"/><use xlink:href="#8"/><use xlink:href="#2"/><use xlink:href="#D"/><use xlink:href="#3"/><use xlink:href="#9"/><use xlink:href="#4"/><use xlink:href="#C"/><use xlink:href="#5"/><use xlink:href="#A"/><use xlink:href="#6"/><path d="m-199.59 1565.5l-4.938-1.75" style="fill:none;stroke:#e2e2ef;stroke-linecap:round"/><use xlink:href="#7"/></g><g transform="matrix(-.5.866.866.5-1667.29 962.86)"><use xlink:href="#0"/><use xlink:href="#B"/><use xlink:href="#1"/><use xlink:href="#8"/><use xlink:href="#2"/><use xlink:href="#D"/><use xlink:href="#3"/><use xlink:href="#9"/><use xlink:href="#4"/><use xlink:href="#C"/><use xlink:href="#5"/><use xlink:href="#A"/><use xlink:href="#6"/><path d="m-199.59 1565.5l-4.938-1.75" id="E" style="fill:none;stroke:#e2e2ef;stroke-linecap:round"/><use xlink:href="#7"/></g><g transform="matrix(.5.866.866-.5-1467.73 2542.86)"><use xlink:href="#0"/><use xlink:href="#B"/><use xlink:href="#1"/><use xlink:href="#8"/><use xlink:href="#2"/><use xlink:href="#D"/><use xlink:href="#3"/><use xlink:href="#9"/><use xlink:href="#4"/><use xlink:href="#C"/><use xlink:href="#5"/><use xlink:href="#A"/><use xlink:href="#6"/><use xlink:href="#E"/><use xlink:href="#7"/></g></g></svg>