<svg xmlns="http://www.w3.org/2000/svg" width="1007.12" height="935.36" viewBox="9.2412109 75.9443359 1007.1162109 935.3583984" style="enable-background:new 9.2412109 75.9443359 1007.1162109 935.3583984"><g transform="matrix(5.241 0 0 5.874-2806.97-357.49)"><path d="m722.46 73.78c0 0 8.409.267 8.926-1.868 0 0-6.764 6.405-9.09 9.741 0 0 3.789.667 5.471-1.334 0 0-1.849 8.01-5.471 11.742 0 0 4.695.133 5.341-.934 0 0 .092 7.07-5.341 10.808 0 0 1.331 2.402 5.859-.4 0 0-1.59 5.337-5.859 8.139 0 0 2.883 2.535 5.471 2 0 0-.426 3.603-5.471 6.405 0 0 1.331 2.935 4.824 2.535 0 0 .609 4.403-4.824 8.01 0 0 2.107 2.268 5.083 2.268 0 0 2.032 4.804-5.083 7.07 0 0 1.331 2.669 4.306 2.268 0 0 .092 6.405-4.306 8.139 0 0 2.237 4.27 4.695 3.469 0 0-1.849 3.069-4.695 3.202 0 0 4.436 4.803 4.436 7.872 0 0-3.401 0-4.436 1.334 0 0 6.118 4.67 6.247 10.01 0 0-5.935 2.402-6.247 5.05 0 0 6.228.568 7.03 2.484 0 0-6.707 2.395-7.03 3.673 0 0 5.27 2.395 6.388 2.395 0 0-4.951 2.076-6.388 1.437 0 0 3.354 3.833 5.27 5.43 0 0-4.631 2.076-5.27 0 0 0 1.917 3.353 4.791 4.631 0 0-2.395 1.916-4.791 2.395 0 0 1.757 3.194 3.513 4.631 0 0-1.278.958-3.513-1.118 0 0-1.437 5.589 4.951 5.429 0 0-2.236 4.471-4.951 3.513 0 0 .16 3.194 5.43 4.951 0 0-2.395 3.553-9.103 3.553 0 0-1.757 4.272-1.597 5.869 0 0-3.513-1.078-3.992-5.869 0 0 1.408 2.875-2.265 6.388 0 0-.929-2.396-1.727-6.388 0 0-1.786 4.152-4.02 6.708 0 0-1.408-3.993-2.526-6.708 0 0-2.265 3.993-1.946 7.187 0 0-4.762-2.875-7.636-7.187 0 0-1.597 5.869-1.757 6.987 0 0-1.278-3.793-2.875-6.987 0 0-3.673 6.188-4.631 6.507 0 0-1.597-3.473-2.076-6.507 0 0-1.118 4.272-2.715 5.23 0 0-2.396-1.876-2.715-5.23 0 0-4.98 6.069-4.98 7.03 0 0-1.727-2.396-1.727-7.03 0 0-1.916 3.793-3.034 5.23 0 0-2.236-2.675-2.236-5.23 0 0-2.875 3.314-2.875 5.39 0 0-2.395-2.356-2.875-5.39 0 0-1.597 2.355-2.715 3.473 0 0-1.916-.918-2.395-3.473 0 0-2.875 2.515-3.354 4.272 0 0-4.951-1.557-5.11-4.272 0 0-1.757 3.793-1.118 6.188 0 0-4.631-1.557-4.471-6.188 0 0-.639 3.633-3.513 5.23 0 0-3.034-2.355-3.833-5.23 0 0-1.597 3.154-1.277 4.432 0 0-2.555-1.717-3.673-4.432 0 0-1.118 3.952-2.236 5.549 0 0-3.194-2.515-3.194-5.549 0 0-.958 3.793-2.715 5.39 0 0-3.034-2.835-5.43-5.39 0 0-.32 5.23-1.437 5.869 0 0-5.589-4.272-5.43-5.869 0 0-.799 3.473-2.076 5.07 0 0-3.992-2.914-4.232-5.07 0 0-.559 3.473-2.475 6.03 0 0-2.236-3.793-2.874-6.03 0 0-2.076 2.835-3.513 3.952 0 0-.958-2.196-3.513-3.952 0 0-1.437 3.473-2.715 5.07 0 0-2.555-3.154-4.791-5.07 0 0-1.597 2.355-1.757 3.314 0 0-3.354-1.557-3.513-3.314 0 0-2.076 4.911-3.513 5.39 0 0-1.118-4.112-1.916-5.39 0 0-1.118 2.835-2.715 4.272 0 0-2.875-2.835-4.312-4.272 0 0-1.757 2.835-1.597 3.952 0 0-2.555-2.835-3.354-3.952 0 0-2.395 1.078-3.992 2.036 0 0-1.757-2.555-3.513-4.791 0 0-5.43.799-6.548-.798 0 0 1.597-1.277 2.236-3.513 0 0-5.27-1.757-6.388-3.354 0 0 3.065-1.757 4.02-3.194 0 0-3.864-2.076-4.982-5.11 0 0 3.864.319 4.982-.639 0 0-3.544-1.597-4.662-5.909 0 0 3.065.16 4.662-.319 0 0-4.343-4.152-5.301-8.464 0 0 4.02 1.118 5.301-.479 0 0-4.419-4.375-6.02-8.686 0 0 5.05.479 6.02-.058-.125-2.779-5.563-4.38-5.563-4.38.129-5.337 5.563-10.808 5.563-10.808-1.035-1.334-4.01-1.334-4.01-1.334 0-3.069 4.01-7.872 4.01-7.872-2.846-.133-4.269-3.202-4.269-3.202 2.458.801 4.269-3.469 4.269-3.469-4.398-1.735-3.881-8.139-3.881-8.139 2.975.4 5.692-2.268 5.692-2.268-7.115-2.268-6.468-7.07-6.468-7.07 2.975 0 4.657-2.268 4.657-2.268-5.433-3.603-4.398-8.01-4.398-8.01 3.493.4 4.398-2.535 4.398-2.535-5.05-2.802-5.05-6.405-5.05-6.405 2.587.534 5.05-2 5.05-2-4.269-2.802-5.433-8.139-5.433-8.139 4.528 2.802 5.433.4 5.433.4-5.433-3.736-4.916-10.808-4.916-10.808.647 1.067 4.916.934 4.916.934-3.622-3.736-5.05-11.742-5.05-11.742 1.682 2 5.05 1.334 5.05 1.334-2.329-3.336-9.31-8.284-9.31-8.284.937.625 9.569.411 9.569.411" style="fill:#bad90d;stroke:#a9b618;stroke-width:1.075"/></g></svg>