<?xml version="1.0" encoding="UTF-8" standalone="no"?>
<!-- Generator: Adobe Illustrator 16.0.0, SVG Export Plug-In . SVG Version: 6.00 Build 0)  -->

<svg
   xmlns:dc="http://purl.org/dc/elements/1.1/"
   xmlns:cc="http://creativecommons.org/ns#"
   xmlns:rdf="http://www.w3.org/1999/02/22-rdf-syntax-ns#"
   xmlns:svg="http://www.w3.org/2000/svg"
   xmlns="http://www.w3.org/2000/svg"
   xmlns:sodipodi="http://sodipodi.sourceforge.net/DTD/sodipodi-0.dtd"
   xmlns:inkscape="http://www.inkscape.org/namespaces/inkscape"
   version="1.1"
   id="svg4912"
   sodipodi:docname="ui-add-friend-p.svg"
   inkscape:version="0.48.5 r10040"
   x="0px"
   y="0px"
   width="100.906px"
   height="101.754px"
   viewBox="13.247 15.382 100.906 101.754"
   enable-background="new 13.247 15.382 100.906 101.754"
   xml:space="preserve"
   inkscape:export-filename="C:\Users\stephen\Pictures\Fuzz Jump SVG to PNG\PNG\ui-add-friend-p.png"
   inkscape:export-xdpi="90"
   inkscape:export-ydpi="90"><metadata
   id="metadata3118"><rdf:RDF><cc:Work
       rdf:about=""><dc:format>image/svg+xml</dc:format><dc:type
         rdf:resource="http://purl.org/dc/dcmitype/StillImage" /><dc:title></dc:title></cc:Work></rdf:RDF></metadata><defs
   id="defs3116" />
<sodipodi:namedview
   pagecolor="#ffffff"
   id="base"
   borderopacity="1.0"
   showgrid="false"
   inkscape:cy="-105.69901"
   bordercolor="#666666"
   inkscape:zoom="2.0408103"
   inkscape:cx="-39.99588"
   inkscape:window-maximized="1"
   inkscape:window-y="-8"
   inkscape:pageshadow="2"
   inkscape:pageopacity="0.0"
   inkscape:current-layer="g3980-2-1"
   inkscape:window-x="-8"
   inkscape:window-width="1920"
   inkscape:window-height="1017"
   inkscape:document-units="px">
	</sodipodi:namedview>
<g
   id="layer1"
   transform="translate(0,-924.36218)"
   inkscape:groupmode="layer"
   inkscape:label="Layer 1">
	<g
   id="g3980-2-1"
   transform="matrix(0.95935292,0,0,0.95935292,-452.19634,782.01466)">
		
			<path
   id="path3104-1-0-2-2"
   sodipodi:cy="128.88075"
   sodipodi:ry="52.502678"
   sodipodi:rx="52.502678"
   sodipodi:cx="630.20892"
   sodipodi:type="arc"
   d="m 682.7116,128.88075 a 52.502678,52.502678 0 1 1 -105.00535,0 52.502678,52.502678 0 1 1 105.00535,0 z"
   transform="translate(-92.454434,88.564273)"
   style="fill-opacity:0.1649" />
		
			<path
   id="path3104-9-1-3"
   sodipodi:cy="128.88075"
   sodipodi:ry="52.502678"
   sodipodi:rx="52.502678"
   sodipodi:cx="630.20892"
   sodipodi:type="arc"
   d="m 682.7116,128.88075 a 52.502678,52.502678 0 1 1 -105.00535,0 52.502678,52.502678 0 1 1 105.00535,0 z"
   transform="translate(-92.454434,88.564273)"
   style="fill:#f7f9b9" />
		
			<path
   id="path3119-1-4-6-3"
   sodipodi:cy="582.18994"
   sodipodi:ry="44.767704"
   sodipodi:rx="44.767704"
   sodipodi:cx="398.0094"
   sodipodi:type="arc"
   d="m 442.7771,582.18994 a 44.767704,44.767704 0 1 1 -89.5354,0 44.767704,44.767704 0 1 1 89.5354,0 z"
   transform="translate(139.74509,-364.74492)"
   style="fill:#a9b618;stroke:#698612" />
		<path
   id="path3907-8-8-4"
   inkscape:connector-curvature="0"
   sodipodi:nodetypes="csscsc"
   fill="#698612"
   d="M514.114,179.652    c0,0,7.578-8.143,24.898-8.143c17.319,0,30.155,8.926,37.888,22.08c7.732,13.154,5.721,26.151,4.329,33.042    c0,0-0.527-27.144-23.568-42.334C534.618,169.108,514.114,179.652,514.114,179.652z" />
		<path
   id="path3907-7-8-5-1"
   inkscape:connector-curvature="0"
   sodipodi:nodetypes="csscsc"
   fill="#D8D719"
   d="M563.031,253.481    c0,0-7.702,7.644-25.022,7.644c-17.32,0-30.655-9.052-38.388-22.205c-7.732-13.154-6.347-25.276-4.955-32.167    c0,0,0.365,25.954,23.407,41.144C541.115,263.086,563.031,253.481,563.031,253.481z" />
	</g>
	
	
</g>

<g
   id="g3112">
	<path
   fill="#F7F9B9"
   stroke="#A9B618"
   d="M61.195,44.133c0.432-0.096,0.96-0.18,1.584-0.252c0.623-0.072,1.319-0.083,2.088-0.036   c0.191,0,0.468,0.012,0.828,0.036c0.36,0.024,0.72,0.036,1.08,0.036s0.684,0.025,0.972,0.072c0.288,0.048,0.479,0.097,0.576,0.144   c0.145,0.097,0.204,0.313,0.18,0.648c-0.024,0.336,0.012,0.696,0.108,1.08c0,0.097,0.072,0.168,0.216,0.216   c0.096,0.048,0.191,0.121,0.288,0.216c0,0.144-0.048,0.265-0.144,0.36l-0.145,0.144c0.24,1.44,0.407,2.952,0.504,4.536   c0.096,1.584,0.191,3.217,0.288,4.896c0,0.385-0.061,0.673-0.18,0.864c-0.12,0.192-0.061,0.408,0.18,0.648   c0.096,0.097,0.396,0.192,0.9,0.288c0.504,0.097,0.852,0.144,1.044,0.144c0.96,0.097,2.135,0.084,3.528-0.036   c1.392-0.119,2.854-0.18,4.392-0.18c0.335,0,0.72-0.011,1.152-0.036c0.432-0.024,0.852-0.036,1.26-0.036c0.407,0,0.756,0,1.044,0   s0.455,0.025,0.504,0.072c0.144,0.769,0.239,1.368,0.288,1.8c0.047,0.432,0.096,0.804,0.144,1.116   c0.048,0.313,0.072,0.421,0.072,0.324c0,0.241-0.024,0.468-0.072,0.684c-0.048,0.216-0.12,0.468-0.216,0.756   c-0.048,0.241-0.097,0.552-0.144,0.936c-0.049,0.385-0.072,0.817-0.072,1.296c0,0.145,0.011,0.396,0.036,0.756   c0.023,0.36,0.011,0.732-0.036,1.116c-0.049,0.385-0.12,0.78-0.216,1.188c-0.097,0.408-0.265,0.709-0.504,0.899   c-0.192,0.144-0.637,0.288-1.332,0.433c-0.696,0.144-1.261,0.24-1.692,0.287c-0.961,0.098-2.016,0.085-3.168-0.035   c-1.152-0.119-2.231-0.181-3.24-0.181c-0.863,0-1.548,0.024-2.052,0.072s-0.876,0.169-1.116,0.36s-0.408,0.528-0.504,1.008   c-0.097,0.48-0.192,1.152-0.288,2.016c-0.048,0.288-0.048,0.602,0,0.936c0.048,0.337,0.048,0.697,0,1.08   c0,0.289-0.048,0.589-0.144,0.9c-0.097,0.313-0.12,0.588-0.072,0.828c0,0.145,0.072,0.421,0.216,0.828   c0.145,0.408,0.24,0.781,0.288,1.115c0,0.289-0.012,0.674-0.036,1.152c-0.024,0.48-0.048,0.973-0.071,1.477   c-0.025,0.504-0.072,0.948-0.145,1.332c-0.072,0.385-0.156,0.624-0.252,0.72c-0.144,0.144-0.444,0.241-0.9,0.288   c-0.456,0.049-0.936,0.072-1.439,0.072s-0.997-0.012-1.476-0.036c-0.48-0.024-0.864-0.036-1.152-0.036c-0.72,0-1.368,0-1.944,0   s-1.08-0.047-1.512-0.145c-0.432-0.096-0.792-0.275-1.08-0.539s-0.504-0.708-0.648-1.332c-0.048-0.145-0.061-0.3-0.035-0.469   c0.023-0.168,0.035-0.324,0.035-0.468c-0.097,0-0.168-0.023-0.216-0.071c-0.097-0.096-0.12-0.168-0.071-0.217   c0.239-0.191,0.263-0.636,0.071-1.332c-0.192-0.695-0.288-1.234-0.288-1.619c0-0.816,0.084-1.523,0.252-2.125   c0.168-0.6,0.252-1.139,0.252-1.619c0-0.096-0.012-0.313-0.035-0.648c-0.025-0.336-0.049-0.695-0.072-1.08   c-0.024-0.384-0.072-0.744-0.145-1.08c-0.071-0.336-0.156-0.551-0.252-0.648c-0.192-0.191-0.684-0.335-1.476-0.432   c-0.792-0.096-1.656-0.155-2.592-0.18c-0.936-0.023-1.848-0.047-2.736-0.072c-0.889-0.023-1.5-0.036-1.836-0.036   c-0.961-0.047-1.992-0.023-3.096,0.072c-1.104,0.097-2.064,0-2.88-0.288c-0.864-0.384-1.332-1.08-1.404-2.088   c-0.072-1.008-0.084-2.207-0.036-3.6c0-0.384,0.023-0.767,0.072-1.152c0.047-0.384,0.096-0.839,0.144-1.368   c0.047-0.335,0.047-0.731,0-1.188c-0.048-0.456,0.024-0.803,0.216-1.044c0.24-0.191,0.731-0.324,1.476-0.396   c0.744-0.072,1.559-0.096,2.448-0.072c0.888,0.025,1.775,0.072,2.664,0.144c0.888,0.072,1.595,0.108,2.124,0.108   c1.199,0.097,2.423,0.097,3.672,0c0.671-0.047,1.355-0.12,2.052-0.216c0.695-0.096,1.091-0.191,1.188-0.288   c0.145-0.191,0.191-0.623,0.145-1.296c-0.049-0.671-0.108-1.415-0.181-2.232c-0.071-0.815-0.168-1.595-0.287-2.34   c-0.121-0.744-0.181-1.26-0.181-1.548c-0.048-0.383-0.097-0.936-0.144-1.656c-0.049-0.72-0.072-1.416-0.072-2.088   c0-0.096-0.024-0.276-0.072-0.54c-0.048-0.263-0.024-0.564,0.072-0.9c0.096-0.432,0.228-0.731,0.396-0.9   c0.167-0.167,0.371-0.263,0.611-0.288c0.24-0.024,0.563-0.024,0.973,0C60.127,44.194,60.619,44.182,61.195,44.133z"
   id="path3114" />
</g>
</svg>