<svg xmlns="http://www.w3.org/2000/svg" width="100.91" height="101.75" viewBox="13.921 14.756 100.907 101.755" style="enable-background:new 13.921 14.756 100.907 101.755"><g transform="translate(0-924.36)"><g transform="matrix(.959 0 0 .959-451.52 781.39)"><path d="m590.35 217.98c0 28.997-23.506 52.5-52.5 52.5-28.997 0-52.5-23.506-52.5-52.5 0-28.996 23.506-52.5 52.5-52.5 28.997 0 52.5 23.507 52.5 52.5" style="fill-opacity:.165"/><path d="m590.17 216.91c0 28.997-23.506 52.5-52.5 52.5-28.997 0-52.5-23.506-52.5-52.5 0-28.996 23.506-52.5 52.5-52.5 28.997.0001 52.5 23.507 52.5 52.5" style="fill:#f7f9b9"/><path d="m582.72 216.94c0 24.724-20.04 44.767-44.768 44.767-24.725 0-44.768-20.04-44.768-44.767 0-24.725 20.04-44.768 44.768-44.768 24.725-.0001 44.768 20.04 44.768 44.768z" style="fill:#a9b618;stroke:#698612"/><path d="m514.11 179.65c0 0 7.578-8.144 24.898-8.144 17.319 0 30.15 8.926 37.888 22.08 7.732 13.154 5.721 26.15 4.33 33.04 0 0-.527-27.14-23.569-42.33-23.04-15.189-43.547-4.644-43.547-4.644" style="fill:#698612"/><path d="m563.03 253.48c0 0-7.702 7.643-25.02 7.643-17.32 0-30.655-9.05-38.39-22.2-7.732-13.154-6.347-25.276-4.955-32.17 0 0 .365 25.954 23.407 41.14 23.04 15.188 44.957 5.584 44.957 5.584" style="fill:#d8d719"/></g><path d="m64.39 963.89v9.904h-19.3l.038 19.941.037 19.941h19.3v9.904l30.437-29.846-30.512-29.844" style="fill:#a9b618"/><path d="m65.82 960.44v9.904h19.301l-.037 19.941-.037 19.941h-19.301v9.904l-30.437-29.846 30.511-29.844z" style="fill:#f7f9b9;stroke:#a9b618;stroke-linejoin:round;stroke-width:.959"/></g></svg>