<svg xmlns="http://www.w3.org/2000/svg" width="362.3" height="91.14" viewBox="0 0.0002441 362.2973633 91.1386719" style="enable-background:new 0 0.0002441 362.2973633 91.1386719"><g transform="matrix(.587 0 0 .587-27.9-504.87)"><path d="m47.55 1007.95v-106.65c0-20.313 14.01-36.777 31.29-36.777h554.89c17.283 0 31.29 16.466 31.29 36.777v106.65" style="fill-opacity:.165"/><path d="m47.55 1005.6v-106.65c0-20.311 14.01-36.777 31.29-36.777h554.89c17.283 0 31.29 16.466 31.29 36.777v106.65" style="fill:#f7f9b9"/><path d="m53.892 997.17v-91.08c0-19.471 13.432-35.26 30-35.26h545.5c16.567 0 29.999 15.787 29.999 35.26v91.08" style="fill:#a9b618;stroke:#698612"/><path d="m89.47 1014.43c-18.546-12.213-32.611-11.964-35.37-95.78 0 0 .816 27.535.032 70.27" style="fill:#d8d719"/><path d="m659.53 957.63c0 0 .353-23.664.353-60.03 0-14.272-12.756-29.04-31.4-29.04-11.751 0-533.26.245-543.51.354-11.875.125-20.518 6.974-24.665 13.533 0 0 8.213-5.641 27.621-6.441 19.944-.822 530.55-6.378 549.05 4.01 18.501 10.389 14.853 24.849 22.552 77.61" style="fill:#698612"/><path d="m54.22 981.83c0 0-.177 8.934-.177 14.54" style="fill:#e6e447"/></g></svg>