<svg xmlns="http://www.w3.org/2000/svg" width="362.3" height="91.14" viewBox="10.395 20.958 362.298 91.139" style="enable-background:new 10.395 20.958 362.298 91.139"><g transform="matrix(.587 0 0 .587-27.9-504.87)"><path d="m96.56 898.19h554.89c17.283 0 31.29 14.01 31.29 31.29v90.74c0 17.283-14.01 31.29-31.29 31.29h-554.89c-17.283 0-31.29-14.01-31.29-31.29v-90.74c0-17.285 14.01-31.3 31.29-31.3" style="fill-opacity:.165"/><path d="m96.56 896.19h554.89c17.283 0 31.29 14.01 31.29 31.29v90.74c0 17.283-14.01 31.29-31.29 31.29h-554.89c-17.283 0-31.29-14.01-31.29-31.29v-90.74c0-17.283 14.01-31.29 31.29-31.29" style="fill:#f7f9b9"/><path d="m101.61 903.56h545.5c16.569 0 30 13.432 30 30v77.5c0 16.569-13.432 29.999-30 29.999h-545.5c-16.569 0-30-13.43-30-29.999v-77.5c0-16.568 13.432-30 30-30z" style="fill:#a9b618;stroke:#698612"/><path d="m71.821 944.25c0 0 .816 23.431.032 59.792-.5 23.2 12.58 36.35 29.322 36.35 11.779 0 535.83.108 546.1 0 11.905-.125 28.366-8.919 29.688-29.974 0 0-13.55 17.663-31.943 20.583-19.761 3.137-519.29 5.14-537.83-5.251-18.547-10.391-32.612-10.178-35.37-81.5" style="fill:#d8d719"/><path d="m677.25 991.64c0 0 .354-23.665.354-60.03 0-14.272-12.758-29.03-31.402-29.03-11.751 0-533.26.245-543.51.354-11.875.125-20.518 6.974-24.665 13.534 0 0 8.213-5.641 27.621-6.441 19.944-.822 530.55-6.378 549.05 4.01 18.502 10.39 14.855 24.85 22.554 77.61" style="fill:#698612"/><path d="m71.937 998.01c0 0-.177 7.603-.177 12.375 0 7.601 3.01 15.204 8.839 21.04 5.834 5.834 12.905 8.485 15.203 8.662 2.298.178 13.611.531 18.915.531s-7.779-1.768-13.259-2.475c-5.48-.706-14.14-4.773-17.678-7.778-3.534-3.01-11.136-10.431-11.843-32.35" style="fill:#e6e447"/></g></svg>