<?xml version="1.0" encoding="utf-8"?>
<!-- Generator: Adobe Illustrator 16.0.0, SVG Export Plug-In . SVG Version: 6.00 Build 0)  -->
<!DOCTYPE svg PUBLIC "-//W3C//DTD SVG 1.1//EN" "http://www.w3.org/Graphics/SVG/1.1/DTD/svg11.dtd">
<svg version="1.1"
	 id="Layer_1" xmlns:sodipodi="http://sodipodi.sourceforge.net/DTD/sodipodi-0.dtd" xmlns:inkscape="http://www.inkscape.org/namespaces/inkscape"
	 xmlns="http://www.w3.org/2000/svg" xmlns:xlink="http://www.w3.org/1999/xlink" x="0px" y="0px" width="612px" height="792px"
	 viewBox="0 0 612 792" enable-background="new 0 0 612 792" xml:space="preserve">
<g id="Layer_2">
	<rect fill="#0871FF" width="612" height="792"/>
	<g id="path6606" inkscape:connector-curvature="0">
		<path fill="#2B43FF" d="M66.192,139.05c0.554-0.772,0.981-1.598,1.363-2.418c0.163-0.43,0.352-0.832,0.478-1.265
			c0.128-0.43,0.272-0.842,0.356-1.275c0.098-0.426,0.213-0.836,0.254-1.268c0.049-0.428,0.14-0.834,0.134-1.262
			c0.004-0.424,0.051-0.83,0.02-1.246l-0.091-1.224l-0.209-1.198c-0.045-0.391-0.171-0.782-0.284-1.166
			c-0.124-0.384-0.192-0.761-0.352-1.135l-0.451-1.106c-0.123-0.365-0.324-0.723-0.513-1.076l-0.551-1.05
			c-0.416-0.692-0.933-1.331-1.205-2.064l-2.746-7.394l7.342,1.64c0.671,0.15,1.199,0.344,1.783,0.523
			c0.571,0.181,1.145,0.332,1.717,0.495c1.142,0.328,2.276,0.679,3.405,1.061c2.258,0.767,4.5,1.636,6.721,2.702
			c0.556,0.264,1.109,0.547,1.661,0.84c0.552,0.302,1.103,0.598,1.65,0.938c1.096,0.655,2.184,1.393,3.245,2.27
			c0.532,0.426,1.055,0.908,1.564,1.426c0.511,0.512,1.003,1.094,1.47,1.715c0.227,0.33,0.455,0.653,0.669,0.998
			c0.204,0.365,0.406,0.73,0.595,1.105c0.172,0.401,0.336,0.806,0.49,1.214c0.127,0.432,0.244,0.869,0.35,1.307l-7.922,0.785
			c0.006-2.577,0.034-5.114,0.081-7.672c0.049-2.554,0.108-5.109,0.206-7.674c0.098-2.566,0.212-5.131,0.412-7.741
			c0.042-0.647,0.099-1.305,0.165-1.969c0.062-0.66,0.119-1.317,0.215-2.009c0.085-0.68,0.164-1.353,0.317-2.118l0.103-0.556
			c0.036-0.188,0.058-0.35,0.137-0.613c0.132-0.478,0.277-0.954,0.432-1.424l2.863-8.669l4.407,8.323l1.137,2.148l1.176,2.16
			c0.792,1.437,1.598,2.867,2.418,4.288c1.639,2.84,3.33,5.645,5.092,8.374c1.761,2.724,3.594,5.396,5.541,7.837
			c0.483,0.615,0.98,1.203,1.478,1.77c0.498,0.572,1.005,1.105,1.509,1.606c0.503,0.487,1.012,0.946,1.477,1.288
			c0.472,0.377,0.881,0.551,1.045,0.639l-4.657,1.675c0.2-0.325,0.456-0.77,0.684-1.17c0.228-0.418,0.465-0.831,0.685-1.257
			c0.448-0.846,0.878-1.705,1.282-2.57c0.412-0.864,0.779-1.739,1.149-2.613l0.504-1.317c0.18-0.438,0.304-0.879,0.457-1.318
			c0.152-0.44,0.296-0.879,0.408-1.316c0.115-0.437,0.259-0.877,0.354-1.311l0.277-1.296c0.09-0.431,0.119-0.845,0.187-1.267
			c0.078-0.428,0.09-0.829,0.101-1.227c0.013-0.398,0.062-0.814,0.007-1.169c-0.043-0.359-0.022-0.759-0.096-1.087
			c-0.079-0.323-0.146-0.647-0.202-0.976l7.658-2.314c0.128,0.435,0.303,0.926,0.492,1.383c0.191,0.463,0.383,0.928,0.504,1.416
			c0.224,0.984,0.344,2.008,0.541,3.008c0.365,2.01,0.778,4.013,1.268,5.988c0.471,1.983,0.984,3.961,1.69,5.848
			c0.175,0.474,0.366,0.935,0.558,1.403c0.199,0.461,0.418,0.908,0.659,1.349c0.502,0.854,1.075,1.686,2.042,2.151
			c-0.526,0.004-1.097-0.125-1.602-0.369c-0.514-0.236-0.982-0.548-1.441-0.878c-0.894-0.678-1.709-1.447-2.445-2.268
			c-0.739-0.819-1.444-1.669-2.105-2.539c-0.661-0.871-1.316-1.752-1.917-2.657c-1.202-1.812-2.327-3.664-3.407-5.541
			c-0.524-0.944-1.101-1.873-1.55-2.851c-0.215-0.492-0.354-1.011-0.487-1.532c-0.134-0.529-0.277-1.024-0.455-1.58l7.658-2.314
			c0.159,0.671,0.306,1.348,0.441,2.025c0.127,0.674,0.127,1.309,0.185,1.966c0.068,0.665,0.016,1.272-0.006,1.896
			c-0.021,0.625-0.054,1.246-0.151,1.829c-0.087,0.589-0.146,1.197-0.263,1.768l-0.364,1.705c-0.127,0.565-0.296,1.101-0.444,1.652
			c-0.145,0.554-0.318,1.087-0.5,1.615c-0.183,0.527-0.343,1.071-0.549,1.581l-0.594,1.549c-0.426,1.012-0.852,2.023-1.321,3.007
			c-0.462,0.989-0.948,1.96-1.458,2.923c-0.25,0.483-0.521,0.959-0.784,1.438c-0.279,0.488-0.531,0.932-0.867,1.478l-1.697,2.756
			l-2.96-1.082c-1.394-0.509-2.444-1.168-3.292-1.811c-0.875-0.651-1.601-1.317-2.296-1.988c-0.679-0.673-1.318-1.351-1.916-2.036
			c-0.601-0.685-1.18-1.373-1.727-2.068c-2.21-2.775-4.148-5.614-6.008-8.487c-1.856-2.873-3.608-5.781-5.302-8.716
			c-0.847-1.468-1.678-2.942-2.495-4.425l-1.215-2.232l-1.203-2.272l7.27-0.346c-0.022,0.138-0.055,0.27-0.1,0.4
			c-0.024,0.038-0.046,0.19-0.068,0.314l-0.068,0.379c-0.101,0.477-0.171,1.062-0.242,1.639c-0.08,0.563-0.133,1.168-0.189,1.769
			c-0.06,0.597-0.113,1.201-0.153,1.817c-0.188,2.442-0.299,4.94-0.394,7.437c-0.096,2.498-0.154,5.01-0.202,7.522
			c-0.046,2.508-0.073,5.037-0.079,7.528l-7.922,0.785c-0.04-0.106-0.069-0.213-0.088-0.325c-0.055-0.115-0.104-0.23-0.144-0.353
			c-0.071-0.124-0.145-0.251-0.208-0.382l-0.274-0.405c-0.214-0.275-0.444-0.561-0.732-0.845c-0.28-0.284-0.584-0.573-0.933-0.848
			c-1.356-1.125-3.104-2.13-4.936-3.013c-1.842-0.886-3.809-1.652-5.818-2.335c-1.005-0.34-2.025-0.656-3.048-0.95
			c-0.512-0.145-1.024-0.295-1.544-0.396c-0.506-0.105-1.072-0.184-1.5-0.281l4.597-5.753c0.213,0.488,0.366,1.004,0.506,1.52
			c0.124,0.524,0.269,1.03,0.367,1.56l0.239,1.61c0.078,0.532,0.16,1.056,0.165,1.61l0.052,1.623
			c0.015,0.535-0.064,1.091-0.097,1.626c-0.043,0.538-0.079,1.069-0.201,1.604c-0.103,0.532-0.2,1.057-0.334,1.573l-0.497,1.521
			c-0.168,0.499-0.418,0.975-0.623,1.451c-0.196,0.48-0.489,0.922-0.739,1.369c-0.242,0.451-0.555,0.863-0.847,1.276
			c-0.28,0.419-0.642,0.786-0.966,1.162c-0.325,0.376-0.707,0.707-1.053,1.048C67.821,138.023,67.041,138.612,66.192,139.05z"/>
	</g>
	<g id="path6606_1_" inkscape:connector-curvature="0">
		<path fill="#2B43FF" d="M521.394,253.731c0.505-0.239,0.866-0.56,1.187-0.943c0.326-0.372,0.591-0.797,0.839-1.223
			c0.238-0.442,0.454-0.89,0.65-1.353c0.188-0.47,0.379-0.929,0.552-1.404c0.699-1.888,1.204-3.868,1.671-5.851
			c0.476-1.98,0.876-3.985,1.259-5.988l0.271-1.506c0.091-0.501,0.162-1.008,0.307-1.488c0.138-0.483,0.327-0.948,0.518-1.411
			c0.191-0.456,0.369-0.946,0.503-1.38l7.657,2.314c-0.056,0.329-0.123,0.653-0.201,0.976c-0.074,0.328-0.054,0.728-0.097,1.087
			c-0.055,0.355-0.006,0.771,0.007,1.169c0.012,0.398,0.024,0.799,0.102,1.227c0.066,0.423,0.096,0.836,0.187,1.267l0.277,1.296
			c0.095,0.433,0.239,0.874,0.354,1.311c0.111,0.437,0.256,0.877,0.408,1.316c0.154,0.439,0.278,0.88,0.457,1.318l0.504,1.317
			c0.37,0.874,0.736,1.748,1.149,2.613c0.404,0.865,0.834,1.724,1.282,2.57c0.219,0.426,0.456,0.839,0.685,1.257
			c0.229,0.4,0.484,0.845,0.684,1.17l-4.656-1.675c0.164-0.087,0.572-0.262,1.045-0.639c0.464-0.341,0.973-0.801,1.477-1.288
			c0.504-0.501,1.012-1.035,1.509-1.606c0.498-0.568,0.995-1.155,1.479-1.77c1.947-2.441,3.779-5.113,5.541-7.837
			c1.763-2.729,3.454-5.533,5.092-8.374c0.819-1.42,1.626-2.85,2.418-4.288l1.176-2.16l1.138-2.148l4.406-8.323l2.863,8.669
			c0.155,0.47,0.3,0.946,0.433,1.424c0.078,0.262,0.1,0.425,0.137,0.613l0.103,0.556c0.153,0.765,0.232,1.438,0.317,2.118
			c0.096,0.692,0.154,1.348,0.215,2.009c0.066,0.664,0.123,1.322,0.165,1.969c0.2,2.61,0.314,5.175,0.412,7.741
			c0.099,2.565,0.158,5.119,0.206,7.674c0.047,2.558,0.075,5.095,0.081,7.672l-7.922-0.785c0.105-0.438,0.223-0.875,0.35-1.307
			c0.154-0.408,0.319-0.813,0.49-1.214c0.189-0.375,0.391-0.74,0.595-1.105c0.214-0.344,0.442-0.667,0.669-0.998
			c0.467-0.621,0.959-1.203,1.47-1.715c0.51-0.518,1.032-1,1.564-1.426c1.061-0.877,2.149-1.615,3.245-2.27
			c0.547-0.34,1.099-0.635,1.65-0.938c0.552-0.293,1.105-0.576,1.66-0.84c2.222-1.066,4.463-1.935,6.722-2.702
			c1.129-0.382,2.263-0.733,3.404-1.061l1.72-0.486c0.585-0.176,1.11-0.376,1.783-0.517l7.587-1.587l-3.007,7.319
			c-0.296,0.722-0.836,1.355-1.248,2.051l-0.559,1.052c-0.191,0.355-0.395,0.713-0.521,1.079l-0.45,1.111
			c-0.157,0.376-0.224,0.755-0.344,1.141c-0.11,0.386-0.233,0.779-0.276,1.171l-0.206,1.202l-0.086,1.228
			c-0.029,0.417,0.02,0.824,0.025,1.249c-0.005,0.429,0.088,0.836,0.139,1.264c0.043,0.432,0.16,0.843,0.26,1.269
			c0.083,0.435,0.233,0.845,0.363,1.275c0.129,0.431,0.319,0.833,0.485,1.262c0.388,0.818,0.82,1.641,1.38,2.406
			c-0.844-0.444-1.617-1.036-2.352-1.688c-0.344-0.343-0.723-0.674-1.045-1.051c-0.322-0.376-0.679-0.744-0.959-1.162
			c-0.29-0.412-0.602-0.824-0.842-1.275c-0.248-0.446-0.539-0.888-0.733-1.367c-0.204-0.475-0.452-0.951-0.618-1.448l-0.491-1.517
			c-0.13-0.515-0.232-1.038-0.331-1.569c-0.119-0.533-0.153-1.063-0.193-1.599c-0.03-0.533-0.106-1.087-0.089-1.62l0.053-1.618
			c0.002-0.553,0.082-1.076,0.157-1.608l0.231-1.608c0.095-0.53,0.236-1.036,0.358-1.56c0.12-0.523,0.273-1.039,0.471-1.533
			l4.579,5.732c-0.427,0.106-0.993,0.178-1.499,0.287c-0.518,0.11-1.028,0.263-1.541,0.406c-1.023,0.294-2.043,0.61-3.048,0.95
			c-2.009,0.682-3.976,1.449-5.817,2.335c-1.831,0.883-3.58,1.888-4.937,3.013c-0.349,0.276-0.653,0.564-0.933,0.848
			c-0.287,0.284-0.519,0.57-0.732,0.845l-0.273,0.405c-0.063,0.131-0.137,0.258-0.208,0.382c-0.04,0.121-0.089,0.238-0.145,0.353
			c-0.019,0.112-0.048,0.219-0.088,0.325l-7.922-0.785c-0.006-2.49-0.033-5.02-0.079-7.528c-0.048-2.512-0.105-5.023-0.202-7.522
			c-0.095-2.497-0.207-4.995-0.394-7.437c-0.04-0.617-0.093-1.221-0.153-1.817c-0.056-0.601-0.108-1.207-0.188-1.769
			c-0.071-0.577-0.142-1.162-0.242-1.639l-0.068-0.379c-0.021-0.123-0.044-0.275-0.068-0.314c-0.045-0.13-0.077-0.262-0.1-0.4
			l7.271,0.346l-1.203,2.272l-1.215,2.232c-0.817,1.483-1.648,2.957-2.495,4.425c-1.694,2.935-3.446,5.843-5.303,8.716
			c-1.859,2.873-3.798,5.712-6.008,8.487c-0.547,0.695-1.126,1.383-1.727,2.068c-0.599,0.685-1.237,1.363-1.916,2.036
			c-0.695,0.671-1.421,1.338-2.296,1.988c-0.849,0.643-1.899,1.302-3.292,1.811l-2.96,1.082l-1.697-2.756
			c-0.336-0.546-0.588-0.99-0.867-1.478c-0.263-0.48-0.534-0.955-0.784-1.438c-0.51-0.962-0.996-1.934-1.458-2.923
			c-0.468-0.983-0.895-1.995-1.32-3.007l-0.595-1.549c-0.206-0.51-0.365-1.054-0.549-1.581c-0.182-0.528-0.354-1.061-0.5-1.615
			c-0.147-0.551-0.316-1.087-0.443-1.652l-0.364-1.705c-0.117-0.571-0.177-1.179-0.264-1.768c-0.097-0.583-0.13-1.204-0.15-1.829
			c-0.022-0.624-0.075-1.231-0.006-1.896c0.058-0.657,0.058-1.292,0.185-1.966c0.135-0.677,0.283-1.354,0.441-2.025l7.658,2.314
			c-0.173,0.558-0.313,1.054-0.445,1.583c-0.133,0.522-0.274,1.04-0.474,1.537c-0.19,0.501-0.461,0.973-0.72,1.448l-0.793,1.417
			c-1.061,1.886-2.198,3.735-3.416,5.542c-0.601,0.905-1.262,1.785-1.926,2.656c-0.665,0.869-1.373,1.719-2.115,2.537
			c-0.367,0.411-0.761,0.808-1.17,1.186c-0.412,0.379-0.844,0.739-1.29,1.077c-0.462,0.329-0.933,0.639-1.45,0.874
			C522.496,253.616,521.905,253.746,521.394,253.731z"/>
	</g>
	<g id="path6606_5_" inkscape:connector-curvature="0">
		<path fill="#2B43FF" d="M18.881,309.563c0.556-0.041,1.009-0.211,1.446-0.453c0.438-0.23,0.839-0.531,1.224-0.839
			c0.381-0.327,0.744-0.667,1.093-1.028c0.344-0.371,0.688-0.73,1.02-1.111c1.332-1.509,2.516-3.175,3.666-4.856
			c1.157-1.676,2.253-3.402,3.331-5.132l0.795-1.307c0.265-0.435,0.514-0.882,0.822-1.278c0.303-0.401,0.646-0.767,0.991-1.13
			c0.342-0.357,0.685-0.75,0.965-1.106l6.311,4.917c-0.171,0.287-0.35,0.565-0.54,0.838c-0.187,0.279-0.311,0.66-0.481,0.979
			c-0.179,0.311-0.283,0.717-0.414,1.093c-0.133,0.375-0.266,0.754-0.347,1.181c-0.09,0.418-0.211,0.815-0.282,1.249l-0.208,1.309
			c-0.067,0.439-0.092,0.901-0.142,1.35c-0.054,0.448-0.078,0.91-0.094,1.375c-0.015,0.465-0.058,0.921-0.048,1.395l-0.004,1.41
			c0.03,0.948,0.057,1.896,0.131,2.851c0.065,0.953,0.157,1.909,0.27,2.859c0.051,0.477,0.124,0.947,0.186,1.419
			c0.069,0.455,0.147,0.962,0.217,1.338l-3.741-3.239c0.184-0.023,0.629-0.038,1.205-0.22c0.556-0.151,1.196-0.397,1.841-0.669
			c0.651-0.286,1.316-0.602,1.986-0.955c0.669-0.35,1.344-0.72,2.016-1.119c2.695-1.576,5.367-3.409,7.991-5.316
			c2.627-1.911,5.214-3.918,7.766-5.978c1.276-1.03,2.543-2.074,3.8-3.129l1.875-1.592l1.834-1.594l7.109-6.177l-0.451,9.118
			c-0.024,0.494-0.061,0.991-0.11,1.484c-0.021,0.273-0.059,0.433-0.093,0.621l-0.104,0.555c-0.133,0.769-0.302,1.425-0.467,2.09
			c-0.159,0.68-0.342,1.313-0.523,1.952c-0.177,0.643-0.361,1.278-0.555,1.897c-0.754,2.507-1.571,4.941-2.404,7.37
			c-0.832,2.428-1.697,4.832-2.571,7.233c-0.878,2.403-1.765,4.78-2.688,7.186l-7.108-3.585c0.257-0.37,0.523-0.736,0.798-1.093
			c0.291-0.326,0.59-0.644,0.895-0.956c0.312-0.281,0.631-0.55,0.953-0.817c0.324-0.244,0.653-0.464,0.983-0.69
			c0.66-0.411,1.328-0.777,1.989-1.071c0.662-0.3,1.323-0.561,1.972-0.767c1.306-0.436,2.586-0.733,3.845-0.949
			c0.633-0.12,1.254-0.197,1.877-0.281c0.621-0.074,1.239-0.139,1.852-0.185c2.456-0.195,4.861-0.198,7.243-0.101
			c1.191,0.05,2.376,0.131,3.559,0.236l1.779,0.166c0.609,0.047,1.172,0.049,1.85,0.16l7.648,1.251l-5.44,5.745
			c-0.536,0.566-1.268,0.963-1.903,1.464l-0.9,0.78c-0.306,0.262-0.625,0.523-0.875,0.819l-0.82,0.875
			c-0.282,0.294-0.48,0.624-0.731,0.94c-0.242,0.32-0.498,0.642-0.679,0.993l-0.625,1.048l-0.523,1.114
			c-0.177,0.379-0.278,0.776-0.426,1.174c-0.159,0.399-0.219,0.812-0.325,1.23c-0.115,0.419-0.154,0.844-0.215,1.278
			c-0.079,0.436-0.087,0.872-0.12,1.32c-0.035,0.449-0.001,0.893-0.001,1.352c0.066,0.902,0.174,1.826,0.42,2.741
			c-0.626-0.718-1.135-1.549-1.585-2.421c-0.197-0.443-0.431-0.889-0.597-1.357c-0.165-0.467-0.365-0.939-0.476-1.43
			c-0.122-0.489-0.265-0.986-0.326-1.492c-0.071-0.506-0.183-1.022-0.192-1.539c-0.019-0.516-0.079-1.049-0.055-1.573l0.087-1.593
			c0.064-0.527,0.158-1.052,0.257-1.582c0.08-0.54,0.24-1.046,0.396-1.561c0.164-0.508,0.292-1.052,0.5-1.543l0.632-1.49
			c0.201-0.515,0.464-0.974,0.726-1.443l0.794-1.417c0.28-0.46,0.595-0.881,0.897-1.326c0.301-0.445,0.629-0.871,0.992-1.261
			l2.208,6.996c-0.436-0.055-0.991-0.192-1.502-0.272c-0.523-0.084-1.054-0.125-1.584-0.177c-1.061-0.094-2.126-0.167-3.186-0.212
			c-2.119-0.087-4.231-0.08-6.268,0.083c-2.027,0.164-4.019,0.472-5.69,1.033c-0.425,0.131-0.813,0.291-1.176,0.455
			c-0.37,0.162-0.688,0.345-0.987,0.525l-0.401,0.279c-0.106,0.099-0.22,0.191-0.331,0.281c-0.081,0.099-0.168,0.19-0.261,0.277
			c-0.058,0.097-0.124,0.187-0.199,0.272l-7.108-3.585c0.891-2.325,1.776-4.695,2.637-7.051c0.86-2.36,1.71-4.724,2.52-7.09
			c0.81-2.363,1.606-4.734,2.31-7.08c0.185-0.59,0.353-1.172,0.512-1.75c0.164-0.581,0.333-1.165,0.461-1.719
			c0.141-0.564,0.287-1.135,0.364-1.617l0.073-0.378c0.024-0.123,0.058-0.273,0.05-0.317c0.005-0.137,0.021-0.272,0.05-0.409
			l6.657,2.941l-1.94,1.687l-1.938,1.645c-1.296,1.089-2.603,2.165-3.921,3.229c-2.637,2.128-5.319,4.21-8.085,6.222
			c-2.77,2.01-5.6,3.961-8.661,5.754c-0.761,0.451-1.548,0.885-2.356,1.307c-0.804,0.423-1.645,0.826-2.521,1.209
			c-0.89,0.376-1.807,0.736-2.858,1.028c-1.023,0.295-2.24,0.531-3.724,0.504l-3.151-0.057l-0.59-3.183
			c-0.117-0.631-0.192-1.135-0.277-1.691c-0.073-0.542-0.154-1.084-0.213-1.624c-0.129-1.081-0.233-2.163-0.308-3.251
			c-0.083-1.086-0.117-2.184-0.149-3.281l0.004-1.659c-0.009-0.55,0.038-1.115,0.057-1.672c0.021-0.558,0.051-1.118,0.115-1.686
			c0.061-0.568,0.096-1.128,0.181-1.701l0.274-1.722c0.097-0.575,0.26-1.164,0.391-1.744c0.119-0.578,0.312-1.169,0.518-1.761
			c0.204-0.59,0.374-1.175,0.677-1.771c0.291-0.592,0.519-1.184,0.881-1.767c0.37-0.583,0.751-1.161,1.141-1.73l6.311,4.917
			c-0.361,0.458-0.671,0.871-0.985,1.317c-0.312,0.439-0.63,0.871-0.995,1.264c-0.359,0.398-0.781,0.741-1.193,1.091l-1.25,1.037
			c-1.669,1.377-3.396,2.692-5.182,3.94c-0.887,0.628-1.821,1.211-2.753,1.784c-0.933,0.572-1.9,1.11-2.887,1.605
			c-0.49,0.251-1.001,0.479-1.519,0.685c-0.52,0.205-1.054,0.385-1.592,0.54c-0.549,0.141-1.101,0.26-1.667,0.293
			C19.95,309.852,19.352,309.76,18.881,309.563z"/>
	</g>
	<g id="path6606_7_" inkscape:connector-curvature="0">
		<path fill="#2B43FF" d="M531.318,516.578c0.398-0.389,0.638-0.811,0.817-1.275c0.188-0.457,0.302-0.945,0.399-1.429
			c0.082-0.495,0.142-0.989,0.178-1.49c0.026-0.505,0.059-1.002,0.069-1.507c0.052-2.012-0.109-4.049-0.308-6.077
			c-0.188-2.026-0.457-4.055-0.74-6.074l-0.23-1.513c-0.076-0.504-0.172-1.006-0.19-1.508c-0.024-0.502,0.003-1.003,0.034-1.503
			c0.033-0.493,0.044-1.016,0.03-1.468l7.995-0.282c0.053,0.329,0.095,0.658,0.124,0.989c0.036,0.334,0.185,0.706,0.26,1.059
			c0.063,0.354,0.243,0.732,0.384,1.104c0.14,0.373,0.28,0.749,0.492,1.13c0.2,0.378,0.361,0.761,0.586,1.139l0.682,1.137
			c0.229,0.379,0.508,0.75,0.758,1.126c0.247,0.378,0.524,0.747,0.811,1.114c0.287,0.366,0.547,0.743,0.859,1.1l0.901,1.084
			c0.633,0.708,1.262,1.417,1.932,2.103c0.661,0.688,1.346,1.363,2.043,2.019c0.345,0.333,0.703,0.647,1.054,0.97
			c0.345,0.305,0.731,0.643,1.025,0.886l-4.948-0.082c0.127-0.136,0.458-0.434,0.783-0.942c0.329-0.473,0.663-1.071,0.981-1.694
			c0.315-0.638,0.623-1.307,0.91-2.009c0.288-0.697,0.569-1.415,0.827-2.152c1.054-2.939,1.926-6.06,2.714-9.206
			c0.787-3.151,1.482-6.353,2.116-9.569c0.317-1.609,0.619-3.223,0.904-4.839l0.416-2.424l0.383-2.4l1.485-9.3l5.508,7.281
			c0.299,0.395,0.589,0.799,0.869,1.209c0.158,0.223,0.231,0.37,0.326,0.536l0.277,0.493c0.393,0.674,0.685,1.285,0.984,1.901
			c0.314,0.624,0.581,1.228,0.852,1.832c0.277,0.607,0.544,1.211,0.792,1.811c1.032,2.405,1.967,4.797,2.89,7.193
			c0.922,2.396,1.802,4.794,2.673,7.196c0.87,2.406,1.715,4.799,2.553,7.235l-7.751,1.814c-0.041-0.449-0.071-0.899-0.091-1.35
			c0.014-0.437,0.039-0.872,0.071-1.308c0.059-0.416,0.132-0.826,0.207-1.237c0.092-0.396,0.203-0.774,0.312-1.16
			c0.242-0.739,0.519-1.448,0.838-2.099c0.315-0.654,0.654-1.279,1.02-1.854c0.722-1.173,1.514-2.222,2.339-3.196
			c0.407-0.498,0.835-0.956,1.259-1.42c0.428-0.455,0.86-0.902,1.301-1.331c1.758-1.726,3.6-3.271,5.489-4.727
			c0.944-0.727,1.906-1.425,2.88-2.104l1.47-1.015c0.497-0.355,0.93-0.715,1.522-1.065l6.667-3.951l-0.482,7.897
			c-0.048,0.779-0.354,1.552-0.519,2.344l-0.189,1.177c-0.067,0.396-0.144,0.802-0.145,1.189l-0.067,1.197
			c-0.027,0.406,0.033,0.786,0.043,1.19c0.02,0.401,0.031,0.813,0.117,1.197l0.192,1.205l0.314,1.19
			c0.107,0.403,0.285,0.772,0.427,1.174c0.134,0.408,0.354,0.763,0.54,1.151c0.182,0.396,0.424,0.746,0.656,1.117
			c0.219,0.385,0.493,0.726,0.755,1.089c0.261,0.367,0.572,0.686,0.867,1.037c0.63,0.649,1.305,1.288,2.082,1.832
			c-0.941-0.147-1.865-0.459-2.771-0.839c-0.436-0.213-0.901-0.405-1.328-0.657s-0.883-0.484-1.282-0.79
			c-0.408-0.296-0.836-0.586-1.208-0.935c-0.38-0.342-0.798-0.666-1.136-1.057c-0.346-0.385-0.733-0.755-1.053-1.172l-0.956-1.276
			c-0.289-0.445-0.554-0.908-0.818-1.378c-0.285-0.467-0.488-0.956-0.699-1.451c-0.201-0.495-0.452-0.994-0.607-1.504l-0.472-1.548
			c-0.176-0.524-0.27-1.045-0.37-1.572l-0.301-1.597c-0.081-0.533-0.11-1.058-0.164-1.594c-0.055-0.533-0.077-1.07-0.049-1.603
			l6.185,3.946c-0.37,0.237-0.883,0.489-1.326,0.756c-0.454,0.271-0.889,0.581-1.328,0.881c-0.874,0.609-1.736,1.237-2.578,1.883
			c-1.682,1.294-3.295,2.655-4.754,4.088c-1.447,1.428-2.777,2.942-3.698,4.445c-0.241,0.374-0.437,0.745-0.609,1.104
			c-0.18,0.362-0.306,0.707-0.419,1.036l-0.128,0.472c-0.017,0.144-0.046,0.288-0.073,0.428c0.002,0.128-0.007,0.254-0.021,0.38
			c0.018,0.112,0.024,0.223,0.021,0.336l-7.751,1.815c-0.809-2.355-1.651-4.74-2.505-7.1c-0.855-2.361-1.722-4.72-2.62-7.054
			c-0.896-2.332-1.808-4.66-2.773-6.911c-0.237-0.571-0.482-1.125-0.731-1.671c-0.247-0.551-0.492-1.107-0.75-1.613
			c-0.254-0.522-0.509-1.054-0.759-1.473l-0.187-0.337c-0.061-0.11-0.13-0.246-0.164-0.275c-0.086-0.107-0.158-0.222-0.225-0.346
			l6.992-2.02l-0.405,2.539l-0.43,2.506c-0.294,1.667-0.605,3.33-0.933,4.992c-0.656,3.325-1.375,6.644-2.204,9.961
			c-0.833,3.319-1.751,6.634-2.947,9.973c-0.293,0.834-0.619,1.672-0.967,2.514c-0.345,0.841-0.731,1.689-1.156,2.545
			c-0.441,0.86-0.913,1.726-1.531,2.623c-0.595,0.882-1.377,1.845-2.53,2.777l-2.453,1.979l-2.496-2.061
			c-0.495-0.409-0.876-0.747-1.298-1.119c-0.404-0.369-0.814-0.732-1.206-1.108c-0.793-0.745-1.567-1.509-2.323-2.295
			c-0.761-0.779-1.491-1.599-2.221-2.419l-1.063-1.274c-0.36-0.416-0.687-0.879-1.03-1.319c-0.342-0.441-0.678-0.89-0.994-1.367
			c-0.317-0.474-0.65-0.927-0.953-1.42l-0.896-1.496c-0.295-0.503-0.548-1.059-0.82-1.588c-0.279-0.52-0.511-1.097-0.732-1.682
			c-0.222-0.584-0.468-1.142-0.618-1.793c-0.157-0.642-0.362-1.241-0.459-1.921c-0.091-0.686-0.17-1.373-0.236-2.06l7.995-0.282
			c0.018,0.583,0.044,1.1,0.09,1.643c0.044,0.537,0.076,1.072,0.05,1.607c-0.02,0.535-0.123,1.07-0.215,1.604l-0.293,1.598
			c-0.396,2.127-0.875,4.244-1.443,6.349c-0.277,1.051-0.619,2.097-0.965,3.135c-0.349,1.037-0.744,2.07-1.184,3.084
			c-0.215,0.507-0.46,1.01-0.724,1.5c-0.268,0.491-0.562,0.972-0.873,1.436c-0.331,0.461-0.677,0.906-1.09,1.295
			C532.323,516.114,531.805,516.427,531.318,516.578z"/>
	</g>
	<g id="path6606_9_" inkscape:connector-curvature="0">
		<path fill="#2B43FF" d="M77.146,690.664c0.677-0.666,1.239-1.408,1.755-2.151c0.234-0.396,0.489-0.76,0.686-1.165
			c0.2-0.401,0.412-0.782,0.568-1.195c0.169-0.403,0.352-0.788,0.467-1.206c0.122-0.413,0.28-0.798,0.347-1.222
			c0.076-0.418,0.191-0.809,0.232-1.224l0.118-1.222l-0.002-1.216c0.022-0.394-0.035-0.8-0.081-1.197
			c-0.056-0.4-0.06-0.783-0.153-1.178l-0.256-1.167c-0.059-0.382-0.196-0.768-0.322-1.148l-0.364-1.129
			c-0.292-0.753-0.693-1.471-0.836-2.239l-1.446-7.753l6.956,2.867c0.636,0.262,1.123,0.543,1.668,0.818
			c0.532,0.276,1.072,0.522,1.608,0.78c1.069,0.519,2.127,1.058,3.175,1.626c2.094,1.142,4.155,2.378,6.163,3.809
			c0.503,0.354,1,0.728,1.494,1.109c0.492,0.393,0.985,0.777,1.467,1.205c0.968,0.832,1.914,1.745,2.811,2.79
			c0.451,0.51,0.885,1.074,1.298,1.672c0.416,0.591,0.802,1.249,1.156,1.94c0.167,0.364,0.337,0.721,0.489,1.097
			c0.139,0.396,0.275,0.789,0.398,1.191c0.101,0.424,0.194,0.851,0.276,1.279c0.051,0.448,0.092,0.898,0.122,1.349L99,687.209
			c0.445-2.538,0.905-5.034,1.386-7.546c0.483-2.509,0.976-5.017,1.51-7.526c0.534-2.512,1.083-5.02,1.724-7.558
			c0.152-0.631,0.32-1.271,0.498-1.912c0.173-0.64,0.342-1.277,0.554-1.943c0.2-0.655,0.392-1.306,0.673-2.032l0.196-0.53
			c0.068-0.179,0.117-0.336,0.239-0.581c0.212-0.448,0.435-0.894,0.668-1.33l4.297-8.055l2.925,8.951l0.755,2.311l0.791,2.329
			c0.535,1.551,1.087,3.098,1.652,4.637c1.131,3.078,2.32,6.13,3.592,9.119c1.272,2.984,2.622,5.929,4.125,8.666
			c0.371,0.688,0.761,1.352,1.155,1.996c0.394,0.647,0.802,1.26,1.213,1.84c0.413,0.565,0.836,1.105,1.236,1.521
			c0.4,0.451,0.774,0.692,0.921,0.807l-4.874,0.857c0.253-0.286,0.581-0.682,0.873-1.036c0.296-0.373,0.6-0.739,0.889-1.122
			c0.586-0.758,1.156-1.53,1.701-2.314c0.553-0.781,1.064-1.581,1.577-2.379l0.721-1.212c0.252-0.401,0.449-0.815,0.675-1.221
			c0.225-0.407,0.442-0.816,0.626-1.229c0.188-0.411,0.404-0.82,0.572-1.23l0.494-1.23c0.162-0.409,0.262-0.812,0.4-1.217
			c0.15-0.408,0.23-0.802,0.309-1.192c0.08-0.39,0.2-0.791,0.206-1.149c0.019-0.361,0.108-0.751,0.091-1.087
			c-0.023-0.332-0.034-0.662-0.033-0.996l7.94-0.977c0.052,0.451,0.141,0.964,0.25,1.446c0.11,0.489,0.219,0.979,0.255,1.481
			c0.053,1.007-0.003,2.036,0.021,3.057c0.017,2.043,0.083,4.087,0.23,6.117c0.126,2.033,0.295,4.07,0.669,6.05
			c0.092,0.497,0.202,0.982,0.311,1.477c0.118,0.488,0.257,0.966,0.42,1.442c0.349,0.927,0.772,1.845,1.646,2.468
			c-0.519-0.085-1.06-0.31-1.516-0.636c-0.466-0.32-0.874-0.707-1.27-1.111c-0.766-0.819-1.438-1.717-2.023-2.651
			c-0.589-0.934-1.138-1.892-1.642-2.861c-0.503-0.971-0.999-1.951-1.437-2.945c-0.876-1.989-1.669-4.007-2.413-6.04
			c-0.355-1.02-0.766-2.033-1.041-3.073c-0.128-0.522-0.177-1.057-0.219-1.594c-0.042-0.544-0.099-1.057-0.179-1.635l7.94-0.976
			c0.042,0.688,0.072,1.38,0.09,2.07c0.011,0.687-0.098,1.312-0.152,1.97c-0.046,0.667-0.201,1.256-0.329,1.866
			c-0.128,0.613-0.266,1.22-0.46,1.776c-0.186,0.565-0.348,1.155-0.56,1.697l-0.649,1.618c-0.222,0.534-0.48,1.033-0.719,1.553
			c-0.237,0.521-0.499,1.017-0.768,1.506c-0.27,0.488-0.52,0.996-0.81,1.464l-0.849,1.425c-0.592,0.925-1.185,1.85-1.814,2.738
			c-0.623,0.896-1.268,1.77-1.934,2.632c-0.328,0.433-0.677,0.856-1.017,1.284c-0.358,0.434-0.682,0.828-1.107,1.309l-2.142,2.428
			l-2.733-1.57c-1.286-0.739-2.21-1.567-2.936-2.345c-0.752-0.79-1.354-1.571-1.924-2.351c-0.554-0.777-1.069-1.556-1.541-2.332
			c-0.476-0.776-0.929-1.553-1.35-2.332c-1.705-3.11-3.131-6.238-4.475-9.386c-1.339-3.146-2.571-6.311-3.74-9.492
			c-0.584-1.59-1.152-3.185-1.705-4.784l-0.817-2.407l-0.798-2.444l7.223,0.897c-0.045,0.132-0.1,0.256-0.167,0.377
			c-0.03,0.034-0.077,0.18-0.12,0.298l-0.131,0.362c-0.181,0.452-0.349,1.018-0.518,1.573c-0.175,0.541-0.33,1.129-0.488,1.711
			c-0.161,0.578-0.316,1.164-0.46,1.766c-0.601,2.375-1.136,4.816-1.655,7.261c-0.52,2.445-1.005,4.911-1.48,7.377
			c-0.472,2.464-0.93,4.951-1.36,7.404l-7.94-0.576c-0.021-0.111-0.031-0.222-0.031-0.335c-0.035-0.122-0.063-0.246-0.082-0.372
			c-0.049-0.134-0.1-0.272-0.139-0.411l-0.201-0.445c-0.164-0.308-0.342-0.628-0.577-0.957c-0.227-0.326-0.478-0.664-0.775-0.994
			c-1.145-1.341-2.696-2.629-4.351-3.81c-1.664-1.186-3.472-2.276-5.335-3.291c-0.933-0.507-1.883-0.991-2.842-1.455
			c-0.48-0.229-0.958-0.465-1.454-0.653c-0.481-0.19-1.025-0.364-1.43-0.532l5.509-4.886c0.127,0.517,0.189,1.052,0.24,1.584
			c0.033,0.537,0.089,1.061,0.096,1.6l-0.039,1.627c-0.014,0.537-0.022,1.068-0.111,1.615l-0.225,1.607
			c-0.076,0.53-0.249,1.064-0.372,1.586c-0.134,0.523-0.26,1.04-0.472,1.546c-0.192,0.508-0.377,1.009-0.597,1.493l-0.749,1.414
			c-0.251,0.463-0.578,0.891-0.861,1.324c-0.275,0.439-0.639,0.826-0.961,1.223c-0.315,0.403-0.694,0.756-1.052,1.113
			c-0.347,0.365-0.766,0.665-1.15,0.98c-0.385,0.314-0.817,0.575-1.217,0.853C78.925,689.93,78.057,690.377,77.146,690.664z"/>
	</g>
	<g id="path6606_11_" inkscape:connector-curvature="0">
		<path fill="#2B43FF" d="M404.138,695.467c0.555-0.771,0.981-1.598,1.363-2.418c0.163-0.43,0.352-0.832,0.478-1.265
			c0.129-0.431,0.272-0.842,0.356-1.275c0.098-0.426,0.213-0.836,0.254-1.268c0.049-0.429,0.14-0.834,0.134-1.263
			c0.004-0.424,0.052-0.83,0.021-1.246l-0.091-1.224l-0.209-1.198c-0.045-0.391-0.172-0.781-0.284-1.166
			c-0.124-0.384-0.192-0.761-0.353-1.135l-0.45-1.105c-0.123-0.365-0.324-0.724-0.514-1.076l-0.551-1.05
			c-0.416-0.692-0.933-1.331-1.205-2.064l-2.746-7.394l7.342,1.64c0.671,0.15,1.199,0.344,1.783,0.522
			c0.571,0.182,1.146,0.332,1.717,0.495c1.143,0.328,2.276,0.68,3.405,1.062c2.258,0.767,4.5,1.636,6.721,2.702
			c0.557,0.264,1.109,0.547,1.661,0.84c0.553,0.302,1.104,0.598,1.65,0.938c1.096,0.655,2.184,1.394,3.245,2.271
			c0.532,0.426,1.055,0.908,1.563,1.426c0.512,0.512,1.003,1.094,1.471,1.715c0.227,0.33,0.454,0.653,0.669,0.998
			c0.204,0.365,0.405,0.73,0.595,1.105c0.172,0.4,0.336,0.806,0.49,1.214c0.127,0.432,0.244,0.869,0.35,1.307l-7.922,0.785
			c0.006-2.577,0.034-5.114,0.081-7.672c0.049-2.554,0.107-5.109,0.206-7.674c0.098-2.566,0.212-5.131,0.412-7.741
			c0.042-0.647,0.099-1.305,0.165-1.969c0.062-0.66,0.119-1.317,0.215-2.01c0.085-0.68,0.164-1.353,0.316-2.117l0.104-0.557
			c0.036-0.188,0.058-0.35,0.137-0.612c0.132-0.479,0.277-0.954,0.433-1.425l2.862-8.669l4.407,8.323l1.137,2.148l1.177,2.16
			c0.792,1.437,1.598,2.866,2.418,4.287c1.639,2.841,3.33,5.646,5.092,8.374c1.761,2.725,3.594,5.396,5.541,7.837
			c0.482,0.615,0.979,1.203,1.478,1.771c0.498,0.572,1.005,1.104,1.509,1.607c0.504,0.486,1.013,0.945,1.478,1.288
			c0.472,0.377,0.881,0.551,1.045,0.639l-4.657,1.675c0.2-0.325,0.456-0.771,0.685-1.17c0.228-0.418,0.465-0.831,0.685-1.257
			c0.448-0.847,0.878-1.705,1.282-2.57c0.412-0.864,0.779-1.739,1.148-2.613l0.505-1.316c0.18-0.438,0.304-0.879,0.456-1.318
			s0.297-0.879,0.408-1.315c0.115-0.438,0.259-0.878,0.354-1.312l0.276-1.296c0.091-0.431,0.119-0.845,0.187-1.267
			c0.078-0.429,0.09-0.829,0.101-1.228c0.014-0.397,0.063-0.813,0.007-1.169c-0.043-0.359-0.021-0.759-0.096-1.087
			c-0.079-0.323-0.146-0.647-0.202-0.976l7.658-2.314c0.128,0.435,0.303,0.926,0.492,1.383c0.19,0.463,0.383,0.928,0.504,1.416
			c0.224,0.984,0.344,2.008,0.541,3.008c0.365,2.011,0.778,4.014,1.268,5.988c0.472,1.983,0.984,3.961,1.69,5.848
			c0.175,0.475,0.366,0.936,0.558,1.403c0.199,0.461,0.418,0.908,0.659,1.349c0.502,0.854,1.075,1.687,2.042,2.151
			c-0.525,0.004-1.097-0.125-1.603-0.369c-0.515-0.235-0.982-0.548-1.441-0.878c-0.894-0.677-1.709-1.447-2.445-2.268
			c-0.738-0.819-1.443-1.669-2.104-2.539c-0.661-0.871-1.316-1.752-1.917-2.657c-1.202-1.812-2.327-3.664-3.407-5.541
			c-0.523-0.944-1.101-1.873-1.55-2.851c-0.215-0.492-0.354-1.012-0.487-1.532c-0.134-0.529-0.276-1.024-0.455-1.58l7.658-2.314
			c0.159,0.671,0.306,1.349,0.441,2.025c0.127,0.674,0.127,1.309,0.185,1.966c0.068,0.665,0.017,1.272-0.006,1.896
			c-0.021,0.625-0.054,1.246-0.151,1.829c-0.087,0.589-0.146,1.196-0.263,1.768l-0.364,1.705c-0.127,0.565-0.296,1.101-0.443,1.652
			c-0.146,0.554-0.318,1.087-0.5,1.614c-0.184,0.527-0.344,1.07-0.55,1.581l-0.594,1.549c-0.426,1.013-0.852,2.023-1.32,3.008
			c-0.463,0.988-0.948,1.96-1.459,2.922c-0.25,0.482-0.521,0.959-0.783,1.438c-0.279,0.488-0.531,0.933-0.867,1.479l-1.697,2.756
			l-2.96-1.082c-1.394-0.509-2.444-1.168-3.292-1.812c-0.876-0.65-1.601-1.316-2.296-1.987c-0.679-0.673-1.318-1.352-1.916-2.036
			c-0.601-0.686-1.18-1.373-1.727-2.068c-2.21-2.774-4.148-5.613-6.009-8.486c-1.855-2.873-3.607-5.781-5.302-8.717
			c-0.847-1.468-1.678-2.941-2.495-4.425l-1.215-2.231l-1.203-2.272l7.271-0.346c-0.022,0.138-0.056,0.27-0.101,0.399
			c-0.023,0.038-0.046,0.19-0.067,0.314l-0.068,0.379c-0.101,0.478-0.171,1.063-0.242,1.639c-0.08,0.563-0.133,1.169-0.188,1.77
			c-0.061,0.597-0.113,1.201-0.153,1.817c-0.188,2.441-0.299,4.939-0.394,7.437c-0.097,2.498-0.154,5.01-0.202,7.522
			c-0.046,2.508-0.073,5.036-0.079,7.527l-7.922,0.785c-0.04-0.106-0.069-0.213-0.088-0.325c-0.056-0.115-0.104-0.23-0.145-0.353
			c-0.071-0.124-0.145-0.251-0.208-0.382l-0.273-0.405c-0.215-0.275-0.444-0.562-0.732-0.845c-0.28-0.284-0.584-0.573-0.933-0.849
			c-1.356-1.125-3.104-2.13-4.937-3.013c-1.842-0.885-3.809-1.652-5.817-2.335c-1.006-0.34-2.025-0.656-3.049-0.95
			c-0.512-0.145-1.023-0.295-1.544-0.396c-0.506-0.104-1.071-0.184-1.5-0.28l4.598-5.753c0.213,0.487,0.365,1.004,0.506,1.52
			c0.124,0.524,0.269,1.03,0.367,1.561l0.238,1.609c0.078,0.532,0.16,1.057,0.165,1.61l0.053,1.623
			c0.015,0.535-0.064,1.091-0.098,1.626c-0.043,0.538-0.079,1.068-0.201,1.604c-0.103,0.532-0.199,1.058-0.334,1.573l-0.497,1.521
			c-0.168,0.499-0.418,0.975-0.622,1.45c-0.196,0.48-0.489,0.922-0.739,1.369c-0.242,0.451-0.556,0.863-0.848,1.276
			c-0.279,0.419-0.642,0.786-0.966,1.162c-0.325,0.376-0.707,0.707-1.053,1.048C405.766,694.441,404.987,695.03,404.138,695.467z"/>
	</g>
	<g id="path6606_3_" inkscape:connector-curvature="0">
		<path fill="#2B43FF" d="M275.881,113.563c0.556-0.041,1.009-0.211,1.446-0.453c0.438-0.23,0.839-0.531,1.224-0.839
			c0.381-0.327,0.744-0.667,1.093-1.028c0.344-0.371,0.688-0.73,1.02-1.111c1.332-1.509,2.516-3.175,3.666-4.856
			c1.157-1.676,2.253-3.402,3.331-5.132l0.795-1.307c0.265-0.435,0.514-0.882,0.822-1.278c0.303-0.401,0.646-0.767,0.991-1.13
			c0.342-0.357,0.685-0.75,0.965-1.106l6.311,4.917c-0.171,0.287-0.35,0.565-0.54,0.838c-0.187,0.279-0.311,0.66-0.481,0.979
			c-0.179,0.311-0.283,0.717-0.414,1.093c-0.133,0.375-0.266,0.754-0.347,1.181c-0.09,0.418-0.211,0.815-0.282,1.249l-0.208,1.309
			c-0.067,0.439-0.092,0.901-0.142,1.35c-0.054,0.448-0.078,0.91-0.094,1.375c-0.015,0.465-0.058,0.921-0.048,1.395l-0.004,1.41
			c0.03,0.948,0.057,1.896,0.131,2.851c0.065,0.953,0.157,1.909,0.27,2.859c0.051,0.477,0.124,0.947,0.186,1.419
			c0.069,0.455,0.147,0.963,0.217,1.338l-3.741-3.239c0.184-0.023,0.629-0.038,1.205-0.22c0.556-0.151,1.196-0.397,1.841-0.669
			c0.651-0.286,1.316-0.602,1.986-0.955c0.669-0.35,1.344-0.72,2.016-1.119c2.695-1.576,5.367-3.409,7.991-5.316
			c2.627-1.911,5.214-3.918,7.766-5.978c1.276-1.03,2.543-2.074,3.801-3.129l1.875-1.592l1.834-1.594l7.108-6.177l-0.451,9.118
			c-0.023,0.494-0.061,0.991-0.109,1.484c-0.021,0.273-0.06,0.433-0.093,0.621l-0.104,0.555c-0.133,0.769-0.302,1.425-0.467,2.09
			c-0.159,0.68-0.342,1.313-0.523,1.952c-0.177,0.643-0.36,1.278-0.555,1.897c-0.754,2.507-1.571,4.941-2.404,7.37
			c-0.832,2.428-1.696,4.832-2.57,7.233c-0.878,2.403-1.766,4.78-2.688,7.186l-7.107-3.585c0.257-0.37,0.522-0.736,0.798-1.093
			c0.291-0.326,0.59-0.644,0.895-0.956c0.313-0.281,0.631-0.55,0.953-0.817c0.324-0.244,0.653-0.464,0.983-0.69
			c0.659-0.411,1.327-0.777,1.988-1.071c0.662-0.3,1.323-0.561,1.973-0.767c1.306-0.436,2.586-0.733,3.845-0.949
			c0.633-0.12,1.254-0.197,1.877-0.281c0.621-0.074,1.239-0.139,1.852-0.185c2.456-0.195,4.861-0.198,7.243-0.101
			c1.191,0.05,2.376,0.131,3.56,0.236l1.778,0.166c0.609,0.047,1.173,0.05,1.851,0.16l7.647,1.251l-5.439,5.745
			c-0.536,0.566-1.269,0.963-1.903,1.464l-0.899,0.78c-0.307,0.262-0.625,0.523-0.875,0.819l-0.82,0.875
			c-0.282,0.294-0.48,0.624-0.731,0.939c-0.242,0.32-0.498,0.642-0.679,0.993l-0.625,1.048l-0.523,1.114
			c-0.177,0.379-0.277,0.776-0.426,1.174c-0.159,0.399-0.219,0.812-0.325,1.23c-0.114,0.419-0.153,0.844-0.215,1.278
			c-0.079,0.436-0.087,0.872-0.12,1.32c-0.034,0.449-0.001,0.893-0.001,1.352c0.066,0.902,0.175,1.826,0.42,2.741
			c-0.626-0.718-1.135-1.549-1.585-2.421c-0.196-0.443-0.431-0.889-0.597-1.357c-0.165-0.467-0.365-0.939-0.476-1.43
			c-0.122-0.489-0.266-0.986-0.326-1.492c-0.071-0.506-0.184-1.022-0.192-1.539c-0.019-0.516-0.079-1.049-0.055-1.573l0.087-1.593
			c0.064-0.527,0.158-1.052,0.257-1.582c0.08-0.54,0.24-1.046,0.396-1.561c0.164-0.508,0.292-1.052,0.5-1.543l0.632-1.49
			c0.201-0.515,0.465-0.974,0.726-1.443l0.794-1.417c0.28-0.46,0.596-0.881,0.897-1.326c0.301-0.445,0.629-0.871,0.992-1.261
			l2.208,6.996c-0.437-0.055-0.991-0.192-1.502-0.272c-0.523-0.084-1.055-0.125-1.584-0.177c-1.062-0.094-2.126-0.167-3.187-0.212
			c-2.119-0.087-4.23-0.08-6.268,0.083c-2.027,0.164-4.02,0.472-5.69,1.033c-0.425,0.131-0.813,0.291-1.176,0.455
			c-0.37,0.162-0.688,0.345-0.987,0.525l-0.4,0.279c-0.106,0.099-0.221,0.191-0.331,0.281c-0.081,0.099-0.168,0.19-0.262,0.277
			c-0.058,0.097-0.124,0.187-0.198,0.272l-7.108-3.585c0.891-2.325,1.776-4.695,2.637-7.051c0.86-2.36,1.71-4.724,2.521-7.09
			c0.81-2.363,1.605-4.734,2.31-7.08c0.186-0.59,0.354-1.172,0.513-1.75c0.163-0.581,0.333-1.165,0.461-1.719
			c0.141-0.564,0.286-1.135,0.363-1.617l0.073-0.378c0.024-0.123,0.058-0.273,0.05-0.317c0.005-0.137,0.021-0.272,0.05-0.409
			l6.657,2.941l-1.939,1.688l-1.938,1.645c-1.296,1.089-2.603,2.165-3.921,3.229c-2.637,2.128-5.319,4.21-8.085,6.222
			c-2.77,2.01-5.6,3.961-8.661,5.754c-0.761,0.451-1.548,0.885-2.356,1.307c-0.804,0.423-1.645,0.826-2.521,1.209
			c-0.89,0.376-1.807,0.736-2.858,1.028c-1.023,0.295-2.24,0.531-3.724,0.504l-3.151-0.057l-0.59-3.183
			c-0.117-0.631-0.192-1.135-0.277-1.691c-0.073-0.542-0.154-1.084-0.213-1.624c-0.129-1.081-0.233-2.163-0.308-3.251
			c-0.083-1.086-0.117-2.183-0.149-3.281l0.004-1.659c-0.009-0.55,0.038-1.115,0.057-1.672c0.021-0.558,0.051-1.118,0.115-1.686
			c0.061-0.568,0.096-1.128,0.181-1.701l0.274-1.722c0.097-0.575,0.26-1.164,0.391-1.744c0.119-0.578,0.312-1.17,0.518-1.761
			c0.204-0.59,0.374-1.175,0.677-1.771c0.291-0.592,0.519-1.184,0.881-1.767c0.37-0.583,0.751-1.161,1.141-1.73l6.311,4.917
			c-0.361,0.458-0.671,0.871-0.985,1.317c-0.312,0.439-0.63,0.871-0.995,1.264c-0.359,0.398-0.781,0.741-1.193,1.091l-1.25,1.037
			c-1.669,1.377-3.396,2.692-5.182,3.94c-0.887,0.628-1.821,1.211-2.753,1.784c-0.933,0.572-1.9,1.11-2.887,1.605
			c-0.49,0.251-1.001,0.479-1.519,0.685c-0.52,0.205-1.054,0.385-1.592,0.54c-0.549,0.141-1.101,0.26-1.667,0.293
			C276.95,113.852,276.352,113.76,275.881,113.563z"/>
	</g>
	<g>
		<path fill="#2B43FF" d="M223.035,720c0.935-0.576,1.82-1.212,2.675-1.873c0.433-0.321,0.842-0.674,1.253-1.018
			c0.417-0.334,0.798-0.718,1.192-1.072c0.4-0.348,0.751-0.753,1.127-1.119c0.38-0.362,0.723-0.761,1.066-1.152
			c0.349-0.386,0.687-0.776,0.989-1.196c0.302-0.418,0.644-0.798,0.906-1.235l0.815-1.271l0.687-1.317
			c0.248-0.424,0.397-0.894,0.584-1.335c0.172-0.449,0.389-0.874,0.489-1.341l0.377-1.352c0.089-0.456,0.137-0.919,0.21-1.368
			l0.104-0.671l0.013-0.684l0.04-1.342l0.084-2.808l3.132-0.328l1.184-0.124c0.412-0.004,0.825-0.014,1.246,0.01
			c0.848,0.067,1.725,0.213,2.577,0.509c0.859,0.274,1.681,0.691,2.419,1.197c0.743,0.505,1.37,1.121,1.903,1.77
			c0.513,0.657,0.946,1.347,1.286,2.036c0.352,0.689,0.644,1.378,0.887,2.055c0.256,0.68,0.461,1.354,0.625,2.024
			c0.172,0.671,0.304,1.337,0.4,1.998c0.396,2.646,0.374,5.222,0.05,7.754c-0.331,2.531-0.944,5.025-1.971,7.477l-5.699-5.014
			l1.752-1.078c0.584-0.359,1.128-0.763,1.694-1.141c0.575-0.371,1.087-0.803,1.628-1.205c0.548-0.398,1.048-0.835,1.549-1.272
			l0.756-0.649l0.7-0.688l0.703-0.686l0.643-0.721c0.436-0.476,0.857-0.959,1.216-1.47l0.571-0.75
			c0.177-0.255,0.326-0.52,0.493-0.778l0.492-0.775l0.396-0.801c0.127-0.268,0.284-0.528,0.391-0.8l0.301-0.813
			c0.242-0.536,0.333-1.091,0.479-1.638l0.108-0.409l0.045-0.414l0.103-0.825c0.068-0.551-0.001-1.104,0.025-1.654
			c-0.05-0.552-0.153-1.102-0.208-1.656l-0.448-1.649l-0.657-1.635l-4.358-10.837l10.035,5.702l1.375,0.781
			c0.45,0.268,0.949,0.5,1.42,0.753c0.962,0.501,1.948,0.967,2.997,1.469l1.591,0.764c0.535,0.255,1.088,0.531,1.665,0.843
			c0.557,0.279,1.149,0.628,1.745,0.999c0.581,0.323,1.211,0.83,1.809,1.271c0.301,0.213,0.605,0.542,0.902,0.813
			c0.292,0.303,0.603,0.542,0.867,0.908c0.538,0.697,1.089,1.383,1.454,2.209c0.19,0.4,0.417,0.802,0.55,1.209l0.363,1.233
			l0.165,0.619c0.037,0.2,0.055,0.395,0.082,0.592l0.134,1.182c0.056,0.406,0.049,0.769,0.038,1.13l-0.028,1.093
			c0.005,0.755-0.135,1.381-0.214,2.067l-0.142,1.009c-0.059,0.325-0.136,0.632-0.204,0.948l-0.426,1.885l-6.466-4.056l2.262-2.012
			l1.063-1.036c0.345-0.35,0.732-0.683,1.042-1.042l0.978-1.063c0.345-0.35,0.605-0.718,0.904-1.076
			c0.285-0.36,0.605-0.717,0.83-1.082c0.236-0.361,0.519-0.723,0.725-1.081c0.187-0.355,0.409-0.712,0.581-1.059
			c0.122-0.337,0.315-0.685,0.404-1.003c0.071-0.313,0.216-0.636,0.22-0.914c0.013-0.142,0.059-0.288,0.062-0.426
			c-0.007-0.136-0.007-0.271-0.001-0.406c0.023-0.136-0.032-0.271-0.04-0.408c-0.016-0.136-0.019-0.271-0.073-0.421l-0.114-0.444
			l-0.18-0.483c-0.151-0.349-0.29-0.687-0.514-1.093c-0.192-0.378-0.448-0.826-0.692-1.26l-4.661-8.28l8.95,2.381
			c0.527,0.14,1.055,0.316,1.562,0.523c0.453,0.225,0.862,0.485,1.276,0.755c0.716,0.539,1.365,1.148,1.801,1.719
			c0.979,1.175,1.545,2.294,2.07,3.397c0.982,2.193,1.565,4.303,2.035,6.397c0.235,1.047,0.417,2.088,0.588,3.127
			c0.158,1.038,0.297,2.075,0.406,3.108c0.104,1.034,0.205,2.068,0.261,3.102c0.074,1.033,0.103,2.064,0.137,3.098
			c0.013,1.033,0.028,2.065,0.004,3.1c-0.01,1.032-0.06,2.067-0.117,3.104c-0.115,2.071-0.337,4.149-0.672,6.241
			c-0.158,1.045-0.368,2.095-0.613,3.151c-0.241,1.055-0.532,2.117-0.889,3.19c-0.362,1.074-0.769,2.153-1.336,3.256
			c-0.517,1.09-1.272,2.227-2.198,3.321l-5.694-5.608c1.885-1.758,3.763-3.516,5.556-5.301l1.326-1.344
			c0.446-0.447,0.872-0.899,1.29-1.354c0.421-0.453,0.853-0.904,1.242-1.365c0.39-0.461,0.821-0.913,1.179-1.38
			c0.362-0.465,0.765-0.923,1.095-1.391c0.322-0.468,0.704-0.93,0.983-1.397c0.281-0.467,0.621-0.933,0.836-1.393l0.368-0.689
			c0.111-0.228,0.189-0.448,0.282-0.675c0.22-0.453,0.267-0.889,0.377-1.315c0.069-0.219,0.041-0.409,0.088-0.609
			c0.021-0.196,0.107-0.397,0.101-0.581c0.025-0.186,0.055-0.374,0.107-0.566c0.035-0.191,0.021-0.378,0.044-0.575
			c0.079-0.395-0.055-0.794-0.052-1.225l0.07-9.44l5.483,5.276l1.358,1.308c0.457,0.423,0.878,0.899,1.309,1.354
			c0.431,0.455,0.857,0.913,1.254,1.406c0.399,0.491,0.82,0.947,1.192,1.462l1.12,1.522l1.027,1.593
			c0.314,0.551,0.609,1.117,0.908,1.669c0.288,0.563,0.531,1.158,0.792,1.729c0.249,0.581,0.44,1.197,0.655,1.786
			c0.194,0.604,0.332,1.231,0.494,1.836c0.116,0.627,0.216,1.253,0.298,1.875c0.026,0.639,0.102,1.26,0.055,1.891
			c-0.048,0.631-0.054,1.249-0.197,1.861l-0.172,0.908l-0.278,0.88c-0.155,0.587-0.448,1.13-0.697,1.669
			c-0.262,0.535-0.629,1.017-0.931,1.509c0.143-0.575,0.341-1.116,0.425-1.685c0.072-0.572,0.2-1.116,0.181-1.684l0.02-0.831
			l-0.084-0.826c-0.025-0.544-0.184-1.08-0.291-1.603c-0.113-0.524-0.337-1.032-0.483-1.536c-0.209-0.497-0.428-0.985-0.652-1.462
			c-0.274-0.468-0.513-0.937-0.803-1.384c-0.313-0.438-0.588-0.887-0.921-1.306c-0.346-0.413-0.661-0.835-1.02-1.231l-1.104-1.158
			l-1.164-1.101l-1.229-1.034c-0.4-0.348-0.859-0.648-1.281-0.973c-0.42-0.326-0.871-0.624-1.324-0.917
			c-0.453-0.292-0.883-0.601-1.36-0.864l-1.39-0.815l5.553-4.164c0.306,0.835,0.711,1.65,0.867,2.567
			c0.093,0.451,0.21,0.907,0.263,1.366c0.041,0.459,0.058,0.923,0.071,1.389c0.023,0.473-0.058,0.907-0.124,1.356
			c-0.081,0.438-0.131,0.909-0.278,1.308c-0.263,0.822-0.529,1.656-0.867,2.386c-0.165,0.372-0.311,0.765-0.487,1.121l-0.547,1.039
			c-0.355,0.715-0.777,1.313-1.175,1.959c-0.398,0.647-0.843,1.197-1.264,1.8c-0.425,0.595-0.882,1.119-1.323,1.682
			c-0.44,0.565-0.908,1.061-1.362,1.593c-0.454,0.533-0.923,1.025-1.388,1.527c-0.465,0.505-0.932,1.001-1.407,1.477l-1.421,1.439
			c-1.903,1.894-3.832,3.699-5.76,5.497l-5.694-5.608c0.315-0.417,0.696-0.895,1.009-1.584c0.334-0.636,0.624-1.396,0.886-2.177
			c0.261-0.785,0.491-1.614,0.685-2.469c0.197-0.852,0.374-1.725,0.508-2.616c0.284-1.777,0.483-3.6,0.584-5.442
			c0.05-0.92,0.096-1.843,0.104-2.769c0.023-0.925,0.008-1.852-0.003-2.778c-0.032-0.925-0.057-1.852-0.124-2.772
			c-0.049-0.924-0.14-1.841-0.231-2.756c-0.096-0.915-0.218-1.819-0.354-2.72c-0.148-0.893-0.303-1.782-0.498-2.647
			c-0.38-1.726-0.874-3.406-1.498-4.791c-0.311-0.662-0.661-1.299-0.954-1.619c-0.148-0.218-0.255-0.253-0.299-0.319
			c-0.006,0.021-0.004,0.001,0.018-0.001c0.043,0.05,0.107,0.068,0.171,0.05l4.289-5.899c0.278,0.495,0.554,0.971,0.846,1.542
			c0.287,0.527,0.575,1.168,0.838,1.8l0.371,1.016c0.111,0.354,0.201,0.733,0.295,1.101c0.104,0.363,0.155,0.757,0.205,1.149
			c0.042,0.394,0.119,0.782,0.105,1.182l-0.01,1.191c-0.019,0.394-0.09,0.771-0.141,1.157c-0.086,0.79-0.325,1.47-0.526,2.188
			c-0.217,0.702-0.519,1.307-0.789,1.959c-0.298,0.607-0.63,1.164-0.952,1.744c-0.331,0.562-0.698,1.05-1.05,1.574
			c-0.348,0.536-0.735,0.98-1.111,1.454c-0.381,0.462-0.75,0.956-1.151,1.369l-1.186,1.288c-0.39,0.444-0.811,0.811-1.215,1.218
			l-1.226,1.193l-2.514,2.236l-9.205,8.186l2.739-12.242l0.332-1.484c0.053-0.246,0.12-0.498,0.163-0.739l0.093-0.703
			c0.048-0.458,0.172-0.963,0.146-1.365l0.017-0.633c0.012-0.215,0.023-0.428-0.016-0.592l-0.06-0.534
			c-0.01-0.088-0.01-0.183-0.024-0.265l-0.072-0.21c-0.045-0.142-0.082-0.283-0.112-0.429c-0.036-0.142-0.128-0.23-0.176-0.354
			c-0.071-0.252-0.287-0.441-0.43-0.67c-0.053-0.119-0.228-0.217-0.329-0.332c-0.132-0.11-0.198-0.233-0.374-0.346
			c-0.339-0.227-0.588-0.475-1.019-0.706c-0.383-0.237-0.779-0.479-1.253-0.714c-0.436-0.237-0.913-0.478-1.417-0.718l-1.523-0.73
			c-1.029-0.491-2.127-1.009-3.207-1.571c-0.544-0.29-1.089-0.547-1.632-0.865l-1.628-0.927l5.677-5.133l0.999,2.482
			c0.258,0.868,0.485,1.755,0.711,2.635c0.127,0.913,0.277,1.824,0.35,2.745c-0.004,0.925,0.062,1.859-0.036,2.778l-0.166,1.378
			l-0.091,0.688l-0.16,0.667c-0.221,0.887-0.415,1.79-0.762,2.618l-0.478,1.264c-0.169,0.414-0.383,0.798-0.575,1.197l-0.598,1.183
			l-0.687,1.104c-0.233,0.363-0.456,0.739-0.701,1.092l-0.767,1.02c-0.5,0.697-1.048,1.331-1.61,1.949
			c-0.279,0.311-0.553,0.631-0.839,0.932l-0.883,0.867l-0.885,0.864l-0.924,0.8c-0.615,0.536-1.232,1.069-1.88,1.544
			c-0.643,0.483-1.271,1-1.938,1.436c-0.662,0.444-1.312,0.919-1.987,1.337l-2.029,1.247l-10.525,6.469l4.826-11.483
			c0.693-1.647,1.161-3.503,1.403-5.372c0.245-1.87,0.243-3.779-0.021-5.526c-0.062-0.438-0.148-0.863-0.253-1.268
			c-0.1-0.408-0.216-0.8-0.359-1.156c-0.133-0.366-0.306-0.691-0.491-0.973c-0.18-0.292-0.381-0.519-0.556-0.731l-0.475-0.552
			c-0.147-0.16-0.276-0.338-0.453-0.465c-0.166-0.148-0.38-0.256-0.626-0.368l-0.413-0.131l-0.481-0.083l3.216-3.134l-0.492,1.87
			l-0.253,0.921l-0.363,0.888c-0.249,0.586-0.479,1.177-0.75,1.741l-0.928,1.631c-0.286,0.552-0.683,1.03-1.037,1.529
			c-0.363,0.493-0.711,0.992-1.138,1.423l-1.224,1.316l-1.315,1.189c-0.426,0.403-0.917,0.729-1.369,1.09
			c-0.452,0.363-0.93,0.688-1.413,0.997c-0.478,0.317-0.951,0.636-1.452,0.908c-0.496,0.279-0.982,0.568-1.496,0.806
			c-0.512,0.242-1.005,0.507-1.526,0.718c-0.516,0.221-1.024,0.445-1.549,0.636C225.168,719.417,224.104,719.747,223.035,720z"/>
	</g>
	<g>
		<path fill="#2B43FF" d="M420.565,85.632c0.935-0.576,1.819-1.212,2.675-1.873c0.433-0.321,0.842-0.674,1.253-1.018
			c0.417-0.334,0.798-0.717,1.191-1.072c0.4-0.348,0.751-0.753,1.127-1.119c0.381-0.362,0.724-0.761,1.066-1.152
			c0.349-0.386,0.688-0.777,0.989-1.197c0.302-0.418,0.644-0.798,0.906-1.235l0.814-1.271l0.688-1.318
			c0.248-0.424,0.396-0.893,0.584-1.335c0.172-0.449,0.389-0.874,0.488-1.341l0.377-1.351c0.09-0.456,0.138-0.919,0.211-1.368
			l0.104-0.671l0.013-0.684l0.04-1.342l0.084-2.807l3.132-0.327l1.185-0.124c0.412-0.004,0.825-0.014,1.246,0.009
			c0.848,0.068,1.725,0.213,2.577,0.509c0.858,0.275,1.681,0.692,2.419,1.198c0.743,0.504,1.37,1.121,1.902,1.769
			c0.514,0.657,0.946,1.347,1.286,2.036c0.353,0.69,0.645,1.378,0.888,2.056c0.256,0.68,0.461,1.354,0.625,2.024
			c0.172,0.671,0.304,1.337,0.399,1.998c0.396,2.646,0.374,5.222,0.05,7.754c-0.331,2.532-0.943,5.026-1.971,7.477l-5.699-5.014
			l1.752-1.078c0.584-0.359,1.128-0.763,1.694-1.141c0.575-0.371,1.087-0.802,1.628-1.205c0.548-0.398,1.048-0.835,1.549-1.272
			l0.756-0.65l0.7-0.689l0.703-0.686l0.643-0.72c0.437-0.476,0.857-0.959,1.217-1.47l0.57-0.75c0.178-0.255,0.326-0.52,0.493-0.778
			l0.492-0.776l0.396-0.801c0.127-0.267,0.283-0.528,0.391-0.799l0.301-0.814c0.242-0.536,0.333-1.091,0.479-1.637l0.107-0.41
			l0.045-0.414l0.104-0.825c0.067-0.551-0.001-1.103,0.024-1.655c-0.05-0.552-0.152-1.102-0.208-1.656l-0.447-1.65l-0.657-1.635
			l-4.358-10.837l10.035,5.703l1.375,0.781c0.45,0.267,0.949,0.5,1.42,0.753c0.962,0.501,1.948,0.967,2.997,1.468l1.591,0.764
			c0.535,0.255,1.088,0.531,1.665,0.843c0.558,0.279,1.149,0.628,1.745,0.999c0.581,0.323,1.211,0.83,1.81,1.271
			c0.301,0.213,0.604,0.542,0.901,0.814c0.292,0.303,0.604,0.542,0.867,0.908c0.538,0.697,1.089,1.383,1.454,2.209
			c0.189,0.4,0.417,0.802,0.55,1.209l0.363,1.233l0.165,0.62c0.037,0.2,0.055,0.394,0.082,0.591l0.134,1.182
			c0.056,0.406,0.049,0.769,0.038,1.13l-0.028,1.093c0.005,0.755-0.135,1.381-0.214,2.067l-0.142,1.009
			c-0.06,0.325-0.137,0.632-0.204,0.949l-0.426,1.885l-6.467-4.056l2.263-2.011l1.063-1.037c0.345-0.349,0.732-0.682,1.042-1.042
			l0.979-1.063c0.345-0.35,0.604-0.718,0.903-1.076c0.285-0.361,0.605-0.717,0.83-1.082c0.236-0.362,0.52-0.723,0.726-1.08
			c0.187-0.356,0.408-0.712,0.581-1.059c0.122-0.337,0.314-0.685,0.403-1.003c0.071-0.312,0.216-0.636,0.221-0.914
			c0.013-0.142,0.059-0.288,0.062-0.426c-0.007-0.136-0.007-0.271-0.001-0.406c0.023-0.136-0.032-0.271-0.04-0.408
			c-0.016-0.136-0.019-0.272-0.073-0.421l-0.113-0.444l-0.181-0.484c-0.15-0.348-0.29-0.686-0.514-1.093
			c-0.192-0.378-0.448-0.826-0.692-1.259l-4.661-8.281l8.95,2.381c0.527,0.14,1.056,0.317,1.563,0.524
			c0.453,0.224,0.861,0.485,1.275,0.755c0.717,0.539,1.365,1.148,1.802,1.718c0.979,1.175,1.545,2.294,2.069,3.398
			c0.982,2.193,1.565,4.302,2.035,6.397c0.235,1.047,0.417,2.088,0.588,3.127c0.158,1.038,0.297,2.075,0.406,3.109
			c0.104,1.034,0.205,2.068,0.261,3.101c0.074,1.033,0.104,2.065,0.138,3.098c0.013,1.033,0.027,2.065,0.004,3.099
			c-0.011,1.033-0.061,2.068-0.117,3.104c-0.115,2.071-0.337,4.149-0.672,6.241c-0.158,1.045-0.368,2.095-0.613,3.152
			c-0.241,1.055-0.532,2.118-0.889,3.191c-0.362,1.074-0.77,2.153-1.336,3.256c-0.518,1.09-1.272,2.226-2.198,3.321l-5.694-5.608
			c1.885-1.758,3.763-3.516,5.556-5.301l1.326-1.344c0.446-0.447,0.872-0.899,1.29-1.354c0.421-0.454,0.854-0.905,1.242-1.366
			c0.39-0.46,0.821-0.913,1.179-1.379c0.362-0.465,0.766-0.923,1.096-1.391c0.321-0.467,0.704-0.93,0.982-1.398
			c0.281-0.466,0.621-0.932,0.836-1.392l0.368-0.689c0.111-0.228,0.189-0.449,0.282-0.675c0.22-0.453,0.267-0.889,0.377-1.316
			c0.069-0.218,0.041-0.409,0.088-0.609c0.021-0.196,0.107-0.398,0.102-0.581c0.024-0.186,0.055-0.374,0.106-0.567
			c0.035-0.191,0.021-0.378,0.044-0.575c0.079-0.394-0.055-0.794-0.052-1.224l0.07-9.441l5.482,5.277l1.358,1.306
			c0.457,0.423,0.878,0.9,1.309,1.354c0.432,0.455,0.857,0.913,1.255,1.406c0.399,0.491,0.82,0.947,1.192,1.462l1.12,1.522
			l1.026,1.593c0.315,0.551,0.61,1.117,0.909,1.67c0.288,0.563,0.531,1.158,0.792,1.729c0.249,0.581,0.44,1.197,0.655,1.786
			c0.194,0.603,0.332,1.231,0.494,1.836c0.116,0.627,0.216,1.253,0.298,1.875c0.026,0.639,0.101,1.259,0.055,1.89
			c-0.048,0.631-0.054,1.249-0.197,1.862l-0.173,0.908l-0.277,0.88c-0.155,0.587-0.448,1.13-0.697,1.669
			c-0.262,0.535-0.629,1.016-0.931,1.508c0.143-0.575,0.341-1.116,0.425-1.684c0.072-0.572,0.2-1.116,0.181-1.684l0.02-0.831
			l-0.084-0.826c-0.025-0.543-0.184-1.079-0.291-1.603c-0.113-0.524-0.337-1.032-0.483-1.536c-0.209-0.497-0.428-0.985-0.653-1.462
			c-0.273-0.467-0.512-0.936-0.802-1.383c-0.313-0.439-0.588-0.887-0.921-1.306c-0.346-0.413-0.661-0.835-1.02-1.231l-1.104-1.159
			l-1.164-1.1l-1.229-1.034c-0.4-0.348-0.859-0.649-1.281-0.973c-0.42-0.326-0.871-0.624-1.324-0.916s-0.883-0.601-1.36-0.864
			l-1.39-0.816l5.553-4.164c0.307,0.835,0.711,1.651,0.867,2.568c0.093,0.451,0.21,0.907,0.264,1.366
			c0.04,0.459,0.058,0.923,0.07,1.388c0.023,0.473-0.058,0.908-0.124,1.357c-0.081,0.437-0.131,0.909-0.277,1.308
			c-0.264,0.822-0.529,1.656-0.867,2.385c-0.165,0.372-0.312,0.765-0.487,1.121l-0.547,1.039c-0.355,0.715-0.777,1.313-1.175,1.959
			c-0.398,0.648-0.843,1.198-1.265,1.8c-0.425,0.595-0.882,1.119-1.322,1.681c-0.44,0.565-0.908,1.06-1.362,1.593
			c-0.454,0.533-0.923,1.025-1.388,1.527c-0.465,0.505-0.933,1.001-1.407,1.477l-1.421,1.439c-1.903,1.894-3.832,3.699-5.76,5.497
			l-5.694-5.608c0.314-0.417,0.696-0.895,1.009-1.584c0.334-0.636,0.624-1.396,0.886-2.177c0.262-0.785,0.491-1.614,0.686-2.469
			c0.197-0.851,0.374-1.724,0.508-2.616c0.284-1.777,0.483-3.6,0.584-5.442c0.05-0.92,0.096-1.843,0.104-2.769
			c0.022-0.925,0.008-1.852-0.004-2.778c-0.031-0.925-0.057-1.852-0.124-2.773c-0.049-0.924-0.14-1.841-0.23-2.756
			c-0.096-0.915-0.218-1.82-0.354-2.719c-0.147-0.893-0.303-1.783-0.497-2.648c-0.381-1.725-0.874-3.406-1.498-4.791
			c-0.312-0.662-0.661-1.299-0.954-1.619c-0.148-0.218-0.255-0.253-0.3-0.319c-0.006,0.02-0.004,0.001,0.019-0.001
			c0.043,0.049,0.106,0.068,0.171,0.05l4.289-5.9c0.278,0.495,0.554,0.971,0.846,1.542c0.287,0.527,0.575,1.168,0.838,1.8
			l0.371,1.016c0.111,0.353,0.201,0.733,0.295,1.1c0.104,0.363,0.155,0.757,0.205,1.15c0.042,0.393,0.119,0.782,0.105,1.181
			l-0.01,1.192c-0.02,0.393-0.091,0.771-0.142,1.157c-0.086,0.79-0.325,1.47-0.525,2.187c-0.218,0.702-0.52,1.307-0.789,1.959
			c-0.298,0.608-0.63,1.164-0.952,1.744c-0.331,0.562-0.698,1.05-1.05,1.575c-0.349,0.536-0.735,0.98-1.111,1.454
			c-0.381,0.462-0.75,0.956-1.151,1.369l-1.186,1.288c-0.391,0.444-0.812,0.81-1.215,1.218l-1.227,1.193l-2.514,2.236l-9.205,8.186
			l2.739-12.242l0.332-1.485c0.053-0.246,0.12-0.498,0.163-0.739l0.093-0.703c0.048-0.458,0.172-0.963,0.146-1.365l0.018-0.633
			c0.012-0.215,0.022-0.428-0.017-0.592l-0.06-0.535c-0.01-0.088-0.01-0.183-0.024-0.265l-0.071-0.21
			c-0.045-0.141-0.082-0.283-0.112-0.428c-0.036-0.142-0.128-0.231-0.176-0.354c-0.071-0.252-0.287-0.441-0.431-0.67
			c-0.053-0.119-0.228-0.217-0.328-0.332c-0.133-0.11-0.198-0.233-0.374-0.346c-0.34-0.226-0.589-0.474-1.02-0.706
			c-0.383-0.237-0.779-0.479-1.253-0.714c-0.436-0.237-0.913-0.477-1.417-0.717l-1.522-0.731c-1.029-0.491-2.128-1.009-3.207-1.571
			c-0.545-0.29-1.09-0.547-1.633-0.865l-1.628-0.927l5.678-5.133l0.999,2.483c0.258,0.868,0.484,1.754,0.711,2.634
			c0.127,0.913,0.276,1.825,0.35,2.745c-0.004,0.925,0.063,1.86-0.036,2.779l-0.166,1.378l-0.091,0.687l-0.16,0.667
			c-0.221,0.887-0.415,1.79-0.762,2.618l-0.479,1.264c-0.169,0.414-0.383,0.798-0.574,1.197l-0.599,1.183l-0.687,1.104
			c-0.233,0.364-0.456,0.74-0.701,1.092l-0.768,1.02c-0.5,0.697-1.048,1.331-1.609,1.949c-0.279,0.311-0.553,0.631-0.839,0.932
			l-0.883,0.867l-0.886,0.864l-0.924,0.8c-0.615,0.536-1.231,1.069-1.88,1.544c-0.643,0.483-1.271,1-1.938,1.435
			c-0.661,0.445-1.312,0.919-1.986,1.337l-2.029,1.247l-10.524,6.469l4.825-11.483c0.693-1.648,1.161-3.503,1.403-5.372
			c0.245-1.87,0.243-3.78-0.021-5.527c-0.063-0.438-0.148-0.863-0.254-1.267c-0.1-0.408-0.216-0.8-0.358-1.156
			c-0.133-0.367-0.306-0.692-0.491-0.973c-0.18-0.292-0.381-0.519-0.556-0.732l-0.476-0.551c-0.146-0.16-0.275-0.338-0.453-0.465
			c-0.166-0.149-0.38-0.256-0.626-0.368l-0.413-0.131l-0.48-0.083l3.216-3.134l-0.492,1.87l-0.253,0.921l-0.362,0.888
			c-0.249,0.586-0.479,1.176-0.75,1.741l-0.929,1.631c-0.286,0.551-0.683,1.03-1.037,1.529c-0.362,0.493-0.711,0.992-1.138,1.423
			l-1.224,1.316l-1.315,1.19c-0.426,0.403-0.917,0.728-1.369,1.09c-0.452,0.363-0.93,0.687-1.413,0.997
			c-0.478,0.317-0.95,0.635-1.451,0.908c-0.496,0.279-0.982,0.568-1.496,0.806c-0.513,0.242-1.005,0.506-1.526,0.717
			c-0.516,0.221-1.024,0.446-1.549,0.636C422.698,85.049,421.634,85.379,420.565,85.632z"/>
	</g>
	<g>
		<path fill="#2B43FF" d="M96.126,472.109c-1.07-0.253-2.134-0.583-3.167-0.99c-0.525-0.189-1.034-0.415-1.549-0.636
			c-0.522-0.211-1.015-0.476-1.526-0.718c-0.514-0.237-1.001-0.525-1.496-0.806c-0.501-0.272-0.974-0.59-1.452-0.908
			c-0.483-0.311-0.961-0.634-1.413-0.997c-0.452-0.361-0.943-0.687-1.369-1.09l-1.315-1.189l-1.224-1.316
			c-0.426-0.431-0.775-0.931-1.138-1.423c-0.354-0.499-0.75-0.979-1.037-1.529l-0.928-1.631c-0.271-0.565-0.501-1.154-0.75-1.741
			l-0.363-0.888l-0.253-0.921l-0.492-1.87l3.216,3.134l-0.481,0.083l-0.413,0.131c-0.246,0.112-0.459,0.22-0.626,0.368
			c-0.178,0.127-0.306,0.305-0.453,0.465l-0.475,0.552c-0.175,0.214-0.376,0.439-0.556,0.732c-0.185,0.281-0.358,0.606-0.491,0.974
			c-0.143,0.355-0.259,0.747-0.359,1.155c-0.104,0.404-0.19,0.829-0.253,1.268c-0.264,1.747-0.267,3.655-0.021,5.526
			c0.242,1.87,0.71,3.725,1.403,5.372l4.826,11.483l-10.525-6.469l-2.029-1.247c-0.675-0.417-1.325-0.893-1.987-1.337
			c-0.667-0.436-1.295-0.952-1.938-1.436c-0.648-0.475-1.265-1.008-1.88-1.544l-0.924-0.8l-0.885-0.864l-0.883-0.867
			c-0.286-0.301-0.559-0.621-0.839-0.932c-0.562-0.617-1.11-1.252-1.61-1.949l-0.767-1.02c-0.245-0.353-0.468-0.729-0.701-1.093
			l-0.687-1.104l-0.598-1.183c-0.192-0.399-0.406-0.783-0.575-1.197l-0.478-1.265c-0.347-0.826-0.541-1.73-0.762-2.617l-0.16-0.667
			l-0.091-0.688l-0.166-1.378c-0.098-0.919-0.032-1.853-0.036-2.779c0.073-0.92,0.223-1.832,0.35-2.744
			c0.227-0.881,0.454-1.766,0.711-2.635l0.999-2.482l5.677,5.133l-1.628,0.927c-0.543,0.318-1.088,0.575-1.632,0.865
			c-1.08,0.562-2.178,1.08-3.207,1.571l-1.523,0.73c-0.505,0.24-0.981,0.479-1.417,0.717c-0.474,0.235-0.87,0.478-1.253,0.715
			c-0.431,0.232-0.68,0.479-1.019,0.705c-0.176,0.113-0.242,0.236-0.374,0.347c-0.101,0.114-0.276,0.213-0.329,0.332
			c-0.144,0.229-0.359,0.418-0.43,0.67c-0.048,0.123-0.14,0.212-0.176,0.354c-0.031,0.146-0.068,0.288-0.112,0.429l-0.072,0.21
			c-0.014,0.082-0.015,0.177-0.024,0.265l-0.06,0.534c-0.039,0.165-0.029,0.378-0.016,0.592l0.017,0.633
			c-0.025,0.401,0.098,0.907,0.146,1.365l0.093,0.703c0.044,0.241,0.11,0.493,0.163,0.739l0.332,1.484l2.739,12.242L42.2,468.48
			l-2.514-2.236l-1.226-1.193c-0.405-0.408-0.825-0.773-1.215-1.218l-1.186-1.288c-0.401-0.413-0.77-0.908-1.151-1.369
			c-0.376-0.474-0.763-0.918-1.111-1.454c-0.352-0.525-0.719-1.013-1.05-1.574c-0.321-0.58-0.654-1.137-0.952-1.744
			c-0.27-0.652-0.572-1.257-0.789-1.959c-0.201-0.718-0.44-1.398-0.526-2.188c-0.051-0.386-0.122-0.764-0.141-1.157l-0.01-1.191
			c-0.014-0.399,0.063-0.787,0.105-1.182c0.05-0.393,0.102-0.786,0.205-1.149c0.094-0.367,0.184-0.747,0.295-1.101l0.371-1.016
			c0.263-0.631,0.551-1.271,0.838-1.8c0.293-0.571,0.568-1.046,0.846-1.542l4.289,5.9c0.064,0.018,0.128-0.002,0.171-0.051
			c0.022,0.003,0.024,0.021,0.018,0.001c-0.045,0.066-0.152,0.102-0.299,0.319c-0.293,0.321-0.643,0.957-0.954,1.619
			c-0.623,1.385-1.117,3.065-1.498,4.791c-0.195,0.865-0.35,1.755-0.498,2.647c-0.137,0.899-0.259,1.805-0.354,2.72
			c-0.091,0.914-0.183,1.832-0.231,2.755c-0.067,0.922-0.091,1.848-0.124,2.772c-0.011,0.927-0.026,1.854-0.003,2.778
			c0.008,0.926,0.054,1.849,0.104,2.769c0.101,1.842,0.3,3.665,0.584,5.441c0.134,0.893,0.311,1.765,0.508,2.616
			c0.194,0.854,0.424,1.684,0.685,2.469c0.262,0.781,0.553,1.541,0.886,2.177c0.313,0.689,0.694,1.167,1.009,1.584l-5.694,5.608
			c-1.928-1.798-3.857-3.603-5.76-5.497l-1.421-1.438c-0.475-0.477-0.942-0.974-1.407-1.478c-0.466-0.502-0.935-0.994-1.388-1.527
			c-0.453-0.532-0.922-1.026-1.362-1.593c-0.441-0.562-0.897-1.086-1.323-1.681c-0.422-0.603-0.867-1.153-1.264-1.801
			c-0.398-0.646-0.82-1.244-1.175-1.959l-0.547-1.039c-0.176-0.356-0.322-0.749-0.487-1.121c-0.338-0.729-0.604-1.563-0.867-2.385
			c-0.147-0.4-0.197-0.871-0.278-1.309c-0.066-0.449-0.147-0.885-0.124-1.356c0.013-0.466,0.03-0.93,0.071-1.389
			c0.054-0.459,0.171-0.915,0.263-1.366c0.155-0.917,0.56-1.732,0.867-2.567l5.553,4.164l-1.39,0.815
			c-0.476,0.264-0.907,0.572-1.36,0.864c-0.452,0.293-0.903,0.59-1.324,0.916c-0.422,0.324-0.881,0.626-1.281,0.973l-1.229,1.034
			l-1.164,1.101l-1.103,1.158c-0.359,0.396-0.674,0.817-1.02,1.23c-0.332,0.419-0.607,0.866-0.921,1.306
			c-0.29,0.447-0.528,0.917-0.802,1.384c-0.225,0.478-0.444,0.966-0.653,1.462c-0.146,0.505-0.37,1.012-0.483,1.535
			c-0.108,0.524-0.267,1.061-0.291,1.604l-0.084,0.826l0.019,0.831c-0.02,0.567,0.109,1.111,0.181,1.684
			c0.084,0.569,0.282,1.109,0.425,1.685c-0.301-0.492-0.669-0.974-0.931-1.509c-0.249-0.539-0.541-1.082-0.697-1.669l-0.278-0.88
			l-0.172-0.908c-0.144-0.612-0.15-1.23-0.198-1.861c-0.046-0.632,0.029-1.252,0.055-1.891c0.081-0.622,0.182-1.248,0.298-1.875
			c0.161-0.604,0.299-1.232,0.494-1.836c0.215-0.589,0.405-1.206,0.655-1.786c0.261-0.57,0.504-1.167,0.792-1.729
			c0.299-0.553,0.594-1.118,0.909-1.67l1.027-1.593l1.12-1.522c0.372-0.516,0.793-0.971,1.192-1.462
			c0.398-0.493,0.824-0.951,1.255-1.406c0.431-0.454,0.852-0.932,1.309-1.354l1.358-1.307l5.483-5.276l0.07,9.44
			c0.003,0.431-0.131,0.829-0.052,1.225c0.023,0.195,0.009,0.383,0.044,0.574c0.053,0.193,0.082,0.381,0.107,0.567
			c-0.007,0.183,0.079,0.385,0.101,0.581c0.047,0.2,0.019,0.391,0.088,0.609c0.11,0.427,0.157,0.862,0.377,1.315
			c0.093,0.227,0.172,0.447,0.282,0.675l0.368,0.689c0.215,0.46,0.555,0.926,0.836,1.392c0.279,0.469,0.66,0.932,0.983,1.398
			c0.329,0.468,0.733,0.926,1.095,1.391c0.358,0.466,0.789,0.918,1.179,1.379s0.821,0.912,1.242,1.366
			c0.418,0.455,0.844,0.907,1.29,1.354l1.326,1.344c1.793,1.784,3.671,3.543,5.556,5.301l-5.694,5.608
			c-0.926-1.096-1.681-2.231-2.198-3.321c-0.568-1.103-0.974-2.183-1.336-3.256c-0.357-1.073-0.648-2.135-0.889-3.191
			c-0.245-1.056-0.455-2.106-0.613-3.151c-0.334-2.093-0.557-4.171-0.672-6.241c-0.057-1.036-0.107-2.07-0.117-3.104
			c-0.025-1.034-0.01-2.065,0.004-3.099c0.035-1.033,0.064-2.065,0.137-3.098c0.055-1.033,0.156-2.066,0.261-3.102
			c0.108-1.034,0.247-2.071,0.406-3.108c0.171-1.04,0.354-2.08,0.588-3.128c0.469-2.096,1.053-4.203,2.035-6.396
			c0.525-1.104,1.091-2.222,2.07-3.398c0.436-0.569,1.085-1.179,1.801-1.718c0.414-0.27,0.822-0.531,1.276-0.755
			c0.506-0.206,1.034-0.383,1.562-0.524l8.95-2.381l-4.661,8.281c-0.244,0.433-0.501,0.881-0.692,1.259
			c-0.224,0.407-0.363,0.746-0.514,1.094l-0.18,0.483l-0.114,0.444c-0.054,0.147-0.057,0.285-0.073,0.421
			c-0.008,0.136-0.063,0.271-0.04,0.408c0.006,0.135,0.006,0.27-0.001,0.405c0.003,0.139,0.048,0.284,0.062,0.427
			c0.004,0.277,0.149,0.602,0.22,0.914c0.089,0.317,0.283,0.665,0.404,1.003c0.172,0.346,0.395,0.703,0.581,1.059
			c0.206,0.357,0.489,0.719,0.725,1.081c0.225,0.364,0.545,0.721,0.83,1.082c0.298,0.359,0.559,0.727,0.904,1.076l0.978,1.063
			c0.31,0.36,0.698,0.694,1.042,1.042l1.063,1.037l2.262,2.011l-6.466,4.057l-0.426-1.886c-0.068-0.316-0.145-0.622-0.204-0.948
			l-0.142-1.01c-0.078-0.686-0.218-1.312-0.214-2.066l-0.028-1.093c-0.011-0.361-0.019-0.725,0.038-1.13l0.134-1.183
			c0.027-0.198,0.045-0.391,0.082-0.591l0.165-0.62l0.363-1.232c0.134-0.407,0.361-0.81,0.55-1.21
			c0.365-0.825,0.916-1.512,1.454-2.209c0.264-0.365,0.575-0.604,0.867-0.907c0.297-0.272,0.601-0.602,0.902-0.814
			c0.598-0.44,1.229-0.948,1.809-1.271c0.596-0.371,1.188-0.721,1.745-0.999c0.577-0.313,1.129-0.588,1.665-0.844l1.591-0.764
			c1.049-0.501,2.035-0.966,2.997-1.468c0.472-0.252,0.971-0.486,1.42-0.753l1.375-0.781l10.035-5.703l-4.358,10.837l-0.657,1.636
			l-0.448,1.649c-0.055,0.554-0.158,1.104-0.208,1.656c0.027,0.552-0.043,1.104,0.025,1.655l0.103,0.824l0.045,0.414l0.108,0.41
			c0.146,0.545,0.237,1.101,0.479,1.637l0.301,0.814c0.108,0.271,0.264,0.532,0.391,0.799l0.396,0.801l0.492,0.776
			c0.166,0.258,0.316,0.523,0.493,0.778l0.571,0.75c0.359,0.511,0.78,0.994,1.216,1.47l0.643,0.72l0.703,0.687l0.7,0.688l0.756,0.65
			c0.501,0.436,1.001,0.874,1.549,1.271c0.541,0.403,1.053,0.835,1.628,1.205c0.567,0.378,1.111,0.781,1.694,1.142l1.752,1.078
			l-5.699,5.014c-1.026-2.451-1.639-4.945-1.971-7.478c-0.325-2.531-0.346-5.108,0.05-7.754c0.097-0.659,0.229-1.326,0.4-1.998
			c0.164-0.67,0.369-1.344,0.625-2.023c0.243-0.677,0.536-1.366,0.887-2.056c0.341-0.689,0.773-1.38,1.286-2.036
			c0.533-0.648,1.16-1.266,1.903-1.77c0.738-0.506,1.561-0.923,2.419-1.198c0.852-0.297,1.729-0.44,2.577-0.509
			c0.421-0.022,0.834-0.013,1.246-0.009l1.184,0.124l3.132,0.327l0.084,2.807l0.04,1.342l0.013,0.685l0.104,0.671
			c0.073,0.449,0.121,0.911,0.21,1.368l0.377,1.351c0.099,0.467,0.317,0.893,0.489,1.341c0.187,0.442,0.336,0.911,0.584,1.335
			l0.687,1.318l0.815,1.271c0.262,0.438,0.604,0.817,0.906,1.234c0.302,0.419,0.64,0.812,0.989,1.197
			c0.343,0.392,0.686,0.79,1.066,1.152c0.376,0.365,0.727,0.771,1.127,1.118c0.394,0.355,0.775,0.738,1.192,1.072
			c0.411,0.344,0.82,0.697,1.253,1.019C94.306,470.897,95.19,471.533,96.126,472.109z"/>
	</g>
	<g id="path6606_14_" inkscape:connector-curvature="0">
		<path fill="#2B43FF" d="M509.57,776.352c0.677-0.666,1.238-1.407,1.755-2.15c0.233-0.396,0.489-0.76,0.686-1.165
			c0.2-0.402,0.411-0.783,0.568-1.196c0.169-0.402,0.352-0.788,0.467-1.206c0.122-0.413,0.28-0.798,0.347-1.221
			c0.076-0.417,0.191-0.81,0.232-1.224l0.118-1.223l-0.002-1.216c0.021-0.393-0.035-0.799-0.081-1.197
			c-0.057-0.399-0.061-0.782-0.153-1.178l-0.256-1.167c-0.06-0.381-0.196-0.767-0.322-1.148l-0.364-1.129
			c-0.292-0.753-0.692-1.471-0.836-2.238l-1.445-7.753l6.956,2.866c0.636,0.263,1.123,0.543,1.668,0.819
			c0.531,0.276,1.071,0.522,1.607,0.78c1.069,0.518,2.127,1.057,3.175,1.626c2.095,1.141,4.155,2.378,6.163,3.808
			c0.503,0.354,1,0.729,1.494,1.11c0.492,0.392,0.985,0.776,1.466,1.205c0.969,0.832,1.914,1.745,2.812,2.79
			c0.451,0.511,0.885,1.073,1.298,1.672c0.416,0.591,0.802,1.249,1.156,1.939c0.167,0.364,0.337,0.722,0.488,1.098
			c0.14,0.395,0.275,0.789,0.398,1.189c0.102,0.424,0.194,0.852,0.277,1.28c0.051,0.448,0.092,0.897,0.122,1.348l-7.94-0.575
			c0.445-2.538,0.905-5.034,1.386-7.547c0.483-2.509,0.977-5.016,1.511-7.525c0.533-2.513,1.083-5.021,1.724-7.559
			c0.152-0.631,0.32-1.269,0.498-1.912c0.173-0.64,0.342-1.276,0.554-1.942c0.2-0.655,0.393-1.306,0.673-2.033l0.196-0.53
			c0.068-0.179,0.117-0.335,0.239-0.581c0.212-0.447,0.435-0.893,0.668-1.33l4.297-8.055l2.925,8.952l0.755,2.31l0.791,2.329
			c0.535,1.552,1.087,3.099,1.652,4.638c1.131,3.077,2.32,6.13,3.592,9.118c1.272,2.984,2.622,5.93,4.125,8.666
			c0.371,0.688,0.761,1.353,1.155,1.996c0.394,0.648,0.802,1.261,1.213,1.841c0.413,0.564,0.836,1.104,1.236,1.52
			c0.399,0.452,0.773,0.693,0.921,0.807l-4.874,0.857c0.253-0.286,0.581-0.681,0.873-1.036c0.296-0.373,0.6-0.739,0.889-1.122
			c0.586-0.757,1.156-1.53,1.701-2.313c0.554-0.781,1.063-1.581,1.577-2.379l0.721-1.213c0.252-0.4,0.449-0.814,0.675-1.221
			c0.226-0.407,0.442-0.815,0.626-1.228c0.188-0.411,0.404-0.821,0.572-1.231l0.494-1.229c0.162-0.409,0.262-0.813,0.399-1.218
			c0.15-0.407,0.23-0.802,0.31-1.191c0.08-0.391,0.2-0.791,0.206-1.15c0.019-0.361,0.107-0.751,0.091-1.087
			c-0.023-0.332-0.034-0.663-0.033-0.996l7.94-0.976c0.052,0.451,0.141,0.964,0.25,1.445c0.109,0.489,0.219,0.979,0.255,1.482
			c0.054,1.007-0.003,2.037,0.021,3.057c0.018,2.043,0.083,4.087,0.23,6.117c0.126,2.034,0.295,4.071,0.669,6.05
			c0.092,0.497,0.202,0.983,0.311,1.478c0.118,0.488,0.258,0.966,0.42,1.441c0.35,0.928,0.772,1.846,1.646,2.469
			c-0.519-0.085-1.06-0.311-1.516-0.637c-0.467-0.319-0.874-0.707-1.271-1.11c-0.766-0.82-1.438-1.717-2.023-2.652
			c-0.589-0.933-1.138-1.891-1.642-2.861c-0.503-0.971-0.998-1.95-1.437-2.944c-0.876-1.99-1.67-4.007-2.413-6.04
			c-0.355-1.021-0.767-2.033-1.041-3.073c-0.128-0.521-0.178-1.056-0.22-1.593c-0.042-0.544-0.099-1.058-0.179-1.635l7.94-0.977
			c0.042,0.689,0.071,1.38,0.09,2.071c0.011,0.686-0.099,1.311-0.152,1.969c-0.046,0.667-0.201,1.256-0.329,1.867
			c-0.128,0.613-0.266,1.219-0.46,1.775c-0.186,0.565-0.348,1.155-0.56,1.697l-0.649,1.618c-0.222,0.535-0.479,1.034-0.719,1.553
			c-0.237,0.521-0.499,1.018-0.768,1.506c-0.271,0.488-0.521,0.996-0.811,1.465l-0.849,1.426c-0.592,0.925-1.186,1.849-1.814,2.737
			c-0.623,0.896-1.268,1.771-1.934,2.632c-0.328,0.434-0.677,0.855-1.018,1.283c-0.357,0.435-0.682,0.828-1.106,1.31l-2.143,2.427
			l-2.732-1.57c-1.286-0.738-2.21-1.566-2.937-2.345c-0.752-0.79-1.354-1.57-1.924-2.35c-0.555-0.778-1.069-1.557-1.541-2.332
			c-0.476-0.777-0.929-1.554-1.35-2.332c-1.705-3.11-3.131-6.239-4.476-9.386c-1.339-3.147-2.57-6.312-3.739-9.492
			c-0.584-1.59-1.152-3.186-1.705-4.785l-0.817-2.406l-0.798-2.443l7.223,0.896c-0.045,0.132-0.1,0.256-0.167,0.377
			c-0.029,0.034-0.078,0.181-0.12,0.298l-0.131,0.362c-0.181,0.453-0.349,1.019-0.518,1.574c-0.175,0.541-0.33,1.129-0.488,1.711
			c-0.161,0.578-0.315,1.164-0.46,1.765c-0.601,2.375-1.137,4.817-1.655,7.262c-0.52,2.444-1.005,4.91-1.479,7.377
			c-0.472,2.464-0.93,4.95-1.36,7.403l-7.939-0.576c-0.021-0.111-0.031-0.222-0.031-0.335c-0.035-0.122-0.063-0.246-0.082-0.372
			c-0.049-0.134-0.1-0.271-0.139-0.41l-0.201-0.446c-0.164-0.309-0.342-0.628-0.577-0.957c-0.227-0.327-0.479-0.664-0.775-0.995
			c-1.145-1.34-2.695-2.627-4.351-3.809c-1.664-1.187-3.472-2.277-5.335-3.291c-0.934-0.508-1.883-0.991-2.842-1.455
			c-0.48-0.23-0.958-0.466-1.453-0.654c-0.481-0.19-1.025-0.364-1.43-0.532l5.509-4.886c0.127,0.517,0.188,1.052,0.239,1.584
			c0.033,0.538,0.09,1.061,0.096,1.6l-0.039,1.627c-0.015,0.537-0.022,1.068-0.111,1.615l-0.225,1.608
			c-0.076,0.529-0.249,1.063-0.372,1.586c-0.134,0.522-0.261,1.04-0.473,1.546c-0.191,0.507-0.377,1.008-0.597,1.493l-0.749,1.414
			c-0.251,0.463-0.578,0.89-0.862,1.323c-0.274,0.44-0.639,0.826-0.961,1.224c-0.314,0.402-0.693,0.756-1.052,1.113
			c-0.347,0.365-0.766,0.664-1.149,0.979c-0.386,0.315-0.817,0.576-1.218,0.853C511.349,775.618,510.481,776.065,509.57,776.352z"/>
	</g>
	<rect fill-opacity="0.4" width="612" height="792"/>
</g>
</svg>
