<svg xmlns="http://www.w3.org/2000/svg" width="101.25" height="104.13" viewBox="13.243 10.847 101.246 104.129" style="enable-background:new 13.243 10.847 101.246 104.129"><g transform="translate(-.917-925.28)"><path d="m114.9 989.89c0 27.818-22.551 50.37-50.37 50.37s-50.37-22.551-50.37-50.37c0-27.818 22.551-50.37 50.37-50.37s50.37 22.551 50.37 50.37" style="fill-opacity:.165"/><path d="m115.41 986.5c0 27.817-22.551 50.37-50.37 50.37s-50.37-22.551-50.37-50.37c0-27.818 22.551-50.37 50.37-50.37s50.37 22.551 50.37 50.37" style="fill:#f7f9b9"/><path d="m108.26 986.51c0 23.72-19.229 42.948-42.948 42.948s-42.948-19.229-42.948-42.948 19.229-42.948 42.948-42.948 42.948 19.229 42.948 42.948z" style="fill:#6cd60f;fill-opacity:.941;stroke:#278612"/><path d="m41.594 952.44c0 0 7.27-7.812 23.885-7.812 16.617 0 28.93 8.563 36.35 21.18 7.418 12.62 5.49 25.09 4.154 31.699 0 0-.506-26.04-22.611-40.613-22.1-14.573-41.776-4.457-41.776-4.457" style="fill:#96e647"/><g style="fill:#49b618"><path d="m89.37 1021.57c0 0-7.39 7.332-24.01 7.332-16.616 0-29.409-8.683-36.827-21.302s-6.089-24.25-4.753-30.859c0 0 .35 24.899 22.456 39.472s43.13 5.357 43.13 5.357"/><path d="m36.652 987.89l8.873-7.04 13.92 13.92 17.833-30.886 10.891 6.289-25.364 43.934-26.15-26.22"/></g><path d="m36.652 984.63l8.873-7.04 13.92 13.921 17.833-30.887 10.891 6.288-25.364 43.934-26.15-26.22" style="fill:#fff"/></g></svg>