<svg xmlns="http://www.w3.org/2000/svg" width="100.91" height="101.75" viewBox="12.19 12.646 100.907 101.755" style="enable-background:new 12.19 12.646 100.907 101.755"><g transform="translate(-2.75-947.89)"><path d="m115.85 1011.92c0 27.818-22.551 50.37-50.37 50.37-27.818 0-50.37-22.551-50.37-50.37 0-27.817 22.551-50.37 50.37-50.37 27.818 0 50.37 22.551 50.37 50.37" style="fill-opacity:.165"/><path d="m115.68 1010.91c0 27.818-22.551 50.37-50.37 50.37s-50.37-22.551-50.37-50.37c0-27.817 22.551-50.37 50.37-50.37s50.37 22.55 50.37 50.37" style="fill:#f7f9b9"/><path d="m108.53 1010.93c0 23.719-19.229 42.948-42.948 42.948s-42.948-19.229-42.948-42.948c0-23.72 19.229-42.948 42.948-42.948s42.948 19.228 42.948 42.948z" style="fill:#49b618;stroke:#2c8916"/><path d="m42.714 975.16c0 0 7.27-7.812 23.886-7.812 16.615 0 28.93 8.563 36.35 21.18 7.418 12.619 5.489 25.09 4.154 31.698 0 0-.506-26.04-22.611-40.612s-41.777-4.457-41.777-4.457" style="fill:#2c8916"/><path d="m89.64 1045.99c0 0-7.389 7.332-24 7.332-16.616 0-29.409-8.684-36.827-21.303s-6.089-24.25-4.753-30.859c0 0 .35 24.899 22.456 39.471 22.1 14.572 43.13 5.359 43.13 5.359" style="fill:#74d819"/><path d="m37.26 1010.23l8.873-7.04 13.92 13.92 17.833-30.886 10.892 6.288-25.365 43.934-26.15-26.22" style="fill:#fff"/></g></svg>