<svg xmlns="http://www.w3.org/2000/svg" width="78.55" height="75.63" viewBox="0 0 78.545 75.629" style="enable-background:new 0 0 78.545 75.629"><g transform="translate(0-924.36)"><g transform="translate(-6.497 883.35)"><path d="m21.54 42.938h48.46c8.31 0 15.04 6.735 15.04 15.04v43.62c0 8.309-6.733 15.04-15.04 15.04h-48.46c-8.308 0-15.04-6.734-15.04-15.04v-43.62c0-8.308 6.734-15.04 15.04-15.04" style="fill-opacity:.165"/><path d="m21.54 41.02h48.26c8.31 0 15.04 6.735 15.04 15.04v43.619c0 8.309-6.733 15.04-15.04 15.04h-48.26c-8.308 0-15.04-6.734-15.04-15.04v-43.619c0-8.308 6.734-15.04 15.04-15.04" style="fill:#f7f9b9"/><path d="m23.966 44.557h42.3c7.965 0 14.422 6.457 14.422 14.421v37.25c0 7.965-6.457 14.421-14.422 14.421h-42.3c-7.964 0-14.421-6.456-14.421-14.421v-37.25c0-7.966 6.457-14.421 14.421-14.421z" style="fill:#d8d719;stroke:#698612;stroke-width:.481"/><path d="m80.15 91.49c0 0-.256-9.337-.256-26.819 0-13.914-5.793-19.396-13.82-19.396-5.647 0-36.816-.052-41.744 0-5.708.06-13.602 4.287-14.235 14.409 0 0 6.497-8.49 15.317-9.895 9.476-1.509 29.04-4.112 37.935.883 8.893 4.995 15.482 6.534 16.803 40.818" style="fill:#e6e447"/><path d="m9.935 67.867c0 0-.17 11.375-.17 28.858 0 6.861 6.132 13.958 15.09 13.958 5.648 0 36.23-.118 41.15-.17 5.708-.062 9.862-3.354 11.856-6.507 0 0-3.948 2.713-13.277 3.098-9.588.395-34.438 4.268-44.05-1.689-8.669-5.371-6.898-12.185-10.599-37.548" style="fill:#a9b618"/><path d="m77.55 59.99c0 0-4.231-6.113-6.382-7.658-2.148-1.545-7.391-3.358-11.02-3.628-3.626-.269-16.323-.604-16.323-.604s12.898-.875 16.861-.806c5.04.087 11.125 1.685 12.429 2.956 1.327 1.293 4.165 4.298 4.433 9.74" style="fill:#efef90"/><path d="m9.753 90.39c0 0-.085 3.654-.085 5.947 0 3.654 1.445 7.309 4.249 10.112s6.203 4.079 7.308 4.164c1.104.085 6.542.255 9.09.255 2.55 0-3.738-.85-6.373-1.189-2.634-.34-6.797-2.295-8.498-3.738-1.698-1.444-5.353-5.01-5.692-15.551" style="fill:#698612"/><path d="m27.14 51.921h33.729c6.344 0 11.485 5.143 11.485 11.486v29.673c0 6.344-5.143 11.486-11.485 11.486h-33.729c-6.344 0-11.485-5.143-11.485-11.486v-29.674c0-6.343 5.142-11.485 11.485-11.485z" style="fill:#a9b618;stroke:#698612;stroke-width:.383"/><path d="m15.738 67.5c0 0 .313 8.971.012 22.893-.191 8.881 4.816 13.917 11.227 13.917 4.51 0 30.23.041 34.16 0 4.559-.048 10.45-3.164 10.956-11.228 0 0-4.776 6.514-11.819 7.631-7.566 1.203-23.893 1.97-30.994-2.01-7.101-3.978-12.486-3.898-13.542-31.2" style="fill:#d8d719"/><path d="m72.53 85.956c0 0 .334-8.711.334-22.636 0-6.01-5-11.778-12.144-11.778-4.498 0-29.24.094-33.17.136-4.548.048-7.856 2.67-9.444 5.182 0 0 3.145-2.16 10.577-2.466 7.636-.313 28.2-2.442 35.29 1.537 7.084 3.979 5.607 9.824 8.556 30.02" style="fill:#698612"/><path d="m15.783 88.08c0 0-.067 2.911-.067 4.738 0 2.91 1.15 5.82 3.384 8.05 2.234 2.233 4.941 3.248 5.821 3.316.88.066 5.212.203 7.242.203s-2.978-.678-5.076-.947c-2.099-.271-5.415-1.828-6.769-2.979s-4.264-3.992-4.535-12.386" style="fill:#e6e447"/></g><path d="m18.384 962.37l6.333-5.02 9.937 9.937 12.729-22.05 7.774 4.488-18.11 31.361-18.667-18.717" style="fill:#698612"/><path d="m18.423 960.64l6.333-5.02 9.937 9.938 12.729-22.05 7.774 4.489-18.11 31.36-18.667-18.716" style="fill:#f7f9b9"/></g></svg>