<svg xmlns="http://www.w3.org/2000/svg" width="78.55" height="75.63" viewBox="0 0 78.545 75.629" style="enable-background:new 0 0 78.545 75.629"><g transform="translate(-6.02-41.492)"><path d="m21.06 44.41h48.46c8.311 0 15.04 6.735 15.04 15.04v43.62c0 8.308-6.732 15.04-15.04 15.04h-48.46c-8.308 0-15.04-6.736-15.04-15.04v-43.62c0-8.308 6.734-15.04 15.04-15.04" style="fill-opacity:.165"/><path d="m21.06 42.492h48.26c8.309 0 15.04 6.735 15.04 15.04v43.62c0 8.309-6.734 15.04-15.04 15.04h-48.26c-8.308 0-15.04-6.734-15.04-15.04v-43.62c0-8.308 6.734-15.04 15.04-15.04" style="fill:#f7f9b9"/><path d="m23.49 46.03h42.3c7.965 0 14.422 6.456 14.422 14.421v37.25c0 7.966-6.457 14.421-14.422 14.421h-42.3c-7.964 0-14.421-6.455-14.421-14.421v-37.25c-.0001-7.965 6.456-14.421 14.421-14.421z" style="fill:#d8d719;stroke:#698612;stroke-width:.481"/><path d="m79.67 92.97c0 0-.256-9.336-.256-26.819 0-13.913-5.791-19.396-13.82-19.396-5.646 0-36.817-.052-41.744 0-5.708.06-13.603 4.287-14.236 14.409 0 0 6.497-8.49 15.316-9.895 9.477-1.508 29.04-4.112 37.935.883 8.893 4.995 15.483 6.534 16.805 40.818" style="fill:#e6e447"/><path d="m9.459 69.34c0 0-.17 11.377-.17 28.859 0 6.86 6.133 13.957 15.1 13.957 5.647 0 36.22-.118 41.15-.17 5.707-.061 9.861-3.354 11.854-6.506 0 0-3.947 2.712-13.275 3.096-9.588.396-34.44 4.268-44.05-1.688-8.671-5.373-6.9-12.187-10.601-37.548" style="fill:#a9b618"/><path d="m77.08 61.47c0 0-4.232-6.112-6.381-7.659-2.15-1.545-7.391-3.359-11.02-3.627-3.627-.269-16.324-.604-16.324-.604s12.898-.875 16.861-.806c5.04.087 11.125 1.685 12.428 2.956 1.331 1.292 4.169 4.298 4.436 9.74" style="fill:#efef90"/><path d="m9.276 91.87c0 0-.085 3.653-.085 5.947 0 3.654 1.444 7.309 4.249 10.113 2.804 2.804 6.204 4.078 7.308 4.162 1.104.086 6.543.256 9.09.256 2.549 0-3.74-.851-6.373-1.189-2.635-.339-6.799-2.295-8.499-3.738-1.698-1.445-5.352-5.01-5.693-15.551" style="fill:#698612"/><path d="m26.667 53.4h33.727c6.346 0 11.486 5.143 11.486 11.486v29.672c0 6.345-5.143 11.486-11.486 11.486h-33.727c-6.344 0-11.486-5.143-11.486-11.486v-29.671c0-6.344 5.143-11.487 11.486-11.487z" style="fill:#a9b618;stroke:#698612;stroke-width:.383"/><path d="m15.263 68.976c0 0 .312 8.972.012 22.893-.191 8.881 4.817 13.918 11.227 13.918 4.51 0 30.22.041 34.16 0 4.557-.049 10.449-3.165 10.955-11.227 0 0-4.777 6.512-11.82 7.631-7.564 1.201-23.89 1.968-30.992-2.01-7.102-3.978-12.488-3.897-13.542-31.2" style="fill:#d8d719"/><path d="m72.06 87.43c0 0 .334-8.711.334-22.635 0-6.01-5-11.779-12.143-11.779-4.498 0-29.24.094-33.17.135-4.546.048-7.855 2.67-9.443 5.183 0 0 3.145-2.16 10.576-2.467 7.637-.314 28.2-2.442 35.29 1.537 7.081 3.979 5.605 9.825 8.554 30.03" style="fill:#698612"/><path d="m15.307 89.56c0 0-.067 2.91-.067 4.738 0 2.909 1.15 5.819 3.384 8.05 2.233 2.233 4.94 3.25 5.819 3.316.881.067 5.213.203 7.242.203 2.031 0-2.978-.677-5.076-.947-2.098-.27-5.414-1.826-6.767-2.979-1.354-1.148-4.264-3.992-4.535-12.384" style="fill:#e6e447"/></g></svg>