<svg xmlns="http://www.w3.org/2000/svg" width="100.91" height="101.75" viewBox="13.718 14.479 100.907 101.755" style="enable-background:new 13.718 14.479 100.907 101.755"><g transform="matrix(.959 0 0 .959-335.36-362.85)"><path d="m469.05 446.87c0 28.996-23.506 52.5-52.5 52.5s-52.5-23.506-52.5-52.5c0-28.997 23.506-52.5 52.5-52.5s52.5 23.507 52.5 52.5" style="fill-opacity:.165"/><path d="m468.88 445.81c0 28.996-23.506 52.5-52.5 52.5-28.996 0-52.5-23.506-52.5-52.5 0-28.997 23.506-52.5 52.5-52.5 28.996 0 52.5 23.506 52.5 52.5" style="fill:#ffe7e7"/><path d="m461.43 445.84c0 24.725-20.04 44.768-44.767 44.768s-44.767-20.04-44.767-44.768 20.04-44.768 44.767-44.768 44.767 20.04 44.767 44.768z" style="fill:#a00;stroke:#800000"/><path d="m392.82 408.55c0 0 7.578-8.143 24.897-8.143 17.321 0 30.16 8.926 37.888 22.08 7.732 13.154 5.723 26.15 4.33 33.04 0 0-.527-27.14-23.569-42.33-23.04-15.189-43.546-4.644-43.546-4.644" style="fill:#800000"/><path d="m441.74 482.38c0 0-7.704 7.644-25.02 7.644-17.32 0-30.655-9.05-38.39-22.2-7.732-13.154-6.347-25.276-4.955-32.17 0 0 .365 25.953 23.407 41.14 23.04 15.19 44.958 5.585 44.958 5.585" style="fill:#ff0e0e"/><path d="m244.01 408.89h-11.133l-3.906-6.679c-.143.247-.283.491-.42.732-.137.241-.277.492-.42.752-.209.352-.42.704-.635 1.055-.215.351-.433.703-.654 1.055-.143.234-.293.485-.449.751-.156.267-.313.537-.469.811-.156.274-.312.54-.469.801-.157.26-.293.501-.41.723h-10.859l9.18-14.648c-.3-.469-.593-.941-.879-1.416-.287-.475-.58-.96-.879-1.455-.352-.586-.716-1.182-1.094-1.787-.377-.605-.742-1.201-1.094-1.787-.338-.56-.677-1.117-1.016-1.67-.338-.553-.677-1.104-1.016-1.651-.195-.312-.42-.677-.674-1.094-.254-.417-.511-.843-.771-1.279-.26-.436-.511-.859-.752-1.27-.241-.41-.446-.752-.615-1.025h11.09l3.613 6.211.137-.254 1.387-2.402c.144-.234.29-.472.439-.713.15-.241.296-.485.439-.732v.02c.091-.143.192-.309.302-.498.111-.189.222-.381.332-.576.111-.195.218-.384.322-.567.104-.182.196-.345.274-.488h10.84l-8.867 14.18 9.122 14.9" transform="matrix(1.642 0 0 1.642 41-201.85)" style="fill:#fff"/></g></svg>