<svg xmlns="http://www.w3.org/2000/svg" width="101.25" height="104.13" viewBox="14.16 12.375 101.247 104.129" style="enable-background:new 14.16 12.375 101.247 104.129"><g transform="matrix(.959 0 0 .959-334.75-253.7)"><path d="m468.7 333.38c0 28.997-23.506 52.5-52.5 52.5-28.996 0-52.5-23.506-52.5-52.5 0-28.996 23.506-52.5 52.5-52.5 28.996 0 52.5 23.506 52.5 52.5" style="fill-opacity:.165"/><path d="m469.23 329.85c0 28.996-23.506 52.5-52.5 52.5-28.996 0-52.5-23.506-52.5-52.5s23.506-52.5 52.5-52.5c28.996 0 52.5 23.507 52.5 52.5" style="fill:#ffe7e7"/><path d="m461.78 329.87c0 24.725-20.04 44.768-44.769 44.768-24.724 0-44.767-20.04-44.767-44.768 0-24.724 20.04-44.767 44.767-44.767 24.726-.0001 44.769 20.04 44.769 44.767z" style="fill:#f00;fill-opacity:.941;stroke:#800000"/><path d="m392.29 294.35c0 0 7.578-8.143 24.898-8.143 17.319 0 30.16 8.926 37.887 22.08 7.732 13.154 5.722 26.15 4.33 33.04 0 0-.527-27.14-23.569-42.33-23.04-15.19-43.546-4.645-43.546-4.645" style="fill:#ff6f2b"/><g style="fill:#a00"><path d="m442.09 366.42c0 0-7.702 7.643-25.02 7.643s-30.656-9.05-38.39-22.2c-7.732-13.155-6.347-25.277-4.955-32.17 0 0 .365 25.954 23.407 41.14 23.04 15.188 44.957 5.584 44.957 5.584"/><path d="m244.01 408.89h-11.133l-3.906-6.679c-.143.247-.283.492-.42.733-.136.241-.276.491-.42.751-.208.352-.42.704-.635 1.055-.215.352-.433.703-.654 1.055-.143.234-.293.485-.449.752-.156.267-.312.537-.469.81-.156.274-.313.541-.469.801s-.293.502-.41.723h-10.859l9.179-14.648c-.299-.469-.592-.941-.879-1.416-.286-.475-.579-.96-.879-1.455-.351-.586-.716-1.181-1.094-1.787-.377-.606-.742-1.201-1.094-1.787-.338-.56-.677-1.116-1.016-1.67-.338-.553-.677-1.103-1.016-1.65-.195-.312-.42-.677-.674-1.094-.254-.417-.511-.843-.772-1.279-.26-.436-.511-.859-.752-1.269-.241-.41-.446-.752-.615-1.026h11.09l3.613 6.211.137-.254 1.387-2.402c.143-.234.29-.472.439-.713.149-.241.296-.485.439-.733v.02c.091-.143.192-.309.302-.498.111-.189.222-.381.332-.576.11-.195.218-.384.322-.567.104-.182.195-.345.273-.488h10.84l-8.867 14.18 9.125 14.9" transform="matrix(1.642 0 0 1.642 41-314.76)"/></g><path d="m244.01 408.89h-11.133l-3.906-6.68c-.143.247-.283.492-.42.733-.136.241-.276.492-.42.752-.208.351-.42.703-.635 1.055-.215.351-.433.703-.654 1.054-.143.234-.293.485-.449.752-.156.267-.312.537-.469.811-.156.273-.313.54-.469.801-.156.26-.293.501-.41.723h-10.859l9.179-14.649c-.299-.469-.592-.941-.879-1.416-.286-.475-.579-.96-.879-1.455-.351-.586-.716-1.182-1.094-1.787-.377-.606-.742-1.201-1.094-1.787-.338-.56-.677-1.116-1.016-1.67-.338-.553-.677-1.104-1.016-1.65-.195-.312-.42-.677-.674-1.094-.254-.417-.511-.843-.772-1.279-.26-.436-.511-.859-.752-1.27-.241-.41-.446-.752-.615-1.025h11.09l3.613 6.211.137-.254 1.387-2.402c.143-.235.29-.472.439-.713.149-.241.296-.485.439-.732v.02c.091-.143.192-.309.302-.498.111-.189.222-.381.332-.576.11-.195.218-.384.322-.567.104-.182.195-.345.273-.488h10.84l-8.867 14.18 9.125 14.9" transform="matrix(1.642 0 0 1.642 41-317.82)" style="fill:#fff"/></g></svg>