<?xml version="1.0" encoding="utf-8"?>
<!-- Generator: Adobe Illustrator 16.0.0, SVG Export Plug-In . SVG Version: 6.00 Build 0)  -->
<!DOCTYPE svg PUBLIC "-//W3C//DTD SVG 1.1//EN" "http://www.w3.org/Graphics/SVG/1.1/DTD/svg11.dtd">
<svg version="1.1" id="Layer_1" xmlns="http://www.w3.org/2000/svg" xmlns:xlink="http://www.w3.org/1999/xlink" x="0px" y="0px"
	 width="617.463px" height="160.139px" viewBox="65.275 893.786 617.463 160.139"
	 enable-background="new 65.275 893.786 617.463 160.139" xml:space="preserve">
<g>
	<path fill-opacity="0.165" d="M96.565,895.847h554.883c17.283,0,31.291,14.444,31.291,32.261v93.556
		c0,17.819-14.01,32.261-31.291,32.261H96.565c-17.283,0-31.29-14.444-31.29-32.261v-93.556c0-17.821,14.01-32.271,31.29-32.271"/>
	<path fill="#F7F9B9" d="M96.565,893.786h554.883c17.283,0,31.291,14.444,31.291,32.261v93.556c0,17.819-14.01,32.261-31.291,32.261
		H96.565c-17.283,0-31.29-14.444-31.29-32.261v-93.556C65.275,908.227,79.285,893.786,96.565,893.786"/>
	<path fill="#A9B618" stroke="#698612" d="M101.615,901.385h545.493c16.57,0,30,13.849,30,30.931v79.904
		c0,17.083-13.432,30.93-30,30.93H101.615c-16.568,0-30-13.847-30-30.93v-79.904C71.615,915.233,85.047,901.385,101.615,901.385
		L101.615,901.385z"/>
	<path fill="#D8D719" d="M71.826,943.337c0,0,0.816,24.158,0.032,61.647c-0.5,23.92,12.58,37.478,29.321,37.478
		c11.779,0,535.826,0.111,546.094,0c11.904-0.129,28.365-9.195,29.688-30.903c0,0-13.549,18.211-31.943,21.222
		c-19.759,3.233-519.284,5.299-537.823-5.414C88.648,1016.652,74.583,1016.872,71.826,943.337"/>
	<path fill="#698612" d="M677.249,992.197c0,0,0.354-24.399,0.354-61.893c0-14.715-12.758-29.931-31.402-29.931
		c-11.749,0-533.253,0.253-543.503,0.365c-11.875,0.129-20.518,7.19-24.665,13.953c0,0,8.213-5.815,27.621-6.641
		c19.944-0.848,530.544-6.575,549.043,4.135c18.502,10.713,14.855,25.621,22.555,80.018"/>
	<path fill="#E6E447" d="M71.942,998.765c0,0-0.177,7.839-0.177,12.759c0,7.837,3.01,15.676,8.839,21.692
		c5.834,6.015,12.904,8.749,15.202,8.931c2.298,0.184,13.611,0.548,18.916,0.548c5.304,0-7.779-1.823-13.259-2.552
		c-5.48-0.728-14.14-4.921-17.678-8.02c-3.534-3.103-11.136-10.755-11.843-33.354"/>
</g>
<g>
	<path fill="#F9F9F7" d="M100.606,949.469v44.82c0,10.443,4.088,15.668,10.617,15.668h60.918c6.09,0,9.7-9.705,9.7-14.363
		c0-4.656-0.581-46.125-0.581-46.125l-42.625,36.814L100.606,949.469z"/>
	<path fill="#F9F9F7" d="M138.201,977.32l-37.593-34.813c0,0,0.172-9.574,8.005-9.574h63.094c7.836,0,9.555,6.525,9.555,10.445
		C145.972,971.836,146.222,971.644,138.201,977.32"/>
</g>
</svg>
