<?xml version="1.0" encoding="utf-8"?>
<!-- Generator: Adobe Illustrator 16.0.0, SVG Export Plug-In . SVG Version: 6.00 Build 0)  -->
<!DOCTYPE svg PUBLIC "-//W3C//DTD SVG 1.1//EN" "http://www.w3.org/Graphics/SVG/1.1/DTD/svg11.dtd">
<svg version="1.1" id="Layer_1" xmlns="http://www.w3.org/2000/svg" xmlns:xlink="http://www.w3.org/1999/xlink" x="0px" y="0px"
	 width="617.463px" height="160.139px" viewBox="66.843 734.192 617.463 160.139"
	 enable-background="new 66.843 734.192 617.463 160.139" xml:space="preserve">
<g>
	<path fill-opacity="0.165" d="M98.132,742.012h554.885c17.283,0,31.289,14.01,31.289,31.289v90.74
		c0,17.283-14.01,31.289-31.289,31.289H98.132c-17.283,0-31.29-14.01-31.29-31.289v-90.74
		C66.843,756.02,80.853,742.012,98.132,742.012"/>
	<path fill="#F7F9B9" d="M98.132,735.192h554.885c17.283,0,31.289,14.01,31.289,31.291v90.738c0,17.283-14.01,31.289-31.289,31.289
		H98.132c-17.283,0-31.29-14.01-31.29-31.289v-90.738C66.843,749.2,80.853,735.192,98.132,735.192"/>
	<path fill="#D8D719" stroke="#698612" d="M103.183,742.553h545.495c16.566,0,29.998,13.43,29.998,29.998v77.5
		c0,16.566-13.432,29.998-29.998,29.998H103.183c-16.568,0-30-13.432-30-29.998v-77.5
		C73.183,755.983,86.615,742.553,103.183,742.553z"/>
	<path fill="#E6E447" d="M677.957,840.192c0,0-0.531-19.424-0.531-55.791c0-28.945-12.051-40.35-28.748-40.35
		c-11.752,0-534.495-0.107-544.745,0c-11.875,0.125-28.3,8.92-29.614,29.975c0,0,13.516-17.662,31.864-20.584
		c19.711-3.139,517.995-5.141,536.495,5.25C661.177,769.084,675.208,768.872,677.957,840.192"/>
	<path fill="#A9B618" d="M73.994,791.051c0,0-0.354,23.668-0.354,60.029c0,14.271,12.757,29.041,31.401,29.041
		c11.75,0,533.254-0.246,543.504-0.355c11.875-0.125,20.518-6.975,24.664-13.533c0,0-8.213,5.641-27.621,6.441
		c-19.943,0.82-530.544,6.377-549.044-4.01c-18.5-10.391-14.853-24.852-22.552-77.609"/>
	<path fill="#EFEF90" d="M671.816,782.752c0,0-11.135-16.09-16.793-20.15c-5.656-4.064-19.445-8.838-28.99-9.545
		c-9.547-0.707-42.955-1.592-42.955-1.592s33.939-2.301,44.369-2.119c13.27,0.229,29.27,4.434,32.703,7.777
		c3.492,3.402,10.959,11.313,11.666,25.631"/>
	<path fill="#698612" d="M73.613,837.901c0,0-0.177,7.602-0.177,12.375c0,7.602,3.01,15.203,8.839,21.041
		c5.833,5.832,12.905,8.484,15.203,8.66c2.298,0.178,13.611,0.531,18.915,0.531c5.303,0-7.779-1.768-13.259-2.475
		s-14.14-4.773-17.678-7.779c-3.535-3.01-11.137-10.43-11.843-32.35"/>
</g>
<g>
	<path fill="#F9F9F7" d="M102.173,789.875v44.819c0,10.443,4.088,15.668,10.617,15.668h60.918c6.09,0,9.701-9.705,9.701-14.363
		c0-4.656-0.582-46.124-0.582-46.124l-42.625,36.813L102.173,789.875z"/>
	<path fill="#F9F9F7" d="M139.767,817.726l-37.593-34.812c0,0,0.172-9.574,8.005-9.574h63.094c7.836,0,9.555,6.525,9.555,10.445
		C147.539,812.243,147.789,812.051,139.767,817.726"/>
</g>
</svg>
