<?xml version="1.0" encoding="utf-8"?>
<!-- Generator: Adobe Illustrator 16.0.0, SVG Export Plug-In . SVG Version: 6.00 Build 0)  -->
<!DOCTYPE svg PUBLIC "-//W3C//DTD SVG 1.1//EN" "http://www.w3.org/Graphics/SVG/1.1/DTD/svg11.dtd">
<svg version="1.1"
	 id="svg5036" xmlns:inkscape="http://www.inkscape.org/namespaces/inkscape" xmlns:sodipodi="http://sodipodi.sourceforge.net/DTD/sodipodi-0.dtd" xmlns:svg="http://www.w3.org/2000/svg" xmlns:cc="http://creativecommons.org/ns#" xmlns:rdf="http://www.w3.org/1999/02/22-rdf-syntax-ns#" xmlns:dc="http://purl.org/dc/elements/1.1/" inkscape:version="0.48.4 r9939" sodipodi:docname="ui-button.svg"
	 xmlns="http://www.w3.org/2000/svg" xmlns:xlink="http://www.w3.org/1999/xlink" x="0px" y="0px" width="617.463px"
	 height="160.139px" viewBox="-115.897 -11.757 617.463 160.139" enable-background="new -115.897 -11.757 617.463 160.139"
	 xml:space="preserve">
<sodipodi:namedview  pagecolor="#ffffff" showgrid="false" inkscape:zoom="1.3068142" inkscape:cy="-34.716203" id="base" bordercolor="#666666" inkscape:cx="519.29333" borderopacity="1.0" inkscape:pageshadow="2" inkscape:window-height="988" inkscape:window-x="-8" inkscape:current-layer="layer1" inkscape:pageopacity="0.0" inkscape:window-width="1680" inkscape:window-maximized="1" inkscape:window-y="-8" inkscape:document-units="px">
	</sodipodi:namedview>
<g id="layer1" transform="translate(0,-924.36218)" inkscape:groupmode="layer" inkscape:label="Layer 1">
	<path id="rect3218-7-0-8-4" fill-opacity="0.1647" d="M-84.604,916.676h554.876c17.281,0,31.293,14.261,31.293,31.853v92.36
		c0,17.593-14.012,31.855-31.293,31.855H-84.604c-17.283,0-31.293-14.263-31.293-31.855v-92.36
		C-115.897,930.939-101.886,916.676-84.604,916.676z"/>
	<path id="rect3218-7-9-9" fill="#F3F5FD" d="M-84.604,912.605h554.876c17.281,0,31.293,14.26,31.293,31.852v92.365
		c0,17.59-14.012,31.851-31.293,31.851H-84.604c-17.283,0-31.293-14.261-31.293-31.851v-92.365
		C-115.897,926.866-101.886,912.605-84.604,912.605z"/>
	<path id="rect3218-83-9" fill="#3C5A99" stroke="#24365C" stroke-width="0.5856" d="M-79.554,920.104h545.488
		c16.566,0,29.999,13.671,29.999,30.534v78.883c0,16.863-13.433,30.535-29.999,30.535H-79.554
		c-16.569,0-29.998-13.672-29.998-30.535v-78.883C-109.554,933.775-96.123,920.104-79.554,920.104z"/>
	<path id="path3222-5-0" sodipodi:nodetypes="cssscssc" inkscape:connector-curvature="0" fill="#5D7CC0" d="M495.212,1019.488
		c0,0-0.53-19.77-0.53-56.787c0-29.462-12.051-41.068-28.752-41.068c-11.747,0-534.488-0.11-544.736,0
		c-11.875,0.126-28.294,9.077-29.612,30.51c0,0,13.517-17.977,31.863-20.951c19.711-3.195,517.99-5.232,536.488,5.345
		C478.431,947.111,492.463,946.894,495.212,1019.488z"/>
	<path id="path3222-1-5-3" sodipodi:nodetypes="cssscssc" inkscape:connector-curvature="0" fill="#2E4575" d="M-108.744,969.467
		c0,0-0.354,24.088-0.354,61.104c0,14.527,12.756,29.555,31.4,29.555c11.749,0,533.252-0.252,543.501-0.36
		c11.875-0.126,20.517-7.099,24.663-13.775c0,0-8.216,5.743-27.621,6.558c-19.946,0.833-530.541,6.489-549.041-4.088
		C-104.692,1037.882-101.044,1023.166-108.744,969.467L-108.744,969.467z"/>
	<path id="path4068-1-0" sodipodi:nodetypes="csscssc" inkscape:connector-curvature="0" fill="#8CA2D2" d="M489.079,961.02
		c0,0-11.138-16.374-16.794-20.512c-5.657-4.139-19.446-8.995-28.992-9.715s-42.954-1.621-42.954-1.621s33.938-2.343,44.368-2.158
		c13.269,0.232,29.275,4.514,32.701,7.916C480.903,938.394,488.372,946.444,489.079,961.02L489.079,961.02z"/>
	<path id="path4072-55-3" sodipodi:nodetypes="cssssssc" inkscape:connector-curvature="0" fill="#24365C" d="M-109.122,1017.161
		c0,0-0.178,7.734-0.178,12.592c0,7.738,3.005,15.476,8.839,21.413c5.834,5.938,12.904,8.637,15.203,8.815
		c2.298,0.178,13.612,0.541,18.915,0.541c5.302,0-7.778-1.799-13.259-2.519c-5.48-0.72-14.142-4.858-17.677-7.918
		C-100.814,1047.027-108.415,1039.471-109.122,1017.161L-109.122,1017.161z"/>
	<path id="f" inkscape:connector-curvature="0" fill="#FFFFFF" d="M-51.581,1034.369v-38.366h12.651l1.894-14.952h-14.545v-9.545
		c0-4.327,1.18-7.281,7.28-7.281h7.779v-13.372c-1.346-0.183-5.964-0.589-11.335-0.589c-11.214,0-18.893,6.968-18.893,19.763v11.028
		h-12.684v14.95h12.684v38.368h15.169v-0.005H-51.581z"/>
</g>
</svg>
