<svg xmlns="http://www.w3.org/2000/svg" width="101.25" height="104.13" viewBox="128.976 -11.069 101.246 104.129" style="enable-background:new 128.976 -11.069 101.246 104.129"><g transform="matrix(.959 0 0 .959-450.59-34.01)"><path d="m709.13 79.953c0 28.996-23.506 52.5-52.5 52.5-28.997 0-52.5-23.506-52.5-52.5s23.505-52.5 52.5-52.5c28.997 0 52.5 23.505 52.5 52.5" style="fill-opacity:.165"/><path d="m709.66 76.42c0 28.995-23.506 52.5-52.5 52.5-28.997 0-52.5-23.506-52.5-52.5 0-28.996 23.506-52.5 52.5-52.5 28.995.0001 52.5 23.507 52.5 52.5" style="fill:#fdf5f3"/><path d="m702.21 76.44c0 24.725-20.04 44.768-44.768 44.768-24.725 0-44.768-20.04-44.768-44.768 0-24.725 20.04-44.768 44.768-44.768 24.725 0 44.768 20.04 44.768 44.768z" style="fill:#dc4a38;fill-opacity:.941;stroke:#7f2217"/><path d="m632.72 40.922c0 0 7.578-8.143 24.897-8.143 17.321 0 30.15 8.926 37.888 22.08 7.732 13.154 5.723 26.15 4.33 33.04 0 0-.527-27.14-23.569-42.33-23.04-15.19-43.546-4.645-43.546-4.645" style="fill:#e47264"/><path d="m682.52 112.98c0 0-7.703 7.644-25.02 7.644-17.32 0-30.655-9.05-38.39-22.2-7.731-13.155-6.347-25.276-4.954-32.17 0 0 .364 25.953 23.405 41.14 23.04 15.188 44.959 5.584 44.959 5.584" style="fill:#b83121"/></g><g style="fill:#fff"><path d="m180.91 44.497l-2.317-1.8c-.706-.586-1.671-1.358-1.671-2.772 0-1.419.965-2.322 1.803-3.158 2.699-2.125 5.396-4.386 5.396-9.149 0-4.9-3.083-7.479-4.561-8.7h3.983l4.183-2.628h-12.668c-3.478 0-8.486.822-12.154 3.851-2.764 2.385-4.113 5.673-4.113 8.634 0 5.03 3.857 10.12 10.672 10.12.643 0 1.348-.063 2.057-.129-.318.774-.641 1.419-.641 2.514 0 1.996 1.025 3.22 1.93 4.38-2.895.198-8.3.52-12.283 2.969-3.795 2.256-4.949 5.541-4.949 7.857 0 4.771 4.498 9.217 13.822 9.217 11.06 0 16.914-6.119 16.914-12.178-.0001-4.454-2.573-6.645-5.403-9.03m-8.424-7.411c-5.531 0-8.04-7.152-8.04-11.467 0-1.681.318-3.415 1.412-4.771 1.031-1.291 2.828-2.127 4.506-2.127 5.333 0 8.099 7.216 8.099 11.856 0 1.161-.128 3.219-1.606 4.707-1.035 1.033-2.766 1.802-4.374 1.802m.065 25.912c-6.879 0-11.314-3.291-11.314-7.866s4.113-6.123 5.529-6.635c2.698-.908 6.172-1.035 6.752-1.035.643 0 .963 0 1.476.063 4.891 3.48 7.01 5.216 7.01 8.511-.002 3.99-3.282 6.961-9.456 6.962"/><path d="m197.15 40.21h6.47v-3.222h-6.47v-6.443h-3.18v6.443h-6.43v3.222h6.43v6.477h3.18z"/></g></svg>