<svg xmlns="http://www.w3.org/2000/svg" width="101.25" height="104.13" viewBox="13.921 12.467 101.246 104.128" style="enable-background:new 13.921 12.467 101.246 104.128"><g transform="translate(0-924.36)"><g transform="matrix(.959 0 0 .959-450.59 890.35)"><path d="m589.2 104.49c0 28.996-23.506 52.5-52.5 52.5-28.997 0-52.5-23.506-52.5-52.5 0-28.996 23.506-52.5 52.5-52.5 28.997 0 52.5 23.506 52.5 52.5" style="fill-opacity:.165"/><path d="m589.73 100.95c0 28.996-23.506 52.5-52.5 52.5-28.997 0-52.5-23.506-52.5-52.5 0-28.996 23.506-52.5 52.5-52.5 28.996.0001 52.5 23.507 52.5 52.5" style="fill:#f7f9b9"/><path d="m582.28 100.97c0 24.725-20.04 44.768-44.768 44.768s-44.768-20.04-44.768-44.768 20.04-44.768 44.768-44.768 44.768 20.04 44.768 44.768z" style="fill:#d6d50f;fill-opacity:.941;stroke:#698612"/><path d="m512.79 65.45c0 0 7.578-8.143 24.897-8.143 17.321 0 30.15 8.926 37.888 22.08 7.732 13.154 5.723 26.15 4.33 33.04 0 0-.527-27.14-23.569-42.33-23.04-15.19-43.546-4.645-43.546-4.645" style="fill:#e6e447"/><path d="m562.59 137.52c0 0-7.703 7.644-25.02 7.644-17.32 0-30.655-9.05-38.39-22.2s-6.347-25.276-4.955-32.17c0 0 .365 25.953 23.406 41.14 23.04 15.189 44.959 5.585 44.959 5.585" style="fill:#a9b618"/></g><g><path d="m110.91 91.42c0 2.049-.349 3.93-1.046 5.641-.698 1.712-1.596 3.212-2.694 4.501-.909.993-1.996 1.907-3.265 2.741-1.267.835-2.683 1.622-4.246 2.361v6.307h-14.643v-11.536c.634-.19 1.31-.396 2.029-.618.718-.222 1.426-.47 2.123-.744.697-.275 1.358-.566 1.981-.872s1.157-.629 1.601-.967c.739-.528 1.336-1.173 1.79-1.933.455-.761.682-1.69.682-2.789 0-1.289-.344-2.218-1.031-2.789-.686-.57-1.663-.856-2.931-.856-.507 0-1.104.079-1.791.238-.687.159-1.389.385-2.108.681h.032c-.676.296-1.378.634-2.107 1.014-.729.381-1.4.792-2.01 1.236h-4.437v-11.314c1.036-.486 2.145-.924 3.328-1.315 1.183-.391 2.419-.745 3.708-1.062h-.032c2.366-.592 5.05-.888 8.05-.888 2.683 0 5.07.312 7.163.935 2.092.623 3.846 1.526 5.261 2.71 1.522 1.268 2.668 2.684 3.439 4.247.771 1.563 1.157 3.254 1.157 5.071m-10.49 38.07h-16.07v-11.06h16.07v11.06" transform="matrix(1.108 0 0 1.108-39.507 873.17)" style="fill:#a9b618"/><path d="m109.18 91.42c0 2.049-.349 3.93-1.046 5.641-.698 1.712-1.596 3.212-2.694 4.501-.909.993-1.996 1.907-3.265 2.741-1.267.835-2.683 1.622-4.246 2.361v6.307h-14.643v-11.536c.634-.19 1.31-.396 2.029-.618s1.426-.47 2.123-.745c.697-.274 1.358-.565 1.981-.871.623-.307 1.157-.629 1.601-.967.739-.528 1.336-1.173 1.79-1.933.455-.761.682-1.691.682-2.789 0-1.289-.344-2.218-1.031-2.789-.686-.57-1.663-.856-2.931-.856-.507 0-1.104.079-1.791.238-.687.159-1.389.385-2.108.681h.032c-.676.296-1.378.634-2.107 1.014s-1.4.792-2.01 1.236h-4.436v-11.314c1.035-.486 2.144-.925 3.328-1.315 1.183-.391 2.419-.745 3.708-1.062h-.032c2.366-.592 5.05-.888 8.05-.888 2.683 0 5.07.311 7.163.935 2.092.623 3.846 1.526 5.261 2.71 1.522 1.268 2.668 2.684 3.439 4.247.77 1.563 1.156 3.254 1.156 5.071zm-10.49 38.07h-16.07v-11.06h16.07v11.06z" transform="matrix(1.108 0 0 1.108-37.588 870.29)" style="fill:#f7f9b9;stroke:#a9b618"/></g></g></svg>