<?xml version="1.0" encoding="utf-8"?>
<!-- Generator: Adobe Illustrator 16.0.0, SVG Export Plug-In . SVG Version: 6.00 Build 0)  -->
<!DOCTYPE svg PUBLIC "-//W3C//DTD SVG 1.1//EN" "http://www.w3.org/Graphics/SVG/1.1/DTD/svg11.dtd">
<svg version="1.1"
	 id="svg9264" sodipodi:docname="New document 19" inkscape:version="0.48.4 r9939" xmlns:dc="http://purl.org/dc/elements/1.1/" xmlns:cc="http://creativecommons.org/ns#" xmlns:rdf="http://www.w3.org/1999/02/22-rdf-syntax-ns#" xmlns:svg="http://www.w3.org/2000/svg" xmlns:sodipodi="http://sodipodi.sourceforge.net/DTD/sodipodi-0.dtd" xmlns:inkscape="http://www.inkscape.org/namespaces/inkscape"
	 xmlns="http://www.w3.org/2000/svg" xmlns:xlink="http://www.w3.org/1999/xlink" x="0px" y="0px" width="251.874px"
	 height="253.382px" viewBox="2.354 1.862 251.874 253.382" enable-background="new 2.354 1.862 251.874 253.382"
	 xml:space="preserve">
<sodipodi:namedview  inkscape:window-maximized="1" inkscape:window-y="-8" inkscape:window-x="1272" inkscape:window-height="988" inkscape:window-width="1680" inkscape:current-layer="layer1" inkscape:document-units="px" inkscape:pageshadow="2" inkscape:pageopacity="0.0" showgrid="false" inkscape:cy="-11.712023" inkscape:cx="522.68062" inkscape:zoom="1.1224609" borderopacity="1.0" bordercolor="#666666" pagecolor="#ffffff" id="base">
	</sodipodi:namedview>
<g id="layer1" transform="translate(0,-796.36218)" inkscape:groupmode="layer" inkscape:label="Layer 1">
	<g id="g9173" transform="matrix(0.77918752,0,0,0.77918752,-602.92753,182.61744)">
		<g id="g9079">
			<path id="rect3218-8-3-82" inkscape:connector-curvature="0" fill="#0C581E" d="M790.656,792.062
				c-7.633,0-13.781,6.148-13.781,13.781v295.625c0,7.633,6.148,13.781,13.781,13.781h295.625c7.634,0,13.781-6.149,13.781-13.781
				V805.843c0-7.633-6.148-13.781-13.781-13.781H790.656L790.656,792.062z M804.656,807.374h267.624
				c6.911,0,12.469,5.559,12.469,12.469v267.625c0,6.909-5.558,12.468-12.469,12.468H804.656c-6.91,0-12.469-5.558-12.469-12.468
				V819.843C792.187,812.933,797.746,807.374,804.656,807.374L804.656,807.374z"/>
			<path id="rect3218-8-3" inkscape:connector-curvature="0" fill="#74D819" d="M790.656,790.062
				c-7.633,0-13.781,6.147-13.781,13.781v295.625c0,7.634,6.148,13.781,13.781,13.781h295.625c7.634,0,13.781-6.147,13.781-13.781
				V803.843c0-7.633-6.148-13.781-13.781-13.781L790.656,790.062L790.656,790.062z M804.656,805.375h267.624
				c6.911,0,12.469,5.559,12.469,12.469v267.625c0,6.91-5.558,12.468-12.469,12.468H860.178c-3.606,0,2.5-53.065-4.679-58.399
				c-12.213-9.074-63.341-0.948-63.341-4.251l0.029-217.443C792.187,810.934,797.746,805.375,804.656,805.375L804.656,805.375z"/>
			<path id="path8827" inkscape:connector-curvature="0" fill="#96E647" d="M892.645,791.49c0,0,88.202,0,127.776,0
				c39.572,0,61.036-1.341,67.408,0.336c6.372,1.676,10.397,5.365,10.397,16.768s0,188.476,0,188.476s-2.013-100.61-3.69-138.506
				c-1.677-37.897,1.341-50.976-5.365-56.007C1082.463,797.527,996.274,794.844,892.645,791.49L892.645,791.49z"/>
			<path id="path8827-7" sodipodi:nodetypes="cscscscc" inkscape:connector-curvature="0" fill="#49B618" d="M983.059,1113.066
				c0,0-88.201,0-127.775,0c-39.573,0-61.037,0.539-67.409-1.138c-6.372-1.677-10.798-6.839-10.798-18.242
				c0-37.916-0.268-187.003-0.268-187.003s2.682,100.611,4.358,138.507c1.678,37.898-1.341,50.976,5.366,56.007
				C793.242,1106.227,879.432,1109.712,983.059,1113.066L983.059,1113.066z"/>
			<path id="path4072-2-5-4" sodipodi:nodetypes="csssssscc" inkscape:connector-curvature="0" fill="#278612" d="M776.935,1085.947
				c0,0-0.115,4.932-0.115,8.029c0,6.587-0.352,10.894,3.433,14.679c4.282,4.281,7.927,4.588,12.164,4.588
				c1.495,0,9.004-0.066,12.445-0.066c12.578,0-5.219-0.737-8.774-1.196c-3.556-0.459-11.184-1.757-13.478-3.707
				C780.317,1106.323,777.394,1100.167,776.935,1085.947L776.935,1085.947z"/>
		</g>
		<path id="path5013-5" inkscape:connector-curvature="0" fill="#0C581E" d="M980.994,1039.7l16.017-12.705l25.131,25.133
			l32.195-55.762l19.663,11.352l-45.793,79.317L980.994,1039.7z"/>
		<path id="path5013" inkscape:connector-curvature="0" fill="#74D819" d="M980.994,1036.771l16.017-12.705l25.131,25.133
			l32.195-55.761l19.663,11.352l-45.793,79.317L980.994,1036.771z"/>
	</g>
</g>
<path fill="#49B618" d="M60,235.796c0,2.322-1.889,4.204-4.218,4.204H20.718c-2.33,0-4.218-1.882-4.218-4.204v-32.842
	c0-2.322,1.889-4.204,4.218-4.204h35.063c2.33,0,4.218,1.882,4.218,4.204V235.796z"/>
</svg>
