<?xml version="1.0" encoding="utf-8"?>
<!-- Generator: Adobe Illustrator 16.0.0, SVG Export Plug-In . SVG Version: 6.00 Build 0)  -->
<!DOCTYPE svg PUBLIC "-//W3C//DTD SVG 1.1//EN" "http://www.w3.org/Graphics/SVG/1.1/DTD/svg11.dtd">
<svg version="1.1"
	 id="Layer_1" xmlns:sodipodi="http://sodipodi.sourceforge.net/DTD/sodipodi-0.dtd" xmlns:inkscape="http://www.inkscape.org/namespaces/inkscape"
	 xmlns="http://www.w3.org/2000/svg" xmlns:xlink="http://www.w3.org/1999/xlink" x="0px" y="0px" width="544.877px"
	 height="117.567px" viewBox="32.5 574.67 544.877 117.567" enable-background="new 32.5 574.67 544.877 117.567"
	 xml:space="preserve">
<g id="Layer_1_1_">
	<g id="g4420_2_" transform="matrix(0.58673783,0,0,0.58673783,326.54098,313.19625)">
		<path id="rect3218-7-0_5_" fill-opacity="0.1647" d="M-469.851,452.469h866.066c17.283,0,31.294,14.011,31.294,31.294V614.72
			c0,17.283-14.011,31.294-31.294,31.294h-866.066c-17.283,0-31.295-14.011-31.295-31.294V483.762
			C-501.145,466.478-487.134,452.469-469.851,452.469z"/>
		<path id="rect3218-7_2_" fill="#FFFFFF" d="M-469.851,445.64h866.066c17.283,0,31.294,14.011,31.294,31.294v130.958
			c0,17.283-14.011,31.294-31.294,31.294h-866.066c-17.283,0-31.295-14.011-31.295-31.294V476.933
			C-501.145,459.65-487.134,445.64-469.851,445.64z"/>
		<path id="rect3218_2_" fill="#73BB44" d="M-464.803,453.006h856.678c16.567,0,29.999,13.43,29.999,29.999v117.716
			c0,16.569-13.432,30.001-29.999,30.001h-856.678c-16.568,0-30-13.432-30-30.001V483.005
			C-494.803,466.438-481.371,453.006-464.803,453.006z"/>
		<path id="path3222_2_" sodipodi:nodetypes="cssscssc" inkscape:connector-curvature="0" fill="#228441" d="M421.874,534.518
			c0,0,0.454-5,0.454-41.369c0-30.428-13.755-40.348-30.453-40.348c-11.751,0-845.679-0.108-855.927,0
			c-11.875,0.125-30,8.918-31.318,29.974c0,0,15.22-17.661,33.567-20.582c19.713-3.139,831.7-1.108,847.678,0.136
			C401.851,463.575,419.124,463.197,421.874,534.518z"/>
		<path id="path3222-1_8_" sodipodi:nodetypes="cssscssc" inkscape:connector-curvature="0" fill="#228441" d="M-494.449,541.653
			c0,0-0.355,23.666-0.355,60.035c0,14.272,12.758,29.035,31.402,29.035c11.75,0,844.441-0.246,854.69-0.354
			c11.875-0.125,20.519-6.974,24.665-13.535c0,0-8.214,5.642-27.622,6.441c-19.943,0.822-841.728,6.378-860.228-4.013
			S-486.75,594.411-494.449,541.653z"/>
		<path id="path3222-1_7_" sodipodi:nodetypes="cssscssc" inkscape:connector-curvature="0" fill="#228441" d="M391.289,630.369
			c16.953,0.354,21.755-6.974,25.901-13.533c0,0-9.449,5.641-28.859,6.44"/>
	</g>
</g>
</svg>
