<?xml version="1.0" encoding="utf-8"?>
<!-- Generator: Adobe Illustrator 16.0.0, SVG Export Plug-In . SVG Version: 6.00 Build 0)  -->
<!DOCTYPE svg PUBLIC "-//W3C//DTD SVG 1.1//EN" "http://www.w3.org/Graphics/SVG/1.1/DTD/svg11.dtd">
<svg version="1.1" id="Layer_1" xmlns="http://www.w3.org/2000/svg" xmlns:xlink="http://www.w3.org/1999/xlink" x="0px" y="0px"
	 width="617.463px" height="160.139px" viewBox="0 0 617.463 160.139" enable-background="new 0 0 617.463 160.139"
	 xml:space="preserve">
<g>
	<g>
		<path fill-opacity="0.165" d="M32.29,2.062h554.884c17.282,0,31.29,14.445,31.29,32.261v93.556
			c0,17.819-14.01,32.261-31.29,32.261H32.29C15.007,160.139,1,145.695,1,127.878V34.323C1,16.502,15.01,2.052,32.29,2.052"/>
		<path fill="#F7F9B9" d="M32.29,0h554.884c17.282,0,31.29,14.445,31.29,32.261v93.556c0,17.819-14.01,32.261-31.29,32.261H32.29
			C15.007,158.077,1,143.633,1,125.817V32.26C1,14.442,15.01,0,32.29,0"/>
		<path fill="#A9B618" stroke="#698612" d="M37.34,7.598h545.494c16.569,0,29.999,13.849,29.999,30.931v79.905
			c0,17.084-13.432,30.93-29.999,30.93H37.34c-16.569,0-30-13.846-30-30.93V38.529C7.34,21.448,20.772,7.598,37.34,7.598
			L37.34,7.598z"/>
		<path fill="#D8D719" d="M7.551,49.55c0,0,0.816,24.159,0.032,61.648c-0.5,23.92,12.58,37.478,29.322,37.478
			c11.778,0,535.826,0.111,546.095,0c11.903-0.129,28.364-9.195,29.688-30.903c0,0-13.549,18.211-31.942,21.222
			c-19.76,3.233-519.285,5.299-537.825-5.414C24.373,122.867,10.307,123.088,7.551,49.55"/>
		<path fill="#698612" d="M612.974,98.411c0,0,0.354-24.399,0.354-61.892c0-14.715-12.758-29.931-31.399-29.931
			c-11.75,0-533.255,0.252-543.505,0.364c-11.876,0.129-20.519,7.191-24.666,13.953c0,0,8.213-5.815,27.621-6.639
			c19.943-0.848,530.544-6.577,549.044,4.134c18.501,10.713,14.854,25.622,22.554,80.017"/>
		<path fill="#E6E447" d="M7.667,104.98c0,0-0.177,7.84-0.177,12.759c0,7.838,3.01,15.676,8.838,21.692
			c5.834,6.015,12.905,8.749,15.203,8.931c2.298,0.184,13.61,0.548,18.916,0.548c5.304,0-7.778-1.824-13.258-2.554
			c-5.48-0.727-14.14-4.919-17.678-8.018c-3.534-3.104-11.136-10.756-11.842-33.354"/>
	</g>
</g>
<g>
	<polygon fill="#A9B618" points="63.738,35.573 63.738,127.639 109.64,81.742 	"/>
	<polygon fill="#F7F9B9" points="63.544,28.24 63.544,120.302 109.442,74.406 	"/>
	<polygon fill="none" stroke="#A9B618" stroke-width="0.959" points="63.544,28.24 63.544,120.302 109.442,74.406 	"/>
</g>
</svg>
