<?xml version="1.0" encoding="utf-8"?>
<!-- Generator: Adobe Illustrator 16.0.0, SVG Export Plug-In . SVG Version: 6.00 Build 0)  -->
<!DOCTYPE svg PUBLIC "-//W3C//DTD SVG 1.1//EN" "http://www.w3.org/Graphics/SVG/1.1/DTD/svg11.dtd">
<svg version="1.1"
	 id="Layer_1" xmlns:sodipodi="http://sodipodi.sourceforge.net/DTD/sodipodi-0.dtd" xmlns:inkscape="http://www.inkscape.org/namespaces/inkscape"
	 xmlns="http://www.w3.org/2000/svg" xmlns:xlink="http://www.w3.org/1999/xlink" x="0px" y="0px" width="544.877px"
	 height="450.521px" viewBox="33.562 187.799 544.877 450.521" enable-background="new 33.562 187.799 544.877 450.521"
	 xml:space="preserve">
<g id="Layer_1_1_">
	<g id="g4420" transform="matrix(0.58673783,0,0,0.58673783,326.54098,313.19625)">
		<path id="rect3218-7-0" fill-opacity="0.1647" d="M-468.042-206.891h866.067c17.283,0,31.294,14.011,31.294,31.294v698.424
			c0,17.283-14.011,31.294-31.294,31.294h-866.067c-17.283,0-31.294-14.011-31.294-31.294v-698.424
			C-499.336-192.88-485.326-206.891-468.042-206.891z"/>
		<path id="rect3218-7" fill="#FFFFFF" d="M-468.042-213.72h866.067c17.283,0,31.294,14.011,31.294,31.294v698.424
			c0,17.283-14.011,31.294-31.294,31.294h-866.067c-17.283,0-31.294-14.011-31.294-31.294v-698.424
			C-499.336-199.709-485.326-213.72-468.042-213.72z"/>
		<path id="rect3218" fill="#73BB44" d="M-462.994-206.353h856.676c16.569,0,30.001,13.431,30.001,30v685.181
			c0,16.569-13.432,30.001-30.001,30.001h-856.676c-16.569,0-30-13.432-30-30.001v-685.181
			C-492.994-192.921-479.563-206.353-462.994-206.353z"/>
		<path id="path3222" sodipodi:nodetypes="cssscssc" inkscape:connector-curvature="0" fill="#228441" d="M423.683-124.84
			c0,0,0.454-4.999,0.454-41.368c0-30.428-13.755-40.349-30.455-40.349c-11.749,0-845.677-0.108-855.926,0
			c-11.875,0.125-30.001,8.919-31.318,29.975c0,0,15.22-17.662,33.567-20.583c19.713-3.138,831.7-1.107,847.678,0.138
			C403.66-195.783,420.933-196.161,423.683-124.84z"/>
		<path id="path3222-1" sodipodi:nodetypes="cssscssc" inkscape:connector-curvature="0" fill="#228441" d="M-492.64,449.759
			c0,0-0.354,23.666-0.354,60.035c0,14.272,12.757,29.035,31.402,29.035c11.75,0,844.441-0.246,854.69-0.354
			c11.875-0.125,20.517-6.974,24.665-13.533c0,0-8.214,5.641-27.622,6.441c-19.943,0.822-841.728,6.378-860.228-4.013
			C-488.587,516.977-484.941,502.519-492.64,449.759z"/>
		<path id="path3222-1_2_" sodipodi:nodetypes="cssscssc" inkscape:connector-curvature="0" fill="#228441" d="M393.098,538.474
			c16.953,0.354,21.755-6.974,25.901-13.533c0,0-9.449,5.641-28.859,6.441"/>
	</g>
</g>
</svg>
