<?xml version="1.0" encoding="utf-8"?>
<!-- Generator: Adobe Illustrator 16.0.0, SVG Export Plug-In . SVG Version: 6.00 Build 0)  -->
<!DOCTYPE svg PUBLIC "-//W3C//DTD SVG 1.1//EN" "http://www.w3.org/Graphics/SVG/1.1/DTD/svg11.dtd">
<svg version="1.1"
	 id="Layer_1" xmlns:sodipodi="http://sodipodi.sourceforge.net/DTD/sodipodi-0.dtd" xmlns:inkscape="http://www.inkscape.org/namespaces/inkscape"
	 xmlns="http://www.w3.org/2000/svg" xmlns:xlink="http://www.w3.org/1999/xlink" x="0px" y="0px" width="362.297px"
	 height="425.996px" viewBox="124.852 183.002 362.297 425.996" enable-background="new 124.852 183.002 362.297 425.996"
	 xml:space="preserve">
<g id="Layer_1_1_">
	<g id="g4420" transform="matrix(0.58673783,0,0,0.58673783,326.54098,313.19625)">
		<path id="rect3218-7-0" fill-opacity="0.1647" d="M-312.453-215.067h554.889c17.283,0,31.294,14.011,31.294,31.294v656.625
			c0,17.283-14.011,31.294-31.294,31.294h-554.889c-17.283,0-31.294-14.011-31.294-31.294v-656.625
			C-343.748-201.056-329.737-215.067-312.453-215.067z"/>
		<path id="rect3218-7" fill="#FFFFFF" d="M-312.453-221.895h554.889c17.283,0,31.294,14.011,31.294,31.294v656.625
			c0,17.283-14.011,31.294-31.294,31.294h-554.889c-17.283,0-31.294-14.011-31.294-31.294v-656.625
			C-343.748-207.885-329.737-221.895-312.453-221.895z"/>
		<path id="rect3218" fill="#73BB44" d="M-307.405-214.528h545.5c16.569,0,30.001,13.431,30.001,30v643.383
			c0,16.569-13.432,30.001-30.001,30.001h-545.5c-16.569,0-30-13.432-30-30.001v-643.383
			C-337.405-201.097-323.974-214.528-307.405-214.528z"/>
		<path id="path3222" sodipodi:nodetypes="cssscssc" inkscape:connector-curvature="0" fill="#228441" d="M268.095-133.016
			c0,0,0.453-4.999,0.453-41.369c0-30.428-13.755-40.349-30.453-40.349c-11.751,0-534.5-0.107-544.75,0
			c-11.875,0.126-30,8.919-31.318,29.976c0,0,15.22-17.663,33.568-20.584c19.712-3.138,520.523-1.107,536.5,0.138
			C248.071-203.959,265.344-204.337,268.095-133.016z"/>
		<path id="path3222-1" sodipodi:nodetypes="cssscssc" inkscape:connector-curvature="0" fill="#228441" d="M-337.052,399.786
			c0,0-0.354,23.666-0.354,60.035c0,14.272,12.757,29.035,31.402,29.035c11.75,0,533.263-0.246,543.511-0.355
			c11.875-0.125,20.519-6.974,24.665-13.535c0,0-8.212,5.642-27.621,6.441C214.607,482.23-296,487.785-314.5,477.395
			C-332.999,467.002-329.352,452.544-337.052,399.786z"/>
		<path id="path3222-1_2_" sodipodi:nodetypes="cssscssc" inkscape:connector-curvature="0" fill="#228441" d="M237.509,488.501
			c16.953,0.355,21.755-6.974,25.901-13.535c0,0-9.449,5.642-28.859,6.441"/>
	</g>
</g>
</svg>
