<?xml version="1.0" encoding="utf-8"?>
<!-- Generator: Adobe Illustrator 16.0.0, SVG Export Plug-In . SVG Version: 6.00 Build 0)  -->
<!DOCTYPE svg PUBLIC "-//W3C//DTD SVG 1.1//EN" "http://www.w3.org/Graphics/SVG/1.1/DTD/svg11.dtd">
<svg version="1.1"
	 id="Layer_1" xmlns:sodipodi="http://sodipodi.sourceforge.net/DTD/sodipodi-0.dtd" xmlns:inkscape="http://www.inkscape.org/namespaces/inkscape"
	 xmlns="http://www.w3.org/2000/svg" xmlns:xlink="http://www.w3.org/1999/xlink" x="0px" y="0px" width="544.877px"
	 height="117.568px" viewBox="33.5 108 544.877 117.568" enable-background="new 33.5 108 544.877 117.568" xml:space="preserve">
<g id="Layer_1_1_">
	<g id="g4420_1_" transform="matrix(0.58673783,0,0,0.58673783,326.54098,313.19625)">
		<path id="rect3218-7-0_1_" fill-opacity="0.1647" d="M-468.147-342.895H397.92c17.283,0,31.294,14.011,31.294,31.294v130.959
			c0,17.282-14.011,31.294-31.294,31.294h-866.067c-17.283,0-31.294-14.012-31.294-31.294v-130.959
			C-499.441-328.885-485.43-342.895-468.147-342.895z"/>
		<path id="rect3218-7_1_" fill="#FFFFFF" d="M-468.147-349.724H397.92c17.283,0,31.294,14.011,31.294,31.294v130.959
			c0,17.282-14.011,31.294-31.294,31.294h-866.067c-17.283,0-31.294-14.012-31.294-31.294V-318.43
			C-499.441-335.713-485.43-349.724-468.147-349.724z"/>
		<path id="rect3218_1_" fill="#73BB44" d="M-463.099-342.357h856.676c16.569,0,30.001,13.432,30.001,30.001v117.716
			c0,16.569-13.432,30-30.001,30h-856.676c-16.569,0-30-13.431-30-30v-117.716C-493.099-328.925-479.667-342.357-463.099-342.357z"
			/>
		<path id="path3222_1_" sodipodi:nodetypes="cssscssc" inkscape:connector-curvature="0" fill="#228441" d="M423.578-260.844
			c0,0,0.454-4.999,0.454-41.368c0-30.428-13.755-40.349-30.453-40.349c-11.751,0-845.678-0.107-855.927,0
			c-11.875,0.126-30.001,8.92-31.318,29.975c0,0,15.22-17.662,33.567-20.583c19.712-3.138,831.701-1.107,847.677,0.138
			C403.555-331.786,420.828-332.165,423.578-260.844z"/>
		<path id="path3222-1_3_" sodipodi:nodetypes="cssscssc" inkscape:connector-curvature="0" fill="#228441" d="M-492.745-253.71
			c0,0-0.354,23.666-0.354,60.035c0,14.272,12.757,29.035,31.402,29.035c11.75,0,844.441-0.246,854.69-0.354
			c11.875-0.126,20.517-6.975,24.663-13.534c0,0-8.212,5.641-27.621,6.441c-19.944,0.821-841.728,6.378-860.228-4.014
			C-488.693-186.492-485.045-200.951-492.745-253.71z"/>
		<path id="path3222-1_1_" sodipodi:nodetypes="cssscssc" inkscape:connector-curvature="0" fill="#228441" d="M392.993-164.994
			c16.953,0.354,21.755-6.975,25.901-13.534c0,0-9.45,5.641-28.859,6.441"/>
	</g>
</g>
</svg>
