<svg xmlns="http://www.w3.org/2000/svg" width="101.25" height="104.13" viewBox="13.921 12.467 101.246 104.128" style="enable-background:new 13.921 12.467 101.246 104.128"><g transform="translate(0-924.36)"><g transform="matrix(.959 0 0 .959-450.59 890.35)"><path d="m589.2 104.49c0 28.996-23.506 52.5-52.5 52.5-28.997 0-52.5-23.506-52.5-52.5 0-28.996 23.506-52.5 52.5-52.5 28.997 0 52.5 23.506 52.5 52.5" style="fill-opacity:.165"/><path d="m589.73 100.95c0 28.996-23.506 52.5-52.5 52.5-28.997 0-52.5-23.506-52.5-52.5 0-28.996 23.506-52.5 52.5-52.5 28.996.0001 52.5 23.507 52.5 52.5" style="fill:#f7f9b9"/><path d="m582.28 100.97c0 24.725-20.04 44.768-44.768 44.768s-44.768-20.04-44.768-44.768 20.04-44.768 44.768-44.768 44.768 20.04 44.768 44.768z" style="fill:#d6d50f;fill-opacity:.941;stroke:#698612"/><path d="m512.79 65.45c0 0 7.578-8.143 24.897-8.143 17.321 0 30.15 8.926 37.888 22.08 7.732 13.154 5.723 26.15 4.33 33.04 0 0-.527-27.14-23.569-42.33-23.04-15.19-43.546-4.645-43.546-4.645" style="fill:#e6e447"/><path d="m562.59 137.52c0 0-7.703 7.644-25.02 7.644-17.32 0-30.655-9.05-38.39-22.2s-6.347-25.276-4.955-32.17c0 0 .365 25.953 23.406 41.14 23.04 15.189 44.959 5.585 44.959 5.585" style="fill:#a9b618"/></g><path d="m63.11 960.2l-8.596 2.399 2.354 8.374c-2.376 1.243-4.493 2.934-6.197 4.976l-7.996-3.776-3.798 8.06 7.729 3.665c-.404 1.596-.622 3.276-.622 4.998 0 1.604.203 3.146.555 4.643l-7.796 3.664 3.82 8.09 7.885-3.732c1.746 2.171 3.93 3.987 6.419 5.287l-2.354 8.373 8.596 2.422 2.376-8.529c.243.001.488.021.733.021 2.7 0 5.264-.551 7.618-1.51l5.509 7.463 7.174-5.309-5.353-7.264c2.346-2.572 4.03-5.76 4.798-9.284h8.529v-8.929h-8.574c-.783-3.375-2.404-6.414-4.643-8.907l5.242-7.085-7.174-5.309-5.354 7.241c-2.397-1-5.01-1.577-7.773-1.577-.253 0-.505.013-.756.022l-2.351-8.486m3.11 17.547c6.072 0 10.994 4.923 10.994 10.995 0 6.071-4.922 10.995-10.994 10.995s-10.995-4.924-10.995-10.995c0-6.072 4.923-10.995 10.995-10.995" style="fill:#a9b618"/><path d="m63.11 957.38l-8.596 2.399 2.354 8.374c-2.376 1.243-4.493 2.934-6.197 4.976l-7.996-3.776-3.798 8.06 7.729 3.665c-.404 1.596-.622 3.276-.622 4.998 0 1.603.203 3.147.555 4.642l-7.796 3.665 3.82 8.09 7.885-3.731c1.746 2.171 3.93 3.986 6.419 5.286l-2.354 8.374 8.596 2.421 2.376-8.529c.243.001.488.021.733.021 2.7 0 5.264-.549 7.618-1.51l5.509 7.463 7.174-5.309-5.353-7.263c2.346-2.573 4.03-5.761 4.798-9.284h8.529v-8.93h-8.574c-.783-3.375-2.404-6.414-4.643-8.907l5.242-7.085-7.174-5.309-5.354 7.241c-2.397-1-5.01-1.577-7.773-1.577-.253 0-.505.013-.756.022l-2.351-8.485zm3.11 17.547c6.072 0 10.994 4.923 10.994 10.995 0 6.072-4.922 10.995-10.994 10.995s-10.995-4.923-10.995-10.995c0-6.072 4.923-10.995 10.995-10.995z" style="fill:#f7f9b9;stroke:#a9b618;stroke-linejoin:round;stroke-width:.959"/></g></svg>