<?xml version="1.0" encoding="utf-8"?>
<!-- Generator: Adobe Illustrator 16.0.0, SVG Export Plug-In . SVG Version: 6.00 Build 0)  -->
<!DOCTYPE svg PUBLIC "-//W3C//DTD SVG 1.1//EN" "http://www.w3.org/Graphics/SVG/1.1/DTD/svg11.dtd">
<svg version="1.1" id="Layer_1" xmlns="http://www.w3.org/2000/svg" xmlns:xlink="http://www.w3.org/1999/xlink" x="0px" y="0px"
	 width="101.25px" height="104.129px" viewBox="0 0 101.25 104.129" enable-background="new 0 0 101.25 104.129"
	 xml:space="preserve">
<g transform="matrix(.959 0 0 .959-450.59-34.01)">
	<path fill-opacity="0.165" d="M574.702,91.492c0,28.994-23.507,52.501-52.501,52.501c-28.997,0-52.501-23.507-52.501-52.501
		c0-28.997,23.506-52.501,52.501-52.501C551.199,38.991,574.702,62.497,574.702,91.492"/>
	<path fill="#F7F9B9" d="M575.232,87.952c0,28.996-23.509,52.501-52.501,52.501c-28.998,0-52.501-23.505-52.501-52.501
		s23.506-52.501,52.501-52.501C551.729,35.451,575.232,58.958,575.232,87.952"/>
	<path fill="#A9B618" fill-opacity="0.941" stroke="#698612" d="M567.782,87.979c0,24.727-20.041,44.77-44.771,44.77
		c-24.727,0-44.769-20.041-44.769-44.77c0-24.726,20.04-44.769,44.769-44.769S567.782,63.25,567.782,87.979L567.782,87.979z"/>
	<path fill="#698612" d="M498.291,52.461c0,0,7.578-8.143,24.898-8.143c17.319,0,30.158,8.927,37.889,22.081
		c7.729,13.154,5.723,26.15,4.33,33.041c0,0-0.527-27.142-23.569-42.342c-23.041-15.188-43.548-4.644-43.548-4.644"/>
	<path fill="#D8D719" d="M548.092,124.521c0,0-7.704,7.646-25.021,7.646c-17.321,0-30.657-9.051-38.393-22.2
		c-7.73-13.154-6.348-25.277-4.955-32.171c0,0,0.364,25.953,23.406,41.142C526.172,134.125,548.092,124.521,548.092,124.521"/>
</g>
<path fill="none" stroke="#A9B618" stroke-width="0.61" d="M38.509,29.008L28.196,29.07l0.219,2.72h6.438l1.937,27.28l0.594,12.345
	h1.187c-0.491,0.614-0.812,1.402-0.812,2.25c0,1.981,1.611,3.562,3.593,3.562c1.983,0,3.594-1.58,3.594-3.562
	c0-0.84-0.298-1.64-0.781-2.25l14.75,0.062c-0.507,0.619-0.813,1.388-0.813,2.25c0,1.982,1.612,3.594,3.594,3.594
	c1.983,0,3.594-1.611,3.594-3.594c0-0.862-0.336-1.631-0.844-2.25h1.344l0.845-2.313H39.416L39.041,59.07l30.344-2.031l4.343-19.438
	l-32.375-2.25L38.509,29.008z M54.041,38.82c0.146-0.024,0.324-0.021,0.53,0c0.043,0.012,0.109,0.037,0.156,0.063
	c0.048,0.026,0.096,0.044,0.157,0.063c0.203,0.021,0.306,0.05,0.343,0.063c0.038,0.014,0.11,0.096,0.157,0.282
	c0.033,0.136,0.043,0.285,0.062,0.405c0.021,0.121,0.023,0.262,0.031,0.406c-0.005,0.065-0.015,0.091-0.031,0.125
	c-0.016,0.034-0.007,0.092,0.031,0.156c0.094,0.123,0.295,0.224,0.563,0.313c0.269,0.09,0.463,0.158,0.625,0.22
	c0.116,0.045,0.246,0.123,0.375,0.187c0.13,0.065,0.26,0.117,0.375,0.188c0.033,0.021,0.087,0.063,0.156,0.125
	c0.071,0.06,0.102,0.131,0.125,0.187c0.016,0.056,0.009,0.149-0.031,0.313s-0.093,0.327-0.155,0.469
	c-0.001,0.002,0.012,0.002,0,0.031c-0.013,0.028-0.022,0.073-0.031,0.093c-0.012,0.009-0.034,0.023-0.063,0.032
	c-0.028,0.009-0.051-0.009-0.062,0c-0.022,0.052-0.036,0.104-0.032,0.155c0.005,0.051-0.009,0.112-0.031,0.156
	c-0.027,0.041-0.057,0.072-0.094,0.094c-0.036,0.021-0.065,0.03-0.093,0.063c-0.045,0.075-0.097,0.176-0.157,0.25
	c-0.059,0.075-0.117,0.103-0.187,0.125c-0.187,0.032-0.383,0.012-0.563-0.093c-0.179-0.106-0.325-0.214-0.469-0.313
	c-0.026-0.015-0.062-0.028-0.093-0.031c-0.032-0.002-0.067-0.016-0.094-0.03c-0.011-0.014-0.02-0.03-0.031-0.063
	c-0.012-0.031-0.03-0.058-0.032-0.062c-0.037-0.014-0.088-0.014-0.156,0c-0.067,0.013-0.114,0.013-0.187,0
	c-0.026-0.013-0.066-0.034-0.094-0.063c-0.028-0.028-0.06-0.051-0.095-0.062c-0.181-0.057-0.342-0.084-0.469-0.095
	c-0.126-0.01-0.292,0.019-0.499,0.095c-0.027,0.01-0.061,0.036-0.094,0.062c-0.033,0.026-0.059,0.043-0.094,0.063
	c-0.166,0.061-0.309,0.172-0.438,0.312c-0.13,0.141-0.182,0.313-0.188,0.531c0.023,0.366,0.194,0.684,0.563,0.938
	c0.367,0.255,0.718,0.462,1.031,0.625c0.228,0.133,0.424,0.246,0.593,0.345c0.17,0.097,0.36,0.225,0.563,0.375
	c0.093,0.068,0.197,0.138,0.344,0.218c0.145,0.081,0.277,0.155,0.405,0.25c0.097,0.071,0.192,0.169,0.281,0.25
	c0.089,0.082,0.194,0.171,0.282,0.25c0.166,0.147,0.289,0.246,0.375,0.344c0.085,0.1,0.176,0.256,0.281,0.438
	c0.027,0.043,0.059,0.086,0.094,0.125c0.034,0.038,0.074,0.082,0.093,0.125c0.033,0.07,0.05,0.153,0.063,0.25
	c0.012,0.096,0.039,0.183,0.062,0.28c0.029,0.077,0.054,0.152,0.094,0.22c0.04,0.065,0.074,0.118,0.095,0.187
	c0.025,0.142,0.021,0.32,0.03,0.531c0.01,0.212,0.01,0.404,0,0.563c-0.012,0.13-0.024,0.262-0.063,0.375
	c-0.037,0.114-0.064,0.224-0.093,0.345c-0.032,0.123-0.071,0.251-0.095,0.375c-0.022,0.123-0.044,0.236-0.094,0.343
	c-0.031,0.069-0.101,0.161-0.187,0.282c-0.087,0.121-0.176,0.226-0.25,0.312c-0.021,0.025-0.057,0.047-0.095,0.063
	c-0.037,0.016-0.042,0.037-0.062,0.062c-0.053,0.082-0.118,0.16-0.188,0.25c-0.069,0.09-0.162,0.155-0.25,0.219
	c-0.07,0.044-0.166,0.109-0.28,0.156c-0.115,0.047-0.234,0.097-0.375,0.156c-0.105,0.043-0.237,0.078-0.375,0.125
	c-0.139,0.048-0.221,0.096-0.282,0.157c-0.069,0.139-0.086,0.352-0.062,0.625c0.023,0.271-0.029,0.518-0.125,0.718
	c-0.086,0.117-0.236,0.168-0.47,0.188c-0.231,0.021-0.493,0.037-0.78,0.031c-0.408,0.028-0.729,0.008-0.97-0.062
	c-0.239-0.071-0.377-0.288-0.375-0.688c0.015-0.098,0.036-0.217,0.063-0.312c0.027-0.097,0.052-0.18,0.031-0.25
	c-0.082-0.144-0.271-0.24-0.531-0.313c-0.26-0.072-0.485-0.146-0.688-0.219c-0.142-0.063-0.308-0.135-0.469-0.218
	c-0.16-0.084-0.294-0.186-0.437-0.282c-0.105-0.072-0.232-0.156-0.406-0.281c-0.009-0.012-0.023-0.033-0.032-0.062
	c-0.008-0.029-0.022-0.051-0.031-0.063c-0.128-0.055-0.274-0.159-0.437-0.312c-0.163-0.154-0.258-0.29-0.281-0.407
	c-0.009-0.13,0.016-0.245,0.093-0.343c0.077-0.099,0.135-0.182,0.188-0.25c0.14-0.197,0.292-0.35,0.406-0.47
	c0.114-0.119,0.245-0.295,0.437-0.5c0.038-0.047,0.112-0.112,0.188-0.219c0.076-0.105,0.161-0.167,0.25-0.187
	c0.088-0.011,0.176,0.022,0.28,0.093c0.104,0.071,0.216,0.12,0.313,0.188c0.097,0.055,0.197,0.134,0.312,0.22
	c0.115,0.085,0.229,0.16,0.345,0.25c0.141,0.1,0.375,0.224,0.719,0.375c0.344,0.15,0.623,0.271,0.843,0.312
	c0.667,0.055,1.153-0.174,1.438-0.625c0.283-0.451,0.192-0.951-0.25-1.5c-0.063-0.069-0.138-0.118-0.22-0.187
	c-0.082-0.07-0.161-0.149-0.25-0.22c-0.026-0.018-0.043-0.039-0.062-0.063c-0.021-0.022-0.047-0.044-0.063-0.063
	c-0.09-0.05-0.173-0.089-0.28-0.155c-0.047-0.031-0.121-0.093-0.188-0.157c-0.067-0.063-0.124-0.116-0.187-0.156
	c-0.039-0.024-0.1-0.046-0.156-0.062c-0.057-0.017-0.079-0.038-0.125-0.063c-0.131-0.088-0.271-0.188-0.406-0.281
	c-0.137-0.093-0.282-0.161-0.438-0.25c-0.021-0.016-0.057-0.023-0.095-0.03s-0.073-0.017-0.093-0.032
	c-0.034-0.018-0.059-0.063-0.094-0.093c-0.036-0.032-0.098-0.059-0.156-0.095c-0.025-0.018-0.044-0.039-0.063-0.062
	c-0.02-0.023-0.045-0.045-0.063-0.063c-0.039-0.024-0.064-0.046-0.125-0.062s-0.118-0.038-0.157-0.063
	c-0.079-0.056-0.166-0.107-0.25-0.187c-0.083-0.08-0.17-0.155-0.25-0.219c-0.171-0.133-0.271-0.241-0.344-0.313
	c-0.072-0.07-0.185-0.203-0.312-0.406c-0.024-0.04-0.052-0.071-0.063-0.094c-0.01-0.021-0.007-0.061-0.031-0.093
	c-0.056-0.057-0.108-0.12-0.125-0.188c-0.017-0.066-0.055-0.177-0.094-0.312c-0.065-0.222-0.103-0.5-0.125-0.844
	c-0.021-0.345,0.02-0.674,0.094-1c0.028-0.111,0.071-0.22,0.125-0.313c0.054-0.093,0.094-0.17,0.156-0.281
	c0.114-0.201,0.239-0.373,0.344-0.5c0.104-0.125,0.237-0.265,0.438-0.405c0.156-0.111,0.332-0.22,0.5-0.313
	c0.168-0.093,0.348-0.17,0.531-0.281c0.099-0.048,0.19-0.118,0.28-0.155c0.091-0.038,0.173-0.082,0.22-0.156
	c0.037-0.193,0.004-0.467-0.063-0.813c-0.068-0.346,0.006-0.554,0.218-0.625c0.048-0.01,0.132-0.017,0.25-0.03
	c0.118-0.015,0.188-0.022,0.22-0.031C53.813,38.879,53.894,38.846,54.041,38.82z"/>
<path fill="#F7F9B9" d="M38.509,28.245l-10.313,0.063l0.219,2.719h6.438l1.937,27.281l0.594,12.344h1.187
	c-0.491,0.614-0.812,1.403-0.812,2.25c0,1.982,1.611,3.562,3.593,3.562c1.983,0,3.594-1.579,3.594-3.562
	c0-0.84-0.298-1.639-0.781-2.25l14.75,0.062c-0.507,0.619-0.813,1.388-0.813,2.25c0,1.983,1.612,3.595,3.594,3.595
	c1.983,0,3.594-1.611,3.594-3.595c0-0.862-0.336-1.631-0.844-2.25h1.344l0.845-2.312H39.416l-0.375-10.094l30.344-2.031
	l4.343-19.438l-32.375-2.25L38.509,28.245z M54.041,38.059c0.146-0.025,0.324-0.021,0.53,0c0.043,0.011,0.109,0.037,0.156,0.062
	c0.048,0.026,0.096,0.044,0.157,0.063c0.203,0.02,0.306,0.049,0.343,0.062c0.038,0.015,0.11,0.097,0.157,0.282
	c0.033,0.136,0.043,0.285,0.062,0.406c0.021,0.121,0.023,0.261,0.031,0.405c-0.005,0.065-0.015,0.092-0.031,0.125
	c-0.016,0.034-0.007,0.093,0.031,0.156c0.094,0.122,0.295,0.225,0.563,0.313c0.269,0.089,0.463,0.158,0.625,0.219
	c0.116,0.045,0.246,0.123,0.375,0.187c0.13,0.065,0.26,0.117,0.375,0.188c0.033,0.021,0.087,0.064,0.156,0.125
	c0.071,0.06,0.102,0.131,0.125,0.187c0.016,0.056,0.009,0.149-0.031,0.313s-0.093,0.327-0.155,0.469
	c-0.001,0.002,0.012,0.002,0,0.031c-0.013,0.029-0.022,0.073-0.031,0.094c-0.012,0.008-0.034,0.022-0.063,0.031
	c-0.028,0.008-0.051-0.009-0.062,0c-0.022,0.053-0.036,0.104-0.032,0.156c0.005,0.051-0.009,0.111-0.031,0.155
	c-0.027,0.041-0.057,0.073-0.094,0.095c-0.036,0.021-0.065,0.029-0.093,0.062c-0.045,0.075-0.097,0.176-0.157,0.25
	c-0.059,0.075-0.117,0.104-0.187,0.125c-0.187,0.032-0.383,0.013-0.563-0.093c-0.179-0.106-0.325-0.213-0.469-0.313
	c-0.026-0.015-0.062-0.028-0.093-0.03c-0.032-0.002-0.067-0.017-0.094-0.031c-0.011-0.013-0.02-0.03-0.031-0.063
	c-0.012-0.031-0.03-0.058-0.032-0.062c-0.037-0.013-0.088-0.013-0.156,0c-0.067,0.013-0.114,0.013-0.187,0
	c-0.026-0.012-0.066-0.034-0.094-0.063c-0.028-0.028-0.06-0.051-0.095-0.062c-0.181-0.056-0.342-0.084-0.469-0.094
	c-0.126-0.011-0.292,0.018-0.499,0.094c-0.027,0.01-0.061,0.036-0.094,0.062c-0.033,0.026-0.059,0.043-0.094,0.063
	c-0.166,0.061-0.309,0.172-0.438,0.312c-0.13,0.141-0.182,0.313-0.188,0.531c0.023,0.366,0.194,0.685,0.563,0.938
	c0.367,0.254,0.718,0.461,1.031,0.625c0.228,0.133,0.424,0.246,0.593,0.344c0.17,0.097,0.36,0.225,0.563,0.375
	c0.093,0.069,0.197,0.138,0.344,0.218c0.145,0.081,0.277,0.155,0.405,0.25c0.097,0.071,0.192,0.169,0.281,0.25
	c0.089,0.082,0.194,0.171,0.282,0.251c0.166,0.146,0.289,0.245,0.375,0.343c0.085,0.1,0.176,0.257,0.281,0.438
	c0.027,0.043,0.059,0.086,0.094,0.125c0.034,0.038,0.074,0.082,0.093,0.125c0.033,0.071,0.05,0.154,0.063,0.25
	c0.012,0.096,0.039,0.183,0.062,0.281c0.029,0.078,0.054,0.151,0.094,0.219c0.04,0.066,0.074,0.118,0.095,0.187
	c0.025,0.143,0.021,0.32,0.03,0.532c0.01,0.211,0.01,0.403,0,0.563c-0.012,0.129-0.024,0.261-0.063,0.375
	c-0.037,0.113-0.064,0.223-0.093,0.344c-0.032,0.124-0.071,0.251-0.095,0.375c-0.022,0.124-0.044,0.237-0.094,0.344
	c-0.031,0.068-0.101,0.16-0.187,0.281c-0.087,0.121-0.176,0.226-0.25,0.312c-0.021,0.025-0.057,0.048-0.095,0.063
	c-0.037,0.016-0.042,0.038-0.062,0.062c-0.053,0.082-0.118,0.16-0.188,0.25c-0.069,0.092-0.162,0.155-0.25,0.22
	c-0.07,0.043-0.166,0.108-0.28,0.155c-0.115,0.049-0.234,0.097-0.375,0.157c-0.105,0.042-0.237,0.077-0.375,0.125
	c-0.139,0.047-0.221,0.096-0.282,0.156c-0.069,0.139-0.086,0.352-0.062,0.625c0.023,0.271-0.029,0.518-0.125,0.719
	c-0.086,0.116-0.236,0.167-0.47,0.188c-0.231,0.02-0.493,0.037-0.78,0.03c-0.408,0.028-0.729,0.009-0.97-0.062
	c-0.239-0.071-0.377-0.288-0.375-0.688c0.015-0.098,0.036-0.217,0.063-0.312c0.027-0.096,0.052-0.179,0.031-0.25
	c-0.082-0.143-0.271-0.24-0.531-0.313c-0.26-0.072-0.485-0.146-0.688-0.218c-0.142-0.062-0.308-0.136-0.469-0.219
	c-0.16-0.084-0.294-0.185-0.437-0.281c-0.105-0.073-0.232-0.157-0.406-0.282c-0.009-0.011-0.023-0.032-0.032-0.062
	c-0.008-0.029-0.022-0.051-0.031-0.063c-0.128-0.055-0.274-0.158-0.437-0.312c-0.163-0.154-0.258-0.29-0.281-0.406
	c-0.009-0.131,0.016-0.246,0.093-0.344c0.077-0.098,0.135-0.181,0.188-0.25c0.14-0.196,0.292-0.349,0.406-0.469
	c0.114-0.12,0.245-0.295,0.437-0.5c0.038-0.047,0.112-0.113,0.188-0.22c0.076-0.105,0.161-0.166,0.25-0.187
	c0.088-0.011,0.176,0.023,0.28,0.094s0.216,0.119,0.313,0.188c0.097,0.055,0.197,0.134,0.312,0.219
	c0.115,0.085,0.229,0.16,0.345,0.25c0.141,0.101,0.375,0.224,0.719,0.375s0.623,0.273,0.843,0.312
	c0.667,0.055,1.153-0.174,1.438-0.625c0.283-0.45,0.192-0.949-0.25-1.5c-0.063-0.069-0.138-0.116-0.22-0.187
	s-0.161-0.149-0.25-0.219c-0.026-0.019-0.043-0.04-0.062-0.063c-0.021-0.022-0.047-0.045-0.063-0.063
	c-0.09-0.049-0.173-0.089-0.28-0.156c-0.047-0.031-0.121-0.093-0.188-0.156s-0.124-0.117-0.187-0.157
	c-0.039-0.023-0.1-0.046-0.156-0.062s-0.079-0.038-0.125-0.063c-0.131-0.088-0.271-0.188-0.406-0.28
	c-0.137-0.092-0.282-0.162-0.438-0.25c-0.021-0.017-0.057-0.024-0.095-0.031c-0.038-0.008-0.073-0.015-0.093-0.031
	c-0.034-0.019-0.059-0.063-0.094-0.094c-0.036-0.032-0.098-0.058-0.156-0.094c-0.025-0.019-0.044-0.04-0.063-0.063
	c-0.02-0.021-0.045-0.044-0.063-0.062c-0.039-0.025-0.064-0.046-0.125-0.063c-0.061-0.016-0.118-0.037-0.157-0.062
	c-0.079-0.057-0.166-0.108-0.25-0.188c-0.083-0.079-0.17-0.153-0.25-0.218c-0.171-0.133-0.271-0.241-0.344-0.313
	c-0.072-0.07-0.185-0.203-0.312-0.405c-0.024-0.041-0.052-0.072-0.063-0.095c-0.01-0.021-0.007-0.061-0.031-0.094
	c-0.056-0.056-0.108-0.12-0.125-0.187c-0.017-0.067-0.055-0.178-0.094-0.313c-0.065-0.221-0.103-0.5-0.125-0.843
	c-0.021-0.344,0.02-0.674,0.094-1c0.028-0.111,0.071-0.22,0.125-0.313c0.054-0.093,0.094-0.17,0.156-0.28
	c0.114-0.202,0.239-0.374,0.344-0.5c0.104-0.126,0.237-0.266,0.438-0.406c0.156-0.111,0.332-0.22,0.5-0.313
	c0.168-0.093,0.348-0.17,0.531-0.28c0.099-0.048,0.19-0.119,0.28-0.156c0.091-0.038,0.173-0.082,0.22-0.157
	c0.037-0.191,0.004-0.466-0.063-0.812c-0.068-0.347,0.006-0.555,0.218-0.625c0.048-0.01,0.132-0.018,0.25-0.031
	s0.188-0.022,0.22-0.032C53.813,38.115,53.894,38.083,54.041,38.059"/>
</svg>
