<?xml version="1.0" encoding="utf-8"?>
<!-- Generator: Adobe Illustrator 16.0.0, SVG Export Plug-In . SVG Version: 6.00 Build 0)  -->
<!DOCTYPE svg PUBLIC "-//W3C//DTD SVG 1.1//EN" "http://www.w3.org/Graphics/SVG/1.1/DTD/svg11.dtd">
<svg version="1.1" id="Layer_1" xmlns="http://www.w3.org/2000/svg" xmlns:xlink="http://www.w3.org/1999/xlink" x="0px" y="0px"
	 width="150.009px" height="150.02px" viewBox="79.673 282.232 150.009 150.02"
	 enable-background="new 79.673 282.232 150.009 150.02" xml:space="preserve">
<g>
	<path fill="#F7F9B9" stroke="#A9B618" stroke-width="2.0086" stroke-miterlimit="10" d="M96.817,299.356
		c-21.506,21.507-21.526,56.399-0.021,77.905c18.385,18.383,46.608,20.979,67.739,8.024l42.197,42.198
		c5.02,5.019,13.161,5.019,18.18,0c5.019-5.02,5.019-13.162,0-18.181l-42.211-42.212c12.938-21.148,10.346-49.348-8.021-67.715
		C153.175,277.87,118.324,277.851,96.817,299.356z M162.203,364.741c-14.604,14.604-38.283,14.604-52.887,0.001
		c-14.604-14.604-14.604-38.283,0-52.888c14.603-14.603,38.283-14.603,52.886,0C176.806,326.458,176.806,350.139,162.203,364.741z"
		/>
</g>
</svg>
