<?xml version="1.0" encoding="utf-8"?>
<!-- Generator: Adobe Illustrator 16.0.0, SVG Export Plug-In . SVG Version: 6.00 Build 0)  -->
<!DOCTYPE svg PUBLIC "-//W3C//DTD SVG 1.1//EN" "http://www.w3.org/Graphics/SVG/1.1/DTD/svg11.dtd">
<svg version="1.1"
	 id="Layer_1" xmlns:sodipodi="http://sodipodi.sourceforge.net/DTD/sodipodi-0.dtd" xmlns:inkscape="http://www.inkscape.org/namespaces/inkscape"
	 xmlns="http://www.w3.org/2000/svg" xmlns:xlink="http://www.w3.org/1999/xlink" x="0px" y="0px" width="612px" height="94.082px"
	 viewBox="0 0 612 94.082" enable-background="new 0 0 612 94.082" xml:space="preserve">
<rect y="11" fill-opacity="0.1647" width="612" height="67"/>
<rect fill="#73BB44" width="612" height="67"/>
<path fill="#228441" d="M602.251,8.587c0,0,6.099-0.92,6.099,11.08s0,31,0,36.667s-4.099,8.492-6.099,8.492
	s-2.544,2.544-2.544,2.544H612V7.592C612,7.592,602.584,6.174,602.251,8.587z"/>
<path fill="#228441" d="M9.749,8.587c0,0-6.099-0.92-6.099,11.08s0,31,0,36.667s4.099,8.492,6.099,8.492s2.544,2.544,2.544,2.544H0
	V7.592C0,7.592,9.416,6.174,9.749,8.587z"/>
<rect y="64.826" fill="#228441" width="612" height="6.174"/>
<rect y="2.413" fill="#228441" width="612" height="6.174"/>
<rect y="69" fill="#FFFFFF" width="612" height="5.5"/>
<rect fill="#FFFFFF" width="612" height="5.5"/>
<path fill="#228441" d="M463.934,8.587c0,0-6.099-0.92-6.099,11.08s0,31,0,36.667s4.099,8.492,6.099,8.492s2.544,2.544,2.544,2.544
	h-12.292V7.592C454.185,7.592,463.601,6.174,463.934,8.587z"/>
<path fill="#228441" d="M148.066,8.587c0,0,6.099-0.92,6.099,11.08s0,31,0,36.667s-4.099,8.492-6.099,8.492
	s-2.544,2.544-2.544,2.544h12.292V7.592C157.815,7.592,148.399,6.174,148.066,8.587z"/>
<g id="g4420_3_" transform="matrix(0.58673783,0,0,0.58673783,326.54098,313.19625)">
	<path id="rect3218-7-0_2_" fill-opacity="0.1647" d="M-261.39-527.095h452.871c16.952,0,30.693,13.742,30.693,30.693v92.262
		c0,16.952-13.741,30.695-30.693,30.695H-261.39c-16.951,0-30.693-13.743-30.693-30.695v-92.262
		C-292.083-513.354-278.341-527.095-261.39-527.095z"/>
	<path id="rect3218-7_3_" fill="#FFFFFF" d="M-261.39-533.792h452.871c16.952,0,30.693,13.742,30.693,30.692v92.262
		c0,16.952-13.741,30.695-30.693,30.695H-261.39c-16.951,0-30.693-13.743-30.693-30.695V-503.1
		C-292.083-520.051-278.341-533.792-261.39-533.792z"/>
	<path id="rect3218_3_" fill="#73BB44" d="M-256.439-526.567h443.663c16.249,0,29.423,13.174,29.423,29.423v79.275
		c0,16.249-13.174,29.423-29.423,29.423h-443.663c-16.25,0-29.423-13.174-29.423-29.423v-79.275
		C-285.863-513.393-272.689-526.567-256.439-526.567z"/>
	<path id="path3222_3_" inkscape:connector-curvature="0" sodipodi:nodetypes="cssscssc" fill="#228441" d="M216.647-446.621
		c0,0,0.446-4.903,0.446-40.572c0-29.843-13.49-39.573-29.869-39.573c-11.524,0-432.875-0.106-442.927,0
		c-11.647,0.123-29.424,8.747-30.716,29.399c0,0,14.928-17.323,32.923-20.188c19.334-3.078,419.167-1.084,434.837,0.136
		C197.009-516.201,213.949-516.571,216.647-446.621z"/>
	<path id="path3222-1_5_" inkscape:connector-curvature="0" sodipodi:nodetypes="cssscssc" fill="#228441" d="M-285.516-475.803
		c0,0-0.347,23.212-0.347,58.881c0,13.998,12.512,28.478,30.798,28.478c11.524,0,431.66-0.241,441.713-0.348
		c11.647-0.123,20.123-6.839,24.19-13.274c0,0-8.056,5.532-27.091,6.318c-19.562,0.806-429.002,6.255-447.147-3.936
		C-281.541-409.875-277.964-424.059-285.516-475.803z"/>
	<path id="path3222-1_4_" inkscape:connector-curvature="0" sodipodi:nodetypes="cssscssc" fill="#228441" d="M186.648-388.792
		c16.629,0.348,21.338-6.839,25.405-13.274c0,0-9.269,5.532-28.305,6.318"/>
</g>
<path fill="#FFFFFF" d="M350.641,84.74c0,1.988-1.611,3.6-3.6,3.6h-82.082c-1.988,0-3.6-1.611-3.6-3.6V74.523
	c0-1.988,1.611-3.601,3.6-3.601h82.082c1.988,0,3.6,1.612,3.6,3.601V84.74z"/>
<path id="path3994-7" inkscape:connector-curvature="0" fill="#73BB44" d="M316.788,75.809h-21.577l10.757,10.756L316.788,75.809z"
	/>
</svg>
