<svg xmlns="http://www.w3.org/2000/svg" width="512" height="512"><defs><linearGradient id="0" gradientUnits="userSpaceOnUse" x1="543.46" x2="564.91"><stop offset="0" style="stop-color:#fc0"/><stop offset="1" style="stop-color:#fc0"/></linearGradient></defs><g transform="translate(0-540.36)"><path d="m162.99 570.37c0 0-32.837 10.812-53.26 22.02-12.95 7.11-35.723 29.685-39.24 42.45-3.204 11.613-.519 29.421 2.403 40.04 4.405 16.02 12.414 35.24 36.841 66.07 15.509 19.577 53.66 47.25 53.66 47.25 0 0 45.651-27.631 50.06-39.24 4.405-11.613-4.405-9.611-6.01-16.02-1.602-6.407-52.859-101.71-44.45-162.58z" style="fill:#fff;stroke:#ccc;stroke-width:6.447"/><path d="m360.47 718.2c0 0 13.562-15.257 21.473-12.997 7.911 2.26 11.301 12.432 5.086 16.387 0 0 10.148-6.492 20.337-6.492 10.189 0 13.785 12.586 12.387 16.782-1.398 4.195-13.385 9.19-13.385 9.19 0 0 15.183-4.795 21.776 2.997 6.593 7.792-7.991 18.78-8.99 19.579 0 0 22.376-.4 26.771 3.396 4.395 3.796 6.393 8.391 2.997 12.786 0 0 15.183-.599 19.379 5.594 4.195 6.193 1.598 18.979-10.189 26.371 0 0 13.985-3.396 18.38 5.993 4.395 9.39-6.393 18.58-9.59 21.377 0 0 16.382 3.796 17.581 16.982 1.199 13.186-9.989 18.58-16.782 20.18 0 0 13.785 1.199 14.984 7.991 1.199 6.793-10.189 19.379-16.782 23.774 0 0 10.588 8.79 11.587 16.382.999 7.592-10.988 14.984-15.583 13.985 0 0 11.787 7.192 11.787 13.385 0 6.193-8.391 15.383-23.375 15.183 0 0 9.59 8.591-7.592 13.985-17.18 5.394-11.188 1.598-14.185 2.597 0 0 7.592 5.394 7.192 10.189-.4 4.795-7.792 9.19-20.777 7.592 0 0 2.597 18.78-27.57 13.186 0 0-2.997 15.983-27.57 5.594 0 0-4.195 11.787-19.978 11.188-15.783-.599-14.984-10.988-14.984-10.988 0 0-5.794 15.783-14.984 15.983-9.19.2-15.183-7.991-15.783-12.187 0 0-6.793 19.379-18.38 17.98-11.587-1.399-13.985-17.18-13.985-17.18 0 0-2.997 14.584-17.581 13.186-14.584-1.399-18.58-13.985-18.58-13.985 0 0-11.587 14.185-19.778 11.987-8.191-2.198-14.384-9.789-12.986-18.18 0 0-22.18 13.385-27.77 11.587-5.594-1.798-12.786-14.584-4.595-21.377 0 0-20.578 13.186-32.365 13.585-11.787.4-14.384-5.994-14.384-9.989 0-3.996 5.194-10.389 6.593-10.788 0 0-31.17 7.592-33.16-7.192-1.998-14.784 10.588-17.381 10.588-17.381 0 0-35.944 11.419-48.747-12.586-3.197-5.994 18.58-14.584 18.58-14.584 0 0-28.569 5.394-31.765-8.191-3.197-13.585 23.974-22.775 23.974-22.775 0 0-18.78 1.398-19.18-11.587-.4-12.986 16.981-18.18 16.981-18.18 0 0-23.17 7.392-23.17-8.191 0-15.583 24.973-29.967 30.767-30.367 0 0-13.385.2-15.183-11.787-1.798-11.987 20.777-19.579 24.17-18.18 0 0-11.188-5.194-10.588-12.986.599-7.792 12.786-11.987 19.18-11.188 6.393.799 15.383 4.795 15.383 4.795 0 0-3.596-8.591-3.396-15.583.2-6.992 6.593-17.98 13.985-17.781 7.392.2 18.38 10.588 19.778 14.584 0 0-3.996-23.974 4.795-24.773 8.79-.799 23.574 7.592 27.77 13.385 0 0-1.998-15.383 3.796-19.18 5.794-3.796 15.983 5.194 15.983 5.194 0 0-.2-15.183 7.991-16.782 8.191-1.598 17.18 11.587 17.18 11.587 0 0 3.596-18.58 13.585-19.579 9.989-.999 19.379 12.986 19.379 12.986 0 0 2.597-17.98 14.584-18.78 11.987-.799 15.983 13.585 15.983 13.585 0 0-2.597-16.182 3.197-17.781 5.794-1.598 11.587 7.392 13.985 12.586 0 0-4.395-13.385 8.79-15.783 13.186-2.397 13.785 9.39 13.785 9.39 0 0 3.396-13.785 14.384-14.185 10.988-.4 11.987 7.991 11.987 7.991 0 0 3.396-10.788 11.787-10.189 8.391.599 13.04 6.697 13.04 6.697z" style="fill:#7f2aff;stroke:#442178;stroke-linecap:round;stroke-linejoin:round;stroke-width:7.368"/><g transform="matrix(1.842 0 0 1.842-856.66-166.76)"><g style="fill:#540;stroke:#000"><path d="m544.16 538.67c0 0 55.731-6.975 59.22-3.182 1.781 1.936-2.518 18.586-15.733 31.11-3.948 3.742-38.891-8.132-43.487-27.931z"/><path d="m625.83 535.84l45.528 2.371c0 0-7.875 25.559-19.896 25.736-12.02.177-25.279-4.243-25.633-28.11z"/></g><g transform="translate(179.5 146.5)" style="stroke:#d4aa00"><path d="m435.22 379.84c-30.905.087-71.69 3.598-74.07 4.935 0 0 2.7 14.964 3.848 18.06.988 2.662 9.184 27.2 36.03 27.2 26.842 0 30.854-30.537 30.854-30.537 0 0 6.487-2.102 8.635-.722 3.528 17.332 8.503 25.779 26.678 26.659 22.808 1.105 27.343-25.945 27.343-29.319 0-3.374.782-9.868.782-9.868 0 0-25.835-5.915-57.12-6.375-.978-.014-1.972-.034-2.969-.031zm12 9.531c0 0 38.592 1.032 41.813 2.719 0 0-1.847 23.781-17.656 23.594-15.277-.181-23.389-6.68-24.16-26.313zm-28.46-1.839c2.024-.061 5.231-.186 6.247-.052 0 0-2 31.989-25.22 31.978-21.661-.001-29.393-18.01-29.703-28.309 0 0 34.512-3.191 48.678-3.617z" style="fill:#fc0;stroke-linecap:round;stroke-linejoin:round;stroke-width:3.625"/><g style="fill:none"><path d="m370.81 398.25c0 0 47.921-4.554 52.54-3.947" style="stroke-width:4.5"/><path d="m422.23 401.05c0 0-41.07 3.639-47.37 4.111" style="stroke-width:4.375"/><g style="stroke-width:3.75"><path d="m447.31 396.09c0 0 34.452.127 39.91 1.372"/><path d="m449.82 402.5c0 .147 17.599.019 36.638.901"/></g><path d="m418.75 408.72c.682.227-33.464 3.58-39.17 3.697" style="stroke-width:4.375"/><path d="m453.18 409.02c0 0 14.495.424 30.509.421" style="stroke-width:3.75"/></g></g><path d="m609.91 531.58c0 0 7.428.32 9.255.913 0 0-.074 4.973-.074 6.306 0 0-7.863 2.31-8.847.215z" style="fill:#fc0;stroke:#d4aa00;stroke-linejoin:round;stroke-width:3.224"/></g><g transform="matrix(1.834.17-.17 1.834-736.74-259.59)"><g style="stroke-width:2"><path d="m626.3 599.32l1.304 15.217c0 0-23.696 2.174-37.609.652-13.913-1.522-28.04-6.522-28.04-6.522l2.609-16.09c0 0 14.783 9.783 61.739 6.739z" style="fill:#fff;stroke:#ccc;stroke-linejoin:round"/><path d="m547.01 587.02l-3.295 18.789c0 0 11.448 3.574 17.317 4.334 0 0 1.581-7.887 2.885-19.844 0 0-11.907-.454-16.907-3.28z" style="fill:url(#0);stroke:#d4aa00"/></g><path d="m545.42 604.93l5.554-11.554 4.222-.881-7.04-4.999z" style="fill:#ffe680"/><g style="fill:#7f2aff;stroke:#442178;stroke-linecap:round;stroke-linejoin:round;stroke-width:3"><path d="m593.55 620.77c-.979-10.573 20.42-17.877 35.664-12.27 13.286 4.886 2.042 11.414 2.042 11.414"/><path d="m545.21 584.3c0 0 10.517 9.938 13.892 9.688 3.375-.25 4.25-6 4.25-6 0 0 4.312 10.58 11.437 11.83 7.125 1.25 8.944-4.539 8.944-4.539 0 0 5.994 7.333 10.369 7.458 4.375.125 4.375-5.125 4.375-5.125 0 0 2.75 4.875 6.125 4.75 3.375-.125 5.625-4.02 5.625-4.02 0 0 3.125 4.397 5.75 3.772 2.625-.625 5.332-4.63 5.332-4.63 0 0 .543 3.255 4.04 3.255 3.5 0 6.75-3.125 6.75-3.125"/></g></g><g style="fill:#7f2aff;stroke:#442178;stroke-linecap:round;stroke-width:5.526"><path d="m159.59 889.43c0 0 8.965-6.188 14.629-6.188 5.663 0 8.874 8.171 8.874 8.171 0 0 6.796-4.247 13.875-4.247 7.079 0 4.247 14.441 4.247 14.441"/><path d="m315.05 891.12c0 0 9.911-11.04 16.706-11.04 6.796 0 10.76 7.645 10.477 11.893 0 0 3.681-8.495 10.477-8.212 6.796.283 10.194 9.06 10.194 9.06"/></g><g style="stroke-width:6.447"><path d="m363.21 711.73c0 0-2.65-3.153 6.16-.35 8.81 2.803 68.973 12.414 70.17 14.817 1.201 2.403-11.819 14.547-30.28 25.578-14.631 8.741-58.06 25.23-68.48 26.429-10.412 1.201-34.438-7.208-42.45-9.611-8.01-2.403-64.07-16.819-76.49-19.221-12.414-2.403-8.81-3.604-8.81-3.604 0 0 106.92-30.03 150.17-34.04z" style="fill:#fff;stroke:#ccc"/><path d="m368.02 708.13c0 0 8.553-113.78 1.351-132.05-7.558-19.17-43.15-22.927-43.15-22.927-18.967-2.306-59.02-1.592-103.86 4.655-19.323 2.692-56.763 11.515-56.763 11.515 0 0-9.825 18.221-10.211 57.914-.4 41.25 12.01 69.68 17.62 78.49 5.606 8.81 24.928 35.59 38.543 41.2 0 0 105.22-15.567 156.47-38.793z" style="fill:#b380ff;stroke:#7f2aff"/></g><g transform="matrix(.983.998-1.066.92 320.11-288.63)" style="fill:none;stroke-linejoin:round"><path d="m467.9 462.02c2.115.24-3.238-.685-7.91 3.789-6.977 6.681.561 22.963 13.645 16.689 14.173-6.796 3.475-22.574-5.992-20.282" style="stroke:#ffcb17;stroke-width:1.808"/><path d="m458.28 477.19c7.445-.489 16.11-4.457 20.31-8.826" style="stroke:#ffd400;stroke-linecap:round;stroke-width:4.02"/><path d="m466.21 483.8c4.65 7.243 9.06 17.18 13.239 23.678 3.944.097 5.584-.5 8.29-3.051-2.807-8.168-6.558-18.348-9.321-25.874" style="stroke:#ffd000;stroke-width:1.808"/><path d="m477.54 494.09c-5.277.31-.945 4.578.353 1.587.38-.875-3.187-9.496 3.526-5.729" style="stroke:#ffc200;stroke-linecap:round;stroke-width:1.01"/></g><g style="fill:none;stroke-miterlimit:7.03;stroke-linecap:round;stroke-linejoin:round;stroke-width:4.418"><g transform="matrix(1.842 0 0 1.842-864.63-169.42)" style="stroke:#ffd900"><path d="m578.91 407.55c2.409 13.62 13.91 15.739 19.676 16.71"/><path d="m604.96 405.11c-1.803 13.692-7.955 31.32-15.628 39.564"/></g><g transform="matrix(1.736.616-.616 1.736-510.85-513.77)" style="stroke:#ffd800"><path d="m628.95 472.07c-1.4-11.145-3.01-24.12-3.762-36.04 9.513-.602 13.201-1.184 17.943-5.962"/><path d="m627.21 452.83c6.384-.686 9.293-1.612 13.891-5.149"/></g></g></g></svg>