<?xml version="1.0" encoding="utf-8"?>
<!-- Generator: Adobe Illustrator 16.0.0, SVG Export Plug-In . SVG Version: 6.00 Build 0)  -->
<!DOCTYPE svg PUBLIC "-//W3C//DTD SVG 1.1//EN" "http://www.w3.org/Graphics/SVG/1.1/DTD/svg11.dtd">
<svg version="1.1"
	 id="svg12211" xmlns:dc="http://purl.org/dc/elements/1.1/" xmlns:cc="http://creativecommons.org/ns#" xmlns:rdf="http://www.w3.org/1999/02/22-rdf-syntax-ns#" xmlns:svg="http://www.w3.org/2000/svg" xmlns:sodipodi="http://sodipodi.sourceforge.net/DTD/sodipodi-0.dtd" xmlns:inkscape="http://www.inkscape.org/namespaces/inkscape" inkscape:export-ydpi="72.021774" inkscape:export-xdpi="72.021774" inkscape:export-filename="C:\Users\Zealotlee\Dropbox\Small Projects\Steves Fuzzballs\fuschia-fuzzle.png" sodipodi:docname="acc-face-mustache.svg" inkscape:version="0.91 r13725"
	 xmlns="http://www.w3.org/2000/svg" xmlns:xlink="http://www.w3.org/1999/xlink" x="0px" y="0px" width="85.377px"
	 height="85.378px" viewBox="213.224 211.549 85.377 85.378" enable-background="new 213.224 211.549 85.377 85.378"
	 xml:space="preserve">
<circle fill="#EA1818" stroke="#BC1313" stroke-width="2" stroke-miterlimit="10" cx="255.913" cy="254.238" r="41.689"/>
<path fill="#F93D3D" d="M251.138,215.551c0,0,19.833-1.773,27.833,6.727s16,15.437,15.834,28.135
	c-0.168,12.698-3.5,14.032-7.334,7.032c-3.832-7-3.554-21.928-11.832-27.835c-8.279-5.907-21.667-8.976-26.833-8.07
	C243.638,222.445,246.133,215.701,251.138,215.551z"/>
<path fill="#BC1313" d="M214.224,258.277c0,0,7.081,17.334,25.247,26.334c18.166,9,25.284,9.303,31.558,8.484
	c6.275-0.818-18.431,8.91-37.911-3.953C213.638,276.277,214.224,258.277,214.224,258.277z"/>
</svg>
