<?xml version="1.0" encoding="utf-8"?>
<!-- Generator: Adobe Illustrator 16.0.0, SVG Export Plug-In . SVG Version: 6.00 Build 0)  -->
<!DOCTYPE svg PUBLIC "-//W3C//DTD SVG 1.1//EN" "http://www.w3.org/Graphics/SVG/1.1/DTD/svg11.dtd">
<svg version="1.1"
	 id="svg12211" xmlns:dc="http://purl.org/dc/elements/1.1/" xmlns:cc="http://creativecommons.org/ns#" xmlns:rdf="http://www.w3.org/1999/02/22-rdf-syntax-ns#" xmlns:svg="http://www.w3.org/2000/svg" xmlns:sodipodi="http://sodipodi.sourceforge.net/DTD/sodipodi-0.dtd" xmlns:inkscape="http://www.inkscape.org/namespaces/inkscape" inkscape:export-ydpi="72.021774" inkscape:export-xdpi="72.021774" inkscape:export-filename="C:\Users\Zealotlee\Dropbox\Small Projects\Steves Fuzzballs\fuschia-fuzzle.png" sodipodi:docname="acc-face-beard.svg" inkscape:version="0.91 r13725"
	 xmlns="http://www.w3.org/2000/svg" xmlns:xlink="http://www.w3.org/1999/xlink" x="0px" y="0px" width="134.055px"
	 height="65.728px" viewBox="206.062 223.104 134.055 65.728" enable-background="new 206.062 223.104 134.055 65.728"
	 xml:space="preserve">
<sodipodi:namedview  showguides="true" showgrid="false" inkscape:cy="193.02625" inkscape:cx="369.48506" inkscape:zoom="0.71220416" borderopacity="1.0" bordercolor="#666666" pagecolor="#ffffff" id="base" inkscape:window-maximized="1" inkscape:window-y="-8" inkscape:window-x="-8" inkscape:window-height="988" inkscape:window-width="1680" inkscape:pageshadow="2" inkscape:current-layer="layer1" inkscape:pageopacity="0.0" inkscape:document-units="px">
	</sodipodi:namedview>
<path id="path3851_1_" inkscape:connector-curvature="0" fill="#FFFFFF" stroke="#CCCCCC" stroke-width="2" stroke-linejoin="round" d="
	M327.055,257.027l-0.15,22.078c0,0-34.399-0.028-54.223-4.074c-19.825-4.045-39.499-13.127-39.499-13.127l5.9-22.808
	C239.083,239.096,259.059,255.149,327.055,257.027z"/>
<path id="path3853_1_" sodipodi:nodetypes="ccccc" inkscape:connector-curvature="0" fill="#EFF4F9" stroke="#DCE3FF" stroke-width="2" d="
	M214.548,228.749l-7.248,26.607c0.218,0.05,11.179,8.548,23.976,9.898c8.198,5.525,14.861,9.107,27.361,8.357
	c5.209,1.679,13.168,5.494,21.481,4.268c17.042-2.516,43.366,3.984,46.194,4.62c0,0,2.871-8.942,6.342-25.979
	C332.657,256.52,221.369,233.484,214.548,228.749z"/>
<g>
	<path fill="#DCE3FF" d="M271.134,277.396c0,0,11.822,1.121,11.831-10.84l-1.23,11.863
		C281.734,278.42,278.088,279.036,271.134,277.396z"/>
	<path fill="#DCE3FF" d="M271.212,276.398c0.353,0.047,0.675,0.066,1.044,0.082c0.358,0.004,0.719,0.013,1.077-0.013
		c0.362-0.007,0.718-0.051,1.077-0.092c0.363-0.026,0.709-0.12,1.066-0.181c0.36-0.053,0.691-0.187,1.043-0.275
		c0.355-0.081,0.668-0.256,1.008-0.381c0.345-0.118,0.641-0.319,0.957-0.492c0.328-0.161,0.613-0.377,0.893-0.605
		c0.289-0.219,0.581-0.437,0.811-0.719c0.234-0.273,0.527-0.511,0.723-0.82l0.609-0.92c0.191-0.316,0.312-0.672,0.473-1.008
		c0.16-0.339,0.309-0.685,0.384-1.055l0.292-1.096c0.1-0.367,0.105-0.75,0.162-1.127l0.136-1.141l0,0l0,0l-0.235,11.967l0,0
		l-0.084,0.804l-0.744,0.079l-0.758,0.08l-0.703,0.015l-1.403,0.022l-2.746-0.225l-0.687-0.058l-0.672-0.123l-1.343-0.249
		l-2.685-0.5L271.212,276.398z M271.364,276.423l2.571,0.476l1.287,0.24l0.643,0.118l0.646,0.054l2.582,0.213l1.271-0.021
		l0.634-0.01l0.57-0.059l-0.827,0.883l0,0l2.225-11.76l0,0v0.002l-0.011,1.148c-0.016,0.383,0.02,0.773-0.04,1.154l-0.176,1.149
		c-0.037,0.392-0.149,0.763-0.278,1.134c-0.129,0.369-0.218,0.758-0.383,1.116l-0.546,1.06c-0.179,0.359-0.46,0.652-0.688,0.982
		c-0.226,0.34-0.518,0.616-0.812,0.893c-0.286,0.289-0.583,0.566-0.923,0.787c-0.332,0.232-0.65,0.496-1.016,0.67
		c-0.359,0.183-0.703,0.416-1.085,0.552c-0.377,0.144-0.745,0.334-1.135,0.438c-0.388,0.111-0.772,0.256-1.168,0.332
		c-0.394,0.09-0.79,0.183-1.192,0.234c-0.399,0.07-0.804,0.107-1.209,0.146c-0.396,0.028-0.839,0.049-1.248,0.039L271.364,276.423z"
		/>
</g>
<path id="path3865_1_" sodipodi:nodetypes="ccccc" inkscape:connector-curvature="0" fill="#FFFFFF" d="M209.885,254.318
	l9.535-15.891l6.195-0.706l-9.474-8.135L209.885,254.318z"/>
<g>
	<polygon fill="#DDDDF2" points="289.285,267.211 293.496,277.018 299.822,269.8 296.659,261.416 	"/>
	<polygon fill="#EBE5E9" points="291.439,267.992 293.887,273.693 297.564,269.498 295.727,264.623 	"/>
	<polygon fill="#FBFAFA" points="292.995,268.557 294.17,271.294 295.936,269.279 295.053,266.939 	"/>
</g>
<path id="path3865_2_" sodipodi:nodetypes="ccccc" inkscape:connector-curvature="0" fill="#FFFFFF" d="M235.842,251.626
	l8.486-12.305l6.195-0.706l-10.373-4.581L235.842,251.626z"/>
<path id="path3849_1_" sodipodi:nodetypes="csc" inkscape:connector-curvature="0" fill="#7F2AFF" stroke="#442178" stroke-width="3" stroke-linecap="round" stroke-linejoin="round" d="
	M277.05,283.538c0-15.351,31.777-23.011,52.972-12.908c18.474,8.806,1.418,16.702,1.418,16.702"/>
<path id="path3847_1_" sodipodi:nodetypes="cscscscscscsc" inkscape:connector-curvature="0" fill="#7F2AFF" stroke="#442178" stroke-width="3" stroke-linecap="round" stroke-linejoin="round" d="
	M212.319,224.604c0,0,13.814,15.707,18.705,15.797c4.891,0.09,6.917-8.07,6.917-8.07s4.796,15.805,14.886,18.554
	c10.09,2.749,13.479-5.341,13.479-5.341s7.651,11.354,13.932,12.118c6.281,0.763,6.98-6.794,6.98-6.794s3.309,7.384,8.184,7.653
	c4.873,0.271,8.633-5.039,8.633-5.039s3.912,6.746,7.773,6.197c3.862-0.55,8.293-5.956,8.293-5.956s0.348,4.758,5.385,5.225
	c5.039,0.467,10.134-3.599,10.134-3.599"/>
<g>
	<path fill="#DCE3FF" d="M220.938,262.698c0,0,11.533,2.829,13.283-9.003l-2.944,11.559
		C231.277,265.254,227.58,265.333,220.938,262.698z"/>
	<path fill="#DCE3FF" d="M221.16,261.723c0.342,0.098,0.658,0.164,1.021,0.233c0.354,0.056,0.708,0.117,1.067,0.144
		c0.359,0.047,0.718,0.055,1.079,0.065c0.363,0.026,0.719-0.017,1.081-0.022c0.364,0,0.712-0.086,1.072-0.123
		c0.364-0.028,0.699-0.156,1.052-0.229c0.359-0.067,0.68-0.224,1.019-0.347c0.347-0.112,0.661-0.284,0.97-0.471
		c0.317-0.173,0.638-0.347,0.907-0.592c0.272-0.236,0.595-0.429,0.833-0.707l0.737-0.822c0.235-0.285,0.405-0.619,0.614-0.93
		s0.405-0.632,0.533-0.986l0.449-1.042c0.152-0.349,0.213-0.727,0.325-1.091l0.3-1.108v-0.001l0,0l-1.975,11.805l0,0l-0.199,0.783
		l-0.748-0.03l-0.762-0.031l-0.697-0.088l-1.391-0.182l-2.684-0.621l-0.671-0.157l-0.647-0.219l-1.293-0.441l-2.584-0.885
		L221.16,261.723z M221.307,261.77l2.475,0.845l1.237,0.424l0.619,0.211l0.631,0.146l2.524,0.588l1.26,0.164l0.629,0.082
		l0.574,0.025l-0.947,0.753l0,0l3.913-11.311l0,0v0.001l-0.178,1.135c-0.072,0.377-0.093,0.768-0.207,1.137l-0.341,1.111
		c-0.094,0.381-0.258,0.734-0.44,1.082c-0.181,0.346-0.326,0.719-0.541,1.049l-0.694,0.969c-0.228,0.329-0.549,0.577-0.824,0.871
		c-0.272,0.303-0.601,0.534-0.933,0.766c-0.325,0.244-0.659,0.477-1.028,0.645c-0.361,0.182-0.715,0.395-1.102,0.516
		c-0.382,0.127-0.757,0.309-1.154,0.388c-0.393,0.087-0.785,0.222-1.186,0.268c-0.4,0.056-0.801,0.142-1.204,0.159
		c-0.403,0.032-0.808,0.066-1.213,0.059c-0.406,0.012-0.811-0.011-1.218-0.031c-0.395-0.028-0.836-0.073-1.24-0.144L221.307,261.77z
		"/>
</g>
<g>
	<path fill="#DCE3FF" d="M249.008,272.986c0,0,11.822,1.121,11.831-10.84l-1.231,11.863
		C259.609,274.01,255.962,274.626,249.008,272.986z"/>
	<path fill="#DCE3FF" d="M249.086,271.989c0.353,0.047,0.675,0.065,1.044,0.081c0.358,0.005,0.718,0.013,1.077-0.012
		c0.362-0.008,0.718-0.052,1.077-0.093c0.363-0.026,0.709-0.12,1.066-0.18c0.361-0.054,0.692-0.187,1.043-0.276
		c0.356-0.08,0.668-0.256,1.008-0.381c0.345-0.118,0.641-0.318,0.958-0.492c0.327-0.16,0.612-0.377,0.892-0.605
		c0.289-0.219,0.581-0.436,0.812-0.717c0.233-0.274,0.526-0.512,0.722-0.82l0.61-0.921c0.19-0.316,0.311-0.671,0.471-1.009
		c0.162-0.338,0.31-0.684,0.385-1.053l0.292-1.097c0.101-0.367,0.104-0.75,0.162-1.127l0.136-1.14v-0.002l0,0l-0.236,11.967l0,0
		l-0.082,0.805l-0.746,0.079l-0.758,0.081l-0.703,0.014l-1.402,0.021l-2.746-0.223l-0.686-0.059l-0.672-0.123l-1.343-0.249
		l-2.686-0.5L249.086,271.989z M249.238,272.014l2.572,0.476l1.286,0.239l0.643,0.119l0.646,0.053l2.583,0.213l1.271-0.021
		l0.634-0.01l0.571-0.059l-0.828,0.884l0,0l2.225-11.761l0,0v0.002l-0.011,1.148c-0.017,0.383,0.021,0.773-0.04,1.155l-0.176,1.149
		c-0.037,0.391-0.149,0.762-0.278,1.133c-0.129,0.369-0.218,0.759-0.383,1.117l-0.546,1.06c-0.178,0.358-0.46,0.651-0.689,0.981
		c-0.225,0.34-0.517,0.616-0.811,0.894c-0.286,0.289-0.583,0.565-0.924,0.786c-0.33,0.232-0.649,0.496-1.015,0.671
		c-0.36,0.182-0.704,0.416-1.085,0.551c-0.377,0.144-0.745,0.334-1.135,0.438c-0.387,0.111-0.772,0.256-1.168,0.332
		c-0.394,0.09-0.79,0.183-1.192,0.234c-0.4,0.071-0.804,0.107-1.21,0.146c-0.395,0.029-0.838,0.049-1.248,0.039L249.238,272.014z"/>
</g>
<g>
	<g>
		<polygon fill="#DDDDF2" points="217.321,246.412 220.158,256.702 227.408,250.413 225.416,241.676 		"/>
		<polygon fill="#EBE5E9" points="219.349,247.48 220.998,253.462 225.213,249.806 224.055,244.726 		"/>
		<polygon fill="#FBFAFA" points="220.813,248.251 221.605,251.122 223.628,249.367 223.072,246.929 		"/>
	</g>
	<path fill="#FFFFFF" d="M217.625,246.11c0,0,4.872,0.13,5.248,0.885c0.326,0.655,1.241,3.413,1.276,4.757
		c0.379-2.138,0.172-3.895,0.862-4.757c0.69-0.863,2.172-0.701,4.62-0.885c-1.621-0.357-3.758,0.143-4.793-0.969
		c-1.034-1.112-0.781-2.525-0.89-4.594c-0.248,1.621-0.248,4.085-1.213,4.594C221.77,245.65,222.597,246.15,217.625,246.11z"/>
</g>
<g>
	<g>
		<polygon fill="#DDDDF2" points="242.854,256.266 245.69,266.557 252.94,260.268 250.948,251.53 		"/>
		<polygon fill="#EBE5E9" points="244.881,257.334 246.53,263.316 250.745,259.66 249.587,254.58 		"/>
		<polygon fill="#FBFAFA" points="246.345,258.105 247.137,260.977 249.16,259.221 248.604,256.783 		"/>
	</g>
	<path fill="#FFFFFF" d="M243.157,255.965c0,0,4.872,0.13,5.248,0.885c0.326,0.655,1.241,3.414,1.276,4.758
		c0.379-2.139,0.172-3.896,0.862-4.758c0.69-0.863,2.172-0.701,4.62-0.885c-1.621-0.357-3.758,0.142-4.793-0.969
		c-1.034-1.112-0.781-2.525-0.89-4.594c-0.248,1.621-0.248,4.085-1.213,4.594C247.302,255.505,248.129,256.004,243.157,255.965z"/>
</g>
<g>
	<polygon fill="#DDDDF2" points="267.514,263.25 271.725,273.057 278.051,265.839 274.889,257.455 	"/>
	<polygon fill="#EBE5E9" points="269.667,264.031 272.116,269.732 275.794,265.537 273.955,260.662 	"/>
	<polygon fill="#FBFAFA" points="271.223,264.596 272.398,267.333 274.164,265.318 273.281,262.979 	"/>
</g>
<path fill="#FFFFFF" d="M268.119,262.266c0,0,4.872,0.129,5.248,0.885c0.326,0.654,1.24,3.412,1.275,4.757
	c0.379-2.138,0.172-3.896,0.862-4.757c0.69-0.863,2.172-0.701,4.62-0.885c-1.621-0.357-3.758,0.142-4.793-0.97
	c-1.034-1.112-0.781-2.524-0.891-4.594c-0.248,1.621-0.248,4.085-1.213,4.594S273.091,262.305,268.119,262.266z"/>
</svg>
