<?xml version="1.0" encoding="utf-8"?>
<!-- Generator: Adobe Illustrator 16.0.0, SVG Export Plug-In . SVG Version: 6.00 Build 0)  -->
<!DOCTYPE svg PUBLIC "-//W3C//DTD SVG 1.1//EN" "http://www.w3.org/Graphics/SVG/1.1/DTD/svg11.dtd">
<svg version="1.1"
	 id="svg12211" xmlns:dc="http://purl.org/dc/elements/1.1/" xmlns:cc="http://creativecommons.org/ns#" xmlns:rdf="http://www.w3.org/1999/02/22-rdf-syntax-ns#" xmlns:svg="http://www.w3.org/2000/svg" xmlns:sodipodi="http://sodipodi.sourceforge.net/DTD/sodipodi-0.dtd" xmlns:inkscape="http://www.inkscape.org/namespaces/inkscape" inkscape:export-ydpi="72.021774" inkscape:export-xdpi="72.021774" inkscape:export-filename="C:\Users\Zealotlee\Dropbox\Small Projects\Steves Fuzzballs\fuschia-fuzzle.png" sodipodi:docname="acc-face-mustache.svg" inkscape:version="0.91 r13725"
	 xmlns="http://www.w3.org/2000/svg" xmlns:xlink="http://www.w3.org/1999/xlink" x="0px" y="0px" width="443px" height="443.417px"
	 viewBox="32.24 34.217 443 443.417" enable-background="new 32.24 34.217 443 443.417" xml:space="preserve">
<g>
	<path fill="#F9B826" stroke="#C49027" stroke-width="5" stroke-miterlimit="10" d="M257.407,466.688l33.333-26
		c0,0-17.333-13.666-17.333-67.666s4.667-91.668,35.333-106c30.667-14.333,84,13,88,64c-24,36.666-47,62.332-47,85.666
		s4.667,58.334,60,58.334c25.333,0,34.065-7.226,42.065-10.559s20.935-11.107,20.935-32.775c0-21.666-9-17.332-9-42
		c0-24.666,6.065-38.026,6.065-84.584c0-46.559-21.065-67.082-46.065-87.416s-48.667-36.333-109.667-37.667
		c-61,0.333-117.333,0-117.333,0s-59.667,3.333-82.667,17.667s-77,57-77,115.667c0,40.666,8.667,37.332,8.667,72.666
		s-11,30.668-11,44.668s19.333,26.666,32.667,34.332c13.333,7.668,21.333,13.668,56.667,7.668s35.667-37,35.667-44.668
		c0-29.332-14.333-48.666-20.333-57c-6-8.332-18.333-21.666-25.333-36.666c3.667-23.668,25.667-88,90.333-65.334
		c27.333,10.668,33.333,68,33.333,104.668c0,36.666-8,61.666-17,65.666C233.407,449.355,257.407,466.688,257.407,466.688z"/>
	<path fill="#D8D8D8" stroke="#A5A4A4" stroke-width="2" stroke-miterlimit="10" d="M52.407,423.355
		c-1.791,12.538,30.667,31,48.333,31s33-8.667,33-28.333c0-19.667-12.333-31-21.667-43.667c-9.333-12.667-21-35.667-21.333-73.333
		c-0.333-37.667,38.667-66.333,68-66.667c29.333-0.333,45.333,9,65,27.333c19.667,18.334,25.004,19.668,25.004,19.668v118.333
		c0,0-11.004,14-11.004,25.667s11,17.333,13,21s7.667,3.667,11,0s14-11.667,13-20.333c-1-8.667-7.333-21-10.667-27.333
		c0-22,0-117.334,0-117.334s18.667-13.332,23.667-19.332s31.333-29.333,60-29.333s70.333,30.333,73.333,61
		c3,30.668-11,71.334-15.667,77.001s-26.333,19-26.333,44.667s17,32,34.333,32s23.398-5.309,34.398-9.643
		c11-4.333,15.935-20.691,7.602-33.691s-17.667-23-17.667-39.334c0-16.332,7.667-44.332,7.667-65c0-20.666-24.333-85-71-100
		s-73.926-10.667-118.463,12c-44.871-23-82.871-28.333-117.537-12.333s-70.333,54-70.333,99.667c0,45.668,11.333,64.334,7,75.334
		C70.74,393.355,54.073,411.688,52.407,423.355z"/>
	<path fill="#E5E5E5" d="M392.139,225.797c0,0-15.205-20.544-55.332-21.667s-55,7-66,13.667s4.695,8,12.182,4
		c7.484-4,39.865-8.105,60.175-6.886c20.31,1.219,35.644,13.886,41.978,15.219C391.473,231.463,395.16,229.041,392.139,225.797z"/>
	<path fill="#E5E5E5" d="M235.306,214.797c5.091,3.448,13.833,9.667,5.833,10s-28-10.611-53-13.639c-25-3.028-32.333-2.639-39.333,0
		c-7,2.639-8.333-5.571,5-7.132s28.973-6.229,45.153-2.062C215.139,206.13,232.3,212.761,235.306,214.797z"/>
	<path fill="#E80805" stroke="#CC110F" stroke-width="5" stroke-miterlimit="10" d="M309.629,169.777l54-110.333h-10.333
		l-4.333-5.667l-5.667,5l-8-7h-8l-6,6.333l-11.667-16l-14,4.667l-6-4.667l-1.667,7.333l-10-2.333l-11.333,4.333l-4-11.338
		l-6.5,8.338l-4.833-8.338l-2.663,7.338l-5.67-4l-2.667,5.667l-9.333-5l-3.333,6l-12-4.667v6l-14.333-7.667l-3.333,6.667
		l-12.333-5.333l-4,5.667l-9.333-1l-10.333,3.667l-7.667-0.667v8v12l-6,4.667l51.74,90.526
		C200.036,167.969,268.296,185.11,309.629,169.777z"/>
	<g>
		<line fill="none" x1="213.139" y1="170.797" x2="168.806" y2="64.797"/>
		<path fill="#CC110F" d="M213.139,170.797c0,0-0.893-1.573-2.361-4.364c-1.469-2.791-3.535-6.792-5.884-11.647
			c-1.182-2.424-2.463-5.051-3.752-7.856c-1.304-2.799-2.697-5.744-4.069-8.819c-1.385-3.069-2.797-6.249-4.199-9.494
			c-1.415-3.239-2.808-6.549-4.206-9.856c-1.373-3.318-2.754-6.632-4.066-9.914c-1.33-3.275-2.597-6.515-3.813-9.655
			c-1.224-3.137-2.346-6.194-3.421-9.09c-1.091-2.888-2.065-5.643-2.958-8.189c-1.807-5.082-3.203-9.363-4.157-12.37
			c-0.955-3.006-1.446-4.747-1.446-4.747s0.894,1.572,2.364,4.363c1.471,2.79,3.538,6.79,5.888,11.646
			c1.185,2.423,2.463,5.051,3.753,7.856c1.306,2.798,2.695,5.744,4.069,8.819c1.381,3.071,2.799,6.248,4.197,9.495
			c1.416,3.239,2.805,6.55,4.203,9.857c1.372,3.318,2.751,6.633,4.063,9.916c1.325,3.277,2.598,6.515,3.81,9.657
			c1.225,3.136,2.343,6.196,3.421,9.09c1.092,2.888,2.063,5.644,2.958,8.189c1.807,5.082,3.205,9.362,4.16,12.368
			C212.646,169.057,213.139,170.797,213.139,170.797z"/>
	</g>
	<g>
		<line fill="none" x1="223.806" y1="171.797" x2="195.806" y2="64.797"/>
		<path fill="#CC110F" d="M223.806,171.797c0,0-0.647-1.617-1.682-4.472c-1.035-2.855-2.479-6.943-4.076-11.885
			c-0.807-2.468-1.68-5.143-2.536-7.989c-0.871-2.842-1.807-5.835-2.705-8.95c-0.911-3.111-1.831-6.331-2.733-9.612
			c-0.915-3.277-1.798-6.619-2.687-9.959c-0.862-3.347-1.733-6.692-2.54-9.998c-0.826-3.301-1.594-6.561-2.328-9.718
			c-0.742-3.155-1.395-6.222-2.026-9.127c-0.648-2.901-1.199-5.659-1.702-8.207c-1.028-5.09-1.77-9.362-2.264-12.359
			c-0.496-2.996-0.722-4.724-0.722-4.724s0.649,1.617,1.684,4.472c1.036,2.855,2.483,6.942,4.079,11.884
			c0.81,2.468,1.68,5.143,2.536,7.989c0.873,2.842,1.806,5.835,2.705,8.95c0.907,3.112,1.834,6.331,2.73,9.613
			c0.916,3.277,1.795,6.62,2.683,9.96c0.861,3.347,1.729,6.693,2.536,9.999c0.821,3.302,1.596,6.56,2.325,9.719
			c0.743,3.155,1.392,6.223,2.025,9.127c0.649,2.901,1.197,5.66,1.703,8.207c1.028,5.09,1.772,9.361,2.268,12.358
			C223.578,170.07,223.806,171.797,223.806,171.797z"/>
	</g>
	<g>
		<line fill="none" x1="239.473" y1="178.13" x2="215.806" y2="69.13"/>
		<path fill="#CC110F" d="M239.473,178.13c0,0-0.582-1.657-1.5-4.579c-0.919-2.921-2.197-7.102-3.594-12.149
			c-0.707-2.522-1.472-5.254-2.212-8.158c-0.755-2.901-1.571-5.957-2.342-9.133c-0.785-3.173-1.575-6.457-2.344-9.801
			c-0.783-3.341-1.53-6.746-2.283-10.149c-0.726-3.409-1.462-6.816-2.135-10.181c-0.692-3.361-1.329-6.678-1.935-9.89
			c-0.614-3.211-1.143-6.328-1.656-9.282c-0.53-2.95-0.97-5.753-1.37-8.341c-0.822-5.172-1.391-9.507-1.764-12.547
			c-0.374-3.04-0.531-4.789-0.531-4.789s0.583,1.657,1.503,4.578c0.921,2.921,2.201,7.102,3.598,12.149
			c0.71,2.521,1.471,5.254,2.212,8.158c0.758,2.901,1.57,5.957,2.342,9.133c0.781,3.174,1.577,6.457,2.341,9.802
			c0.783,3.341,1.527,6.746,2.28,10.15c0.726,3.409,1.458,6.817,2.131,10.182c0.687,3.362,1.33,6.678,1.932,9.891
			c0.615,3.21,1.14,6.329,1.656,9.282c0.531,2.95,0.968,5.753,1.371,8.341c0.822,5.172,1.393,9.506,1.768,12.546
			C239.314,176.381,239.473,178.13,239.473,178.13z"/>
	</g>
	<g>
		<line fill="none" x1="252.407" y1="178.13" x2="248.473" y2="57.463"/>
		<path fill="#CC110F" d="M252.407,178.13c0,0-0.278-1.878-0.663-5.169c-0.386-3.29-0.901-7.992-1.38-13.639
			c-0.248-2.823-0.516-5.881-0.729-9.118c-0.228-3.237-0.488-6.649-0.683-10.182c-0.209-3.532-0.403-7.183-0.566-10.893
			c-0.177-3.71-0.308-7.481-0.445-11.251c-0.109-3.771-0.228-7.542-0.293-11.256c-0.084-3.713-0.122-7.369-0.148-10.907
			c-0.034-3.538-0.001-6.96,0.018-10.204c0.002-3.244,0.067-6.313,0.133-9.146c0.109-5.666,0.32-10.391,0.492-13.7
			c0.171-3.309,0.328-5.201,0.328-5.201s0.28,1.878,0.666,5.169c0.387,3.29,0.905,7.992,1.383,13.639
			c0.251,2.823,0.515,5.881,0.728,9.118c0.231,3.236,0.487,6.649,0.683,10.182c0.205,3.532,0.406,7.183,0.563,10.893
			c0.177,3.71,0.304,7.481,0.441,11.251c0.109,3.771,0.224,7.542,0.289,11.256c0.079,3.713,0.123,7.369,0.145,10.907
			c0.036,3.538-0.002,6.96-0.019,10.204c-0.001,3.244-0.069,6.313-0.132,9.147c-0.11,5.666-0.317,10.391-0.488,13.7
			C252.562,176.237,252.407,178.13,252.407,178.13z"/>
	</g>
	<g>
		<line fill="none" x1="263.807" y1="176.153" x2="272.807" y2="72.463"/>
		<path fill="#CC110F" d="M263.807,176.153c0,0-0.076-1.639-0.106-4.498c-0.032-2.859-0.04-6.941,0.089-11.827
			c0.057-2.444,0.117-5.091,0.252-7.885c0.12-2.795,0.227-5.745,0.41-8.789c0.17-3.046,0.367-6.191,0.604-9.385
			c0.221-3.195,0.494-6.435,0.762-9.677c0.295-3.239,0.58-6.479,0.912-9.664c0.313-3.186,0.668-6.318,1.021-9.349
			c0.344-3.031,0.743-5.955,1.11-8.729c0.349-2.775,0.74-5.394,1.109-7.81c0.715-4.835,1.43-8.854,1.954-11.665
			s0.882-4.412,0.882-4.412s0.077,1.639,0.109,4.498c0.033,2.859,0.044,6.941-0.085,11.827c-0.054,2.444-0.118,5.091-0.252,7.885
			c-0.117,2.796-0.228,5.745-0.411,8.789c-0.175,3.046-0.366,6.192-0.605,9.384c-0.222,3.195-0.498,6.435-0.767,9.677
			c-0.295,3.239-0.584,6.479-0.917,9.664c-0.318,3.186-0.666,6.319-1.023,9.348c-0.343,3.031-0.746,5.955-1.109,8.729
			c-0.348,2.775-0.744,5.394-1.11,7.81c-0.715,4.835-1.427,8.854-1.95,11.665C264.162,174.551,263.807,176.153,263.807,176.153z"/>
	</g>
	<g>
		<line fill="none" x1="280.807" y1="174.797" x2="293.473" y2="60.463"/>
		<path fill="#CC110F" d="M280.807,174.797c0,0-0.018-1.81,0.053-4.967c0.068-3.157,0.205-7.663,0.506-13.055
			c0.142-2.697,0.297-5.618,0.531-8.701c0.218-3.084,0.429-6.338,0.721-9.697c0.277-3.36,0.587-6.829,0.936-10.351
			c0.334-3.523,0.721-7.097,1.104-10.671c0.408-3.571,0.809-7.144,1.255-10.655c0.426-3.513,0.892-6.965,1.351-10.305
			c0.451-3.341,0.954-6.563,1.42-9.619c0.446-3.059,0.932-5.943,1.387-8.606c0.886-5.327,1.742-9.753,2.367-12.849
			c0.623-3.096,1.039-4.858,1.039-4.858s0.019,1.81-0.051,4.968c-0.068,3.157-0.201,7.663-0.503,13.055
			c-0.139,2.697-0.297,5.618-0.53,8.701c-0.215,3.084-0.43,6.338-0.721,9.697c-0.281,3.359-0.584,6.83-0.938,10.351
			c-0.334,3.523-0.726,7.097-1.108,10.671c-0.41,3.571-0.813,7.143-1.259,10.654c-0.432,3.512-0.889,6.965-1.354,10.305
			c-0.451,3.341-0.957,6.562-1.42,9.619c-0.445,3.059-0.935,5.943-1.386,8.606c-0.886,5.327-1.739,9.753-2.364,12.849
			C281.219,173.034,280.807,174.797,280.807,174.797z"/>
	</g>
	<g>
		<line fill="none" x1="296.473" y1="171.797" x2="321.807" y2="69.13"/>
		<path fill="#CC110F" d="M296.473,171.797c0,0,0.186-1.656,0.608-4.53c0.422-2.874,1.062-6.971,1.963-11.854
			c0.442-2.444,0.923-5.091,1.499-7.873c0.561-2.787,1.134-5.73,1.799-8.757c0.651-3.03,1.346-6.156,2.084-9.325
			c0.725-3.172,1.51-6.382,2.287-9.594c0.805-3.205,1.602-6.412,2.436-9.557c0.814-3.149,1.66-6.238,2.49-9.224
			c0.82-2.988,1.678-5.861,2.48-8.588c0.785-2.731,1.588-5.299,2.336-7.667c1.473-4.742,2.816-8.665,3.781-11.405
			c0.964-2.74,1.57-4.292,1.57-4.292s-0.184,1.656-0.605,4.531c-0.421,2.874-1.057,6.972-1.959,11.855
			c-0.44,2.444-0.924,5.09-1.499,7.873c-0.558,2.787-1.136,5.729-1.8,8.757c-0.654,3.029-1.342,6.157-2.086,9.324
			c-0.726,3.172-1.512,6.381-2.291,9.593c-0.805,3.205-1.605,6.411-2.438,9.556c-0.819,3.148-1.66,6.238-2.493,9.224
			c-0.82,2.989-1.682,5.861-2.48,8.588c-0.784,2.732-1.59,5.298-2.336,7.667c-1.473,4.742-2.813,8.666-3.776,11.406
			C297.079,170.244,296.473,171.797,296.473,171.797z"/>
	</g>
	<path fill="#F9B826" stroke="#C49027" stroke-width="5" stroke-miterlimit="10" d="M197.796,180.11c0,0,46.667,12,56,19.333
		c10-8.333,43.667-17.667,60.333-19.333c-2-12.333-2-12.333-2-12.333s-32.667,3.333-56.167,3.333s-58.167-3.333-58.167-3.333
		L197.796,180.11L197.796,180.11z"/>
	<g>
		<circle fill="#A5A4A4" cx="60.123" cy="425.764" r="3.5"/>
		<path fill="#D8D8D8" d="M60.368,422.776c-0.629,0.021-1.491,0.137-1.681,0.861c2.456-0.396,2.136,1.655,3.316,3.111
			c0.497,0.613,0.896,0.386,1.108-0.327c0.25-0.841,0.058-1.961-0.446-2.675c-0.514-0.729-1.265-0.887-2.11-0.846"/>
	</g>
	<g>
		<circle fill="#A5A4A4" cx="76.373" cy="438.264" r="3.5"/>
		<path fill="#D8D8D8" d="M76.618,435.276c-0.629,0.021-1.491,0.137-1.681,0.861c2.456-0.396,2.136,1.655,3.316,3.111
			c0.497,0.613,0.896,0.386,1.108-0.327c0.25-0.841,0.058-1.961-0.446-2.675c-0.514-0.729-1.265-0.887-2.11-0.846"/>
	</g>
	<g>
		<circle fill="#A5A4A4" cx="99.306" cy="446.713" r="3.5"/>
		<path fill="#D8D8D8" d="M99.551,443.725c-0.629,0.021-1.491,0.138-1.681,0.862c2.456-0.396,2.136,1.655,3.316,3.111
			c0.497,0.612,0.896,0.386,1.108-0.327c0.25-0.841,0.058-1.961-0.446-2.675c-0.514-0.729-1.265-0.888-2.11-0.847"/>
	</g>
	<g>
		<circle fill="#A5A4A4" cx="451.806" cy="433.79" r="3.5"/>
		<path fill="#D8D8D8" d="M452.051,430.802c-0.629,0.021-1.491,0.138-1.681,0.862c2.456-0.396,2.136,1.655,3.315,3.111
			c0.497,0.612,0.896,0.386,1.108-0.327c0.25-0.841,0.058-1.961-0.446-2.675c-0.514-0.729-1.265-0.888-2.109-0.847"/>
	</g>
	<g>
		<circle fill="#A5A4A4" cx="433.473" cy="443.725" r="3.5"/>
		<path fill="#D8D8D8" d="M433.718,440.737c-0.629,0.021-1.491,0.137-1.681,0.861c2.456-0.396,2.136,1.655,3.316,3.111
			c0.496,0.613,0.896,0.386,1.107-0.327c0.25-0.841,0.059-1.961-0.446-2.675c-0.514-0.728-1.265-0.887-2.109-0.846"/>
	</g>
	<g>
		<circle fill="#A5A4A4" cx="409.806" cy="448.053" r="3.5"/>
		<path fill="#D8D8D8" d="M410.051,445.065c-0.629,0.021-1.491,0.137-1.681,0.861c2.456-0.396,2.136,1.655,3.315,3.111
			c0.497,0.613,0.896,0.386,1.108-0.327c0.25-0.841,0.058-1.961-0.446-2.675c-0.514-0.729-1.265-0.887-2.109-0.846"/>
	</g>
	<g>
		<circle fill="#A5A4A4" cx="257.24" cy="281.098" r="3.5"/>
		<path fill="#D8D8D8" d="M257.484,278.109c-0.629,0.021-1.49,0.137-1.68,0.861c2.456-0.396,2.135,1.655,3.316,3.111
			c0.497,0.613,0.896,0.386,1.108-0.327c0.25-0.841,0.058-1.961-0.446-2.675c-0.515-0.729-1.265-0.887-2.11-0.846"/>
	</g>
	<g>
		<circle fill="#A5A4A4" cx="257.24" cy="304.797" r="3.5"/>
		<path fill="#D8D8D8" d="M257.484,301.809c-0.629,0.021-1.49,0.137-1.68,0.861c2.456-0.396,2.135,1.655,3.316,3.111
			c0.497,0.612,0.896,0.386,1.108-0.327c0.25-0.841,0.058-1.961-0.446-2.675c-0.515-0.729-1.265-0.887-2.11-0.846"/>
	</g>
	<g>
		<circle fill="#A5A4A4" cx="257.24" cy="324.797" r="3.5"/>
		<path fill="#D8D8D8" d="M257.484,321.808c-0.629,0.021-1.49,0.138-1.68,0.862c2.456-0.396,2.135,1.655,3.316,3.111
			c0.497,0.612,0.896,0.386,1.108-0.327c0.25-0.841,0.058-1.961-0.446-2.675c-0.515-0.729-1.265-0.888-2.11-0.847"/>
	</g>
	<g>
		<circle fill="#A5A4A4" cx="257.24" cy="344.797" r="3.5"/>
		<path fill="#D8D8D8" d="M257.484,341.808c-0.629,0.021-1.49,0.138-1.68,0.862c2.456-0.396,2.135,1.655,3.316,3.111
			c0.497,0.612,0.896,0.386,1.108-0.327c0.25-0.841,0.058-1.961-0.446-2.675c-0.515-0.729-1.265-0.888-2.11-0.847"/>
	</g>
	<g>
		<circle fill="#A5A4A4" cx="257.24" cy="364.797" r="3.5"/>
		<path fill="#D8D8D8" d="M257.484,361.808c-0.629,0.021-1.49,0.138-1.68,0.862c2.456-0.396,2.135,1.655,3.316,3.111
			c0.497,0.612,0.896,0.386,1.108-0.327c0.25-0.841,0.058-1.961-0.446-2.675c-0.515-0.729-1.265-0.888-2.11-0.847"/>
	</g>
	<g>
		<circle fill="#A5A4A4" cx="257.24" cy="384.797" r="3.5"/>
		<path fill="#D8D8D8" d="M257.484,381.808c-0.629,0.021-1.49,0.138-1.68,0.862c2.456-0.396,2.135,1.655,3.316,3.111
			c0.497,0.612,0.896,0.386,1.108-0.327c0.25-0.841,0.058-1.961-0.446-2.675c-0.515-0.729-1.265-0.888-2.11-0.847"/>
	</g>
	<g>
		<circle fill="#A5A4A4" cx="257.24" cy="404.797" r="3.5"/>
		<path fill="#D8D8D8" d="M257.484,401.808c-0.629,0.021-1.49,0.138-1.68,0.862c2.456-0.396,2.135,1.655,3.316,3.111
			c0.497,0.612,0.896,0.386,1.108-0.327c0.25-0.841,0.058-1.961-0.446-2.675c-0.515-0.729-1.265-0.888-2.11-0.847"/>
	</g>
	<g>
		<circle fill="#A5A4A4" cx="257.24" cy="424.797" r="3.5"/>
		<path fill="#D8D8D8" d="M257.484,421.808c-0.629,0.021-1.49,0.138-1.68,0.862c2.456-0.396,2.135,1.655,3.316,3.111
			c0.497,0.612,0.896,0.386,1.108-0.327c0.25-0.841,0.058-1.961-0.446-2.675c-0.515-0.729-1.265-0.888-2.11-0.847"/>
	</g>
	<g>
		<circle fill="#A5A4A4" cx="278.113" cy="267.273" r="3.5"/>
		<path fill="#D8D8D8" d="M278.357,264.285c-0.629,0.021-1.49,0.137-1.681,0.861c2.456-0.396,2.136,1.655,3.316,3.111
			c0.497,0.613,0.896,0.387,1.108-0.326c0.25-0.842,0.058-1.961-0.447-2.676c-0.514-0.729-1.264-0.887-2.109-0.846"/>
	</g>
	<g>
		<circle fill="#A5A4A4" cx="296.473" cy="250.13" r="3.5"/>
		<path fill="#D8D8D8" d="M296.718,247.142c-0.629,0.021-1.491,0.137-1.681,0.862c2.456-0.396,2.136,1.655,3.316,3.111
			c0.496,0.613,0.896,0.386,1.107-0.327c0.25-0.841,0.059-1.961-0.445-2.675c-0.515-0.728-1.266-0.887-2.111-0.846"/>
	</g>
	<g>
		<circle fill="#A5A4A4" cx="323.275" cy="238.097" r="3.5"/>
		<path fill="#D8D8D8" d="M323.52,235.109c-0.629,0.021-1.49,0.137-1.681,0.862c2.456-0.396,2.136,1.655,3.315,3.111
			c0.498,0.613,0.896,0.386,1.109-0.327c0.25-0.841,0.057-1.961-0.447-2.675c-0.514-0.728-1.265-0.887-2.109-0.846"/>
	</g>
	<g>
		<circle fill="#A5A4A4" cx="352.992" cy="234.597" r="3.5"/>
		<path fill="#D8D8D8" d="M353.236,231.609c-0.629,0.021-1.49,0.137-1.68,0.862c2.455-0.396,2.135,1.655,3.315,3.111
			c0.497,0.613,0.896,0.386,1.108-0.327c0.25-0.841,0.058-1.961-0.446-2.675c-0.515-0.728-1.265-0.887-2.11-0.846"/>
	</g>
	<g>
		<circle fill="#A5A4A4" cx="380.166" cy="242.937" r="3.5"/>
		<path fill="#D8D8D8" d="M380.412,239.949c-0.629,0.021-1.491,0.137-1.682,0.862c2.457-0.396,2.137,1.655,3.316,3.111
			c0.497,0.613,0.896,0.386,1.107-0.327c0.25-0.841,0.059-1.961-0.445-2.675c-0.514-0.728-1.266-0.887-2.109-0.846"/>
	</g>
	<g>
		<circle fill="#A5A4A4" cx="401.74" cy="254.97" r="3.5"/>
		<path fill="#D8D8D8" d="M401.985,251.981c-0.629,0.021-1.491,0.137-1.682,0.862c2.456-0.396,2.137,1.655,3.316,3.111
			c0.497,0.612,0.896,0.386,1.107-0.327c0.25-0.841,0.059-1.961-0.445-2.675c-0.515-0.728-1.266-0.887-2.11-0.846"/>
	</g>
	<g>
		<circle fill="#A5A4A4" cx="417.473" cy="274.273" r="3.5"/>
		<path fill="#D8D8D8" d="M417.718,271.285c-0.629,0.021-1.491,0.137-1.681,0.861c2.456-0.396,2.136,1.655,3.316,3.111
			c0.496,0.613,0.896,0.387,1.107-0.326c0.25-0.842,0.059-1.961-0.446-2.676c-0.514-0.729-1.265-0.887-2.109-0.846"/>
	</g>
	<g>
		<circle fill="#A5A4A4" cx="428.473" cy="297.914" r="3.5"/>
		<path fill="#D8D8D8" d="M428.718,294.925c-0.629,0.021-1.491,0.138-1.681,0.862c2.456-0.396,2.136,1.654,3.316,3.111
			c0.496,0.612,0.896,0.386,1.107-0.328c0.25-0.84,0.059-1.961-0.446-2.674c-0.514-0.729-1.265-0.888-2.109-0.847"/>
	</g>
	<g>
		<circle fill="#A5A4A4" cx="427.037" cy="324.797" r="3.5"/>
		<path fill="#D8D8D8" d="M427.282,321.808c-0.629,0.021-1.491,0.138-1.682,0.862c2.456-0.396,2.137,1.655,3.316,3.111
			c0.497,0.612,0.896,0.386,1.108-0.327c0.25-0.841,0.058-1.961-0.446-2.675c-0.514-0.729-1.265-0.888-2.11-0.847"/>
	</g>
	<g>
		<circle fill="#A5A4A4" cx="423.537" cy="348.297" r="3.5"/>
		<path fill="#D8D8D8" d="M423.782,345.308c-0.629,0.021-1.491,0.138-1.682,0.862c2.456-0.396,2.137,1.655,3.316,3.111
			c0.497,0.612,0.896,0.386,1.108-0.327c0.25-0.841,0.058-1.961-0.446-2.675c-0.514-0.729-1.265-0.888-2.11-0.847"/>
	</g>
	<g>
		<circle fill="#A5A4A4" cx="416.037" cy="371.442" r="3.5"/>
		<path fill="#D8D8D8" d="M416.282,368.453c-0.629,0.021-1.491,0.137-1.682,0.862c2.456-0.396,2.137,1.654,3.316,3.11
			c0.497,0.613,0.896,0.386,1.108-0.327c0.25-0.841,0.058-1.961-0.446-2.675c-0.514-0.728-1.265-0.887-2.11-0.846"/>
	</g>
	<g>
		<circle fill="#A5A4A4" cx="401.74" cy="391.466" r="3.5"/>
		<path fill="#D8D8D8" d="M401.985,388.477c-0.629,0.021-1.491,0.138-1.682,0.862c2.456-0.396,2.137,1.655,3.316,3.111
			c0.497,0.612,0.896,0.386,1.107-0.327c0.25-0.841,0.059-1.961-0.445-2.675c-0.515-0.729-1.266-0.888-2.11-0.847"/>
	</g>
	<g>
		<circle fill="#A5A4A4" cx="389.805" cy="410.045" r="3.5"/>
		<path fill="#D8D8D8" d="M390.05,407.056c-0.629,0.021-1.491,0.138-1.681,0.862c2.456-0.396,2.136,1.655,3.316,3.111
			c0.496,0.612,0.896,0.386,1.107-0.327c0.25-0.841,0.059-1.961-0.445-2.675c-0.515-0.729-1.266-0.888-2.111-0.847"/>
	</g>
	<g>
		<circle fill="#A5A4A4" cx="390.636" cy="435.13" r="3.5"/>
		<path fill="#D8D8D8" d="M390.881,432.142c-0.629,0.021-1.49,0.138-1.681,0.862c2.456-0.396,2.136,1.655,3.315,3.111
			c0.498,0.612,0.896,0.386,1.108-0.327c0.25-0.841,0.058-1.961-0.446-2.675c-0.514-0.729-1.265-0.888-2.109-0.847"/>
	</g>
	<g>
		<circle fill="#A5A4A4" cx="231.139" cy="267.598" r="3.5"/>
		<path fill="#D8D8D8" d="M231.384,264.609c-0.629,0.021-1.491,0.137-1.681,0.861c2.456-0.396,2.136,1.655,3.316,3.111
			c0.497,0.613,0.896,0.386,1.108-0.327c0.25-0.841,0.058-1.961-0.446-2.675c-0.514-0.729-1.265-0.887-2.11-0.846"/>
	</g>
	<g>
		<circle fill="#A5A4A4" cx="211.345" cy="250.13" r="3.5"/>
		<path fill="#D8D8D8" d="M211.591,247.142c-0.629,0.021-1.491,0.137-1.681,0.862c2.456-0.396,2.136,1.655,3.316,3.111
			c0.497,0.613,0.896,0.386,1.108-0.327c0.25-0.841,0.058-1.961-0.446-2.675c-0.514-0.728-1.265-0.887-2.11-0.846"/>
	</g>
	<g>
		<circle fill="#A5A4A4" cx="184.063" cy="238.097" r="3.5"/>
		<path fill="#D8D8D8" d="M184.309,235.109c-0.629,0.021-1.491,0.137-1.681,0.862c2.456-0.396,2.136,1.655,3.316,3.111
			c0.497,0.613,0.896,0.386,1.108-0.327c0.25-0.841,0.058-1.961-0.446-2.675c-0.514-0.728-1.265-0.887-2.11-0.846"/>
	</g>
	<g>
		<circle fill="#A5A4A4" cx="151.796" cy="233.773" r="3.5"/>
		<path fill="#D8D8D8" d="M152.041,230.785c-0.629,0.021-1.491,0.137-1.681,0.862c2.456-0.396,2.136,1.655,3.316,3.111
			c0.497,0.613,0.896,0.386,1.108-0.327c0.25-0.841,0.058-1.961-0.446-2.675c-0.514-0.728-1.265-0.887-2.11-0.846"/>
	</g>
	<g>
		<circle fill="#A5A4A4" cx="130.908" cy="241.597" r="3.5"/>
		<path fill="#D8D8D8" d="M131.153,238.609c-0.629,0.021-1.491,0.137-1.681,0.862c2.456-0.396,2.136,1.655,3.316,3.111
			c0.497,0.613,0.896,0.386,1.108-0.327c0.25-0.841,0.058-1.961-0.446-2.675c-0.514-0.728-1.265-0.887-2.11-0.846"/>
	</g>
	<g>
		<circle fill="#A5A4A4" cx="109.925" cy="254.97" r="3.5"/>
		<path fill="#D8D8D8" d="M110.17,251.981c-0.629,0.021-1.491,0.137-1.681,0.862c2.456-0.396,2.136,1.655,3.316,3.111
			c0.497,0.612,0.896,0.386,1.108-0.327c0.25-0.841,0.058-1.961-0.446-2.675c-0.514-0.728-1.265-0.887-2.11-0.846"/>
	</g>
	<g>
		<circle fill="#A5A4A4" cx="92.306" cy="273.449" r="3.5"/>
		<path fill="#D8D8D8" d="M92.551,270.46c-0.629,0.021-1.491,0.138-1.681,0.862c2.456-0.396,2.136,1.654,3.316,3.111
			c0.497,0.612,0.896,0.385,1.108-0.328c0.25-0.84,0.058-1.961-0.446-2.674c-0.514-0.729-1.265-0.888-2.11-0.847"/>
	</g>
	<g>
		<circle fill="#A5A4A4" cx="85.306" cy="299.253" r="3.5"/>
		<path fill="#D8D8D8" d="M85.551,296.266c-0.629,0.021-1.491,0.137-1.681,0.861c2.456-0.396,2.136,1.655,3.316,3.111
			c0.497,0.613,0.896,0.386,1.108-0.327c0.25-0.841,0.058-1.961-0.446-2.675c-0.514-0.729-1.265-0.887-2.11-0.846"/>
	</g>
	<g>
		<circle fill="#A5A4A4" cx="86.137" cy="325.138" r="3.5"/>
		<path fill="#D8D8D8" d="M86.382,322.15c-0.629,0.021-1.491,0.137-1.681,0.861c2.456-0.396,2.136,1.655,3.316,3.111
			c0.497,0.613,0.896,0.386,1.108-0.327c0.25-0.841,0.058-1.961-0.446-2.675c-0.514-0.729-1.265-0.887-2.11-0.846"/>
	</g>
	<g>
		<circle fill="#A5A4A4" cx="88.806" cy="347.472" r="3.5"/>
		<path fill="#D8D8D8" d="M89.051,344.484c-0.629,0.021-1.491,0.137-1.681,0.861c2.456-0.396,2.136,1.655,3.316,3.111
			c0.497,0.613,0.896,0.386,1.108-0.327c0.25-0.841,0.058-1.961-0.446-2.675c-0.514-0.729-1.265-0.887-2.11-0.846"/>
	</g>
	<g>
		<circle fill="#A5A4A4" cx="97.87" cy="370.617" r="3.5"/>
		<path fill="#D8D8D8" d="M98.116,367.629c-0.629,0.021-1.491,0.137-1.681,0.862c2.456-0.396,2.136,1.655,3.316,3.11
			c0.497,0.613,0.896,0.387,1.108-0.326c0.25-0.842,0.058-1.961-0.446-2.676c-0.514-0.728-1.265-0.887-2.11-0.846"/>
	</g>
	<g>
		<circle fill="#A5A4A4" cx="109.925" cy="392.805" r="3.5"/>
		<path fill="#D8D8D8" d="M110.17,389.817c-0.629,0.021-1.491,0.137-1.681,0.861c2.456-0.396,2.136,1.655,3.316,3.111
			c0.497,0.613,0.896,0.386,1.108-0.327c0.25-0.841,0.058-1.961-0.446-2.675c-0.514-0.729-1.265-0.887-2.11-0.846"/>
	</g>
	<g>
		<circle fill="#A5A4A4" cx="123.908" cy="410.045" r="3.5"/>
		<path fill="#D8D8D8" d="M124.153,407.056c-0.629,0.021-1.491,0.138-1.681,0.862c2.456-0.396,2.136,1.655,3.316,3.111
			c0.497,0.612,0.896,0.386,1.108-0.327c0.25-0.841,0.058-1.961-0.446-2.675c-0.514-0.729-1.265-0.888-2.11-0.847"/>
	</g>
	<g>
		<circle fill="#A5A4A4" cx="124.739" cy="434.306" r="3.5"/>
		<path fill="#D8D8D8" d="M124.985,431.317c-0.629,0.021-1.491,0.137-1.681,0.861c2.456-0.396,2.136,1.655,3.316,3.111
			c0.497,0.613,0.896,0.386,1.108-0.327c0.25-0.841,0.058-1.961-0.446-2.675c-0.514-0.729-1.265-0.887-2.11-0.846"/>
	</g>
</g>
</svg>
