<?xml version="1.0" encoding="utf-8"?>
<!-- Generator: Adobe Illustrator 16.0.0, SVG Export Plug-In . SVG Version: 6.00 Build 0)  -->
<!DOCTYPE svg PUBLIC "-//W3C//DTD SVG 1.1//EN" "http://www.w3.org/Graphics/SVG/1.1/DTD/svg11.dtd">
<svg version="1.1"
	 id="svg12211" xmlns:dc="http://purl.org/dc/elements/1.1/" xmlns:cc="http://creativecommons.org/ns#" xmlns:rdf="http://www.w3.org/1999/02/22-rdf-syntax-ns#" xmlns:svg="http://www.w3.org/2000/svg" xmlns:sodipodi="http://sodipodi.sourceforge.net/DTD/sodipodi-0.dtd" xmlns:inkscape="http://www.inkscape.org/namespaces/inkscape" inkscape:export-ydpi="72.021774" inkscape:export-xdpi="72.021774" inkscape:export-filename="C:\Users\Zealotlee\Dropbox\Small Projects\Steves Fuzzballs\fuschia-fuzzle.png" sodipodi:docname="acc-face-mustache.svg" inkscape:version="0.91 r13725"
	 xmlns="http://www.w3.org/2000/svg" xmlns:xlink="http://www.w3.org/1999/xlink" x="0px" y="0px" width="119.064px"
	 height="98.563px" viewBox="195.646 207.561 119.064 98.563" enable-background="new 195.646 207.561 119.064 98.563"
	 xml:space="preserve">
<sodipodi:namedview  showguides="true" showgrid="false" inkscape:cy="193.02625" inkscape:cx="369.48506" inkscape:zoom="0.71220416" borderopacity="1.0" bordercolor="#666666" pagecolor="#ffffff" id="base" inkscape:window-maximized="1" inkscape:window-y="-8" inkscape:window-x="-8" inkscape:window-height="988" inkscape:window-width="1680" inkscape:pageshadow="2" inkscape:current-layer="layer1" inkscape:pageopacity="0.0" inkscape:document-units="px">
	</sodipodi:namedview>
<path fill="#F4A6C5" d="M272.73,288.92c0,0-9.25,3.75-13,3.75c-3.75,0-5.585,1.25-10.542,0.75s-10.457-5.25-13.457-9.5
	s-3.311-5.75-8.28-12c-4.97-6.25-4.97-7.725-2.97-11.988c2-4.262,2.75-2.512,5.25-7.512s16.684-16.223,18.006-23
	c1.323-6.777,7.244-11.5,10.494-15.25c3.25-3.75,8.5-6.919,13.5-6.585c5,0.335,14.25,1.585,14.75,5.085s3,4.25,3,9.25
	s1.5,7.25,2.75,9.25s2.5,4.75,2.5,4.75s8-0.878,10,3.686s3.5,7.573,2.25,10.943c-1.25,3.37,5.5,6.381,5.5,6.381s0.5-1.223,1,5.758
	c0.5,6.981,2.5,8.981,0,11.481s-0.75,7.75-6.5,7.25s-11.75-4-11.75-4s0.5,6.5-2.75,10.25s-5,6.485-9.5,5.868
	S272.73,288.92,272.73,288.92z"/>
<path fill="#F390B8" d="M273.23,277.17c2.5-1.5,6.75-8.75,6.5-11.5s8,0.275,12-5.738c4-6.012,1.5-10.335-2-14.299
	c-3.5-3.963-0.75-1.591-0.5-6.027s0.75-9.02-3.5-12.353s-9.238-4.333-10.494-8.333s-6.256-6.5-10.006-5.5s-6.598,2.617-9.551,5.5
	c-2.954,2.883-25.698,29.75-25.948,33.5s-4.75,4.025-1.5,7.512c3.25,3.488,19.584,13.344,22.167,11.488s8.959-3.5,10.021,1
	s5.479,5.5,6.896,4.75S273.23,277.17,273.23,277.17z"/>
<line fill="none" stroke="#FFFFFF" stroke-width="3" stroke-miterlimit="10" x1="239.898" y1="259.932" x2="196.731" y2="305.087"/>
<path fill="#FA0166" stroke="#CE0F41" stroke-width="3" stroke-miterlimit="10" d="M237.898,258.92c0,0,9.683,5.814,20.167,3
	s13.834-5.833,15.668-12.667c1.832-6.833,3.5-19.333-4.668-25.167c-8.166-5.833-19.333-8.667-23.5-7.167s-11.833,7-13.667,10
	C230.064,229.92,220.064,244.253,237.898,258.92z"/>
<path fill="#E7C4D2" d="M244.064,231.92c3.667-0.163,7.5-4,11.833,0c4.333,4,7.167,7.167,5.833,12.167s9.166-3.167,7.332-9.667
	c-1.832-6.5-9.666-13.667-18.667-12.5C241.396,223.087,236.564,232.253,244.064,231.92z"/>
<path fill="#E7C4D2" d="M236.564,245.633c1.674,3.127,6.333,9.12,10.167,9.287c3.833,0.167,2.667,2.167,0,2s-10-4.167-11.5-9.5
	S235.46,243.57,236.564,245.633z"/>
<g>
	<path fill="#13070A" d="M239.898,237.587c0,0-0.318-0.375-0.873-1.031c-0.268-0.337-0.594-0.746-0.968-1.216
		c-0.342-0.494-0.77-1.034-1.109-1.709c-0.163-0.344-0.333-0.703-0.509-1.074c-0.104-0.475-0.242-0.762-0.192-1.324
		c0.051-1.011,0.61-1.833,1.027-2.6c0.429-0.779,0.673-1.562,0.55-2.447c-0.099-0.859-0.385-1.799-0.718-2.681
		c-0.162-0.448-0.347-0.889-0.543-1.319c-0.075-0.165-0.22-0.415-0.326-0.618c-0.128-0.161-0.219-0.339-0.366-0.475
		c-0.53-0.627-1.3-0.684-2.151-0.474c-0.838,0.214-1.694,0.537-2.569,0.691c-0.231,0.043-0.41,0.059-0.689,0.083
		c-0.204-0.008-0.392,0.003-0.656-0.068c-0.476-0.117-0.842-0.36-1.126-0.64c-0.584-0.548-0.901-1.157-1.227-1.656
		c-0.316-0.505-0.601-0.932-0.878-1.249c-0.28-0.313-0.527-0.539-0.715-0.668c-0.193-0.124-0.296-0.19-0.296-0.19
		s0.113,0.05,0.324,0.143c0.206,0.104,0.504,0.282,0.827,0.579c0.324,0.295,0.668,0.701,1.042,1.169
		c0.381,0.457,0.775,1.018,1.295,1.449c0.25,0.222,0.571,0.378,0.867,0.429c0.121,0.04,0.338,0.025,0.543,0.016
		c0.125-0.03,0.361-0.059,0.54-0.111c0.776-0.19,1.565-0.565,2.5-0.83c0.47-0.124,0.997-0.226,1.567-0.145
		c0.568,0.073,1.141,0.386,1.502,0.807c0.206,0.193,0.355,0.447,0.52,0.67c0.121,0.226,0.228,0.395,0.362,0.67
		c0.214,0.456,0.414,0.916,0.59,1.388c0.341,0.953,0.635,1.902,0.744,2.962c0.149,1.049-0.257,2.152-0.747,2.947
		c-0.483,0.812-0.99,1.508-1.067,2.201c-0.098,0.283,0.036,0.795,0.075,1.094c0.14,0.355,0.275,0.698,0.404,1.028
		c0.107,0.341,0.32,0.625,0.463,0.921c0.158,0.29,0.293,0.574,0.449,0.827c0.316,0.505,0.591,0.946,0.817,1.309
		C239.637,237.171,239.898,237.587,239.898,237.587z"/>
</g>
<g>
	<path fill="#13070A" d="M253.898,244.42c1.645-0.407,3.331-0.723,4.863-1.398c0.382-0.169,0.749-0.363,1.099-0.582
		c0.349-0.22,0.668-0.475,0.972-0.747c0.297-0.278,0.563-0.584,0.798-0.913c0.225-0.336,0.426-0.688,0.585-1.062
		c0.154-0.345,0.282-0.786,0.425-1.175c0.115-0.4,0.196-0.796,0.299-1.191l0.19-1.224c0.038-0.411,0.052-0.824,0.08-1.235
		c0.003-0.411-0.028-0.822-0.035-1.232c-0.032-0.408-0.099-0.811-0.146-1.216c-0.078-0.399-0.193-0.788-0.285-1.182
		c-0.135-0.379-0.297-0.746-0.441-1.121l0.34,0.248l-0.836-0.036l-0.826,0.112l-0.781,0.262l-0.686,0.416l-0.408,0.248l-0.265-0.343
		c-0.418-0.543-0.812-1.115-1.264-1.615c-0.421-0.538-0.919-0.981-1.397-1.445c-0.254-0.213-0.531-0.393-0.791-0.597l-0.391-0.292
		l-0.446-0.271c-0.595-0.363-1.181-0.68-1.797-1.025c-1.218-0.675-2.468-1.405-3.537-2.399l-0.395-0.377
		c-0.187-0.181-0.24-0.283-0.367-0.429l-0.328-0.406c-0.107-0.145-0.198-0.339-0.294-0.508c-0.414-0.688-0.534-1.485-0.495-2.256
		c0.064-0.778,0.359-1.481,0.696-2.126c0.352-0.638,0.763-1.225,1.197-1.781c0.866-1.115,1.806-2.14,2.622-3.243
		c0.206-0.274,0.385-0.562,0.578-0.844l0.507-0.896c0.328-0.599,0.685-1.251,1.199-1.757c0.503-0.506,1.137-0.921,1.839-1.053
		c0.689-0.179,1.397-0.162,2.091-0.144c-0.694,0.038-1.396,0.088-2.044,0.308c-0.668,0.17-1.225,0.595-1.664,1.093l-0.313,0.395
		l-0.258,0.434c-0.181,0.277-0.314,0.609-0.465,0.921l-0.464,0.952c-0.187,0.301-0.365,0.611-0.566,0.901
		c-0.797,1.168-1.702,2.235-2.502,3.351c-0.401,0.557-0.768,1.129-1.065,1.722c-0.288,0.595-0.497,1.215-0.541,1.832
		c-0.021,0.604,0.084,1.244,0.404,1.75c0.078,0.131,0.125,0.261,0.224,0.395l0.333,0.402c0.103,0.115,0.24,0.31,0.315,0.36
		l0.365,0.339c0.986,0.895,2.168,1.573,3.389,2.228c0.603,0.327,1.245,0.666,1.843,1.021l0.449,0.265l0.452,0.324
		c0.293,0.218,0.599,0.425,0.872,0.663c0.518,0.508,1.052,1.004,1.484,1.571c0.475,0.542,0.863,1.123,1.287,1.689l-0.673-0.095
		c0.294-0.179,0.589-0.36,0.888-0.525c0.32-0.106,0.641-0.214,0.963-0.31l0.99-0.122l0.996,0.056l0.25,0.014l0.09,0.234
		c0.158,0.417,0.332,0.831,0.475,1.252c0.099,0.432,0.217,0.861,0.296,1.294c0.047,0.437,0.112,0.874,0.142,1.311
		c-0.002,0.438,0.008,0.877-0.01,1.313c-0.045,0.434-0.076,0.87-0.134,1.301c-0.084,0.428-0.155,0.856-0.25,1.282
		c-0.124,0.422-0.233,0.854-0.371,1.263c-0.165,0.402-0.283,0.776-0.487,1.2c-0.188,0.401-0.424,0.78-0.686,1.138
		c-0.271,0.352-0.577,0.676-0.911,0.966c-0.676,0.573-1.466,0.978-2.272,1.278C257.27,243.948,255.574,244.166,253.898,244.42z"/>
</g>
<g>
	<path fill="#13070A" d="M250.398,275.253c0.726-1.504,1.375-3.042,2.006-4.585c0.622-1.547,1.206-3.109,1.707-4.695
		c0.134-0.395,0.249-0.793,0.366-1.193c0.113-0.4,0.243-0.795,0.339-1.199c0.213-0.803,0.416-1.607,0.578-2.419
		c0.097-0.403,0.154-0.813,0.222-1.22c0.067-0.408,0.141-0.815,0.169-1.226c0.033-0.409,0.096-0.819,0.104-1.228l0.019-1.228
		l0.012-0.771l0.544,0.541l5.343,5.314l1.334,1.328c0.445,0.443,0.877,0.899,1.332,1.33l2.726,2.591l-0.737,0.262
		c0.275-1.834,0.605-3.646,1.02-5.453c0.096-0.452,0.223-0.9,0.332-1.351c0.108-0.45,0.23-0.899,0.375-1.344
		c0.144-0.445,0.254-0.896,0.427-1.335l0.513-1.32l0.114-0.294l0.348,0.012c1.238,0.044,2.503-0.024,3.757-0.144
		c1.254-0.127,2.504-0.302,3.738-0.542c1.234-0.242,2.456-0.548,3.626-0.974c0.583-0.215,1.155-0.454,1.701-0.733
		c0.547-0.279,1.051-0.612,1.519-0.981l-0.01,0.7c-0.701-0.697-1.447-1.347-2.107-2.083l-1.002-1.096l-0.937-1.152
		c-0.321-0.377-0.594-0.792-0.888-1.191c-0.297-0.397-0.561-0.816-0.829-1.232c-0.276-0.412-0.515-0.842-0.772-1.263l-0.367-0.627
		l-0.181-0.279l-0.09-0.138c-0.124-0.211-0.069-0.087-0.138-0.292c-0.019-0.069-0.031-0.145-0.035-0.21l0.004-0.125
		c0.001-0.088,0.013-0.159,0.025-0.23c0.02-0.149,0.059-0.272,0.092-0.404c0.076-0.253,0.162-0.495,0.258-0.728
		c0.188-0.469,0.398-0.919,0.617-1.363c0.438-0.887,0.918-1.746,1.414-2.594c0.5-0.847,1.02-1.68,1.566-2.498
		c0.555-0.815,1.11-1.623,1.792-2.377l0.118,0.487l-4.271-1.822c-0.707-0.316-1.43-0.593-2.119-0.947l-2.081-1.026l-0.132-0.065
		l0.043-0.136c0.447-1.392,0.945-2.759,1.548-4.087c0.138-0.337,0.307-0.661,0.472-0.985c0.171-0.322,0.316-0.656,0.523-0.959
		c0.197-0.307,0.375-0.624,0.588-0.92l0.703-0.834l-0.661,0.863c-0.196,0.303-0.36,0.629-0.54,0.941
		c-0.189,0.308-0.319,0.649-0.475,0.975c-0.15,0.329-0.308,0.654-0.433,0.994c-0.551,1.337-1.001,2.719-1.394,4.106l-0.088-0.201
		l2.105,0.948c0.695,0.328,1.428,0.575,2.139,0.87l4.283,1.72l0.401,0.161l-0.283,0.326c-0.614,0.708-1.155,1.524-1.679,2.334
		c-0.521,0.817-1.018,1.651-1.491,2.496c-0.472,0.846-0.927,1.704-1.334,2.575c-0.204,0.435-0.397,0.875-0.563,1.316
		c-0.084,0.22-0.156,0.441-0.216,0.657c-0.024,0.105-0.056,0.216-0.065,0.309c-0.008,0.049-0.017,0.098-0.015,0.133l-0.003,0.058
		c0.003-0.004,0-0.021-0.009-0.029c-0.065-0.081,0.071,0.146,0.003,0.041l0.113,0.167l0.22,0.333l0.377,0.634
		c0.255,0.41,0.493,0.833,0.765,1.23c0.264,0.402,0.522,0.808,0.813,1.191c0.288,0.385,0.556,0.786,0.87,1.15l0.918,1.113
		l0.982,1.06c0.647,0.712,1.383,1.342,2.069,2.017l0.388,0.381l-0.397,0.32c-0.532,0.428-1.095,0.802-1.685,1.109
		c-0.588,0.307-1.195,0.565-1.809,0.796c-1.229,0.456-2.49,0.781-3.761,1.04c-1.271,0.259-2.552,0.447-3.841,0.561
		c-1.291,0.115-2.582,0.178-3.897,0.121l0.462-0.28l-0.492,1.245c-0.168,0.414-0.279,0.857-0.422,1.285
		c-0.142,0.428-0.264,0.865-0.373,1.308c-0.111,0.44-0.238,0.877-0.336,1.321c-0.419,1.771-0.761,3.574-1.043,5.371l-0.133,0.846
		l-0.605-0.583l-2.723-2.626c-0.896-0.887-1.763-1.799-2.638-2.704l-5.24-5.439l0.556-0.229l-0.047,1.276
		c-0.018,0.426-0.091,0.843-0.134,1.265c-0.039,0.422-0.123,0.836-0.2,1.25c-0.078,0.414-0.146,0.831-0.253,1.237
		c-0.186,0.822-0.399,1.635-0.647,2.437c-0.111,0.405-0.256,0.8-0.384,1.198c-0.131,0.398-0.262,0.796-0.41,1.188
		C253.34,269.247,251.975,272.309,250.398,275.253z"/>
</g>
</svg>
