<?xml version="1.0" encoding="utf-8"?>
<!-- Generator: Adobe Illustrator 16.0.0, SVG Export Plug-In . SVG Version: 6.00 Build 0)  -->
<!DOCTYPE svg PUBLIC "-//W3C//DTD SVG 1.1//EN" "http://www.w3.org/Graphics/SVG/1.1/DTD/svg11.dtd">
<svg version="1.1"
	 id="svg12211" xmlns:dc="http://purl.org/dc/elements/1.1/" xmlns:cc="http://creativecommons.org/ns#" xmlns:rdf="http://www.w3.org/1999/02/22-rdf-syntax-ns#" xmlns:svg="http://www.w3.org/2000/svg" xmlns:sodipodi="http://sodipodi.sourceforge.net/DTD/sodipodi-0.dtd" xmlns:inkscape="http://www.inkscape.org/namespaces/inkscape" inkscape:export-ydpi="72.021774" inkscape:export-xdpi="72.021774" inkscape:export-filename="C:\Users\Zealotlee\Dropbox\Small Projects\Steves Fuzzballs\fuschia-fuzzle.png" sodipodi:docname="acc-face-beard.svg" inkscape:version="0.91 r13725"
	 xmlns="http://www.w3.org/2000/svg" xmlns:xlink="http://www.w3.org/1999/xlink" x="0px" y="0px" width="146.653px"
	 height="71.017px" viewBox="188.769 254.93 146.653 71.017" enable-background="new 188.769 254.93 146.653 71.017"
	 xml:space="preserve">
<sodipodi:namedview  showguides="true" showgrid="false" inkscape:cy="193.02625" inkscape:cx="369.48506" inkscape:zoom="0.71220416" borderopacity="1.0" bordercolor="#666666" pagecolor="#ffffff" id="base" inkscape:window-maximized="1" inkscape:window-y="-8" inkscape:window-x="-8" inkscape:window-height="988" inkscape:window-width="1680" inkscape:pageshadow="2" inkscape:current-layer="layer1" inkscape:pageopacity="0.0" inkscape:document-units="px">
	</sodipodi:namedview>
<g>
	<path fill="#8E4C9E" d="M236.915,284.95c0,0,10.483,4.837,16.483-6.996c4.833,6.5,6,7.45,7.833,7.976
		c2-4.309,4.748-8.486,5.668-10.809c3.5,2.5,12.166,7.833,15.666,8c0.834-4,2.424-9.432,4.168-11.479c0,0,5,7.479,12.332,6.146
		c7.334-1.333,3.334,4.722,3.334,6.11c0,1.39-1,3.89-3.668,2.723c-2.666-1.167-10-1.73-11.666,0.301
		c-1.668,2.032-4.5,4.199-9.334,3.365c-4.832-0.833-13,1.833-14.666,3.167c-1.668,1.333-14.667,1.333-17.167,0
		s-9.193-2.763-9.852-0.884C236.731,288.12,236.915,284.95,236.915,284.95z"/>
	<path fill="#BF8F42" d="M238.016,269.021c-2.004-0.627-5.67,1.34-2.978,2.965c1.541,0.932,5.097,0.4,6.449-0.656
		c0.115-0.84-0.018-2.305-0.759-2.854c-0.608-0.451-2.454-0.604-2.712,0.211"/>
	<path fill="#BF8F42" d="M250.877,260.829c-0.96-0.235-2.892,0.514-3.606,1.146c-0.424,0.375-1.275,1.688-0.826,2.278
		c0.803,1.056,4.134-0.181,5.09-0.429c0.758-0.196,2.156-0.752,2.92-0.357c0.486-0.966,1.979-3.035,0.638-3.734
		c-0.504-0.262-1.173-0.062-1.678,0.115c-0.638,0.223-1.866,0.271-2.226,0.856"/>
	<path fill="#BF8F42" d="M263.127,263.829c-1.057,0.676-2.488,2.479-2.373,3.881c1.402,0.563,2.497-0.308,3.732-0.717
		c0.313-0.103,0.367-0.046,0.722-0.091c0.649-0.082,1.181-0.438,1.8-0.601c0.108,0.3,0.129,0.651,0.256,0.962
		c1.131,0.082,1.887-3.496,1.791-4.307c-0.848-0.068-1.439,0.477-2.123-0.145c-0.68-0.615-1.387-2.111-2.472-1.242
		c-0.401,0.322-0.823,1.244-1.103,1.703c-0.155,0.254-0.352,0.547-0.354,0.869"/>
	<path fill="#BF8F42" d="M279.064,257.287c-2.834,0.311-3.869,5.697-3.611,7.951c1.086-0.43,1.706-1.518,2.705-2.043
		c0.453-0.239,0.734,0.043,1.242-0.506c0.033,0.303,0.209,0.567,0.197,0.914c0.436-0.738,2.809-3.94,1.993-5.021
		c-0.719-0.954-2.448,1.021-3.039,1.541c-0.44-1.711-1.155-1.625-2.655-1.003"/>
	<path fill="#BF8F42" d="M293.23,262.62c-0.131,1.057-0.613,2.802-1.345,3.616c0.456-1.887-2.098-2.303-3.288-1.668
		c-0.152-0.664,0.483-3.813,1.223-3.979c0.834-0.189,0.656,1.494,0.763,2.008c1.2-0.023,2.864-1.024,3.946-1.634
		c0.056,0.949,0.431,2.388-0.799,2.657"/>
	<path fill="#BF8F42" d="M302.898,259.454c0.047,0.806,1.181,2.971,2.1,3.249c1.602,0.486,2.475-1.639,3.277-2.738
		c0.043,0.09,0.076,0.285,0.125,0.374c-0.053-2.185-0.627-2.642-3.191-1.833c-0.91,0.287-2.801,0.934-3.465,1.419
		c0.322,0.037,0.656,0.039,0.986,0.028"/>
	<path fill="#BF8F42" d="M226.564,272.62c-1.434,0.626-1.3,4.987-3.335,3.19c-0.886-0.783-0.268-2.146-0.899-3.134
		c-0.693-1.084-1.645-0.928-2.74-1.212c2.773-1.498,4.68-1.395,7.782-1.322c0.084,1.029-0.155,2.5-1.141,2.811"/>
	<path fill="#BF8F42" d="M249.564,289.954c-0.027-0.17,0.018-0.304-0.026-0.474c-1.736,0.039-2.458,6.365-2.46,7.771
		c0.59-0.661,1.261-1.262,1.839-1.923c-0.001,0.231,0.03,0.548,0.005,0.769c1.007-0.422,0.887-2.662,1.292-3.781
		c-0.675-0.146-1.329-0.09-1.816,0.304"/>
	<path fill="#BF8F42" d="M271.23,291.287c0,0.888-0.002,1.779-0.002,2.665c2.152-0.722,3.944-2.515,4.973-4.41
		c0.041-0.063,0.013,0.397,0.003,0.358c-0.854-0.754-4.035-2.683-4.806-1.113"/>
	<path fill="#BF8F42" d="M262.564,293.287c-0.522,0.849-0.586,1.893-0.621,2.836c1.281-0.27,2.117-1.311,3.099-1.876
		c0.031,0.282,0.056,0.589,0.022,0.873"/>
	<path fill="#BF8F42" d="M313.064,280.787c-1.254,2.343-1.861,6.525-1.653,9.148c1.812,0.369,3.288-1.512,4.632-2.308
		c1.007-0.597,1.861-0.974,2.916-2.108c1.115-1.199,2.175-2.509,3.119-3.811c-0.008,0.104-0.01,0.206-0.008,0.309
		c-0.42-4.092-4.631-3.943-7.971-2.744c-1.057,0.381-2.418,1.015-2.037,2.348"/>
	<path fill="#BF8F42" d="M295.23,292.287c-3.211,0.473-6.713,4.486-7.734,7.346c1.136-0.064,2.296-0.408,3.377-0.504
		c0.275,1.295-0.348,6.232,1.002,6.76c1.314,0.515,4.227-3.137,4.779-3.75c1.671-1.859,4.414-3.424,3.964-6.107
		c-0.421-2.51-2.331-1.473-4.113-2.295c-0.963-0.443-1.622-1.168-2.774-1.115"/>
	<path fill="#BF8F42" d="M239.731,307.12c-1.505,0.085-2.807,1.165-4.17,1.696c-0.196-0.564-0.34-1.193-0.404-1.749
		c-2.818,0.594-7.387,1.932-8.211,5.229c-0.488,1.952,0.704,4.556,2.266,5.647c3.643,2.545,7.911,1.166,11.551-0.534
		c0.438,4.808,11.617-0.916,11.915-4.787c0.357-4.643-8.266-2.347-11.104-4.012c-1.061-0.257-2.237-0.199-3.343-0.324"/>
	<path fill="#BF8F42" d="M278.23,302.12c-2.703,0.524-5.961,3.551-7.807,5.474c-0.843,0.878-1.377,1.146-1.188,2.503
		c4.951,0.63,10.142-2.406,9.978-7.446c-1.022-0.291-2.093-0.192-3.149-0.196"/>
	<path fill="#BF8F42" d="M258.398,301.954c-1.836-0.237-4.323,1.683-4.988,3.312c1.869,0.154,4.697,0.324,6.492-0.179
		c1.226-0.344,1.986-1.448,3.006-2.136c-1.096-0.893-3.825-0.33-5.344-0.33"/>
	<path fill="#BF8F42" d="M242.731,300.454c-1.619,0.446-4.341,2.5-1.539,3.452c2.81,0.955,5.611-0.506,5.347-3.598
		c-0.165-0.061-0.438-0.045-0.609-0.045c-0.669-1.211-1.544,0.322-2.199,0.524"/>
	<path fill="#BF8F42" d="M288.23,290.954c-1.002-1.228-5.351,1.267-6.722,1.817c-1.248,0.502-3.056,0.998-2.587,2.658
		c1.723,0.118,3.84,0.104,5.001-1.41c0.444-0.578,0.94-1.59,0.308-1.898"/>
	<path fill="#BF8F42" d="M297.064,289.287c0.487,0.318,0.42,1.348,0.85,1.971c1.518,0.486,2.449-1.097,2.298-2.445
		c-1.208-0.08-3.122-0.402-3.981,0.642"/>
	<path fill="#8E4C9E" d="M236.398,296.12c-0.541,1.914-2.052,3.489-2.665,5.455c1.704-0.314,2.576-2.882,2.473-4.431
		c-0.246-0.028-0.555-0.064-0.808-0.024"/>
	<path fill="#8E4C9E" d="M240.064,297.12c0.078,1.479-0.915,3.042-1.152,4.524c-0.114,0.711,0.065,1.237-0.223,1.859
		c1.133-1.018,1.829-3.092,2.374-4.55"/>
	<path fill="#8E4C9E" d="M252.231,299.287c0.037,1.605-0.764,3.186-0.84,4.842c-0.05,1.104-0.129,2.205-0.162,3.307
		c0.005-2.522,3.486-7.121,0.502-9.148"/>
	<path fill="#8E4C9E" d="M262.23,298.454c0.406,1.51-0.316,7.433,1.82,8.094c2.758,0.854,2.275-8.052,1.844-9.389
		c-1.131-3.503-6.131-2.802-4.83,0.295"/>
	<path fill="#8E4C9E" d="M255.731,297.287c0.585,1.975,1.737,3.962,1.686,6.072c0.631-1.135,2.446-5.164,0.981-6.072"/>
	<path fill="#8E4C9E" d="M248.731,300.287c-0.247,2.664-1.303,4.434-2.277,6.884c1.151-1.905,2.354-4.129,2.444-6.384"/>
	<path fill="#8E4C9E" d="M271.398,297.287c0.398,1.372,1.295,4.765,3.258,4.775c1.445,0.008,1.633-1.824,1.568-3.052
		c-0.115-2.194-1.123-2.028-3.125-2.114c-1.281-0.057-3.539-0.414-3.367,1.557"/>
	<path fill="#8E4C9E" d="M260.564,311.454c-0.483,3.774,4.541,4.116,3.071-0.181c-0.338-0.99-2.846-4.156-3.905-3.486"/>
	<path fill="#8E4C9E" d="M280.73,301.454c1.424-0.216,2.184,1.761,2.879,2.676c1.214,1.597,2.582,3.553,4.318,4.625
		c-0.732-2.551-2.801-5.144-5.195-6.301"/>
	<path fill="#8E4C9E" d="M284.898,298.454c1.506,2.344,3.813,3.489,5.879,5.289c0.896,0.778,1.601,1.675,2.603,2.338
		c0.234-3.36-5.097-4.371-6.981-6.294"/>
	<path fill="#8E4C9E" d="M286.064,292.12c1.506,0.141,6.403,4.014,7.682,2.403c1.643-2.071-4.292-4.412-5.516-4.403"/>
	<path fill="#8E4C9E" d="M296.564,290.62c1.271,0.373,2.658,0.603,3.986,0.47c-0.818-1.949-4.604-1.633-6.486-1.637"/>
	<path fill="#8E4C9E" d="M305.898,293.787c0.787,1.283,2.328,1.984,3.808,1.807c0.485-3.027-3.739-3.354-5.808-3.307"/>
	<path fill="#8E4C9E" d="M305.73,285.12c1.848-0.767,10.803,1.444,9.641-3.325c-2.337-0.05-11.729-0.753-12.475,1.991"/>
	<path fill="#8E4C9E" d="M315.23,266.954c0.035,1.758-0.688,5.433-2.621,5.657c-1.746,0.203-7.391-2.461-8.403-3.703
		c-1.789-2.191-0.06-4.043,2.276-4.125c3.056-0.108,7.021,2.975,7.75,6.004"/>
	<path fill="#8E4C9E" d="M298.398,271.954c0.168,4.519-1.271,5.462-5.474,5.254c-1.165-0.058-2.178,0.078-2.991-0.628
		c-1.408-1.219-2.565-4.563-3.086-6.303c0.862-0.379,2.035,0.048,2.717,0.677"/>
	<path fill="#8E4C9E" d="M276.064,271.287c-0.158,2.158,1.808,4.179,1.98,6.318c-3.652-1.062-6.761-2.941-8.165-6.639
		c1.863-0.086,4.39,0.461,5.851-1.013"/>
	<path fill="#8E4C9E" d="M252.489,276.489c-4.333,2.351-10.261-1.404-14.685-1.188c1.876-0.745,6.255-2.259,8.334-1.319
		c1.086,0.492,1.619,2.047,2.07,3.197c-0.777,0.201-1.692,0.146-2.553,0.144"/>
	<path fill="#8E4C9E" d="M276.064,254.954c-1.424-0.234-4.916,1.278-6.158,2.036c-1.455,0.888-1.967,1.462-0.535,2.07
		c0.803,0.342,4.118,0.465,4.806-0.321c0.38-0.435,0.267-1.44,0.22-1.952"/>
	<path fill="#8E4C9E" d="M292.064,264.62c-0.396,1.53-2.586,3.221-1.834,5.063c0.937,2.297,4.1,0.377,4.84-1.306
		c0.758-1.716,0.973-2.668-0.699-3.308c-1.083-0.414-3.334-0.739-4.141,0.383"/>
	<path fill="#D8C830" d="M239.064,309.287c-1.838-0.202-6.899-1.124-7.326,1.396c-0.479,2.83,6.908,3.198,8.803,3.447
		c2.619,0.344,4.572-0.632,7.01-0.528c-0.17-4.107-6.68-2.574-9.321-3.482"/>
	<path fill="#D8C830" d="M296.564,295.454c-1.518-0.244-7.063,1.665-3.699,2.774c2.585,0.853,6.039-1.272,2.865-2.941"/>
	<path fill="#BF8F42" d="M317.564,278.954c-0.89,0.015-3.567,0.112-3.765,1.455c-0.271,1.842,4.278,1.396,5.377,1.391
		C323.535,281.782,319.799,279.218,317.564,278.954"/>
	<path fill="#BF8F42" d="M214.814,305.454c0.039,1.263-0.433,2.498-0.161,3.711c3.62,0.662,2.75-3.86,1.606-5.69
		c-0.69,0.474-0.915,1.271-0.944,2.229"/>
	<path fill="#BF8F42" d="M225.314,317.204c-1.171,1.309-1.076,3.538-2.255,4.581c-0.346-1.543-0.082-3.119-0.557-4.634
		c0.482-0.188,1.236-0.33,1.812-0.197"/>
	<path fill="#BF8F42" d="M254.314,318.954c0.973,1.905,4.831,9.381,8.301,6.226c2.142-1.946-1-4.853-3.051-4.726"/>
	<path fill="#BF8F42" d="M288.064,317.204c1.332,0.696,1.933,2.336,3.461,2.736c0.076-1.682,0.402-4.419-1.711-4.736"/>
	<path fill="#BF8F42" d="M316.064,308.454c0.209,1.476,3.16,2.73,4.566,2.729c1.655-6.353-5.8-4.893-5.316-2.479"/>
	<path fill="#BF8F42" d="M322.814,298.704c1.996,0.272,3.973,1.596,5.959,1.461c0.053-3.974-5.047-4.007-7.932-3.937
		c-0.018,1.008,0.268,1.875,0.973,2.225"/>
	<path fill="#BF8F42" d="M327.814,284.704c2.289-0.187,9.625,3.062,7.076-1.961c-1.518-2.991-9.921-2.708-6.576,0.461"/>
	<path fill="#BF8F42" d="M207.564,297.954c-3.811,1.772-8.401,7.7-1.019,7.274c2.576-0.148,4.822-2.123,4.236-4.985
		c-1.966-0.109-3.984-0.039-5.967-0.039"/>
	<path fill="#8E4C9E" d="M203.064,288.704c-1.956,0.08-8.165,3.215-7.984,5.462c1.706-0.036,7.894,0.178,7.986-2.421
		c0.076-2.167-4.596-2.373-5.752-1.791"/>
	<path fill="#8E4C9E" d="M230.231,298.954c0.983-2.585,3.112-0.646,3.716,0.955c0.507,1.343,0.072,5.376-0.502,6.118
		c-1.283,1.655-6.986,3.196-7.585,0.558c-0.459-2.021,3.619-5.144,4.038-7.297"/>
	<path fill="#8E4C9E" d="M217.564,295.954c-8.31-1.09-8.61,12.71,1.792,8.096c2.195-0.974,3.288-3.872,1.811-6.165
		c-1.47-2.281-4.268-1.496-6.602-1.597"/>
	<path fill="#8E4C9E" d="M298.23,305.62c2.358,4.41,5,7.078,10.283,6.95c0.521-3.682-1.48-6.934-5.021-7.961
		c-1.356-0.393-13.028-0.571-8.929,2.344"/>
	<path fill="#8E4C9E" d="M307.898,299.287c2.136,3.975,8.592,4.742,12.641,4.209c-1.666-5.344-16.316-8.378-12.975-1.542"/>
	<path fill="#8E4C9E" d="M320.23,274.287c1.492-0.368,9.057-3.428,9.576-4.807c1.551-4.121-7.865-4.002-10.039-3.467
		c-2.738,0.674-7.252,5.369-5.022,8.584c1.323,1.905,6.946,1.09,7.485-0.978"/>
	<path fill="#8E4C9E" d="M198.231,287.954c-1.918,0.937-10.069,4.272-9.426,7.101c0.808,3.553,10.871,1.743,12.925,1.129
		c4.033-1.205,6.111-4.074,9.447-6.252c0.869-0.566,4.572-1.468,4.078-3.115c-0.556-1.85-6.705-0.821-8.072-0.825
		c-3.509-0.013-6.246-0.261-9.285,1.629"/>
</g>
</svg>
