<?xml version="1.0" encoding="utf-8"?>
<!-- Generator: Adobe Illustrator 16.0.0, SVG Export Plug-In . SVG Version: 6.00 Build 0)  -->
<!DOCTYPE svg PUBLIC "-//W3C//DTD SVG 1.1//EN" "http://www.w3.org/Graphics/SVG/1.1/DTD/svg11.dtd">
<svg version="1.1"
	 id="svg12211" xmlns:dc="http://purl.org/dc/elements/1.1/" xmlns:cc="http://creativecommons.org/ns#" xmlns:rdf="http://www.w3.org/1999/02/22-rdf-syntax-ns#" xmlns:svg="http://www.w3.org/2000/svg" xmlns:sodipodi="http://sodipodi.sourceforge.net/DTD/sodipodi-0.dtd" xmlns:inkscape="http://www.inkscape.org/namespaces/inkscape" inkscape:export-ydpi="72.021774" inkscape:export-xdpi="72.021774" inkscape:export-filename="C:\Users\Zealotlee\Dropbox\Small Projects\Steves Fuzzballs\fuschia-fuzzle.png" sodipodi:docname="acc-face-beard.svg" inkscape:version="0.91 r13725"
	 xmlns="http://www.w3.org/2000/svg" xmlns:xlink="http://www.w3.org/1999/xlink" x="0px" y="0px" width="210.755px"
	 height="158.581px" viewBox="167.016 202.439 210.755 158.581" enable-background="new 167.016 202.439 210.755 158.581"
	 xml:space="preserve">
<sodipodi:namedview  showguides="true" showgrid="false" inkscape:cy="193.02625" inkscape:cx="369.48506" inkscape:zoom="0.71220416" borderopacity="1.0" bordercolor="#666666" pagecolor="#ffffff" id="base" inkscape:window-maximized="1" inkscape:window-y="-8" inkscape:window-x="-8" inkscape:window-height="988" inkscape:window-width="1680" inkscape:pageshadow="2" inkscape:current-layer="layer1" inkscape:pageopacity="0.0" inkscape:document-units="px">
	</sodipodi:namedview>
<g id="layer1" transform="translate(0,-540.36218)" inkscape:label="Layer 1" inkscape:groupmode="layer">
	
		<path id="path6056-3" sodipodi:nodetypes="ccccszscccccccccscccccc" inkscape:connector-curvature="0" fill="#FF00FF" stroke="#DC00DC" stroke-width="5" stroke-linejoin="round" d="
		M193.764,855.511c0,0-16.939-0.716-24.248-4.547c0,0,21.347-12.161,21.498-37.428c0,0-11.524-4.095-13.326,3.684
		c0,0-6.268-36.018,15.5-53.071c21.768-17.053,46.021-18.295,73.318-18.833c27.297-0.538,85.079,13.469,89.935,26.354
		c4.856,12.885,3.15,31.021,18.832,41.78c0,0-11.371-0.14-18.004-3.814c0,0,18.541,15.342,5.475,53.297
		c0,0-3.816-11.219-8.989-18.118c0,0-8.004,19.171-6.943,26.9c0,0-3.724,3.771-7.729,1.061c0,0-11.102,20.236-24.221,26.106
		c0,0,4.978-9.182-0.217-22.145c0,0-4.948,5.981-10.207,8.684c0,0-7.562-13.512-14.614-12.294
		c-7.053,1.217-12.524,10.997-4.985,18.444c0,0-24.688,2.752-36.623-18.143c0,0-6.675,17.38-14.38,19.871
		c0,0-8.469-17.285-21.499-25.648c0,0-12.86,6.287-9.07,18.391C203.264,886.042,190.998,865.917,193.764,855.511L193.764,855.511z"
		/>
	
		<path id="path6058-4" sodipodi:nodetypes="ccccccccccccccc" inkscape:connector-curvature="0" fill="#FF00FF" stroke="#DC00DC" stroke-width="5" stroke-linejoin="round" d="
		M198.337,798.84c0,0,11.268-0.954,14.732-5.141c0,0-0.581,10.2-6.647,14.853c0,0,13.009,2.301,17.05-7.454
		c0,0,3.275,4.322,0.722,7.651c0,0,21.315-4.329,25.513-14.76c0,0,0.722,7.651-1.934,9.887c0,0,20.044-9.612,25.165-34.797
		c0,0-5.95,21.072,13.192,32.277c0,0,1.938-14.519,4.44-20.71c0,0-2.379,13.347,14.734,24.082c0,0-0.412-4.372,0.271-13.479
		c0,0,9.566,12.55,22.002,15.787c0,0-3.305-1.121-3.402-9.162c0,0,4.057,3.256,10.459,3.313"/>
</g>
</svg>
