<?xml version="1.0" encoding="utf-8"?>
<!-- Generator: Adobe Illustrator 16.0.0, SVG Export Plug-In . SVG Version: 6.00 Build 0)  -->
<!DOCTYPE svg PUBLIC "-//W3C//DTD SVG 1.1//EN" "http://www.w3.org/Graphics/SVG/1.1/DTD/svg11.dtd">
<svg version="1.1"
	 id="svg12211" xmlns:dc="http://purl.org/dc/elements/1.1/" xmlns:cc="http://creativecommons.org/ns#" xmlns:rdf="http://www.w3.org/1999/02/22-rdf-syntax-ns#" xmlns:svg="http://www.w3.org/2000/svg" xmlns:sodipodi="http://sodipodi.sourceforge.net/DTD/sodipodi-0.dtd" xmlns:inkscape="http://www.inkscape.org/namespaces/inkscape" inkscape:export-ydpi="72.021774" inkscape:export-xdpi="72.021774" inkscape:export-filename="C:\Users\Zealotlee\Dropbox\Small Projects\Steves Fuzzballs\fuschia-fuzzle.png" sodipodi:docname="acc-face-hockeymask.svg" inkscape:version="0.91 r13725"
	 xmlns="http://www.w3.org/2000/svg" xmlns:xlink="http://www.w3.org/1999/xlink" x="0px" y="0px" width="372.644px"
	 height="389.53px" viewBox="77.242 59.437 372.644 389.53" enable-background="new 77.242 59.437 372.644 389.53"
	 xml:space="preserve">
<defs>
	
	
		<inkscape:path-effect  bendpath4="m -633.96025,-388.21527 0,30" effect="envelope" xx="true" bendpath2="m -554.15692,-388.21527 0,30" bendpath1="m -633.96025,-388.21527 c 31.2926,-5.07923 69.95856,-18.14123 79.80333,0" is_visible="true" bendpath3="m -633.96025,-358.21527 c 31.75971,-8.97468 58.60077,-9.39214 79.80333,0" yy="true" id="path-effect8360-6-1" bendpath3-nodetypes="cc" bendpath1-nodetypes="cc">
		</inkscape:path-effect>
	
		<inkscape:path-effect  bendpath4="m -633.96025,-388.21527 0,30" effect="envelope" xx="true" bendpath2="m -554.15692,-388.21527 0,30" bendpath1="m -633.96025,-388.21527 c 31.2926,-5.07923 69.95856,-18.14123 79.80333,0" is_visible="true" bendpath3="m -633.96025,-358.21527 c 31.75971,-8.97468 58.60077,-9.39214 79.80333,0" yy="true" id="path-effect8360-66" bendpath3-nodetypes="cc" bendpath1-nodetypes="cc">
		</inkscape:path-effect>
</defs>
<sodipodi:namedview  showguides="true" showgrid="false" inkscape:cy="293.26933" inkscape:cx="318.76087" inkscape:zoom="1.2141285" borderopacity="1.0" bordercolor="#666666" pagecolor="#ffffff" id="base" inkscape:window-maximized="1" inkscape:window-y="-8" inkscape:window-x="-8" inkscape:window-height="988" inkscape:window-width="1680" inkscape:pageshadow="2" inkscape:current-layer="layer1" inkscape:pageopacity="0.0" inkscape:document-units="px">
	</sodipodi:namedview>
<g id="layer1" transform="translate(0,-540.36218)" inkscape:label="Layer 1" inkscape:groupmode="layer">
	<g id="g9557">
		<path id="path9246" inkscape:connector-curvature="0" fill="#575757" stroke="#3E4245" stroke-width="4" d="M402.678,745.815
			l45.962,1.415c0,0-13.436,4.243-16.971,9.899c0,0,11.313,2.121,13.435,8.485c0,0-9.899,6.364-13.435,14.142l17.678,4.95
			l-44.548,0.707L402.678,745.815z"/>
		<path id="path9246-0" inkscape:connector-curvature="0" fill="#575757" stroke="#3E4245" stroke-width="4" d="M124.45,745.815
			l-45.962,1.415c0,0,13.435,4.243,16.971,9.899c0,0-11.314,2.121-13.435,8.485c0,0,9.899,6.364,13.435,14.142l-17.678,4.95
			l44.547,0.707L124.45,745.815z"/>
		
			<path id="path9010-5" sodipodi:nodetypes="ssscssscs" inkscape:connector-curvature="0" fill="#E1E1E1" stroke="#575757" stroke-width="9.1781" d="
			M346.906,617.009c16.281,8.47,66.313,43.6,70.088,92.937c3.773,49.337,6.469,131.948-19.409,183.579
			c-25.878,51.632-59.034,91.216-134.793,91.216c-75.758,0-108.915-39.584-134.793-91.216
			c-25.878-51.631-23.183-134.242-19.409-183.579s53.806-84.467,70.087-92.937c24.261-12.621,84.115-12.621,84.115-12.621
			S322.646,604.388,346.906,617.009L346.906,617.009z"/>
		<path id="path9027" sodipodi:nodetypes="zssssz" inkscape:connector-curvature="0" fill="#6C6C6C" d="M246.632,750.258
			c0-6.084-9.735-17.519-19.47-21.092c-9.79-3.593-58.003-1.217-69.766,2.84c-11.763,4.056-24.337,14.602-24.337,22.309
			c0,7.707,4.057,24.743,56.787,24.743C242.576,779.057,246.632,756.343,246.632,750.258L246.632,750.258z"/>
		<path id="path9029" inkscape:connector-curvature="0" fill="#3E4245" d="M238.52,751.475c0-6.084-7.707-8.518-20.687-8.923
			c-12.979-0.406-55.164,4.462-58.003,11.763c-2.839,7.301,15.819,18.253,30.016,17.847
			C204.042,771.756,238.925,762.427,238.52,751.475L238.52,751.475z"/>
		<path id="path9027-2" sodipodi:nodetypes="zssssz" inkscape:connector-curvature="0" fill="#6C6C6C" d="M283.35,750.258
			c0-6.084,9.735-17.519,19.471-21.092c9.789-3.593,58.003-1.217,69.766,2.84c11.764,4.056,24.338,14.602,24.338,22.309
			c0,7.707-4.057,24.743-56.787,24.743S283.35,756.343,283.35,750.258L283.35,750.258z"/>
		<path id="path9029-5" inkscape:connector-curvature="0" fill="#3E4245" d="M291.463,751.475c0-6.084,7.707-8.518,20.686-8.923
			c12.98-0.406,55.164,4.462,58.004,11.763c2.84,7.301-15.818,18.253-30.016,17.847
			C325.939,771.756,291.057,762.427,291.463,751.475L291.463,751.475z"/>
		<circle id="path9053" fill="#3E4245" cx="204.558" cy="634.234" r="10.325"/>
		<circle id="path9053-6" fill="#3E4245" cx="203.984" cy="662.916" r="10.325"/>
		<circle id="path9053-7" fill="#3E4245" cx="205.131" cy="690.45" r="10.325"/>
		<circle id="path9053-1" fill="#3E4245" cx="235.534" cy="688.729" r="10.325"/>
		<ellipse id="path9053-72" fill="#3E4245" cx="125.11" cy="693.892" rx="7.17" ry="8.604"/>
		<ellipse id="path9053-72-6" fill="#3E4245" cx="139.164" cy="707.085" rx="7.17" ry="8.604"/>
		<ellipse id="path9053-72-3" fill="#3E4245" cx="123.102" cy="722.573" rx="7.17" ry="8.604"/>
		<ellipse id="path9053-72-0" fill="#3E4245" cx="138.017" cy="853.705" rx="8.317" ry="9.981"/>
		<ellipse id="path9053-72-0-2" fill="#3E4245" cx="163.256" cy="867.702" rx="10.039" ry="9.981"/>
		<circle id="path9053-7-6" fill="#3E4245" cx="194.806" cy="865.408" r="10.326"/>
		<circle id="path9053-7-5" fill="#3E4245" cx="232.666" cy="866.555" r="10.325"/>
		<circle id="path9053-7-64" fill="#3E4245" cx="230.945" cy="898.678" r="10.326"/>
		<circle id="path9053-7-2" fill="#3E4245" cx="231.519" cy="938.259" r="10.325"/>
		
			<path id="path9163" inkscape:connector-curvature="0" fill="none" stroke="#B7BBC2" stroke-width="2.2945" stroke-linecap="round" d="
			M144.879,680.985c-2.489,2.199-3.498,4.671-4.302,6.883"/>
		
			<path id="path9167" inkscape:connector-curvature="0" fill="none" stroke="#B7BBC2" stroke-width="2.2945" stroke-linecap="round" d="
			M278.248,644.273c-8.963,0.937-18.511,1.737-25.813,3.729"/>
		<path id="path9171" inkscape:connector-curvature="0" fill="#B7BBC2" d="M132.546,750.108c-0.71-5.052,0.618-10.126,2.868-14.627
			c2.4-4.8,5.447-9.463,9.178-13.194c2.515-2.515,3.507-6.375,6.023-8.891c2.391-2.391,5.649-2.81,8.318-4.589
			c2.531-1.688,6.137-1.921,8.604-3.155c0.842-0.421,2.581-2.089,2.581-1.147c0,1.715-6.151,8.446-7.457,9.752
			c-0.987,0.987-5.783,0.094-6.31,1.147c-1.045,2.09-0.38,13.193-1.721,13.193c-0.592,0-0.275-2.299-1.147-2.008
			c-1.842,0.614-3.968,4.876-5.449,4.876c-0.021,0,0.028-1.637,0-1.721c-0.169-0.508-0.696-4.12-1.721-2.582
			c-1.45,2.175-4.363,4.363-6.597,6.597c-1.228,1.228-1.208,4.136-2.008,5.736C136.702,741.51,128.955,751.305,132.546,750.108
			L132.546,750.108z"/>
		<path id="path9173" inkscape:connector-curvature="0" fill="#B7BBC2" d="M387.525,780.224
			c-3.641,10.57-6.311,21.416-12.047,30.977c-2.511,4.186-3.605,8.646-5.736,12.906c-3.356,6.714-8.057,12.459-12.619,17.782
			c-1.113,1.299-2.016,4.078-2.868,4.589c-0.591,0.354-2.41,1.147-1.721,1.147c1.522,0,11.103-13.11,13.479-15.488
			c8.852-8.851,16.136-19.364,21.799-30.688c1.355-2.713,3.9-5.106,4.875-8.031c0.354-1.06,3.25-6.502,1.722-8.031
			c-1.554-1.554-2.806,4.652-4.589,2.868C387.807,786.241,390.555,780.98,387.525,780.224L387.525,780.224z"/>
		
			<path id="path9175" inkscape:connector-curvature="0" fill="none" stroke="#B7BBC2" stroke-width="2.2945" stroke-linecap="round" d="
			M321.271,806.61c3.227-0.733,5.674-1.721,8.891-1.721"/>
		
			<path id="path9177" inkscape:connector-curvature="0" fill="none" stroke="#B7BBC2" stroke-width="2.2945" stroke-linecap="round" d="
			M320.41,813.207c4.388-1.363,9.836-1.844,13.768-3.155"/>
		
			<path id="path9179" inkscape:connector-curvature="0" fill="none" stroke="#B7BBC2" stroke-width="2.2945" stroke-linecap="round" d="
			M316.108,822.386c4.062-2.686,7.345-5.37,12.046-6.311"/>
		
			<path id="path9181" inkscape:connector-curvature="0" fill="none" stroke="#B7BBC2" stroke-width="2.2945" stroke-linecap="round" d="
			M310.372,832.138c4.058,0.786,7.829-0.574,11.759-0.574"/>
		<path id="path9185" inkscape:connector-curvature="0" fill="#B7BBC2" d="M322.705,853.074c-0.636-2.009-1.927-6.925-4.016-8.317
			c-1.672-1.114-5.041-1.313-6.31-2.581c-1.791-1.791,1.137-4.323,0.573-5.45c-0.584-1.168-10.352,1.592-12.333,2.582
			c-1.385,0.692-7.503,6.573-5.736,7.457c4.575,2.287,10.285-4.035,14.341-2.008c0.68,0.34,2.115,2.401,2.582,2.868
			c1.139,1.139,3.305-0.137,4.302,0.86C317.999,850.377,319.501,852.273,322.705,853.074L322.705,853.074z"/>
		<path id="path9187" inkscape:connector-curvature="0" fill="#B7BBC2" d="M216.297,934.243c1.426,5.185-5.736,2.979-5.736,6.311
			c0,4.499,0.545,9.637,4.589,12.333c1.412,0.941,3.963,0.978,6.023,2.008c0.744,0.371,2.375,1.067,3.155,0.286
			c0.514-0.514-3.336-6.204-3.729-6.597c-0.553-0.553,2.234-3.338,1.434-5.736C221.477,941.181,217.704,934.243,216.297,934.243z"/>
		<path id="path9189" inkscape:connector-curvature="0" fill="#B7BBC2" d="M261.04,729.744c0,0-2.868,52.2-7.744,69.122
			l14.914-18.356l-2.868-50.479L261.04,729.744z"/>
		<path id="path9193" inkscape:connector-curvature="0" fill="#3E4245" d="M284.963,824.689c-0.608-0.812-12.98-16.63-17.036-16.833
			s-20.483,12.777-22.512,16.63c-2.028,3.854-1.014,8.519,3.448,5.273s18.05-14.399,18.05-14.399s16.427,10.951,18.253,11.965
			C286.991,828.34,284.963,824.689,284.963,824.689z"/>
		<circle id="path9053-76" fill="#3E4245" cx="319.48" cy="634.234" r="10.325"/>
		<circle id="path9053-6-1" fill="#3E4245" cx="320.055" cy="662.916" r="10.325"/>
		<circle id="path9053-7-1" fill="#3E4245" cx="318.906" cy="690.45" r="10.325"/>
		<circle id="path9053-1-9" fill="#3E4245" cx="288.504" cy="688.729" r="10.325"/>
		<ellipse id="path9053-72-8" fill="#3E4245" cx="398.929" cy="693.892" rx="7.171" ry="8.604"/>
		<ellipse id="path9053-72-6-0" fill="#3E4245" cx="384.875" cy="707.085" rx="7.171" ry="8.604"/>
		<ellipse id="path9053-72-3-7" fill="#3E4245" cx="400.937" cy="722.573" rx="7.171" ry="8.604"/>
		<ellipse id="path9053-72-0-8" fill="#3E4245" cx="386.021" cy="853.705" rx="8.317" ry="9.981"/>
		<ellipse id="path9053-72-0-2-1" fill="#3E4245" cx="360.782" cy="867.702" rx="10.038" ry="9.981"/>
		<circle id="path9053-7-6-2" fill="#3E4245" cx="329.232" cy="865.408" r="10.326"/>
		<circle id="path9053-7-5-0" fill="#3E4245" cx="291.373" cy="866.555" r="10.325"/>
		<circle id="path9053-7-64-1" fill="#3E4245" cx="293.094" cy="898.678" r="10.326"/>
		<circle id="path9053-7-2-5" fill="#3E4245" cx="292.52" cy="938.259" r="10.325"/>
	</g>
</g>
</svg>
