<svg xmlns="http://www.w3.org/2000/svg" width="1280" height="487.48" viewBox="0 0 1280 487.484" xmlns:xlink="http://www.w3.org/1999/xlink" style="enable-background:new 0 0 1280 487.484"><defs><linearGradient gradientUnits="userSpaceOnUse" y1="-481.99" x2="0" y2="-804.14" gradientTransform="matrix(.563 0 0 1.776 557.63 434.58)"><stop style="stop-color:#d5dbe2"/><stop offset=".611" style="stop-color:#3a61b1"/><stop offset="1" style="stop-color:#59309d"/></linearGradient><radialGradient cx="904.24" cy="147.01" r="11.718" gradientTransform="matrix(.641 0 0 .708-696.3 1441.17)" gradientUnits="userSpaceOnUse" xlink:href="#3"/><radialGradient cx="133.54" cy="77.56" r="11.712" gradientTransform="matrix(.641 0 0 .708-201.95 1490.39)" gradientUnits="userSpaceOnUse" xlink:href="#3"/><radialGradient cx="-1095.12" cy="449.52" r="11.7" gradientTransform="matrix(.641 0 0 .708 586.11 1226.99)" gradientUnits="userSpaceOnUse" xlink:href="#3"/><radialGradient cx="508.62" cy="90.44" r="11.71" gradientTransform="matrix(.641 0 0 .708-430.8 1449.76)" gradientUnits="userSpaceOnUse" xlink:href="#2"/><radialGradient cx="-113.08" cy="70.02" r="11.712" gradientTransform="matrix(.641 0 0 .708-43.771 1495.73)" gradientUnits="userSpaceOnUse" xlink:href="#3"/><radialGradient cx="651.2" cy="110.82" r="11.717" gradientTransform="matrix(.641 0 0 .708-533.99 1466.79)" gradientUnits="userSpaceOnUse" xlink:href="#3"/><radialGradient cx="107.04" cy="85.78" r="11.719" gradientTransform="matrix(.641 0 0 .708-185.03 1484.53)" gradientUnits="userSpaceOnUse" xlink:href="#3"/><radialGradient cx="-296.16" cy="108.58" r="11.711" gradientTransform="matrix(.641 0 0 .708 85.44 1436.97)" gradientUnits="userSpaceOnUse" xlink:href="#2"/><radialGradient cx="-369.31" cy="115.91" r="11.7" gradientTransform="matrix(.641 0 0 .708 141.94 1441.14)" gradientUnits="userSpaceOnUse" xlink:href="#0"/><radialGradient cx="497.99" cy="89.27" r="11.716" gradientTransform="matrix(.641 0 0 .708-409.34 1450.92)" gradientUnits="userSpaceOnUse" xlink:href="#4"/><radialGradient cx="1047.08" cy="187.12" r="11.702" gradientTransform="matrix(.641 0 0 .708-787.95 1412.76)" gradientUnits="userSpaceOnUse" xlink:href="#3"/><radialGradient cx="-890.25" cy="280.36" r="11.71" gradientTransform="matrix(.641 0 0 .708 481.19 1315.58)" gradientUnits="userSpaceOnUse" xlink:href="#4"/><radialGradient cx="296.2" cy="60.48" r="11.713" gradientTransform="matrix(.641 0 0 .708-279.88 1471.29)" gradientUnits="userSpaceOnUse" xlink:href="#4"/><radialGradient cx="-212.14" cy="72.61" r="11.711" gradientTransform="matrix(.641 0 0 .708 46.22 1462.76)" gradientUnits="userSpaceOnUse" xlink:href="#4"/><radialGradient cx="-165.29" cy="58.922" r="11.712" gradientTransform="matrix(.641 0 0 .708 16.1 1472.46)" gradientUnits="userSpaceOnUse" xlink:href="#4"/><radialGradient cx="-655.9" cy="155.07" r="11.712" gradientTransform="matrix(.641 0 0 .708 330.75 1404.28)" gradientUnits="userSpaceOnUse" xlink:href="#4"/><radialGradient cx="-335.37" cy="104.62" r="11.709" gradientTransform="matrix(.641 0 0 .708 125.15 1440.11)" gradientUnits="userSpaceOnUse" xlink:href="#4"/><radialGradient cx="108.8" cy="82.26" r="11.709" gradientTransform="matrix(.641 0 0 .708-186.15 1487.04)" gradientUnits="userSpaceOnUse" xlink:href="#3"/><radialGradient cx="-223.5" cy="80.86" r="11.717" gradientTransform="matrix(.641 0 0 .708 53.5 1456.85)" gradientUnits="userSpaceOnUse" xlink:href="#4"/><radialGradient cx="-496.94" cy="171.06" r="11.711" gradientTransform="matrix(.641 0 0 .708 202.46 1424.21)" gradientUnits="userSpaceOnUse" xlink:href="#3"/><radialGradient cx="290.05" cy="64.93" r="11.721" gradientTransform="matrix(.641 0 0 .708-275.98 1468.15)" gradientUnits="userSpaceOnUse" xlink:href="#4"/><radialGradient cx="938.36" cy="167.52" r="11.702" gradientTransform="matrix(.641 0 0 .708-718.21 1426.64)" gradientUnits="userSpaceOnUse" xlink:href="#3"/><radialGradient cx="-429.72" cy="119.97" r="11.71" gradientTransform="matrix(.641 0 0 .708 173.61 1436.52)" gradientUnits="userSpaceOnUse" xlink:href="#1"/><radialGradient cx="-1290.61" cy="505.26" r="11.713" gradientTransform="matrix(.641 0 0 .708 725.76 1163.65)" gradientUnits="userSpaceOnUse" xlink:href="#1"/><radialGradient cx="281.53" cy="76.23" r="11.712" gradientTransform="matrix(.641 0 0 .708-275.61 1469.31)" gradientUnits="userSpaceOnUse" xlink:href="#0"/><radialGradient cx="861.64" cy="156.1" r="11.72" gradientTransform="matrix(.641 0 0 .708-647.62 1412.77)" gradientUnits="userSpaceOnUse" xlink:href="#0"/><radialGradient cx="-1198.92" cy="486.94" r="11.721" gradientTransform="matrix(.641 0 0 .708 674.01 1178.6)" gradientUnits="userSpaceOnUse" xlink:href="#0"/><radialGradient cx="-1135.38" cy="471.52" r="11.722" gradientTransform="matrix(.641 0 0 .708 633.25 1189.51)" gradientUnits="userSpaceOnUse" xlink:href="#0"/><radialGradient id="0" cx="-741.86" cy="87.965" r="11.71" gradientTransform="matrix(.641 0 0 .708 286.52 1421.21)" gradientUnits="userSpaceOnUse"><stop style="stop-color:#ff1e1e;stop-opacity:.577"/><stop offset="1" style="stop-color:#ff0202;stop-opacity:0"/></radialGradient><radialGradient id="4" cx="-741.86" cy="87.967" r="11.711" gradientTransform="matrix(.641 0 0 .708 350.32 1422.69)" gradientUnits="userSpaceOnUse"><stop style="stop-color:#bc1eff;stop-opacity:.451"/><stop offset="1" style="stop-color:#dd02ff;stop-opacity:0"/></radialGradient><radialGradient id="1" cx="-741.86" cy="87.967" r="11.711" gradientTransform="matrix(.641 0 0 .708 303.5 1422.37)" gradientUnits="userSpaceOnUse"><stop style="stop-color:#fff91e;stop-opacity:.577"/><stop offset="1" style="stop-color:#ffea02;stop-opacity:0"/></radialGradient><radialGradient id="3" cx="-741.86" cy="87.965" r="11.71" gradientTransform="matrix(.641 0 0 .708 318.13 1422.8)" gradientUnits="userSpaceOnUse"><stop style="stop-color:#36ff1e;stop-opacity:.577"/><stop offset="1" style="stop-color:#02ff10;stop-opacity:0"/></radialGradient><radialGradient id="2" cx="-741.86" cy="87.965" r="11.711" gradientTransform="matrix(.641 0 0 .708 335.64 1422.39)" gradientUnits="userSpaceOnUse"><stop style="stop-color:#1effd4;stop-opacity:.577"/><stop offset="1" style="stop-color:#02b4ff;stop-opacity:0"/></radialGradient><radialGradient cx="306.43" cy="73.53" r="11.711" gradientTransform="matrix(.641 0 0 .708-291.51 1471.14)" gradientUnits="userSpaceOnUse" xlink:href="#0"/><radialGradient cx="499.49" cy="89.46" r="11.716" gradientTransform="matrix(.641 0 0 .708-422.32 1458.01)" gradientUnits="userSpaceOnUse" xlink:href="#1"/><radialGradient cx="-499.32" cy="154.47" r="11.709" gradientTransform="matrix(.641 0 0 .708 225.28 1413.86)" gradientUnits="userSpaceOnUse" xlink:href="#0"/><radialGradient cx="-201.88" cy="111.83" r="11.711" gradientTransform="matrix(.641 0 0 .708 27.47 1442.28)" gradientUnits="userSpaceOnUse" xlink:href="#1"/><radialGradient cx="419.7" cy="82.28" r="11.716" gradientTransform="matrix(.641 0 0 .708-371.14 1463.1)" gradientUnits="userSpaceOnUse" xlink:href="#1"/><radialGradient cx="445.83" cy="84.63" r="11.717" gradientTransform="matrix(.641 0 0 .708-387.89 1461.43)" gradientUnits="userSpaceOnUse" xlink:href="#1"/><radialGradient cx="1295.2" cy="278.93" r="11.713" gradientTransform="matrix(.641 0 0 .708-932.69 1323.86)" gradientUnits="userSpaceOnUse" xlink:href="#1"/><radialGradient cx="310.2" cy="71.75" r="11.711" gradientTransform="matrix(.641 0 0 .708-293.99 1472.44)" gradientUnits="userSpaceOnUse" xlink:href="#0"/><radialGradient cx="46.906" cy="90.22" r="11.726" gradientTransform="matrix(.641 0 0 .708-132.11 1457.51)" gradientUnits="userSpaceOnUse" xlink:href="#1"/><radialGradient cx="626.22" cy="109.28" r="11.721" gradientTransform="matrix(.641 0 0 .708-496.71 1445.88)" gradientUnits="userSpaceOnUse" xlink:href="#0"/><radialGradient cx="660.43" cy="106.21" r="11.712" gradientTransform="matrix(.641 0 0 .708-525.62 1446.13)" gradientUnits="userSpaceOnUse" xlink:href="#1"/><radialGradient cx="-1038.37" cy="444.58" r="11.713" gradientTransform="matrix(.641 0 0 .708 563.98 1206.61)" gradientUnits="userSpaceOnUse" xlink:href="#1"/></defs><g transform="translate(0 1238)"><path d="m0-830c12.288.338 41.23 1.225 61.19 1.721 29.05.719 141.37-1.115 182.31-1.115 26.03 0 51.49.396 77.42.557 60.32.375 121.7.186 182.31.186 16.629 0 30.21.434 48.699.279 25.627-.211 52.08-1.094 76.17-1.766 13.254-.369 26.903-.221 39.958-.465 12.13-.225 89.35 1.486 116.13 1.486 46.2 0 101.73-2.334 147.35-1.486 9.611.18 17.375 1.064 26.23 1.395 24.883.926 54.19.879 81.17 1.021 58.795.313 82.85-.479 129.86-2.229.191-.008 102.99.266 111.13.418v79.48h-1279.92v-79.48" style="fill:#2d5052"/><path d="m0-1022.16c0 0 22.8 9.279 25.482 15.184 2.683 5.906 18.777-14.621 18.777-14.621s25.482 5.063 26.824 9.279c1.342 4.217 30.847-15.467 41.577-9.279s25.483 9.842 25.483 9.842 14.753-9.279 25.482-9.561c10.729-.283 33.529 8.436 33.529 8.436s21.459-7.311 30.848-7.592c9.389-.281 30.847 6.188 30.847 6.188s10.729-4.5 21.458-5.344c10.73-.844 48.28 5.904 48.28 5.904s13.412-5.904 25.482-6.186c12.07-.281 42.918 6.467 42.918 6.467s14.753-6.186 41.577-5.904c26.823.281 29.506 7.592 29.506 9.561s4.02-9.279 18.777-9.279c14.752 0 34.87-3.375 40.23.281 5.365 3.656 32.19 16.03 32.19 16.03s-8.05-12.936-1.342-14.902c6.706-1.969 38.895 1.969 38.895 1.969s-1.341 5.623-2.683 7.873c-1.341 2.25 18.777-12.936 25.483-12.373 6.706.564 21.458 3.938 18.776 6.469-2.683 2.529 1.341-5.904 9.386-6.188 8.05-.281 18.777 3.375 16.1 8.717-2.682 5.344 6.707-7.592 14.754-8.436s46.941 1.404 41.576 7.03c-5.363 5.623 5.365-7.873 20.12-8.154 14.754-.281 49.623 2.813 46.941 9.279-2.682 6.469 13.412-9.279 28.16-8.717 14.754.563 49.625 9.279 44.26 14.06-5.365 4.779 12.07-12.936 17.438-13.217 5.361-.281 69.74 0 68.4 8.436s4.02-10.686 17.438-8.998c13.41 1.688 64.37.563 59.01 8.717-5.365 8.156 13.412-7.03 25.48-7.03 12.07 0 44.26 12.09 42.918 14.623-1.342 2.529 17.438-14.902 28.17-14.902s17.436 8.717 18.775 12.09c1.342 3.375 20.12-12.936 32.19-13.215 12.07-.281 22.801 9.561 21.461 12.652-1.342 3.094 12.07-12.373 22.799-13.777 10.73-1.406 33.529 16.871 33.529 18.559s8.05-17.15 16.1-17.996c8.05-.848-1188.29-8.721-1263.39-1.973" style="fill:#e2e2ef"/><g style="fill:#fff"><path d="m0-1020.98h1279.11v270.46h-1279.11z"/><path d="m0-976.4c12.288.957 41.23 3.48 61.19 4.885 29.05 2.049 141.37-3.168 182.31-3.168 26.03 0 51.49 1.127 77.42 1.584 60.32 1.064 121.7.527 182.31.527 16.629 0 30.21 1.227 48.699.793 25.627-.602 52.08-3.107 76.17-5.02 13.254-1.051 26.903-.631 39.958-1.318 12.13-.643 89.35 4.225 116.13 4.225 46.2 0 101.73-6.637 147.35-4.225 9.611.508 17.375 3.02 26.23 3.959 24.883 2.631 54.19 2.498 81.17 2.906 58.795.887 82.85-1.367 129.86-6.338.191-.021 102.99.758 111.13 1.188v225.88h-1279.92v-225.88"/></g><g style="fill:#eff3f7"><path d="m1278.67-1020.98v-11.521c-18.979-1.605-153.14-4.168-182.31-2.111-16.736 1.18-42.938 3.143-62.44 2.111-30.799-1.629-65.779.549-96.15-1.057-76.74-4.057-219.67-3.385-299.69 0-36.726 1.553-80.955.527-118.63.527-62.855 0-128.84.588-191.05-1.057-21.19-.561-43.881.74-64.932 0-84.88-2.992-180.51-2.121-263.48 1.584v11.523c168.37 1.217 106.34 1.969 275.65 1.969 39.823 0 337.71 3.193 377.71 2.139 61.22-1.619 141.98-4.082 203.24-.846 26.04 1.377 96.93-1.086 123.56-.279 74.1 2.236 145.47 1.773 214.97-1.9 39.805-2.104 55.56 2.887 83.53-1.082"/><path d="m1280-1023.98l-1.33-8.523c-18.979-1.605-153.14-4.168-182.31-2.111-16.734 1.18-42.938 3.143-62.44 2.111-30.799-1.629-65.779.549-96.15-1.057-76.74-4.057-219.67-3.385-299.69 0-36.726 1.553-80.955.527-118.63.527-62.855 0-128.84.588-191.05-1.057-21.19-.561-43.881.74-64.932 0-84.88-2.992-180.51-2.121-263.48 1.584l1.33 8.525c168.37 1.219 336.41 2.998 505.72 2.998 39.823 0 82.37 1.32 122.37.264 61.22-1.617 167.25-3.238 228.51 0 26.03 1.377 57.03-.805 83.66 0 74.1 2.238 162.76 2.617 232.26-1.057 39.805-2.103 78.17 1.765 106.14-2.204"/></g><path d="m1280-1027.16l-1.33-8.523c-18.979-1.605-153.14-4.17-182.31-2.113-16.734 1.18-42.938 3.143-62.44 2.113-30.799-1.629-65.779.547-96.15-1.057-76.74-4.059-219.67-3.385-299.69 0-36.726 1.553-80.955.525-118.63.525-62.855 0-128.84.59-191.05-1.055-21.19-.561-43.881.742-64.932 0-84.88-2.992-180.51-2.123-263.48 1.584l1.33 8.525c168.37 1.217 222.04 1.029 391.35 1.029 39.822 0 198.07-.928 238.07-1.984 61.22-1.619 134-.99 195.26 2.25 26.03 1.375 102.24-1.367 128.88-.564 74.1 2.238 156.71-2.314 228.27-1.619 43.797.43 68.86 4.858 96.83.889" style="fill:#e5f3f8"/><g style="fill:#eff3f7"><path d="m80.27-949.49c129.05-14.943 210.35 25.566 338.18 0 23.983-4.797 51.24-8.418 75.947-4.299 7.653 1.275 19.291 1.764 25.794 5.02 2.359 1.18 9.747 2.582 7.881.717-39.13-39.13-136.06-13.771-183.42-4.299-26.02 5.203-52.24-3.387-75.948-9.314-56.852-14.216-139.22-6.278-188.44 12.179"/><path d="m765.44-944.98c129.05-14.941 210.35 25.568 338.18 0 23.984-4.797 51.24-8.416 75.947-4.299 7.654 1.275 19.291 1.764 25.793 5.02 2.359 1.182 9.748 2.582 7.883.719-39.13-39.13-136.06-13.771-183.42-4.301-26.02 5.203-52.24-3.387-75.947-9.313-56.854-14.215-139.22-6.279-188.44 12.178"/></g><g transform="translate(-368-1269.5)"><path d="m1357.39 167.95c-24.12-1.783-48.11 4.98-54.717 31.41-17.463 69.85 66.06 77.42 109.43 55.73 36.37-18.19 3.142-108.84-54.715-87.14z" style="fill:#eff3f7;stroke:#e2e2ef;stroke-width:1.433"/><path d="m1326.23 137.56c-.58-.641-5.746-1-9.117-.254-4.691-3.479-5.906-8.439-9.627-12.158.564-2.463 1.764-3.783 2.785-5.572-.461-.736-1.52-.846-2.279-1.268-2.848 2.838-3.832 7.262-4.813 9.879-2.053.289-3.916.047-5.574.254 0 .676 0 1.352 0 2.027 2.717 1.314 5.383 1.084 7.602.252 4.857 3.482 5.146 7.756 10.133 9.627-1.793 1.746.709-.568-1.268 1.012.508.094 1.51.863 1.773 1.016 1.768-.805 2.49-1.279 3.799-2.027 1.4-.424 2.889.344 3.547.508.849-1.702.675-1.866 3.039-3.296" style="fill:#766653"/><g style="stroke-width:1.433"><path d="m1325.73 172.77c1.984 22.799 54.24 16.752 62.06 24.572 16.639 16.639-14.49 34.654-17.479 46.609-.678 2.709-4.385 5.904-6.334 7.854-24.645 24.643-65.1-.213-65.1-31.664 0-6.91 1.156-19.791 4.055-25.584 5.465-10.93 9.486-18.459 22.799-21.787z" style="fill:#fff;stroke:#eff3f7"/><g style="fill:#eff3f7;stroke:#e2e2ef"><path d="m1354.61 119.57c-14.869-9.979-27.744 7.234-32.426 21.279-5.535 16.607-1.477 29.752 10.133 37.49 74.961 49.975 97.57-77.59 22.293-58.769z"/><path d="m1359.67 65.36c-8.836 1.512-18.268 6.635-22.799 14.186-19.314 32.19 12.93 55.47 41.04 46.1 19.19-6.396 9.897-63.41-18.238-60.29z"/></g><path d="m1338.06 77.71c2.641 1.096 8.615 4.611 13.164 6.357 4.297 1.646 8.777 2.797 13.256 3.852 3.248.766 7.082 1.17 9.854 1.791.146.148-.703.973-.807 1.076-5.074 5.072-5.285 16.525-5.285 23.555 0 2.967-.537 5.877-.537 8.865 0 .986 1.166 2.957.182 2.957-3.063 0-9.773 1.605-12.629.178-3.709-1.854-7.613-2.775-11.645-4.119-2.18-.727-3.531-2.842-5.375-3.762-1.631-.816-5.254-3.76-7.254-13.971-2.545-13.01 2.976-19.843 7.08-26.779z" style="fill:#fff;stroke:#eff3f7"/><g style="fill:none;stroke:#e2e2ef;stroke-linecap:round"><path d="m1393.68 143.72c-1.072-1.832-3.402-2.84-5.02-3.762"/><path d="m1394.04 143.81c.021-1.43.406-2.869 1.074-3.672"/><path d="m1392.51 152.14c.66-1.152 1.699-2.988 1.703-4.748.93 1.576 1.619 3.146 2.508 4.391"/></g></g><path d="m1418.23 145.23c7.633-3.711 15.225-9.859 21.279-14.186-1.336-2.613-2.277-4.303-3.293-6.08.354-2.078 1.082-1.082 2.025-2.025 3.787 3.318 4.04 6.529 5.066 10.641 3.715 1.436 8.09 1.266 12.158 1.266 0 .93 0 1.857 0 2.787-4.781.313-10.766-.223-13.934-1.016-6.93 5.23-12.06 9.537-17.984 12.92.059 1.936 1.02 2.807 1.521 4.813-.977-.146-2.68.73-2.787.76-.814-1.711-1.693-2.625-2.531-3.799-8.578-2.539-17.941-4.406-26.854-3.293.313-1.031.254-3.199.254-4.434 8.853-1.428 16.886.622 25.08 1.646" style="fill:#766653"/><path d="m1371.83 133.38c-.434 4.799-1.141 10.389-1.141 14.691 2.186.063 4.566.014 6.713-.254 1.746-5.752.701-11.744.127-16.34-1.785.167-3.636.507-5.699 1.903" style="fill:#5c0000"/><path d="m1386.53 119.06c-1.852 1.322-3.213 4.066-6.207 4.814-13.197 3.299-33.955 4.516-42.43-7.6-1.908.244-2.51 1.934-2.785 3.039-2.98-.914-3.197 2.531-3.674 4.434 6.447 9.346 38.09 12.426 48.38 7.854 5.998-1.311 8.445-5.258 10.133-9.754-.18-1.293-.564-1.527-1.646-1.393.05-1.635-.39-2.185-1.774-1.394" style="fill:#800000"/><g style="fill:none"><g style="stroke-width:.717"><g style="stroke:#a80000"><path d="m1375.95 153.32c.033.725.047 1.455-.029 2.152"/><path d="m1377.44 152.79c.033.725.047 1.457-.031 2.152"/><path d="m1379.06 152.25c.031.725.047 1.457-.031 2.154"/><path d="m1380.48 151.55c.033.725.047 1.455-.029 2.152"/><path d="m1381.94 150.95c.033.725.047 1.455-.031 2.152"/></g><g style="stroke:#5c0000"><path d="m1371.05 147.03c.031.725.045 1.457-.031 2.152"/><path d="m1372.57 147.15c.031.725.045 1.457-.033 2.154"/><path d="m1374.05 147.09c.031.723.045 1.457-.031 2.152"/></g></g><path d="m1335.23 119.32c.355 1.596 2.203 2.824 3.418 3.736 11.432 8.572 29.697 7.902 43.07 4.559 2.127-.529 6.916-4.924 6.713-6.965" style="stroke:#5c0000;stroke-linecap:round;stroke-width:1.433"/></g><path d="m1372.59 125.4c1.258-1.92 4.453-2.068 6.08-1.139 2.102 8.908 4.916 17.547 3.672 27.484-2.051.938-5.139 1.855-6.838 2.279-.844-5.954 1.418-25.02-2.914-28.624" style="fill:#a80000"/><path d="m1369.3 135.39c-1.529 21.779 8.645 35.38-2.406 54.934-2.617.5-5.227.762-7.727.127-14.42-3.645-29.865-8.279-36.22-21.13-1.324-2.678-3.811-8.998-4.18-11.781-.426-3.213 1.031-14.506 2.279-17.03 3.688-7.453 6.754-12.42 10.139-16.07 2.501 5.659 24.72 12.45 38.11 10.944z" style="fill:#fff;stroke:#eff3f7;stroke-width:1.441"/><g style="stroke:#1a1a1a;stroke-width:.717"><g style="fill:#333;stroke-linecap:round;stroke-linejoin:round"><path d="m1393.26 84.9c-.82 3.111-15.248 2-32.23-2.477-16.977-4.48-30.07-10.633-29.25-13.742.82-3.113 15.248-2 32.23 2.477 16.977 4.478 30.07 10.632 29.25 13.742z"/><path d="m1393.83 82.84c-.82 3.109-15.248 2-32.22-2.479-16.979-4.479-30.07-10.633-29.25-13.742.82-3.113 15.248-2 32.23 2.477s30.07 10.633 29.25 13.744z"/></g><g style="fill:none"><path d="m1332.22 66.69l-.508 2.564"/><path d="m1393.83 82.77l-.742 2.506"/></g></g><g style="fill:#333"><path d="m1392.8 42.478c-9.496 8.789-11.518 35.461-11.518 35.461-4.545 1.313-10.809 1.109-21.21-1.818-10.406-2.932-13.234-7.174-13.234-7.174s11.11-17.98 8.486-35.762l37.481 9.293z" style="stroke:#000;stroke-linejoin:bevel;stroke-width:.808"/><path d="m1392.62 43.03c-.496 1.881-9.211 1.209-19.465-1.494-10.254-2.705-18.16-6.424-17.668-8.303.496-1.879 9.211-1.209 19.463 1.496 10.254 2.705 18.16 6.422 17.67 8.301z" style="stroke:#1a1a1a;stroke-linecap:round;stroke-linejoin:round;stroke-width:1.338"/></g><path d="m1348.85 64.904c0 0 4.242 4.648 15.05 7.275 10.813 2.627 17.58.809 17.58.809s.707 1.111.504 1.92c-.201.809-1.01 3.232-1.01 3.232s-7.475 1.818-19.598-1.516-14.854-7.779-14.854-7.779-.099-2.221 2.327-3.941z" style="fill:#050;stroke:#002b00;stroke-width:.808"/><g transform="translate(322.75 5.3)"><path d="m1022.2 80.3c-4.576.547-5.148 8.313 0 8.957.414.051 1.455.301 1.881.088 2.85-1.426 3.256-6.148 1.254-8.15-.891-.891-2.084-.686-3.135-.896v.0001" style="fill:#333"/><path d="m1022.77 80.8c-.721-.043-.795.648-1.203.854-.43.215-1.633.545-1.836.949-.217.436-.217 1.414-.414 1.805-.055.111-.238.93-.125 1.045.063.063.143-.133.158-.158.223-.334.596-.396.791-.791.137-.271 0-1.027.285-1.172.244-.121.633.125.854-.094.756-.756.432-.834 1.428-1.33.049-.025 1.391-1.031 1.391-.791 0 .15-.27-.146-.379-.256-.217-.215-.721.078-.95-.061" style="fill:#666"/></g><g transform="translate(341.75 8.177)"><path d="m1030.43 81.54c-4.574.547-5.15 8.313 0 8.955.414.053 1.455.305 1.881.09 2.85-1.426 3.256-6.15 1.254-8.15-.889-.893-2.084-.686-3.135-.895" style="fill:#333"/><path d="m1030.99 82.04c-.719-.041-.793.65-1.201.855-.432.215-1.635.543-1.838.949-.217.434-.215 1.416-.41 1.805-.057.109-.242.93-.127 1.045.061.063.141-.133.158-.158.223-.334.596-.398.791-.793.137-.27-.002-1.025.285-1.17.244-.123.633.125.855-.094.754-.756.43-.834 1.424-1.332.051-.025 1.395-1.029 1.395-.789 0 .15-.273-.146-.381-.254-.216-.218-.72.075-.951-.064" style="fill:#666"/></g><g transform="matrix(.665 0 0 .665 549.54 656.41)"><path d="m1192.72-824.16c-4.576.549-5.151 8.313 0 8.955.411.053 1.453.305 1.879.091 2.85-1.427 3.258-6.149 1.256-8.151-.892-.892-2.087-.687-3.135-.895" style="fill:#333"/><path d="m1193.28-823.66c-.719-.041-.792.649-1.203.857-.428.214-1.632.54-1.834.948-.217.432-.217 1.415-.411 1.805-.056.109-.244.93-.126 1.042.059.065.141-.132.156-.156.223-.335.599-.399.795-.793.135-.273-.003-1.027.282-1.171.247-.12.634.126.857-.094.754-.754.432-.834 1.424-1.33.053-.026 1.394-1.033 1.394-.793 0 .153-.273-.144-.382-.255-.217-.214-.719.076-.948-.059h-.004" style="fill:#666"/></g><g transform="matrix(.665 0 0 .665 553.85 659.72)"><path d="m1195.52-822.01c-4.576.549-5.151 8.313 0 8.955.411.053 1.453.305 1.879.088 2.85-1.421 3.258-6.149 1.256-8.148-.892-.893-2.087-.687-3.135-.895" style="fill:#333"/><path d="m1196.09-821.51c-.719-.041-.792.652-1.203.854-.428.217-1.632.546-1.834.951-.217.434-.217 1.412-.411 1.805-.056.112-.244.928-.126 1.045.059.062.141-.135.156-.159.223-.335.599-.399.795-.792.135-.27-.003-1.03.282-1.171.247-.12.634.126.857-.094.754-.754.431-.833 1.424-1.33.053-.023 1.394-1.03 1.394-.792 0 .156-.273-.144-.382-.25-.217-.217-.719.07-.948-.065h-.003v-.002" style="fill:#666"/></g><g transform="matrix(.665 0 0 .665 559.35 661.22)"><path d="m1199.1-821.03c-4.576.549-5.148 8.313 0 8.955.414.053 1.456.305 1.881.088 2.85-1.424 3.255-6.149 1.256-8.148-.895-.892-2.087-.687-3.137-.895" style="fill:#333"/><path d="m1199.66-820.53c-.719-.044-.792.649-1.203.854-.426.214-1.632.543-1.834.951-.217.432-.217 1.412-.411 1.805-.056.112-.244.927-.126 1.045.062.059.141-.135.156-.158.223-.335.599-.399.792-.792.138-.273 0-1.03.285-1.171.247-.123.634.126.857-.094.754-.757.432-.837 1.424-1.333.053-.024 1.394-1.027 1.394-.793 0 .153-.273-.144-.379-.252-.217-.214-.722.073-.951-.062h-.004" style="fill:#666"/></g><g transform="matrix(.665 0 0 .665 564.98 660.09)"><path d="m1202.76-821.77c-4.576.549-5.148 8.312 0 8.955.414.053 1.453.305 1.881.091 2.85-1.424 3.255-6.149 1.256-8.151-.895-.889-2.086-.683-3.137-.895" style="fill:#333"/><path d="m1203.32-821.26c-.719-.044-.792.649-1.203.851-.426.214-1.632.546-1.834.951-.217.434-.217 1.412-.411 1.805-.056.112-.244.927-.126 1.045.062.062.141-.135.156-.159.223-.335.599-.399.792-.792.138-.27 0-1.027.285-1.171.247-.123.634.126.857-.094.754-.757.429-.834 1.424-1.33.053-.026 1.394-1.03 1.394-.792 0 .153-.273-.144-.382-.252-.217-.217-.722.073-.948-.062h-.004" style="fill:#666"/></g><g transform="translate(323.32 7.292)" style="fill:none;stroke:#eff3f7;stroke-linecap:round;stroke-width:.717"><path d="m1026.66 136.28c-.303 1.709-1.205 2.854-2.598 3.549-.787.393-1.939-.342-2.658.379-.66.66-.965 1.262-1.396 1.838"/><path d="m1025.77 133.94c-.627-1.934-4.342-3.602-3.418-5.447"/></g><g transform="translate(323.5 42.05)"><path d="m1022.53 96.21c-4.576.547-5.15 8.313 0 8.955.412.053 1.453.305 1.881.09 2.85-1.426 3.254-6.15 1.254-8.15-.893-.893-2.087-.686-3.135-.895" style="fill:#333"/><path d="m1023.09 96.71c-.721-.041-.795.65-1.203.855-.432.215-1.635.543-1.838.949-.217.434-.217 1.416-.41 1.805-.057.109-.242.93-.127 1.045.061.063.141-.133.158-.158.223-.334.596-.398.791-.793.137-.27-.002-1.025.285-1.17.244-.123.635.125.854-.094.756-.756.432-.834 1.426-1.332.051-.025 1.395-1.029 1.395-.789 0 .15-.273-.146-.381-.254-.22-.218-.721.075-.95-.064" style="fill:#666"/></g><g transform="translate(320.3 18.08)" style="fill:none;stroke:#eff3f7;stroke-linecap:round;stroke-width:.717"><path d="m1025.35 140.95c-.301 1.709-1.205 2.852-2.596 3.547-.789.393-1.941-.34-2.662.381-.658.658-.961 1.262-1.393 1.836"/><path d="m1024.46 138.6c-.627-1.932-4.342-3.6-3.418-5.445"/></g><g transform="translate(320.75 53.18)"><path d="m1021.34 101.03c-4.576.547-5.15 8.313 0 8.955.412.053 1.453.305 1.881.088 2.85-1.424 3.256-6.146 1.254-8.148-.893-.893-2.086-.688-3.135-.896v.0001" style="fill:#333"/><path d="m1021.9 101.53c-.719-.041-.793.65-1.203.855-.43.215-1.633.545-1.836.949-.217.436-.217 1.414-.412 1.805-.055.109-.242.93-.125 1.045.061.063.141-.133.156-.158.223-.332.596-.396.791-.791.139-.271 0-1.027.285-1.172.246-.121.635.125.855-.094.754-.756.432-.832 1.426-1.33.051-.025 1.393-1.031 1.393-.791 0 .15-.271-.146-.381-.254-.217-.219-.721.076-.949-.064" style="fill:#666"/></g><g transform="translate(321.18 31.643)" style="fill:none;stroke:#eff3f7;stroke-linecap:round;stroke-width:.717"><path d="m1025.73 146.82c-.301 1.707-1.205 2.85-2.598 3.545-.787.393-1.939-.34-2.66.381-.658.658-.963 1.262-1.395 1.836"/><path d="m1024.84 144.48c-.627-1.934-4.344-3.6-3.42-5.445"/></g><g transform="translate(321.5 66.68)"><path d="m1021.66 106.87c-4.574.549-5.148 8.314 0 8.957.414.053 1.455.305 1.881.09 2.852-1.426 3.256-6.15 1.256-8.15-.892-.894-2.086-.689-3.137-.897" style="fill:#333"/><path d="m1022.23 107.37c-.719-.043-.793.65-1.201.855-.432.215-1.635.543-1.838.949-.217.434-.215 1.416-.412 1.805-.055.109-.242.93-.125 1.045.061.063.139-.133.158-.158.223-.334.594-.398.791-.793.137-.27-.002-1.025.285-1.17.244-.123.633.125.854-.094.754-.756.432-.834 1.424-1.332.053-.025 1.396-1.029 1.396-.789 0 .15-.273-.146-.381-.254-.217-.218-.723.075-.951-.064" style="fill:#666"/></g><path d="m1355.79 98.24c-3.855-1.824-7.326.557-10.48 1.344-3.76.357-9.279-1.805-11.463 1.254-3.02-.375-4.732.771-6.986 1.521 1.963 1.373 5.396 2.24 7.254 2.24 3.102.254 7.199.949 9.494.09 4.473 1.871 8.488 2.27 12.627.715 1.216-2.63 1.271-6.734-.446-7.164" style="fill:#ff8534"/><path d="m1356.42 105.23c-3.094 1.738-9.633 2.01-12.182-.537-.09-.09-1.281.654-1.344.715-.545.547-2.805.271-3.672.271-4.305 0-7.676-1.379-10.926-2.6 2.52-.016 4.52 1.77 6.627.719 3.215 1.146 6.477.193 9.05-.449 3.652 1.77 11.262 3.064 13.166-.27-.237.957-.507 1.317-.714 2.151" style="fill:#d45500"/><g style="fill:none;stroke-linecap:round;stroke-width:.717"><g style="stroke:#d45500"><path d="m1343.88 100.57c.297 1.311.307 2.635 0 3.854"/><path d="m1334.21 101.56c.301.207.412 2.068.27 3.223"/><path d="m1356.6 104.51c.713-1.873.357-4.391-.18-5.822"/></g><path d="m1357.29 104.82c.713-1.871.357-4.389-.18-5.82" style="stroke:#eff3f7"/></g><g style="fill:#a17556"><path d="m1439.62 132.99c-.969.553-8.693 4.664-9.584 5.553-5 5-6.676 4.32-11.643 8.777-7.104-2.664-16.902-3.156-25.17-2.418 0-.52.119-.809-.09-1.521 7.447-2.543 19.23-.414 25.346 1.881 7.996-5.01 13.75-10.139 20.957-14.689.426.816.364 1.681.18 2.417"/><path d="m1308.06 118.04c.045.104.844.588.627.805-2.469 2.471-2.236 7.789-4.566 10.121-.256.254-.531-.486-.807-.717-.106-4.01 3.02-7.443 4.746-10.209"/></g></g></g></svg>