<?xml version="1.0" encoding="UTF-8" standalone="no"?>
<!-- Created with Inkscape (http://www.inkscape.org/) -->

<svg
   xmlns:dc="http://purl.org/dc/elements/1.1/"
   xmlns:cc="http://creativecommons.org/ns#"
   xmlns:rdf="http://www.w3.org/1999/02/22-rdf-syntax-ns#"
   xmlns:svg="http://www.w3.org/2000/svg"
   xmlns="http://www.w3.org/2000/svg"
   xmlns:sodipodi="http://sodipodi.sourceforge.net/DTD/sodipodi-0.dtd"
   xmlns:inkscape="http://www.inkscape.org/namespaces/inkscape"
   width="256"
   height="256"
   id="svg28860"
   version="1.1"
   inkscape:version="0.48.4 r9939"
   sodipodi:docname="item-icon-jetpack.svg">
  <defs
     id="defs28862">
    <inkscape:path-effect
       effect="skeletal"
       id="path-effect28208"
       is_visible="true"
       pattern="m 292.42022,42.419735 c 0,0 4.31495,-1.6181 8.3357,-1.6181 4.02075,0 6.8647,1.66714 6.8647,1.66714 0,0 -2.15748,1.1768 -6.2763,1.1768 -4.11882,0 -8.9241,-1.22584 -8.9241,-1.22584 z"
       copytype="single_stretched"
       prop_scale="1"
       scale_y_rel="false"
       spacing="0"
       normal_offset="0"
       tang_offset="0"
       prop_units="false"
       vertical_pattern="false"
       fuse_tolerance="0" />
    <inkscape:path-effect
       effect="skeletal"
       id="path-effect28218"
       is_visible="true"
       pattern="m 297.92022,44.169735 c 0,0 4.31495,-1.6181 8.3357,-1.6181 4.02075,0 6.8647,1.66714 6.8647,1.66714 0,0 -2.15748,1.1768 -6.2763,1.1768 -4.11882,0 -8.9241,-1.22584 -8.9241,-1.22584 z"
       copytype="single_stretched"
       prop_scale="1"
       scale_y_rel="false"
       spacing="0"
       normal_offset="0"
       tang_offset="0"
       prop_units="false"
       vertical_pattern="false"
       fuse_tolerance="0" />
  </defs>
  <sodipodi:namedview
     id="base"
     pagecolor="#ffffff"
     bordercolor="#666666"
     borderopacity="1.0"
     inkscape:pageopacity="0.0"
     inkscape:pageshadow="2"
     inkscape:zoom="1.7998836"
     inkscape:cx="188.14046"
     inkscape:cy="104.05146"
     inkscape:document-units="px"
     inkscape:current-layer="layer1"
     showgrid="false"
     inkscape:window-width="1680"
     inkscape:window-height="988"
     inkscape:window-x="-8"
     inkscape:window-y="-8"
     inkscape:window-maximized="1" />
  <metadata
     id="metadata28865">
    <rdf:RDF>
      <cc:Work
         rdf:about="">
        <dc:format>image/svg+xml</dc:format>
        <dc:type
           rdf:resource="http://purl.org/dc/dcmitype/StillImage" />
        <dc:title></dc:title>
      </cc:Work>
    </rdf:RDF>
  </metadata>
  <g
     inkscape:label="Layer 1"
     inkscape:groupmode="layer"
     id="layer1"
     transform="translate(0,-796.36218)">
    <g
       transform="matrix(1.1990395,0,0,1.1990395,-178.99122,-227.66963)"
       id="g28345">
      <g
         transform="matrix(1.6473091,0,0,1.6473091,-179.0504,-659.30639)"
         id="g28302">
        <path
           style="fill:#1f2030;fill-opacity:1;stroke:#6b94ba;stroke-width:6;stroke-linecap:butt;stroke-linejoin:round;stroke-miterlimit:4;stroke-opacity:1;stroke-dasharray:none"
           d="m 229.72845,955.92818 c 5.54622,-7.18005 8.72233,-10.75234 13.5,-2.5 7.24318,-1.58548 7.91068,-2.01797 10,4.25 5.22446,-1.26706 5.90124,1.24787 8.25,4.5 4.62256,2.39788 4.51226,4.0899 5.25,9.5 4.54319,3.77219 5.24068,8.28569 5.5,14.25 0.30768,3.75468 -1.64937,6.66076 -2.5,9 -0.0986,6.77842 -2.38732,6.25352 -6.75,7.50002 0.002,6.5334 -2.16569,6.6411 -6,8.75 -4.53628,3.3389 -7.97679,2.8865 -12.75,1.75 -4.78184,4.0333 -7.78023,2.5733 -12.5,1 -6.87979,1.2652 -9.63435,-1.2509 -12.75,-4 -7.16811,0.8667 -8.86836,-1.8025 -11.5,-5.75 -0.54409,-1.9375 1.19824,-4.39358 1.5,-5.50002 -3.51534,-3.05102 -3.34828,-6.41214 -3.5,-9.75 0.59232,-2.84881 3.19434,-4.52025 4.5,-6 -3.16717,-3.62299 -2.11918,-7.87811 -2,-10.5 -0.44176,-4.61751 2.30569,-4.92721 4.25,-6.75 -1.14034,-4.79724 2.22076,-5.8249 3.25,-7.25 1.1536,-3.613 3.30609,-2.49771 5.18934,-3.43934 5.82375,-3.58116 6.75298,-1.2241 9.06066,0.93934 z"
           id="path33561"
           inkscape:connector-curvature="0"
           sodipodi:nodetypes="ccccccccccccccccccccc" />
        <path
           style="fill:#5b6e8f;fill-opacity:1;stroke:#393c59;stroke-width:6;stroke-linecap:butt;stroke-linejoin:round;stroke-miterlimit:4;stroke-opacity:1;stroke-dasharray:none"
           d="m 231.07479,953.4139 c 5.54622,-7.18005 8.72233,-10.75234 13.5,-2.5 7.24318,-1.58548 7.91068,-2.01797 10,4.25 5.22446,-1.26706 5.90124,1.24787 8.25,4.5 4.62256,2.39788 4.51226,4.0899 5.25,9.5 4.54319,3.77219 5.24068,8.28569 5.5,14.25 0.30768,3.75468 -1.64937,6.66076 -2.5,9 -0.0986,6.77841 -2.38732,6.25352 -6.75,7.5 0.002,6.5334 -2.16569,6.6411 -6,8.75 -4.53628,3.339 -7.97679,2.8865 -12.75,1.75 -4.78184,4.0334 -7.78023,2.5733 -12.5,1 -6.87979,1.2652 -9.63435,-1.2509 -12.75,-4 -7.1681,0.8667 -8.86835,-1.8025 -11.5,-5.75 -0.54409,-1.93746 1.19824,-4.39356 1.5,-5.5 -3.51534,-3.05102 -3.34828,-6.41214 -3.5,-9.75 0.59233,-2.84881 3.19435,-4.52025 4.5,-6 -3.16716,-3.62299 -2.11918,-7.87811 -2,-10.5 -0.44176,-4.61751 2.30569,-4.92721 4.25,-6.75 -1.14034,-4.79724 2.22077,-5.8249 3.25,-7.25 1.15361,-3.613 3.30609,-2.49771 5.18934,-3.43934 5.82376,-3.58116 6.75298,-1.2241 9.06066,0.93934 z"
           id="path33561-5"
           inkscape:connector-curvature="0"
           sodipodi:nodetypes="ccccccccccccccccccccc" />
        <path
           style="fill:none;stroke:#393c59;stroke-width:3;stroke-linecap:round;stroke-linejoin:round;stroke-miterlimit:4;stroke-opacity:1;stroke-dasharray:none"
           d="m 269.29581,974.81697 c -11.21622,-24.47655 -24.98418,21.92858 -7.33624,11.84404 12.53457,-7.16261 -1.76558,-17.65144 -0.97227,-8.13173"
           id="path28110"
           inkscape:connector-curvature="0" />
        <path
           sodipodi:type="arc"
           style="fill:#1f2030;fill-opacity:1;stroke:none"
           id="path33571"
           sodipodi:cx="108.54089"
           sodipodi:cy="867.40955"
           sodipodi:rx="3.6239223"
           sodipodi:ry="2.8726213"
           d="m 112.16482,867.40955 c 0,1.5865 -1.62249,2.87262 -3.62393,2.87262 -2.00143,0 -3.62392,-1.28612 -3.62392,-2.87262 0,-1.58651 1.62249,-2.87263 3.62392,-2.87263 2.00144,0 3.62393,1.28612 3.62393,2.87263 z"
           transform="matrix(0.71206477,0,0,1.0367586,166.46343,91.123173)" />
        <path
           style="fill:none;stroke:#393c59;stroke-width:4;stroke-linecap:round;stroke-linejoin:miter;stroke-miterlimit:4;stroke-opacity:1;stroke-dasharray:none"
           d="m 223.42225,985.33518 c 21.68785,-12.53444 27.57648,24.52752 1.94455,12.99309"
           id="path33583"
           inkscape:connector-curvature="0" />
        <path
           style="fill:#5b6e8f;fill-opacity:1;stroke:#393c59;stroke-width:4;stroke-linecap:round;stroke-linejoin:miter;stroke-miterlimit:4;stroke-opacity:1;stroke-dasharray:none"
           d="m 245.96128,986.04229 c 10.25453,-14.76195 19.87264,15.23521 7.33624,12.72792 -3.35431,-0.67086 -4.79239,-0.75588 -6.45235,-3.18198"
           id="path33585"
           inkscape:connector-curvature="0" />
        <path
           sodipodi:type="arc"
           style="fill:#1f2030;fill-opacity:1;stroke:none"
           id="path33587"
           sodipodi:cx="100.01141"
           sodipodi:cy="854.28387"
           sodipodi:rx="1.281631"
           sodipodi:ry="0.9722718"
           d="m 101.29304,854.28387 c 0,0.53698 -0.5738,0.97228 -1.28163,0.97228 -0.707822,0 -1.281627,-0.4353 -1.281627,-0.97228 0,-0.53697 0.573805,-0.97227 1.281627,-0.97227 0.70783,0 1.28163,0.4353 1.28163,0.97227 z"
           transform="matrix(1.5862069,0,0,2.3636364,73.003568,-1042.4549)" />
        <path
           style="fill:none;stroke:#393c59;stroke-width:4;stroke-linecap:round;stroke-linejoin:miter;stroke-miterlimit:4;stroke-opacity:1;stroke-dasharray:none"
           d="m 225.36679,969.51367 c 3.66166,0.57961 6.9523,3.02513 9.19239,5.74524"
           id="path33563"
           inkscape:connector-curvature="0" />
        <path
           sodipodi:type="arc"
           style="fill:#1f2030;fill-opacity:1;stroke:none"
           id="path33587-3"
           sodipodi:cx="100.01141"
           sodipodi:cy="854.28387"
           sodipodi:rx="1.281631"
           sodipodi:ry="0.9722718"
           d="m 101.29304,854.28387 c 0,0.53698 -0.5738,0.97228 -1.28163,0.97228 -0.707822,0 -1.281627,-0.4353 -1.281627,-0.97228 0,-0.53697 0.573805,-0.97227 1.281627,-0.97227 0.70783,0 1.28163,0.4353 1.28163,0.97227 z"
           transform="matrix(1.5862069,0,0,2.3636364,90.858017,-1042.6317)" />
        <path
           style="fill:none;stroke:#393c59;stroke-width:4;stroke-linecap:round;stroke-linejoin:miter;stroke-miterlimit:4;stroke-opacity:1;stroke-dasharray:none"
           d="m 246.93355,974.99374 c 0.76217,-2.39167 2.19225,-2.71598 4.24264,-3.18198"
           id="path33565"
           inkscape:connector-curvature="0" />
        <path
           style="fill:none;stroke:#393c59;stroke-width:3;stroke-linecap:round;stroke-linejoin:round;stroke-miterlimit:4;stroke-opacity:1;stroke-dasharray:none"
           d="m 230.05138,950.24501 c 8.20112,-5.10868 23.00606,-1.12338 18.03122,11.31371 -1.82173,4.55432 -17.02034,6.57935 -19.97577,3.62392 -1.25718,-1.25719 -1.36831,-4.16106 -0.97227,-5.74524 3.06381,-12.25522 16.55643,1.77018 6.89429,-0.53033"
           id="path28106"
           inkscape:connector-curvature="0" />
        <path
           style="fill:none;stroke:#393c59;stroke-width:3;stroke-linecap:round;stroke-linejoin:round;stroke-miterlimit:4;stroke-opacity:1;stroke-dasharray:none"
           d="m 208.21946,984.27452 c 0.86613,-2.64723 2.74795,-5.58898 5.74524,-5.92201 8.90747,-0.98972 6.96184,12.29639 1.32583,15.1144 -5.62949,2.81474 -4.44757,-9.25834 -2.03294,-10.78338"
           id="path28108"
           inkscape:connector-curvature="0" />
        <path
           style="fill:none;stroke:#393c59;stroke-width:2;stroke-linecap:round;stroke-linejoin:round;stroke-miterlimit:4;stroke-opacity:1;stroke-dasharray:none"
           d="m 235.53146,988.16361 c -4.3823,-3.50358 -10.72152,4.56715 -3.71231,5.56847 7.45329,1.06475 2.82454,-5.20896 0.63204,-3.15349"
           id="path28112"
           inkscape:connector-curvature="0"
           sodipodi:nodetypes="csc" />
        <path
           style="fill:none;stroke:#393c59;stroke-width:2;stroke-linecap:round;stroke-linejoin:round;stroke-miterlimit:4;stroke-opacity:1;stroke-dasharray:none"
           d="m 250.03603,987.38144 c 1.72999,-1.95714 3.1974,-0.85856 4.25965,1.608 4.71727,10.95359 -8.01098,2.49509 -2.87133,1.37392"
           id="path28116"
           inkscape:connector-curvature="0"
           sodipodi:nodetypes="csc" />
      </g>
      <g
         transform="translate(-135,-22)"
         id="g28339">
        <path
           style="fill:#c7c9db;fill-opacity:0.56382979;fill-rule:evenodd;stroke:none"
           d="m 471.30896,984.22589 c -1.80196,0.0441 -3.58271,0.24049 -5.34375,0.59375 -2.20228,0.43686 -4.38898,1.14251 -6.40625,2.21875 -1.81845,0.96407 -3.50902,2.26969 -4.78125,3.96875 -1.24582,1.6831 -1.9687,3.71704 -2.09375,5.78125 -0.13765,2.55156 0.51921,5.00771 1.53125,7.21871 0.81513,1.7184 2.36874,2.8435 3.96875,3.4688 1.57657,0.6427 3.27848,0.9713 4.96875,0.9375 3.55599,-0.037 7.46725,-0.9672 9.78125,-3.7813 1.53006,-1.9067 2.04402,-4.4794 1.5625,-6.81246 -0.1987,-0.97286 -0.58442,-1.93311 -1.15625,-2.75 -0.43406,-0.63032 -1.01565,-1.21715 -1.78125,-1.40625 -0.741,-0.16779 -1.50172,0.19234 -2,0.71875 -0.88236,0.93044 -1.30464,2.18905 -1.625,3.40625 0.37105,-1.20272 0.82815,-2.4567 1.71875,-3.3125 0.49146,-0.47074 1.22485,-0.74762 1.84375,-0.5625 0.67263,0.18415 1.16801,0.74066 1.5625,1.34375 0.50788,0.79038 0.81597,1.72502 0.96875,2.65625 0.35945,2.22271 -0.236,4.57971 -1.6875,6.21871 -2.15127,2.4962 -5.80534,3.0992 -9.1875,3.0625 -1.52502,-0.034 -3.02956,-0.3713 -4.40625,-1 -1.35189,-0.6454 -2.61165,-1.5768 -3.0625,-2.8125 -0.83602,-2.101 -1.35689,-4.31215 -1.125,-6.43746 0.17147,-1.68853 0.85233,-3.32781 1.90625,-4.625 1.07942,-1.3485 2.54655,-2.40071 4.15625,-3.1875 1.80021,-0.87346 3.76446,-1.39807 5.78125,-1.71875 4.32742,-0.67818 8.8185,-0.35409 12.9375,0.96875 3.62972,1.23047 7.10717,3.19902 8.625,6.21875 1.0628,1.72179 0.68432,4.22126 0.0937,6.68751 -0.67649,2.4585 -1.84247,4.8951 -3,7.4687 -1.25715,2.7478 -2.76498,5.3477 -4.625,7.5625 -1.53059,1.8239 -3.28063,3.406 -5.25,4.5626 -1.80624,1.0729 -3.82938,1.8101 -5.90625,2.2187 -2.14861,0.4278 -4.41624,0.5066 -6.6875,0.3438 -5.19472,-0.362 -10.34153,-1.9998 -15.46875,-3.9688 -5.80216,-2.252 -11.46974,-5.042 -17.1562,-7.9375 -1.22816,-0.6265 -2.45645,-1.2705 -3.6875,-1.9063 0.76321,0.2411 1.51608,0.4779 2.28125,0.7188 5.28861,1.6676 10.65212,3.3382 16.125,4.625 4.92818,1.1649 10.02643,2.0388 15.15625,2 4.57338,-0.029 9.19189,-0.9216 13.21875,-3.0625 4.37969,-2.3468 7.77757,-6.0946 10.1875,-10.2813 -2.74485,3.9751 -6.37633,7.3639 -10.6875,9.2188 -3.95722,1.7191 -8.36572,2.149 -12.65625,1.8437 -4.84369,-0.35 -9.59529,-1.5873 -14.28125,-3.0937 -5.19178,-1.6765 -10.28254,-3.7252 -15.40625,-5.8125 -5.24483,-2.1396 -10.52121,-4.3377 -15.96875,-6.28126 -5.14595,-1.8427 -9.51033,-2.63384 -14.35723,-3.52237 -3.98011,-0.72962 -8.62781,-1.19589 -12.04902,-1.47763 -59.83815,-4.92767 -18.04569,2.79747 5.43745,9.99976 5.27842,1.1821 10.53859,3.24 15.84375,5.5 5.88349,2.52 11.7225,5.3291 17.6875,8.0625 5.85828,2.6891 11.84622,5.362 18.09375,7.5 5.48163,1.8962 11.32498,3.4052 17.40625,3.6251 2.69166,0.093 5.42073,-0.1386 8.125,-0.7812 2.63434,-0.6306 5.18333,-1.6731 7.46875,-3.1564 2.47095,-1.6174 4.58059,-3.6665 6.3125,-5.9375 2.08572,-2.7376 3.66909,-5.7402 4.90625,-8.8125 1.03961,-2.5531 2.16735,-5.2429 2.875,-8.1875 0.79173,-2.92967 0.91951,-6.44806 -0.78125,-9.56251 -2.52684,-4.05844 -6.78287,-6.34931 -10.96875,-7.4375 -2.91889,-0.80291 -5.93424,-1.16718 -8.9375,-1.09375 z"
           id="path33543"
           inkscape:connector-curvature="0"
           sodipodi:nodetypes="cccccccccccccccccccccccccccccccccccccccccccccccascccccccccccccc" />
        <path
           style="fill:#c7c9db;fill-opacity:0.56382979;fill-rule:evenodd;stroke:none"
           d="m 383.53197,991.74852 c 0,0 0.41574,-0.11789 1.18929,-0.29549 0.77354,-0.17761 1.90667,-0.41206 3.34428,-0.60826 2.87522,-0.39239 7.00201,-0.593 11.66528,0.0269 2.38854,0.3179 4.90147,0.82709 7.44749,1.48573 2.54601,0.65864 5.12462,1.46405 7.65857,2.32621 0.91095,0.30891 1.81735,0.62483 2.71659,0.94332 4.34456,1.53874 8.26256,3.01079 11.75731,4.11695 4.545,1.43721 8.38883,2.25691 11.09493,2.67821 1.35305,0.2107 2.42153,0.3316 3.15055,0.4071 0.72902,0.076 1.11791,0.1079 1.11791,0.1079 0,0 -0.33619,0.064 -1.00834,0.1496 -0.67216,0.086 -1.6814,0.1925 -3.02693,0.2382 -2.69104,0.091 -6.76812,-0.082 -11.93211,-1.277 -2.94355,-0.6799 -6.22094,-1.676 -9.80383,-2.92855 -1.65539,-0.57871 -3.32429,-1.19045 -4.99132,-1.80097 0,0 0,0 0,0 -2.4844,-0.90706 -4.97239,-1.81214 -7.41102,-2.60749 -2.43863,-0.79535 -4.82899,-1.47838 -7.11055,-1.98902 -4.40953,-0.98837 -8.41463,-1.27072 -11.27411,-1.24796 -1.42974,0.0114 -2.57664,0.088 -3.36506,0.15466 -0.78843,0.0666 -1.21893,0.11995 -1.21893,0.11995 z"
           id="path28206"
           inkscape:path-effect="#path-effect28208"
           inkscape:original-d="m 383.4983,991.5553 c 22.76521,-3.96763 39.17332,12.1365 61.16474,11.1369"
           inkscape:connector-curvature="0" />
        <path
           style="fill:#c7c9db;fill-opacity:0.56382979;fill-rule:evenodd;stroke:none"
           d="m 408.20257,1015.0574 c 0,0 0.98838,0.2427 2.70192,0.7326 1.71353,0.4899 4.15037,1.2369 7.04371,2.2313 2.89335,0.9944 6.24175,2.2377 9.80092,3.6158 3.55917,1.3782 7.32921,2.8843 11.09934,4.3442 0,0 0,0 0,0 1.05814,0.4088 2.11899,0.8116 3.17701,1.2062 4.02632,1.5015 7.79001,2.7955 11.18368,3.8416 3.39367,1.046 6.41824,1.8464 8.95014,2.4403 2.53191,0.5939 4.57028,0.9863 5.97458,1.2422 1.40431,0.2558 2.17192,0.3813 2.17192,0.3813 0,0 -0.58578,0.057 -1.74609,0.092 -1.16032,0.035 -2.89689,0.047 -5.18823,-0.1104 -2.29135,-0.1575 -5.13888,-0.4878 -8.48659,-1.1596 -3.34772,-0.6719 -7.19603,-1.6904 -11.4401,-3.1834 -1.87613,-0.66 -3.76414,-1.3898 -5.6307,-2.1676 -3.74809,-1.5587 -7.43436,-3.2706 -10.87707,-4.9032 -3.44271,-1.6326 -6.64592,-3.18 -9.41104,-4.4716 -5.53023,-2.5833 -9.3234,-4.132 -9.3234,-4.132 z"
           id="path28216"
           inkscape:path-effect="#path-effect28218"
           inkscape:original-d="m 408.26697,1014.8721 c 21.33713,7.417 38.14077,19.0195 62.04862,19.9758"
           inkscape:connector-curvature="0" />
      </g>
    </g>
  </g>
</svg>
