<?xml version="1.0" encoding="UTF-8" standalone="no"?>
<!-- Created with Inkscape (http://www.inkscape.org/) -->

<svg
   xmlns:dc="http://purl.org/dc/elements/1.1/"
   xmlns:cc="http://creativecommons.org/ns#"
   xmlns:rdf="http://www.w3.org/1999/02/22-rdf-syntax-ns#"
   xmlns:svg="http://www.w3.org/2000/svg"
   xmlns="http://www.w3.org/2000/svg"
   xmlns:xlink="http://www.w3.org/1999/xlink"
   xmlns:sodipodi="http://sodipodi.sourceforge.net/DTD/sodipodi-0.dtd"
   xmlns:inkscape="http://www.inkscape.org/namespaces/inkscape"
   width="256"
   height="256"
   id="svg28860"
   version="1.1"
   inkscape:version="0.48.4 r9939"
   sodipodi:docname="item-icon-shield.svg">
  <defs
     id="defs28862">
    <linearGradient
       inkscape:collect="always"
       xlink:href="#linearGradient32996"
       id="linearGradient33002"
       x1="263.77008"
       y1="672.06964"
       x2="263.77008"
       y2="796.17419"
       gradientUnits="userSpaceOnUse"
       gradientTransform="matrix(0.78082189,0,0,1,57.822899,0)" />
    <linearGradient
       id="linearGradient32996">
      <stop
         style="stop-color:#15a0ff;stop-opacity:1;"
         offset="0"
         id="stop32998" />
      <stop
         style="stop-color:#15d3ff;stop-opacity:0;"
         offset="1"
         id="stop33000" />
    </linearGradient>
  </defs>
  <sodipodi:namedview
     id="base"
     pagecolor="#ffffff"
     bordercolor="#666666"
     borderopacity="1.0"
     inkscape:pageopacity="0.0"
     inkscape:pageshadow="2"
     inkscape:zoom="1.7998836"
     inkscape:cx="175.09854"
     inkscape:cy="137.46312"
     inkscape:document-units="px"
     inkscape:current-layer="layer1"
     showgrid="false"
     inkscape:window-width="1680"
     inkscape:window-height="988"
     inkscape:window-x="-8"
     inkscape:window-y="-8"
     inkscape:window-maximized="1" />
  <metadata
     id="metadata28865">
    <rdf:RDF>
      <cc:Work
         rdf:about="">
        <dc:format>image/svg+xml</dc:format>
        <dc:type
           rdf:resource="http://purl.org/dc/dcmitype/StillImage" />
        <dc:title></dc:title>
      </cc:Work>
    </rdf:RDF>
  </metadata>
  <g
     inkscape:label="Layer 1"
     inkscape:groupmode="layer"
     id="layer1"
     transform="translate(0,-796.36218)">
    <g
       transform="matrix(1.8431238,0,0,1.8431238,-357.14679,-425.90496)"
       id="g33004">
      <path
         sodipodi:nodetypes="ccccccc"
         inkscape:connector-curvature="0"
         id="path32976-4"
         d="m 297.24151,796.3421 0,-70.88401 33.3723,0 -66.79686,-53.66091 -66.79687,53.66091 33.3723,0 0,70.88401 z"
         style="fill:url(#linearGradient33002);fill-opacity:1;stroke:none" />
      <path
         inkscape:connector-curvature="0"
         id="path32958"
         d="m 262.85539,713.69394 c -5.52221,0 -10.03125,4.50904 -10.03125,10.03125 0,5.52221 4.50904,10.0625 10.03125,10.0625 5.52221,0 10.0625,-4.54029 10.0625,-10.0625 0,-5.52221 -4.54029,-10.03125 -10.0625,-10.03125 z m 0,4.875 c 2.87406,0 5.15625,2.28219 5.15625,5.15625 0,2.87406 -2.28219,5.15625 -5.15625,5.15625 -2.87406,0 -5.125,-2.28219 -5.125,-5.15625 0,-2.87406 2.25094,-5.15625 5.125,-5.15625 z"
         style="font-size:medium;font-style:normal;font-variant:normal;font-weight:normal;font-stretch:normal;text-indent:0;text-align:start;text-decoration:none;line-height:normal;letter-spacing:normal;word-spacing:normal;text-transform:none;direction:ltr;block-progression:tb;writing-mode:lr-tb;text-anchor:start;baseline-shift:baseline;color:#000000;fill:#4d4d4d;fill-opacity:1;stroke:#333333;stroke-width:1;stroke-miterlimit:4;stroke-opacity:1;stroke-dasharray:none;marker:none;visibility:visible;display:inline;overflow:visible;enable-background:accumulate;font-family:Sans;-inkscape-font-specification:Sans" />
      <path
         inkscape:connector-curvature="0"
         id="path32956"
         d="m 246.78027,732.21959 -20.5061,58.33631 76.72109,0 -24.04163,-58.33631 z"
         style="fill:#4d4d4d;fill-opacity:1;stroke:#333333;stroke-width:1px;stroke-linecap:butt;stroke-linejoin:miter;stroke-opacity:1" />
      <path
         sodipodi:nodetypes="cscsc"
         inkscape:connector-curvature="0"
         id="path32968"
         d="m 254.21875,719.64343 c 0,0 2.28125,-5.75 8.5625,-5.59375 6.28125,0.15625 9.34375,4.90625 9.6875,8.78125 0,0 -2.53125,-7.6875 -9.46875,-7.6875 -6.9375,0 -8.78125,4.5 -8.78125,4.5 z"
         style="fill:#6a6a6a;fill-opacity:1;stroke:none" />
      <path
         inkscape:connector-curvature="0"
         id="path32970"
         d="m 257.40625,725.11218 c 0,0 1.0625,4.1875 5.03125,4.25 3.96875,0.0625 5.1875,-2.59375 5.1875,-2.59375 0,0 -0.8125,3.21875 -4.875,3.21875 -4.0625,0 -5.09375,-3.28125 -5.34375,-4.875 z"
         style="fill:#6a6a6a;fill-opacity:1;stroke:none" />
      <path
         sodipodi:nodetypes="ccccc"
         inkscape:connector-curvature="0"
         id="path32972"
         d="m 271.33013,732.72782 19.33494,55.26482 10.69499,0 -22.49482,-55.24272 z"
         style="fill:#6a6a6a;fill-opacity:1;stroke:none" />
      <text
         sodipodi:linespacing="125%"
         id="text32964"
         y="781.07587"
         x="247.46129"
         style="font-size:16.2532196px;font-style:normal;font-variant:normal;font-weight:normal;font-stretch:normal;line-height:125%;letter-spacing:0px;word-spacing:0px;fill:#cccccc;fill-opacity:1;stroke:none;font-family:Euphorigenic;-inkscape-font-specification:Euphorigenic"
         xml:space="preserve"><tspan
           style="font-style:normal;font-variant:normal;font-weight:normal;font-stretch:normal;fill:#cccccc;font-family:Granstander Clean;-inkscape-font-specification:Granstander Clean"
           y="781.07587"
           x="247.46129"
           id="tspan32966"
           sodipodi:role="line">1 kg</tspan></text>
    </g>
  </g>
</svg>
