<?xml version="1.0" encoding="UTF-8" standalone="no"?>
<!-- Created with Inkscape (http://www.inkscape.org/) -->

<svg
   xmlns:dc="http://purl.org/dc/elements/1.1/"
   xmlns:cc="http://creativecommons.org/ns#"
   xmlns:rdf="http://www.w3.org/1999/02/22-rdf-syntax-ns#"
   xmlns:svg="http://www.w3.org/2000/svg"
   xmlns="http://www.w3.org/2000/svg"
   xmlns:sodipodi="http://sodipodi.sourceforge.net/DTD/sodipodi-0.dtd"
   xmlns:inkscape="http://www.inkscape.org/namespaces/inkscape"
   width="256"
   height="256"
   id="svg28860"
   version="1.1"
   inkscape:version="0.48.4 r9939"
   sodipodi:docname="item-box2.svg">
  <defs
     id="defs28862" />
  <sodipodi:namedview
     id="base"
     pagecolor="#ffffff"
     bordercolor="#666666"
     borderopacity="1.0"
     inkscape:pageopacity="0.0"
     inkscape:pageshadow="2"
     inkscape:zoom="1.1224609"
     inkscape:cx="285.91004"
     inkscape:cy="126.22238"
     inkscape:document-units="px"
     inkscape:current-layer="layer1"
     showgrid="false"
     inkscape:window-width="1680"
     inkscape:window-height="988"
     inkscape:window-x="-8"
     inkscape:window-y="-8"
     inkscape:window-maximized="1" />
  <metadata
     id="metadata28865">
    <rdf:RDF>
      <cc:Work
         rdf:about="">
        <dc:format>image/svg+xml</dc:format>
        <dc:type
           rdf:resource="http://purl.org/dc/dcmitype/StillImage" />
        <dc:title></dc:title>
      </cc:Work>
    </rdf:RDF>
  </metadata>
  <g
     inkscape:label="Layer 1"
     inkscape:groupmode="layer"
     id="layer1"
     transform="translate(0,-796.36218)">
    <g
       id="g30956"
       transform="matrix(0.77438325,0,0,0.77438325,-140.0266,311.33552)">
      <path
         d="m 467,830.36218 c 0,60.19904 -48.80096,109 -109,109 -60.19904,0 -109,-48.80096 -109,-109 0,-60.19904 48.80096,-109 109,-109 60.19904,0 109,48.80096 109,109 z"
         sodipodi:ry="109"
         sodipodi:rx="109"
         sodipodi:cy="830.36218"
         sodipodi:cx="358"
         id="path30774"
         style="fill:#0e1543;fill-opacity:1;stroke:#111115;stroke-width:4;stroke-linecap:round;stroke-linejoin:round;stroke-miterlimit:4;stroke-opacity:1;stroke-dasharray:none"
         sodipodi:type="arc" />
      <path
         d="m 467,830.36218 c 0,60.19904 -48.80096,109 -109,109 -60.19904,0 -109,-48.80096 -109,-109 0,-60.19904 48.80096,-109 109,-109 60.19904,0 109,48.80096 109,109 z"
         sodipodi:ry="109"
         sodipodi:rx="109"
         sodipodi:cy="830.36218"
         sodipodi:cx="358"
         id="path30774-4"
         style="fill:#131c5a;fill-opacity:1;stroke:none"
         sodipodi:type="arc"
         transform="matrix(0.68348624,0,0,0.68348624,131.81192,238.82106)" />
      <path
         d="m 467,830.36218 c 0,60.19904 -48.80096,109 -109,109 -60.19904,0 -109,-48.80096 -109,-109 0,-60.19904 48.80096,-109 109,-109 60.19904,0 109,48.80096 109,109 z"
         sodipodi:ry="109"
         sodipodi:rx="109"
         sodipodi:cy="830.36218"
         sodipodi:cx="358"
         id="path30774-4-8"
         style="fill:#181c72;fill-opacity:1;stroke:none"
         sodipodi:type="arc"
         transform="matrix(0.3761468,0,0,0.3761468,261.33945,480.02411)" />
      <path
         d="m 467,830.36218 c 0,60.19904 -48.80096,109 -109,109 -60.19904,0 -109,-48.80096 -109,-109 0,-60.19904 48.80096,-109 109,-109 60.19904,0 109,48.80096 109,109 z"
         sodipodi:ry="109"
         sodipodi:rx="109"
         sodipodi:cy="830.36218"
         sodipodi:cx="358"
         id="path30774-4-8-4"
         style="fill:#5761db;fill-opacity:1;stroke:none"
         sodipodi:type="arc"
         transform="matrix(0.06995414,0,0,0.06995414,379.58142,724.89992)" />
      <g
         transform="matrix(0.8195351,-0.57302899,0.57302899,0.8195351,-387.9257,373.00485)"
         id="g30931">
        <path
           style="fill:#131c5a;fill-opacity:1;stroke:#0e1543;stroke-width:4;stroke-linecap:butt;stroke-linejoin:miter;stroke-miterlimit:4;stroke-opacity:1;stroke-dasharray:none"
           d="m 369.81685,679.36335 0,20.68288 c 0,0 -6.54074,4.94975 -20.85965,4.94975 -14.31892,0 -22.62742,-4.94975 -22.62742,-4.94975 l 0,-21.21321"
           id="path30830"
           inkscape:connector-curvature="0"
           sodipodi:nodetypes="ccscc" />
        <path
           sodipodi:type="arc"
           style="fill:#131c5a;fill-opacity:1;stroke:#0e1543;stroke-width:4;stroke-linecap:round;stroke-linejoin:round;stroke-miterlimit:4;stroke-opacity:1;stroke-dasharray:none"
           id="path30832"
           sodipodi:cx="347.98492"
           sodipodi:cy="678.65625"
           sodipodi:rx="22.185474"
           sodipodi:ry="3.7123106"
           d="m 370.1704,678.65625 c 0,2.05025 -9.93278,3.71231 -22.18548,3.71231 -12.25269,0 -22.18547,-1.66206 -22.18547,-3.71231 0,-2.05025 9.93278,-3.71231 22.18547,-3.71231 12.2527,0 22.18548,1.66206 22.18548,3.71231 z"
           transform="matrix(0.97732714,0,0,1.6025979,8.0665901,-409.22202)" />
        <path
           style="font-size:medium;font-style:normal;font-variant:normal;font-weight:normal;font-stretch:normal;text-indent:0;text-align:start;text-decoration:none;line-height:normal;letter-spacing:normal;word-spacing:normal;text-transform:none;direction:ltr;block-progression:tb;writing-mode:lr-tb;text-anchor:start;baseline-shift:baseline;color:#000000;fill:#e6e6e6;fill-opacity:1;stroke:#999999;stroke-width:1;stroke-miterlimit:4;stroke-dasharray:none;marker:none;visibility:visible;display:inline;overflow:visible;enable-background:accumulate;font-family:Sans;-inkscape-font-specification:Sans"
           d="m 401.625,632.40625 c -4.99525,0.30002 -9.96553,1.2284 -14.78125,2.71875 -19.26287,5.96141 -39.84912,24.78167 -43.17586,42.39721 4.38684,2.47487 7.39461,-0.11596 7.39461,-0.11596 5.25247,-16.8454 20.5958,-30.25591 37.84375,-35.59375 17.24795,-5.33784 35.88535,-2.77352 48.65625,11.59375 L 442.78125,648.75 C 431.70829,636.29292 416.61074,631.50619 401.625,632.40625 z"
           id="path30836"
           inkscape:connector-curvature="0"
           sodipodi:nodetypes="ssccsccs" />
        <path
           style="fill:none;stroke:#999999;stroke-width:1px;stroke-linecap:butt;stroke-linejoin:miter;stroke-opacity:1"
           d="m 347.27782,667.25415 c 0.15206,3.83011 2.28717,5.7568 4.41942,7.33623"
           id="path30842"
           inkscape:connector-curvature="0" />
        <path
           style="fill:none;stroke:#999999;stroke-width:1px;stroke-linecap:butt;stroke-linejoin:miter;stroke-opacity:1"
           d="m 351.07852,661.77407 c -0.67682,3.5245 1.51188,6.13154 3.0052,7.68979"
           id="path30844"
           inkscape:connector-curvature="0" />
        <path
           style="fill:none;stroke:#999999;stroke-width:1px;stroke-linecap:butt;stroke-linejoin:miter;stroke-opacity:1"
           d="m 355.14438,656.38238 c -0.56599,3.57832 0.82345,6.24527 2.03293,8.30851"
           id="path30846"
           inkscape:connector-curvature="0" />
        <path
           style="fill:none;stroke:#999999;stroke-width:1px;stroke-linecap:butt;stroke-linejoin:miter;stroke-opacity:1"
           d="m 359.91735,650.90231 c -0.37947,3.16811 0.28021,6.71262 0.97227,8.92722"
           id="path30848"
           inkscape:connector-curvature="0" />
        <path
           style="fill:none;stroke:#999999;stroke-width:1px;stroke-linecap:butt;stroke-linejoin:miter;stroke-opacity:1"
           d="m 364.24838,647.54355 c -0.22067,2.82354 0.23288,6.18637 0.61872,8.3085"
           id="path30850"
           inkscape:connector-curvature="0" />
        <path
           style="fill:none;stroke:#999999;stroke-width:1px;stroke-linecap:butt;stroke-linejoin:miter;stroke-opacity:1"
           d="m 370.08201,643.03574 c -1.36994,2.94162 -1.34888,6.81745 -1.14905,9.01562"
           id="path30852"
           inkscape:connector-curvature="0" />
        <path
           style="fill:none;stroke:#999999;stroke-width:1px;stroke-linecap:butt;stroke-linejoin:miter;stroke-opacity:1"
           d="m 375.65048,639.76537 c -1.07135,2.88527 -1.59099,5.71136 -1.59099,8.66206"
           id="path30854"
           inkscape:connector-curvature="0" />
        <path
           style="fill:none;stroke:#999999;stroke-width:1.02550912px;stroke-linecap:butt;stroke-linejoin:miter;stroke-opacity:1"
           d="m 382.09008,637.03809 c -1.30873,2.64502 -1.75442,5.17279 -1.91905,8.19461"
           id="path30856"
           inkscape:connector-curvature="0" />
        <path
           style="fill:none;stroke:#999999;stroke-width:1px;stroke-linecap:butt;stroke-linejoin:miter;stroke-opacity:1"
           d="m 387.93646,634.90402 c -1.18426,2.4684 -1.2988,4.88324 -1.59099,7.51301"
           id="path30858"
           inkscape:connector-curvature="0" />
        <path
           style="fill:none;stroke:#999999;stroke-width:1px;stroke-linecap:butt;stroke-linejoin:miter;stroke-opacity:1"
           d="m 392.88621,633.84336 c -0.21995,2.35962 -0.71178,4.59163 -1.06066,6.89429"
           id="path30860"
           inkscape:connector-curvature="0" />
        <path
           style="fill:none;stroke:#999999;stroke-width:1px;stroke-linecap:butt;stroke-linejoin:miter;stroke-opacity:1"
           d="m 399.60372,632.87108 c -0.73936,2.27072 -1.10895,4.64171 -1.41421,6.71752"
           id="path30862"
           inkscape:connector-curvature="0" />
        <path
           style="fill:none;stroke:#999999;stroke-width:1px;stroke-linecap:butt;stroke-linejoin:miter;stroke-opacity:1"
           d="m 406.85157,632.51753 c -2.41864,2.00123 -2.06899,4.06877 -1.76777,6.62913"
           id="path30864"
           inkscape:connector-curvature="0" />
        <path
           style="fill:none;stroke:#999999;stroke-width:1.01906884px;stroke-linecap:butt;stroke-linejoin:miter;stroke-opacity:1"
           d="m 415.4157,633.32256 c -2.77683,1.17348 -3.36486,2.88011 -3.95841,5.90295"
           id="path30866"
           inkscape:connector-curvature="0" />
        <path
           style="fill:none;stroke:#999999;stroke-width:1.06387389px;stroke-linecap:butt;stroke-linejoin:miter;stroke-opacity:1"
           d="m 423.79019,635.55467 c -4.33172,0.29675 -5.41622,1.99001 -6.65364,5.15104"
           id="path30868"
           inkscape:connector-curvature="0" />
        <path
           style="fill:none;stroke:#999999;stroke-width:1px;stroke-linecap:butt;stroke-linejoin:miter;stroke-opacity:1"
           d="m 431.33514,639.23504 c -4.33711,-0.47164 -5.63871,1.06265 -6.62913,4.33103"
           id="path30870"
           inkscape:connector-curvature="0" />
        <path
           style="fill:none;stroke:#999999;stroke-width:1px;stroke-linecap:butt;stroke-linejoin:miter;stroke-opacity:1"
           d="m 436.01972,642.41703 c -3.2499,0.52823 -3.75231,2.7546 -4.41942,5.12652"
           id="path30872"
           inkscape:connector-curvature="0" />
        <path
           style="fill:none;stroke:#999999;stroke-width:1px;stroke-linecap:butt;stroke-linejoin:miter;stroke-opacity:1"
           d="m 441.41141,647.72033 c -3.09543,0.25122 -3.91198,2.10723 -4.94975,4.33103"
           id="path30874"
           inkscape:connector-curvature="0" />
        <path
           sodipodi:type="star"
           style="fill:#fff790;fill-opacity:1;stroke:none"
           id="path30882"
           sodipodi:sides="15"
           sodipodi:cx="442.11853"
           sodipodi:cy="651.16748"
           sodipodi:r1="8.179266"
           sodipodi:r2="3.1081216"
           sodipodi:arg1="-2.5835661"
           sodipodi:arg2="-2.3741266"
           inkscape:flatsided="false"
           inkscape:rounded="0"
           inkscape:randomized="0"
           d="m 435.18004,646.83645 4.70166,2.17302 -2.3402,-4.62072 3.41133,3.89749 -0.25847,-5.17308 1.53115,4.94804 1.86796,-4.83097 -0.61377,5.14304 3.6714,-3.65355 -2.65257,4.44876 4.84002,-1.84439 -4.23271,2.98525 5.17176,0.28368 -5.08099,1.00555 4.60925,2.3627 -5.0507,-1.148 3.24976,4.03319 -4.14712,-3.10306 1.32837,5.0063 -2.52645,-4.52158 -0.82273,5.11378 -0.46894,-5.15826 -2.83155,4.33703 1.66965,-4.90304 -4.35078,2.81038 3.51955,-3.80004 -5.11772,0.79779 4.76088,-2.03998 -4.99976,-1.35276 5.17902,0.0728 z"
           inkscape:transform-center-x="-0.029428789"
           inkscape:transform-center-y="0.060047759" />
        <path
           transform="translate(-26.75,-13.25)"
           style="fill:#ffd221;fill-opacity:1;stroke:#ffa110;stroke-width:1.79999995;stroke-linecap:round;stroke-linejoin:round;stroke-miterlimit:4;stroke-opacity:1"
           inkscape:transform-center-x="0.16633584"
           inkscape:transform-center-y="-0.088046928"
           d="m 453.96623,643.86675 8.92358,8.83015 0.40528,-8.87627 4.54805,11.41706 3.34716,-8.08651 0.3861,7.77986 7.7056,-6.41834 -4.81629,9.51936 13.35199,-5.33311 -8.82785,7.85351 6.91052,1.1912 -9.07992,3.07972 15.21978,7.03584 -14.66149,-2.76981 4.48563,7.0915 -7.01522,-2.81332 4.62071,12.90693 -9.4474,-13.59698 -1.72366,11.18517 -2.07491,-10.11317 -5.9166,6.98148 1.40633,-9.03487 -7.25005,3.96543 5.98845,-7.02225 -15.9578,2.74501 12.37912,-6.84153 -12.20131,-2.2386 12.76369,-1.92238 -3.25334,-4.85206 7.15277,2.75965 z"
           id="path30876"
           inkscape:connector-curvature="0"
           sodipodi:nodetypes="ccccccccccccccccccccccccccccccc" />
        <path
           style="fill:#fff790;fill-opacity:1;stroke:none"
           inkscape:transform-center-x="0.073263852"
           inkscape:transform-center-y="-0.0387803"
           d="m 435.2627,641.44179 3.93029,3.88914 0.17851,-3.90946 2.00314,5.02852 1.47421,-3.56161 0.17006,3.42655 3.39384,-2.82689 -2.12128,4.1927 5.88074,-2.34891 -3.88813,3.45899 3.04366,0.52465 -3.99915,1.35643 6.70338,3.09886 -6.45749,-1.21993 1.97565,3.12337 -3.08978,-1.2391 2.03515,5.68472 -4.16101,-5.98864 -0.75917,4.92638 -0.91386,-4.45423 -2.60591,3.07491 0.6194,-3.97931 -3.1932,1.74654 2.63755,-3.09287 -7.02844,1.209 5.45224,-3.01327 -5.37392,-0.98597 5.62162,-0.84669 -1.4329,-2.13704 3.15036,1.21546 z"
           id="path30876-9"
           inkscape:connector-curvature="0"
           sodipodi:nodetypes="ccccccccccccccccccccccccccccccc" />
      </g>
    </g>
  </g>
</svg>
