<?xml version="1.0" encoding="utf-8"?>
<!-- Generator: Adobe Illustrator 19.0.0, SVG Export Plug-In . SVG Version: 6.00 Build 0)  -->
<svg version="1.1" id="Layer_1" xmlns="http://www.w3.org/2000/svg" xmlns:xlink="http://www.w3.org/1999/xlink" x="0px" y="0px"
	 width="89.2px" height="93.9px" viewBox="0 0 89.2 93.9" enable-background="new 0 0 89.2 93.9" xml:space="preserve">
<g id="g4420_8_" transform="matrix(0.58673783,0,0,0.58673783,326.54098,313.19625)">
	<path id="rect3218-7-0_10_" fill="#010101" fill-opacity="0.1647" d="M-525.3-527h89.4c17.3,0,31.3,14,31.3,31.3v90.7
		c0,17.3-14,31.3-31.3,31.3h-89.4c-17.3,0-31.3-14-31.3-31.3v-90.7C-556.5-513-542.5-527-525.3-527z"/>
	<path id="rect3218-7_8_" fill="#F5F4BC" d="M-525.3-533.8h89.4c17.3,0,31.3,14,31.3,31.3v90.7c0,17.3-14,31.3-31.3,31.3h-89.4
		c-17.3,0-31.3-14-31.3-31.3v-90.7C-556.5-519.8-542.5-533.8-525.3-533.8z"/>
	<path id="rect3218_8_" fill="#D9D723" stroke="#6A863A" d="M-520.2-526.4h80c16.6,0,30,13.4,30,30v77.5c0,16.6-13.4,30-30,30h-80
		c-16.6,0-30-13.4-30-30v-77.5C-550.2-513-536.8-526.4-520.2-526.4z"/>
	<path id="path3222_8_" sodipodi:nodetypes="cssscssc" inkscape:connector-curvature="0" fill="#E6E349" d="M-410.9-428.8
		c0,0-0.5-19.4-0.5-55.8c0-28.9-12-40.3-28.7-40.3c-11.7,0-69-0.1-79.3,0c-11.9,0.1-28.3,8.9-29.6,30c0,0,13.5-17.7,31.8-20.6
		c19.7-3.1,52.5-5.1,71,5.2C-427.7-499.9-413.7-500.1-410.9-428.8z"/>
	<path id="path3222-1_14_" sodipodi:nodetypes="cssscssc" inkscape:connector-curvature="0" fill="#A8B639" d="M-549.4-478
		c0,0-0.4,23.7-0.4,60c0,14.3,12.8,29,31.4,29c11.7,0,67.8-0.2,78-0.4c11.9-0.1,20.5-7,24.7-13.5c0,0-8.2,5.6-27.6,6.4
		c-19.9,0.8-65.1,6.4-83.6-4C-545.3-410.8-541.7-425.2-549.4-478z"/>
	<path id="path4072_3_" sodipodi:nodetypes="cssssssc" inkscape:connector-curvature="0" fill="#6A863A" d="M-549.8-431.1
		c0,0-0.2,7.6-0.2,12.4c0,7.6,3,15.2,8.8,21c5.8,5.8,12.9,8.5,15.2,8.7s13.6,0.5,18.9,0.5c5.3,0-7.8-1.8-13.3-2.5
		c-5.5-0.7-14.1-4.8-17.7-7.8C-541.5-401.8-549.1-409.2-549.8-431.1L-549.8-431.1z"/>
</g>
<g>
	<path fill="#F9F9F8" d="M70.1,47c0,2.3-1.9,4.2-4.2,4.2H23c-2.3,0-4.2-1.9-4.2-4.2v-5.8c0-2.3,1.9-4.2,4.2-4.2h42.9
		c2.3,0,4.2,1.9,4.2,4.2V47z"/>
	<path fill="#F9F9F8" d="M41.5,69.7c-2.3,0-4.2-1.9-4.2-4.2V22.6c0-2.3,1.9-4.2,4.2-4.2h5.8c2.3,0,4.2,1.9,4.2,4.2v42.9
		c0,2.3-1.9,4.2-4.2,4.2H41.5z"/>
</g>
</svg>
