<svg xmlns="http://www.w3.org/2000/svg" width="362.3" height="93.97" viewBox="11.286 20.433 362.297 93.971" style="enable-background:new 11.286 20.433 362.297 93.971"><g transform="matrix(.587 0 0 .587-27.931-410.35)"><path d="m98.13 741.02h554.89c17.283 0 31.29 14.01 31.29 31.29v90.74c0 17.283-14.01 31.29-31.29 31.29h-554.89c-17.283 0-31.29-14.01-31.29-31.29v-90.74c0-17.283 14.01-31.29 31.29-31.29" style="fill-opacity:.165"/><path d="m98.13 734.2h554.89c17.283 0 31.29 14.01 31.29 31.29v90.74c0 17.283-14.01 31.29-31.29 31.29h-554.89c-17.283 0-31.29-14.01-31.29-31.29v-90.74c0-17.283 14.01-31.29 31.29-31.29" style="fill:#f7f9b9"/><path d="m103.18 741.56h545.5c16.567 0 29.999 13.431 29.999 30v77.5c0 16.567-13.432 29.999-29.999 29.999h-545.5c-16.568 0-30-13.432-30-29.999v-77.5c0-16.569 13.432-30 30-30z" style="fill:#d8d719;stroke:#698612"/><path d="m677.96 839.2c0 0-.531-19.423-.531-55.791 0-28.945-12.05-40.35-28.749-40.35-11.751 0-534.5-.108-544.75 0-11.875.125-28.3 8.919-29.614 29.974 0 0 13.516-17.662 31.864-20.583 19.712-3.139 518-5.141 536.5 5.25 18.501 10.392 32.532 10.179 35.28 81.5" style="fill:#e6e447"/><path d="m73.991 790.06c0 0-.354 23.667-.354 60.03 0 14.272 12.757 29.04 31.401 29.04 11.75 0 533.26-.246 543.51-.354 11.875-.125 20.517-6.976 24.665-13.535 0 0-8.214 5.642-27.622 6.443-19.943.82-530.55 6.376-549.05-4.01-18.5-10.391-14.853-24.852-22.552-77.61" style="fill:#a9b618"/><path d="m671.82 781.76c0 0-11.136-16.09-16.794-20.15-5.656-4.065-19.445-8.839-28.99-9.545-9.547-.707-42.956-1.591-42.956-1.591s33.94-2.301 44.37-2.121c13.269.229 29.27 4.435 32.704 7.778 3.491 3.403 10.959 11.312 11.665 25.631" style="fill:#efef90"/><path d="m73.61 836.91c0 0-.177 7.601-.177 12.375 0 7.601 3.01 15.203 8.839 21.04 5.834 5.834 12.905 8.485 15.203 8.661 2.298.178 13.611.531 18.915.531 5.303 0-7.779-1.768-13.259-2.475-5.48-.707-14.14-4.773-17.678-7.778-3.535-3.01-11.137-10.43-11.843-32.35" style="fill:#698612"/></g></svg>