<?xml version="1.0" encoding="utf-8"?>
<!-- Generator: Adobe Illustrator 19.0.0, SVG Export Plug-In . SVG Version: 6.00 Build 0)  -->
<svg version="1.1" id="Layer_1" xmlns="http://www.w3.org/2000/svg" xmlns:xlink="http://www.w3.org/1999/xlink" x="0px" y="0px"
	 width="89.2px" height="93.9px" viewBox="0 0 89.2 93.9" enable-background="new 0 0 89.2 93.9" xml:space="preserve">
<g id="XMLID_14_">
	<path id="XMLID_16_" fill="#C0BEBE" d="M70.8,4H18.4C8.2,4,0,12.2,0,22.4v53.2c0,10.1,8.2,18.4,18.4,18.4h52.4
		c10.1,0,18.4-8.2,18.4-18.4V22.4C89.2,12.2,80.9,4,70.8,4"/>
	<path id="XMLID_17_" fill="#F5F4BC" d="M18.4,0h52.4c10.1,0,18.4,8.2,18.4,18.4v53.2c0,10.1-8.2,18.4-18.4,18.4H18.4
		C8.2,89.9,0,81.7,0,71.6V18.4C0,8.2,8.2,0,18.4,0z"/>
	<path id="XMLID_18_" fill="#D9D723" d="M21.3,4.3h46.9c9.7,0,17.6,7.9,17.6,17.6v45.4C85.8,77.1,78,85,68.3,85H21.3
		c-9.7,0-17.6-7.9-17.6-17.6V21.9C3.7,12.2,11.6,4.3,21.3,4.3z"/>
	<path id="XMLID_19_" fill="#6A863A" d="M21.3,4.3v0.5h46.9c4.7,0,9,1.9,12.1,5c3.1,3.1,5,7.4,5,12.1v45.4c0,4.7-1.9,9-5,12.1
		c-3.1,3.1-7.4,5-12.1,5H21.3c-4.7,0-9-1.9-12.1-5c-3.1-3.1-5-7.4-5-12.1V21.9c0-4.7,1.9-9,5-12.1c3.1-3.1,7.4-5,12.1-5V4.3V3.8
		c-10,0-18.1,8.1-18.1,18.1v45.4c0,10,8.1,18.1,18.1,18.1h46.9c10,0,18.1-8.1,18.1-18.1V21.9c0-10-8.1-18.1-18.1-18.1H21.3V4.3z"/>
	<path id="XMLID_20_" fill="#E6E349" d="M85.4,61.6c0,0-0.3-11.4-0.3-32.7c0-17-7.1-23.7-16.9-23.7c-6.9,0-40.5-0.1-46.5,0
		c-7,0.1-16.6,5.2-17.4,17.6c0,0,7.9-10.4,18.7-12.1c11.6-1.8,30.8-3,41.7,3.1C75.6,19.9,83.8,19.8,85.4,61.6z"/>
	<path id="XMLID_21_" fill="#A8B639" d="M4.2,32.8C4.2,32.8,4,46.6,4,68c0,8.4,7.5,17,18.4,17c6.9,0,39.8-0.1,45.8-0.2
		c7-0.1,12-4.1,14.5-7.9c0,0-4.8,3.3-16.2,3.8c-11.7,0.5-38.2,3.7-49-2.4C6.6,72.2,8.7,63.7,4.2,32.8z"/>
	<path id="XMLID_22_" fill="#6A863A" d="M4,60.2c0,0-0.1,4.5-0.1,7.3c0,4.5,1.8,8.9,5.2,12.3c3.4,3.4,7.6,5,8.9,5.1
		c1.3,0.1,8,0.3,11.1,0.3s-4.6-1-7.8-1.5S13,81,10.9,79.2C8.8,77.4,4.4,73.1,4,60.2L4,60.2z"/>
	<path id="XMLID_23_" fill="#F9F9F8" d="M70.1,47c0,2.3-1.9,4.2-4.2,4.2H23c-2.3,0-4.2-1.9-4.2-4.2v-5.8c0-2.3,1.9-4.2,4.2-4.2h42.9
		c2.3,0,4.2,1.9,4.2,4.2V47z"/>
	<path id="XMLID_24_" fill="#F9F9F8" d="M41.5,69.7c-2.3,0-4.2-1.9-4.2-4.2V22.6c0-2.3,1.9-4.2,4.2-4.2h5.8c2.3,0,4.2,1.9,4.2,4.2
		v42.9c0,2.3-1.9,4.2-4.2,4.2H41.5z"/>
</g>
</svg>
