<?xml version="1.0" encoding="utf-8"?>
<!-- Generator: Adobe Illustrator 16.0.0, SVG Export Plug-In . SVG Version: 6.00 Build 0)  -->
<!DOCTYPE svg PUBLIC "-//W3C//DTD SVG 1.1//EN" "http://www.w3.org/Graphics/SVG/1.1/DTD/svg11.dtd">
<svg version="1.1"
	 id="Layer_1" xmlns:sodipodi="http://sodipodi.sourceforge.net/DTD/sodipodi-0.dtd" xmlns:inkscape="http://www.inkscape.org/namespaces/inkscape"
	 xmlns="http://www.w3.org/2000/svg" xmlns:xlink="http://www.w3.org/1999/xlink" x="0px" y="0px" width="71.448px"
	 height="76.371px" viewBox="270.136 357.848 71.448 76.371" enable-background="new 270.136 357.848 71.448 76.371"
	 xml:space="preserve">
<g id="g4420_10_" transform="matrix(0.58673783,0,0,0.58673783,326.54098,313.19625)">
	<path id="rect3218-7-0_20_" fill="#010101" fill-opacity="0.1647" d="M-85.625,78.395H15.129c5.804,0,10.509,4.704,10.509,10.509
		v106.851c0,5.805-4.705,10.509-10.509,10.509H-85.625c-5.805,0-10.509-4.704-10.509-10.509V88.904
		C-96.134,83.098-91.429,78.395-85.625,78.395z"/>
	<path id="rect3218-7_10_" fill="#FFFFFF" d="M-85.625,76.101H15.129c5.804,0,10.509,4.705,10.509,10.509v106.852
		c0,5.804-4.705,10.509-10.509,10.509H-85.625c-5.805,0-10.509-4.705-10.509-10.509V86.61
		C-96.134,80.806-91.429,76.101-85.625,76.101z"/>
	<path id="rect3218_10_" fill="#75BB43" d="M-83.93,78.574h97.602c5.566,0,10.075,4.511,10.075,10.075v102.405
		c0,5.564-4.509,10.075-10.075,10.075H-83.93c-5.564,0-10.074-4.51-10.074-10.075V88.649C-94.005,83.085-89.494,78.574-83.93,78.574
		z"/>
	<path id="path3222_10_" sodipodi:nodetypes="cssscssc" inkscape:connector-curvature="0" fill="#258542" d="M23.746,105.949
		c0,0,0.153-1.679,0.153-13.893c0-10.218-4.619-13.55-10.228-13.55c-3.945,0-93.908-0.037-97.349,0
		c-3.988,0.042-10.074,2.994-10.516,10.066c0,0,5.111-5.932,11.273-6.912c6.619-1.054,89.213-0.373,94.579,0.047
		C17.022,82.125,22.822,81.996,23.746,105.949z"/>
	<path id="path3222-1_19_" sodipodi:nodetypes="cssscssc" inkscape:connector-curvature="0" fill="#258542" d="M-93.886,171.218
		c0,0-0.119,7.948-0.119,20.161c0,4.792,4.284,9.75,10.545,9.75c3.946,0,93.493-0.083,96.935-0.12
		c3.988-0.042,6.889-2.342,8.282-4.545c0,0-2.758,1.894-9.276,2.164c-6.698,0.276-92.583,2.142-98.794-1.348
		C-92.525,193.79-91.3,188.935-93.886,171.218z"/>
	<path id="path3222-1_18_" sodipodi:nodetypes="cssscssc" inkscape:connector-curvature="0" fill="#258542" d="M13.475,201.01
		c5.692,0.118,7.307-2.342,8.698-4.545c0,0-3.174,1.894-9.69,2.164"/>
</g>
</svg>
