<svg xmlns="http://www.w3.org/2000/svg" width="101.25" height="104.13" viewBox="128.976 -11.069 101.246 104.129" style="enable-background:new 128.976 -11.069 101.246 104.129"><g transform="matrix(.959 0 0 .959-450.59-34.01)"><path d="m709.13 79.953c0 28.996-23.506 52.5-52.5 52.5-28.997 0-52.5-23.506-52.5-52.5s23.505-52.5 52.5-52.5c28.997 0 52.5 23.505 52.5 52.5" style="fill-opacity:.165"/><path d="m709.66 76.42c0 28.995-23.506 52.5-52.5 52.5-28.997 0-52.5-23.506-52.5-52.5 0-28.996 23.506-52.5 52.5-52.5 28.995.0001 52.5 23.507 52.5 52.5" style="fill:#fdf5f3"/><path d="m702.21 76.44c0 24.725-20.04 44.768-44.768 44.768-24.725 0-44.768-20.04-44.768-44.768 0-24.725 20.04-44.768 44.768-44.768 24.725 0 44.768 20.04 44.768 44.768z" style="fill:#3c5a99;fill-opacity:.941;stroke:#24365c"/><path d="m632.72 40.922c0 0 7.578-8.143 24.897-8.143 17.321 0 30.15 8.926 37.888 22.08 7.732 13.154 5.723 26.15 4.33 33.04 0 0-.527-27.14-23.569-42.33-23.04-15.19-43.546-4.645-43.546-4.645" style="fill:#5d7cc0"/><path d="m682.52 112.98c0 0-7.703 7.644-25.02 7.644-17.32 0-30.655-9.05-38.39-22.2-7.731-13.155-6.347-25.276-4.954-32.17 0 0 .364 25.953 23.405 41.14 23.04 15.188 44.959 5.584 44.959 5.584" style="fill:#3c5a99"/></g><path d="m183.34 65.19v-22.07h7.408l1.109-8.602h-8.518v-5.49c0-2.49.691-4.188 4.263-4.188h4.556v-7.693c-.788-.104-3.492-.339-6.638-.339-6.566 0-11.06 4.01-11.06 11.37v6.344h-7.427v8.602h7.427v22.07h8.883v-.002" style="fill:#fff"/></svg>