<?xml version="1.0" encoding="utf-8"?>
<!-- Generator: Adobe Illustrator 19.0.0, SVG Export Plug-In . SVG Version: 6.00 Build 0)  -->
<svg version="1.1"
	 id="Layer_1" xmlns:inkscape="http://www.inkscape.org/namespaces/inkscape" xmlns:sodipodi="http://sodipodi.sourceforge.net/DTD/sodipodi-0.dtd"
	 xmlns="http://www.w3.org/2000/svg" xmlns:xlink="http://www.w3.org/1999/xlink" x="0px" y="0px" width="129.7px" height="138.6px"
	 viewBox="241.4 327.2 129.7 138.6" enable-background="new 241.4 327.2 129.7 138.6" xml:space="preserve">
<g id="g4420_6_" transform="matrix(0.58673783,0,0,0.58673783,326.54098,313.19625)">
	<path id="rect3218-7-0_12_" fill="#010101" fill-opacity="0.1647" d="M-126,28H56.9c10.5,0,19.1,8.5,19.1,19.1V241
		c0,10.5-8.5,19.1-19.1,19.1H-126c-10.5,0-19.1-8.5-19.1-19.1V47C-145.1,36.5-136.5,28-126,28z"/>
	<path id="rect3218-7_6_" fill="#FFFFFF" d="M-126,23.8H56.9c10.5,0,19.1,8.5,19.1,19.1v193.9c0,10.5-8.5,19.1-19.1,19.1H-126
		c-10.5,0-19.1-8.5-19.1-19.1V42.9C-145.1,32.3-136.5,23.8-126,23.8z"/>
	<path id="rect3218_6_" fill="#75BB43" d="M-122.9,28.3H54.2c10.1,0,18.3,8.2,18.3,18.3v185.9c0,10.1-8.2,18.3-18.3,18.3h-177.1
		c-10.1,0-18.3-8.2-18.3-18.3V46.6C-141.2,36.5-133,28.3-122.9,28.3z"/>
	<path id="path3222_6_" inkscape:connector-curvature="0" sodipodi:nodetypes="cssscssc" fill="#258542" d="M72.5,78
		c0,0,0.3-3,0.3-25.2c0-18.5-8.4-24.6-18.6-24.6c-7.2,0-170.4-0.1-176.7,0c-7.2,0.1-18.3,5.4-19.1,18.3c0,0,9.3-10.8,20.5-12.5
		c12-1.9,161.9-0.7,171.7,0.1S70.8,34.5,72.5,78z"/>
	<path id="path3222-1_11_" inkscape:connector-curvature="0" sodipodi:nodetypes="cssscssc" fill="#258542" d="M-141,196.4
		c0,0-0.2,14.4-0.2,36.6c0,8.7,7.8,17.7,19.1,17.7c7.2,0,169.7-0.1,175.9-0.2c7.2-0.1,12.5-4.3,15-8.2c0,0-5,3.4-16.8,3.9
		c-12.2,0.5-168,3.9-179.3-2.4C-138.5,237.4-136.3,228.6-141,196.4z"/>
	<path id="path3222-1_10_" inkscape:connector-curvature="0" sodipodi:nodetypes="cssscssc" fill="#258542" d="M53.9,250.5
		c10.3,0.2,13.3-4.3,15.8-8.2c0,0-5.8,3.4-17.6,3.9"/>
</g>
</svg>
