<?xml version="1.0" encoding="utf-8"?>
<!-- Generator: Adobe Illustrator 16.0.0, SVG Export Plug-In . SVG Version: 6.00 Build 0)  -->
<!DOCTYPE svg PUBLIC "-//W3C//DTD SVG 1.1//EN" "http://www.w3.org/Graphics/SVG/1.1/DTD/svg11.dtd">
<svg version="1.1" id="Layer_1" xmlns="http://www.w3.org/2000/svg" xmlns:xlink="http://www.w3.org/1999/xlink" x="0px" y="0px"
	 width="79.77px" height="82.04px" viewBox="0 0 79.77 82.04" enable-background="new 0 0 79.77 82.04" xml:space="preserve">
<g>
	<path fill="none" stroke="#F6F5BB" stroke-width="6" stroke-miterlimit="10" d="M87.25,58.745c0,4.772-3.486,8.641-7.787,8.641
		H12.787C8.487,67.385,5,63.517,5,58.745V24.545c0-4.772,3.486-8.641,7.787-8.641h66.676c4.301,0,7.787,3.868,7.787,8.641V58.745z"
		/>
</g>
<path fill="#D7D525" stroke="#6A873A" stroke-width="0.5386" d="M87,58.745c0,4.772-3.486,8.641-7.787,8.641H12.537
	c-4.301,0-7.787-3.868-7.787-8.641v-34.2c0-4.772,3.486-8.64,7.787-8.64h66.676c4.301,0,7.787,3.868,7.787,8.64V58.745z"/>
<g>
	<path fill="#F6F4BD" stroke="#A9B738" stroke-width="3" stroke-miterlimit="10" d="M29.646,61.868l-3.89-39.605
		c0,0,0.989-1.626,2.122-0.354c1.132,1.272,3.535,39.889,3.535,39.889L29.646,61.868z"/>
	<path fill="#F6F4BD" stroke="#A9B738" stroke-width="3" stroke-miterlimit="10" d="M28.16,22.62c0,0,2.828-2.264,9.548,1.769
		c0,0,3.466,2.477,10.185,1.415c0,0,1.854-0.563,5.8,2.688c1.202,0.989,2.971,1.909,6.295,0.778c0,0,3.395-1.557,6.507,0.07
		c0,0-3.576,1.163-6.083,4.385c-1.979,2.547-5.799,2.191-6.789,2.122c-0.99-0.071-3.252,0.212-6.295,3.395
		c-3.041,3.183-6.01,3.113-7.07,3.254s-5.587-0.425-8.771,2.617l-1.06,0.706l-2.264-23.2L28.16,22.62z"/>
</g>
</svg>
