<svg xmlns="http://www.w3.org/2000/svg" width="100.91" height="101.75" viewBox="13.247 15.382 100.906 101.754" style="enable-background:new 13.247 15.382 100.906 101.754"><g transform="translate(0-924.36)"><g transform="matrix(.959 0 0 .959-452.2 782.01)"><path d="m590.35 217.98c0 28.996-23.506 52.5-52.5 52.5-28.996 0-52.5-23.506-52.5-52.5 0-28.996 23.506-52.5 52.5-52.5 28.996 0 52.5 23.507 52.5 52.5" style="fill-opacity:.165"/><path d="m590.17 216.91c0 28.996-23.506 52.5-52.5 52.5-28.996 0-52.5-23.506-52.5-52.5 0-28.996 23.506-52.5 52.5-52.5 28.997.0001 52.5 23.507 52.5 52.5" style="fill:#f7f9b9"/><path d="m582.72 216.94c0 24.725-20.04 44.768-44.768 44.768s-44.768-20.04-44.768-44.768c0-24.724 20.04-44.767 44.768-44.767s44.768 20.04 44.768 44.767z" style="fill:#a9b618;stroke:#698612"/><path d="m514.11 179.65c0 0 7.578-8.144 24.898-8.144 17.319 0 30.15 8.926 37.888 22.08 7.732 13.154 5.721 26.15 4.329 33.04 0 0-.527-27.14-23.568-42.33-23.04-15.189-43.547-4.644-43.547-4.644" style="fill:#698612"/><path d="m563.03 253.48c0 0-7.702 7.644-25.02 7.644-17.32 0-30.655-9.05-38.39-22.2-7.732-13.154-6.347-25.276-4.955-32.17 0 0 .365 25.954 23.407 41.14 23.04 15.188 44.958 5.583 44.958 5.583" style="fill:#d8d719"/></g><path d="m54.11 960.78v57.661l28.746-28.745-28.746-28.916" style="fill:#a9b618"/><g transform="translate(0 4.655)"><path d="m110.91 91.42c0 2.05-.349 3.93-1.046 5.642-.698 1.711-1.596 3.211-2.694 4.501-.909.992-1.996 1.906-3.265 2.741-1.267.834-2.683 1.622-4.246 2.361v6.307h-14.643v-11.536c.634-.19 1.31-.396 2.029-.618s1.426-.47 2.123-.745c.697-.274 1.358-.565 1.981-.872.623-.306 1.157-.628 1.601-.966.739-.528 1.336-1.173 1.79-1.933.455-.76.682-1.69.682-2.789 0-1.289-.344-2.218-1.031-2.789-.686-.57-1.663-.855-2.931-.855-.507 0-1.104.079-1.791.238-.687.158-1.389.385-2.108.681h.032c-.676.296-1.378.634-2.107 1.014-.729.38-1.4.792-2.01 1.236h-4.437v-11.316c1.036-.486 2.145-.924 3.328-1.315 1.183-.391 2.419-.745 3.708-1.062h-.032c2.366-.592 5.05-.887 8.05-.887 2.683 0 5.07.311 7.163.935 2.092.623 3.846 1.527 5.261 2.71 1.522 1.268 2.668 2.683 3.439 4.247.771 1.563 1.157 3.253 1.157 5.07m-10.49 38.07h-16.07v-11.06h16.07v11.06" transform="matrix(1.108 0 0 1.108-39.507 873.17)" style="fill:#a9b618"/><path d="m109.18 91.42c0 2.05-.349 3.93-1.046 5.642-.698 1.711-1.596 3.211-2.694 4.5-.909.993-1.996 1.907-3.265 2.742-1.267.834-2.683 1.621-4.246 2.361v6.307h-14.643v-11.537c.634-.19 1.31-.396 2.029-.618.718-.222 1.426-.47 2.123-.745.697-.275 1.358-.565 1.981-.872.623-.306 1.157-.629 1.601-.966.739-.528 1.336-1.173 1.79-1.933.455-.761.682-1.69.682-2.789 0-1.289-.344-2.219-1.031-2.789-.686-.57-1.663-.855-2.931-.855-.507 0-1.104.079-1.791.237-.687.159-1.389.386-2.108.681h.032c-.676.296-1.378.634-2.107 1.014-.729.381-1.4.792-2.01 1.236h-4.436v-11.315c1.035-.486 2.144-.924 3.328-1.315 1.183-.391 2.419-.744 3.708-1.062h-.032c2.366-.592 5.05-.888 8.05-.888 2.683 0 5.07.312 7.163.935 2.092.623 3.846 1.526 5.261 2.71 1.522 1.268 2.668 2.684 3.439 4.247.77 1.564 1.156 3.255 1.156 5.072zm-10.49 38.07h-16.07v-11.06h16.07v11.06z" transform="matrix(1.108 0 0 1.108-37.588 870.29)" style="fill:#f7f9b9;stroke:#a9b618"/></g></g></svg>