<svg xmlns="http://www.w3.org/2000/svg" width="731.48" height="102.07" viewBox="26.257 12.819 731.478 102.072" style="enable-background:new 26.257 12.819 731.478 102.072"><g transform="matrix(.981 0 0 .981 26-1034.83)"><path d="m20.952 1070.34h703.43c11.427 0 20.691 9.264 20.691 20.691v59.998c0 11.427-9.264 20.692-20.691 20.692h-703.43c-11.427 0-20.691-9.265-20.691-20.692v-59.998c0-11.427 9.264-20.691 20.691-20.691" style="fill-opacity:.165"/><path d="m20.952 1067.7h704.1c11.427 0 20.691 9.264 20.691 20.691v59.998c0 11.427-9.264 20.692-20.691 20.692h-704.1c-11.427 0-20.691-9.265-20.691-20.692v-59.998c0-11.427 9.264-20.691 20.691-20.691" style="fill:#f7f9b9"/><path d="m24.29 1072.57h695.9c10.955 0 19.836 8.881 19.836 19.836v51.24c0 10.956-8.882 19.835-19.836 19.835h-695.9c-10.955 0-19.836-8.88-19.836-19.835v-51.24c.0001-10.956 8.882-19.836 19.836-19.836z" style="fill:#d8d719;stroke:#698612;stroke-width:.661"/><path d="m740.22 1137.13c0 0-.351-12.843-.351-36.889 0-19.14-7.967-26.678-19.01-26.678-7.769 0-689.29-.071-696.07 0-7.852.083-18.709 5.897-19.58 19.819 0 0 8.936-11.678 21.07-13.61 13.03-2.075 678.6-5.656 690.83 1.214 12.232 6.871 21.295 8.988 23.11 56.14" style="fill:#e6e447"/><path d="m4.99 1104.63c0 0-.234 15.647-.234 39.694 0 9.437 8.435 19.2 20.762 19.2 7.769 0 688.47-.163 695.25-.235 7.852-.083 13.566-4.611 16.307-8.948 0 0-5.43 3.73-18.263 4.259-13.186.543-686.02 5.87-699.24-2.323-11.925-7.388-9.489-16.761-14.58-51.645" style="fill:#a9b618"/><path d="m736.65 1093.8c0 0-5.822-8.409-8.778-10.534-2.957-2.125-10.164-4.62-15.15-4.99-4.989-.369-22.453-.831-22.453-.831s17.74-1.203 23.19-1.109c6.936.12 15.302 2.318 17.09 4.066 1.826 1.778 5.73 5.913 6.1 13.398" style="fill:#efef90"/><path d="m4.741 1135.61c0 0-.117 5.03-.117 8.181 0 5.03 1.987 10.05 5.844 13.91 3.857 3.858 8.532 5.61 10.05 5.727 1.519.117 9 .35 12.506.35 3.507 0-5.143-1.168-8.766-1.636-3.623-.467-9.35-3.155-11.688-5.142-2.338-1.988-7.364-6.897-7.831-21.39" style="fill:#698612"/><path d="m28.66 1082.7h685.98c8.725 0 15.799 7.07 15.799 15.799v40.814c0 8.725-7.07 15.8-15.799 15.8h-685.98c-8.725 0-15.799-7.07-15.799-15.8v-40.814c0-8.726 7.07-15.799 15.799-15.799z" style="fill:#a9b618;stroke:#698612;stroke-width:.527"/><path d="m12.973 1104.12c0 0 .429 12.34.016 31.488-.263 12.216 6.625 19.14 15.442 19.14 6.203 0 680.22.058 685.63 0 6.27-.066 15.406-4.697 16.1-15.785 0 0-7.603 9.302-17.29 10.839-10.407 1.653-671.51 2.707-681.28-2.765-9.765-5.472-17.17-5.36-18.625-42.92" style="fill:#d8d719"/><path d="m730.43 1129.17c0 0-.227-11.636-.227-30.79 0-8.26-6.883-16.2-16.702-16.2-6.188 0-678.87.129-684.27.186-6.254.066-10.805 3.673-12.989 7.128 0 0 4.325-2.971 14.546-3.392 10.503-.433 677.44-3.359 687.19 2.113 9.743 5.473 8.4 13.17 12.455 40.955" style="fill:#698612"/><path d="m13.03 1132.44c0 0-.093 4-.093 6.517 0 4 1.582 8.01 4.655 11.08 3.072 3.072 6.796 4.469 8.01 4.562 1.21.093 7.168.279 9.961.279 2.793 0-4.096-.931-6.983-1.304-2.886-.372-7.447-2.513-9.31-4.095-1.86-1.583-5.864-5.493-6.236-17.04" style="fill:#e6e447"/></g></svg>