<svg xmlns="http://www.w3.org/2000/svg" width="74.61" height="123.62" viewBox="27.339 2.284 74.612 123.622" style="enable-background:new 27.339 2.284 74.612 123.622"><g transform="matrix(.667 0 0 .667-233.27-419.67)"><g style="fill:#808080"><path d="m401.1 718.95h91.75c5.523 0 10 4.477 10 10v78.5c0 5.523-4.478 10-10 10h-91.75c-5.523 0-10-4.477-10-10v-78.5c0-5.522 4.477-10 10-10"/><path d="m449.6 632.96c-13.787 0-24.797 5.799-31.25 13.844-6.454 8.04-8.75 17.531-8.75 25.781v60.37h20v-60.37c0-4.25 1.453-9.608 4.375-13.25 2.922-3.642 6.912-6.375 15.625-6.375 7.477 0 10.947 2.319 13.1 5.718 2.146 3.399 3.155 9.1 3.155 13.906v61.37h19.999v-61.37c0-6.939-.864-16.09-6.217-24.562-5.353-8.475-16.14-15.06-30.03-15.06"/></g><path d="m465.85 719.13c0 0 0-41.812 0-48.19 0-8.75-3.999-18-15.875-18-9.125 0-15.12 3.75-17 7.875 0 0 .75-4 2.624-5.875 1.875-1.875 5.625-4.875 13-4.875 7.376 0 14.626 3.125 16.876 7.875 2.25 4.749 3.624 8 3.624 12.499 0 4.5 0 48.688 0 48.688h-3.249" style="fill:#4d4d4d"/><g style="fill:#b3b3b3"><path d="m483.45 718.89c0 0 0-45.608 0-50.912 0-5.303-4.242-19.445-9.723-24.22-4.713-4.105-10.607-9.723-23.335-9.723-12.728 0-22.01 4.508-31.11 13.611-9.104 9.104-8.839 35.709-8.839 35.709s1.238-13.789 2.475-18.03c1.238-4.242 6.717-16.441 13.435-21.04 6.718-4.597 10.784-7.779 22.627-7.779 11.845 0 23.866 15.557 25.457 21.39 1.591 5.834 0 61.16 0 61.16l9.02-.175"/><path d="m502 769.04c0 0-.097-9.731-.097-27.952 0-20.16-5.376-20.92-8.419-20.92-2.14 0-90.66-.407-92.52-.354-2.163.063-8.626 2.702-8.93 16.08 0 0 2.462-8.848 5.805-10.311 3.591-1.573 94.37-2.575 97.74 2.63 3.371 5.206 5.926 5.099 6.427 40.83"/></g><g style="fill:#4d4d4d"><path d="m390.99 788.45c0 0-.063 7.99-.063 20.268 0 4.817 4.23 9.09 7.57 9.09 2.105 0 93.59.624 95.43.589 2.127-.044 6.504-3.771 7.247-5.984 0 0-4.299 3.318-7.777 3.588-3.573.278-94.34.917-97.66-2.591-3.314-3.509-3.368-7.152-4.748-24.964"/><path d="m409.74 686.71v32.17h2.828c0 0-2.828-23.16-2.828-32.17"/></g><path d="m463.83 638.63c0 0 11.138 5.304 13.259 12.551 2.121 7.248 4.773 11.667 4.773 27.577 0 15.91-.354 33.588-.354 33.588s-1.061-34.648-1.414-39.775c-.353-5.126-2.651-17.854-4.242-21.04-1.592-3.182-6.542-8.309-12.02-12.905" style="fill:#ccc"/><path d="m427.23 718.63c0 0-.375-45.562-.125-47.813.25-2.249.625-6.625 2.5-9.75 0 0-4.625 3.875-5.625 7.625-1 3.75-2.25 13.375-2.5 17.5-.25 4.125-1 32.438-1 32.438h6.75" style="fill:#b3b3b3"/><path d="m445.98 740.96c-8.629 0-15.625 6.995-15.625 15.626 0 6.346 3.785 11.772 9.219 14.218l-6.219 27.406h26.25l-7.219-27.406c5.435-2.446 9.219-7.872 9.219-14.218 0-8.631-6.995-15.626-15.625-15.626" style="fill:#333"/><g style="fill:#b3b3b3"><path d="m433.77 746.8c0 0-3.236 6.695-2.986 10.571.25 3.875 3.308 9.01 5.308 10.638 2 1.623 3.45 2.821 3.45 2.821s-2.566-.639-4.316-2.265c-1.751-1.625-5.125-7.749-5.125-11 0-7.403 3.669-10.765 3.669-10.765"/><path d="m433.42 798h26.16v.706h-26.16z"/></g></g></svg>