<?xml version="1.0" encoding="utf-8"?>
<!-- Generator: Adobe Illustrator 19.0.0, SVG Export Plug-In . SVG Version: 6.00 Build 0)  -->
<svg version="1.1" id="Layer_1" xmlns="http://www.w3.org/2000/svg" xmlns:sodipodi="http://sodipodi.sourceforge.net/DTD/sodipodi-0.dtd" xmlns:inkscape="http://www.inkscape.org/namespaces/inkscape" xmlns:xlink="http://www.w3.org/1999/xlink" x="0px" y="0px"
	 width="544.9px" height="178.6px" viewBox="0 0 544.9 178.6" enable-background="new 0 0 544.9 178.6" xml:space="preserve">
<g id="g4420" transform="matrix(0.58673783,0,0,0.58673783,326.54098,313.19625)">
	<path id="rect3218-7-0" fill="#010101" fill-opacity="0.1647" d="M-525.2-527h866.1c17.3,0,31.3,14,31.3,31.3v234.9
		c0,17.3-14,31.3-31.3,31.3h-866.1c-17.3,0-31.3-14-31.3-31.3v-234.9C-556.5-513-542.5-527-525.2-527z"/>
	<path id="rect3218-7" fill="#FFFFFF" d="M-525.2-533.8h866.1c17.3,0,31.3,14,31.3,31.3v234.9c0,17.3-14,31.3-31.3,31.3h-866.1
		c-17.3,0-31.3-14-31.3-31.3v-234.9C-556.5-519.8-542.5-533.8-525.2-533.8z"/>
	<path id="rect3218" fill="#75BB43" d="M-520.2-526.4h856.7c16.6,0,30,13.4,30,30v221.7c0,16.6-13.4,30-30,30h-856.7
		c-16.6,0-30-13.4-30-30v-221.7C-550.2-513-536.8-526.4-520.2-526.4z"/>
	<path id="path3222" sodipodi:nodetypes="cssscssc" inkscape:connector-curvature="0" fill="#258542" d="M366.5-444.9
		c0,0,0.5-5,0.5-41.4c0-30.4-13.8-40.3-30.5-40.3c-11.8,0-845.7-0.1-855.9,0c-11.9,0.1-30,8.9-31.3,30c0,0,15.2-17.7,33.6-20.6
		c19.7-3.1,831.7-1.1,847.7,0.1C346.5-515.9,363.7-516.2,366.5-444.9z"/>
	<path id="path3222-1" sodipodi:nodetypes="cssscssc" inkscape:connector-curvature="0" fill="#258542" d="M-549.8-333.8
		c0,0-0.4,23.7-0.4,60c0,14.3,12.8,29,31.4,29c11.8,0,844.4-0.2,854.7-0.4c11.9-0.1,20.5-7,24.7-13.5c0,0-8.2,5.6-27.6,6.4
		c-19.9,0.8-841.7,6.4-860.2-4C-545.8-266.6-542.1-281.1-549.8-333.8z"/>
	<path id="path3222-1_2_" sodipodi:nodetypes="cssscssc" inkscape:connector-curvature="0" fill="#258542" d="M335.9-245.1
		c17,0.4,21.8-7,25.9-13.5c0,0-9.4,5.6-28.9,6.4"/>
</g>
</svg>
