<?xml version="1.0" encoding="utf-8"?>
<!-- Generator: Adobe Illustrator 16.0.0, SVG Export Plug-In . SVG Version: 6.00 Build 0)  -->
<!DOCTYPE svg PUBLIC "-//W3C//DTD SVG 1.1//EN" "http://www.w3.org/Graphics/SVG/1.1/DTD/svg11.dtd">
<svg version="1.1" id="Layer_1" xmlns="http://www.w3.org/2000/svg" xmlns:xlink="http://www.w3.org/1999/xlink" x="0px" y="0px"
	 width="617.464px" height="160.138px" viewBox="-120.152 -32.298 617.464 160.138"
	 enable-background="new -120.152 -32.298 617.464 160.138" xml:space="preserve">
<g>
	<path fill-opacity="0.165" d="M-88.863-30.236h554.884c17.281,0,31.29,14.445,31.29,32.26v93.555
		c0,17.819-14.011,32.261-31.29,32.261H-88.863c-17.283,0-31.29-14.444-31.29-32.261V2.024c0-17.82,14.01-32.271,31.29-32.271"/>
	<path fill="#F7F9B9" d="M-88.863-32.298h554.884c17.281,0,31.29,14.445,31.29,32.26v93.555c0,17.819-14.011,32.261-31.29,32.261
		H-88.863c-17.283,0-31.29-14.444-31.29-32.261V-0.038C-120.152-17.856-106.143-32.298-88.863-32.298"/>
	<path fill="#A9B618" stroke="#698612" d="M-83.813-24.699h545.493c16.569,0,29.999,13.849,29.999,30.931v79.904
		c0,17.083-13.432,30.93-29.999,30.93H-83.813c-16.569,0-30-13.847-30-30.93V6.231C-113.812-10.85-100.38-24.699-83.813-24.699
		L-83.813-24.699z"/>
	<path fill="#D8D719" d="M-113.601,17.252c0,0,0.816,24.158,0.032,61.647c-0.5,23.92,12.58,37.478,29.322,37.478
		c11.778,0,535.826,0.111,546.095,0c11.903-0.129,28.364-9.196,29.688-30.904c0,0-13.549,18.212-31.942,21.222
		c-19.76,3.234-519.284,5.299-537.824-5.414C-96.78,90.568-110.845,90.788-113.601,17.252"/>
	<path fill="#698612" d="M491.821,66.113c0,0,0.354-24.399,0.354-61.891c0-14.715-12.758-29.931-31.4-29.931
		c-11.75,0-533.254,0.252-543.504,0.364c-11.876,0.129-20.519,7.191-24.666,13.953c0,0,8.213-5.816,27.621-6.639
		c19.943-0.848,530.544-6.577,549.043,4.134c18.502,10.713,14.854,25.622,22.555,80.017"/>
	<path fill="#E6E447" d="M-113.485,72.68c0,0-0.177,7.84-0.177,12.758c0,7.839,3.01,15.676,8.838,21.693
		c5.834,6.015,12.905,8.748,15.203,8.931s13.61,0.548,18.916,0.548c5.304,0-7.778-1.824-13.258-2.554
		c-5.48-0.727-14.14-4.919-17.678-8.018c-3.534-3.104-11.136-10.756-11.842-33.355"/>
</g>
<path fill="#F9F9F7" d="M4.344,46.993c0,3.622-2.933,6.558-6.557,6.558h-67.658c-3.62,0-6.555-2.936-6.555-6.558v-9.194
	c0-3.62,2.935-6.555,6.555-6.555h67.658c3.625,0,6.557,2.935,6.557,6.555V46.993z"/>
<path fill="#F9F9F7" d="M-40.638,82.781c-3.619,0-6.557-2.934-6.557-6.558V8.565c0-3.62,2.938-6.554,6.557-6.554h9.195
	c3.62,0,6.555,2.935,6.555,6.554v67.658c0,3.624-2.935,6.558-6.555,6.558H-40.638z"/>
</svg>
