<?xml version="1.0" encoding="utf-8"?>
<!-- Generator: Adobe Illustrator 16.0.0, SVG Export Plug-In . SVG Version: 6.00 Build 0)  -->
<!DOCTYPE svg PUBLIC "-//W3C//DTD SVG 1.1//EN" "http://www.w3.org/Graphics/SVG/1.1/DTD/svg11.dtd">
<svg version="1.1"
	 id="Layer_1" xmlns:inkscape="http://www.inkscape.org/namespaces/inkscape" xmlns:sodipodi="http://sodipodi.sourceforge.net/DTD/sodipodi-0.dtd"
	 xmlns="http://www.w3.org/2000/svg" xmlns:xlink="http://www.w3.org/1999/xlink" x="0px" y="0px" width="544.877px"
	 height="425.996px" viewBox="33.562 183.002 544.877 425.996" enable-background="new 33.562 183.002 544.877 425.996"
	 xml:space="preserve">
<g id="Layer_1_1_">
	<g id="g4420" transform="matrix(0.58673783,0,0,0.58673783,326.54098,313.19625)">
		<path id="rect3218-7-0" fill-opacity="0.1647" d="M-468.042-215.067h866.067c17.283,0,31.294,14.011,31.294,31.294v656.625
			c0,17.283-14.011,31.294-31.294,31.294h-866.067c-17.283,0-31.294-14.011-31.294-31.294v-656.625
			C-499.336-201.056-485.326-215.067-468.042-215.067z"/>
		<path id="rect3218-7" fill="#FFFFFF" d="M-468.042-221.895h866.067c17.283,0,31.294,14.011,31.294,31.294v656.625
			c0,17.283-14.011,31.294-31.294,31.294h-866.067c-17.283,0-31.294-14.011-31.294-31.294v-656.625
			C-499.336-207.885-485.326-221.895-468.042-221.895z"/>
		<path id="rect3218" fill="#73BB44" d="M-462.994-214.528h856.676c16.569,0,30.001,13.431,30.001,30v643.383
			c0,16.569-13.432,30.001-30.001,30.001h-856.676c-16.569,0-30-13.432-30-30.001v-643.383
			C-492.994-201.097-479.563-214.528-462.994-214.528z"/>
		<path id="path3222" sodipodi:nodetypes="cssscssc" inkscape:connector-curvature="0" fill="#228441" d="M423.683-133.016
			c0,0,0.454-4.999,0.454-41.369c0-30.428-13.755-40.349-30.455-40.349c-11.749,0-845.677-0.107-855.926,0
			c-11.875,0.126-30.001,8.919-31.318,29.976c0,0,15.22-17.663,33.568-20.584c19.713-3.138,831.7-1.107,847.678,0.138
			C403.66-203.959,420.933-204.337,423.683-133.016z"/>
		<path id="path3222-1" sodipodi:nodetypes="cssscssc" inkscape:connector-curvature="0" fill="#228441" d="M-492.64,399.786
			c0,0-0.354,23.666-0.354,60.035c0,14.272,12.757,29.035,31.402,29.035c11.75,0,844.441-0.246,854.69-0.355
			c11.875-0.125,20.517-6.974,24.665-13.535c0,0-8.214,5.642-27.622,6.441c-19.943,0.822-841.728,6.378-860.228-4.013
			C-488.587,467.002-484.941,452.544-492.64,399.786z"/>
		<path id="path3222-1_2_" sodipodi:nodetypes="cssscssc" inkscape:connector-curvature="0" fill="#228441" d="M393.098,488.501
			c16.953,0.355,21.755-6.974,25.901-13.535c0,0-9.449,5.642-28.859,6.441"/>
	</g>
</g>
</svg>
