<?xml version="1.0" encoding="utf-8"?>
<!-- Generator: Adobe Illustrator 17.0.0, SVG Export Plug-In . SVG Version: 6.00 Build 0)  -->
<!DOCTYPE svg PUBLIC "-//W3C//DTD SVG 1.1//EN" "http://www.w3.org/Graphics/SVG/1.1/DTD/svg11.dtd">
<svg version="1.1"
	 id="svg12211" xmlns:cc="http://creativecommons.org/ns#" xmlns:svg="http://www.w3.org/2000/svg" xmlns:dc="http://purl.org/dc/elements/1.1/" xmlns:sodipodi="http://sodipodi.sourceforge.net/DTD/sodipodi-0.dtd" xmlns:rdf="http://www.w3.org/1999/02/22-rdf-syntax-ns#" xmlns:inkscape="http://www.inkscape.org/namespaces/inkscape" sodipodi:docname="acc-face-mustache.svg" inkscape:version="0.91 r13725" inkscape:export-filename="C:\Users\Zealotlee\Dropbox\Small Projects\Steves Fuzzballs\fuschia-fuzzle.png" inkscape:export-xdpi="72.021774" inkscape:export-ydpi="72.021774"
	 xmlns="http://www.w3.org/2000/svg" xmlns:xlink="http://www.w3.org/1999/xlink" x="0px" y="0px" width="512px" height="512px"
	 viewBox="0 0 512 512" enable-background="new 0 0 512 512" xml:space="preserve">
<path fill="#F7F9B9" stroke="#A9B618" stroke-width="5" d="M50.5,189l82,24.5c0,0,42.374-101.438,121.997-101.438
	c90.931,0,124.475,76.738,124.475,76.738l-40.228,23.196l138.756,7.189l-25.163-104.966l-18.725,26.411
	c0,0-66.241-96.149-180.553-96.149C96,44.482,50.5,189,50.5,189z"/>
<path fill="#F7F9B9" stroke="#A9B618" stroke-width="5" d="M473.5,329.37l-82-24.5c0,0-42.374,101.438-121.997,101.438
	c-90.931,0-124.475-76.738-124.475-76.738l40.228-23.196L46.5,299.185l25.163,104.966l18.725-26.411
	c0,0,66.241,96.149,180.553,96.149C428,473.888,473.5,329.37,473.5,329.37z"/>
</svg>
