<?xml version="1.0" encoding="UTF-8" standalone="no"?>
<!-- Generator: Adobe Illustrator 16.0.0, SVG Export Plug-In . SVG Version: 6.00 Build 0)  -->

<svg
   xmlns:dc="http://purl.org/dc/elements/1.1/"
   xmlns:cc="http://creativecommons.org/ns#"
   xmlns:rdf="http://www.w3.org/1999/02/22-rdf-syntax-ns#"
   xmlns:svg="http://www.w3.org/2000/svg"
   xmlns="http://www.w3.org/2000/svg"
   xmlns:sodipodi="http://sodipodi.sourceforge.net/DTD/sodipodi-0.dtd"
   xmlns:inkscape="http://www.inkscape.org/namespaces/inkscape"
   version="1.1"
   id="Layer_1"
   x="0px"
   y="0px"
   width="648px"
   height="72px"
   viewBox="0 0 648 72"
   enable-background="new 0 0 648 72"
   xml:space="preserve"
   inkscape:version="0.48.5 r10040"
   sodipodi:docname="ui-progress.svg"><metadata
   id="metadata3037"><rdf:RDF><cc:Work
       rdf:about=""><dc:format>image/svg+xml</dc:format><dc:type
         rdf:resource="http://purl.org/dc/dcmitype/StillImage" /><dc:title></dc:title></cc:Work></rdf:RDF></metadata><defs
   id="defs3035" /><sodipodi:namedview
   pagecolor="#ffffff"
   bordercolor="#666666"
   borderopacity="1"
   objecttolerance="10"
   gridtolerance="10"
   guidetolerance="10"
   inkscape:pageopacity="0"
   inkscape:pageshadow="2"
   inkscape:window-width="1920"
   inkscape:window-height="1017"
   id="namedview3033"
   showgrid="false"
   inkscape:zoom="1.9205369"
   inkscape:cx="273.30579"
   inkscape:cy="36.045377"
   inkscape:window-x="-8"
   inkscape:window-y="-8"
   inkscape:window-maximized="1"
   inkscape:current-layer="Layer_1" />
<g
   transform="matrix(0.981,0,0,0.981,6.156,0.68449044)"
   id="g3013">
	<path
   d="m 17.986,1.827 h 611.446 c 9.933,0 17.985,6.412 17.985,14.321 v 41.529 c 0,7.91 -8.053,14.322 -17.985,14.322 H 17.986 C 8.053,72 0,65.588 0,57.678 V 16.148 C 0,8.239 8.053,1.827 17.986,1.827"
   id="path3015"
   inkscape:connector-curvature="0"
   style="fill:#010101;fill-opacity:0.16499999" />
	<path
   d="M 17.986,0 H 630.015 C 639.946,0 648,6.412 648,14.321 V 55.85 c 0,7.909 -8.054,14.322 -17.985,14.322 H 17.986 C 8.053,70.173 0,63.76 0,55.851 V 14.321 C 0,6.412 8.053,0 17.986,0"
   id="path3017"
   inkscape:connector-curvature="0"
   style="fill:#f6f5bb" />
	<path
   d="m 20.887,3.37 h 604.9 c 9.523,0 17.243,6.147 17.243,13.731 v 35.467 c 0,7.583 -7.721,13.729 -17.243,13.729 H 20.887 C 11.365,66.297 3.645,60.151 3.645,52.568 V 17.101 C 3.645,9.517 11.365,3.37 20.887,3.37 l 0,0 z"
   id="path3019"
   inkscape:connector-curvature="0"
   style="fill:#d9d823;stroke:#6a873a;stroke-width:0.51270002" />
	<path
   d="m 643.198,48.057 c 0,0 -0.306,-8.889 -0.306,-25.532 0,-13.249 -6.925,-18.466 -16.523,-18.466 -6.753,0 -599.155,-0.05 -605.049,0 C 14.495,4.116 5.058,8.14 4.301,17.776 c 0,0 7.767,-8.084 18.314,-9.42 11.327,-1.437 589.864,-3.916 600.494,0.839 10.633,4.756 18.511,6.222 20.088,38.858"
   id="path3021"
   inkscape:connector-curvature="0"
   style="fill:#e6e449" />
	<path
   d="m 4.111,25.561 c 0,0 -0.203,10.831 -0.203,27.476 0,6.531 7.332,13.289 18.047,13.289 6.753,0 598.442,-0.114 604.335,-0.163 6.825,-0.056 11.791,-3.191 14.175,-6.192 0,0 -4.72,2.582 -15.875,2.946 C 613.129,63.294 28.277,66.98 16.786,61.31 6.42,56.196 8.538,49.709 4.113,25.563"
   id="path3023"
   inkscape:connector-curvature="0"
   style="fill:#a9b738" />
	<path
   d="m 640.096,18.065 c 0,0 -5.061,-5.82 -7.631,-7.292 -2.57,-1.47 -8.836,-3.198 -13.169,-3.454 -4.337,-0.256 -19.517,-0.576 -19.517,-0.576 0,0 15.421,-0.832 20.158,-0.767 6.027,0.083 13.3,1.604 14.854,2.814 1.589,1.232 4.982,4.094 5.305,9.275"
   id="path3025"
   inkscape:connector-curvature="0"
   style="fill:#eeee91" />
	<path
   d="m 3.895,47.006 c 0,0 -0.102,3.48 -0.102,5.661 0,3.482 1.728,6.957 5.08,9.629 3.353,2.67 7.416,3.882 8.735,3.963 1.321,0.082 7.823,0.243 10.871,0.243 3.049,0 -4.47,-0.808 -7.619,-1.133 C 17.71,65.045 12.732,63.186 10.7,61.809 8.667,60.434 4.298,57.037 3.893,47.005"
   id="path3027"
   inkscape:connector-curvature="0"
   style="fill:#6a873a" />
	<path
   d="m 24.685,10.382 h 596.278 c 7.584,0 13.733,4.894 13.733,10.935 v 28.251 c 0,6.038 -6.146,10.937 -13.733,10.937 H 24.685 c -7.583,0 -13.732,-4.894 -13.732,-10.937 V 21.317 c 0,-6.04 6.145,-10.935 13.732,-10.935 l 0,0 z"
   id="path3029"
   inkscape:connector-curvature="0"
   style="fill:#f7f9b9;stroke:#6a873a;stroke-width:0.40880000999999999;fill-opacity:1" />
	
</g>
</svg>