<?xml version="1.0" encoding="utf-8"?>
<!-- Generator: Adobe Illustrator 16.0.0, SVG Export Plug-In . SVG Version: 6.00 Build 0)  -->
<!DOCTYPE svg PUBLIC "-//W3C//DTD SVG 1.1//EN" "http://www.w3.org/Graphics/SVG/1.1/DTD/svg11.dtd">
<svg version="1.1" id="Layer_1" xmlns="http://www.w3.org/2000/svg" xmlns:xlink="http://www.w3.org/1999/xlink" x="0px" y="0px"
	 width="79.77px" height="82.04px" viewBox="0 0 79.77 82.04" enable-background="new 0 0 79.77 82.04" xml:space="preserve">
<g>
	<path fill="none" stroke="#F6F5BB" stroke-width="6" stroke-miterlimit="10" d="M87.25,58.745c0,4.772-3.486,8.641-7.787,8.641
		H12.787C8.487,67.385,5,63.517,5,58.745V24.545c0-4.772,3.486-8.641,7.787-8.641h66.676c4.301,0,7.787,3.868,7.787,8.641V58.745z"
		/>
</g>
<path fill="#D7D525" stroke="#6A873A" stroke-width="0.5386" d="M87,58.745c0,4.772-3.486,8.641-7.787,8.641H12.537
	c-4.301,0-7.787-3.868-7.787-8.641v-34.2c0-4.772,3.486-8.64,7.787-8.64h66.676c4.301,0,7.787,3.868,7.787,8.64V58.745z"/>
<path fill="#F6F4BD" stroke="#A9B738" stroke-width="4.527" d="M46.131,22.041l6.242,12.66l13.971,2.029l-10.109,9.859l2.385,13.91
	L46.125,53.93L33.63,60.499l2.386-13.91l-10.109-9.859l13.971-2.029L46.131,22.041z"/>
</svg>
