<?xml version="1.0" encoding="utf-8"?>
<!-- Generator: Adobe Illustrator 16.0.0, SVG Export Plug-In . SVG Version: 6.00 Build 0)  -->
<!DOCTYPE svg PUBLIC "-//W3C//DTD SVG 1.1//EN" "http://www.w3.org/Graphics/SVG/1.1/DTD/svg11.dtd">
<svg version="1.1" id="Layer_1" xmlns="http://www.w3.org/2000/svg" xmlns:xlink="http://www.w3.org/1999/xlink" x="0px" y="0px"
	 width="66.237px" height="64.314px" viewBox="-17.69 -16.158 66.237 64.314" enable-background="new -17.69 -16.158 66.237 64.314"
	 xml:space="preserve">
<g>
	<g>
		<path fill="#F7F9B9" stroke="#A9B618" stroke-width="2.2374" stroke-miterlimit="10" d="M-14.815,16.4
			c-2.425,1.271-2.325,3.134,0.218,4.146l7.527,2.978c2.543,1.003,6.39,0.457,8.549-1.23L34.174-3.489
			c2.149-1.693,2.379-1.443,0.511,0.557L8.838,24.731c-1.873,1.995-1.32,4.438,1.231,5.426L10.95,30.5
			c2.551,0.985,6.712,2.646,9.245,3.675l8.351,3.404c2.535,1.027,4.61,1.884,4.615,1.899c0,0.015,0.013,0.063,0.025,0.067
			c0.014,0.004,0.612-2.154,1.329-4.792l12.725-46.778c0.719-2.641-0.673-3.762-3.098-2.491L-14.815,16.4z"/>
	</g>
	<g>
		<path fill="#F7F9B9" stroke="#A9B618" stroke-width="2.2374" stroke-miterlimit="10" d="M5.847,47.021
			c-0.15,0.443,5.148-7.671,5.148-7.671c1.498-2.288,0.649-5.017-1.884-6.049l-5.777-2.368c-2.532-1.035-3.745,0.18-2.696,2.712
			C0.638,33.646,5.999,46.563,5.847,47.021z"/>
	</g>
</g>
</svg>
