<?xml version="1.0" encoding="UTF-8" standalone="no"?>
<!-- Generator: Adobe Illustrator 16.0.0, SVG Export Plug-In . SVG Version: 6.00 Build 0)  -->

<svg
   xmlns:dc="http://purl.org/dc/elements/1.1/"
   xmlns:cc="http://creativecommons.org/ns#"
   xmlns:rdf="http://www.w3.org/1999/02/22-rdf-syntax-ns#"
   xmlns:svg="http://www.w3.org/2000/svg"
   xmlns="http://www.w3.org/2000/svg"
   xmlns:sodipodi="http://sodipodi.sourceforge.net/DTD/sodipodi-0.dtd"
   xmlns:inkscape="http://www.inkscape.org/namespaces/inkscape"
   version="1.1"
   id="Layer_1"
   x="0px"
   y="0px"
   width="79.77px"
   height="82.04px"
   viewBox="0 0 79.77 82.04"
   enable-background="new 0 0 79.77 82.04"
   xml:space="preserve"
   sodipodi:docname="ui-star-icon.svg"
   inkscape:version="0.92.3 (2405546, 2018-03-11)"><metadata
   id="metadata15"><rdf:RDF><cc:Work
       rdf:about=""><dc:format>image/svg+xml</dc:format><dc:type
         rdf:resource="http://purl.org/dc/dcmitype/StillImage" /><dc:title></dc:title></cc:Work></rdf:RDF></metadata><defs
   id="defs13" /><sodipodi:namedview
   pagecolor="#ffffff"
   bordercolor="#666666"
   borderopacity="1"
   objecttolerance="10"
   gridtolerance="10"
   guidetolerance="10"
   inkscape:pageopacity="0"
   inkscape:pageshadow="2"
   inkscape:window-width="3840"
   inkscape:window-height="2081"
   id="namedview11"
   showgrid="false"
   inkscape:zoom="16.272764"
   inkscape:cx="77.885091"
   inkscape:cy="51.328043"
   inkscape:window-x="3831"
   inkscape:window-y="-9"
   inkscape:window-maximized="1"
   inkscape:current-layer="Layer_1_1_" />
<g
   transform="matrix(1,0,0,0.68941671,-28.852701,-463.81289)"
   id="Layer_1_1_"><g
     id="g4420_5_"
     transform="matrix(0.58673783,0,0,0.58673783,326.54098,313.19625)"><path
       style="fill-opacity:0.16470002"
       inkscape:connector-curvature="0"
       id="rect3218-7-0_3_"
       d="m -474.112,643.221 h 866.067 c 17.283,0 31.294,14.011 31.294,31.294 v 89.752 c 0,17.283 -14.011,31.294 -31.294,31.294 h -866.067 c -17.282,0 -31.294,-14.011 -31.294,-31.294 v -89.752 c 0,-17.283 14.011,-31.294 31.294,-31.294 z" /><path
       style="fill:#ffffff"
       inkscape:connector-curvature="0"
       id="rect3218-7_5_"
       d="m -474.112,636.392 h 866.067 c 17.283,0 31.294,14.011 31.294,31.294 v 89.754 c 0,17.283 -14.011,31.294 -31.294,31.294 h -866.067 c -17.282,0 -31.294,-14.011 -31.294,-31.294 v -89.754 c 0,-17.283 14.011,-31.294 31.294,-31.294 z" /><path
       style="fill:#73bb44"
       inkscape:connector-curvature="0"
       id="rect3218_5_"
       d="m -469.064,643.761 h 856.676 c 16.569,0 30.001,13.43 30.001,29.999 v 76.51 c 0,16.569 -13.432,29.999 -30.001,29.999 h -856.676 c -16.569,0 -30,-13.43 -30,-29.999 v -76.51 c 0,-16.568 13.432,-29.999 30,-29.999 z" /><path
       style="fill:#228441"
       id="path3222_5_"
       sodipodi:nodetypes="cssscssc"
       inkscape:connector-curvature="0"
       d="m 417.615,725.273 c 0,0 0.453,-5 0.453,-41.369 0,-30.428 -13.755,-40.35 -30.453,-40.35 -11.751,0 -845.678,-0.108 -855.927,0 -11.875,0.125 -30,8.919 -31.318,29.976 0,0 15.22,-17.663 33.567,-20.584 19.712,-3.137 831.7,-1.107 847.677,0.138 15.976,1.245 33.249,0.868 36.001,72.189 z" /><path
       style="fill:#228441"
       id="path3222-1_10_"
       sodipodi:nodetypes="cssscssc"
       inkscape:connector-curvature="0"
       d="m -498.71,691.201 c 0,0 -0.355,23.666 -0.355,60.035 0,14.272 12.757,29.035 31.402,29.035 11.75,0 844.44,-0.246 854.69,-0.354 11.875,-0.125 20.519,-6.974 24.665,-13.533 0,0 -8.214,5.641 -27.622,6.441 -19.943,0.822 -841.728,6.378 -860.228,-4.013 -18.5,-10.393 -14.852,-24.852 -22.552,-77.611 z" /><path
       style="fill:#228441"
       id="path3222-1_9_"
       sodipodi:nodetypes="cssscssc"
       inkscape:connector-curvature="0"
       d="m 387.028,779.916 c 16.953,0.354 21.755,-6.974 25.901,-13.533 0,0 -9.449,5.641 -28.859,6.441" /></g></g>

<path
   d="m 44.129952,23.61344 5.052104,10.246658 11.307745,1.642217 -8.181948,7.979605 1.930354,11.258374 -10.113112,-5.316769 -10.113111,5.316769 1.931163,-11.258374 -8.181948,-7.979605 11.307745,-1.642217 z"
   id="path8"
   inkscape:connector-curvature="0"
   style="fill:#ffffff;stroke:#228441;stroke-width:3.664;fill-opacity:1;stroke-opacity:1;stroke-miterlimit:4;stroke-dasharray:none" />
</svg>