<svg xmlns="http://www.w3.org/2000/svg" width="100.91" height="101.75" viewBox="13.247 15.382 100.906 101.754" style="enable-background:new 13.247 15.382 100.906 101.754"><g transform="translate(0-924.36)"><g transform="matrix(.959 0 0 .959-452.2 782.01)"><path d="m590.35 217.98c0 28.996-23.506 52.5-52.5 52.5-28.996 0-52.5-23.506-52.5-52.5 0-28.996 23.506-52.5 52.5-52.5 28.996 0 52.5 23.507 52.5 52.5" style="fill-opacity:.165"/><path d="m590.17 216.91c0 28.996-23.506 52.5-52.5 52.5-28.996 0-52.5-23.506-52.5-52.5 0-28.996 23.506-52.5 52.5-52.5 28.997.0001 52.5 23.507 52.5 52.5" style="fill:#f7f9b9"/><path d="m582.72 216.94c0 24.725-20.04 44.768-44.768 44.768s-44.768-20.04-44.768-44.768c0-24.724 20.04-44.767 44.768-44.767s44.768 20.04 44.768 44.767z" style="fill:#a9b618;stroke:#698612"/><path d="m514.11 179.65c0 0 7.578-8.144 24.898-8.144 17.319 0 30.15 8.926 37.888 22.08 7.732 13.154 5.721 26.15 4.329 33.04 0 0-.527-27.14-23.568-42.33-23.04-15.189-43.547-4.644-43.547-4.644" style="fill:#698612"/><path d="m563.03 253.48c0 0-7.702 7.644-25.02 7.644-17.32 0-30.655-9.05-38.39-22.2-7.732-13.154-6.347-25.276-4.955-32.17 0 0 .365 25.954 23.407 41.14 23.04 15.188 44.958 5.583 44.958 5.583" style="fill:#d8d719"/></g><g style="fill:#a9b618"><path d="m54.11 960.78v57.661l28.746-28.745-28.746-28.916"/><path d="m63.11 964.2l-8.596 2.399 2.354 8.374c-2.376 1.243-4.493 2.934-6.197 4.976l-7.996-3.776-3.798 8.06 7.729 3.665c-.404 1.595-.622 3.277-.622 4.998 0 1.604.203 3.146.555 4.643l-7.796 3.664 3.82 8.09 7.885-3.732c1.746 2.171 3.93 3.987 6.419 5.287l-2.354 8.373 8.596 2.422 2.376-8.529c.243.001.488.021.733.021 2.7 0 5.264-.551 7.618-1.51l5.509 7.463 7.174-5.309-5.353-7.264c2.346-2.572 4.03-5.76 4.798-9.284h8.529v-8.929h-8.574c-.783-3.375-2.404-6.414-4.643-8.907l5.242-7.085-7.174-5.309-5.354 7.241c-2.397-1-5.01-1.577-7.773-1.577-.253 0-.505.013-.756.022l-2.351-8.486m3.11 17.547c6.072 0 10.994 4.923 10.994 10.995 0 6.071-4.922 10.995-10.994 10.995s-10.995-4.924-10.995-10.995c0-6.072 4.923-10.995 10.995-10.995"/></g><path d="m61.882 961.14l-8.596 2.399 2.354 8.374c-2.376 1.243-4.493 2.934-6.197 4.976l-7.996-3.776-3.798 8.06 7.729 3.665c-.404 1.596-.622 3.276-.622 4.998 0 1.603.203 3.146.555 4.643l-7.796 3.664 3.82 8.09 7.885-3.731c1.746 2.171 3.93 3.986 6.419 5.287l-2.354 8.373 8.596 2.422 2.376-8.529c.244.001.488.021.734.021 2.699 0 5.263-.551 7.617-1.511l5.51 7.464 7.174-5.309-5.354-7.264c2.346-2.572 4.03-5.76 4.799-9.285h8.528v-8.928h-8.573c-.783-3.375-2.404-6.415-4.643-8.907l5.242-7.085-7.174-5.309-5.354 7.241c-2.398-1-5.01-1.577-7.773-1.577-.254 0-.505.013-.756.022l-2.352-8.486zm3.11 17.547c6.071 0 10.994 4.923 10.994 10.994 0 6.072-4.923 10.995-10.994 10.995-6.073 0-10.996-4.923-10.996-10.995.0001-6.071 4.923-10.994 10.996-10.994z" style="fill:#f7f9b9;stroke:#a9b618;stroke-linejoin:round;stroke-width:.959"/></g></svg>