<?xml version="1.0" encoding="utf-8"?>
<!-- Generator: Adobe Illustrator 16.0.0, SVG Export Plug-In . SVG Version: 6.00 Build 0)  -->
<!DOCTYPE svg PUBLIC "-//W3C//DTD SVG 1.1//EN" "http://www.w3.org/Graphics/SVG/1.1/DTD/svg11.dtd">
<svg version="1.1" id="Layer_1" xmlns="http://www.w3.org/2000/svg" xmlns:xlink="http://www.w3.org/1999/xlink" x="0px" y="0px"
	 width="64.031px" height="59.418px" viewBox="426.275 -26.683 64.031 59.418"
	 enable-background="new 426.275 -26.683 64.031 59.418" xml:space="preserve">
<path fill="none" stroke="#F7F9B9" stroke-width="6" d="M359.306,93.375c0,6.043,4.899,10.942,10.942,10.942h106.115
	c6.043,0,10.942-4.899,10.942-10.942V-12.741c0-6.043-4.899-10.942-10.942-10.942H370.249c-6.043,0-10.942,4.899-10.942,10.942
	V93.375z"/>
<path fill="#D8D719" stroke="#698612" stroke-width="0.8905" d="M360.806,92.005c0,5.901,4.785,10.687,10.687,10.687H475.12
	c5.901,0,10.687-4.785,10.687-10.687V-11.623c0-5.901-4.785-10.685-10.687-10.685H371.493c-5.901,0-10.687,4.784-10.687,10.685
	V92.005z"/>
</svg>
