<?xml version="1.0" encoding="utf-8"?>
<!-- Generator: Adobe Illustrator 16.0.0, SVG Export Plug-In . SVG Version: 6.00 Build 0)  -->
<!DOCTYPE svg PUBLIC "-//W3C//DTD SVG 1.1//EN" "http://www.w3.org/Graphics/SVG/1.1/DTD/svg11.dtd">
<svg version="1.1" id="Layer_1" xmlns="http://www.w3.org/2000/svg" xmlns:xlink="http://www.w3.org/1999/xlink" x="0px" y="0px"
	 width="617.464px" height="160.139px" viewBox="0.275 0.786 617.464 160.139" enable-background="new 0.275 0.786 617.464 160.139"
	 xml:space="preserve">
<g>
	<path fill-opacity="0.165" d="M31.565,2.848h554.884c17.282,0,31.29,14.445,31.29,32.261v93.555
		c0,17.819-14.01,32.261-31.29,32.261H31.565c-17.283,0-31.29-14.444-31.29-32.261V35.109c0-17.82,14.01-32.271,31.29-32.271"/>
	<path fill="#F7F9B9" d="M31.565,0.786h554.884c17.282,0,31.29,14.445,31.29,32.261v93.556c0,17.819-14.01,32.261-31.29,32.261
		H31.565c-17.283,0-31.29-14.444-31.29-32.261V33.047C0.275,15.228,14.284,0.786,31.565,0.786"/>
	<path fill="#A9B618" stroke="#698612" d="M36.614,8.385h545.495c16.569,0,29.999,13.849,29.999,30.931v79.904
		c0,17.084-13.432,30.93-29.999,30.93H36.614c-16.568,0-30-13.846-30-30.93V39.316C6.614,22.233,20.046,8.385,36.614,8.385
		L36.614,8.385z"/>
	<path fill="#D8D719" d="M6.825,50.337c0,0,0.816,24.159,0.032,61.648c-0.5,23.92,12.58,37.478,29.321,37.478
		c11.779,0,535.825,0.111,546.096,0c11.903-0.129,28.363-9.195,29.687-30.903c0,0-13.548,18.211-31.941,21.222
		c-19.761,3.233-519.285,5.299-537.825-5.414C23.648,123.654,9.583,123.872,6.825,50.337"/>
	<path fill="#698612" d="M612.248,99.198c0,0,0.354-24.399,0.354-61.892c0-14.715-12.758-29.931-31.401-29.931
		c-11.75,0-533.254,0.252-543.504,0.364C25.822,7.868,17.179,14.93,13.032,21.693c0,0,8.213-5.815,27.621-6.639
		c19.944-0.849,530.543-6.576,549.043,4.133C608.197,29.9,604.55,44.808,612.25,99.203"/>
	<path fill="#E6E447" d="M6.942,105.766c0,0-0.177,7.84-0.177,12.759c0,7.838,3.01,15.676,8.839,21.692
		c5.834,6.015,12.905,8.749,15.203,8.931c2.298,0.184,13.611,0.548,18.916,0.548c5.304,0-7.779-1.824-13.259-2.554
		c-5.48-0.727-14.14-4.919-17.677-8.018c-3.534-3.104-11.136-10.756-11.843-33.354"/>
</g>
<path fill="#FFFFFF" d="M114.883,109.932h-25.16l-8.828-15.094c-0.325,0.557-0.64,1.107-0.95,1.653
	c-0.31,0.545-0.625,1.107-0.95,1.698c-0.471,0.794-0.948,1.589-1.434,2.385c-0.486,0.795-0.979,1.59-1.479,2.385
	c-0.324,0.525-0.664,1.094-1.015,1.699c-0.354,0.6-0.707,1.212-1.061,1.832c-0.354,0.618-0.705,1.221-1.058,1.811
	c-0.354,0.585-0.664,1.129-0.927,1.631H47.479l20.746-33.105c-0.676-1.061-1.339-2.125-1.985-3.201
	c-0.648-1.073-1.311-2.17-1.987-3.288c-0.794-1.325-1.619-2.67-2.473-4.04c-0.853-1.368-1.676-2.713-2.472-4.039
	c-0.766-1.265-1.53-2.523-2.294-3.773c-0.766-1.252-1.531-2.492-2.297-3.729c-0.441-0.707-0.948-1.53-1.523-2.473
	c-0.574-0.942-1.153-1.905-1.743-2.892c-0.589-0.987-1.156-1.941-1.699-2.87c-0.543-0.927-1.008-1.7-1.39-2.315h25.072L81.6,58.243
	l0.31-0.575l3.135-5.428c0.325-0.53,0.653-1.067,0.993-1.613c0.337-0.544,0.667-1.095,0.993-1.655v0.045
	c0.205-0.325,0.435-0.701,0.685-1.126c0.25-0.427,0.501-0.862,0.752-1.302c0.246-0.442,0.489-0.868,0.728-1.282
	c0.235-0.41,0.44-0.778,0.616-1.101h24.5L94.27,76.251L114.883,109.932z"/>
</svg>
