<?xml version="1.0" encoding="utf-8"?>
<!-- Generator: Adobe Illustrator 16.0.0, SVG Export Plug-In . SVG Version: 6.00 Build 0)  -->
<!DOCTYPE svg PUBLIC "-//W3C//DTD SVG 1.1//EN" "http://www.w3.org/Graphics/SVG/1.1/DTD/svg11.dtd">
<svg version="1.1"
	 id="svg12211" xmlns:dc="http://purl.org/dc/elements/1.1/" xmlns:cc="http://creativecommons.org/ns#" xmlns:rdf="http://www.w3.org/1999/02/22-rdf-syntax-ns#" xmlns:svg="http://www.w3.org/2000/svg" xmlns:sodipodi="http://sodipodi.sourceforge.net/DTD/sodipodi-0.dtd" xmlns:inkscape="http://www.inkscape.org/namespaces/inkscape" inkscape:export-ydpi="72.021774" inkscape:export-xdpi="72.021774" inkscape:export-filename="C:\Users\Zealotlee\Dropbox\Small Projects\Steves Fuzzballs\fuschia-fuzzle.png" sodipodi:docname="acc-hat-ballcap.svg" inkscape:version="0.91 r13725"
	 xmlns="http://www.w3.org/2000/svg" xmlns:xlink="http://www.w3.org/1999/xlink" x="0px" y="0px" width="81.635px"
	 height="110.65px" viewBox="215.15 273.518 81.635 110.65" enable-background="new 215.15 273.518 81.635 110.65"
	 xml:space="preserve">
<sodipodi:namedview  showguides="true" showgrid="false" inkscape:cy="171.5403" inkscape:cx="385.24156" inkscape:zoom="1.4142136" borderopacity="1.0" bordercolor="#666666" pagecolor="#ffffff" id="base" inkscape:window-maximized="1" inkscape:window-y="-8" inkscape:window-x="-8" inkscape:window-height="988" inkscape:window-width="1680" inkscape:pageshadow="2" inkscape:current-layer="layer1" inkscape:pageopacity="0.0" inkscape:document-units="px">
	</sodipodi:namedview>
<g>
	<path fill="#663014" stroke="#441C11" stroke-width="3" stroke-linejoin="round" stroke-miterlimit="10" d="M294.195,336.407
		c0,0,3.748,19.261-2.658,27.693s-11.762,17.846-25.273,18.516c-13.514,0.669-25.781-5.059-43.674-20.289
		c9.839-2.597,17.918-6.348,21.894-9.308c3.976-2.959,8.884-10.437,8.884-10.437s0.32,8.586,3.312,14.134
		c2.992,5.547,7.748,11.139,16.576,6.909c8.828-4.228,7.303-20.839,6.415-23.81C283.866,340.107,290.363,339.702,294.195,336.407z"
		/>
	<path fill="#283033" stroke="#000000" stroke-width="2" stroke-linejoin="round" stroke-miterlimit="10" d="M279.919,308.677
		c0,0-0.517,4.681-2.263,5.422c3.285,0.269,2.883,0.44,5.529-0.051c2.646-0.491,4.871-1.595,4.871-1.595s-2.711-1.714-3.688-4.385
		C283.393,305.396,281.162,307.573,279.919,308.677z"/>
	<path fill="#283033" stroke="#000000" stroke-width="2" stroke-linejoin="round" stroke-miterlimit="10" d="M284.023,318.82
		c-3.067,0.335-7,2.183-7.028,2.987c-0.028,0.806,2.832,1.439,7.19,0.749c4.359-0.689,5.633-2.342,5.646-3.033
		C289.846,318.831,286.701,318.527,284.023,318.82z"/>
	<path fill="#283033" stroke="#000000" stroke-width="2" stroke-linejoin="round" stroke-miterlimit="10" d="M289.831,319.523
		c0,0,1.647,14.842,1.543,15.467c-1.255,0.902-4.026,1.659-6.364,1.912c-2.336,0.253-5.349-0.739-5.349-0.739l-2.666-14.355
		c0,0,1.343,1.947,7.19,0.749C290.033,321.36,289.831,319.523,289.831,319.523z"/>
	<path fill="#283033" stroke="#000000" stroke-linejoin="round" stroke-miterlimit="10" d="M278.52,311.688
		c0,0,1.853,0.408,4.24-0.131c2.389-0.539,3.559-1.513,3.559-1.513"/>
	<path fill="#283033" stroke="#000000" stroke-width="2" stroke-linejoin="round" stroke-miterlimit="10" d="M279.068,314.228
		c0,0,2.02,1.295,2.065,3.02s-0.403,2.656-0.403,2.656s1.856,0.638,3.717,0.164c1.859-0.475,2.386-1.227,2.386-1.227
		s-0.413-0.723-0.728-2.334c-0.315-1.61,0.375-3.095,0.857-3.577c0.482-0.481-3.477,2.002-8.068,1.281"/>
	<path fill="#283033" stroke="#000000" stroke-width="2" stroke-linejoin="round" stroke-miterlimit="10" d="M279.661,336.163
		c0,0-2.151,1.469-1.904,2.237c0.247,0.767,2.032,2.546,8.479,1.391c6.449-1.155,7.611-2.522,7.96-3.383
		c0.348-0.861-1.531-1.947-2.536-1.688c-1.116,0.749-4.03,1.938-5.848,2.079C283.997,336.94,280.512,336.674,279.661,336.163z"/>
	<path fill="#283033" stroke="#000000" stroke-width="2" stroke-linejoin="round" stroke-miterlimit="10" d="M289.831,274.518
		c0,0-3.976,1.604-7.658,5.627c-3.682,4.023-6.265,15.668-4.259,27.66c2.697,1.867,6.445,0.987,8.081-1.136
		c0,0-1.779-7.728-2.435-13c-0.654-5.272,1.439-13.774,11.18-18.47L289.831,274.518z"/>
	<path fill="#663014" stroke="#441C11" stroke-width="3" stroke-linejoin="round" stroke-miterlimit="10" d="M226.282,341.727
		c5.267-3.756,20.663-11.083,26.33-5.959c5.667,5.124-2.299,15.111-12.399,20.822s-21.289,7.93-23.177,1.438
		C215.148,351.535,220.502,345.849,226.282,341.727z"/>
	<path fill="#140806" d="M235.347,344.772c4.843-3.463,6.555-7.337,5.255-8.156c-1.3-0.82-6.701,1.396-10.167,3.504
		c-3.465,2.106-8.844,6.614-6.893,7.847C225.493,349.2,230.969,347.902,235.347,344.772z"/>
</g>
</svg>
