<?xml version="1.0" encoding="utf-8"?>
<!-- Generator: Adobe Illustrator 16.0.0, SVG Export Plug-In . SVG Version: 6.00 Build 0)  -->
<!DOCTYPE svg PUBLIC "-//W3C//DTD SVG 1.1//EN" "http://www.w3.org/Graphics/SVG/1.1/DTD/svg11.dtd">
<svg version="1.1"
	 id="svg12211" xmlns:dc="http://purl.org/dc/elements/1.1/" xmlns:cc="http://creativecommons.org/ns#" xmlns:rdf="http://www.w3.org/1999/02/22-rdf-syntax-ns#" xmlns:svg="http://www.w3.org/2000/svg" xmlns:sodipodi="http://sodipodi.sourceforge.net/DTD/sodipodi-0.dtd" xmlns:inkscape="http://www.inkscape.org/namespaces/inkscape" inkscape:export-ydpi="72.021774" inkscape:export-xdpi="72.021774" inkscape:export-filename="C:\Users\Zealotlee\Dropbox\Small Projects\Steves Fuzzballs\fuschia-fuzzle.png" sodipodi:docname="acc-face-mustache.svg" inkscape:version="0.91 r13725"
	 xmlns="http://www.w3.org/2000/svg" xmlns:xlink="http://www.w3.org/1999/xlink" x="0px" y="0px" width="339.71px"
	 height="211.127px" viewBox="86.138 158.674 339.71 211.127" enable-background="new 86.138 158.674 339.71 211.127"
	 xml:space="preserve">
<sodipodi:namedview  showguides="true" showgrid="false" inkscape:cy="193.02625" inkscape:cx="369.48506" inkscape:zoom="0.71220416" borderopacity="1.0" bordercolor="#666666" pagecolor="#ffffff" id="base" inkscape:window-maximized="1" inkscape:window-y="-8" inkscape:window-x="-8" inkscape:window-height="988" inkscape:window-width="1680" inkscape:pageshadow="2" inkscape:current-layer="layer1" inkscape:pageopacity="0.0" inkscape:document-units="px">
	</sodipodi:namedview>
<line fill="none" stroke="#E2DCDC" stroke-width="3" stroke-linecap="round" stroke-miterlimit="10" x1="90.204" y1="160.174" x2="113.914" y2="192.027"/>
<line fill="none" stroke="#E2DCDC" stroke-width="3" stroke-linecap="round" stroke-miterlimit="10" x1="398.131" y1="188.818" x2="424.349" y2="160.174"/>
<path fill="#AFDAF9" stroke="#E2DCDC" stroke-width="8" stroke-miterlimit="10" d="M113.638,190.823
	c0,0,101.684-2.466,123.32-14.114c18.055-9.719,18.976-12.038,25.578-12.038c6.603,0,19.323,8.924,25.213,12.038
	c5.89,3.114,83.39,17.182,110.889,11.648c-6.499,28.466-1.959,90.239,13.5,98.966c-21.292,24.723-63.999,78.478-159,78.478
	c-95,0-163.002-82.419-163-82.541C90.14,283.139,135.638,249.323,113.638,190.823z"/>
<path fill="#C1DAF9" d="M262.925,170.618c0,0,3.615,58.049,30.581,85.714c26.965,27.665,26.945,4.825,21.788-8.364
	c-5.155-13.189-11.548-55.394-24.853-64.208C277.139,174.946,262.447,165.385,262.925,170.618z"/>
<path fill="#A0DAF9" d="M260.906,171.583c0,0-3.615,58.049-30.581,85.714c-26.965,27.665-26.945,4.825-21.788-8.364
	c5.156-13.189,11.548-55.394,24.852-64.208C246.693,175.911,261.384,166.35,260.906,171.583z"/>
<path fill="none" stroke="#94C3E0" stroke-width="5" stroke-miterlimit="10" d="M108.633,261.572c0,0,161.506,17.414,291.838,0"/>
<path fill="none" stroke="#94C3E0" stroke-width="5" stroke-miterlimit="10" d="M119.639,221.405c0,0,149.791-9.83,276.144,1.46"/>
<path fill="none" stroke="#94C3E0" stroke-width="5" stroke-miterlimit="10" d="M93.565,280.287c0,0,124.985,85.544,315.279,4.207"
	/>
<path fill="none" stroke="#E2DCDC" stroke-width="8" stroke-miterlimit="10" d="M113.638,190.823c0,0,101.684-2.466,123.32-14.114
	c18.055-9.719,18.976-12.038,25.578-12.038c6.603,0,19.323,8.924,25.213,12.038c5.89,3.114,83.39,17.182,110.889,11.648
	c-6.499,28.466-1.959,90.239,13.5,98.966c-21.292,24.723-63.999,78.478-159,78.478c-95,0-163.002-82.419-163-82.541
	C90.14,283.139,135.638,249.323,113.638,190.823z"/>
<g>
	<g>
		<path fill="none" stroke="#C6BEBE" stroke-width="2" stroke-miterlimit="10" d="M114.975,194.594
			c-0.415-1.245-0.86-2.502-1.337-3.771c0,0,1.432-0.035,3.994-0.115"/>
		<path fill="none" stroke="#C6BEBE" stroke-width="2" stroke-miterlimit="10" stroke-dasharray="7.8997,2.9624" d="M120.589,190.61
			c23.296-0.801,98.165-4.101,116.369-13.901c18.055-9.719,18.976-12.038,25.578-12.038c6.603,0,19.323,8.924,25.213,12.038
			c5.538,2.928,74.403,15.543,105.463,12.435"/>
		<path fill="none" stroke="#C6BEBE" stroke-width="2" stroke-miterlimit="10" d="M394.689,188.981
			c1.407-0.171,2.728-0.378,3.948-0.624c-0.284,1.245-0.547,2.553-0.789,3.918"/>
		<path fill="none" stroke="#C6BEBE" stroke-width="2" stroke-miterlimit="10" stroke-dasharray="8.3425,3.1284" d="M397.35,195.363
			c-4.011,27.432-0.406,73.338,10.741,88.196"/>
		<path fill="none" stroke="#C6BEBE" stroke-width="2" stroke-miterlimit="10" d="M409.081,284.773
			c0.966,1.086,1.985,1.944,3.057,2.55c-0.834,0.969-1.7,1.981-2.603,3.034"/>
		<path fill="none" stroke="#C6BEBE" stroke-width="2" stroke-miterlimit="10" stroke-dasharray="8.0231,3.0087" d="
			M407.577,292.639c-22.668,26.347-65.782,73.162-154.44,73.162c-95,0-163.002-82.419-163-82.541
			c0.002-0.117,42.807-31.936,25.303-87.232"/>
	</g>
</g>
</svg>
