<?xml version="1.0" encoding="utf-8"?>
<!-- Generator: Adobe Illustrator 16.0.0, SVG Export Plug-In . SVG Version: 6.00 Build 0)  -->
<!DOCTYPE svg PUBLIC "-//W3C//DTD SVG 1.1//EN" "http://www.w3.org/Graphics/SVG/1.1/DTD/svg11.dtd">
<svg version="1.1"
	 id="svg12211" xmlns:dc="http://purl.org/dc/elements/1.1/" xmlns:cc="http://creativecommons.org/ns#" xmlns:rdf="http://www.w3.org/1999/02/22-rdf-syntax-ns#" xmlns:svg="http://www.w3.org/2000/svg" xmlns:sodipodi="http://sodipodi.sourceforge.net/DTD/sodipodi-0.dtd" xmlns:inkscape="http://www.inkscape.org/namespaces/inkscape" inkscape:export-ydpi="72.021774" inkscape:export-xdpi="72.021774" inkscape:export-filename="C:\Users\Zealotlee\Dropbox\Small Projects\Steves Fuzzballs\fuschia-fuzzle.png" sodipodi:docname="acc-face-beard.svg" inkscape:version="0.91 r13725"
	 xmlns="http://www.w3.org/2000/svg" xmlns:xlink="http://www.w3.org/1999/xlink" x="0px" y="0px" width="121.133px"
	 height="92.134px" viewBox="216.431 210.837 121.133 92.134" enable-background="new 216.431 210.837 121.133 92.134"
	 xml:space="preserve">
<sodipodi:namedview  showguides="true" showgrid="false" inkscape:cy="193.02625" inkscape:cx="369.48506" inkscape:zoom="0.71220416" borderopacity="1.0" bordercolor="#666666" pagecolor="#ffffff" id="base" inkscape:window-maximized="1" inkscape:window-y="-8" inkscape:window-x="-8" inkscape:window-height="988" inkscape:window-width="1680" inkscape:pageshadow="2" inkscape:current-layer="layer1" inkscape:pageopacity="0.0" inkscape:document-units="px">
	</sodipodi:namedview>
<g>
	<g>
		<path fill="#FFF4E8" stroke="#C7B5A3" stroke-width="3" stroke-miterlimit="10" d="M261.907,299.975
			c-3.872-2.481-13.704-21.511-19.207-31.021c-5.504-9.511-8.118-17.584-9.862-23.208c-1.744-5.623,1.857-8.517,5.604-10.401
			c3.747-1.884,34.733-17.823,42.083-21.158c7.352-3.335,8.942-1.607,11.978,0.839c3.035,2.446,12.763,16.768,15.144,23.658
			c2.381,6.891,10.578,26.067,11.344,30.462c0.766,4.397-2.109,10.17-6.721,12.492c-4.61,2.32-13.031,5.549-18.822,8.461
			s-10.543,6.391-16.471,8.967C271.05,301.643,265.779,302.457,261.907,299.975z"/>
		<path fill="#FFF4E8" stroke="#C7B5A3" stroke-width="3" stroke-miterlimit="10" d="M239.761,240.075
			c2.06-0.185,15.348-4.908,25.341-9.932c9.994-5.024,19.662-11.49,20.975-12.872s-4.649,0.331-10.125,3.165
			c-5.477,2.834-6.407,2.74-8.361,3.642c-1.954,0.902-2.372,2.236-5.109,3.371c-2.736,1.135-3.861,1.292-5.975,2.197
			c-2.113,0.906-1.278,1.128-4.802,2.9s-8.872,4.541-10.697,5.539C239.182,239.082,238.789,240.162,239.761,240.075z"/>
	</g>
	<path fill="#F0E8E2" d="M266.639,234.945c-4.043,3.111-7.203,7.159-9.943,11.434c-2.719,4.241-6.19,9.863-4.417,15.086
		c1.414,4.164,4.317,8.199,6.321,12.123c2.27,4.447,5.034,8.284,9.959,9.924c11.221,3.735,23.241-2.918,26.646-14.047
		c1.465-4.789,1.938-10.145,2.353-15.122c0.488-5.888-0.774-10.941-6.029-14.248c-5.574-3.508-12.463-4.686-18.582-6.965
		c-3.012-1.121-4.075-0.844-6.141,1.648"/>
	<path fill="#FFFFFF" stroke="#DFEDF0" stroke-width="3" stroke-miterlimit="10" d="M335.261,242.744
		c0,0-17.761,14.293-59.416,33.878c-41.655,19.585-36.863,16.543-48.301,20.019c-1.807-4.854-0.834-5.312-2.024-7.843
		c-1.19-2.53-2.494-4.294-2.494-4.294s31.767-12.721,47.535-20.134c15.767-7.413,47.644-24.54,57.652-32.574
		C330.742,234.649,332.342,240.076,335.261,242.744z"/>
	<path fill="#FFFFFF" stroke="#DFEDF0" stroke-width="3" stroke-miterlimit="10" d="M222.189,273.727c0,0,5.839-0.055,44.202-18.092
		c38.363-18.037,44.694-25.055,53.822-31.248c-2.555-4.503-3.451-4.082-4.641-6.612c-1.19-2.53-1.746-4.646-1.746-4.646
		s-39.178,22.224-53.699,29.051c-14.52,6.827-29.318,14.897-41.995,19.193C218.791,265.104,221.888,269.828,222.189,273.727z"/>
	<path fill="#DFEDF0" d="M327.837,241.295c0.901,1.564,0.365,3.473-0.782,1.873c-1.148-1.6-2.74-2.119-2.809-3.275
		c-0.068-1.156,0.283-2.431,0.736-2.644C325.438,237.036,325.682,237.555,327.837,241.295z"/>
	<path fill="#DFEDF0" d="M311.496,223.784c0.876,2.432-0.723,3.35-1.729,1.883c-1.008-1.468-2.266-2.964-2.768-3.863
		c-0.502-0.899,0.373-2.578,1.883-1.386C310.395,221.608,311.382,223.467,311.496,223.784z"/>
	<path fill="#DFEDF0" d="M233.173,289.253c0.493,1.737-0.491,3.457-1.215,1.627c-0.725-1.831-2.141-2.722-1.926-3.86
		c0.215-1.138,0.866-2.289,1.359-2.385C231.883,284.538,231.993,285.102,233.173,289.253z"/>
	<path fill="#DFEDF0" d="M230.821,265.551c-0.047,2.585-1.867,2.874-2.286,1.145c-0.419-1.73-1.062-3.576-1.211-4.596
		c-0.149-1.019,1.266-2.275,2.254-0.625C230.566,263.126,230.827,265.214,230.821,265.551z"/>
</g>
</svg>
