<?xml version="1.0" encoding="utf-8"?>
<!-- Generator: Adobe Illustrator 16.0.0, SVG Export Plug-In . SVG Version: 6.00 Build 0)  -->
<!DOCTYPE svg PUBLIC "-//W3C//DTD SVG 1.1//EN" "http://www.w3.org/Graphics/SVG/1.1/DTD/svg11.dtd">
<svg version="1.1"
	 id="svg12211" xmlns:dc="http://purl.org/dc/elements/1.1/" xmlns:cc="http://creativecommons.org/ns#" xmlns:rdf="http://www.w3.org/1999/02/22-rdf-syntax-ns#" xmlns:svg="http://www.w3.org/2000/svg" xmlns:sodipodi="http://sodipodi.sourceforge.net/DTD/sodipodi-0.dtd" xmlns:inkscape="http://www.inkscape.org/namespaces/inkscape" inkscape:export-ydpi="72.021774" inkscape:export-xdpi="72.021774" inkscape:export-filename="C:\Users\Zealotlee\Dropbox\Small Projects\Steves Fuzzballs\fuschia-fuzzle.png" sodipodi:docname="acc-face-mustache.svg" inkscape:version="0.91 r13725"
	 xmlns="http://www.w3.org/2000/svg" xmlns:xlink="http://www.w3.org/1999/xlink" x="0px" y="0px" width="111.624px"
	 height="59.667px" viewBox="211.779 234.731 111.624 59.667" enable-background="new 211.779 234.731 111.624 59.667"
	 xml:space="preserve">
<path fill="#A94141" d="M254.291,240.4c0,0,14.167,9.667,19,24.833c4.833,15.168,1,26.834,1,26.834l-4.5,2.332
	c0,0,0.326-22.012-2.504-28.09C264.458,260.234,255.958,243.067,254.291,240.4z"/>
<path fill="#7C2727" d="M259.216,245.767c0,0,8.978,7.209,12.908,19.422c3.931,12.215,2.546,22.002,2.546,22.002l-2.456,2.15
	c0,0-1.42-18.107-3.516-22.955C266.602,261.538,260.384,247.872,259.216,245.767z"/>
<path fill="#FFFFF3" stroke="#BCBCBC" stroke-width="2" stroke-miterlimit="10" d="M261.458,259.9c0,0-1.333-5.833-5.667-6.167
	c-4.333-0.333-6.833,3.167-11.5,4.667s-20.167,7.332-24.833,8.666c-4.667,1.334-8,6.334-6.167,11.668
	c1.833,5.332,7.833,12.666,11,13c3.167,0.332,7.988-0.334,12.827-2.834c4.839-2.5,20.673-9.166,24.339-11.166
	c3.667-2,4.5-4.5,4-6.668c-0.5-2.166-1.333-4.166-1.333-4.166l11.333-4.5c0,0,0.667,3.166,2.667,5.332c2,2.168,3,4.5,7,2.5
	s14.5-6.166,19.833-7.832c5.333-1.668,9.667-3.668,14-5.668c4.333-2,3.667-7.667,2.833-10.333c-0.833-2.667-3.167-5.5-5.333-8.5
	c-2.167-3-5.833-2.5-10.5-0.833s-28.833,9.167-31.833,10.667s-3,5.333-1.333,8.833C268.958,258.066,261.458,259.9,261.458,259.9z"/>
</svg>
