<?xml version="1.0" encoding="utf-8"?>
<!-- Generator: Adobe Illustrator 16.0.0, SVG Export Plug-In . SVG Version: 6.00 Build 0)  -->
<!DOCTYPE svg PUBLIC "-//W3C//DTD SVG 1.1//EN" "http://www.w3.org/Graphics/SVG/1.1/DTD/svg11.dtd">
<svg version="1.1"
	 id="svg12211" xmlns:dc="http://purl.org/dc/elements/1.1/" xmlns:cc="http://creativecommons.org/ns#" xmlns:rdf="http://www.w3.org/1999/02/22-rdf-syntax-ns#" xmlns:svg="http://www.w3.org/2000/svg" xmlns:sodipodi="http://sodipodi.sourceforge.net/DTD/sodipodi-0.dtd" xmlns:inkscape="http://www.inkscape.org/namespaces/inkscape" inkscape:export-ydpi="72.021774" inkscape:export-xdpi="72.021774" inkscape:export-filename="C:\Users\Zealotlee\Dropbox\Small Projects\Steves Fuzzballs\fuschia-fuzzle.png" sodipodi:docname="acc-face-mustache.svg" inkscape:version="0.91 r13725"
	 xmlns="http://www.w3.org/2000/svg" xmlns:xlink="http://www.w3.org/1999/xlink" x="0px" y="0px" width="425.532px"
	 height="201.946px" viewBox="39.424 201.56 425.532 201.946" enable-background="new 39.424 201.56 425.532 201.946"
	 xml:space="preserve">
<path fill="#DC00DC" stroke="#C800C8" stroke-width="5" stroke-linejoin="round" stroke-miterlimit="10" d="M247.739,401.006
	c0,0,20.202-9.47,29.673-23.991c9.47-14.521-184.997-126.5-184.997-126.5S189.656,363.757,247.739,401.006z"/>
<path fill="#DC00DC" stroke="#C800C8" stroke-width="5" stroke-linejoin="round" stroke-miterlimit="10" d="M294.458,391.536
	c21.142,3.719,98.487-79.081,112.378-109.304c13.889-30.222,41.099-48.982,55.62-78.172
	c-29.673,9.321-127.593,32.173-187.569,38.799c-59.977,6.627-75.76,2.212-106.063,0c-30.304-2.212-70.078,0.131-82.074-1.356
	c15.152,27.554,57.452,64.172,80.811,80.586S226.274,379.54,294.458,391.536z"/>
<path fill="#FF00FF" d="M456.789,208.546c0,0-115.719,30.929-161.525,38.304c-45.808,7.375-147.808,1.625-161.142,0
	c-13.333-1.625-33.829-0.26-23.707,7.424s39.995,17.615,84.851,20.783c44.856,3.17,99.88-8.898,112.035-12.199
	c12.155-3.299,3.876-7.056,39.016-11.343c35.141-4.288,100.14-27.246,104.14-32.6S456.789,208.546,456.789,208.546z"/>
<path fill="#DC00DC" stroke="#C800C8" stroke-width="5" stroke-linejoin="round" stroke-miterlimit="10" d="M69.387,241.593
	c0,0-21.781-5.834-27.463,8.921c11.995,9.388,25.885,16.649,33.776,9.388C83.592,252.642,69.387,241.593,69.387,241.593z"/>
<path fill="#DC00DC" stroke="#C800C8" stroke-width="5" stroke-linejoin="round" stroke-miterlimit="10" d="M75.7,254.851
	c0,0-15.291,13.574-15.695,23.674c-0.404,10.102,3.09,21.781,5.446,30.305c9.933-10.102,18.456-24.622,25.085-29.041
	s2.809-19.571,1.878-21.781C91.484,255.798,75.7,254.851,75.7,254.851z"/>
<g>
	<path fill="#C800C8" d="M69.703,250.514c0,0-0.143,0.265-0.492,0.652c-0.348,0.382-0.907,0.872-1.663,1.343
		c-0.384,0.209-0.806,0.459-1.278,0.636c-0.468,0.201-0.978,0.366-1.515,0.498c-0.535,0.154-1.101,0.214-1.677,0.298
		c-0.575,0.037-1.165,0.072-1.749,0.051c-0.581-0.056-1.171-0.059-1.73-0.183c-0.56-0.11-1.117-0.207-1.63-0.379
		c-0.515-0.167-1.006-0.348-1.464-0.527c-0.447-0.213-0.862-0.431-1.237-0.639c-0.758-0.402-1.312-0.892-1.704-1.207
		c-0.388-0.326-0.59-0.543-0.59-0.543s0.306-0.024,0.806-0.013c0.507-0.009,1.186,0.086,2.005,0.103
		c0.405,0.024,0.835,0.061,1.283,0.112c0.453,0.02,0.924,0.05,1.403,0.102c0.479,0.056,0.975,0.044,1.47,0.102
		c0.497,0.049,0.998,0.039,1.498,0.076c0.5,0.034,0.996,0.01,1.49,0.044c0.486-0.029,0.977,0.009,1.444-0.021
		c0.47-0.014,0.929-0.023,1.365-0.058c0.443-0.008,0.851-0.069,1.248-0.087c0.78-0.073,1.453-0.158,1.941-0.228
		C69.42,250.562,69.703,250.514,69.703,250.514z"/>
</g>
<g>
	<path fill="#C800C8" d="M77.164,264.499c0,0,0.008,0.331-0.023,0.888c-0.025,0.561-0.104,1.334-0.221,2.256
		c-0.133,0.916-0.323,1.967-0.564,3.074c-0.119,0.555-0.275,1.117-0.411,1.692c-0.136,0.575-0.303,1.149-0.466,1.726
		c-0.367,1.145-0.66,2.286-1.059,3.344c-0.206,0.528-0.345,1.037-0.522,1.522c-0.171,0.483-0.348,0.942-0.522,1.366
		c-0.194,0.425-0.298,0.809-0.432,1.158c-0.115,0.351-0.248,0.658-0.351,0.916c-0.21,0.515-0.366,0.82-0.366,0.82
		s-0.107-0.301-0.231-0.848c-0.06-0.273-0.14-0.609-0.196-1c-0.057-0.387-0.16-0.846-0.144-1.313
		c-0.006-0.474,0.001-0.987,0.023-1.531c0.031-0.541,0.042-1.129,0.148-1.698c0.193-1.147,0.399-2.394,0.769-3.569
		c0.185-0.591,0.366-1.183,0.572-1.756c0.19-0.579,0.436-1.126,0.666-1.658c0.459-1.064,0.965-2.027,1.455-2.828
		c0.483-0.804,0.952-1.449,1.297-1.888C76.93,264.734,77.164,264.499,77.164,264.499z"/>
</g>
<g>
	<path fill="#C800C8" d="M85.173,266.854c0,0-0.009,0.308-0.079,0.82c-0.066,0.514-0.2,1.23-0.382,2.07
		c-0.192,0.835-0.463,1.781-0.811,2.766c-0.363,0.979-0.73,2.024-1.177,3.035c-0.448,1.012-0.943,2.001-1.462,2.909
		c-0.244,0.454-0.481,0.894-0.705,1.31c-0.234,0.414-0.469,0.803-0.697,1.159c-0.463,0.711-0.896,1.298-1.226,1.704
		c-0.326,0.408-0.547,0.635-0.547,0.635s-0.031-0.299-0.023-0.811c0.004-0.514,0.047-1.24,0.156-2.105
		c0.058-0.433,0.133-0.897,0.227-1.388c0.102-0.483,0.194-1.012,0.355-1.519c0.323-1.012,0.727-2.069,1.179-3.106
		c0.465-1.03,0.949-2.054,1.52-2.954c0.556-0.908,1.129-1.727,1.66-2.404c0.532-0.679,1.032-1.207,1.403-1.568
		C84.932,267.044,85.173,266.854,85.173,266.854z"/>
</g>
<g>
	<path fill="#C800C8" d="M92.415,243.172c0,0,0.372,0.062,0.993,0.207c0.622,0.144,1.496,0.37,2.52,0.672
		c1.022,0.306,2.194,0.69,3.427,1.131c1.236,0.434,2.529,0.938,3.819,1.427c1.279,0.507,2.558,1.013,3.758,1.488
		c0.596,0.257,1.177,0.451,1.727,0.681c0.549,0.24,1.073,0.394,1.558,0.595c0.486,0.207,0.934,0.33,1.339,0.485
		c0.406,0.148,0.762,0.275,1.061,0.348c0.6,0.174,0.964,0.309,0.964,0.309s-0.342,0.127-0.98,0.287
		c-0.161,0.039-0.339,0.082-0.534,0.129c-0.193,0.033-0.402,0.044-0.628,0.069c-0.448,0.036-0.976,0.118-1.525,0.085
		c-0.55-0.025-1.169-0.017-1.79-0.113c-0.622-0.09-1.297-0.163-1.958-0.327c-0.667-0.152-1.363-0.306-2.039-0.533
		c-0.688-0.201-1.371-0.447-2.044-0.709c-2.697-1.053-5.199-2.499-6.934-3.807c-0.869-0.654-1.56-1.248-2.024-1.695
		C92.657,243.459,92.415,243.172,92.415,243.172z"/>
</g>
<g>
	<path fill="#C800C8" d="M94.354,246.85c0,0,0.492,0.238,1.325,0.674c0.831,0.44,2.016,1.061,3.396,1.85
		c2.795,1.53,6.405,3.674,10.029,5.747c0.906,0.516,1.813,1.032,2.705,1.541c0.907,0.473,1.78,0.984,2.638,1.449
		c0.863,0.459,1.697,0.904,2.487,1.324c0.802,0.392,1.552,0.799,2.252,1.164c0.714,0.316,1.363,0.64,1.942,0.93
		c0.577,0.3,1.1,0.49,1.524,0.693c0.854,0.381,1.346,0.637,1.346,0.637s-0.539,0.002-1.489-0.058
		c-0.47-0.046-1.067-0.034-1.71-0.172c-0.652-0.108-1.391-0.233-2.192-0.407c-0.789-0.197-1.641-0.431-2.538-0.699
		c-0.89-0.283-1.804-0.641-2.756-1.004c-0.94-0.386-1.891-0.826-2.855-1.279c-0.947-0.482-1.903-0.987-2.843-1.516
		c-0.92-0.561-1.864-1.086-2.737-1.686c-0.887-0.58-1.747-1.168-2.553-1.775c-1.628-1.189-3.067-2.405-4.254-3.499
		c-1.192-1.088-2.126-2.063-2.755-2.771C94.68,247.289,94.354,246.85,94.354,246.85z"/>
</g>
<g>
	<path fill="#C800C8" d="M128.417,275.057c0,0-0.746-0.055-2.023-0.31c-0.643-0.114-1.411-0.297-2.294-0.515
		c-0.868-0.252-1.874-0.489-2.922-0.875c-0.53-0.181-1.082-0.369-1.653-0.564c-0.566-0.209-1.136-0.461-1.732-0.702
		c-1.198-0.468-2.417-1.063-3.675-1.687c-0.631-0.307-1.243-0.676-1.88-1.02c-0.629-0.357-1.288-0.684-1.896-1.105
		c-1.222-0.831-2.521-1.594-3.702-2.53l-1.781-1.382c-0.593-0.458-1.121-0.994-1.677-1.484c-0.55-0.497-1.092-0.994-1.612-1.501
		c-0.491-0.536-0.977-1.067-1.454-1.589c-0.47-0.527-0.959-1.02-1.386-1.548c-0.404-0.547-0.8-1.082-1.185-1.603
		c-0.381-0.521-0.752-1.027-1.111-1.517c-0.348-0.496-0.613-1.029-0.904-1.509c-0.568-0.973-1.074-1.867-1.488-2.676
		c-0.368-0.837-0.66-1.578-0.903-2.182c-0.484-1.21-0.723-1.907-0.723-1.907s0.477,0.585,1.245,1.619
		c0.383,0.518,0.852,1.139,1.356,1.865c0.57,0.679,1.213,1.444,1.914,2.28c0.66,0.858,1.486,1.695,2.335,2.594
		c0.422,0.449,0.856,0.91,1.3,1.381c0.471,0.444,0.952,0.898,1.441,1.359c0.487,0.461,0.982,0.93,1.483,1.405
		c0.535,0.438,1.077,0.881,1.61,1.34c0.543,0.449,1.066,0.928,1.632,1.363l1.709,1.295c1.1,0.92,2.326,1.674,3.473,2.5
		c1.186,0.767,2.343,1.547,3.493,2.256c1.177,0.66,2.266,1.398,3.365,1.98c1.084,0.612,2.114,1.186,3.08,1.695
		c0.959,0.523,1.863,0.955,2.65,1.381c0.806,0.373,1.494,0.756,2.079,1.021C127.749,274.739,128.417,275.057,128.417,275.057z"/>
</g>
<g>
	<path fill="#C800C8" d="M271.604,338.188c0,0,1.146,0.078,3.151,0.216c2.003,0.136,4.86,0.324,8.276,0.507
		c3.414,0.158,7.4,0.329,11.609,0.201c2.103-0.054,4.262-0.252,6.344-0.623c1.027-0.202,2.048-0.467,2.908-0.861
		c0.195-0.11,0.42-0.202,0.596-0.32c0.166-0.131,0.343-0.216,0.511-0.369c0.222-0.187,0.448-0.381,0.571-0.514
		c0.08-0.074,0.154-0.146,0.207-0.218c0.06-0.069,0.139-0.151,0.146-0.182c0.153-0.15-0.129-0.035,0.056,0.573
		c0.073,0.15,0.125,0.23,0.183,0.301c0.03,0.034,0.075,0.067,0.106,0.087c0.006,0.01,0.014,0.019,0.023,0.025
		c0.078,0.033,0.001,0.006-0.031-0.01c-0.266-0.09-0.814-0.156-1.326-0.184c-1.057-0.063-2.19-0.056-3.326-0.068
		c-1.14-0.008-2.287-0.035-3.453-0.159c-1.164-0.126-2.342-0.286-3.575-0.783c-0.31-0.139-0.618-0.271-0.929-0.489l-0.229-0.156
		l-0.028-0.021c-0.048-0.037,0.067,0.059-0.115-0.09l-0.037-0.034l-0.072-0.066c-0.1-0.099-0.165-0.127-0.396-0.418
		c-0.386-0.424-0.6-1.14-0.469-1.798c0.075-0.311,0.197-0.594,0.334-0.774c0.139-0.228,0.277-0.359,0.417-0.501
		c1.111-0.978,2.089-1.279,3.06-1.678c1.928-0.724,3.75-1.17,5.433-1.581c3.362-0.813,6.172-1.347,8.134-1.77
		c1.965-0.406,3.086-0.67,3.086-0.67s-1.039,0.502-2.914,1.242c-1.871,0.745-4.588,1.708-7.813,2.848
		c-1.602,0.584-3.348,1.221-5.061,1.997c-0.822,0.377-1.754,0.884-2.151,1.334c-0.037,0.047-0.085,0.099-0.068,0.103
		c-0.024,0.028,0.021-0.006,0.027-0.063c0.056-0.154-0.036-0.305-0.052-0.342c-0.09-0.063,0.058,0.067,0.156,0.146l0.075,0.063
		l0.038,0.032c-0.168-0.139-0.039-0.034-0.072-0.064l0.012,0.008l0.106,0.06c0.125,0.088,0.319,0.157,0.5,0.23
		c0.776,0.276,1.789,0.398,2.82,0.454c1.038,0.053,2.128,0.046,3.241,0.048c1.119-0.004,2.258-0.031,3.479,0.02
		c0.624,0.038,1.228,0.054,2.06,0.291c0.234,0.086,0.436,0.138,0.75,0.339l0.207,0.137c0.082,0.067,0.174,0.157,0.254,0.243
		c0.162,0.171,0.305,0.359,0.408,0.655c0.051,0.136,0.092,0.278,0.118,0.416c0.017,0.127,0.015,0.242,0.011,0.365
		c-0.008,0.247-0.054,0.502-0.109,0.625c-0.055,0.153-0.12,0.313-0.189,0.455l-0.193,0.3c-0.139,0.217-0.26,0.341-0.389,0.487
		c-0.127,0.15-0.258,0.278-0.389,0.398c-0.281,0.273-0.496,0.443-0.713,0.623c-0.262,0.227-0.59,0.421-0.887,0.624
		c-0.305,0.189-0.61,0.318-0.918,0.475c-1.226,0.536-2.43,0.811-3.612,1.027c-2.362,0.406-4.649,0.433-6.838,0.41
		c-2.191-0.021-4.288-0.199-6.267-0.398c-1.979-0.189-3.836-0.46-5.545-0.732c-3.416-0.537-6.228-1.157-8.186-1.625
		C272.707,338.516,271.604,338.188,271.604,338.188z"/>
</g>
<path fill="#DC00DC" stroke="#C800C8" stroke-width="5" stroke-linejoin="round" stroke-miterlimit="10" d="M96.853,242
	c-2.236-10.297-24.941-16.506-30.307-2.932c-5.366,13.574,10.115,31.403,22.412,27.147S99.066,252.192,96.853,242z"/>
</svg>
