<?xml version="1.0" encoding="utf-8"?>
<!-- Generator: Adobe Illustrator 16.0.0, SVG Export Plug-In . SVG Version: 6.00 Build 0)  -->
<!DOCTYPE svg PUBLIC "-//W3C//DTD SVG 1.1//EN" "http://www.w3.org/Graphics/SVG/1.1/DTD/svg11.dtd">
<svg version="1.1"
	 id="svg12211" xmlns:dc="http://purl.org/dc/elements/1.1/" xmlns:cc="http://creativecommons.org/ns#" xmlns:rdf="http://www.w3.org/1999/02/22-rdf-syntax-ns#" xmlns:svg="http://www.w3.org/2000/svg" xmlns:sodipodi="http://sodipodi.sourceforge.net/DTD/sodipodi-0.dtd" xmlns:inkscape="http://www.inkscape.org/namespaces/inkscape" inkscape:export-ydpi="72.021774" inkscape:export-xdpi="72.021774" inkscape:export-filename="C:\Users\Zealotlee\Dropbox\Small Projects\Steves Fuzzballs\fuschia-fuzzle.png" sodipodi:docname="acc-face-mustache.svg" inkscape:version="0.91 r13725"
	 xmlns="http://www.w3.org/2000/svg" xmlns:xlink="http://www.w3.org/1999/xlink" x="0px" y="0px" width="115.952px"
	 height="54.66px" viewBox="198.442 228.644 115.952 54.66" enable-background="new 198.442 228.644 115.952 54.66"
	 xml:space="preserve">
<path fill="#FF00FF" stroke="#DC00DC" stroke-width="5" d="M264.239,231.144c-30.288,0.08-38.423,5.79-44.556,9.753
	c-6.133,3.963-15.584,24.057-17.467,32.835c8.875-6.178,10.489,0,10.489,0l9.367-9.104l0.504,11.053l6.266-5.527l1.621,5.527
	l10.481-10.078l2.42,10.078l5.228-8.127l2.501,6.178l8.138-10.729l1.615,10.403l8.067-9.753l1.883,8.127l2.081-12.029l5.987,13.654
	l2.42-10.403l4.481,9.753l5.469-6.177l3.951,9.103l3.073-11.703l5.616,11.703l5.445-8.453c0,0,1.01,0.65,2.623,5.527
	c-3.766-18.53-3.932-26.983-16.758-33.485S274.086,231.118,264.239,231.144z"/>
</svg>
