<?xml version="1.0" encoding="utf-8"?>
<!-- Generator: Adobe Illustrator 16.0.0, SVG Export Plug-In . SVG Version: 6.00 Build 0)  -->
<!DOCTYPE svg PUBLIC "-//W3C//DTD SVG 1.1//EN" "http://www.w3.org/Graphics/SVG/1.1/DTD/svg11.dtd">
<svg version="1.1"
	 id="svg12211" xmlns:dc="http://purl.org/dc/elements/1.1/" xmlns:cc="http://creativecommons.org/ns#" xmlns:rdf="http://www.w3.org/1999/02/22-rdf-syntax-ns#" xmlns:svg="http://www.w3.org/2000/svg" xmlns:sodipodi="http://sodipodi.sourceforge.net/DTD/sodipodi-0.dtd" xmlns:inkscape="http://www.inkscape.org/namespaces/inkscape" inkscape:export-ydpi="72.021774" inkscape:export-xdpi="72.021774" inkscape:export-filename="C:\Users\Zealotlee\Dropbox\Small Projects\Steves Fuzzballs\fuschia-fuzzle.png" sodipodi:docname="acc-face-mustache.svg" inkscape:version="0.91 r13725"
	 xmlns="http://www.w3.org/2000/svg" xmlns:xlink="http://www.w3.org/1999/xlink" x="0px" y="0px" width="324.629px"
	 height="95.63px" viewBox="94.766 208.62 324.629 95.63" enable-background="new 94.766 208.62 324.629 95.63"
	 xml:space="preserve">
<sodipodi:namedview  showguides="true" showgrid="false" inkscape:cy="193.02625" inkscape:cx="369.48506" inkscape:zoom="0.71220416" borderopacity="1.0" bordercolor="#666666" pagecolor="#ffffff" id="base" inkscape:window-maximized="1" inkscape:window-y="-8" inkscape:window-x="-8" inkscape:window-height="988" inkscape:window-width="1680" inkscape:pageshadow="2" inkscape:current-layer="layer1" inkscape:pageopacity="0.0" inkscape:document-units="px">
	</sodipodi:namedview>
<g>
	<path fill="#F4B822" stroke="#CC8D00" stroke-miterlimit="10" d="M229.119,227.807c0,0,3.647-1.388,5.469-6.955
		c1.822-5.567-2.126-9.109-2.126-9.109s-5.364,4.453-4.96,9.211C227.906,225.712,229.119,227.807,229.119,227.807z"/>
	<path fill="#F4B822" stroke="#CC8D00" stroke-miterlimit="10" d="M229.722,227.807c0,0,3.647,1.388,5.469,6.955
		c1.822,5.567-2.126,9.109-2.126,9.109s-5.364-4.454-4.96-9.211C228.511,229.904,229.722,227.807,229.722,227.807z"/>
	<path fill="#F4B822" stroke="#CC8D00" stroke-miterlimit="10" d="M236.705,226.925c0,0,3.161-0.205,5.904-4.087
		c2.744-3.882,0.529-7.573,0.529-7.573s-5.225,2.171-6.049,5.958C236.267,225.009,236.705,226.925,236.705,226.925z"/>
	<path fill="#F4B822" stroke="#CC8D00" stroke-miterlimit="10" d="M237.139,227.472c0,0,3.136,0.445,5.576,4.524
		c2.44,4.079-0.049,7.591-0.049,7.591s-5.045-2.563-5.577-6.401C236.557,229.348,237.139,227.472,237.139,227.472z"/>
	<path fill="#F4B822" stroke="#CC8D00" stroke-miterlimit="10" d="M242.237,226.708c0,0,1.36-2.861,5.981-3.974
		c4.622-1.113,7.232,2.31,7.232,2.31s-3.951,4.051-7.773,3.415C243.855,227.823,242.237,226.708,242.237,226.708z"/>
	<path fill="#F4B822" stroke="#CC8D00" stroke-miterlimit="10" d="M219.397,229.581c0,0,3.992-1.963,5.644-9.029
		c1.652-7.066-3.023-11.239-3.023-11.239s-5.703,5.899-4.915,11.812C217.892,227.039,219.397,229.581,219.397,229.581z"/>
	<path fill="#F4B822" stroke="#CC8D00" stroke-miterlimit="10" d="M220.073,229.543c0,0,4.187,1.503,6.621,8.339
		c2.434,6.835-1.744,11.507-1.744,11.507s-6.328-5.222-6.208-11.187C218.862,232.237,220.073,229.543,220.073,229.543z"/>
	<path fill="#F4B822" stroke="#CC8D00" stroke-miterlimit="10" d="M209.413,231.47c0,0,4.042-2.177,5.548-9.742
		s-3.399-11.916-3.399-11.916s-5.691,6.407-4.726,12.694C207.802,228.792,209.413,231.47,209.413,231.47z"/>
	<path fill="#F4B822" stroke="#CC8D00" stroke-miterlimit="10" d="M210.105,231.415c0,0,4.334,1.514,7.011,8.749
		c2.677,7.234-1.483,12.302-1.483,12.302s-6.628-5.433-6.663-11.793C208.935,234.313,210.105,231.415,210.105,231.415z"/>
	<path fill="#F4B822" stroke="#CC8D00" stroke-miterlimit="10" d="M199.319,233.986c0,0,3.942-2.353,5.113-9.977
		c1.172-7.625-3.92-11.755-3.92-11.755s-5.403,6.652-4.162,12.89C197.592,231.382,199.319,233.986,199.319,233.986z"/>
	<path fill="#F4B822" stroke="#CC8D00" stroke-miterlimit="10" d="M200.008,233.9c0,0,4.396,1.322,7.39,8.431
		s-0.939,12.356-0.939,12.356s-6.861-5.135-7.177-11.488C198.966,236.846,200.008,233.9,200.008,233.9z"/>
	<path fill="#F4B822" stroke="#CC8D00" stroke-miterlimit="10" d="M188.359,237.859c0,0,3.811-2.559,4.575-10.235
		s-4.54-11.529-4.54-11.529s-5.042,6.93-3.47,13.093C186.495,235.351,188.359,237.859,188.359,237.859z"/>
	<path fill="#F4B822" stroke="#CC8D00" stroke-miterlimit="10" d="M189.042,237.737c0,0,4.46,1.086,7.828,8.026
		c3.368,6.94-0.28,12.387-0.28,12.387s-7.124-4.762-7.777-11.089C188.159,240.734,189.042,237.737,189.042,237.737z"/>
	<path fill="#F4B822" stroke="#CC8D00" stroke-miterlimit="10" d="M176.834,241.191c0,0,3.811-2.559,4.575-10.235
		c0.764-7.676-4.54-11.529-4.54-11.529s-5.042,6.93-3.47,13.093C174.971,238.682,176.834,241.191,176.834,241.191z"/>
	<path fill="#F4B822" stroke="#CC8D00" stroke-miterlimit="10" d="M177.518,241.069c0,0,4.46,1.086,7.828,8.026
		c3.368,6.94-0.28,12.387-0.28,12.387s-7.124-4.762-7.777-11.089C176.635,244.066,177.518,241.069,177.518,241.069z"/>
	<path fill="#F4B822" stroke="#CC8D00" stroke-miterlimit="10" d="M165.327,245.549c0,0,3.666-3.14,3.523-11.25
		c-0.143-8.11-6.155-11.483-6.155-11.483s-4.415,7.855-2.018,14.099C163.073,243.158,165.327,245.549,165.327,245.549z"/>
	<path fill="#F4B822" stroke="#CC8D00" stroke-miterlimit="10" d="M166.025,245.338c0,0,4.791,0.587,9.159,7.422
		c4.368,6.836,1.226,12.971,1.226,12.971s-8.024-4.1-9.482-10.627C165.47,248.575,166.025,245.338,166.025,245.338z"/>
	<path fill="#F4B822" stroke="#CC8D00" stroke-miterlimit="10" d="M154.682,250.206c0,0,3.666-3.14,3.523-11.25
		s-6.155-11.483-6.155-11.483s-4.415,7.855-2.018,14.099C152.428,247.815,154.682,250.206,154.682,250.206z"/>
	<path fill="#F4B822" stroke="#CC8D00" stroke-miterlimit="10" d="M155.38,249.995c0,0,4.791,0.587,9.159,7.422
		s1.226,12.972,1.226,12.972s-8.024-4.101-9.482-10.628C154.826,253.233,155.38,249.995,155.38,249.995z"/>
	<path fill="#F4B822" stroke="#CC8D00" stroke-miterlimit="10" d="M144.223,255.221c0,0,3.666-3.14,3.523-11.25
		c-0.143-8.11-6.155-11.483-6.155-11.483s-4.415,7.855-2.018,14.099C141.969,252.83,144.223,255.221,144.223,255.221z"/>
	<path fill="#F4B822" stroke="#CC8D00" stroke-miterlimit="10" d="M144.922,255.01c0,0,4.791,0.587,9.159,7.422
		c4.368,6.836,1.226,12.971,1.226,12.971s-8.024-4.1-9.482-10.627S144.922,255.01,144.922,255.01z"/>
	<path fill="#F4B822" stroke="#CC8D00" stroke-miterlimit="10" d="M135.079,259.54c0,0,2.835-2.89,2.277-10.874
		c-0.558-7.985-5.671-11.63-5.671-11.63s-3.193,7.486-0.888,13.758C133.101,257.066,135.079,259.54,135.079,259.54z"/>
	<path fill="#F4B822" stroke="#CC8D00" stroke-miterlimit="10" d="M135.641,259.37c0,0,3.96,0.838,7.913,7.798
		c3.953,6.96,1.711,12.825,1.711,12.825s-6.802-4.47-8.352-10.97C135.362,262.525,135.641,259.37,135.641,259.37z"/>
	<path fill="#F4B822" stroke="#CC8D00" stroke-miterlimit="10" d="M126.894,263.059c0,0,2.351-2.742,1.551-10.655
		c-0.8-7.912-5.389-11.715-5.389-11.715s-2.481,7.272-0.23,13.559S126.894,263.059,126.894,263.059z"/>
	<path fill="#F4B822" stroke="#CC8D00" stroke-miterlimit="10" d="M127.375,262.914c0,0,3.476,0.984,7.187,8.018
		c3.711,7.032,1.993,12.739,1.993,12.739s-6.09-4.685-7.694-11.167S127.375,262.914,127.375,262.914z"/>
	<path fill="#F4B822" stroke="#CC8D00" stroke-miterlimit="10" d="M119.902,267.708c0,0,2.351-2.743,1.551-10.655
		c-0.8-7.912-5.389-11.715-5.389-11.715s-2.481,7.271-0.23,13.559C118.085,265.186,119.902,267.708,119.902,267.708z"/>
	<path fill="#F4B822" stroke="#CC8D00" stroke-miterlimit="10" d="M120.384,267.563c0,0,3.476,0.983,7.187,8.017
		c3.711,7.032,1.993,12.739,1.993,12.739s-6.09-4.684-7.694-11.166C120.266,270.669,120.384,267.563,120.384,267.563z"/>
	<path fill="#F4B822" stroke="#CC8D00" stroke-miterlimit="10" d="M114.454,271.861c0,0,1.59-2.512,0.41-10.31
		c-1.18-7.797-4.945-11.849-4.945-11.849s-1.361,6.934,0.805,13.247S114.454,271.861,114.454,271.861z"/>
	<path fill="#F4B822" stroke="#CC8D00" stroke-miterlimit="10" d="M114.81,271.754c0,0,2.715,1.214,6.046,8.362
		c3.331,7.147,2.436,12.606,2.436,12.606s-4.97-5.022-6.659-11.48C114.945,274.785,114.81,271.754,114.81,271.754z"/>
	<path fill="#F4B822" stroke="#CC8D00" stroke-miterlimit="10" d="M108.355,276.052c0,0,1.59-2.513,0.41-10.31
		c-1.18-7.797-4.945-11.849-4.945-11.849s-1.361,6.933,0.805,13.248C106.791,273.453,108.355,276.052,108.355,276.052z"/>
	<path fill="#F4B822" stroke="#CC8D00" stroke-miterlimit="10" d="M108.711,275.945c0,0,2.715,1.214,6.046,8.361
		c3.331,7.148,2.436,12.606,2.436,12.606s-4.97-5.022-6.659-11.479C108.845,278.975,108.711,275.945,108.711,275.945z"/>
	<path fill="#F4B822" stroke="#CC8D00" stroke-miterlimit="10" d="M103.259,278.766c0,0,1.163-2.384-0.231-10.117
		c-1.394-7.732-4.696-11.924-4.696-11.924s-0.733,6.744,1.386,13.071C101.837,276.125,103.259,278.766,103.259,278.766z"/>
	<path fill="#F4B822" stroke="#CC8D00" stroke-miterlimit="10" d="M103.544,278.68c0,0,2.288,1.344,5.405,8.555
		c3.117,7.213,2.685,12.531,2.685,12.531s-4.342-5.211-6.078-11.654C103.82,281.668,103.544,278.68,103.544,278.68z"/>
	<path fill="#F4B822" stroke="#CC8D00" stroke-miterlimit="10" d="M100.315,281.703c0,0,1.163-2.385-0.231-10.117
		s-4.696-11.924-4.696-11.924s-0.733,6.744,1.386,13.07C98.892,279.063,100.315,281.703,100.315,281.703z"/>
	<path fill="#F4B822" stroke="#CC8D00" stroke-miterlimit="10" d="M100.6,281.617c0,0,2.288,1.343,5.405,8.555
		c3.117,7.212,2.685,12.531,2.685,12.531s-4.342-5.212-6.078-11.655C100.876,284.605,100.6,281.617,100.6,281.617z"/>
	<path fill="#F4B822" stroke="#CC8D00" stroke-miterlimit="10" d="M285.041,228.092c0,0-3.646-1.388-5.469-6.955
		c-1.822-5.567,2.126-9.109,2.126-9.109s5.364,4.454,4.96,9.211C286.252,225.996,285.041,228.092,285.041,228.092z"/>
	<path fill="#F4B822" stroke="#CC8D00" stroke-miterlimit="10" d="M284.438,228.092c0,0-3.646,1.388-5.469,6.955
		c-1.822,5.567,2.127,9.109,2.127,9.109s5.363-4.454,4.959-9.211C285.648,230.189,284.438,228.092,284.438,228.092z"/>
	<path fill="#F4B822" stroke="#CC8D00" stroke-miterlimit="10" d="M277.455,227.21c0,0-3.161-0.205-5.904-4.087
		c-2.744-3.882-0.529-7.573-0.529-7.573s5.226,2.171,6.049,5.958C277.893,225.294,277.455,227.21,277.455,227.21z"/>
	<path fill="#F4B822" stroke="#CC8D00" stroke-miterlimit="10" d="M277.021,227.758c0,0-3.137,0.445-5.576,4.524
		c-2.44,4.079,0.049,7.591,0.049,7.591s5.045-2.563,5.576-6.401C277.604,229.635,277.021,227.758,277.021,227.758z"/>
	<path fill="#F4B822" stroke="#CC8D00" stroke-miterlimit="10" d="M271.923,226.993c0,0-1.36-2.861-5.981-3.974
		s-7.231,2.31-7.231,2.31s3.951,4.051,7.772,3.415C270.305,228.109,271.923,226.993,271.923,226.993z"/>
	<path fill="#F4B822" stroke="#CC8D00" stroke-miterlimit="10" d="M294.764,229.867c0,0-3.992-1.963-5.645-9.029
		c-1.652-7.065,3.023-11.239,3.023-11.239s5.703,5.899,4.914,11.812C296.27,227.324,294.764,229.867,294.764,229.867z"/>
	<path fill="#F4B822" stroke="#CC8D00" stroke-miterlimit="10" d="M294.087,229.829c0,0-4.187,1.503-6.621,8.339
		c-2.434,6.835,1.744,11.507,1.744,11.507s6.328-5.222,6.208-11.187C295.298,232.523,294.087,229.829,294.087,229.829z"/>
	<path fill="#F4B822" stroke="#CC8D00" stroke-miterlimit="10" d="M304.747,231.755c0,0-4.042-2.177-5.548-9.742
		s3.398-11.916,3.398-11.916s5.691,6.407,4.727,12.694S304.747,231.755,304.747,231.755z"/>
	<path fill="#F4B822" stroke="#CC8D00" stroke-miterlimit="10" d="M304.055,231.7c0,0-4.334,1.514-7.011,8.749
		c-2.677,7.235,1.483,12.302,1.483,12.302s6.627-5.433,6.662-11.793S304.055,231.7,304.055,231.7z"/>
	<path fill="#F4B822" stroke="#CC8D00" stroke-miterlimit="10" d="M314.841,234.271c0,0-3.942-2.353-5.112-9.977
		c-1.172-7.625,3.92-11.755,3.92-11.755s5.402,6.652,4.162,12.89C316.568,231.667,314.841,234.271,314.841,234.271z"/>
	<path fill="#F4B822" stroke="#CC8D00" stroke-miterlimit="10" d="M314.152,234.186c0,0-4.396,1.322-7.391,8.431
		c-2.994,7.109,0.939,12.356,0.939,12.356s6.861-5.135,7.177-11.488S314.152,234.186,314.152,234.186z"/>
	<path fill="#F4B822" stroke="#CC8D00" stroke-miterlimit="10" d="M325.801,238.144c0,0-3.811-2.559-4.574-10.235
		c-0.765-7.676,4.539-11.529,4.539-11.529s5.043,6.93,3.471,13.093C327.665,235.636,325.801,238.144,325.801,238.144z"/>
	<path fill="#F4B822" stroke="#CC8D00" stroke-miterlimit="10" d="M325.118,238.023c0,0-4.46,1.086-7.828,8.026
		c-3.368,6.94,0.28,12.389,0.28,12.389s7.123-4.764,7.777-11.09C326.001,241.02,325.118,238.023,325.118,238.023z"/>
	<path fill="#F4B822" stroke="#CC8D00" stroke-miterlimit="10" d="M337.325,241.476c0,0-3.812-2.559-4.575-10.235
		c-0.764-7.676,4.54-11.529,4.54-11.529s5.042,6.93,3.47,13.093C339.189,238.968,337.325,241.476,337.325,241.476z"/>
	<path fill="#F4B822" stroke="#CC8D00" stroke-miterlimit="10" d="M336.643,241.354c0,0-4.461,1.086-7.828,8.026
		c-3.369,6.94,0.279,12.388,0.279,12.388s7.124-4.763,7.777-11.089C337.523,244.351,336.643,241.354,336.643,241.354z"/>
	<path fill="#F4B822" stroke="#CC8D00" stroke-miterlimit="10" d="M348.833,245.835c0,0-3.666-3.14-3.522-11.25
		c0.143-8.11,6.154-11.483,6.154-11.483s4.415,7.855,2.018,14.099C351.087,243.444,348.833,245.835,348.833,245.835z"/>
	<path fill="#F4B822" stroke="#CC8D00" stroke-miterlimit="10" d="M348.135,245.624c0,0-4.791,0.587-9.158,7.422
		c-4.369,6.835-1.227,12.972-1.227,12.972s8.023-4.101,9.482-10.628C348.689,248.862,348.135,245.624,348.135,245.624z"/>
	<path fill="#F4B822" stroke="#CC8D00" stroke-miterlimit="10" d="M359.479,250.491c0,0-3.666-3.14-3.523-11.25
		c0.143-8.11,6.154-11.483,6.154-11.483s4.416,7.855,2.019,14.099C361.732,248.101,359.479,250.491,359.479,250.491z"/>
	<path fill="#F4B822" stroke="#CC8D00" stroke-miterlimit="10" d="M358.779,250.28c0,0-4.79,0.587-9.158,7.422
		s-1.227,12.971-1.227,12.971s8.024-4.1,9.482-10.628C359.334,253.519,358.779,250.28,358.779,250.28z"/>
	<path fill="#F4B822" stroke="#CC8D00" stroke-miterlimit="10" d="M369.938,255.506c0,0-3.666-3.14-3.523-11.25
		c0.143-8.11,6.154-11.483,6.154-11.483s4.416,7.855,2.019,14.099C372.191,253.116,369.938,255.506,369.938,255.506z"/>
	<path fill="#F4B822" stroke="#CC8D00" stroke-miterlimit="10" d="M369.238,255.296c0,0-4.791,0.587-9.159,7.422
		s-1.226,12.972-1.226,12.972s8.023-4.101,9.481-10.629C369.793,258.533,369.238,255.296,369.238,255.296z"/>
	<path fill="#F4B822" stroke="#CC8D00" stroke-miterlimit="10" d="M379.081,259.825c0,0-2.835-2.89-2.276-10.874
		c0.557-7.985,5.67-11.63,5.67-11.63s3.193,7.486,0.889,13.758C381.059,257.352,379.081,259.825,379.081,259.825z"/>
	<path fill="#F4B822" stroke="#CC8D00" stroke-miterlimit="10" d="M378.52,259.656c0,0-3.961,0.838-7.914,7.798
		s-1.711,12.825-1.711,12.825s6.803-4.469,8.353-10.969S378.52,259.656,378.52,259.656z"/>
	<path fill="#F4B822" stroke="#CC8D00" stroke-miterlimit="10" d="M387.266,263.346c0,0-2.351-2.744-1.551-10.656
		c0.801-7.912,5.389-11.715,5.389-11.715s2.481,7.271,0.23,13.559S387.266,263.346,387.266,263.346z"/>
	<path fill="#F4B822" stroke="#CC8D00" stroke-miterlimit="10" d="M386.785,263.199c0,0-3.477,0.984-7.188,8.017
		c-3.711,7.033-1.992,12.74-1.992,12.74s6.09-4.685,7.693-11.167S386.785,263.199,386.785,263.199z"/>
	<path fill="#F4B822" stroke="#CC8D00" stroke-miterlimit="10" d="M394.258,267.993c0,0-2.351-2.743-1.551-10.655
		s5.389-11.715,5.389-11.715s2.481,7.271,0.23,13.559C396.075,265.471,394.258,267.993,394.258,267.993z"/>
	<path fill="#F4B822" stroke="#CC8D00" stroke-miterlimit="10" d="M393.775,267.848c0,0-3.476,0.984-7.187,8.018
		s-1.993,12.74-1.993,12.74s6.09-4.685,7.694-11.168C393.895,270.955,393.775,267.848,393.775,267.848z"/>
	<path fill="#F4B822" stroke="#CC8D00" stroke-miterlimit="10" d="M399.706,272.146c0,0-1.59-2.513-0.41-10.31
		s4.945-11.849,4.945-11.849s1.36,6.933-0.806,13.247C401.27,269.549,399.706,272.146,399.706,272.146z"/>
	<path fill="#F4B822" stroke="#CC8D00" stroke-miterlimit="10" d="M399.35,272.04c0,0-2.715,1.214-6.045,8.362
		c-3.332,7.147-2.437,12.605-2.437,12.605s4.97-5.021,6.659-11.48C399.215,275.07,399.35,272.04,399.35,272.04z"/>
	<path fill="#F4B822" stroke="#CC8D00" stroke-miterlimit="10" d="M405.805,276.338c0,0-1.59-2.513-0.41-10.311
		c1.181-7.797,4.945-11.848,4.945-11.848s1.361,6.932-0.805,13.247C407.369,273.739,405.805,276.338,405.805,276.338z"/>
	<path fill="#F4B822" stroke="#CC8D00" stroke-miterlimit="10" d="M405.449,276.23c0,0-2.715,1.213-6.046,8.361
		s-2.437,12.606-2.437,12.606s4.971-5.022,6.659-11.48C405.315,279.261,405.449,276.23,405.449,276.23z"/>
	<path fill="#F4B822" stroke="#CC8D00" stroke-miterlimit="10" d="M410.901,279.052c0,0-1.163-2.384,0.23-10.116
		c1.395-7.732,4.696-11.925,4.696-11.925s0.732,6.744-1.386,13.071C412.323,276.41,410.901,279.052,410.901,279.052z"/>
	<path fill="#F4B822" stroke="#CC8D00" stroke-miterlimit="10" d="M410.616,278.966c0,0-2.288,1.343-5.405,8.556
		c-3.117,7.211-2.685,12.53-2.685,12.53s4.342-5.212,6.077-11.655S410.616,278.966,410.616,278.966z"/>
	<path fill="#F4B822" stroke="#CC8D00" stroke-miterlimit="10" d="M413.845,281.989c0,0-1.163-2.384,0.231-10.117
		c1.394-7.733,4.695-11.924,4.695-11.924s0.733,6.743-1.386,13.071C415.268,279.348,413.845,281.989,413.845,281.989z"/>
	<path fill="#F4B822" stroke="#CC8D00" stroke-miterlimit="10" d="M413.56,281.902c0,0-2.288,1.344-5.404,8.556
		c-3.117,7.212-2.686,12.531-2.686,12.531s4.343-5.212,6.078-11.655C413.284,284.891,413.56,281.902,413.56,281.902z"/>
	<g>
		<path fill="#F4B822" d="M100.679,281.184c0,0,0.455-0.394,1.309-1.131c0.865-0.724,2.12-1.809,3.786-3.098
			c3.308-2.611,8.148-6.207,14.194-10.178c3.021-1.987,6.323-4.104,9.904-6.193c3.559-2.128,7.368-4.283,11.374-6.392
			c4.021-2.076,8.17-4.249,12.508-6.202c1.082-0.494,2.168-0.99,3.257-1.488c1.098-0.477,2.2-0.956,3.304-1.436
			c2.2-0.978,4.444-1.877,6.678-2.801c2.24-0.909,4.523-1.711,6.773-2.568c2.272-0.799,4.536-1.594,6.782-2.383
			c2.264-0.739,4.511-1.467,6.748-2.129c2.247-0.632,4.458-1.284,6.647-1.874c2.2-0.552,4.347-1.151,6.475-1.634
			c2.132-0.462,4.218-0.914,6.249-1.353c2.042-0.38,4.028-0.75,5.949-1.108c1.923-0.343,3.801-0.57,5.59-0.844
			c3.575-0.574,6.897-0.81,9.815-1.123c2.935-0.206,5.489-0.373,7.595-0.453c2.108-0.061,3.766-0.053,4.892-0.072
			c1.127-0.011,1.728-0.017,1.728-0.017s-0.593,0.1-1.706,0.288c-1.113,0.181-2.74,0.48-4.812,0.79
			c-2.061,0.377-4.563,0.834-7.434,1.358c-1.425,0.301-2.942,0.621-4.541,0.958c-0.799,0.163-1.619,0.33-2.458,0.502
			c-0.835,0.193-1.689,0.39-2.561,0.592c-3.493,0.775-7.239,1.766-11.206,2.762c-1.969,0.554-3.993,1.123-6.06,1.705
			c-2.057,0.614-4.159,1.241-6.296,1.879c-2.122,0.684-4.28,1.379-6.464,2.083c-2.169,0.75-4.36,1.522-6.582,2.256
			c-2.199,0.803-4.415,1.613-6.64,2.425c-2.205,0.868-4.436,1.691-6.634,2.602c-2.209,0.882-4.429,1.739-6.606,2.677
			c-1.093,0.459-2.183,0.917-3.27,1.374c-1.079,0.477-2.154,0.953-3.226,1.427c-4.281,1.905-8.491,3.796-12.519,5.729
			c-4.006,1.976-7.912,3.832-11.55,5.725c-3.643,1.882-7.079,3.686-10.233,5.391c-3.142,1.724-6.023,3.312-8.561,4.75
			c-2.525,1.459-4.742,2.715-6.543,3.791c-1.804,1.078-3.221,1.924-4.187,2.5C101.19,280.866,100.679,281.184,100.679,281.184z"/>
	</g>
	<g>
		<path fill="#F4B822" d="M413.48,281.469c0,0-0.511-0.316-1.469-0.912c-0.966-0.576-2.383-1.423-4.187-2.5
			c-1.8-1.076-4.019-2.332-6.543-3.791c-2.538-1.438-5.419-3.026-8.562-4.75c-3.154-1.705-6.59-3.509-10.232-5.391
			c-3.639-1.893-7.545-3.749-11.551-5.725c-4.027-1.934-8.237-3.823-12.519-5.729c-1.071-0.474-2.147-0.95-3.226-1.427
			c-1.088-0.457-2.178-0.915-3.271-1.374c-2.177-0.937-4.396-1.795-6.605-2.677c-2.198-0.911-4.43-1.734-6.635-2.602
			c-2.225-0.813-4.44-1.622-6.64-2.425c-2.222-0.734-4.413-1.506-6.582-2.256c-2.185-0.704-4.342-1.399-6.464-2.083
			c-2.137-0.638-4.239-1.265-6.296-1.879c-2.068-0.582-4.091-1.151-6.06-1.705c-3.968-0.996-7.714-1.987-11.207-2.762
			c-0.871-0.202-1.726-0.399-2.561-0.592c-0.839-0.171-1.659-0.339-2.458-0.502c-1.599-0.337-3.116-0.657-4.541-0.958
			c-2.87-0.524-5.373-0.982-7.435-1.358c-2.071-0.31-3.698-0.61-4.812-0.79c-1.112-0.188-1.706-0.288-1.706-0.288
			s0.602,0.006,1.729,0.017c1.127,0.018,2.783,0.01,4.892,0.072c2.106,0.08,4.66,0.246,7.595,0.453
			c2.918,0.313,6.24,0.549,9.815,1.123c1.789,0.274,3.667,0.501,5.59,0.844c1.921,0.358,3.908,0.728,5.949,1.108
			c2.03,0.44,4.116,0.892,6.249,1.353c2.128,0.483,4.275,1.082,6.475,1.634c2.189,0.591,4.399,1.242,6.646,1.874
			c2.238,0.662,4.486,1.39,6.748,2.129c2.246,0.789,4.51,1.585,6.783,2.383c2.25,0.857,4.532,1.659,6.772,2.568
			c2.233,0.924,4.479,1.823,6.679,2.801c1.104,0.48,2.205,0.959,3.303,1.436c1.09,0.498,2.176,0.994,3.258,1.488
			c4.338,1.954,8.486,4.126,12.508,6.202c4.006,2.109,7.814,4.264,11.374,6.392c3.58,2.091,6.882,4.207,9.903,6.193
			c6.047,3.971,10.886,7.566,14.194,10.178c1.667,1.288,2.921,2.374,3.786,3.098C413.025,281.075,413.48,281.469,413.48,281.469z"/>
	</g>
</g>
</svg>
