<?xml version="1.0" encoding="utf-8"?>
<!-- Generator: Adobe Illustrator 16.0.0, SVG Export Plug-In . SVG Version: 6.00 Build 0)  -->
<!DOCTYPE svg PUBLIC "-//W3C//DTD SVG 1.1//EN" "http://www.w3.org/Graphics/SVG/1.1/DTD/svg11.dtd">
<svg version="1.1"
	 id="svg12211" xmlns:dc="http://purl.org/dc/elements/1.1/" xmlns:cc="http://creativecommons.org/ns#" xmlns:rdf="http://www.w3.org/1999/02/22-rdf-syntax-ns#" xmlns:svg="http://www.w3.org/2000/svg" xmlns:sodipodi="http://sodipodi.sourceforge.net/DTD/sodipodi-0.dtd" xmlns:inkscape="http://www.inkscape.org/namespaces/inkscape" inkscape:export-ydpi="72.021774" inkscape:export-xdpi="72.021774" inkscape:export-filename="C:\Users\Zealotlee\Dropbox\Small Projects\Steves Fuzzballs\fuschia-fuzzle.png" sodipodi:docname="acc-face-mustache.svg" inkscape:version="0.91 r13725"
	 xmlns="http://www.w3.org/2000/svg" xmlns:xlink="http://www.w3.org/1999/xlink" x="0px" y="0px" width="366.591px"
	 height="270.56px" viewBox="82.97 118.84 366.591 270.56" enable-background="new 82.97 118.84 366.591 270.56"
	 xml:space="preserve">
<sodipodi:namedview  showguides="true" showgrid="false" inkscape:cy="193.02625" inkscape:cx="369.48506" inkscape:zoom="0.71220416" borderopacity="1.0" bordercolor="#666666" pagecolor="#ffffff" id="base" inkscape:window-maximized="1" inkscape:window-y="-8" inkscape:window-x="-8" inkscape:window-height="988" inkscape:window-width="1680" inkscape:pageshadow="2" inkscape:current-layer="layer1" inkscape:pageopacity="0.0" inkscape:document-units="px">
	</sodipodi:namedview>
<path fill="#F4F0C1" stroke="#D8BC75" stroke-width="5" stroke-linecap="round" stroke-miterlimit="10" d="M244.638,136.693
	c0,0,21.5-34.544,41.5,0C268.493,148.048,244.638,136.693,244.638,136.693z"/>
<path fill="#F4F0C1" stroke="#D8BC75" stroke-width="5" stroke-linecap="round" stroke-miterlimit="10" d="M421.138,302.236
	c0,0-26.425-167.333-154.213-167.333S107.138,302.236,107.138,302.236C103.333,300.93,252.276,354.878,421.138,302.236z"/>
<path fill="#F4F0C1" stroke="#D8BC75" stroke-width="5" stroke-linecap="round" stroke-miterlimit="10" d="M85.471,361.793
	c0,0,127.612,2.015,178.454,24.834c47.546-24.39,182.879-24.834,182.879-24.834l-1.198-12.223l-25.668-47.334
	c0,0-110.893,3.334-156.014,17.334c-45.787-14.668-156.787-17.334-156.787-17.334L85.47,348.237v13.556H85.471z"/>
<path fill="#F4F0C1" stroke="#D8BC75" stroke-width="5" stroke-linecap="round" stroke-miterlimit="10" d="M85.471,346.237
	c0,0,149.575,7,178.454,27.333c26.214-20,158.017-24,182.879-24"/>
<path fill="#F7F5E2" stroke="#EDDA8C" stroke-width="5" stroke-linecap="round" stroke-miterlimit="10" d="M127.586,243.109
	c0,0,120.793,1.461,139.339,20.461c20.546-17.667,137.397-16.606,137.397-16.606s18.191,33.356,16.504,55.481
	c-18.654,2.519-139.113,8.792-156.901,19.125c-24.984-5.926-109.121-17-156.787-17.334
	C105.138,280.57,124.394,243.053,127.586,243.109z"/>
<path fill="#F7F5E2" stroke="#EDDA8C" stroke-width="3" stroke-linecap="round" stroke-miterlimit="10" d="M120.711,253.108
	c0,0,122.002-0.287,146.215,19.962c24.213,20.251,33.008,40.58,33.008,40.58"/>
<path fill="#F7F5E2" stroke="#EDDA8C" stroke-width="3" stroke-linecap="round" stroke-miterlimit="10" d="M408.538,255.482
	c0,0-119.901-0.161-139.151,17.588"/>
<path fill="#F7F5E2" stroke="#EDDA8C" stroke-width="3" stroke-linecap="round" stroke-miterlimit="10" d="M266.139,262.831
	c0,0,6.857,7.69,6.207,8.09"/>
<path fill="#F7F5E2" d="M398.471,243.109c0,0-38.164-103.539-126.082-103.539c0,0,55.871,23.656,73.082,44.333
	C364.536,206.808,390.803,230.729,398.471,243.109z"/>
<path fill="#664D20" stroke="#513D1D" stroke-width="5" stroke-miterlimit="10" d="M99.128,362.185l16.71,0.733
	c0,0,52.287-53.013,148.127-53.013s140.507,53.013,140.507,53.013l14.687-0.478c0,0-47.52-68.204-153.77-68.204
	C159.138,294.236,99.128,362.185,99.128,362.185z"/>
<polygon fill="#664D20" stroke="#EDDB5A" stroke-width="6" stroke-linejoin="round" stroke-miterlimit="10" points="246.066,292.07 
	247.429,312.845 279.54,312.845 279.54,292.07 "/>
<line fill="none" stroke="#EDDB5A" stroke-width="3" stroke-linecap="round" stroke-linejoin="round" stroke-miterlimit="10" x1="246.748" y1="302.458" x2="262.803" y2="302.236"/>
</svg>
