<?xml version="1.0" encoding="utf-8"?>
<!-- Generator: Adobe Illustrator 16.0.0, SVG Export Plug-In . SVG Version: 6.00 Build 0)  -->
<!DOCTYPE svg PUBLIC "-//W3C//DTD SVG 1.1//EN" "http://www.w3.org/Graphics/SVG/1.1/DTD/svg11.dtd">
<svg version="1.1"
	 id="svg12211" xmlns:dc="http://purl.org/dc/elements/1.1/" xmlns:cc="http://creativecommons.org/ns#" xmlns:rdf="http://www.w3.org/1999/02/22-rdf-syntax-ns#" xmlns:svg="http://www.w3.org/2000/svg" xmlns:sodipodi="http://sodipodi.sourceforge.net/DTD/sodipodi-0.dtd" xmlns:inkscape="http://www.inkscape.org/namespaces/inkscape" inkscape:export-ydpi="72.021774" inkscape:export-xdpi="72.021774" inkscape:export-filename="C:\Users\Zealotlee\Dropbox\Small Projects\Steves Fuzzballs\fuschia-fuzzle.png" sodipodi:docname="acc-face-mustache.svg" inkscape:version="0.91 r13725"
	 xmlns="http://www.w3.org/2000/svg" xmlns:xlink="http://www.w3.org/1999/xlink" x="0px" y="0px" width="412px" height="391.843px"
	 viewBox="49.96 51.654 412 391.843" enable-background="new 49.96 51.654 412 391.843" xml:space="preserve">
<sodipodi:namedview  showguides="true" showgrid="false" inkscape:cy="193.02625" inkscape:cx="369.48506" inkscape:zoom="0.71220416" borderopacity="1.0" bordercolor="#666666" pagecolor="#ffffff" id="base" inkscape:window-maximized="1" inkscape:window-y="-8" inkscape:window-x="-8" inkscape:window-height="988" inkscape:window-width="1680" inkscape:pageshadow="2" inkscape:current-layer="layer1" inkscape:pageopacity="0.0" inkscape:document-units="px">
	</sodipodi:namedview>
<path fill="#DC00DC" stroke="#C800C8" stroke-width="5" stroke-linejoin="round" stroke-miterlimit="10" d="M353.545,394.51
	c0,0-8.925,32.132,35.107,34.513c44.031,2.38,45.222-3.57,45.222-3.57S459.46,383.8,459.46,265.984
	c0-117.816-86.278-211.831-200.524-211.831c-114.247,0-206.476,98.775-206.476,215.995c0,117.221,22.611,154.709,38.082,166.014
	c15.471,11.306,82.114,3.57,86.279-31.537c-27.371,2.975-68.428-11.306-74.379-92.527c-2.003-36.9,2.678-56.246,2.678-56.246
	s16.066-67.52,66.048-82.693c49.982-15.173,162.294-26.181,195.766-5.653c33.471,20.528,35.701,53.106,41.057,76.759
	c5.354,23.652,4.463,53.553,4.463,68.28C412.453,327.272,414.684,405.072,353.545,394.51z"/>
<path fill="#DC00DC" stroke="#C800C8" stroke-width="5" stroke-linejoin="round" stroke-miterlimit="10" d="M117.93,247.299
	c0,0,22.314,2.678,42.842,0c0.446-35.255,5.73-54.645,12.033-65.511c7.587,13.834,9.345,41.889,9.345,52.153
	c11.603,1.785,41.084,1.399,47.332-1.278c0.446-24.991,6.248-41.95,9.818-48.644c11.157,19.19,14.19,44.627,15.975,51.768
	c14.282,1.785,41.057,2.231,45.073-1.785c0.894-20.082,13.479-40.164,17.049-46.412c6.694,17.405,16.959,43.735,15.621,50.875
	c11.156,0,25.438,0,28.114-4.463c-1.339-26.776-1.339-37.933,3.57-46.412c8.479,14.281,17.851,52.95,16.958,59.644
	c10.711,0.446,20.623,1.785,23.477-5.802c2.854-7.587-0.111-104.268-15.89-127.477s-55.338-59.8-128.08-59.8
	s-125.402,37.041-132.543,59.8C121.483,136.714,99.187,202.671,117.93,247.299z"/>
<path fill="#FF00FF" d="M211.15,68.441c-28.954,9.112-44.12,33.491-60.051,57.451c-8.366,12.581-16.517,25.22-22.594,39.091
	c-2.562,5.849-5.47,11.92-5.425,18.44c12.416-16.725,26.791-38.535,47.03-46.372c0.066,8.592,0.714,17.258,0.603,25.823
	c4.851-1.165,10.477-14.905,13.647-19.641c3.994-5.966,8.48-11.853,12.373-17.694c5.842,11.058-0.295,30.325,8.841,39.422
	c6.326-6.008,6.418-18.921,7.954-27.006c0.882-4.643,2.919-16.092,7.121-18.411c3.524,11.919,4.451,24.596,6.37,36.843
	c0.718,4.586-0.033,11.729,2.508,15.584c4.185-19.298,2.51-39.383,7.21-58.449c6.074,0.433,11.352,17.487,13.488,22.903
	c3.073,7.793,4.53,15.536,6.478,23.642c7.431-12.369,5.343-27.276,5.404-41.071c0.019-4.304-0.916-9.891,0.509-14.021
	c3.685,2.623,6.46,9.906,9.198,13.794c2.901,4.121,5.58,8.697,7.836,13.214c5.354,10.714,4.814,21.198,7.974,32.32
	c1.437-21.115-1.781-43.088,1.995-63.89c15.193,17.544,20.172,39.714,26.057,61.322c-0.691-13.662,2.526-27.217,1.907-40.934
	c-0.229-5.112-0.551-10.162-0.367-15.276c5.53,1.212,10.733,10.753,14.119,14.719c5.483,6.424,11.737,11.312,16.026,18.66
	c4.33,7.42,6.019,15.928,10.41,23.603c4.914-13.813-0.338-29.906,4.482-43.533c8.489,9.709,13.714,21.766,19.954,32.79
	c-7.638-20.644-16.797-40.59-30.958-57.565c-4.518-5.415-8.591-10.955-15.227-13.734c-5.303-2.221-10.762-3.467-15.808-6.359
	c1.565,3.219,4.511,6.8,5.259,10.218c-5.554-7.148-13.447-15.771-22.136-19.343c1.281,4.673,4.502,7.879,4.261,12.706
	c-6.416-6.473-13.651-10.149-20.529-15.632c0.592,2.811,2.557,5.104,3.565,7.834c-5.04,0.112-9.573-6.453-14.407-5.771
	c0.174,1.524-0.065,2.81,0.846,4.16c-2.59-2.755-9.191-7.067-13.348-6.15c-0.115,2.001-0.205,3.92,0.377,5.722
	c-2.643-1.504-7.24-5.927-10.414-5.431c-3.628,0.567-4.278,5.52-6.439,7.981c-0.145-2.08-0.108-4.278-1.616-5.528
	c-1.643,1.565-2.517,3.723-4.01,5.418c-1.179-12.513-4.249-3.441-10.385-0.387c0.486-1.132,0.506-3.267,0.748-4.398
	c-2.923-0.4-4.317,1.822-6.508,2.813c-3.257,1.474-5.665,1.707-9.264,1.547c-0.099-1.721-0.089-3.541-0.143-5.247
	c-2.148,1.022-3.859,2.75-5.923,3.823"/>
<g>
	<path fill="#C800C8" d="M203.003,68.434c0,0-1.522,1.22-3.969,3.55c-2.441,2.335-5.805,5.782-9.471,10.202
		c-1.845,2.198-3.72,4.676-5.658,7.315c-1.933,2.647-3.793,5.558-5.684,8.577c-1.832,3.058-3.67,6.247-5.342,9.592
		c-0.418,0.836-0.857,1.665-1.262,2.513c-0.397,0.853-0.794,1.709-1.193,2.566c-0.837,1.696-1.516,3.472-2.274,5.212
		c-0.74,1.748-1.384,3.536-2.079,5.295c-0.621,1.788-1.239,3.569-1.852,5.337c-0.548,1.79-1.093,3.567-1.63,5.322
		c-0.48,1.774-0.954,3.527-1.421,5.251c-0.41,1.739-0.787,3.456-1.206,5.13c-0.382,1.68-0.681,3.341-1.014,4.952
		c-0.358,1.608-0.549,3.197-0.819,4.724c-0.253,1.529-0.55,3.004-0.706,4.435c-0.351,2.858-0.769,5.479-0.966,7.821
		c-0.22,2.339-0.504,4.383-0.594,6.073c-0.257,3.378-0.463,5.323-0.463,5.323s-0.231-1.928-0.532-5.326
		c-0.182-1.7-0.255-3.767-0.324-6.145c-0.126-2.38-0.064-5.064,0.018-7.998c0.007-1.47,0.149-2.992,0.243-4.574
		c0.116-1.58,0.22-3.218,0.451-4.887c0.215-1.671,0.394-3.397,0.655-5.151c0.279-1.751,0.615-3.532,0.93-5.349
		c0.404-1.801,0.814-3.631,1.229-5.484c0.468-1.841,0.996-3.692,1.518-5.561c0.588-1.849,1.181-3.715,1.819-5.573
		c0.708-1.833,1.36-3.697,2.121-5.518c1.546-3.631,3.174-7.235,5.061-10.635c1.815-3.437,3.858-6.678,5.92-9.746
		c2.099-3.046,4.274-5.884,6.465-8.463c2.173-2.593,4.366-4.924,6.491-6.967c2.09-2.076,4.141-3.836,5.996-5.339
		c1.836-1.525,3.547-2.719,4.951-3.692c1.404-0.975,2.573-1.646,3.357-2.113C202.564,68.647,203.003,68.434,203.003,68.434z"/>
</g>
<g>
	<path fill="#C800C8" d="M227.101,61.889c0,0,0.273,1.825,0.649,5.021c0.376,3.196,0.881,7.763,1.339,13.249
		c0.236,2.743,0.491,5.714,0.69,8.859c0.215,3.144,0.461,6.46,0.641,9.892c0.194,3.432,0.373,6.978,0.521,10.583
		c0.163,3.604,0.277,7.268,0.383,10.932c0.082,3.665,0.174,7.329,0.212,10.938c0.058,3.608,0.068,7.16,0.069,10.597
		c0.009,3.437-0.049,6.761-0.092,9.913c-0.011,3.147-0.143,6.141-0.262,8.899c-0.215,5.515-0.514,10.102-0.748,13.307
		c-0.233,3.205-0.425,5.031-0.425,5.031s-0.244-1.838-0.569-5.045c-0.326-3.207-0.756-7.781-1.128-13.258
		c-0.185-2.74-0.386-5.708-0.598-8.847c-0.208-3.144-0.439-6.46-0.609-9.891c-0.179-3.431-0.354-6.976-0.484-10.58
		c-0.15-3.604-0.25-7.265-0.359-10.927c-0.076-3.663-0.152-7.326-0.227-10.931c-0.064-3.606-0.093-7.156-0.099-10.592
		c-0.021-3.436,0.031-6.759,0.061-9.91c0.014-3.151,0.095-6.131,0.17-8.883c0.13-5.503,0.348-10.092,0.529-13.306
		C226.941,63.727,227.101,61.889,227.101,61.889z"/>
</g>
<g>
	<path fill="#C800C8" d="M263.993,73.195c0,0,1.358,1.626,3.433,4.695c1.045,1.531,2.27,3.418,3.596,5.635
		c1.315,2.22,2.785,4.743,4.226,7.581c0.745,1.407,1.462,2.901,2.231,4.438c0.725,1.556,1.484,3.163,2.194,4.845
		c1.478,3.341,2.896,6.929,4.235,10.689c1.308,3.77,2.57,7.705,3.622,11.769c0.265,1.016,0.53,2.035,0.799,3.058
		c0.233,1.031,0.469,2.065,0.704,3.102c0.49,2.068,0.852,4.173,1.259,6.269c0.39,2.099,0.653,4.22,0.983,6.321
		c0.26,2.112,0.484,4.22,0.685,6.312c0.347,4.192,0.513,8.331,0.489,12.335c-0.064,2.002-0.025,3.97-0.176,5.893
		c-0.148,1.922-0.25,3.802-0.428,5.625c-0.214,1.819-0.422,3.589-0.621,5.3c-0.269,1.703-0.574,3.34-0.844,4.912
		c-0.248,1.575-0.601,3.065-0.93,4.481c-0.348,1.412-0.621,2.759-0.979,4.004c-0.721,2.487-1.326,4.653-1.938,6.403
		c-1.248,3.493-2.014,5.455-2.014,5.455s0.35-2.095,1.05-5.7c0.344-1.804,0.597-4.029,1.024-6.537
		c0.2-1.258,0.305-2.615,0.475-4.031c0.15-1.42,0.381-2.898,0.466-4.463c0.112-1.56,0.257-3.179,0.358-4.857
		c0.072-1.679,0.147-3.414,0.225-5.198c0.05-1.784,0.02-3.618,0.035-5.488c-0.002-1.871-0.096-3.782-0.141-5.723
		c-0.054-1.941-0.231-3.911-0.336-5.905c-0.137-1.993-0.379-4.003-0.547-6.033c-0.254-2.022-0.511-4.061-0.768-6.107
		c-0.335-2.036-0.607-4.09-0.994-6.125c-0.382-2.036-0.716-4.082-1.18-6.095c-0.215-1.01-0.428-2.018-0.641-3.024
		c-0.238-1-0.477-1.997-0.714-2.99c-0.455-1.991-1.005-3.942-1.501-5.884c-0.525-1.933-1.091-3.831-1.63-5.704
		c-1.158-3.72-2.267-7.329-3.491-10.696c-1.209-3.371-2.398-6.548-3.564-9.457c-1.172-2.907-2.299-5.554-3.318-7.897
		c-1.057-2.323-1.959-4.366-2.764-6.019c-0.799-1.655-1.426-2.962-1.881-3.839C264.234,73.664,263.993,73.195,263.993,73.195z"/>
</g>
<g>
	<path fill="#C800C8" d="M309.811,76.17c0,0,0.301,0.315,0.83,0.936c0.532,0.62,1.319,1.528,2.258,2.728
		c0.955,1.191,2.078,2.663,3.328,4.382c1.217,1.738,2.647,3.671,4.032,5.888c0.709,1.1,1.448,2.246,2.214,3.432
		c0.735,1.203,1.459,2.468,2.226,3.759c1.555,2.569,3.013,5.378,4.565,8.264c0.745,1.458,1.455,2.965,2.191,4.482
		c0.727,1.522,1.503,3.045,2.152,4.64c1.352,3.166,2.776,6.364,3.943,9.667c0.6,1.645,1.198,3.289,1.795,4.927
		c0.575,1.646,1.041,3.323,1.559,4.967c0.504,1.649,1.014,3.28,1.465,4.908c0.398,1.643,0.79,3.266,1.177,4.863
		c0.365,1.601,0.774,3.161,1.082,4.711c0.263,1.559,0.519,3.085,0.767,4.57c0.246,1.483,0.483,2.925,0.713,4.32
		c0.224,1.395,0.279,2.771,0.42,4.074c0.248,2.612,0.438,5.006,0.572,7.125c0.032,2.132,0.008,3.99-0.002,5.515
		c-0.025,3.05-0.101,4.782-0.101,4.782s-0.362-1.717-0.89-4.703c-0.262-1.493-0.59-3.301-0.907-5.372
		c-0.454-2.057-0.995-4.367-1.507-6.89c-0.287-1.257-0.494-2.579-0.875-3.918c-0.346-1.343-0.705-2.732-1.075-4.16
		c-0.365-1.425-0.739-2.89-1.122-4.386c-0.445-1.48-0.898-2.992-1.362-4.53c-0.452-1.538-0.911-3.102-1.378-4.685
		c-0.527-1.565-1.061-3.148-1.597-4.744c-0.537-1.595-1.078-3.203-1.621-4.818c-0.597-1.597-1.195-3.199-1.794-4.802
		c-1.113-3.237-2.496-6.372-3.717-9.516c-1.26-3.127-2.635-6.151-3.879-9.118c-0.668-1.463-1.342-2.893-1.963-4.314
		c-0.619-1.422-1.25-2.802-1.904-4.126c-1.279-2.663-2.467-5.197-3.629-7.504c-1.133-2.325-2.239-4.42-3.174-6.31
		c-0.979-1.868-1.832-3.496-2.533-4.837C310.633,77.7,309.811,76.17,309.811,76.17z"/>
</g>
<g>
	<path fill="#C800C8" d="M131.302,137.755c0,0,0.095-1.201,0.498-3.262c0.2-1.031,0.461-2.28,0.835-3.694
		c0.374-1.412,0.801-3.012,1.39-4.713c0.561-1.712,1.215-3.556,2.006-5.466c0.783-1.914,1.683-3.904,2.695-5.925
		c1.013-2.02,2.132-4.077,3.373-6.105c1.223-2.04,2.573-4.05,3.99-6.013c1.428-1.955,2.941-3.85,4.505-5.652
		c1.571-1.797,3.209-3.485,4.851-5.055c0.845-0.763,1.652-1.534,2.482-2.246c0.844-0.694,1.67-1.374,2.474-2.035
		c0.836-0.619,1.65-1.221,2.437-1.803c0.794-0.569,1.604-1.065,2.356-1.568c1.493-1.021,2.979-1.785,4.251-2.504
		c1.309-0.668,2.456-1.228,3.418-1.65c1.943-0.812,3.067-1.216,3.067-1.216s-0.919,0.79-2.549,2.065
		c-0.809,0.648-1.745,1.496-2.861,2.384c-0.534,0.476-1.103,0.982-1.702,1.516c-0.6,0.528-1.241,1.066-1.87,1.678
		c-1.295,1.175-2.624,2.522-4.045,3.913c-0.69,0.717-1.398,1.454-2.122,2.206c-0.704,0.769-1.424,1.554-2.156,2.353
		c-0.711,0.815-1.434,1.644-2.166,2.483c-0.709,0.858-1.427,1.726-2.151,2.6c-1.403,1.786-2.837,3.593-4.177,5.474
		c-0.684,0.93-1.365,1.863-2.007,2.818c-0.657,0.945-1.306,1.891-1.933,2.843c-0.639,0.943-1.229,1.909-1.849,2.84
		c-0.59,0.951-1.174,1.89-1.748,2.815c-2.26,3.722-4.268,7.28-5.942,10.376c-0.82,1.562-1.571,2.993-2.238,4.262
		c-0.648,1.288-1.212,2.41-1.677,3.335C131.824,136.684,131.302,137.755,131.302,137.755z"/>
</g>
<g>
	<path fill="#C800C8" d="M328.404,71.112c0,0,1.652,0.737,4.379,2.334c2.732,1.585,6.547,4.024,10.852,7.338
		c2.15,1.658,4.456,3.497,6.764,5.592c2.34,2.059,4.723,4.333,7.1,6.774c2.344,2.471,4.732,5.069,6.975,7.865
		c2.293,2.755,4.43,5.709,6.52,8.696c1.004,1.521,2,3.048,2.966,4.585c0.928,1.562,1.879,3.101,2.731,4.681
		c1.742,3.138,3.312,6.308,4.676,9.44c1.394,3.12,2.523,6.228,3.529,9.186c0.471,1.492,0.955,2.932,1.371,4.34
		c0.363,1.423,0.715,2.798,1.051,4.118c0.647,2.642,1.101,5.098,1.461,7.271c0.313,2.186,0.602,4.081,0.729,5.657
		c0.253,3.153,0.336,4.946,0.336,4.946s-0.517-1.738-1.314-4.763c-0.392-1.514-1.024-3.315-1.611-5.4
		c-0.287-1.044-0.716-2.124-1.1-3.275c-0.414-1.143-0.744-2.373-1.248-3.608c-0.473-1.241-0.965-2.534-1.473-3.872
		c-0.546-1.32-1.109-2.685-1.689-4.089c-1.209-2.783-2.563-5.677-4.053-8.622c-1.478-2.951-3.134-5.931-4.875-8.922
		c-0.854-1.506-1.83-2.955-2.724-4.46c-0.944-1.475-1.92-2.938-2.896-4.401c-1.994-2.898-4.045-5.76-6.178-8.494
		c-2.104-2.758-4.307-5.37-6.447-7.896c-2.193-2.477-4.301-4.896-6.418-7.082c-2.105-2.197-4.139-4.242-6.047-6.103
		c-1.927-1.839-3.709-3.518-5.32-4.977c-1.627-1.439-3.038-2.713-4.237-3.719C329.829,72.219,328.404,71.112,328.404,71.112z"/>
</g>
<g>
	<path fill="#C800C8" d="M105.418,179.11c0,0-0.615,0.624-1.668,1.869c-1.049,1.251-2.537,3.127-4.278,5.615
		c-0.434,0.622-0.892,1.277-1.372,1.964c-0.465,0.697-0.919,1.45-1.41,2.22c-0.485,0.773-0.991,1.577-1.515,2.411
		c-0.488,0.856-0.994,1.743-1.516,2.659c-1.086,1.805-2.069,3.825-3.123,5.936c-1.112,2.081-2.047,4.387-3.108,6.743
		c-2.038,4.754-3.901,10.04-5.611,15.701c-0.481,1.398-0.82,2.861-1.182,4.335c-0.364,1.472-0.733,2.962-1.106,4.469
		c-0.411,1.496-0.673,3.045-0.967,4.601c-0.295,1.555-0.592,3.126-0.892,4.709c-0.147,0.792-0.295,1.587-0.443,2.385
		c-0.099,0.807-0.199,1.617-0.299,2.43c-0.2,1.625-0.402,3.261-0.605,4.908c-0.501,3.281-0.554,6.651-0.823,10.025
		c-0.098,1.689-0.258,3.383-0.306,5.087c-0.002,1.706-0.005,3.417-0.007,5.132c-0.003,1.715-0.006,3.433-0.009,5.151l-0.003,1.29
		c-0.01,0.32,0.036,0.838,0.051,1.248l0.135,2.611l0.23,5.223c0.094,1.732,0.105,3.495,0.288,5.189
		c0.296,3.414,0.591,6.815,0.883,10.189c0.429,3.373,0.856,6.722,1.24,10.036c0.423,3.309,1.024,6.55,1.515,9.755
		c1.143,6.38,2.347,12.538,3.744,18.321c0.618,2.914,1.453,5.684,2.142,8.399c0.664,2.726,1.487,5.303,2.213,7.801
		c0.7,2.507,1.544,4.851,2.263,7.111c0.699,2.271,1.502,4.37,2.203,6.368c1.451,3.975,2.808,7.412,3.991,10.217
		c1.195,2.799,2.168,4.989,2.873,6.464c0.707,1.474,1.116,2.245,1.116,2.245s-0.489-0.722-1.354-2.114
		c-0.85-1.4-2.102-3.457-3.532-6.165c-1.436-2.704-3.13-6.022-4.865-9.925c-1.759-3.891-3.63-8.341-5.416-13.29
		c-1.828-4.935-3.628-10.354-5.245-16.169c-1.662-5.803-3.178-11.994-4.461-18.458c-0.582-3.241-1.276-6.523-1.791-9.876
		c-0.496-3.354-0.988-6.753-1.434-10.187c-0.329-3.461-0.66-6.949-0.993-10.451c-0.202-1.76-0.225-3.481-0.334-5.226l-0.268-5.221
		l-0.114-2.611c-0.014-0.461-0.05-0.813-0.045-1.363l0.013-1.323c0.017-1.763,0.035-3.524,0.052-5.284
		c0.018-1.758,0.036-3.512,0.054-5.262c0.064-1.748,0.241-3.488,0.356-5.223c0.282-3.467,0.422-6.917,1.029-10.282
		c0.251-1.686,0.501-3.362,0.749-5.027c0.124-0.832,0.248-1.66,0.371-2.486c0.173-0.817,0.345-1.632,0.517-2.442
		c0.349-1.62,0.696-3.226,1.039-4.817c0.173-0.795,0.345-1.586,0.516-2.373c0.163-0.789,0.433-1.549,0.643-2.318
		c0.447-1.531,0.89-3.045,1.327-4.54c0.435-1.495,0.845-2.977,1.399-4.395c0.516-1.427,1.025-2.835,1.526-4.222
		c0.251-0.693,0.499-1.38,0.746-2.062c0.248-0.681,0.57-1.329,0.849-1.986c0.576-1.306,1.142-2.589,1.698-3.849
		c0.278-0.629,0.554-1.252,0.827-1.868c0.308-0.601,0.613-1.196,0.915-1.785c1.232-2.342,2.292-4.643,3.586-6.682
		c1.232-2.071,2.379-4.041,3.618-5.796c0.598-0.889,1.176-1.749,1.735-2.579c0.579-0.816,1.177-1.576,1.735-2.315
		c0.565-0.734,1.089-1.45,1.622-2.111c0.546-0.65,1.067-1.27,1.561-1.858c1.96-2.362,3.693-4.048,4.863-5.193
		C104.743,179.661,105.418,179.11,105.418,179.11z"/>
</g>
<g>
	<path fill="#C800C8" d="M421.378,205.291c0,0,0.408,0.411,1.101,1.265c0.367,0.415,0.74,0.974,1.222,1.611
		c0.493,0.63,0.993,1.396,1.533,2.267c1.144,1.711,2.337,3.898,3.653,6.444c0.608,1.297,1.254,2.677,1.937,4.131
		c0.688,1.457,1.218,3.057,1.878,4.694c0.317,0.823,0.643,1.664,0.974,2.521c0.284,0.871,0.573,1.758,0.867,2.661
		c0.578,1.809,1.171,3.686,1.736,5.626c0.49,1.958,0.996,3.969,1.512,6.025c0.25,1.03,0.539,2.067,0.751,3.127
		c0.197,1.062,0.396,2.135,0.597,3.217c0.394,2.167,0.793,4.369,1.198,6.599c0.324,2.24,0.583,4.515,0.861,6.808
		c0.138,1.146,0.275,2.298,0.414,3.451c0.145,1.154,0.287,2.313,0.337,3.479c0.148,2.329,0.299,4.667,0.448,7.006
		c0.363,4.678,0.336,9.358,0.352,13.965c-0.003,2.304,0.051,4.59-0.032,6.842c-0.112,2.253-0.222,4.478-0.331,6.666
		c-0.257,4.373-0.396,8.605-0.902,12.589c-0.404,3.991-0.851,7.756-1.269,11.227c-0.338,3.479-0.968,6.632-1.436,9.434
		c-0.471,2.801-0.931,5.234-1.3,7.238c-0.743,4.008-1.227,6.283-1.227,6.283s0.05-2.337,0.239-6.403
		c0.098-2.033,0.204-4.502,0.384-7.323c0.144-2.825,0.416-6,0.478-9.479c0.101-3.476,0.216-7.235,0.403-11.206
		c0.043-0.991,0.086-1.998,0.129-3.017c0.045-1.019,0.012-2.051,0.022-3.094c-0.011-2.086,0.029-4.215,0.044-6.379
		c0.029-2.164,0.058-4.363,0.088-6.59c0.003-2.225-0.111-4.475-0.143-6.744c-0.127-4.534-0.105-9.147-0.491-13.734
		c-0.132-2.297-0.265-4.596-0.396-6.883c-0.112-2.291-0.427-4.549-0.627-6.803c-0.225-2.252-0.448-4.486-0.668-6.693
		c-0.315-2.193-0.628-4.359-0.934-6.489c-0.149-1.067-0.297-2.125-0.444-3.173c-0.168-1.044-0.386-2.066-0.564-3.086
		c-0.378-2.038-0.748-4.033-1.106-5.974c-0.421-1.926-0.919-3.777-1.324-5.591c-0.21-0.906-0.417-1.797-0.619-2.671
		c-0.249-0.86-0.493-1.703-0.733-2.53c-0.495-1.648-0.906-3.257-1.412-4.742c-0.506-1.489-0.986-2.902-1.438-4.23
		c-1.025-2.602-1.881-4.912-2.771-6.722c-0.418-0.921-0.801-1.74-1.177-2.43c-0.37-0.692-0.655-1.308-0.945-1.762
		C421.705,205.78,421.378,205.291,421.378,205.291z"/>
</g>
<g>
	<path fill="#C800C8" d="M164.326,413.891c0,0-0.611,0.602-1.782,1.515c-1.168,0.917-2.9,2.138-5.088,3.431
		c-2.19,1.286-4.851,2.611-7.822,3.773c-2.967,1.169-6.258,2.14-9.638,2.777c-1.69,0.313-3.405,0.539-5.102,0.667
		c-1.699,0.13-3.385,0.14-5.014,0.056c-1.63-0.095-3.202-0.287-4.674-0.578c-1.473-0.287-2.84-0.685-4.072-1.108
		c-0.606-0.24-1.188-0.469-1.74-0.688c-0.538-0.257-1.043-0.507-1.511-0.747c-0.943-0.463-1.688-1.029-2.319-1.416
		c-0.613-0.434-1.053-0.836-1.365-1.079c-0.302-0.258-0.463-0.396-0.463-0.396s0.848,0.195,2.239,0.569
		c0.721,0.129,1.558,0.354,2.541,0.497c0.485,0.078,1.001,0.16,1.545,0.247c0.544,0.059,1.117,0.122,1.714,0.187
		c2.384,0.218,5.145,0.268,8.094,0.078c0.737-0.059,1.485-0.119,2.244-0.179c0.757-0.088,1.523-0.177,2.296-0.267
		c1.542-0.227,3.112-0.439,4.673-0.756c1.569-0.263,3.126-0.629,4.667-0.963c0.769-0.181,1.533-0.361,2.287-0.539
		c0.754-0.19,1.499-0.381,2.232-0.566c2.931-0.765,5.679-1.535,8.048-2.218C161.122,414.809,164.326,413.891,164.326,413.891z"/>
</g>
<g>
	<path fill="#C800C8" d="M372.332,411c0,0,0.234,0.007,0.675,0.021c0.435,0.007,1.074,0.017,1.888,0.028
		c1.617,0.001,3.906-0.018,6.604-0.228c2.695-0.184,5.793-0.564,9.012-1.231c1.605-0.354,3.247-0.752,4.871-1.272
		c1.635-0.492,3.24-1.126,4.824-1.797c1.563-0.714,3.104-1.479,4.555-2.354c0.729-0.432,1.447-0.87,2.128-1.349
		c0.346-0.234,0.688-0.468,1.029-0.697c0.329-0.249,0.655-0.496,0.978-0.741c0.323-0.247,0.656-0.478,0.966-0.732
		c0.306-0.26,0.608-0.517,0.908-0.771c0.305-0.253,0.604-0.503,0.901-0.75c0.281-0.266,0.559-0.529,0.833-0.788
		c1.137-1.004,2.099-2.079,3.046-3.036c0.446-0.506,0.874-0.989,1.281-1.451c0.431-0.448,0.806-0.901,1.146-1.339
		c0.673-0.877,1.358-1.598,1.815-2.26c0.97-1.292,1.587-2.023,1.587-2.023s-0.218,0.91-0.708,2.49
		c-0.224,0.801-0.612,1.723-1.059,2.788c-0.411,1.088-1.056,2.224-1.719,3.501c-0.754,1.215-1.556,2.567-2.6,3.86
		c-0.255,0.329-0.514,0.662-0.776,1c-0.284,0.318-0.573,0.641-0.865,0.967c-0.575,0.665-1.202,1.307-1.88,1.922
		c-0.336,0.313-0.674,0.627-1.015,0.945c-0.363,0.292-0.728,0.587-1.095,0.883c-0.372,0.292-0.737,0.598-1.122,0.882
		c-0.397,0.268-0.795,0.536-1.195,0.807c-1.593,1.099-3.351,1.988-5.125,2.823c-1.813,0.742-3.649,1.441-5.521,1.884
		c-1.855,0.498-3.721,0.789-5.522,0.982c-3.612,0.355-6.983,0.188-9.804-0.259c-1.413-0.204-2.688-0.51-3.805-0.794
		c-1.119-0.28-2.073-0.607-2.851-0.886C373.162,411.462,372.332,411,372.332,411z"/>
</g>
</svg>
