<?xml version="1.0" encoding="utf-8"?>
<!-- Generator: Adobe Illustrator 16.0.0, SVG Export Plug-In . SVG Version: 6.00 Build 0)  -->
<!DOCTYPE svg PUBLIC "-//W3C//DTD SVG 1.1//EN" "http://www.w3.org/Graphics/SVG/1.1/DTD/svg11.dtd">
<svg version="1.1"
	 id="svg12211" xmlns:dc="http://purl.org/dc/elements/1.1/" xmlns:cc="http://creativecommons.org/ns#" xmlns:rdf="http://www.w3.org/1999/02/22-rdf-syntax-ns#" xmlns:svg="http://www.w3.org/2000/svg" xmlns:sodipodi="http://sodipodi.sourceforge.net/DTD/sodipodi-0.dtd" xmlns:inkscape="http://www.inkscape.org/namespaces/inkscape" inkscape:export-ydpi="72.021774" inkscape:export-xdpi="72.021774" inkscape:export-filename="C:\Users\Zealotlee\Dropbox\Small Projects\Steves Fuzzballs\fuschia-fuzzle.png" sodipodi:docname="acc-face-mustache.svg" inkscape:version="0.91 r13725"
	 xmlns="http://www.w3.org/2000/svg" xmlns:xlink="http://www.w3.org/1999/xlink" x="0px" y="0px" width="505.789px"
	 height="213.933px" viewBox="4.408 150.479 505.789 213.933" enable-background="new 4.408 150.479 505.789 213.933"
	 xml:space="preserve">
<g>
	<path fill="#DC00DC" stroke="#C800C8" stroke-width="5" stroke-linejoin="round" stroke-miterlimit="10" d="M356.27,236.527
		c0,0,7.813-30.521,31.254-51.722c23.439-21.201,51.716-37.2,79.991-30.131c28.276,7.069,39.066,34.601,40.183,52.088
		c-12.278-13.766-14.882-24.94-35.346-21.958c13.767,13.4,43.531,41.677,27.16,68.093c-4.093-10.418,0.372-13.022-16.371-18.231
		c4.838,11.534,5.581,34.973-8.557,42.787c-2.232-13.766-17.115-38.322-36.834-38.694s-47.623,10.79-76.271,43.531
		C355.525,255.13,356.27,236.527,356.27,236.527z"/>
	<path fill="#DC00DC" stroke="#C800C8" stroke-width="5" stroke-linejoin="round" stroke-miterlimit="10" d="M192.193,240.62
		c0,0-28.276-32.741-74.412-44.647c-46.135-11.906-91.154-5.209-110.873,55.065c31.253-15.626,48.368-17.859,59.157-10.418
		c-22.323,16.37-34.229,23.812-29.765,49.856c9.674-15.998,20.091-17.865,27.532-17.119c-7.813,14.142-14.138,33.803,3.721,40.715
		c-2.604-14.668-1.116-19.133,18.975-28.805c20.091-9.675,62.134-25.301,95.619,4.092
		C193.681,254.758,192.193,240.62,192.193,240.62z"/>
	<path fill="#DC00DC" stroke="#C800C8" stroke-width="5" stroke-linejoin="round" stroke-miterlimit="10" d="M147.546,318.38
		c0,0,27.904-23.812,31.253-41.67c3.349-17.858,1.86-55.437,42.415-75.528c40.556-20.091,58.041-17.115,79.992-14.51
		c21.951,2.604,53.576,20.463,60.272,61.017c6.697,40.554,13.022,54.692-11.905,78.132c-24.929,23.439-44.275,34.601-57.669,36.09
		c0,0,18.603-25.3,19.347-47.995c-13.394,14.51-42.043,41.298-71.435,46.135c15.254-20.091,21.208-33.856,21.579-45.763
		c-19.347,23.44-40.554,37.578-66.226,38.322c0,0,17.115-31.625,18.603-42.415C204.471,319.496,168.753,336.611,147.546,318.38z"/>
	<path fill="#FF00FF" d="M242.221,201.236c-9.881,0.985-18.736,13.088-24.514,19.926c-9.866,11.676-17.845,24.384-21.202,39.414
		c-2.061,9.226-4.109,17.525-9.389,25.511c-3.36,5.082-6.456,9.579-8.064,15.528c3.718,0.783,8.299-5.328,10.717-7.514
		c6.296-5.689,10.006-12.832,15.193-19.367c0.928,9.131-3.982,16.66-6.861,24.953c-1.259,3.627-3.09,7.572-2.586,11.507
		c2.875,0.199,4.848-5.14,6.146-7.216c3.037-4.857,7.012-9.01,10.195-13.752c4.482-6.678,7.113-16.619,13.605-21.717
		c0.171,6.305-0.764,12.184-2.477,18.246c-0.595,2.107-4.779,12.215-1.649,12.26c2.032,0.029,5.839-6.978,6.739-8.314
		c3.452-5.133,6.59-10.48,9.63-15.864c3.818-6.759,7.507-13.618,10.7-20.698c2.367,9.847,0.793,17.101-2.218,26.611
		c-1.091,3.445-2.003,7.527-1.122,11.136c4.885-8.332,10.136-16.491,14.711-24.997c1.756-3.264,3.033-6.906,5.091-9.992
		c2.567,7.349,1.55,14.254,0.215,21.817c-0.712,4.037-2.632,10.837,0.157,14.548c4.307-8.851,10.759-16.074,14.748-25.126
		c2.349-5.332,3.916-10.827,6.365-16.105c3.323,5.364,2.508,14.092,2.396,20.104c-0.058,3.111-1.394,8.525,0.825,11.178
		c4.816-8.689,9.578-17.897,11.09-27.777c0.553-3.616,0.189-11.54,2.424-14.486c5.68,8.029,7.573,18.148,8.955,27.639
		c0.904,6.201,0.262,12.322,4.16,17.467c5.597-10.867,6.726-21.43,8.384-33.178c3.993,5.977,7.539,11.897,8.683,19.115
		c0.793,5.003,0.662,10.116,0.491,15.16c-0.139,4.117-1.485,10.09-0.176,14.078c1.003,3.057,1.614,2.644,3.496,0.036
		c3.304-4.58,4.946-11.176,6.563-16.489c2.18-7.162,6.426-18.347,2.355-25.61c2.273,3.586,3.648,9.947,4.434,14.104
		c0.711,3.771-0.053,9.094,1.691,12.51c-0.576-17.473-0.016-37.47-9.784-52.793c-6.729-10.555-17.272-19.012-26.813-26.933
		c-4.303-3.572-8.77-6.91-13.332-10.141c0.361,2.303,2.178,4.414,2.793,6.819c-4.293-0.66-7.601-7.484-12.36-8.072
		c0.668,1.238,3.737,6.772,1.929,7.973c-1.64,1.088-5.949-4.444-6.893-5.422c-0.602,2.303-1.059,7.214-4.555,6.171
		c-1.18-2.149-0.028-6.489-2.648-7.081c-3.486-0.788-10.188,6.486-12.604,8.62c0.096-1.912-0.072-3.836,0.211-5.725
		c-3.738-0.699-8.756,4.724-11.643,6.709c-0.425-2.349,1.93-3.656,1.576-6.05c-2.555-0.364-9.108,4.072-10.557,6.153
		c0.556-1.748,2.021-2.318,1.98-4.165c-3.33-0.167-7.064,1.077-10.165,0.609"/>
	<path fill="#FF00FF" d="M476.333,169.626c-0.75-6.997-9.445-7.621-14.971-8.023c-13.856-1.007-28.923,0.776-41.979,5.586
		c-20.927,7.709-32.248,30.307-44.267,47.757c-4.046,5.875-8.183,11.942-7.146,19.367c0.898-1.053,2.194-2.114,3.61-2.407
		c0.665,2.278-1.201,3.238-1.91,4.841c1.481-0.108,3.063-0.594,4.565-0.91c-0.096,1.915-2.295,3.228-3.288,4.78
		c16.213-10.069,32.525-16.86,51.407-19.981c10.347-1.71,22.277-4.115,32.535-0.736c4.396,1.448,7.658,4.106,10.519,7.678
		c-0.2-3.635-4.158-8.199-6.245-10.767c3.084,2.924,7.431,4.333,11.271,5.96c-0.976-3.241-3.26-5.535-5.199-8.363
		c1.567,2.666,4.329,2.408,7.092,2.599c0.286-2.268-2.065-4.328-2.946-6.448c2.369,2.642,6.398,2.599,9.435,4.152
		c2.093,1.071,3.953,2.527,6.105,3.538c-0.283-3.059-3.756-7.214-5.675-9.678c1.324,1.509,2.563,3.639,4.903,3.578
		c-2.111-1.653-2.968-4.343-5.077-6.13c-2.222-1.882-4.898-3.745-7.541-4.976c-4.863-2.264-9.86-4.448-14.929-6.271
		c1.507,1.267,3.976,1.628,5.651,0.807c-1.052-1.598-2.712-2.782-3.981-4.262c8.137,0.029,5.02-3.224,0.785-6.669
		c-2.512-2.044-3.76-4.221-7.33-4.493c1.825,0.445,5.751-2.488,7.19-3.616c-0.868-0.804-2.116-1.332-3.051-1.973
		c1.548-0.796,3.593-1.018,5.306-1.58c1.565-0.514,2.389-1.221,3.578-1.716c1.939-0.805,7.06-0.743,7.957-1.973"/>
	<path fill="#FF00FF" d="M180.516,235.448c-0.455-3.374-5.104-2.157-7.525-2.591c-0.402,2.563,0.828,4.195,1.627,6.499
		c-2.624,0.237-5.263-0.454-7.896-0.244c0.013,3.16,4.515,5.516,6.241,7.828c-0.993-2.133-3.509-1.778-5.518-1.58
		c-1.513,4.681,2.658,6.524,6.389,8.51c-0.283,1.077-0.517,2.216-0.673,3.272c-2.729-0.021-5.291-1.582-8.119-1.237
		c-0.377,2.349,1.995,5.362,4.259,5.511c-0.719-1.46-4.954-3.399-6.589-2.705c-2.18,0.927-1.19,2.427-0.687,4.649
		c-11.766-4.041-24.452-7.958-36.917-8.862c-10.37-0.753-21.01,5.823-30.027,10.194c-6.074,2.945-11.552,6.41-16.589,10.908
		c0.641-2.865,3.043-5.035,3.568-7.713c-1.475,0.619-3.366,1.443-4.577,2.469c-0.09-3.086,4.023-3.446,5.627-5.529
		c-3.001-0.821-6.243-0.176-9.274-0.512c0.858-1.533,3.786-4.711,2.293-6.342c-1.823-1.992-7.969,0.707-9.814,1.582
		c4.113-2.611,7.679-5.833,11.793-8.298c3.025-1.813,6.389-3.487,8.948-5.968c-2.429-1.025-4.887-1.049-7.49-0.602
		c1.62-0.29,3.645-0.747,4.215-2.309c-2.68-1.609-5.67-0.475-8.475-1.263c3.308-1.203,6.684-2.198,9.56-4.203
		c1.001-0.698,1.582-1.672,2.738-2.183c0.716-3.318-3.261-5.904-6.139-5.54c1.409-0.007,2.834,0.006,4.233-0.008
		c-2.009-7.187-19.229-1.111-24.341-1.307c1.071-0.426,6.805-2.116,6.477-3.854c-0.305-1.618-6.677-1.091-7.717-1.088
		c1.37-0.039,2.533-0.467,3.783-1.079c-3.63-0.885-7.38-0.655-10.999,0.017c1.881-0.342,7.845-1.29,5.514-3.772
		c-1.665-1.772-8.237-0.833-10.692-1.4c3.007-1.636,6.744-3.664,9.313-5.876c-2.356-0.464-4.733-0.652-7.127-0.797
		c13.959-6.832,35.128-4.274,49.398-1.822c7.367,1.266,15.439,0.335,22.621,1.891c6.68,1.447,13.163,5.354,19.558,7.684
		c7.928,2.889,15.889,5.768,23.699,8.966c3.041,1.245,5.92,3.156,9.074,4.091"/>
	<g>
		<path fill="#C800C8" d="M241.933,205.631c0,0-1.037,1.375-2.738,3.831c-0.851,1.227-1.858,2.733-2.981,4.471
			c-1.13,1.734-2.325,3.737-3.616,5.912c-0.643,1.09-1.254,2.259-1.916,3.445c-0.603,1.22-1.3,2.437-1.919,3.736
			c-0.604,1.305-1.281,2.618-1.832,4.017c-0.294,0.69-0.591,1.388-0.89,2.093c-0.268,0.714-0.538,1.437-0.81,2.163
			c-0.579,1.443-0.998,2.956-1.494,4.463c-0.262,0.751-0.398,1.535-0.605,2.306c-0.206,0.806-0.414,1.617-0.622,2.43
			c-0.45,1.638-0.76,3.241-1.39,4.963l-0.854,2.551c-0.303,0.832-0.634,1.635-0.95,2.454c-0.626,1.64-1.346,3.226-2.064,4.806
			c-0.684,1.599-1.5,3.113-2.257,4.646c-1.544,3.046-3.203,5.958-4.862,8.735c-1.658,2.777-3.369,5.392-5.017,7.848
			c-1.634,2.464-3.262,4.736-4.796,6.807c-3.044,4.159-5.759,7.486-7.685,9.791c-1.931,2.301-3.086,3.577-3.086,3.577
			s0.798-1.526,2.267-4.142c1.471-2.604,3.572-6.323,6.094-10.786c1.245-2.228,2.594-4.642,4.021-7.193
			c1.414-2.554,2.851-5.272,4.336-8.075c1.472-2.81,2.948-5.729,4.381-8.713c0.699-1.498,1.433-3,2.085-4.531
			c0.679-1.524,1.354-3.057,1.937-4.612c0.305-0.772,0.633-1.546,0.92-2.315l0.79-2.289c0.559-1.471,0.981-3.186,1.453-4.781
			c0.231-0.809,0.462-1.615,0.691-2.417c0.26-0.828,0.453-1.676,0.766-2.472c0.599-1.601,1.124-3.21,1.839-4.7
			c0.336-0.754,0.669-1.501,0.999-2.242c0.371-0.718,0.738-1.43,1.101-2.133c0.706-1.418,1.526-2.727,2.27-4.029
			c0.768-1.288,1.566-2.506,2.337-3.682c0.825-1.14,1.592-2.26,2.38-3.295c1.557-2.084,3.077-3.916,4.482-5.485
			c1.374-1.593,2.675-2.892,3.741-3.957c1.061-1.07,1.956-1.851,2.553-2.393C241.597,205.899,241.933,205.631,241.933,205.631z"/>
	</g>
	<g>
		<path fill="#C800C8" d="M267.575,196.297c0,0-0.519,1.925-1.427,5.295c-0.439,1.683-0.975,3.727-1.588,6.071
			c-0.58,2.346-1.233,4.992-1.946,7.879c-0.677,2.891-1.38,6.025-2.076,9.339c-0.347,1.658-0.688,3.361-0.981,5.109
			c-0.322,1.745-0.611,3.526-0.887,5.339c-0.302,1.811-0.47,3.657-0.729,5.518c-0.075,0.93-0.151,1.867-0.229,2.807l-0.123,1.412
			l-0.046,1.411c-0.03,0.954-0.06,1.912-0.09,2.873c-0.008,0.982-0.021,1.969-0.069,3.002c-0.074,2.041-0.207,4.042-0.365,6.058
			c-0.354,4.018-0.827,8.013-1.436,11.922c-0.59,3.91-1.317,7.732-2.107,11.412c-0.783,3.681-1.688,7.207-2.616,10.531
			c-0.91,3.328-1.917,6.438-2.938,9.277c-2.005,5.689-4.222,10.26-6.114,13.247c-0.917,1.511-1.829,2.577-2.436,3.292
			c-0.648,0.689-1.014,1.025-1.014,1.025s0.273-0.416,0.784-1.196c0.472-0.802,1.117-1.994,1.786-3.584
			c0.675-1.586,1.376-3.557,2.108-5.84c0.72-2.288,1.417-4.908,2.137-7.772c0.7-2.871,1.372-6.004,2.058-9.32
			c0.669-3.321,1.278-6.844,1.889-10.487c0.601-3.646,1.155-7.423,1.661-11.265c0.486-3.844,0.939-7.75,1.256-11.657
			c0.168-1.947,0.312-3.914,0.396-5.831c0.038-0.977,0.075-1.951,0.112-2.923c0.054-1.008,0.108-2.013,0.162-3.015l0.086-1.515
			l0.167-1.49c0.118-0.989,0.236-1.973,0.353-2.951c0.336-1.929,0.586-3.855,1.003-5.703c0.389-1.855,0.753-3.682,1.23-5.436
			c0.43-1.767,0.907-3.477,1.381-5.137c0.92-3.328,1.961-6.417,2.945-9.255c0.497-1.417,0.982-2.771,1.463-4.052
			c0.499-1.273,0.973-2.481,1.418-3.615c0.901-2.264,1.758-4.209,2.465-5.808C266.645,198.069,267.575,196.297,267.575,196.297z"/>
	</g>
	<g>
		<path fill="#C800C8" d="M286.673,194.76c0,0,0.402,2.099,1.004,5.78c0.296,1.841,0.673,4.075,1.042,6.644
			c0.372,2.569,0.854,5.457,1.202,8.633c0.39,3.171,0.812,6.607,1.187,10.248c0.391,3.64,0.822,7.479,1.194,11.456
			c0.187,1.989,0.376,4.011,0.568,6.058c0.181,2.064,0.394,4.082,0.528,6.248l0.08,1.57l0.039,1.646
			c0.039,1.112,0.006,2.167,0.002,3.258c-0.052,2.159-0.137,4.32-0.276,6.471c-0.3,4.299-0.731,8.574-1.294,12.756
			c-0.545,4.186-1.213,8.281-1.934,12.228c-0.712,3.948-1.531,7.739-2.349,11.323c-0.801,3.587-1.674,6.953-2.544,10.043
			c-1.717,6.185-3.477,11.258-4.979,14.708c-0.731,1.73-1.425,3.044-1.957,3.902c-0.248,0.437-0.487,0.744-0.646,0.949
			c-0.156,0.206-0.237,0.313-0.237,0.313s0.06-0.12,0.173-0.354c0.118-0.229,0.282-0.57,0.455-1.038
			c0.381-0.913,0.795-2.313,1.274-4.099c0.953-3.576,1.989-8.772,3.118-15.02c0.553-3.126,1.097-6.524,1.678-10.112
			c0.564-3.592,1.09-7.391,1.635-11.314c0.535-3.926,1.034-7.986,1.496-12.11c0.442-4.126,0.857-8.317,1.121-12.503
			c0.15-2.092,0.247-4.178,0.311-6.253c0.006-1.027,0.056-2.084,0.043-3.08l-0.002-1.509l-0.049-1.572
			c-0.228-4.158-0.451-8.25-0.668-12.21c-0.212-3.973-0.346-7.82-0.492-11.468c-0.16-3.646-0.246-7.1-0.326-10.29
			c-0.092-3.192-0.176-6.118-0.25-8.711c-0.084-2.594-0.103-4.859-0.131-6.724C286.643,196.897,286.673,194.76,286.673,194.76z"/>
	</g>
	<g>
		<path fill="#C800C8" d="M306.82,193.663c0,0,0.254,0.485,0.728,1.393c0.445,0.921,1.152,2.254,1.951,3.992
			c0.789,1.74,1.817,3.831,2.84,6.291c1.028,2.457,2.272,5.203,3.41,8.279c1.173,3.063,2.515,6.363,3.683,9.938
			c1.217,3.559,2.566,7.295,3.692,11.245c1.19,3.931,2.424,7.995,3.424,12.196c0.525,2.094,1.054,4.204,1.586,6.323
			c0.539,2.149,0.956,4.254,1.442,6.387c0.9,4.275,1.758,8.591,2.496,12.833c0.748,4.248,1.371,8.452,1.89,12.535
			c0.503,4.087,0.876,8.054,1.097,11.832c0.114,1.888,0.229,3.724,0.241,5.509c0.052,1.779,0.026,3.506-0.013,5.162
			c-0.042,3.309-0.334,6.347-0.688,9.018c-0.188,1.335-0.433,2.58-0.647,3.724c-0.265,1.139-0.563,2.174-0.804,3.105
			c-0.606,1.843-1.133,3.263-1.639,4.169c-0.466,0.914-0.715,1.401-0.715,1.401s0.156-0.524,0.448-1.506
			c0.353-0.952,0.591-2.439,0.935-4.282c0.102-0.942,0.245-1.972,0.342-3.1c0.033-1.141,0.155-2.356,0.174-3.666
			c0.022-2.624-0.047-5.577-0.276-8.801c-0.112-1.61-0.244-3.285-0.456-5.019c-0.168-1.733-0.373-3.524-0.618-5.362
			c-0.463-3.677-1.114-7.541-1.767-11.537c-0.354-1.996-0.715-4.025-1.079-6.08c-0.394-2.051-0.791-4.127-1.192-6.219
			c-0.844-4.188-1.691-8.414-2.613-12.656c-0.873-4.285-1.891-8.454-2.844-12.615c-0.505-2.069-0.902-4.146-1.447-6.164
			c-0.517-2.024-1.028-4.024-1.53-5.991c-0.96-3.948-2.015-7.733-2.987-11.333c-0.955-3.606-1.967-6.984-2.838-10.126
			c-0.432-1.573-0.881-3.068-1.307-4.492c-0.418-1.428-0.813-2.782-1.186-4.055c-0.762-2.543-1.427-4.76-1.974-6.586
			C307.459,195.751,306.82,193.663,306.82,193.663z"/>
	</g>
	<g>
		<path fill="#C800C8" d="M177.025,244.371c0,0-1.974-1.064-5.444-2.86c-1.729-0.908-3.854-1.962-6.276-3.186
			c-2.426-1.218-5.192-2.53-8.192-3.979c-1.512-0.698-3.087-1.424-4.718-2.176c-1.637-0.731-3.329-1.486-5.069-2.262
			c-1.754-0.735-3.557-1.489-5.399-2.261c-1.855-0.73-3.749-1.475-5.676-2.234c-1.928-0.751-3.92-1.413-5.913-2.149
			c-0.994-0.377-2.014-0.69-3.037-1.008c-1.02-0.327-2.045-0.656-3.074-0.985c-2.049-0.696-4.173-1.148-6.265-1.764
			c-1.046-0.315-2.109-0.542-3.174-0.764l-3.193-0.688c-1.06-0.266-2.134-0.404-3.203-0.567c-1.07-0.163-2.139-0.325-3.206-0.487
			l-0.8-0.122l-0.05-0.008c-0.033-0.005,0.111,0.009,0.025,0.002l-0.104-0.008l-0.207-0.017l-0.415-0.033l-1.655-0.143
			c-1.102-0.096-2.201-0.193-3.295-0.288c-2.148-0.108-4.228-0.133-6.315-0.224c-2.107,0.053-4.192,0.063-6.243,0.133
			c-2.048,0.144-4.068,0.226-6.04,0.411c-1.967,0.223-3.911,0.329-5.777,0.634c-1.871,0.27-3.699,0.503-5.452,0.833
			c-1.76,0.29-3.463,0.573-5.082,0.929c-0.813,0.166-1.609,0.329-2.386,0.488c-0.773,0.181-1.529,0.357-2.265,0.53
			c-1.483,0.317-2.875,0.672-4.184,1.015c-2.617,0.683-4.892,1.329-6.756,1.898c-1.86,0.579-3.325,1.043-4.315,1.388
			c-0.989,0.349-1.517,0.534-1.517,0.534s1.913-1.179,5.473-2.85c1.782-0.828,3.96-1.82,6.525-2.791
			c1.278-0.499,2.643-1.021,4.103-1.516c0.73-0.249,1.478-0.503,2.245-0.764c0.775-0.234,1.568-0.473,2.378-0.717
			c3.237-0.997,6.801-1.908,10.621-2.66c1.899-0.438,3.888-0.681,5.905-1.043c2.021-0.344,4.114-0.487,6.23-0.745
			c2.124-0.185,4.295-0.257,6.49-0.385c2.217,0.007,4.5-0.017,6.739,0.064c1.096,0.074,2.196,0.148,3.3,0.222l1.658,0.114
			l0.415,0.031l0.208,0.015l0.104,0.008l0.182,0.02l0.849,0.122c1.132,0.164,2.267,0.328,3.402,0.492
			c1.135,0.167,2.279,0.306,3.387,0.58l3.345,0.743c1.116,0.241,2.229,0.488,3.312,0.82c1.089,0.313,2.176,0.624,3.26,0.935
			c1.085,0.307,2.164,0.624,3.212,1.005c4.245,1.397,8.331,2.995,12.223,4.662c1.927,0.876,3.845,1.682,5.672,2.577
			c1.82,0.905,3.6,1.791,5.333,2.654c1.706,0.909,3.366,1.792,4.971,2.647c1.575,0.907,3.096,1.783,4.557,2.625
			c2.905,1.707,5.518,3.35,7.802,4.854c2.296,1.484,4.249,2.852,5.844,3.993c1.607,1.123,2.822,2.077,3.662,2.707
			C176.585,244.024,177.025,244.371,177.025,244.371z"/>
	</g>
	<g>
		<path fill="#C800C8" d="M169.781,267.749c0,0-1.435-0.994-4.031-2.538c-0.64-0.398-1.368-0.809-2.165-1.246
			c-0.793-0.441-1.638-0.936-2.573-1.406c-0.926-0.486-1.899-1.019-2.967-1.502c-1.066-0.486-2.133-1.089-3.321-1.572
			c-2.329-1.059-4.907-2.053-7.629-3.072c-1.38-0.451-2.798-0.915-4.247-1.389c-1.477-0.375-2.968-0.8-4.488-1.214
			c-1.539-0.322-3.104-0.65-4.688-0.981c-0.785-0.197-1.601-0.245-2.407-0.366c-0.807-0.112-1.619-0.225-2.433-0.338l-1.223-0.172
			l-1.237-0.068c-0.825-0.05-1.652-0.099-2.481-0.149c-0.829-0.03-1.657-0.164-2.489-0.11l-2.495,0.062l-2.496,0.038
			c-0.83,0.041-1.652,0.171-2.477,0.25c-0.824,0.088-1.647,0.175-2.468,0.263l-1.231,0.123c-0.341,0.036-0.82,0.13-1.222,0.192
			c-3.359,0.564-6.672,1.074-9.881,1.558c-3.17,0.538-6.234,1.058-9.14,1.552c-2.904,0.546-5.649,1.062-8.184,1.538
			c-2.527,0.531-4.843,1.02-6.896,1.451c-2.02,0.533-3.83,0.896-5.279,1.309c-1.45,0.413-2.611,0.701-3.374,0.973
			c-0.78,0.235-1.186,0.395-1.186,0.395s1.445-0.994,4.213-2.299c1.376-0.676,3.087-1.381,5.059-2.203
			c1.993-0.727,4.237-1.609,6.731-2.401c2.499-0.762,5.194-1.664,8.102-2.405c2.906-0.733,5.981-1.566,9.168-2.273
			c3.177-0.66,6.461-1.331,9.807-1.967c0.437-0.079,0.794-0.164,1.3-0.239l1.321-0.17c0.883-0.108,1.769-0.217,2.656-0.326
			c0.889-0.094,1.776-0.236,2.671-0.289l2.691-0.065l2.691-0.041c0.898-0.045,1.787,0.099,2.679,0.139
			c0.89,0.07,1.778,0.139,2.664,0.208l1.325,0.11l1.306,0.215c1.734,0.306,3.471,0.53,5.144,0.936
			c1.668,0.429,3.322,0.826,4.925,1.288c1.58,0.539,3.137,1.051,4.644,1.594c1.473,0.623,2.915,1.233,4.318,1.826
			c1.386,0.624,2.701,1.304,3.974,1.948c1.274,0.643,2.437,1.392,3.586,2.04c2.271,1.347,4.27,2.71,5.979,3.993
			c0.867,0.623,1.661,1.229,2.367,1.828c0.718,0.58,1.368,1.121,1.937,1.636c1.163,0.991,2.004,1.854,2.588,2.426
			C169.496,267.422,169.781,267.749,169.781,267.749z"/>
	</g>
	<g>
		<path fill="#C800C8" d="M368.52,240.617c0,0,0.179-0.406,0.513-1.167c0.351-0.751,0.842-1.87,1.54-3.251
			c0.688-1.388,1.533-3.072,2.57-4.965c1.025-1.899,2.207-4.031,3.58-6.306c1.364-2.281,2.858-4.747,4.559-7.276
			c1.671-2.549,3.484-5.21,5.46-7.891c1.962-2.692,4.083-5.409,6.308-8.118c2.245-2.694,4.596-5.376,7.059-7.966
			c1.234-1.291,2.479-2.573,3.77-3.805c1.256-1.264,2.581-2.452,3.9-3.626c2.616-2.368,5.369-4.518,8.095-6.509
			c1.391-0.962,2.768-1.899,4.142-2.77c1.424-0.808,2.773-1.654,4.158-2.368c0.696-0.349,1.383-0.694,2.059-1.033
			c0.674-0.342,1.336-0.682,2.03-0.934c0.683-0.272,1.353-0.54,2.011-0.802c0.328-0.13,0.653-0.258,0.976-0.385
			c0.333-0.104,0.663-0.206,0.989-0.307c2.576-0.886,5.043-1.377,7.223-1.683c1.104-0.1,2.128-0.209,3.073-0.273
			c0.955,0.007,1.83,0.056,2.612,0.079c0.392,0.014,0.761,0.028,1.108,0.041c0.347,0.029,0.67,0.108,0.971,0.154
			c0.598,0.105,1.105,0.195,1.518,0.267c0.813,0.153,1.249,0.234,1.249,0.234s-0.444,0.018-1.275,0.052
			c-0.411,0.013-0.918,0.03-1.514,0.049c-0.297,0.015-0.614,0.008-0.952,0.044c-0.337,0.048-0.695,0.099-1.074,0.153
			c-0.754,0.113-1.586,0.213-2.479,0.366c-0.887,0.239-1.844,0.458-2.856,0.709c-2.007,0.601-4.225,1.397-6.552,2.479
			c-2.328,1.073-4.743,2.463-7.238,4.016c-1.246,0.779-2.464,1.695-3.738,2.562c-1.225,0.953-2.503,1.886-3.764,2.887
			c-1.225,1.056-2.528,2.045-3.763,3.164c-1.232,1.121-2.518,2.204-3.739,3.392c-0.618,0.584-1.238,1.171-1.86,1.759l-1.831,1.817
			c-1.237,1.199-2.431,2.457-3.623,3.716c-2.41,2.494-4.714,5.099-6.99,7.658c-1.117,1.301-2.225,2.591-3.319,3.866
			c-1.077,1.293-2.142,2.571-3.187,3.827c-2.066,2.537-4.088,4.979-5.936,7.353c-1.848,2.379-3.595,4.627-5.208,6.703
			c-1.592,2.1-3.052,4.025-4.345,5.732c-1.285,1.72-2.405,3.219-3.328,4.454C369.574,239.198,368.52,240.617,368.52,240.617z"/>
	</g>
	<g>
		<path fill="#C800C8" d="M484.924,221.98c0,0-0.419-0.128-1.205-0.368c-0.787-0.227-1.939-0.56-3.408-0.984
			c-1.47-0.413-3.262-0.875-5.31-1.402c-2.053-0.511-4.377-1.042-6.909-1.589c-1.261-0.294-2.595-0.511-3.963-0.771
			c-1.366-0.274-2.787-0.492-4.243-0.736c-2.915-0.467-6.002-0.82-9.186-1.096c-3.187-0.271-6.478-0.39-9.806-0.353
			c-1.668-0.035-3.327,0.182-5.006,0.233c-0.842,0.015-1.666,0.16-2.498,0.257l-2.492,0.315l-0.313,0.038l-0.156,0.018l-0.078,0.009
			l-0.039,0.005c0.202-0.038,0.033-0.006,0.068-0.012l-0.641,0.131l-1.281,0.261l-2.557,0.522c-1.619,0.423-3.14,0.891-4.706,1.317
			c-1.559,0.562-3.104,1.12-4.632,1.671c-1.493,0.656-2.984,1.268-4.435,1.921c-1.424,0.71-2.84,1.381-4.207,2.087
			c-1.344,0.746-2.694,1.425-3.955,2.182c-2.524,1.508-4.894,2.987-7.039,4.43c-2.129,1.464-4.069,2.84-5.763,4.104
			c-1.68,1.28-3.145,2.407-4.33,3.366c-1.175,0.969-2.113,1.724-2.732,2.261c-0.621,0.537-0.953,0.823-0.953,0.823
			s0.986-1.457,2.992-3.796c1.006-1.164,2.246-2.568,3.763-4.092c1.508-1.532,3.259-3.218,5.276-4.943
			c0.992-0.884,2.089-1.728,3.193-2.646c1.112-0.909,2.348-1.733,3.575-2.645c1.241-0.893,2.582-1.718,3.921-2.614
			c1.354-0.873,2.821-1.633,4.271-2.479c1.482-0.791,3.043-1.501,4.602-2.264c1.602-0.675,3.24-1.321,4.902-1.959
			c1.73-0.524,3.505-1.126,5.246-1.574l2.552-0.544l1.277-0.272l0.64-0.136l0.147-0.028l0.042-0.005l0.084-0.011l0.168-0.022
			l0.338-0.041l2.696-0.319c0.899-0.097,1.795-0.241,2.693-0.253c0.896-0.036,1.793-0.072,2.686-0.108
			c0.894-0.037,1.783-0.072,2.665-0.026c3.538,0.046,7,0.329,10.31,0.802c3.313,0.451,6.471,1.118,9.428,1.844
			c2.965,0.701,5.716,1.548,8.224,2.396c5.025,1.678,9.054,3.474,11.817,4.823C483.428,221.054,484.924,221.98,484.924,221.98z"/>
	</g>
</g>
</svg>
