<?xml version="1.0" encoding="utf-8"?>
<!-- Generator: Adobe Illustrator 16.0.0, SVG Export Plug-In . SVG Version: 6.00 Build 0)  -->
<!DOCTYPE svg PUBLIC "-//W3C//DTD SVG 1.1//EN" "http://www.w3.org/Graphics/SVG/1.1/DTD/svg11.dtd">
<svg version="1.1"
	 id="svg12211" xmlns:dc="http://purl.org/dc/elements/1.1/" xmlns:cc="http://creativecommons.org/ns#" xmlns:rdf="http://www.w3.org/1999/02/22-rdf-syntax-ns#" xmlns:svg="http://www.w3.org/2000/svg" xmlns:sodipodi="http://sodipodi.sourceforge.net/DTD/sodipodi-0.dtd" xmlns:inkscape="http://www.inkscape.org/namespaces/inkscape" inkscape:export-ydpi="72.021774" inkscape:export-xdpi="72.021774" inkscape:export-filename="C:\Users\Zealotlee\Dropbox\Small Projects\Steves Fuzzballs\fuschia-fuzzle.png" sodipodi:docname="acc-face-mustache.svg" inkscape:version="0.91 r13725"
	 xmlns="http://www.w3.org/2000/svg" xmlns:xlink="http://www.w3.org/1999/xlink" x="0px" y="0px" width="149.195px"
	 height="137.79px" viewBox="182.293 189.232 149.195 137.79" enable-background="new 182.293 189.232 149.195 137.79"
	 xml:space="preserve">
<sodipodi:namedview  showguides="true" showgrid="false" inkscape:cy="193.02625" inkscape:cx="369.48506" inkscape:zoom="0.71220416" borderopacity="1.0" bordercolor="#666666" pagecolor="#ffffff" id="base" inkscape:window-maximized="1" inkscape:window-y="-8" inkscape:window-x="-8" inkscape:window-height="988" inkscape:window-width="1680" inkscape:pageshadow="2" inkscape:current-layer="layer1" inkscape:pageopacity="0.0" inkscape:document-units="px">
	</sodipodi:namedview>
<g id="g33077" transform="translate(169,-12)">
	<path id="path33033" fill="#FBB307" d="M148.813,281.758c0,0,3.847-14.316-26.28-38.247
		c-30.127-23.931-59.614-37.392-73.289-41.452c-13.675-4.06-29.914,7.692-32.905,16.666c-2.991,8.974-6.196,18.376,3.205,28.845
		c9.401,10.469,12.393,12.607,12.393,12.607s-12.179,5.555-12.393,16.666c-0.214,11.111,10.042,21.153,16.239,23.718
		c6.197,2.563,12.393,2.563,13.461,1.922c1.068-0.641-4.914,8.975,1.709,15.385c6.624,6.41,14.786,11.117,23.504,11.538
		c8.892,0.43,19.017-6.41,24.999-9.401C105.439,317.014,148.813,281.758,148.813,281.758z"/>
	<path id="path33035" fill="#FC0472" d="M140.48,277.699c0,0-20.94-24.786-37.179-34.187c-16.238-9.401-43.589-25.213-51.922-25.213
		s-16.239,5.983-16.239,11.538c0,5.555,6.837,19.658,19.658,24.358c12.82,4.701,29.273,7.906,36.537,10.042
		c7.266,2.137,39.314,11.539,42.094,14.744C136.207,282.186,140.48,277.699,140.48,277.699z"/>
	<path id="path33037" fill="#FC0472" d="M98.814,278.34c0,0-28.844-6.837-40.382-6.41c-11.538,0.428-23.717-0.641-24.358,6.625
		c-0.641,7.264,8.084,16.232,13.247,16.452c10.042,0.427,18.717-9.134,28.632-12.179C83.376,280.547,91.977,278.768,98.814,278.34z"
		/>
	<path id="path33039" fill="#FC0472" d="M114.413,286.245c0,0-17.735-1.923-30.555,3.419s-26.922,10.896-26.922,17.307
		s6.624,14.316,18.803,14.316C87.918,321.287,102.234,309.107,114.413,286.245z"/>
	<path id="path33041" fill="#F0D383" d="M140.059,277.503c0,0-11.482-13.9-16.922-16.468c-5.438-2.568-24.022-6.195-28.404-8.159
		c-4.381-1.964-24.173-6.95-28.857-11.785s-7.403-9.216-5.892-11.483c1.511-2.266,2.417-0.604,3.475,1.058s4.079,0.453,2.72-1.964
		c-1.36-2.417-7.252-5.137-9.518-4.986c-2.266,0.151-7.857,3.022-7.857,8.008c0,4.986,1.662,9.216,7.857,12.993
		c6.195,3.777,20.699,8.914,27.951,11.029c7.252,2.115,19.792,4.684,25.836,7.705c6.043,3.022,17.375,8.008,18.734,13.145
		c0,0,4.383,1.059,4.986,2.418C134.771,280.374,138.096,280.07,140.059,277.503z"/>
	<path id="path33043" fill="#F0D383" d="M78.265,274.18c0,0,14.051,2.114,19.49,3.928c0,0-8.763,1.209-9.67,1.813
		c-0.907,0.604-9.67,0.15-11.785,1.662c-2.115,1.511-9.972,5.59-11.634,6.95s-9.065,2.567-12.993,2.114
		c-3.928-0.453-9.67-3.021-9.821-7.101s5.741-8.763,10.123-8.461c4.382,0.302,7.403,2.567,7.403,3.776s-1.662,2.115-4.23,1.512
		s-4.079,1.059-4.079,2.417c0,1.36,1.813,3.626,4.079,2.72s7.101-3.475,10.123-5.439C68.317,278.092,73.279,275.689,78.265,274.18z"
		/>
	<path id="path33045" fill="#F0D383" d="M102.438,285.964c0,0-5.287,9.367-8.763,13.447c-3.475,4.079-9.67,9.821-13.447,11.937
		c-3.777,2.114-8.31,1.661-7.857-2.418c0.453-4.078,4.382-7.101,6.799-7.101s1.964,1.662,0.604,2.417s-3.173,0.453-3.173,1.209
		s-0.151,4.533,3.324,3.173c3.475-1.36,7.857-3.776,8.31-7.856c0.453-4.08-6.194-4.685-8.46-4.986
		c-2.266-0.303-6.497,1.813-8.31,3.928s-5.59,6.648-5.59,10.273c0,3.627,2.417,9.217,8.159,9.217c5.741,0,15.562-5.439,18.886-9.518
		c3.324-4.08,6.497-7.403,6.497-7.403l11.785-16.317C111.202,285.964,105.46,285.964,102.438,285.964z"/>
	<path id="path33035-3" fill="none" stroke="#F0D383" stroke-width="1.5" d="M140.48,277.699c0,0-20.94-24.786-37.179-34.187
		c-16.238-9.401-43.589-25.213-51.922-25.213s-16.239,5.983-16.239,11.538c0,5.555,6.837,19.658,19.658,24.358
		c12.82,4.701,29.273,7.906,36.537,10.042c7.266,2.137,39.314,11.539,42.094,14.744C136.207,282.186,140.48,277.699,140.48,277.699z
		"/>
	<path id="path33037-4" fill="none" stroke="#F0D383" stroke-width="1.5" d="M98.814,278.34c0,0-28.844-6.837-40.382-6.41
		c-11.538,0.428-23.717-0.641-24.358,6.625c-0.641,7.264,8.084,16.232,13.247,16.452c10.042,0.427,18.717-9.134,28.632-12.179
		C83.376,280.547,91.977,278.768,98.814,278.34z"/>
	<path id="path33011" fill="#F6CE77" d="M162.488,300.989c0,15.384-14.53,38.033-40.598,38.033
		c-26.066,0-25.854-16.239-25.64-24.146s8.333-38.46,36.11-38.46S162.488,300.989,162.488,300.989z"/>
	<path id="path33039-9" fill="none" stroke="#F0D383" stroke-width="1.5" d="M114.413,286.245c0,0-17.735-1.923-30.555,3.419
		s-26.922,10.896-26.922,17.307s6.624,14.316,18.803,14.316C87.918,321.287,102.234,309.107,114.413,286.245z"/>
	<path id="path33011-6" fill="#FAC84B" d="M158.723,302.404c0,11.906-12.41,29.433-34.675,29.433
		c-22.264,0-22.082-12.567-21.899-18.685c0.182-6.118,7.117-29.764,30.842-29.764S158.723,302.404,158.723,302.404z"/>
	<path id="path33031" fill="#F0D383" d="M128.301,309.43c0,2.654-2.726,4.807-6.09,4.807c-3.363,0-6.09-2.151-6.09-4.807
		c0-2.656,2.727-4.809,6.09-4.809C125.575,304.621,128.301,306.773,128.301,309.43z"/>
	<path id="path33071" fill="#F9D17A" d="M79.798,270.861c-13.379-2.047-43.516-8.336-48.503,6.623
		c-2.097,6.291,4.06,11.021,4.06,17.308c0,3.541-10.437-5.868-11.324-7.051c-5.164-6.886-0.661-18.468,5.769-23.29
		C38.258,258.107,73.804,262.869,79.798,270.861z"/>
	<path id="path33073" fill="#F9D17A" d="M80.653,228.341c0.895-18.571-40.756-32.746-55.34-18.162
		c-3.941,3.941-9.583,12.162-9.615,17.307c-0.048,7.657,2.738,9.504,5.769,13.247c3.084,3.809,9.191,5.773,11.965,8.547
		c3.845,3.845-9.603-21.593,4.06-30.768C50.09,210.052,74.881,225.776,80.653,228.341z"/>
	<path id="path33075" fill="#F9D17A" d="M97.533,280.477c-16.436,2.838-41.507,6.789-47.221,23.931
		c-1.092,3.274-0.307,15.004,4.487,12.606c4.187-2.094-0.947-11.354,0.855-14.957c2.873-5.748,11.081-8.104,16.666-10.897
		C79.326,287.657,96.67,289.102,97.533,280.477z"/>
</g>
</svg>
