<?xml version="1.0" encoding="utf-8"?>
<!-- Generator: Adobe Illustrator 16.0.0, SVG Export Plug-In . SVG Version: 6.00 Build 0)  -->
<!DOCTYPE svg PUBLIC "-//W3C//DTD SVG 1.1//EN" "http://www.w3.org/Graphics/SVG/1.1/DTD/svg11.dtd">
<svg version="1.1"
	 id="svg12211" xmlns:dc="http://purl.org/dc/elements/1.1/" xmlns:cc="http://creativecommons.org/ns#" xmlns:rdf="http://www.w3.org/1999/02/22-rdf-syntax-ns#" xmlns:svg="http://www.w3.org/2000/svg" xmlns:sodipodi="http://sodipodi.sourceforge.net/DTD/sodipodi-0.dtd" xmlns:inkscape="http://www.inkscape.org/namespaces/inkscape" inkscape:export-ydpi="72.021774" inkscape:export-xdpi="72.021774" inkscape:export-filename="C:\Users\Zealotlee\Dropbox\Small Projects\Steves Fuzzballs\fuschia-fuzzle.png" sodipodi:docname="acc-face-mustache.svg" inkscape:version="0.91 r13725"
	 xmlns="http://www.w3.org/2000/svg" xmlns:xlink="http://www.w3.org/1999/xlink" x="0px" y="0px" width="339.274px"
	 height="90.945px" viewBox="86.765 199.42 339.274 90.945" enable-background="new 86.765 199.42 339.274 90.945"
	 xml:space="preserve">
<path fill="#421651" d="M125.154,282.38c0,0-0.843-47.449,42.99-47.449c40.114,0,42.967,33.178,46.667,35.282
	c3.7,2.104,15.349-2.141,14.339-9.33c-1.009-7.188-31.282-60.485-72.654-60.485s-47.427,46.635-47.427,62.415
	c0,0-1.682,2.805-7.736,3.506c-6.055,0.701-12.109-2.454-14.127,2.453c-2.018,4.91,3.027,16.129,12.109,20.338
	S119.772,285.886,125.154,282.38z"/>
<path fill="#671470" d="M112.502,260.533c0,0,14.067-13.933,22.476-23.049c8.409-9.117,37.083-10.233,46.333-7.604
	s31.958,16.128,36.667,23.667s-1.258-7.258-4.117-11.333c-2.859-4.075-27.023-37.607-54.773-37.607S112.502,221.261,112.502,260.533
	z"/>
<path fill="#821A91" d="M150.043,205.255c0,0,7.555,17.22,6.76,24.148c4.334-0.451,6.855-0.62,6.855-0.62
	s-2.428-18.762-5.637-24.167C153.144,204.713,150.043,205.255,150.043,205.255z"/>
<path fill="#821A91" d="M161.824,204.714l3.145,0.383c0,0,3.422,17.25,2.511,23.553c-1.423,0.032-1.423,0.032-1.423,0.032
	S162.838,206.548,161.824,204.714z"/>
<path fill="#421651" d="M387.65,281.402c0,0,0.843-47.449-42.99-47.449c-40.114,0-42.967,33.178-46.667,35.281
	c-3.7,2.104-15.349-2.141-14.339-9.329c1.009-7.188,31.281-60.485,72.654-60.485c41.371,0,47.427,46.635,47.427,62.414
	c0,0,1.682,2.805,7.735,3.506c6.056,0.701,12.109-2.453,14.127,2.454c2.019,4.909-3.026,16.129-12.108,20.337
	C404.407,292.34,393.032,284.908,387.65,281.402z"/>
<path fill="#671470" d="M400.302,259.555c0,0-14.067-13.933-22.476-23.049c-8.409-9.116-37.083-10.233-46.333-7.604
	c-9.25,2.629-31.958,16.128-36.667,23.667c-4.709,7.539,1.258-7.258,4.117-11.333c2.858-4.075,27.022-37.607,54.772-37.607
	S400.302,220.283,400.302,259.555z"/>
<path fill="#821A91" d="M347.878,204.266c0,0,7.556,17.22,6.761,24.148c4.336,0.444,6.854,0.902,6.854,0.902
	s-2.429-20.284-5.638-25.688C350.979,203.723,347.878,204.266,347.878,204.266z"/>
<path fill="#821A91" d="M359.659,203.724l3.146,0.383c0,0,4.199,20.002,3.288,26.304c-1.423,0.032-2.177-0.565-2.177-0.565
	S360.673,205.558,359.659,203.724z"/>
</svg>
