<?xml version="1.0" encoding="utf-8"?>
<!-- Generator: Adobe Illustrator 16.0.0, SVG Export Plug-In . SVG Version: 6.00 Build 0)  -->
<!DOCTYPE svg PUBLIC "-//W3C//DTD SVG 1.1//EN" "http://www.w3.org/Graphics/SVG/1.1/DTD/svg11.dtd">
<svg version="1.1" id="Layer_1" xmlns="http://www.w3.org/2000/svg" xmlns:xlink="http://www.w3.org/1999/xlink" x="0px" y="0px"
	 width="128px" height="128px" viewBox="0 0 128 128" enable-background="new 0 0 128 128" xml:space="preserve">
<g opacity="0.5">
	<path d="M60.136,10.9c0.716-0.078,1.928-0.179,3.639-0.298c1.709-0.119,3.082-0.138,4.118-0.06c1.27,0.08,2.523,0.119,3.758,0.119
		c1.232,0,2.326,0.08,3.279,0.239c0.637,0.16,1.332,0.458,2.088,0.895c0.756,0.438,1.57,0.856,2.447,1.253
		c0.793,0.319,1.568,0.558,2.326,0.716c0.754,0.16,1.449,0.438,2.088,0.835c0.635,0.399,1.232,0.895,1.789,1.492
		c0.555,0.596,1.193,1.213,1.908,1.849c0.158,0.16,0.377,0.22,0.656,0.179c0.279-0.039,0.496,0.021,0.656,0.179
		c1.033,0.954,2.008,2.228,2.924,3.818c0.914,1.592,1.689,3.182,2.326,4.772c0.875,2.069,1.471,4.077,1.789,6.025
		c0.316,1.95,0.277,4.315-0.119,7.099c-0.16,0.876-0.279,1.75-0.357,2.625c-0.08,0.876-0.238,1.67-0.477,2.386
		c-0.162,0.716-0.459,1.393-0.896,2.028c-0.438,0.637-0.816,1.312-1.133,2.028c-0.238,0.638-0.477,1.372-0.715,2.208
		c-0.24,0.835-0.559,1.61-0.955,2.326c-0.08,0.08-0.221,0.14-0.418,0.179c-0.199,0.041-0.34,0.101-0.418,0.179
		c-0.875,1.989-2.129,3.799-3.758,5.428c-1.631,1.631-3.242,3.242-4.832,4.832c-0.875,0.954-1.67,1.81-2.385,2.565
		c-0.717,0.756-1.432,1.81-2.148,3.161c-0.557,1.192-0.936,2.407-1.133,3.639c-0.199,1.234-0.498,2.884-0.895,4.952
		c-0.08,0.318-0.061,0.676,0.059,1.072c0.119,0.4,0.1,0.758-0.059,1.074c-0.08,0.16-0.199,0.26-0.359,0.299
		c-0.16,0.041-0.318,0.178-0.477,0.418c-0.16,0.637-0.221,1.252-0.18,1.848c0.041,0.598-0.02,0.977-0.178,1.135
		c-0.238,0.16-0.855,0.279-1.85,0.357c-0.996,0.08-2.107,0.119-3.34,0.119c-1.234,0-2.446-0.02-3.64-0.061
		c-1.193-0.039-2.069-0.059-2.625-0.059c-2.069-0.158-3.997-0.457-5.786-0.895s-2.884-0.973-3.281-1.611
		c-0.319-0.477-0.458-1.211-0.417-2.207c0.039-0.994,0.138-2.047,0.298-3.162c0.159-1.112,0.377-2.186,0.656-3.221
		c0.278-1.033,0.496-1.828,0.656-2.386c0.397-1.032,0.854-1.987,1.372-2.863c0.516-0.874,1.053-1.71,1.61-2.506
		c0.159-0.316,0.337-0.636,0.537-0.954c0.198-0.317,0.417-0.675,0.656-1.074c0.158-0.317,0.337-0.636,0.537-0.955
		c0.198-0.317,0.418-0.675,0.656-1.074c0.636-1.113,1.391-2.267,2.267-3.459c0.874-1.193,1.749-2.226,2.625-3.102
		c1.192-1.271,2.425-2.405,3.698-3.4c1.271-0.994,2.227-2.047,2.863-3.162c0.396-0.716,0.795-1.629,1.193-2.744
		c0.396-1.113,0.715-2.147,0.955-3.102c0.635-2.386,0.775-4.274,0.416-5.667c-0.357-1.391-1.332-2.763-2.922-4.116
		c-1.193-0.954-2.645-1.729-4.354-2.326c-1.712-0.597-3.681-0.656-5.906-0.179c-0.716,0.161-1.492,0.459-2.327,0.895
		c-0.835,0.438-1.571,0.855-2.207,1.252c-1.035,0.638-1.87,1.273-2.505,1.909c-0.638,0.637-1.193,1.312-1.67,2.028
		s-0.915,1.512-1.313,2.386c-0.399,0.876-0.876,1.909-1.432,3.102c-0.16,0.16-0.319,0.498-0.477,1.014
		c-0.16,0.518-0.399,0.855-0.716,1.014c-0.638,0.238-1.354,0.238-2.147,0c-0.796-0.239-1.592-0.597-2.386-1.074
		c-0.796-0.478-1.592-1.014-2.386-1.611c-0.796-0.597-1.512-1.092-2.148-1.491c-0.637-0.397-1.312-0.794-2.028-1.193
		c-0.716-0.397-1.393-0.794-2.028-1.193c-0.399-0.239-0.775-0.436-1.133-0.597c-0.358-0.158-0.697-0.397-1.014-0.716
		c-0.16-0.158-0.397-0.496-0.716-1.014c-0.317-0.517-0.477-0.854-0.477-1.014c0-0.159,0.08-0.597,0.238-1.313
		c0.161-0.716,0.358-1.352,0.597-1.909c0.159-0.478,0.436-0.973,0.835-1.492c0.397-0.516,0.794-0.973,1.193-1.372
		c0.158-0.159,0.298-0.377,0.417-0.656c0.119-0.278,0.257-0.496,0.417-0.656c0.078,0,0.257-0.198,0.537-0.597
		c0.277-0.397,0.496-0.716,0.656-0.954c0.317-0.478,0.675-0.994,1.074-1.551c0.397-0.555,0.875-1.152,1.432-1.79
		c0.079-0.078,0.218-0.138,0.418-0.179c0.197-0.039,0.337-0.099,0.417-0.179c0-0.158-0.021-0.317-0.06-0.477
		c-0.041-0.159-0.021-0.278,0.06-0.358c0.158-0.159,0.358-0.239,0.596-0.239c0.239,0,0.437-0.078,0.597-0.239
		c0.159-0.158,0.298-0.358,0.417-0.596c0.12-0.239,0.257-0.437,0.418-0.597c0.078-0.078,0.218-0.138,0.417-0.179
		c0.197-0.04,0.337-0.099,0.417-0.179c0.158-0.397,0.436-0.814,0.835-1.252c0.397-0.437,0.794-0.854,1.193-1.253
		c0.158-0.158,0.298-0.218,0.417-0.179c0.119,0.041,0.257-0.019,0.417-0.179c0.158-0.158,0.358-0.298,0.597-0.417
		c0.238-0.119,0.436-0.257,0.596-0.417c0.239-0.239,0.656-0.496,1.253-0.775c0.596-0.278,1.252-0.576,1.968-0.895
		c0.716-0.317,1.451-0.615,2.208-0.895c0.755-0.278,1.411-0.537,1.968-0.776c0.875-0.317,1.769-0.496,2.685-0.537
		C58.007,11.16,59.021,11.061,60.136,10.9z M61.33,92.982c0.635-0.158,1.688-0.238,3.161-0.238c1.471,0,2.763,0.08,3.878,0.238
		c1.033,0.08,1.85,0.279,2.445,0.596c0.596,0.318,1.412,0.797,2.445,1.432c0.795,0.477,1.412,0.936,1.85,1.373
		c0.436,0.438,0.934,0.936,1.492,1.49c0.635,0.639,1.092,1.473,1.371,2.506c0.277,1.035,0.418,2.146,0.418,3.34
		s-0.16,2.387-0.477,3.58c-0.32,1.193-0.758,2.266-1.313,3.221c-0.4,0.557-0.916,1.193-1.551,1.908
		c-0.639,0.717-1.234,1.313-1.791,1.791c-0.318,0.318-0.715,0.537-1.193,0.656c-0.477,0.119-0.914,0.338-1.311,0.656
		c-0.4,0.318-0.678,0.637-0.836,0.953c-0.16,0.318-0.398,0.518-0.717,0.598c-1.113,0.316-2.444,0.457-3.996,0.416
		c-1.551-0.041-2.845-0.178-3.877-0.416c-0.638-0.08-1.354-0.34-2.147-0.775c-0.796-0.438-1.592-0.955-2.386-1.551
		c-0.796-0.598-1.512-1.232-2.147-1.91c-0.638-0.674-1.115-1.291-1.432-1.85c-0.239-0.316-0.478-0.854-0.716-1.609
		c-0.239-0.756-0.458-1.611-0.656-2.566c-0.2-0.953-0.339-1.926-0.417-2.922c-0.08-0.994-0.041-1.928,0.119-2.805
		c0.078-0.238,0.257-0.535,0.537-0.895c0.277-0.357,0.496-0.734,0.656-1.133c0.636-1.113,1.531-2.307,2.685-3.58
		c1.152-1.27,2.604-2.105,4.354-2.504c0.239-0.078,0.496-0.1,0.775-0.061C60.832,92.963,61.091,92.982,61.33,92.982z"/>
</g>
</svg>
