<?xml version="1.0" encoding="utf-8"?>
<!-- Generator: Adobe Illustrator 16.0.0, SVG Export Plug-In . SVG Version: 6.00 Build 0)  -->
<!DOCTYPE svg PUBLIC "-//W3C//DTD SVG 1.1//EN" "http://www.w3.org/Graphics/SVG/1.1/DTD/svg11.dtd">
<svg version="1.1"
	 id="svg12211" xmlns:dc="http://purl.org/dc/elements/1.1/" xmlns:cc="http://creativecommons.org/ns#" xmlns:rdf="http://www.w3.org/1999/02/22-rdf-syntax-ns#" xmlns:svg="http://www.w3.org/2000/svg" xmlns:sodipodi="http://sodipodi.sourceforge.net/DTD/sodipodi-0.dtd" xmlns:inkscape="http://www.inkscape.org/namespaces/inkscape" inkscape:export-ydpi="72.021774" inkscape:export-xdpi="72.021774" inkscape:export-filename="C:\Users\Zealotlee\Dropbox\Small Projects\Steves Fuzzballs\fuschia-fuzzle.png" sodipodi:docname="acc-face-mustache.svg" inkscape:version="0.91 r13725"
	 xmlns="http://www.w3.org/2000/svg" xmlns:xlink="http://www.w3.org/1999/xlink" x="0px" y="0px" width="203.603px"
	 height="183.649px" viewBox="154.199 168.279 203.603 183.649" enable-background="new 154.199 168.279 203.603 183.649"
	 xml:space="preserve">
<path id="path3964-1_3_" sodipodi:nodetypes="ssssssss" inkscape:connector-curvature="0" fill="#DD19CB" stroke="#921199" stroke-width="5" stroke-miterlimit="10" d="
	M280.604,170.779c37.719,0,55.838,7.766,59.537,11.094c3.697,3.328,15.161,13.682,15.161,26.995s-9.983,71.001-28.844,87.272
	c-18.86,16.271-46.531,34.707-65.39,34.707c-18.859,0-49.998-26.879-70.694-43.213c-17.729-13.99-34.391-69.152-33.651-73.219
	C157.462,210.347,221.436,170.779,280.604,170.779z"/>
<path id="path3964-1_1_" sodipodi:nodetypes="ssssssss" inkscape:connector-curvature="0" fill="#480E66" d="M276.577,183.877
	c31.546,0,46.7,6.495,49.793,9.278c3.093,2.783,12.68,11.443,12.68,22.577c0,11.134-8.35,59.381-24.124,72.989
	c-15.773,13.608-38.916,29.028-54.689,29.028c-15.772,0-41.813-22.479-59.125-36.142c-14.827-11.701-28.763-57.834-28.144-61.236
	C173.588,216.97,227.093,183.877,276.577,183.877z"/>
<g>
	<path fill="none" stroke="#F04A67" stroke-width="20" stroke-miterlimit="10" d="M302.751,178.48c0,0-94,12.333-104.333,105.667"/>
	<path fill="none" stroke="#F3894A" stroke-width="20" stroke-miterlimit="10" d="M323.084,184.48
		c0,0-110.333,4.667-118.667,112.667"/>
	<path fill="none" stroke="#F1DC46" stroke-width="20" stroke-miterlimit="10" d="M330.418,189.48c0,0-105,5-118.333,122.667"/>
	<path fill="none" stroke="#AAEF4B" stroke-width="20" stroke-miterlimit="10" d="M338.418,194.48c0,0-122,7.667-113.667,130.333"/>
	<path fill="none" stroke="#48D7F2" stroke-width="20" stroke-miterlimit="10" d="M346.084,199.48
		c0,0-130.333,9.333-101.333,136.667"/>
	<path fill="none" stroke="#534BF0" stroke-width="20" stroke-miterlimit="10" d="M348.084,205.814c0,0-116.667,8.333-87.333,144"/>
	<path fill="none" stroke="#9F4AEF" stroke-width="14" stroke-miterlimit="10" d="M348.084,214.48c0,0-100.667,6.333-81,120.333"/>
</g>
<path fill="#FFFFFF" fill-opacity="0.1" d="M172.969,220.372c0,0,56.523,26.845,84.051,25.292
	c27.528-1.553,82.03-29.932,82.03-29.932s7.955-31.855-65.841-31.855C219.881,183.877,172.969,220.372,172.969,220.372z"/>
</svg>
