<?xml version="1.0" encoding="utf-8"?>
<!-- Generator: Adobe Illustrator 16.0.0, SVG Export Plug-In . SVG Version: 6.00 Build 0)  -->
<!DOCTYPE svg PUBLIC "-//W3C//DTD SVG 1.1//EN" "http://www.w3.org/Graphics/SVG/1.1/DTD/svg11.dtd">
<svg version="1.1"
	 id="svg12211" xmlns:dc="http://purl.org/dc/elements/1.1/" xmlns:cc="http://creativecommons.org/ns#" xmlns:rdf="http://www.w3.org/1999/02/22-rdf-syntax-ns#" xmlns:svg="http://www.w3.org/2000/svg" xmlns:sodipodi="http://sodipodi.sourceforge.net/DTD/sodipodi-0.dtd" xmlns:inkscape="http://www.inkscape.org/namespaces/inkscape" inkscape:export-ydpi="72.021774" inkscape:export-xdpi="72.021774" inkscape:export-filename="C:\Users\Zealotlee\Dropbox\Small Projects\Steves Fuzzballs\fuschia-fuzzle.png" sodipodi:docname="acc-face-mustache.svg" inkscape:version="0.91 r13725"
	 xmlns="http://www.w3.org/2000/svg" xmlns:xlink="http://www.w3.org/1999/xlink" x="0px" y="0px" width="203.604px"
	 height="165.069px" viewBox="164.789 159.279 203.604 165.069" enable-background="new 164.789 159.279 203.604 165.069"
	 xml:space="preserve">
<path id="path3964-1_3_" sodipodi:nodetypes="ssssssss" inkscape:connector-curvature="0" fill="#D8C11A" stroke="#AF9114" stroke-width="5" stroke-miterlimit="10" d="
	M291.193,161.779c37.719,0,55.839,7.766,59.537,11.094c3.697,3.328,15.162,13.682,15.162,26.995s-9.984,71.001-28.845,87.272
	c-18.86,16.271-46.53,34.707-65.39,34.707s-49.997-26.879-70.694-43.213c-17.729-13.99-34.391-69.152-33.651-73.219
	C168.051,201.347,232.026,161.779,291.193,161.779z"/>
<path id="path3964-1_1_" sodipodi:nodetypes="ssssssss" inkscape:connector-curvature="0" fill="#60461D" d="M287.167,174.877
	c31.546,0,46.701,6.495,49.793,9.278c3.092,2.783,12.681,11.443,12.681,22.577c0,11.134-8.351,59.381-24.125,72.989
	c-15.772,13.608-38.916,29.028-54.688,29.028c-15.773,0-41.814-22.479-59.125-36.142c-14.827-11.701-28.763-57.834-28.144-61.236
	C184.178,207.97,237.682,174.877,287.167,174.877z"/>
<path fill="#755425" d="M183.559,211.372c0,0,56.523,26.845,84.05,25.292c27.529-1.553,82.031-29.932,82.031-29.932
	s7.955-31.855-65.842-31.855C230.471,174.877,183.559,211.372,183.559,211.372z"/>
<path fill="#968439" stroke="#876C1F" stroke-width="2" stroke-miterlimit="10" d="M223.401,252.463c0,0-0.455,4.064-6.674,3.688
	c-3.477-0.211,13.484,8.074,13.484,8.074s0.58,3.558-4.326,5.594c-4.751,1.971,15.608-1.028,15.608-1.028s4.058,5.413-0.518,7.718
	c-2.307,1.162,15.671-3.125,15.671-3.125s2.82-1.836,2.529,2.08c-0.189,2.559,7.266-11.266,7.266-11.266s1.187-0.934,2.304,3.186
	c0.448,1.658,2.646-13.996,2.646-13.996s2.226-1.527,3.893,0.152c1.652,1.664-5.116-12.292-5.116-12.292s1.185-2.308,5.356-1.157
	c3.875,1.069-12.123-8.473-12.123-8.473s0.168-4.697,3.054-5.284c2.424-0.493-13.902-0.676-13.902-0.676s0.689-3.693,1.9-6.113
	c1.106-2.209-13.805,5.822-13.805,5.822s-2.111-3.262-2.239-5.283c-0.246-3.886-6.811,10.937-6.811,10.937s-5.059-0.079-5.92-2.899
	c-1.001-3.279-0.605,12.16-0.605,12.16s-3.381,1.196-4.685-1.574C217.623,232.84,223.401,252.463,223.401,252.463z M233.33,256.873
	c0,0-8.303-8.756-0.654-17.756c3.894,3.688,5.656,5.639,5.656,5.639s-3.749,2.98-0.034,7.487
	C234.379,256.052,233.33,256.873,233.33,256.873z M244.591,239.171c-3.816-3.912-4.638-4.96-4.638-4.96s8.742-8.318,17.755-0.684
	c-3.681,3.9-5.63,5.665-5.63,5.665S249.091,235.449,244.591,239.171z M248.733,244.109c2.132,0.663,3.323,2.929,2.66,5.061
	s-2.929,3.323-5.061,2.66s-3.323-2.929-2.66-5.061S246.601,243.446,248.733,244.109z M238.516,263.771
	c3.681-3.9,5.63-5.666,5.63-5.666s2.986,3.744,7.487,0.022c3.816,3.912,4.638,4.96,4.638,4.96S247.529,271.404,238.516,263.771z
	 M263.548,258.182c-3.894-3.688-5.655-5.639-5.655-5.639s3.748-2.98,0.033-7.487c3.92-3.809,4.967-4.63,4.967-4.63
	S271.197,249.182,263.548,258.182z"/>
<path fill="#B7A451" stroke="#998220" stroke-miterlimit="10" d="M326.718,232.375l-8.472-2.634l-0.282-5.145l7.231-2.456
	l-1.092-4.809l-9.203,1.608l-0.836-4.494l7.731-4.064l-1.94-5.484l-8.76,5.098l-3.711-4.329l5.463-7.357l-4.291-3.216l-5.322,7.283
	l-4.485-2.218l2.733-8.794l-5.361-1.667l-2.674,8.224l-4.497-1.045l-0.337-9.513l-5.555-0.668l-0.582,9.815l-6.384,0.485
	l-3.343-8.919l-5.785,1.965l3.838,8.837l-4.465,2.258l-5.699-7.77l-4.725,3.47l6.328,7.26l-4.43,4.033l-4.649-5.091l-3.948,3.242
	l6.502,7.078L254,216.235l-6.675-1.605l-0.971,4.637l6.401,2.108l-0.428,5.159l-8.073-0.511l-0.092,5.969l8.681,1.954l1.324,4.449
	l-7.564,1.823l2.9,6.37l6.729-2.73l2.872,3.245l-5.088,6.533l2.65,2.823l5.687-5.053l3.897,2.975l-3.979,6.936l5.767,3.895
	l3.911-6.755l4.688,1.858l-0.873,7.726l5.603,1.271l1.683-8.062l4.649-0.201l1.638,7.214l5.764-1.326l-1.168-6.848l4.481-1.354
	l5.021,5.793l4.68-2.19l-4.506-6.693l4.58-1.869l4.965,4.836l3.486-3.269l-4.693-7.222l2.931-2.617l6.16,2.503l1.95-3.627
	l-7.039-3.835l1.119-4.356l8.521-0.173L326.718,232.375z M289.059,236.189l-10.902-3.389l3.389-10.902l10.902,3.389L289.059,236.189
	z"/>
<path fill="#998220" stroke="#876C1F" stroke-width="2" stroke-miterlimit="10" d="M289.354,213.608
	c-8.502-2.643-16.824,2.328-19.467,10.83s1.393,17.315,9.895,19.958s17.537-2.106,20.181-10.608S297.855,216.251,289.354,213.608z
	 M289.059,236.189l-10.902-3.389l3.389-10.902l10.902,3.389L289.059,236.189z"/>
</svg>
