<?xml version="1.0" encoding="utf-8"?>
<!-- Generator: Adobe Illustrator 16.0.0, SVG Export Plug-In . SVG Version: 6.00 Build 0)  -->
<!DOCTYPE svg PUBLIC "-//W3C//DTD SVG 1.1//EN" "http://www.w3.org/Graphics/SVG/1.1/DTD/svg11.dtd">
<svg version="1.1"
	 id="svg12211" xmlns:dc="http://purl.org/dc/elements/1.1/" xmlns:cc="http://creativecommons.org/ns#" xmlns:rdf="http://www.w3.org/1999/02/22-rdf-syntax-ns#" xmlns:svg="http://www.w3.org/2000/svg" xmlns:sodipodi="http://sodipodi.sourceforge.net/DTD/sodipodi-0.dtd" xmlns:inkscape="http://www.inkscape.org/namespaces/inkscape" inkscape:export-ydpi="72.021774" inkscape:export-xdpi="72.021774" inkscape:export-filename="C:\Users\Zealotlee\Dropbox\Small Projects\Steves Fuzzballs\fuschia-fuzzle.png" sodipodi:docname="acc-eyes-cybervisor.svg" inkscape:version="0.91 r13725"
	 xmlns="http://www.w3.org/2000/svg" xmlns:xlink="http://www.w3.org/1999/xlink" x="0px" y="0px" width="383.127px"
	 height="148.19px" viewBox="71.002 172.481 383.127 148.19" enable-background="new 71.002 172.481 383.127 148.19"
	 xml:space="preserve">
<sodipodi:namedview  showguides="true" showgrid="false" inkscape:cy="193.02625" inkscape:cx="369.48506" inkscape:zoom="0.71220416" borderopacity="1.0" bordercolor="#666666" pagecolor="#ffffff" id="base" inkscape:window-maximized="1" inkscape:window-y="-8" inkscape:window-x="-8" inkscape:window-height="988" inkscape:window-width="1680" inkscape:pageshadow="2" inkscape:current-layer="layer1" inkscape:pageopacity="0.0" inkscape:document-units="px">
	</sodipodi:namedview>
<g id="layer1" transform="translate(0,-540.36218)" inkscape:label="Layer 1" inkscape:groupmode="layer">
	<g id="g4548" transform="matrix(0.65856934,0,0,0.65856934,-9.628154,612.94464)">
		
			<path id="path4313" sodipodi:nodetypes="cccccccccccccccccccccccccc" inkscape:connector-curvature="0" fill="#DFAB3A" stroke="#9C5F19" stroke-width="4" d="
			M146.366,155.176c-5.657,4.242-3.535,21.92-3.535,21.92c-6.22,7.202-4.282,24.299-4.282,24.299
			c-4.5,5.75-2.082,13.885-2.082,13.885c-12.728,8.485-9.9,45.256-9.9,45.256c0,7.778,14.849,26.162,14.849,26.162
			c0,7.07,9.191,26.871,9.191,26.871c22.628,21.214,72.125,34.648,72.125,34.648s0.015,4.334,4.951,5.657
			c80.61,19.799,185.068,19.798,185.068,19.798V207.502c-92.63,0-203.453-23.334-203.453-23.334
			C192.328,174.976,146.366,155.176,146.366,155.176z M680.254,155.176c0,0-45.961,19.8-62.932,28.992
			c0,0-110.824,23.334-203.455,23.334v166.169c0,0,104.461,0.001,185.071-19.798c4.936-1.323,4.95-5.657,4.95-5.657
			s49.498-13.435,72.125-34.648c0,0,9.194-19.801,9.194-26.871c0,0,14.848-18.384,14.848-26.162c0,0,2.829-36.771-9.898-45.256
			c0,0,2.416-8.135-2.085-13.885c0,0,1.938-17.097-4.281-24.299C683.789,177.096,685.911,159.418,680.254,155.176z"/>
		<path id="path4530-8" inkscape:connector-curvature="0" fill="#DFAB3A" d="M406.233,371.708c0,0,9.257,0.39,14.52,0.098
			l0.388-16.761l-14.909,0.196V371.708z"/>
		<path id="path4530" inkscape:connector-curvature="0" fill="#DFAB3A" d="M406.53,229.658c0,0,9.256,0.39,14.517,0.098l0.391-16.76
			l-14.909,0.195V229.658z"/>
		<path id="path4379" sodipodi:nodetypes="csscscsc" inkscape:connector-curvature="0" fill="#E7C36E" d="M137.391,211.345
			c0,0,5.237-12.265,18.879-11.162c13.643,1.103,30.731,9.233,33.762,29.352c3.032,20.119,2.205,17.639,2.205,17.639
			s-2.757-11.162-11.3-16.537c-8.544-5.374-19.431-3.858-19.431-3.858s-5.925-10.611-7.993-12.127
			C151.447,213.136,142.489,209.966,137.391,211.345z"/>
		<path id="path4360" sodipodi:nodetypes="cc" inkscape:connector-curvature="0" fill="none" stroke="#DC00DC" stroke-width="2" d="
			M205.466,272.805l14.331,4.409"/>
		
			<path id="path4358" sodipodi:nodetypes="cccc" inkscape:connector-curvature="0" fill="none" stroke="#DC00DC" stroke-width="2" d="
			M184.556,273.605l19.878,7.796l1.169-15.982l13.589,3.636"/>
		<path id="path4315" sodipodi:nodetypes="cscccc" inkscape:connector-curvature="0" fill="#C800C8" d="M214.955,212.948
			c0,0,2.121,32.526,4.95,51.619c2.829,19.091,11.313,57.275,11.313,57.275s90.168,27.578,182.091,27.578v-117.38
			C413.309,232.039,327.385,228.504,214.955,212.948z"/>
		<path id="path4356" sodipodi:nodetypes="csscsc" inkscape:connector-curvature="0" fill="#C1761F" d="M183.192,277.112
			c0,0-8.575,3.508-20.268,3.118c-11.693-0.39-27.673-3.508-32.351-13.252c-4.677-9.744,7.016,13.642,7.016,13.642
			s18.708,10.134,28.843,9.744C176.565,289.975,183.192,277.112,183.192,277.112z"/>
		
			<path id="path4317" sodipodi:nodetypes="ccscssc" inkscape:connector-curvature="0" fill="none" stroke="#9C5F19" stroke-width="4" d="
			M167.05,292.395c0,0-36-4.751-37.25-25.001c-3.75-6-5-18.25-4-27.75c1-9.5,9-26.749,9-26.749s5.75-17.75,26.75-13.501
			c20.999,4.251,32.999,24,31.25,54.25C191.05,283.895,167.05,292.395,167.05,292.395z"/>
		
			<path id="path4319" sodipodi:nodetypes="csc" inkscape:connector-curvature="0" fill="none" stroke="#DC00DC" stroke-width="2" stroke-linecap="round" d="
			M145.601,282.614c0,0,24.199-18.109,26.198-29.11c2-11,9.75-39.698-14-53.699"/>
		
			<path id="path4321" sodipodi:nodetypes="cccc" inkscape:connector-curvature="0" fill="none" stroke="#DC00DC" stroke-width="2" d="
			M172.3,253.254l4.25,2.25l-3,11.75l11.551,6.5"/>
		<path id="path4325" sodipodi:nodetypes="csssc" inkscape:connector-curvature="0" fill="#DC00DC" d="M134.549,242.644
			c2.25-15.5,7.25-20.75,11.75-20.5c4.5,0.251,7.25,10,5.25,21c-2,11-6.5,16.75-10.25,16.25
			C137.55,258.894,132.8,253.894,134.549,242.644L134.549,242.644z"/>
		
			<path id="path4327" sodipodi:nodetypes="csssc" inkscape:connector-curvature="0" fill="none" stroke="#9C5F19" stroke-width="4" d="
			M148.164,212.098c13.435,3.005,14.673,26.163,12.905,32.35c-1.768,6.187-9.193,25.279-20.86,23.865s-14.142-15.557-12.728-32.527
			C128.895,218.815,136.551,208.986,148.164,212.098z"/>
		
			<path id="path4329" sodipodi:nodetypes="ccc" inkscape:connector-curvature="0" fill="none" stroke="#9C5F19" stroke-width="4" d="
			M142.8,175.894c0,0,55.5,29,71,35c0,0,113.453,18,198.953,21"/>
		
			<path id="path4331" sodipodi:nodetypes="cccc" inkscape:connector-curvature="0" fill="none" stroke="#9C5F19" stroke-width="4" d="
			M223.8,347.895c0.5-23.001,6.5-26,6.5-26c-13.5-39.001-16.5-112.001-16.5-112.001s-6-12.5-5-27"/>
		
			<path id="path4333" sodipodi:nodetypes="ccc" inkscape:connector-curvature="0" fill="none" stroke="#9C5F19" stroke-width="4" d="
			M141.8,285.894c34.5,19,87.5,35,87.5,35s91.454,28.001,183.454,28.001"/>
		<path id="path4337" sodipodi:nodetypes="cssscc" inkscape:connector-curvature="0" fill="#DC00DC" d="M413.309,250.039
			c-34.647-0.707-91.217-5.657-132.229-10.96c-41.012-5.303-41.719,18.738-41.719,27.93c0,9.192-3.889,38.891,36.416,46.67
			c40.305,7.778,100.411,14.495,137.534,15.202L413.309,250.039z"/>
		<path id="path4335" sodipodi:nodetypes="csssscc" inkscape:connector-curvature="0" fill="#FF00FF" d="M413.309,270.546
			c0,0-29.345,0-55.155-1.768c-25.809-1.768-54.8-10.252-70.357-9.546c-15.556,0.707-22.274,11.668-20.506,20.153
			c1.768,8.485,7.425,14.496,30.052,17.679c22.628,3.182,69.651,10.253,115.966,11.313V270.546z"/>
		<path id="path4339" sodipodi:nodetypes="cszsczcc" inkscape:connector-curvature="0" fill="#E7C36E" d="M210.865,185.906
			c21.827,14.032,46.383,14.811,78.344,19.488c31.961,4.677,82.91,12.059,124.032,11.625c41.12-0.434,92.312-6.963,124.171-11.625
			c31.961-4.678,56.517-5.457,78.344-19.488c0,0-135.95,23.567-202.604,23.523C346.5,209.384,210.865,185.906,210.865,185.906
			L210.865,185.906z"/>
		<path id="path4339-4" sodipodi:nodetypes="cszsczc" inkscape:connector-curvature="0" fill="#E7C36E" d="M231.133,323.689
			c21.827,14.032,27.283,19.489,59.244,24.168c31.961,4.677,94.855,10.476,122.436,11.287c27.581,0.81,91.683-6.643,123.43-11.287
			c31.962-4.678,37.417-10.135,59.245-24.168c0,0-107.069,27.113-181.894,27.113C338.767,350.801,231.133,323.689,231.133,323.689z"
			/>
		<path id="path4362" sodipodi:nodetypes="cccc" inkscape:connector-curvature="0" fill="#E7C36E" d="M146.624,157.463
			c0,0,58.153,25.632,60.082,27.009v4.961c0,0-43.546-14.883-59.807-31.144"/>
		<path id="path4362-9" sodipodi:nodetypes="cccac" inkscape:connector-curvature="0" fill="#E7C36E" d="M143.592,289.204
			c32.9,16.69,81.028,31.97,82.958,33.349l-1.654,5.236c0,0-39.655-12.345-57.877-22.049
			C158.582,301.247,154.238,297.595,143.592,289.204z"/>
		<path id="path4379-5" sodipodi:nodetypes="csscscsc" inkscape:connector-curvature="0" fill="#E7C36E" d="M689.23,211.345
			c0,0-5.238-12.265-18.88-11.162c-13.642,1.103-30.729,9.233-33.762,29.352c-3.031,20.119-2.205,17.639-2.205,17.639
			s2.757-11.162,11.301-16.537c8.543-5.374,19.43-3.858,19.43-3.858s5.926-10.611,7.993-12.127
			C675.174,213.136,684.13,209.966,689.23,211.345z"/>
		
			<path id="path4360-9" sodipodi:nodetypes="cc" inkscape:connector-curvature="0" fill="none" stroke="#DC00DC" stroke-width="2" d="
			M621.155,272.805l-14.332,4.409"/>
		
			<path id="path4358-2" sodipodi:nodetypes="cccc" inkscape:connector-curvature="0" fill="none" stroke="#DC00DC" stroke-width="2" d="
			M642.065,273.605l-19.878,7.796l-1.17-15.982l-13.589,3.636"/>
		<path id="path4315-5" sodipodi:nodetypes="cscccc" inkscape:connector-curvature="0" fill="#C800C8" d="M611.665,212.948
			c0,0-2.12,32.526-4.95,51.619c-2.828,19.091-11.314,57.275-11.314,57.275s-90.167,27.578-182.092,27.578v-117.38
			C413.309,232.039,499.235,228.504,611.665,212.948z"/>
		<path id="path4356-7" sodipodi:nodetypes="csscsc" inkscape:connector-curvature="0" fill="#C1761F" d="M643.429,277.112
			c0,0,8.575,3.508,20.268,3.118c11.694-0.39,27.675-3.508,32.351-13.252c4.677-9.744-7.015,13.642-7.015,13.642
			s-18.709,10.134-28.843,9.744C650.056,289.975,643.429,277.112,643.429,277.112z"/>
		
			<path id="path4317-5" sodipodi:nodetypes="ccscssc" inkscape:connector-curvature="0" fill="none" stroke="#9C5F19" stroke-width="4" d="
			M659.571,292.395c0,0,35.999-4.751,37.249-25.001c3.75-6,5-18.25,4.001-27.749c-1.001-9.501-9.001-26.75-9.001-26.75
			s-5.749-17.75-26.749-13.501c-21,4.251-33.001,24-31.251,54.25C635.571,283.895,659.571,292.395,659.571,292.395z"/>
		
			<path id="path4319-0" sodipodi:nodetypes="csc" inkscape:connector-curvature="0" fill="none" stroke="#DC00DC" stroke-width="2" stroke-linecap="round" d="
			M681.02,282.614c0,0-24.199-18.109-26.199-29.11c-1.999-11-9.75-39.698,14.001-53.699"/>
		
			<path id="path4321-2" sodipodi:nodetypes="cccc" inkscape:connector-curvature="0" fill="none" stroke="#DC00DC" stroke-width="2" d="
			M654.321,253.254l-4.25,2.25l3,11.75l-11.551,6.5"/>
		<path id="path4325-8" sodipodi:nodetypes="csssc" inkscape:connector-curvature="0" fill="#DC00DC" d="M692.071,242.644
			c-2.251-15.5-7.25-20.75-11.75-20.5c-4.5,0.251-7.25,10-5.251,21c2,11,6.501,16.75,10.251,16.25
			C689.071,258.894,693.821,253.894,692.071,242.644z"/>
		
			<path id="path4327-3" sodipodi:nodetypes="csssc" inkscape:connector-curvature="0" fill="none" stroke="#9C5F19" stroke-width="4" d="
			M678.457,212.098c-13.436,3.005-14.673,26.163-12.905,32.35c1.768,6.187,9.192,25.279,20.859,23.865s14.142-15.557,12.729-32.527
			C697.725,218.815,690.069,208.986,678.457,212.098z"/>
		
			<path id="path4329-8" sodipodi:nodetypes="ccc" inkscape:connector-curvature="0" fill="none" stroke="#9C5F19" stroke-width="4" d="
			M683.821,175.894c0,0-55.5,29-70.999,35c0,0-114.419,18-199.918,21"/>
		
			<path id="path4331-5" sodipodi:nodetypes="cccc" inkscape:connector-curvature="0" fill="none" stroke="#9C5F19" stroke-width="4" d="
			M602.821,347.895c-0.501-23.001-6.501-26-6.501-26c13.5-39.001,16.501-112.001,16.501-112.001s6-12.5,4.999-27"/>
		
			<path id="path4333-0" sodipodi:nodetypes="ccc" inkscape:connector-curvature="0" fill="none" stroke="#9C5F19" stroke-width="4" d="
			M684.822,285.894c-34.5,19-87.5,35-87.5,35s-92.831,28.001-184.832,28.001"/>
		<path id="path4337-5" sodipodi:nodetypes="cssscc" inkscape:connector-curvature="0" fill="#DC00DC" d="M413.309,250.039
			c34.648-0.707,91.219-5.657,132.232-10.96c41.011-5.303,41.719,18.738,41.719,27.93c0,9.192,3.888,38.891-36.416,46.67
			c-40.305,7.778-100.41,14.495-137.535,15.202V250.039z"/>
		<path id="path4335-4" sodipodi:nodetypes="csssscc" inkscape:connector-curvature="0" fill="#FF00FF" d="M413.309,270.546
			c0,0,29.347,0,55.156-1.768c25.811-1.768,54.8-10.252,70.358-9.546c15.555,0.707,22.272,11.668,20.505,20.153
			c-1.768,8.485-7.425,14.496-30.052,17.679c-22.628,3.181-69.653,10.253-115.968,11.313V270.546z"/>
		<path id="path4362-5" sodipodi:nodetypes="cccc" inkscape:connector-curvature="0" fill="#E7C36E" d="M679.996,157.463
			c0,0-58.153,25.632-60.082,27.009v4.961c0,0,43.547-14.883,59.808-31.144"/>
		<path id="path4362-9-6" sodipodi:nodetypes="cccac" inkscape:connector-curvature="0" fill="#E7C36E" d="M683.029,289.204
			c-32.9,16.69-81.029,31.97-82.958,33.349l1.653,5.236c0,0,39.656-12.345,57.879-22.049
			C668.039,301.247,672.383,297.595,683.029,289.204z"/>
	</g>
</g>
</svg>
