<?xml version="1.0" encoding="utf-8"?>
<!-- Generator: Adobe Illustrator 16.0.0, SVG Export Plug-In . SVG Version: 6.00 Build 0)  -->
<!DOCTYPE svg PUBLIC "-//W3C//DTD SVG 1.1//EN" "http://www.w3.org/Graphics/SVG/1.1/DTD/svg11.dtd">
<svg version="1.1"
	 id="svg12211" xmlns:dc="http://purl.org/dc/elements/1.1/" xmlns:cc="http://creativecommons.org/ns#" xmlns:rdf="http://www.w3.org/1999/02/22-rdf-syntax-ns#" xmlns:svg="http://www.w3.org/2000/svg" xmlns:sodipodi="http://sodipodi.sourceforge.net/DTD/sodipodi-0.dtd" xmlns:inkscape="http://www.inkscape.org/namespaces/inkscape" inkscape:export-ydpi="72.021774" inkscape:export-xdpi="72.021774" inkscape:export-filename="C:\Users\Zealotlee\Dropbox\Small Projects\Steves Fuzzballs\fuschia-fuzzle.png" sodipodi:docname="acc-eyes-sunglasses.svg" inkscape:version="0.91 r13725"
	 xmlns="http://www.w3.org/2000/svg" xmlns:xlink="http://www.w3.org/1999/xlink" x="0px" y="0px" width="349.791px"
	 height="102.706px" viewBox="96.094 207.91 349.791 102.706" enable-background="new 96.094 207.91 349.791 102.706"
	 xml:space="preserve">
<sodipodi:namedview  showguides="true" showgrid="false" inkscape:cy="193.02625" inkscape:cx="369.48506" inkscape:zoom="0.71220416" borderopacity="1.0" bordercolor="#666666" pagecolor="#ffffff" id="base" inkscape:window-maximized="1" inkscape:window-y="-8" inkscape:window-x="-8" inkscape:window-height="988" inkscape:window-width="1680" inkscape:pageshadow="2" inkscape:current-layer="layer1" inkscape:pageopacity="0.0" inkscape:document-units="px">
	</sodipodi:namedview>
<g id="layer1" transform="translate(0,-540.36218)" inkscape:label="Layer 1" inkscape:groupmode="layer">
	<g id="g5898" transform="translate(-216.23013,-148.83373)">
		<path id="path4305-8" inkscape:connector-curvature="0" fill="#FF00FF" stroke="#DC00DC" stroke-width="2.0651" d="
			M408.208,898.139c-27.919,0-78.316,18.304-80.071,18.944h-14.592c0,0,3.306-0.15,6.011,1.803c0,0-6.762,0.752-6.161,4.208
			l14.768,0.281l0.004,0.058c0,0,3.464,0.348,3.118,3.466c-0.347,3.119,3.812,44.699,15.246,57.866
			c11.435,13.167,21.831,13.86,29.8,13.86c23.563,0,64.103,1.386,75.884-4.158s22.524-12.82,25.296-23.215
			c2.771-10.396,5.543-22.523,5.889-24.603c0.348-2.079,0.331-4.504,4.025-4.504c3.693,0,3.678,2.425,4.023,4.504
			c0.348,2.079,3.118,14.207,5.891,24.603c2.771,10.395,13.514,17.671,25.295,23.215c11.781,5.544,52.322,4.158,75.885,4.158
			c7.97,0,18.365-0.693,29.801-13.86c11.435-13.167,15.593-54.748,15.246-57.866c-0.347-3.118,3.117-3.465,3.117-3.465v-0.067
			l14.361-0.273c0.602-3.456-6.161-4.208-6.161-4.208c2.705-1.953,6.011-1.803,6.011-1.803h-14.187
			c-1.755-0.64-52.151-18.944-80.071-18.944c-28.413,0-61.331,15.247-66.182,18.365c-4.852,3.119-0.348,6.583-13.033,6.583
			c-12.688,0-8.183-3.465-13.033-6.583c-4.852-3.119-37.77-18.365-66.183-18.365H408.208z"/>
		<path id="path4331-34" sodipodi:nodetypes="csssssssc" inkscape:connector-curvature="0" fill="#2F363A" d="M338.907,935.215
			c-2.772-8.663-1.386-10.395,2.772-12.127c4.158-1.733,48.511-16.286,68.262-16.286s55.441,11.088,61.678,18.365
			c6.237,7.277,4.158,16.286,2.426,25.295c-1.732,9.009-5.198,38.809-37.77,41.58c-9.72,0.828-58.514,3.63-72.347-2.429
			c-6.387-2.798-17.745-17.321-20.864-32.222C339.946,942.492,338.907,935.215,338.907,935.215L338.907,935.215z"/>
		<path id="path4333-5" sodipodi:nodetypes="ssss" inkscape:connector-curvature="0" fill="#424C52" d="M412.739,925.486
			c-9.409-25.327,64.554,1.32,44.475,16.227c-9.587,7.117-18.134-10.217-32.154-10.217
			C418.614,931.496,412.739,925.486,412.739,925.486z"/>
		<path id="path4335-3" sodipodi:nodetypes="zsz" inkscape:connector-curvature="0" fill="#424C52" d="M365.56,959.442
			c9.608-4.619,42.74,34.743,5.709,16.229C364.047,972.059,355.951,964.062,365.56,959.442z"/>
		<path id="path4331-3-6" sodipodi:nodetypes="csssssssc" inkscape:connector-curvature="0" fill="#2F363A" d="M635.747,935.215
			c2.772-8.663,1.386-10.395-2.771-12.127c-4.158-1.733-48.511-16.286-68.263-16.286c-19.75,0-55.441,11.088-61.678,18.365
			c-6.237,7.277-4.158,16.286-2.426,25.295c1.732,9.009,5.197,38.809,37.77,41.58c9.721,0.828,58.514,3.63,72.347-2.429
			c6.388-2.798,17.745-17.321,20.863-32.222C634.708,942.492,635.747,935.215,635.747,935.215z"/>
		<path id="path4333-2-2" sodipodi:nodetypes="ssss" inkscape:connector-curvature="0" fill="#424C52" d="M571.705,925.486
			c-9.408-25.327,64.555,1.32,44.475,16.227c-9.586,7.117-18.134-10.217-32.154-10.217
			C577.58,931.496,571.705,925.486,571.705,925.486L571.705,925.486z"/>
		<path id="path4335-9-8" sodipodi:nodetypes="zsz" inkscape:connector-curvature="0" fill="#424C52" d="M524.526,959.442
			c9.608-4.619,42.74,34.743,5.71,16.229C523.013,972.059,514.918,964.062,524.526,959.442z"/>
	</g>
</g>
</svg>
