<?xml version="1.0" encoding="utf-8"?>
<!-- Generator: Adobe Illustrator 16.0.0, SVG Export Plug-In . SVG Version: 6.00 Build 0)  -->
<!DOCTYPE svg PUBLIC "-//W3C//DTD SVG 1.1//EN" "http://www.w3.org/Graphics/SVG/1.1/DTD/svg11.dtd">
<svg version="1.1"
	 id="svg12211" xmlns:inkscape="http://www.inkscape.org/namespaces/inkscape" xmlns:sodipodi="http://sodipodi.sourceforge.net/DTD/sodipodi-0.dtd" xmlns:svg="http://www.w3.org/2000/svg" xmlns:rdf="http://www.w3.org/1999/02/22-rdf-syntax-ns#" xmlns:cc="http://creativecommons.org/ns#" xmlns:dc="http://purl.org/dc/elements/1.1/" sodipodi:docname="acc-hat-ballcap.svg" inkscape:export-filename="C:\Users\Zealotlee\Dropbox\Small Projects\Steves Fuzzballs\fuschia-fuzzle.png" inkscape:export-xdpi="72.021774" inkscape:export-ydpi="72.021774" inkscape:version="0.91 r13725"
	 xmlns="http://www.w3.org/2000/svg" xmlns:xlink="http://www.w3.org/1999/xlink" x="0px" y="0px" width="391.881px"
	 height="224.837px" viewBox="73.929 136.292 391.881 224.837" enable-background="new 73.929 136.292 391.881 224.837"
	 xml:space="preserve">
<sodipodi:namedview  showguides="true" showgrid="false" inkscape:cy="171.5403" inkscape:cx="385.24156" inkscape:zoom="1.4142136" borderopacity="1.0" bordercolor="#666666" pagecolor="#ffffff" id="base" inkscape:document-units="px" inkscape:window-height="988" inkscape:pageopacity="0.0" inkscape:window-x="-8" inkscape:current-layer="layer1" inkscape:window-y="-8" inkscape:window-width="1680" inkscape:pageshadow="2" inkscape:window-maximized="1">
	</sodipodi:namedview>
<path fill="#DC00DC" stroke="#C800C8" stroke-width="5" stroke-miterlimit="10" d="M87.719,347.905c0,0,40.651-9.008,57.507-27.996
	c16.855-18.986,93.736-34.306,134.883-32.494c41.146,1.811,114.352,16.403,131.334,32.494c16.98,16.09,26.859,24.053,38.246,35.365
	c11.385,11.311,7.867-8.645,11.396-20.373c2.303-7.66,8.855-83.279-21.385-111.63c-30.242-28.351-54.037-82.926-166.572-81.507
	c-104.119,1.313-130.223,29.209-152.194,49.021c-19.626,17.697-50.071,58.438-43.626,92.416
	C83.754,317.178,84.745,341.727,87.719,347.905z"/>
<path fill="none" stroke="#C800C8" stroke-width="5" stroke-miterlimit="10" d="M82.869,318.635c0,0,86.116-63.168,179.684-63.273
	c96.506-0.109,132.221,4.879,198.532,82.811"/>
<path fill="#C800C8" d="M86.658,312.37c0,0,2.499,21.252,5.671,32.465s3.776-2.971,2.88-6.66
	c-0.896-3.688-3.092-19.357-4.524-23.199C89.253,311.135,86.658,312.37,86.658,312.37z"/>
<path fill="#C800C8" d="M94.59,308.827c0,0,2.499,21.252,5.671,32.465c3.172,11.213,3.776-2.971,2.88-6.66
	c-0.896-3.688-3.092-19.357-4.524-23.199C97.185,307.59,94.59,308.827,94.59,308.827z"/>
<path fill="#C800C8" d="M103.514,305.284c0,0,2.499,21.252,5.671,32.465s3.776-2.973,2.88-6.66s-3.092-19.359-4.524-23.201
	C106.108,304.047,103.514,305.284,103.514,305.284z"/>
<path fill="#C800C8" d="M113.874,300.379c0,0,2.499,21.252,5.671,32.465s3.776-2.971,2.88-6.66
	c-0.896-3.688-3.092-19.357-4.524-23.199C116.469,299.145,113.874,300.379,113.874,300.379z"/>
<path fill="#C800C8" d="M125.424,292.652c0,0,2.499,21.253,5.671,32.466c3.172,11.213,3.776-2.975,2.88-6.66
	c-0.896-3.689-3.092-19.359-4.524-23.201C128.018,291.417,125.424,292.652,125.424,292.652z"/>
<path fill="#C800C8" d="M137.724,284.924c0,0,2.499,21.252,5.671,32.465c3.172,11.211,3.776-2.973,2.88-6.66
	s-3.092-19.357-4.524-23.199S137.724,284.924,137.724,284.924z"/>
<path fill="#C800C8" d="M153.701,277.375c0,0,1.302,19.988,3.955,30.803c2.653,10.816,4.193-2.195,3.477-5.73
	c-0.716-3.535-2.051-18.326-3.327-22.08C156.531,276.611,153.701,277.375,153.701,277.375z"/>
<path fill="#C800C8" d="M167.86,271.191c0,0,1.174,19.795,3.685,30.488c2.511,10.69,4.046-2.216,3.371-5.712
	c-0.675-3.497-1.902-18.141-3.115-21.85C170.588,270.409,167.86,271.191,167.86,271.191z"/>
<path fill="#C800C8" d="M265.208,252.668c0,0-0.809,20.869,0.656,32.363c1.463,11.493,4.314-1.843,3.984-5.585
	c-0.332-3.741-0.098-19.223-0.951-23.25C268.046,252.17,265.208,252.668,265.208,252.668z"/>
<path fill="#C800C8" d="M207.815,258.854c0,0-0.808,20.869,0.656,32.363c1.463,11.494,4.315-1.842,3.985-5.584
	c-0.332-3.742-0.097-19.225-0.951-23.252C210.654,258.354,207.815,258.854,207.815,258.854z"/>
<path fill="#C800C8" d="M235.889,255.379c0,0-0.808,20.871,0.655,32.365s4.316-1.843,3.985-5.584
	c-0.331-3.742-0.096-19.226-0.95-23.252C238.728,254.881,235.889,255.379,235.889,255.379z"/>
<path fill="#C800C8" d="M222.421,258.814c0,0-1.346,20.011-0.25,31.088c1.098,11.08,4.213-1.635,3.996-5.237
	c-0.217-3.602,0.432-18.457-0.281-22.349C225.173,258.422,222.421,258.814,222.421,258.814z"/>
<path fill="#C800C8" d="M249.806,252.668c0,0-0.807,20.869,0.656,32.363c1.463,11.493,4.315-1.843,3.984-5.585
	c-0.33-3.741-0.096-19.223-0.949-23.25C252.645,252.17,249.806,252.668,249.806,252.668z"/>
<path fill="#C800C8" d="M192.534,262.859c0,0,0.743,20.873,3.053,32.168c2.31,11.298,4.163-2.288,3.556-5.981
	c-0.606-3.691-1.521-19.139-2.67-23.062C195.325,262.063,192.534,262.859,192.534,262.859z"/>
<path fill="#C800C8" d="M178.213,268.836c0,0,1.896,19.572,4.749,30.026s3.859-2.45,3.068-5.879
	c-0.791-3.428-2.543-17.885-3.865-21.489C180.841,267.889,178.213,268.836,178.213,268.836z"/>
<path fill="#C800C8" d="M277.977,252.668c0,0-0.808,20.869,0.655,32.363c1.464,11.493,4.316-1.843,3.986-5.585
	c-0.332-3.741-0.098-19.223-0.951-23.25C280.816,252.17,277.977,252.668,277.977,252.668z"/>
<path fill="#C800C8" d="M293.083,252.668c0,0-0.807,20.869,0.656,32.363c1.463,11.493,4.316-1.843,3.986-5.585
	c-0.332-3.741-0.098-19.223-0.951-23.25C295.923,252.17,293.083,252.668,293.083,252.668z"/>
<path fill="#C800C8" d="M306.878,255.379c0,0-0.807,20.871,0.656,32.365s4.316-1.843,3.984-5.584
	c-0.33-3.742-0.096-19.226-0.949-23.252C309.716,254.881,306.878,255.379,306.878,255.379z"/>
<path fill="#C800C8" d="M323.811,255.379c0,0-0.808,20.871,0.655,32.365c1.464,11.493,4.316-1.843,3.984-5.584
	c-0.33-3.742-0.096-19.226-0.949-23.252C326.646,254.881,323.811,255.379,323.811,255.379z"/>
<path fill="#C800C8" d="M340.998,258.854c0,0-0.807,20.869,0.656,32.363s4.316-1.842,3.986-5.584
	c-0.332-3.742-0.098-19.225-0.951-23.252C343.837,258.354,340.998,258.854,340.998,258.854z"/>
<path fill="#C800C8" d="M358.727,262.586c0,0-3.185,20.545-3.05,32.168c0.136,11.625,4.486-1.125,4.587-4.885
	c0.101-3.761,2.103-19.06,1.717-23.188C361.596,262.551,358.727,262.586,358.727,262.586z"/>
<path fill="#C800C8" d="M373.4,266.885c0,0-3.186,20.547-3.051,32.17c0.137,11.625,4.486-1.125,4.588-4.885
	c0.1-3.762,2.102-19.062,1.717-23.189C376.27,266.854,373.4,266.885,373.4,266.885z"/>
<path fill="#C800C8" d="M386.158,271.411c0,0-3.186,20.545-3.051,32.17c0.137,11.625,4.488-1.125,4.588-4.886
	c0.1-3.76,2.102-19.062,1.717-23.188C389.027,271.377,386.158,271.411,386.158,271.411z"/>
<path fill="#C800C8" d="M397.158,278.563c0,0-2.908,17.898-2.902,28.002c0.004,10.102,3.83-1.039,3.951-4.311
	c0.121-3.271,1.971-16.594,1.684-20.178C399.601,278.495,397.158,278.563,397.158,278.563z"/>
<path fill="#C800C8" d="M410.984,287.176c0,0-5.029,17.219-6.238,27.217s3.916-0.375,4.43-3.59
	c0.512-3.217,3.945-16.088,4.09-19.684C413.412,287.525,410.984,287.176,410.984,287.176z"/>
<path fill="#C800C8" d="M419.695,293.793c0,0-5.029,17.219-6.238,27.217s3.916-0.375,4.428-3.59
	c0.516-3.217,3.947-16.088,4.092-19.685C422.121,294.143,419.695,293.793,419.695,293.793z"/>
<path fill="#C800C8" d="M428.404,301.814c0,0-5.029,17.22-6.238,27.218c-1.209,10,3.916-0.373,4.43-3.59s3.945-16.086,4.09-19.684
	C430.83,302.165,428.404,301.814,428.404,301.814z"/>
<path fill="#C800C8" d="M436.335,308.903c0,0-5.029,17.219-6.238,27.217s3.916-0.375,4.432-3.59
	c0.512-3.217,3.943-16.088,4.09-19.686C438.761,309.252,436.335,308.903,436.335,308.903z"/>
<path fill="#C800C8" d="M442.728,316.747c0,0-4.627,16.146-5.689,25.543c-1.064,9.396,3.713-0.305,4.172-3.326
	c0.459-3.02,3.609-15.094,3.717-18.477C445.035,317.106,442.728,316.747,442.728,316.747z"/>
<path fill="#C800C8" d="M447.687,322.653c0,0-4.629,16.146-5.691,25.543c-1.064,9.396,3.715-0.307,4.174-3.326
	c0.459-3.021,3.609-15.094,3.717-18.479C449.994,323.012,447.687,322.653,447.687,322.653z"/>
<path fill="#C800C8" d="M453.636,328.559c0,0-4.629,16.148-5.691,25.543c-1.064,9.396,3.715-0.305,4.174-3.324
	c0.459-3.021,3.607-15.096,3.717-18.479C455.945,328.918,453.636,328.559,453.636,328.559z"/>
<path fill="#FF00FF" stroke="#DC00DC" stroke-width="5" stroke-miterlimit="10" d="M287.346,139.236
	c-40.28-1.991-88.427,2.332-97.066,20.966c-8.639,18.633-3.54,44.822,41.255,48.562c44.793,3.739,135.918,3.737,175.129,31.497
	c39.211,27.762,49.787,12.389,27.967-22.221c-20.252-32.119-56.092-53.479-81.914-66.422
	C326.895,138.672,292.457,139.489,287.346,139.236z"/>
<path fill="#DC00DC" d="M197.775,210.277c0.805-17.543,43.691-15.545,53.053-16.021c18.93-0.963,38.105-2.025,56.853,1.875
	c-15.285-9.528-33.3-12.159-50.289-12.322c-30.226-0.29-59.272-3.438-87.378,12.293"/>
<path fill="#DC00DC" d="M451.103,268.159c-5.145-15.566-15.977-27.546-26.113-38.712c-10.002-11.015-20.176-13.864-32.789-17.84
	c5.771,15.774,22.002,18.955,30.283,32.22c6.291,10.075,9.625,24.303,10.773,36.735"/>
<path fill="#C800C8" d="M89.303,291.168c6.961-6.562,14.046-13.035,24.666-17.697c9.213-4.045,19.754-7.248,29.822-9.973
	c9.462-2.56,22.354-3.332,29.946-8.572c-5.497,5.367-17.436,9.865-26.014,13.145c-8.037,3.074-16.553,5.162-24.779,7.908
	c-13.029,4.35-23.615,10.016-33.887,16.773"/>
<path fill="#DC00DC" d="M299.947,182.252c8.809-1.308,17.686-2.465,28.795,0.113c9.637,2.235,20.045,6.012,29.838,9.904
	c9.203,3.659,20.562,10.967,29.334,11.18c-7.037,1.19-19.201-2.344-27.963-4.841c-8.211-2.339-16.4-5.817-24.627-8.553
	c-13.033-4.334-24.551-6.032-36.275-6.603"/>
</svg>
