<?xml version="1.0" encoding="utf-8"?>
<!-- Generator: Adobe Illustrator 16.0.0, SVG Export Plug-In . SVG Version: 6.00 Build 0)  -->
<!DOCTYPE svg PUBLIC "-//W3C//DTD SVG 1.1//EN" "http://www.w3.org/Graphics/SVG/1.1/DTD/svg11.dtd">
<svg version="1.1"
	 id="svg12211" xmlns:inkscape="http://www.inkscape.org/namespaces/inkscape" xmlns:sodipodi="http://sodipodi.sourceforge.net/DTD/sodipodi-0.dtd" xmlns:svg="http://www.w3.org/2000/svg" xmlns:rdf="http://www.w3.org/1999/02/22-rdf-syntax-ns#" xmlns:cc="http://creativecommons.org/ns#" xmlns:dc="http://purl.org/dc/elements/1.1/" sodipodi:docname="acc-face-mustache.svg" inkscape:export-filename="C:\Users\Zealotlee\Dropbox\Small Projects\Steves Fuzzballs\fuschia-fuzzle.png" inkscape:export-xdpi="72.021774" inkscape:export-ydpi="72.021774" inkscape:version="0.91 r13725"
	 xmlns="http://www.w3.org/2000/svg" xmlns:xlink="http://www.w3.org/1999/xlink" x="0px" y="0px" width="408.761px"
	 height="199.972px" viewBox="47.536 154.328 408.761 199.972" enable-background="new 47.536 154.328 408.761 199.972"
	 xml:space="preserve">
<sodipodi:namedview  showguides="true" showgrid="false" inkscape:cy="193.02625" inkscape:cx="369.48506" inkscape:zoom="0.71220416" borderopacity="1.0" bordercolor="#666666" pagecolor="#ffffff" id="base" inkscape:document-units="px" inkscape:window-height="988" inkscape:pageopacity="0.0" inkscape:window-x="-8" inkscape:current-layer="layer1" inkscape:window-y="-8" inkscape:window-width="1680" inkscape:pageshadow="2" inkscape:window-maximized="1">
	</sodipodi:namedview>
<path fill="none" stroke="#C800C8" stroke-width="7" stroke-linejoin="round" stroke-miterlimit="10" d="M246.955,176.665
	c0,0,0.998-5.657,7.392-10.017c6.396-4.36,4.651,12.779,0,15.546C249.696,184.96,246.412,179.529,246.955,176.665z"/>
<path fill="#DC00DC" stroke="#C800C8" stroke-width="5" stroke-linejoin="round" stroke-miterlimit="10" d="M65.564,318.193
	c0,0,34.648-16.348,73.148-19.83c38.5-3.481,165.101,18.396,210.05,38.708c44.95,20.311,57.95,14.907,88.45,11.108
	c30.5-3.798,11.137-30.298,3.068-46.798c-8.07-16.5-27.068-30.5-43.068-50s-72.188-57-102.344-63
	c-29.299-5.828-143.966-30.986-172.157-31.5c-27.5-0.5-32.5,2.5-43.5,9.5s-29,39.5-29,68.5S47.254,300.533,65.564,318.193z"/>
<path fill="none" stroke="#C800C8" stroke-width="5" stroke-linejoin="round" stroke-miterlimit="10" d="M227.205,174.449
	c0,0,42.639,18.862,57.322,37.397c14.684,18.534,60.684,28.534,80.684,31.034s23.873-0.084,34.463,11.433"/>
<path fill="#FF00FF" d="M260.587,184.382c8.562,0.188,15.853,2.813,24.259,4.039c7.801,1.14,15.42,4.13,22.758,6.945
	c7.388,2.835,15.877,6.085,22.733,10.016c7.998,4.584,13.664,7.908,21.5,12.75c5.41,3.344,12.498,7.78,17.634,11.554
	c3.709,2.726,6.014,5.581,9.241,7.821c-6.448,5.364-13.764,0.944-21.215-1.085c-9.729-2.649-19.289-6.287-28.455-10.482
	c-20.268-9.279-38.758-21.486-57.371-33.614c-3.723-2.426-7.325-3.286-9.334-7.443"/>
<path fill="#FF00FF" d="M403.712,265.882c-17.768-15.742-37.588-18.647-60.328-22.804c-29.145-5.326-54.793-15.813-76.362-36.535
	c-14.519-13.945-24.729-24.152-45.086-28.095c-30.268-5.86-61.111-11.864-91.784-14.966c-24.379-2.465-50.631-3.377-61.764,21.935
	c45.739-24.415,101.664-10.898,145.216,12.395c14.453,7.729,27.706,17.242,40.081,27.962c9.996,8.658,19.482,18.67,31.443,24.651
	c25.955,12.979,57.854,4.482,85.451,11.566c23.871,6.127,40.625,23.833,61.168,36.202c0.09-13.387-20.334-19.146-23.607-31.229
	c-1.029-0.473-1.814-1.24-2.928-1.584"/>
</svg>
