<?xml version="1.0" encoding="utf-8"?>
<!-- Generator: Adobe Illustrator 16.0.0, SVG Export Plug-In . SVG Version: 6.00 Build 0)  -->
<!DOCTYPE svg PUBLIC "-//W3C//DTD SVG 1.1//EN" "http://www.w3.org/Graphics/SVG/1.1/DTD/svg11.dtd">
<svg version="1.1"
	 id="svg12211" xmlns:inkscape="http://www.inkscape.org/namespaces/inkscape" xmlns:sodipodi="http://sodipodi.sourceforge.net/DTD/sodipodi-0.dtd" xmlns:svg="http://www.w3.org/2000/svg" xmlns:rdf="http://www.w3.org/1999/02/22-rdf-syntax-ns#" xmlns:cc="http://creativecommons.org/ns#" xmlns:dc="http://purl.org/dc/elements/1.1/" sodipodi:docname="acc-hat-ballcap.svg" inkscape:export-filename="C:\Users\Zealotlee\Dropbox\Small Projects\Steves Fuzzballs\fuschia-fuzzle.png" inkscape:export-xdpi="72.021774" inkscape:export-ydpi="72.021774" inkscape:version="0.91 r13725"
	 xmlns="http://www.w3.org/2000/svg" xmlns:xlink="http://www.w3.org/1999/xlink" x="0px" y="0px" width="365.323px"
	 height="227.271px" viewBox="74.612 142.973 365.323 227.271" enable-background="new 74.612 142.973 365.323 227.271"
	 xml:space="preserve">
<sodipodi:namedview  showguides="true" showgrid="false" inkscape:cy="171.5403" inkscape:cx="385.24156" inkscape:zoom="1.4142136" borderopacity="1.0" bordercolor="#666666" pagecolor="#ffffff" id="base" inkscape:document-units="px" inkscape:window-height="988" inkscape:pageopacity="0.0" inkscape:window-x="-8" inkscape:current-layer="layer1" inkscape:window-y="-8" inkscape:window-width="1680" inkscape:pageshadow="2" inkscape:window-maximized="1">
	</sodipodi:namedview>
<path fill="#4F5363" stroke="#33363D" stroke-width="5" stroke-miterlimit="10" d="M255.421,334.328
	c104.121,10.347,151.547,3.377,168.479-1.314c16.928-4.688,15.15,13.189,9.791,19.029s-44.186,24.286-178.107,10.979
	c-133.923-13.31-150.835-30.923-167.54-38.425s-12.269-31.517-0.041-26.305S156.889,324.536,255.421,334.328z"/>
<path fill="#4F5363" stroke="#33363D" stroke-width="5" stroke-miterlimit="10" d="M115.656,307.992
	c0,0-0.395-102.302,53.847-140.458c31.814-18.979,50.277-25.806,107.506-20.118c57.229,5.687,85.104,24.028,103.117,48.028
	c18.012,24,31.512,74.227,17.453,140.563c-19.789,3.062-58.664,4.493-141.061-3.695
	C174.122,324.124,115.656,307.992,115.656,307.992z"/>
<path fill="#444751" stroke="#33363D" stroke-width="5" stroke-miterlimit="10" d="M120.896,258.572
	c0,0,60.225,23.453,139.354,31.316c79.129,7.862,126.354,0.566,141.893-4.262c-0.109,22.509-2.793,43.243-4.586,50.599
	c0,0-62.749,6.478-141.773-1.377c-79.024-7.853-123.25-23.398-140.781-29.521C116.983,283.219,120.896,258.572,120.896,258.572z"/>
<path fill="#5D6172" d="M331.305,163.278c37.551,16.868,62.403,57.581,68.62,117.667c-17.038,5.25-13.815,6.933-56.538,7.75
	c3.602-30-58.277-129-158.25-126.5C229.638,135.945,310.805,154.07,331.305,163.278z"/>
<path fill="#5D6172" d="M419.138,338.422c14.297-4.129,14.332,6.689,11.666,9.689c-4.666,1-16.666-5-31-1.333
	c-14.331,3.667-82.999,3.279-149.999-2.359c-67-5.641-84-16.307-87.333-19.641c-3.333-3.333,27.667,8.583,84.667,13.958
	C304.139,344.113,396.562,344.944,419.138,338.422z"/>
<path fill="#4F5363" d="M344.139,295.695c0,0,2,25.976,0,40.986c19.75-0.485,48.75-2.735,48.75-2.735s4.55-21.104,4.999-43.251
	C386.889,292.695,346.139,295.945,344.139,295.695z"/>
</svg>
