<?xml version="1.0" encoding="utf-8"?>
<!-- Generator: Adobe Illustrator 16.0.0, SVG Export Plug-In . SVG Version: 6.00 Build 0)  -->
<!DOCTYPE svg PUBLIC "-//W3C//DTD SVG 1.1//EN" "http://www.w3.org/Graphics/SVG/1.1/DTD/svg11.dtd">
<svg version="1.1"
	 id="svg12211" xmlns:dc="http://purl.org/dc/elements/1.1/" xmlns:cc="http://creativecommons.org/ns#" xmlns:rdf="http://www.w3.org/1999/02/22-rdf-syntax-ns#" xmlns:svg="http://www.w3.org/2000/svg" xmlns:sodipodi="http://sodipodi.sourceforge.net/DTD/sodipodi-0.dtd" xmlns:inkscape="http://www.inkscape.org/namespaces/inkscape" inkscape:export-ydpi="72.021774" inkscape:export-xdpi="72.021774" inkscape:export-filename="C:\Users\Zealotlee\Dropbox\Small Projects\Steves Fuzzballs\fuschia-fuzzle.png" sodipodi:docname="acc-face-mustache.svg" inkscape:version="0.91 r13725"
	 xmlns="http://www.w3.org/2000/svg" xmlns:xlink="http://www.w3.org/1999/xlink" x="0px" y="0px" width="349.529px"
	 height="344.42px" viewBox="79.265 84.22 349.529 344.42" enable-background="new 79.265 84.22 349.529 344.42"
	 xml:space="preserve">
<sodipodi:namedview  showguides="true" showgrid="false" inkscape:cy="193.02625" inkscape:cx="369.48506" inkscape:zoom="0.71220416" borderopacity="1.0" bordercolor="#666666" pagecolor="#ffffff" id="base" inkscape:window-maximized="1" inkscape:window-y="-8" inkscape:window-x="-8" inkscape:window-height="988" inkscape:window-width="1680" inkscape:pageshadow="2" inkscape:current-layer="layer1" inkscape:pageopacity="0.0" inkscape:document-units="px">
	</sodipodi:namedview>
<path fill="#F2F2F2" stroke="#D3D3D3" stroke-width="5" stroke-miterlimit="10" d="M349.48,356.592
	c0,0,38.097-53.223,58.483-100.935c20.387-47.712,25.617-79.921,6.198-107.446s-47.303-19.78-62.323-18.491
	c0,0-9.231-20.262-40.834-25.902c-31.603-5.639-47.415-0.286-54.801,5.13c-20.064-13.409-44.75-16.644-74.667-9.296
	c-30.325-14.884-35.406-15.876-55.879-8.267c-20.473,7.609-42.682,34.922-43.847,67.924s20.249,120.518,18.11,161.242
	C97.782,361.275,327.841,368.72,349.48,356.592z"/>
<path fill="#F2F2F2" stroke="#D3D3D3" stroke-width="5" stroke-linejoin="round" stroke-miterlimit="10" d="M89.247,375.251
	c0,0,94.192,9.612,260.785,50.89c0,0-7.312-44.471-0.421-70.228c-73.104-15.594-175.627-35.866-248.377-42.091
	C97.861,336.545,98.752,364.352,89.247,375.251z"/>
<g>
	<path fill="#F2F2F2" d="M255.287,108.241c17.447,11.275,25.889,39.16,27.66,58.564c1.186,12.998-0.568,26.869-1.949,39.811
		c-0.821,7.696-3.354,15.957-3.109,23.657"/>
	<path fill="#D3D3D3" d="M256.755,106.218c0,0,0.407,0.308,1.169,0.885c0.764,0.602,1.877,1.321,3.316,2.73
		c0.357,0.331,0.732,0.68,1.127,1.046c0.398,0.364,0.809,0.748,1.167,1.176c0.75,0.843,1.56,1.755,2.427,2.729
		c0.781,1.032,1.612,2.131,2.488,3.289c0.783,1.211,1.609,2.484,2.47,3.813c0.759,1.381,1.604,2.791,2.369,4.301
		c0.716,1.532,1.563,3.067,2.224,4.733c0.348,0.824,0.702,1.659,1.062,2.505c0.349,0.848,0.649,1.727,0.981,2.604
		c0.682,1.748,1.239,3.577,1.836,5.427c1.116,3.72,2.139,7.599,2.896,11.595c0.795,3.987,1.404,8.075,1.745,12.192l0.138,1.573
		l0.068,1.528l0.136,3.05c0.004,2.055,0.026,4.125-0.041,6.146c-0.147,4.044-0.414,8.009-0.815,11.824
		c-0.363,3.82-0.828,7.493-1.262,10.974c-0.445,3.472-0.822,6.78-1.343,9.802c-0.538,3.038-1.138,5.767-1.617,8.208
		c-0.478,2.436-0.827,4.571-1.054,6.338c-0.088,0.887-0.167,1.678-0.236,2.367c-0.064,0.689-0.05,1.279-0.074,1.756
		c-0.027,0.956-0.043,1.466-0.043,1.466s-0.005-0.51-0.013-1.466c0.006-0.478-0.032-1.07,0.006-1.763
		c0.042-0.693,0.091-1.49,0.146-2.382c0.16-1.781,0.429-3.937,0.814-6.397c0.385-2.455,0.885-5.228,1.299-8.234
		c0.402-3.027,0.65-6.321,0.963-9.818c0.299-3.491,0.623-7.17,0.838-10.977c0.254-3.805,0.365-7.738,0.358-11.723
		c-0.009-1.993-0.108-3.971-0.186-5.976l-0.253-3.042l-0.127-1.524l-0.188-1.468c-0.483-4-1.233-7.97-2.157-11.825
		c-0.888-3.866-2.029-7.6-3.246-11.16c-0.646-1.767-1.252-3.516-1.975-5.172c-0.352-0.831-0.672-1.667-1.038-2.468
		c-0.375-0.797-0.745-1.584-1.11-2.36c-0.69-1.573-1.556-2.996-2.289-4.426c-0.779-1.403-1.629-2.697-2.389-3.971
		c-0.849-1.208-1.662-2.365-2.438-3.466c-0.848-1.034-1.65-2.015-2.404-2.937c-0.818-0.852-1.586-1.65-2.295-2.388
		c-0.348-0.387-0.705-0.692-1.048-0.978c-0.339-0.293-0.663-0.572-0.97-0.837c-1.133-1.079-2.406-1.862-3.167-2.413
		c-0.784-0.547-1.202-0.839-1.202-0.839L256.755,106.218z"/>
</g>
<g>
	<path fill="#F2F2F2" d="M351.021,128.505c1.685,10.484,9.516,18.78,11.596,29.147c2.662,13.271,0.848,29.713-1.858,42.904
		c-2.987,14.564-3.346,35.655-13.545,47.466"/>
	<path fill="#D3D3D3" d="M352.493,128.214c0,0,0.089,0.479,0.256,1.376c0.071,0.468,0.208,0.966,0.362,1.557
		c0.133,0.589,0.356,1.285,0.611,2.065c0.523,1.554,1.254,3.424,2.262,5.535c0.992,2.117,2.228,4.481,3.527,7.129
		c1.295,2.645,2.635,5.612,3.58,8.95c0.266,0.823,0.406,1.702,0.616,2.566c0.126,0.866,0.253,1.742,0.381,2.628
		c0.123,0.871,0.248,1.751,0.374,2.639c0.063,0.915,0.124,1.838,0.188,2.77c0.057,0.93,0.136,1.87,0.175,2.811
		c0.003,0.937,0.006,1.881,0.009,2.83c-0.005,0.949,0.023,1.905-0.01,2.862c-0.049,0.957-0.096,1.918-0.145,2.883
		c-0.062,1.933-0.254,3.869-0.447,5.812c-0.153,1.947-0.441,3.885-0.703,5.825c-0.53,3.879-1.25,7.726-2.033,11.493
		c-0.801,3.749-1.416,7.441-1.986,11.054c-0.578,3.605-1.109,7.1-1.734,10.397c-0.633,3.294-1.273,6.405-2.076,9.226
		c-0.35,1.423-0.832,2.747-1.215,4.025c-0.467,1.252-0.875,2.452-1.346,3.545c-0.927,2.194-1.892,4.036-2.777,5.494
		c-0.463,0.716-0.879,1.355-1.239,1.912c-0.39,0.535-0.757,0.965-1.037,1.326c-0.567,0.715-0.872,1.096-0.872,1.096
		s0.294-0.388,0.846-1.116c0.27-0.367,0.625-0.804,1.002-1.347c0.346-0.563,0.744-1.21,1.189-1.935
		c0.846-1.474,1.762-3.33,2.631-5.532c0.442-1.097,0.819-2.302,1.254-3.555c0.348-1.282,0.795-2.605,1.109-4.03
		c0.73-2.821,1.293-5.932,1.844-9.226c0.543-3.297,0.99-6.796,1.48-10.416c0.481-3.615,1.019-7.384,1.729-11.156
		c0.688-3.759,1.31-7.592,1.743-11.445c0.212-1.927,0.451-3.85,0.557-5.777c0.145-1.923,0.287-3.838,0.303-5.741
		c0.024-0.951,0.049-1.898,0.074-2.84c0.01-0.942-0.041-1.877-0.06-2.807c-0.024-0.93-0.05-1.854-0.075-2.771
		c-0.06-0.91-0.158-1.804-0.232-2.695c-0.08-0.889-0.159-1.771-0.237-2.645c-0.147-0.884-0.293-1.76-0.437-2.627
		c-0.145-0.85-0.287-1.692-0.427-2.523c-0.218-0.798-0.36-1.6-0.63-2.365c-0.955-3.089-2.295-5.891-3.63-8.457
		c-1.337-2.567-2.64-4.921-3.716-7.079c-1.092-2.148-1.922-4.121-2.524-5.782c-0.295-0.833-0.555-1.581-0.733-2.279
		c-0.194-0.686-0.36-1.274-0.438-1.708c-0.188-0.893-0.289-1.37-0.289-1.37L352.493,128.214z"/>
</g>
<g>
	<path fill="#F2F2F2" d="M178.997,99.156c7.66,7.405,15.528,16.376,20.402,25.891c5.153,10.059,3.73,23.225,4.162,34.201
		c0.477,12.134-0.492,23.586-2.628,35.508c-0.848,4.732-0.998,10.962-3.956,14.981"/>
	<path fill="#D3D3D3" d="M180.052,98.091c0,0,0.327,0.332,0.939,0.954c0.608,0.636,1.52,1.504,2.645,2.726
		c1.136,1.202,2.503,2.669,4,4.405c0.769,0.849,1.54,1.798,2.356,2.795c0.408,0.498,0.827,1.008,1.256,1.53
		c0.409,0.539,0.827,1.091,1.255,1.655c0.427,0.563,0.863,1.139,1.307,1.725c0.419,0.606,0.845,1.224,1.279,1.853
		c0.427,0.633,0.888,1.257,1.307,1.926c0.415,0.672,0.836,1.354,1.262,2.046c0.891,1.358,1.62,2.874,2.446,4.368
		c0.106,0.206,0.191,0.338,0.316,0.605l0.26,0.58c0.174,0.387,0.348,0.777,0.524,1.168c0.311,0.832,0.653,1.701,0.916,2.561
		c1.06,3.443,1.625,7.106,1.878,10.805c0.251,3.703,0.244,7.452,0.205,11.179c-0.017,1.863-0.044,3.723-0.033,5.57
		c0.012,0.929,0.024,1.856,0.036,2.78c-0.002,0.923-0.005,1.843-0.007,2.76c-0.005,1.833-0.009,3.652-0.013,5.449
		c-0.027,1.799-0.194,3.585-0.282,5.334c-0.128,1.749-0.161,3.477-0.363,5.15c-0.195,1.673-0.386,3.31-0.572,4.904
		c-0.302,3.195-0.908,6.171-1.348,8.932c-0.465,2.761-0.902,5.272-1.229,7.521c-0.162,1.124-0.369,2.17-0.545,3.137
		c-0.244,0.955-0.392,1.85-0.675,2.62c-0.125,0.389-0.243,0.757-0.355,1.103c-0.116,0.344-0.278,0.648-0.4,0.94
		c-0.256,0.581-0.465,1.078-0.725,1.434c-0.466,0.738-0.715,1.132-0.715,1.132s0.238-0.4,0.686-1.149
		c0.25-0.36,0.446-0.862,0.686-1.447c0.114-0.294,0.268-0.598,0.375-0.944c0.102-0.347,0.211-0.716,0.325-1.106
		c0.261-0.77,0.386-1.668,0.605-2.621c0.151-0.969,0.331-2.013,0.464-3.139c0.27-2.252,0.647-4.797,1.041-7.557
		c0.37-2.765,0.899-5.744,1.119-8.934c0.145-1.59,0.294-3.224,0.446-4.893c0.159-1.669,0.147-3.381,0.231-5.117
		c0.043-1.739,0.165-3.496,0.147-5.29c-0.041-1.797-0.082-3.615-0.124-5.448c-0.021-0.916-0.042-1.836-0.063-2.759
		c-0.035-0.921-0.07-1.845-0.106-2.77c-0.057-1.863-0.078-3.727-0.107-5.589c-0.055-3.721-0.143-7.428-0.479-11.036
		c-0.337-3.604-0.976-7.106-2.054-10.315c-0.268-0.802-0.583-1.539-0.886-2.306c-0.185-0.387-0.37-0.771-0.553-1.154l-0.275-0.573
		c-0.056-0.115-0.193-0.342-0.285-0.507c-0.839-1.425-1.57-2.864-2.472-4.162c-0.43-0.66-0.855-1.311-1.273-1.952
		c-0.422-0.638-0.888-1.236-1.319-1.84c-0.437-0.6-0.866-1.19-1.288-1.769c-0.448-0.561-0.887-1.111-1.318-1.65
		c-0.43-0.539-0.851-1.067-1.263-1.582c-0.432-0.5-0.854-0.989-1.266-1.465c-0.821-0.954-1.596-1.861-2.372-2.675
		c-1.511-1.666-2.877-3.06-4.009-4.199c-1.111-1.15-2.076-2.027-2.691-2.637c-0.628-0.606-0.963-0.93-0.963-0.93L180.052,98.091z"/>
</g>
<g>
	<path fill="#F2F2F2" d="M131.702,319.896c-15.615-20.57-21.008-49.692-12.429-74.16"/>
	<path fill="#D3D3D3" d="M130.479,320.765c0,0-0.688-1.01-1.892-2.775c-0.296-0.449-0.645-0.915-0.987-1.479
		c-0.339-0.568-0.705-1.184-1.096-1.841c-0.39-0.657-0.805-1.354-1.242-2.092c-0.39-0.754-0.801-1.547-1.229-2.374
		c-0.414-0.833-0.894-1.677-1.3-2.594c-0.404-0.917-0.821-1.865-1.251-2.84c-0.451-0.965-0.834-1.99-1.215-3.039
		c-0.38-1.051-0.805-2.109-1.17-3.209c-0.671-2.222-1.433-4.492-1.951-6.869c-0.637-2.348-1.005-4.793-1.464-7.213
		c-0.287-2.451-0.672-4.885-0.761-7.311c-0.215-2.415-0.163-4.802-0.178-7.105c0.019-1.15,0.119-2.281,0.173-3.388
		c0.057-1.106,0.119-2.188,0.272-3.233c0.127-1.047,0.251-2.064,0.371-3.049c0.121-0.984,0.343-1.92,0.499-2.826
		c0.173-0.901,0.338-1.767,0.496-2.588c0.209-0.811,0.407-1.58,0.594-2.303c0.186-0.722,0.361-1.397,0.522-2.022
		c0.168-0.622,0.381-1.178,0.542-1.688c0.675-2.029,1.061-3.189,1.061-3.189s-0.341,1.173-0.938,3.225
		c-0.141,0.515-0.332,1.075-0.476,1.702c-0.137,0.629-0.285,1.309-0.443,2.035c-0.158,0.726-0.326,1.498-0.503,2.312
		c-0.125,0.823-0.257,1.689-0.394,2.593c-0.12,0.905-0.305,1.84-0.387,2.821c-0.081,0.981-0.165,1.994-0.252,3.036
		c-0.113,1.039-0.133,2.113-0.147,3.21c-0.011,1.097-0.068,2.216-0.043,3.354c0.102,2.275,0.141,4.627,0.444,7
		c0.179,2.381,0.652,4.766,1.024,7.156c0.543,2.36,0.993,4.739,1.707,7.014c0.595,2.307,1.428,4.498,2.163,6.638
		c0.397,1.06,0.852,2.076,1.261,3.084c0.41,1.008,0.82,1.989,1.295,2.911c0.453,0.93,0.893,1.835,1.32,2.711
		c0.427,0.874,0.926,1.674,1.357,2.466c0.444,0.784,0.87,1.535,1.275,2.249c0.442,0.684,0.862,1.331,1.256,1.94
		c0.393,0.607,0.761,1.178,1.101,1.704c0.345,0.524,0.724,0.995,1.034,1.427c1.271,1.719,1.997,2.702,1.997,2.702L130.479,320.765z"
		/>
</g>
<g>
	<path fill="#F2F2F2" d="M192.043,326.924c5.634-20.012,3.02-41.136,7.734-61.258"/>
	<path fill="#D3D3D3" d="M190.59,326.552c0,0,0.262-0.93,0.721-2.559c0.248-0.819,0.486-1.797,0.74-2.914
		c0.273-1.115,0.563-2.385,0.82-3.8c0.293-1.403,0.546-2.938,0.8-4.565c0.276-1.623,0.47-3.354,0.713-5.14
		c0.425-3.581,0.788-7.422,1.122-11.27c0.331-3.852,0.661-7.709,1.031-11.322c0.207-1.805,0.378-3.551,0.61-5.2
		c0.216-1.651,0.43-3.21,0.679-4.642c0.217-1.437,0.464-2.744,0.702-3.9c0.22-1.159,0.426-2.166,0.635-2.987
		c0.391-1.646,0.614-2.587,0.614-2.587s-0.177,0.95-0.488,2.613c-0.169,0.828-0.325,1.842-0.489,3.008
		c-0.181,1.163-0.363,2.477-0.51,3.917c-0.179,1.437-0.316,2.998-0.451,4.651c-0.151,1.649-0.237,3.398-0.356,5.203
		c-0.194,3.613-0.337,7.473-0.48,11.338c-0.147,3.867-0.324,7.738-0.578,11.373c-0.158,1.816-0.27,3.576-0.47,5.241
		c-0.177,1.666-0.36,3.242-0.589,4.692c-0.191,1.451-0.427,2.785-0.658,3.971c-0.212,1.192-0.413,2.22-0.616,3.032
		c-0.38,1.648-0.596,2.591-0.596,2.591L190.59,326.552z"/>
</g>
<g>
	<path fill="#F2F2F2" d="M301.063,343.979c19.459-7.991,25.039-27.058,33.908-44.019"/>
	<path fill="#D3D3D3" d="M300.428,342.619c0,0,0.818-0.355,2.249-0.977c0.358-0.154,0.755-0.326,1.185-0.514
		c0.408-0.202,0.814-0.445,1.271-0.689c0.897-0.506,1.943-1.012,2.995-1.782c0.537-0.362,1.098-0.74,1.676-1.131
		c0.557-0.423,1.107-0.893,1.688-1.358c1.196-0.895,2.27-2.054,3.466-3.167c1.084-1.223,2.271-2.435,3.303-3.825
		c1.102-1.332,2.076-2.802,3.094-4.243c0.939-1.495,1.912-2.973,2.767-4.496c0.897-1.497,1.698-3.021,2.503-4.48
		c1.561-2.948,2.971-5.729,4.188-8.111c1.219-2.381,2.242-4.362,2.991-5.731c0.744-1.37,1.168-2.154,1.168-2.154
		s-0.383,0.805-1.053,2.213c-0.675,1.405-1.593,3.436-2.683,5.876c-1.09,2.441-2.354,5.295-3.763,8.333
		c-0.731,1.508-1.454,3.082-2.282,4.643c-0.781,1.582-1.688,3.134-2.565,4.704c-0.959,1.525-1.876,3.08-2.938,4.514
		c-0.988,1.485-2.152,2.813-3.217,4.145c-1.186,1.229-2.253,2.504-3.463,3.518c-0.587,0.523-1.146,1.051-1.712,1.529
		c-0.593,0.448-1.165,0.882-1.715,1.296c-1.067,0.868-2.198,1.506-3.165,2.111c-0.486,0.295-0.944,0.591-1.366,0.828
		c-0.421,0.21-0.808,0.402-1.155,0.576c-1.396,0.694-2.195,1.093-2.195,1.093L300.428,342.619z"/>
</g>
<g>
	<path fill="#F2F2F2" d="M257.576,337.075c18.537-13.806,32.666-37.802,36.162-60.985"/>
	<path fill="#D3D3D3" d="M256.646,335.898c0,0,0.903-0.686,2.486-1.884c0.818-0.587,1.701-1.35,2.725-2.223
		c0.514-0.437,1.06-0.903,1.636-1.393c0.556-0.524,1.14-1.075,1.749-1.65c1.248-1.123,2.484-2.456,3.818-3.844
		c0.684-0.681,1.31-1.447,1.979-2.206c0.654-0.772,1.365-1.525,2.011-2.357c1.308-1.647,2.675-3.344,3.933-5.166
		c1.328-1.772,2.5-3.696,3.736-5.579c1.135-1.943,2.326-3.86,3.327-5.843c1.079-1.941,1.976-3.936,2.888-5.847
		c0.442-0.961,0.82-1.933,1.221-2.869c0.396-0.94,0.791-1.856,1.104-2.776c0.671-1.822,1.312-3.547,1.78-5.178
		c0.252-0.811,0.493-1.588,0.722-2.327c0.192-0.75,0.374-1.461,0.546-2.129c0.348-1.336,0.647-2.503,0.818-3.479
		c0.391-1.946,0.611-3.059,0.611-3.059s-0.176,1.121-0.485,3.082c-0.131,0.986-0.383,2.165-0.676,3.52
		c-0.144,0.678-0.298,1.398-0.458,2.158c-0.199,0.752-0.409,1.541-0.628,2.364c-0.404,1.659-0.976,3.417-1.574,5.28
		c-0.278,0.939-0.638,1.878-0.996,2.841c-0.364,0.96-0.706,1.956-1.112,2.944c-0.84,1.964-1.662,4.017-2.672,6.025
		c-0.931,2.046-2.054,4.034-3.123,6.055c-1.174,1.959-2.285,3.963-3.56,5.82c-1.204,1.906-2.522,3.691-3.788,5.429
		c-0.623,0.876-1.318,1.675-1.954,2.491c-0.651,0.805-1.262,1.615-1.931,2.342c-1.307,1.479-2.522,2.899-3.756,4.107
		c-0.604,0.618-1.183,1.21-1.732,1.773c-0.583,0.54-1.135,1.052-1.654,1.533c-1.041,0.964-1.951,1.811-2.725,2.414
		c-1.532,1.263-2.407,1.983-2.407,1.983L256.646,335.898z"/>
</g>
<path fill="#FFFFFF" d="M267.491,112.601c22.771-5.647,51.375-13.39,70.426,5.214c19.995,19.525,21.935,54.415,19.047,80.436
	c-1.22,11-7.353,49.769-26.771,39.676c-8.435-4.383-13.887-14.722-18.157-22.727c-6.323-11.85-11.316-24.397-16.134-36.916
	c-8.428-21.898-16.412-43.862-26.125-65.237"/>
<path fill="#FFFFFF" d="M364.229,135.83c15.41-0.133,32.13,0.365,43.364,12.512c14.961,16.175,13.454,42.417,7.669,62.044
	c-2.738,9.294-17.125,45.941-32.67,33.932c-6.891-5.324-8.154-17.231-9.064-25.134c-1.478-12.829-1.172-25.822-0.928-38.708
	c0.238-12.673,4.194-34.442-7.453-43.61c-0.756-0.406-0.91-0.997-1.149-1.873"/>
<path fill="#FFFFFF" d="M200.309,108.194c13.724-1.497,29.194-4.366,42.809-0.741c15.432,4.108,21.928,19.382,24.343,33.923
	c2.121,12.767,1.607,26.1-0.916,38.769c-1.895,9.511-5.089,23.286-13.54,29.368c-19.022,13.688-26.385-43.927-27.762-52.407
	c-2.214-13.639-2.833-29.648-8.987-42.268c-3.1-6.356-7.495-8.202-14.275-7.108"/>
<path fill="#FFFFFF" d="M146.717,94.967c18.691,3.908,33.471,15.817,43.851,31.715c10.408,15.942,10.045,32.584,7.23,50.733
	c-1.617,10.426-3.776,20.755-5.975,31.07c-1.212-13.934-2.125-27.904-3.461-41.826c-0.896-9.336-2.538-18.322-7.409-26.483
	c-5.52-9.248-13.756-16.437-22.349-22.746c-5.062-3.717-15.382-8.406-17.947-14.604c-2.004-4.841,2.7-6.084,6.674-6.948"/>
</svg>
