<?xml version="1.0" encoding="utf-8"?>
<!-- Generator: Adobe Illustrator 16.0.0, SVG Export Plug-In . SVG Version: 6.00 Build 0)  -->
<!DOCTYPE svg PUBLIC "-//W3C//DTD SVG 1.1//EN" "http://www.w3.org/Graphics/SVG/1.1/DTD/svg11.dtd">
<svg version="1.1"
	 id="svg12211" xmlns:dc="http://purl.org/dc/elements/1.1/" xmlns:cc="http://creativecommons.org/ns#" xmlns:rdf="http://www.w3.org/1999/02/22-rdf-syntax-ns#" xmlns:svg="http://www.w3.org/2000/svg" xmlns:sodipodi="http://sodipodi.sourceforge.net/DTD/sodipodi-0.dtd" xmlns:inkscape="http://www.inkscape.org/namespaces/inkscape" inkscape:export-ydpi="72.021774" inkscape:export-xdpi="72.021774" inkscape:export-filename="C:\Users\Zealotlee\Dropbox\Small Projects\Steves Fuzzballs\fuschia-fuzzle.png" sodipodi:docname="acc-face-mustache.svg" inkscape:version="0.91 r13725"
	 xmlns="http://www.w3.org/2000/svg" xmlns:xlink="http://www.w3.org/1999/xlink" x="0px" y="0px" width="503.585px"
	 height="256.522px" viewBox="5.177 130.184 503.585 256.522" enable-background="new 5.177 130.184 503.585 256.522"
	 xml:space="preserve">
<sodipodi:namedview  showguides="true" showgrid="false" inkscape:cy="193.02625" inkscape:cx="369.48506" inkscape:zoom="0.71220416" borderopacity="1.0" bordercolor="#666666" pagecolor="#ffffff" id="base" inkscape:window-maximized="1" inkscape:window-y="-8" inkscape:window-x="-8" inkscape:window-height="988" inkscape:window-width="1680" inkscape:pageshadow="2" inkscape:current-layer="layer1" inkscape:pageopacity="0.0" inkscape:document-units="px">
	</sodipodi:namedview>
<path fill="#895C33" stroke="#60461B" stroke-width="5" stroke-miterlimit="10" d="M258.732,384.206
	c99.281,0,182.192-37.11,212.822-47.542c30.63-10.433,37.495-39.275,33.799-49.096c-3.697-9.818-21.509-17.183-43.232-17.183
	c-21.725,0-70.309,12.888-101.995,28.843c-31.687,15.956-90.754,7.364-99.507,7.364s-96.945,1.228-129.687-7.978
	c-32.742-9.205-74.527-29.461-91.889-22.094c-40.311,17.107-43.304,54.005,0,68.733C82.347,359.984,179.072,384.206,258.732,384.206
	z"/>
<path fill="#91623C" d="M366.463,302.018c0,0,25.35-10.406,56.506-3.056c31.158,7.351,21.938,36.808,11.09,45.399
	c-10.847,8.591-133.08,41.73-179.553,34.979C305.204,359.703,365.936,343.747,366.463,302.018z"/>
<path fill="#895C33" stroke="#60461B" stroke-width="5" stroke-miterlimit="10" d="M116.267,319.481
	c0,0,46.754,19.023,140.648,19.023c93.894,0,123.487-19.023,123.487-19.023s2.072-60.755-7.799-99.417
	c-9.873-38.662-21.106-69.96-26.535-81.62c-5.43-11.66-32.34,11.046-84.856,11.046c-52.516,0-80.466-9.728-88.277-14.376
	c-7.811-4.648-13.648-3.421-19.935,10.694c-6.287,14.115-16.719,49.709-20.401,69.96
	C128.917,236.019,113.603,289.409,116.267,319.481z"/>
<path fill="#91623C" d="M132.517,303.244c0,0-101.817,6.543-73.141,45.105c0,0-47.793-11.353-47.793-38.354
	s37.237-32.683,45.68-31.456C65.706,279.766,132.517,303.244,132.517,303.244z"/>
<path fill="#91623C" d="M271.031,165.022c-12.184,3.127,1.742,26.754,15.681,50.886c13.938,24.131,51.399,40.394,64.902,37.771
	c13.503-2.623,21.874-15.74,17.866-32.362c-4.006-16.622-19.373-80.755-26.896-81.64
	C335.063,138.792,297.602,158.202,271.031,165.022z"/>
<path fill="#775728" d="M228.82,163.795c11.61,1.869-1.636,26.754-14.728,50.886c-13.092,24.132-48.277,40.394-60.96,37.771
	c-12.683-2.623-21.536-16.66-17.773-33.283c3.764-16.623,19.188-79.834,26.254-80.719
	C168.679,137.565,199.489,159.073,228.82,163.795z"/>
<path fill="#60461B" stroke="#4C371D" stroke-width="5" stroke-miterlimit="10" d="M116.494,300.189
	c0,0,58.233,19.157,140.421,19.157c82.188,0,123.668-12.813,123.668-12.813l-0.181,12.947c0,0-35.156,19.023-123.487,19.023
	s-140.648-19.023-140.648-19.023L116.494,300.189z"/>
<ellipse fill="#C6A622" stroke="#B28C10" stroke-width="3" stroke-miterlimit="10" cx="255.028" cy="326.666" rx="17.682" ry="12.83"/>
<path fill="#B28C10" d="M242.782,320.733c0,0,0.056,1.395,1.394,2.23c1.339,0.837,4.295,1.283,6.415,1.396
	c0.781,2.789,1.785,3.854,2.008,5.218c0.223,1.364,0.954,2.087,1.344,3.76s2.219,1.124,2.777,0.064
	c0.558-1.061,0.564-2.734,0.899-3.824s1.395-4.046,1.896-5.106c2.286-0.111,4.963-0.167,5.856-1.06
	c0.892-0.893,1.952-1.004,2.343-2.677c-1.952,1.06-3.85,2.008-8.145,2.063c-1.672-1.004-2.23-1.562-4.322-1.562
	c-2.092,0-4.156,1.004-4.658,1.339C248.583,322.685,246.061,322.396,242.782,320.733z"/>
<circle fill="#C6A622" stroke="#B28C10" stroke-width="2" stroke-miterlimit="10" cx="219.358" cy="328.175" r="5.293"/>
<circle fill="#C6A622" stroke="#B28C10" stroke-width="2" stroke-miterlimit="10" cx="191.588" cy="325.72" r="5.293"/>
<circle fill="#C6A622" stroke="#B28C10" stroke-width="2" stroke-miterlimit="10" cx="164.356" cy="321.194" r="5.293"/>
<circle fill="#C6A622" stroke="#B28C10" stroke-width="2" stroke-miterlimit="10" cx="291.005" cy="328.175" r="5.293"/>
<circle fill="#C6A622" stroke="#B28C10" stroke-width="2" stroke-miterlimit="10" cx="320.033" cy="325.72" r="5.293"/>
<circle fill="#C6A622" stroke="#B28C10" stroke-width="2" stroke-miterlimit="10" cx="347.277" cy="321.194" r="5.293"/>
<circle fill="#C6A622" stroke="#B28C10" stroke-width="2" stroke-miterlimit="10" cx="134.485" cy="315.063" r="5.293"/>
<circle fill="#C6A622" stroke="#B28C10" stroke-width="2" stroke-miterlimit="10" cx="370.486" cy="315.063" r="5.293"/>
</svg>
