<?xml version="1.0" encoding="utf-8"?>
<!-- Generator: Adobe Illustrator 16.0.0, SVG Export Plug-In . SVG Version: 6.00 Build 0)  -->
<!DOCTYPE svg PUBLIC "-//W3C//DTD SVG 1.1//EN" "http://www.w3.org/Graphics/SVG/1.1/DTD/svg11.dtd">
<svg version="1.1"
	 id="svg12211" xmlns:inkscape="http://www.inkscape.org/namespaces/inkscape" xmlns:sodipodi="http://sodipodi.sourceforge.net/DTD/sodipodi-0.dtd" xmlns:svg="http://www.w3.org/2000/svg" xmlns:rdf="http://www.w3.org/1999/02/22-rdf-syntax-ns#" xmlns:cc="http://creativecommons.org/ns#" xmlns:dc="http://purl.org/dc/elements/1.1/" sodipodi:docname="acc-hat-ballcap.svg" inkscape:export-filename="C:\Users\Zealotlee\Dropbox\Small Projects\Steves Fuzzballs\fuschia-fuzzle.png" inkscape:export-xdpi="72.021774" inkscape:export-ydpi="72.021774" inkscape:version="0.91 r13725"
	 xmlns="http://www.w3.org/2000/svg" xmlns:xlink="http://www.w3.org/1999/xlink" x="0px" y="0px" width="95.187px"
	 height="96.578px" viewBox="208.322 207.994 95.187 96.578" enable-background="new 208.322 207.994 95.187 96.578"
	 xml:space="preserve">
<sodipodi:namedview  showguides="true" showgrid="false" inkscape:cy="171.5403" inkscape:cx="385.24156" inkscape:zoom="1.4142136" borderopacity="1.0" bordercolor="#666666" pagecolor="#ffffff" id="base" inkscape:document-units="px" inkscape:window-height="988" inkscape:pageopacity="0.0" inkscape:window-x="-8" inkscape:current-layer="layer1" inkscape:window-y="-8" inkscape:window-width="1680" inkscape:pageshadow="2" inkscape:window-maximized="1">
	</sodipodi:namedview>
<path fill="#CC2727" stroke="#841E1E" stroke-width="5" stroke-miterlimit="10" d="M211.138,293.445c0,0,33.793,18,89.563,2
	c-8.23-53.334-10.896-77.334-10.896-77.334s-26.548-16.949-61.381-0.282C220.257,247.829,211.138,293.445,211.138,293.445z"/>
<path fill="#E82525" stroke="#CC2727" stroke-width="5" stroke-linejoin="round" stroke-miterlimit="10" d="M229.638,217.264
	c0,0,32.167,17.182,60.167,0.848c0,0-12.666-7.596-28.666-7.596C245.138,210.516,229.638,217.264,229.638,217.264z"/>
<path fill="#841E1E" d="M225.562,237.777c0,0-14.668,63.049,14.425,63.367c-28.849-7.699-28.849-7.699-28.849-7.699L225.562,237.777
	z"/>
<path fill="none" stroke="#DBA231" stroke-linecap="round" stroke-miterlimit="10" d="M263.718,219.445
	c-0.454-0.668-2.581-2.182-2.581-2.182"/>
<path fill="#DBA231" d="M266.129,223.15c2.456,0.385-0.484-6.063-2.131-4.573S262.739,222.619,266.129,223.15z"/>
<path fill="none" stroke="#DBA231" stroke-linecap="round" stroke-miterlimit="10" d="M265.389,222.445
	c1.125,1.313,3.938,0.938,3.938,3.875c0,2.937,7.446,35.263,7.446,35.263s5.754,25.14,5.547,31.194"/>
<path fill="none" stroke="#DBA231" stroke-linecap="round" stroke-miterlimit="10" d="M266.389,222.445
	c1.152,1.334,4.035,0.953,4.035,3.938c0,2.985,7.635,35.836,7.635,35.836s5.808,25.572,5.594,31.727"/>
<path fill="none" stroke="#DBA231" stroke-linecap="round" stroke-miterlimit="10" d="M267.389,222.445
	c1.267,1.279,4.433,0.914,4.433,3.775c0,2.863,8.384,34.363,8.384,34.363s6.014,24.459,5.779,30.361"/>
<path fill="none" stroke="#DBA231" stroke-linecap="round" stroke-miterlimit="10" d="M268.331,223.061
	c1.355,1.289,4.746,0.92,4.746,3.804s8.978,34.618,8.978,34.618s6.18,24.652,5.93,30.599"/>
<path fill="#F9AD3A" d="M263.514,220.07c0.764,0.234,1.485,0.505,2.07,1.07c0.217,0.209,0.604,0.866,0.926,0.541
	c0.422-0.428,0.096-1.572-0.123-2.002c-0.346-0.677-1.078-1.195-1.865-1.057c-0.7,0.125-0.896,0.684-0.883,1.322"/>
</svg>
