<?xml version="1.0" encoding="utf-8"?>
<!-- Generator: Adobe Illustrator 16.0.0, SVG Export Plug-In . SVG Version: 6.00 Build 0)  -->
<!DOCTYPE svg PUBLIC "-//W3C//DTD SVG 1.1//EN" "http://www.w3.org/Graphics/SVG/1.1/DTD/svg11.dtd">
<svg version="1.1"
	 id="svg12211" xmlns:dc="http://purl.org/dc/elements/1.1/" xmlns:cc="http://creativecommons.org/ns#" xmlns:rdf="http://www.w3.org/1999/02/22-rdf-syntax-ns#" xmlns:svg="http://www.w3.org/2000/svg" xmlns:sodipodi="http://sodipodi.sourceforge.net/DTD/sodipodi-0.dtd" xmlns:inkscape="http://www.inkscape.org/namespaces/inkscape" inkscape:export-ydpi="72.021774" inkscape:export-xdpi="72.021774" inkscape:export-filename="C:\Users\Zealotlee\Dropbox\Small Projects\Steves Fuzzballs\fuschia-fuzzle.png" sodipodi:docname="acc-face-mustache.svg" inkscape:version="0.91 r13725"
	 xmlns="http://www.w3.org/2000/svg" xmlns:xlink="http://www.w3.org/1999/xlink" x="0px" y="0px" width="330.645px"
	 height="118.364px" viewBox="91.287 197.556 330.645 118.364" enable-background="new 91.287 197.556 330.645 118.364"
	 xml:space="preserve">
<sodipodi:namedview  showguides="true" showgrid="false" inkscape:cy="193.02625" inkscape:cx="369.48506" inkscape:zoom="0.71220416" borderopacity="1.0" bordercolor="#666666" pagecolor="#ffffff" id="base" inkscape:window-maximized="1" inkscape:window-y="-8" inkscape:window-x="-8" inkscape:window-height="988" inkscape:window-width="1680" inkscape:pageshadow="2" inkscape:current-layer="layer1" inkscape:pageopacity="0.0" inkscape:document-units="px">
	</sodipodi:namedview>
<path fill="#444749" stroke="#33373A" stroke-width="5" stroke-miterlimit="10" d="M99.638,278.335c0,0,5.944,3.17,9.412,5.778
	c-3.22,3.805-4.458,5.531-4.706,9.56c6.44,1.632,12.384,1.666,12.137,3.945l-9.412,8.067c0,0,54.49-25.787,142.914-25.787
	c88.424,0,150.014,25.787,150.014,25.787s-0.991-6.088,2.642-8.067c7.266,2.278,10.568,4.142,10.568,4.142s-4.623-12.297-7.596-14.8
	c8.586-1.704,8.586-1.704,8.586-1.704s-63.407-31.144-162.812-31.144C151.982,254.112,99.638,278.335,99.638,278.335z"/>
<circle fill="#E6EDED" stroke="#99A0A3" stroke-width="5" stroke-miterlimit="10" cx="248.925" cy="248.19" r="48.134"/>
<polygon fill="#F2F7F9" points="248.925,248.19 227.763,207.07 233.763,203.945 "/>
<polygon fill="#DAE0E0" points="248.925,248.19 272.139,206.945 281.014,213.82 "/>
<polygon fill="#DAE0E0" points="248.925,248.19 295.082,261.877 283.986,281.163 "/>
<polygon fill="#F2F7F9" points="248.925,248.19 295.701,234.695 296.514,245.387 "/>
<polygon fill="#F2F7F9" points="249.263,248.475 270.425,289.596 264.425,292.721 "/>
<polygon fill="#DAE0E0" points="249.263,248.475 226.05,289.721 217.175,282.846 "/>
<polygon fill="#DAE0E0" points="249.263,248.475 203.106,234.788 214.201,215.503 "/>
<polyline fill="#F2F7F9" points="201.675,251.279 249.263,248.475 202.487,261.971 "/>
<circle fill="none" stroke="#99A0A3" stroke-width="5" stroke-miterlimit="10" cx="248.925" cy="248.19" r="48.134"/>
<circle fill="#99A0A3" cx="248.925" cy="248.19" r="2.804"/>
</svg>
