<?xml version="1.0" encoding="utf-8"?>
<!-- Generator: Adobe Illustrator 16.0.0, SVG Export Plug-In . SVG Version: 6.00 Build 0)  -->
<!DOCTYPE svg PUBLIC "-//W3C//DTD SVG 1.1//EN" "http://www.w3.org/Graphics/SVG/1.1/DTD/svg11.dtd">
<svg version="1.1"
	 id="svg12211" xmlns:dc="http://purl.org/dc/elements/1.1/" xmlns:cc="http://creativecommons.org/ns#" xmlns:rdf="http://www.w3.org/1999/02/22-rdf-syntax-ns#" xmlns:svg="http://www.w3.org/2000/svg" xmlns:sodipodi="http://sodipodi.sourceforge.net/DTD/sodipodi-0.dtd" xmlns:inkscape="http://www.inkscape.org/namespaces/inkscape" inkscape:export-ydpi="72.021774" inkscape:export-xdpi="72.021774" inkscape:export-filename="C:\Users\Zealotlee\Dropbox\Small Projects\Steves Fuzzballs\fuschia-fuzzle.png" sodipodi:docname="acc-face-mustache.svg" inkscape:version="0.91 r13725"
	 xmlns="http://www.w3.org/2000/svg" xmlns:xlink="http://www.w3.org/1999/xlink" x="0px" y="0px" width="110.58px"
	 height="166.314px" viewBox="200.681 173.614 110.58 166.314" enable-background="new 200.681 173.614 110.58 166.314"
	 xml:space="preserve">
<sodipodi:namedview  showguides="true" showgrid="false" inkscape:cy="193.02625" inkscape:cx="369.48506" inkscape:zoom="0.71220416" borderopacity="1.0" bordercolor="#666666" pagecolor="#ffffff" id="base" inkscape:window-maximized="1" inkscape:window-y="-8" inkscape:window-x="-8" inkscape:window-height="988" inkscape:window-width="1680" inkscape:pageshadow="2" inkscape:current-layer="layer1" inkscape:pageopacity="0.0" inkscape:document-units="px">
	</sodipodi:namedview>
<path fill="#DC00DC" d="M220.464,336.735l-8.11-16.933l-9.083-118.643l102.032,2.832l-28.357,115.811l-10.226,13.291
	C266.721,333.094,223.384,321.104,220.464,336.735z"/>
<path fill="#FF00FF" stroke="#DC00DC" stroke-width="5" stroke-miterlimit="10" d="M203.272,201.16c0,0,9.672-19.821,17.162-24.351
	c6.075,3.398,14.096,0,14.096,0l5.662,1.416l7.248-1.416l5.491,1.982l4.246-1.982h7.55h12.219l1.927,2.265l7.558-2.265l2.359,2.548
	l4.718-2.548c0,0,9.437,11.893,11.796,27.183C307.663,219.282,205.04,212.486,203.272,201.16z"/>
<path fill="#FF00FF" stroke="#DC00DC" stroke-width="5" stroke-miterlimit="10" d="M220.464,336.735
	c-0.502,2.157,5.376-5.72,6.593-7.919c1.904,1.726,2.059,4.027,3.383,5.899c2.433-0.576,5.936-4.883,7.962-6.421
	c1.298,2.262,1.921,4.712,4.038,6.993c2.101,2.264,5.039-0.771,6.394,1.818c4.322-0.044,5.934-4.364,8.78-5.805
	c0.192,1.936,0.251,4.459,2.37,5.773c3.097-1.511,3.844-4.89,4.847-7.079c0.854,0.952,1.201,2.079,1.89,3.099
	c2.741-2.005,2.572-4.833,3.668-7.345c0,0,18.4-101.087,34.914-121.757c-14.626,2.265-16.514,1.699-16.514,1.699l-6.213-3.964
	l-5.631,3.681l-8.918-5.663l-11.795,7.362l-11.796-8.778l-8.965,8.778l-12.267-7.079l-3.303,6.229l-14.626-4.247
	C205.277,202.009,226.126,312.383,220.464,336.735z"/>
<g>
	<path fill="#DC00DC" d="M221.791,210.504c0,0,1.9,6.781,4.75,16.953c0.707,2.543,1.473,5.299,2.284,8.213
		c0.791,2.921,1.651,5.996,2.449,9.205c0.414,1.6,0.822,3.23,1.224,4.886c0.412,1.652,0.821,3.327,1.183,5.029
		c0.762,3.394,1.484,6.856,2.128,10.338c0.625,3.485,1.159,6.99,1.591,10.455c0.459,3.462,0.699,6.897,0.892,10.222
		c0.052,1.664,0.162,3.299,0.161,4.902c-0.018,1.604-0.035,3.172-0.051,4.698c-0.113,3.055-0.279,5.889-0.425,8.532
		c-0.134,2.638-0.278,5.055-0.501,7.199c-0.206,2.142-0.386,4.008-0.535,5.546c-0.333,3.068-0.524,4.82-0.524,4.82
		s-0.026-1.763-0.072-4.848c-0.005-1.539-0.01-3.407-0.017-5.551c0.028-2.139-0.043-4.561-0.074-7.202
		c-0.029-2.637-0.06-5.491-0.093-8.512c-0.058-1.498-0.118-3.035-0.18-4.607c-0.107-1.57-0.216-3.174-0.327-4.805
		c-0.266-3.258-0.676-6.614-1.129-10.021c-0.458-3.405-1.024-6.856-1.669-10.294c-0.602-3.445-1.283-6.882-2.006-10.257
		c-0.722-3.374-1.41-6.705-2.142-9.918c-1.426-6.432-2.78-12.443-3.836-17.625c-1.08-5.173-1.858-9.52-2.36-12.564
		C222.054,212.247,221.791,210.504,221.791,210.504z"/>
</g>
<g>
	<path fill="#DC00DC" d="M236.417,210.787c-0.031,0.019,0.328,0.355,0.558,1.247c0.246,0.877,0.061,2.253,0.217,3.811
		c0.132,0.817,0.279,1.721,0.438,2.706c0.078,0.492,0.16,1.005,0.244,1.536c0.103,0.525,0.21,1.069,0.32,1.632
		c0.423,2.242,0.98,4.781,1.492,7.581c0.516,2.818,1.008,5.839,1.486,9.053c0.495,3.207,1.017,6.589,1.557,10.088
		c0.493,3.509,1.081,7.13,1.513,10.836c0.216,1.854,0.433,3.725,0.652,5.601c0.23,1.875,0.346,3.776,0.525,5.668
		c0.365,3.782,0.417,7.599,0.567,11.345c0.065,1.873-0.043,3.74-0.078,5.578c-0.064,1.84-0.045,3.657-0.262,5.44
		c-0.316,3.567-0.643,7.022-1.133,10.215c-0.436,3.209-0.807,6.229-1.02,9.025c-0.239,2.798-0.223,5.359-0.16,7.637
		c0.098,1.13,0.19,2.187,0.276,3.164c0.151,0.984,0.28,1.893,0.428,2.703c0.154,0.807,0.257,1.545,0.315,2.192
		c0.036,0.321,0.069,0.618,0.099,0.891c0.015,0.273,0,0.525,0.001,0.749c-0.009,0.888-0.014,1.361-0.014,1.361
		s-0.051-0.47-0.148-1.35c-0.028-0.218-0.042-0.463-0.089-0.729c-0.062-0.264-0.13-0.552-0.203-0.863
		c-0.138-0.621-0.313-1.332-0.546-2.134c-0.23-0.799-0.448-1.688-0.696-2.653c-0.21-1.005-0.376-2.07-0.566-3.228
		c-0.262-2.313-0.495-4.949-0.418-7.813c0.025-2.864,0.206-5.962,0.515-9.203c0.345-3.25,0.483-6.627,0.721-10.12
		c0.165-1.743,0.094-3.532,0.107-5.335c-0.001-0.902-0.002-1.809-0.003-2.721c-0.002-0.912,0.042-1.827-0.023-2.749
		c-0.182-3.685-0.269-7.427-0.659-11.166c-0.16-1.871-0.256-3.743-0.467-5.606c-0.199-1.863-0.398-3.719-0.595-5.56
		c-0.426-3.687-0.845-7.315-1.25-10.826c-0.884-7.027-1.496-13.641-2.127-19.231c-0.347-2.801-0.689-5.378-0.929-7.692
		c-0.141-1.152-0.248-2.227-0.29-3.222c-0.061-0.995-0.118-1.909-0.169-2.735c-0.029-0.879,0.093-1.609,0.164-2.245
		c0.087-0.635,0.089-1.167,0.05-1.602C236.706,211.204,236.382,210.792,236.417,210.787z"/>
</g>
<g>
	<path fill="#DC00DC" d="M252.931,214.468c0,0,0.118,1.827,0.325,5.025c0.085,1.599,0.188,3.54,0.306,5.768
		c0.166,2.218,0.354,4.721,0.559,7.451c0.175,2.725,0.433,5.68,0.682,8.811c0.245,3.131,0.503,6.432,0.77,9.847
		c0.242,3.42,0.558,6.946,0.736,10.551c0.19,3.603,0.451,7.253,0.537,10.925c0.07,3.67,0.246,7.334,0.144,10.956
		c-0.017,1.81-0.048,3.604-0.091,5.378c-0.027,0.885-0.021,1.766-0.076,2.641c-0.063,0.873-0.124,1.742-0.186,2.603
		c-0.128,1.72-0.253,3.412-0.375,5.068c-0.067,0.827-0.133,1.645-0.199,2.452c-0.053,0.863-0.199,1.606-0.292,2.399
		c-0.392,3.119-1.019,6.107-1.551,8.779c-0.534,2.684-1.023,5.144-1.456,7.325c-0.358,2.185-0.695,4.093-0.849,5.678
		c-0.225,1.582-0.257,2.833-0.318,3.69c-0.053,0.856-0.081,1.314-0.081,1.314s-0.029-0.457-0.082-1.313
		c-0.037-0.857-0.19-2.122-0.115-3.729c0.026-0.803,0.002-1.7,0.075-2.666c0.072-0.968,0.15-2.014,0.233-3.132
		c0.12-1.113,0.249-2.297,0.384-3.545c0.162-1.241,0.333-2.546,0.511-3.908c0.171-1.354,0.378-2.776,0.54-4.226
		c0.164-1.45,0.373-2.932,0.484-4.51c0.053-0.771,0.169-1.604,0.173-2.353c0.026-0.801,0.053-1.612,0.079-2.433
		c0.065-1.637,0.132-3.31,0.2-5.012c0.239-3.395,0.028-6.928,0.094-10.502c0.07-3.576-0.146-7.219-0.243-10.856
		c-0.05-3.638-0.276-7.285-0.43-10.871c-0.162-3.593-0.322-7.127-0.476-10.548c-0.177-3.42-0.266-6.739-0.368-9.883
		c-0.048-1.572-0.094-3.101-0.139-4.581c-0.01-1.484-0.02-2.917-0.029-4.294c-0.018-2.752-0.014-5.273,0.013-7.504
		c0.094-2.228,0.175-4.17,0.242-5.77C252.833,216.296,252.931,214.468,252.931,214.468z"/>
</g>
<g>
	<path fill="#DC00DC" d="M261.424,324.616c0,0,0.02-1.769,0.055-4.862c0.035-1.546,0.078-3.423,0.127-5.576
		c0.033-2.151,0.311-4.577,0.52-7.228c0.238-2.646,0.439-5.541,0.824-8.546c0.357-3.014,0.736-6.192,1.126-9.481
		c0.391-3.278,0.752-6.671,1.196-10.106c0.402-3.42,0.763-6.963,1.092-10.459c0.369-3.51,0.74-7.021,1.104-10.477
		c0.4-3.465,0.831-6.868,1.358-10.159c0.443-3.297,1.123-6.455,1.714-9.45c0.299-1.497,0.694-2.936,1.033-4.333
		c0.38-1.388,0.647-2.751,1.083-4.017c0.826-2.542,1.471-4.892,2.294-6.908c0.776-2.009,1.47-3.755,2.057-5.187
		c1.192-2.859,1.874-4.492,1.874-4.492s-0.475,1.702-1.307,4.68c-0.426,1.486-0.941,3.291-1.534,5.361
		c-0.326,1.032-0.574,2.118-0.839,3.301c-0.278,1.166-0.571,2.392-0.876,3.672c-0.343,1.268-0.513,2.637-0.792,4.026
		c-0.242,1.398-0.576,2.822-0.793,4.315c-0.436,2.985-0.93,6.119-1.297,9.394c-0.446,3.258-0.698,6.663-1.094,10.102
		c-0.332,3.459-0.668,6.975-1.006,10.488c-0.367,3.53-0.756,7.01-1.199,10.487c-0.459,3.455-0.989,6.844-1.461,10.129
		c-0.49,3.272-1.031,6.425-1.524,9.418c-0.513,2.997-0.906,5.81-1.329,8.418c-0.206,1.304-0.403,2.554-0.59,3.743
		c-0.202,1.188-0.393,2.316-0.495,3.39c-0.261,2.139-0.488,4.002-0.677,5.538C261.659,322.863,261.424,324.616,261.424,324.616z"/>
</g>
<g>
	<path fill="#DC00DC" d="M226.981,188.984c-0.062-0.072-0.119-0.145-0.172-0.218c-0.051-0.077-0.119-0.138-0.156-0.228
		c-0.055-0.179-0.148-0.42-0.149-0.627c-0.007-0.21-0.006-0.444,0.058-0.646c0.051-0.214,0.111-0.437,0.218-0.618
		c0.098-0.196,0.206-0.39,0.338-0.546c0.128-0.167,0.262-0.339,0.409-0.473c0.293-0.297,0.609-0.529,0.94-0.754l0.673-0.457
		l0.855,0.898c0.508,0.534,0.981,1.09,1.415,1.661c0.468,0.493,0.891,1.012,1.294,1.557l-1.556-0.368
		c0.197-0.07,0.393-0.145,0.599-0.205c0.208-0.057,0.403-0.176,0.617-0.249c0.212-0.069,0.435-0.213,0.665-0.303l0.745-0.341
		c0.26-0.118,0.573-0.219,0.851-0.319c0.321-0.07,0.635-0.145,0.953-0.161l0.483,0.018c0.156,0.011,0.31,0.012,0.46,0.066
		c0.299,0.091,0.583,0.201,0.84,0.334c-0.274,0.151-0.522,0.279-0.754,0.389c-0.118,0.049-0.216,0.161-0.32,0.22l-0.292,0.206
		c-0.093,0.069-0.172,0.179-0.258,0.251l-0.245,0.235l-0.495,0.537c-0.184,0.202-0.344,0.377-0.559,0.578
		c-0.215,0.202-0.41,0.391-0.664,0.578c-0.253,0.181-0.496,0.37-0.777,0.524c-0.283,0.15-0.575,0.286-0.866,0.426l-0.857,0.413
		l-0.699-0.781c-0.54-0.604-1.063-1.234-1.539-1.89c-0.408-0.654-0.758-1.337-1.084-2.035l1.527,0.44
		c-0.256,0.077-0.538,0.131-0.781,0.225c-0.14,0.035-0.251,0.085-0.371,0.137c-0.131,0.047-0.243,0.1-0.35,0.165
		c-0.126,0.058-0.227,0.123-0.329,0.203c-0.127,0.074-0.179,0.174-0.286,0.278c-0.11,0.108-0.147,0.208-0.237,0.356
		C227.061,188.622,227.042,188.807,226.981,188.984z"/>
</g>
<g>
	<path fill="#DC00DC" d="M270.859,192.665c0.023-0.25,0.025-0.491,0.092-0.737c0.07-0.24,0.146-0.517,0.257-0.74
		c0.103-0.235,0.207-0.481,0.351-0.689c0.137-0.216,0.268-0.448,0.428-0.648c0.156-0.205,0.307-0.424,0.488-0.606
		c0.178-0.187,0.35-0.389,0.547-0.56c0.381-0.36,0.807-0.678,1.254-0.978l0.524-0.353l1.056,1.029
		c0.098,0.095,0.145,0.096,0.289,0.144c0.129,0.051,0.396,0.092,0.676,0.11c0.586,0.039,1.296-0.013,2.016-0.081
		c1.453-0.141,2.992-0.366,4.568-0.48c1.578-0.109,3.218-0.139,4.873,0.144c0.824,0.148,1.658,0.377,2.43,0.773
		c0.387,0.186,0.753,0.428,1.074,0.713c0.326,0.277,0.588,0.622,0.783,0.976c-0.373-0.178-0.731-0.31-1.096-0.399
		c-0.367-0.08-0.729-0.128-1.091-0.154c-0.728-0.035-1.453,0.013-2.183,0.091c-1.461,0.173-2.936,0.447-4.45,0.704
		c-0.759,0.12-1.524,0.249-2.308,0.347c-0.783,0.103-1.582,0.184-2.412,0.214c-0.832,0.027-1.691,0.016-2.647-0.183
		c-0.481-0.125-0.991-0.259-1.526-0.627c-0.525-0.347-1.009-0.972-1.152-1.624l1.58,0.676c-0.392,0.142-0.786,0.299-1.18,0.487
		c-0.389,0.193-0.779,0.401-1.16,0.636c-0.201,0.108-0.373,0.244-0.561,0.373c-0.191,0.128-0.354,0.276-0.54,0.417
		c-0.196,0.142-0.323,0.297-0.503,0.459C271.154,192.26,271.029,192.483,270.859,192.665z"/>
</g>
<g>
	<path fill="#DC00DC" d="M253.403,185.02c0.07-0.242,0.148-0.477,0.24-0.697c0.097-0.222,0.159-0.452,0.302-0.65
		c0.257-0.406,0.542-0.856,0.876-1.214c0.163-0.18,0.337-0.349,0.51-0.522c0.175-0.171,0.351-0.344,0.543-0.494
		c0.391-0.29,0.795-0.572,1.212-0.835l0.545-0.344l1.104,0.685c0.259,0.16,0.442,0.374,0.701,0.529
		c0.264,0.149,0.481,0.353,0.767,0.479c0.28,0.124,0.526,0.322,0.825,0.417c0.146,0.055,0.287,0.127,0.432,0.194
		c0.141,0.079,0.295,0.115,0.445,0.168c0.304,0.084,0.607,0.256,0.931,0.302l0.491,0.13c0.167,0.06,0.337,0.1,0.508,0.115
		c0.173,0.032,0.348,0.052,0.531,0.095c0.181,0.032,0.375,0.098,0.558,0.09c0.375,0.028,0.773,0.064,1.216,0.135
		c-0.283,0.31-0.611,0.583-0.964,0.849c-0.174,0.141-0.37,0.21-0.563,0.313c-0.195,0.1-0.398,0.175-0.604,0.263
		c-0.41,0.189-0.847,0.21-1.289,0.298c-0.445,0.09-0.887,0.035-1.339,0.018c-0.457,0-0.887-0.144-1.329-0.249
		c-0.447-0.094-0.853-0.316-1.267-0.509c-0.427-0.169-0.778-0.501-1.162-0.755c-0.192-0.125-0.347-0.321-0.515-0.486
		c-0.166-0.17-0.328-0.345-0.48-0.524l1.648,0.341c-0.367,0.155-0.75,0.291-1.145,0.419c-0.201,0.059-0.378,0.161-0.578,0.228
		c-0.197,0.074-0.392,0.153-0.6,0.219c-0.214,0.067-0.381,0.155-0.586,0.228c-0.194,0.08-0.41,0.145-0.622,0.223
		c-0.213,0.07-0.429,0.195-0.653,0.28C253.877,184.859,253.643,184.943,253.403,185.02z"/>
</g>
</svg>
