<?xml version="1.0" encoding="utf-8"?>
<!-- Generator: Adobe Illustrator 16.0.0, SVG Export Plug-In . SVG Version: 6.00 Build 0)  -->
<!DOCTYPE svg PUBLIC "-//W3C//DTD SVG 1.1//EN" "http://www.w3.org/Graphics/SVG/1.1/DTD/svg11.dtd">
<svg version="1.1"
	 id="svg12211" xmlns:dc="http://purl.org/dc/elements/1.1/" xmlns:cc="http://creativecommons.org/ns#" xmlns:rdf="http://www.w3.org/1999/02/22-rdf-syntax-ns#" xmlns:svg="http://www.w3.org/2000/svg" xmlns:sodipodi="http://sodipodi.sourceforge.net/DTD/sodipodi-0.dtd" xmlns:inkscape="http://www.inkscape.org/namespaces/inkscape" inkscape:export-ydpi="72.021774" inkscape:export-xdpi="72.021774" inkscape:export-filename="C:\Users\Zealotlee\Dropbox\Small Projects\Steves Fuzzballs\fuschia-fuzzle.png" sodipodi:docname="acc-face-mustache.svg" inkscape:version="0.91 r13725"
	 xmlns="http://www.w3.org/2000/svg" xmlns:xlink="http://www.w3.org/1999/xlink" x="0px" y="0px" width="272.94px"
	 height="148.309px" viewBox="115.687 182.605 272.94 148.309" enable-background="new 115.687 182.605 272.94 148.309"
	 xml:space="preserve">
<sodipodi:namedview  showguides="true" showgrid="false" inkscape:cy="193.02625" inkscape:cx="369.48506" inkscape:zoom="0.71220416" borderopacity="1.0" bordercolor="#666666" pagecolor="#ffffff" id="base" inkscape:window-maximized="1" inkscape:window-y="-8" inkscape:window-x="-8" inkscape:window-height="988" inkscape:window-width="1680" inkscape:pageshadow="2" inkscape:current-layer="layer1" inkscape:pageopacity="0.0" inkscape:document-units="px">
	</sodipodi:namedview>
<g>
	<path fill="#E2DCDC" d="M118.804,245.671c0,0,14.577-24.142,40.955-24.559c26.378-0.417,162.179-2.628,175.028-1.647
		s39.268,7.932,50.684,26.206C396.888,263.945,118.471,272.896,118.804,245.671z"/>
	<path fill="#F4EFEF" stroke="#E2DCDC" stroke-width="5" stroke-miterlimit="10" d="M157.836,234.358
		c0,0,8.296-32.473,12.298-37.276c4.002-4.803,7.023-4.767,15.003-7.331c19.667-6.32,109.563-6.067,134,0
		c9.82,2.438,9.668,3.539,10.668,5.815s7.43,36.836,7.43,36.836S242.868,247.871,157.836,234.358z"/>
	<path fill="#F4EFEF" stroke="#E2DCDC" stroke-width="5" stroke-miterlimit="10" d="M147.471,325.112c0,0,27.667-24.667,104-24.667
		c76.333,0,102.333,26,102.333,26l31.666-80.774c0,0-48.332-24.559-132-24.559c-83.667,0-134.667,24.559-134.667,24.559
		L147.471,325.112z"/>
	<polygon fill="#F21C0C" stroke="#B92500" stroke-width="5" stroke-miterlimit="10" points="279.114,251.112 259.064,251.112 
		259.064,231.063 242.006,231.063 242.006,251.112 221.958,251.112 221.958,268.171 242.006,268.171 242.006,288.219 
		259.064,288.219 259.064,268.171 279.114,268.171 	"/>
</g>
</svg>
