<?xml version="1.0" encoding="utf-8"?>
<!-- Generator: Adobe Illustrator 16.0.0, SVG Export Plug-In . SVG Version: 6.00 Build 0)  -->
<!DOCTYPE svg PUBLIC "-//W3C//DTD SVG 1.1//EN" "http://www.w3.org/Graphics/SVG/1.1/DTD/svg11.dtd">
<svg version="1.1"
	 id="svg12211" xmlns:dc="http://purl.org/dc/elements/1.1/" xmlns:cc="http://creativecommons.org/ns#" xmlns:rdf="http://www.w3.org/1999/02/22-rdf-syntax-ns#" xmlns:svg="http://www.w3.org/2000/svg" xmlns:sodipodi="http://sodipodi.sourceforge.net/DTD/sodipodi-0.dtd" xmlns:inkscape="http://www.inkscape.org/namespaces/inkscape" inkscape:export-ydpi="72.021774" inkscape:export-xdpi="72.021774" inkscape:export-filename="C:\Users\Zealotlee\Dropbox\Small Projects\Steves Fuzzballs\fuschia-fuzzle.png" sodipodi:docname="acc-face-mustache.svg" inkscape:version="0.91 r13725"
	 xmlns="http://www.w3.org/2000/svg" xmlns:xlink="http://www.w3.org/1999/xlink" x="0px" y="0px" width="262.547px"
	 height="254.779px" viewBox="125.691 133.309 262.547 254.779" enable-background="new 125.691 133.309 262.547 254.779"
	 xml:space="preserve">
<path fill="#EE2D68" stroke="#C42052" stroke-width="4" stroke-miterlimit="10" d="M384.727,205.016
	c0.537,3.398-14.834,1.032-16.055,9.133c-1.22,8.101-6.871,47.708-21.681,54.908c-14.812,7.198-37.194,14.521-50.21,8.967
	c-13.018-5.553,7.15-46.997,13.824-44.309c6.675,2.688,14.011,11.127,24.83,6.013c10.818-5.115,11.248-21.327,16.562-30.239
	c5.312-8.911,15.517-12.531,27.08-10.67C390.641,200.68,384.727,205.016,384.727,205.016z"/>
<path fill="#EE2D68" stroke="#C42052" stroke-width="4" stroke-miterlimit="10" d="M312.745,228.966c0,0,14.508-4.914,18.883-20.275
	s3.134-16.476-0.296-23.146s-11.395-7.543-13.089-14.896c-1.694-7.354,5.47-12.583,6.321-16.528
	c0.853-3.945-8.975-6.491-14.393-3.955s-13.224,11.227-11.529,18.58c1.694,7.354,9.711,11.414,11.195,19.252
	s-3.787,8.711-6.096,13.03C301.434,205.347,312.745,228.966,312.745,228.966z"/>
<path fill="#EE2D68" stroke="#C42052" stroke-width="4" stroke-miterlimit="10" d="M243.811,305.436c0,0,15.75,24.701,44.417,15.01
	c28.668-9.692,29.86-23.969,38.9-24.438s16.115,4.766,14.73,8.118c-1.387,3.354-6.33,8.109-0.377,8.972
	c5.955,0.862,16.58-3.725,11.172-16.434c-5.407-12.709-18.434-19.839-31.809-18.264c-13.375,1.576-13.623,9.064-20.959,0.666
	C292.55,270.669,241.792,292.171,243.811,305.436z"/>
<path fill="#EE2D68" stroke="#C42052" stroke-width="4" stroke-miterlimit="10" d="M243.533,309.821c0,0,4.918,10.444,0.835,16.37
	c-4.083,5.925-19.211,13.335-24.524,14.102c-5.313,0.767-17.289-2.143-20.322,8.481c-3.033,10.625-5.558,16.432,1.912,19.104
	c7.47,2.672,13.382-1.663,16.549,2.303c3.167,3.967,2.946,6.46,0.369,9.079s-28.888,14.225-39.489-0.467
	c-10.601-14.69-21.368-32.855-8.138-47.119s25.974-18.565,35.693-19.346C216.137,311.548,239.227,300.93,243.533,309.821z"/>
<path fill="#EE2D68" stroke="#C42052" stroke-width="4" stroke-miterlimit="10" d="M194.904,303.463c0,0-20.585,8.831-28.86,4.116
	s-9.696-11.374-16.702-9.817c-7.007,1.559-0.448,8.025,1.371,10.604c1.818,2.579-9.503,3.366-13.422-0.472
	s-15.029-12.696-6.393-21.313c8.637-8.617,15.113-13.558,40.897-2.067C197.579,296.002,194.904,303.463,194.904,303.463z"/>
<path fill="#F05581" stroke="#C42052" stroke-width="2" stroke-miterlimit="10" d="M144.778,310.499c0,0-5.356-9.413-4.055-13.745
	c1.301-4.332,5.792-8.204,10.406-6.163c4.614,2.041,15.846,14.261,22.29,14.328s13.887-5.472,16.58-3.726s-0.021,5.035-3.769,5.704
	c-3.748,0.668-11.741,4.824-18.962,1.25c-7.221-3.575-13.655-12.271-17.927-10.386c-4.271,1.883-3.646,3.469,1.371,10.604
	C152.325,310.423,144.778,310.499,144.778,310.499z"/>
<path fill="#F05581" stroke="#C42052" stroke-width="2" stroke-miterlimit="10" d="M244.359,311.88c0,0-1.055,6.012-7.004,10.762
	c-5.949,4.751-20.63,9.733-28.532,10.039c-7.902,0.307-17.9,11.064-19.62,15.352c-1.72,4.287-5.054,19.236-0.167,25.534
	c4.887,6.297,17.376,9.999,27.759,5.306c5.592-2.604,3.374-5.649,2.281-7.169c-1.093-1.521-2.291-4.229-11.826-2.893
	c-9.535,1.337-11.12-6.269-10.577-9.058c0.542-2.789,1.737-16.867,9.08-18.076c7.343-1.209,13.533,1.19,23.812-4.958
	S249.561,328.098,244.359,311.88z"/>
<ellipse transform="matrix(-0.3666 -0.9304 0.9304 -0.3666 15.3662 669.6443)" fill="#DD386A" stroke="#C42052" stroke-miterlimit="10" cx="235.638" cy="329.591" rx="4.245" ry="4.431"/>
<ellipse transform="matrix(-0.3666 -0.9304 0.9304 -0.3666 -3.9837 668.5095)" fill="#DD386A" stroke="#C42052" stroke-miterlimit="10" cx="225.576" cy="335.611" rx="3.567" ry="3.312"/>
<ellipse transform="matrix(-0.3665 -0.9304 0.9304 -0.3665 -22.2936 661.6771)" fill="#DD386A" stroke="#C42052" stroke-miterlimit="10" cx="214.102" cy="338.428" rx="3.452" ry="3.638"/>
<ellipse transform="matrix(-0.3666 -0.9304 0.9304 -0.3666 -41.13 653.6252)" fill="#DD386A" stroke="#C42052" stroke-miterlimit="10" cx="201.94" cy="340.814" rx="3.861" ry="3.918"/>
<ellipse transform="matrix(-0.3666 -0.9304 0.9304 -0.3666 -60.299 664.479)" fill="#DD386A" stroke="#C42052" stroke-miterlimit="10" cx="196.038" cy="352.765" rx="3.732" ry="3.312"/>
<ellipse transform="matrix(-0.3666 -0.9304 0.9304 -0.3666 -71.9131 677.0331)" fill="#DD386A" stroke="#C42052" stroke-miterlimit="10" cx="194.504" cy="362.996" rx="3.732" ry="3.725"/>
<ellipse transform="matrix(-0.3666 -0.9304 0.9304 -0.3666 -70.3232 695.4944)" fill="#DD386A" stroke="#C42052" stroke-miterlimit="10" cx="201.588" cy="371.686" rx="3.498" ry="3.405"/>
<ellipse transform="matrix(-0.3666 -0.9304 0.9304 -0.3666 -57.1541 708.9048)" fill="#DD386A" stroke="#C42052" stroke-miterlimit="10" cx="212.741" cy="373.908" rx="3.218" ry="3.732"/>
<path fill="#F05581" stroke="#C42052" stroke-width="2" stroke-miterlimit="10" d="M246.618,309.029
	c0,0,23.667,17.281,39.053,10.017s21.144-15.049,30.2-21.073c9.057-6.025,16.941-11.462,23.454-7.147
	c6.512,4.313,14.021,12.972,11.022,19.976s-13.838,2.95-11.164-1.861c2.674-4.813,0.113-10.426-2.967-11.414
	c-3.08-0.986-10.607-4.844-17.229,3.279c-6.621,8.124-16.521,16.083-23.752,19.109C288.006,322.94,262.664,330.445,246.618,309.029z
	"/>
<ellipse transform="matrix(-0.3666 -0.9304 0.9304 -0.3666 187.5375 727.5276)" fill="#DD386A" stroke="#C42052" stroke-miterlimit="10" cx="341.417" cy="299.927" rx="3.576" ry="3.079"/>
<ellipse transform="matrix(-0.3667 -0.9304 0.9304 -0.3667 179.4335 740.7736)" fill="#DD386A" stroke="#C42052" stroke-miterlimit="10" cx="341.856" cy="309.313" rx="3.514" ry="3.032"/>
<ellipse transform="matrix(-0.3666 -0.9304 0.9304 -0.3666 179.8957 714.3124)" fill="#DD386A" stroke="#C42052" stroke-miterlimit="10" cx="333.087" cy="295.923" rx="3.389" ry="3.886"/>
<ellipse transform="matrix(-0.3666 -0.9304 0.9304 -0.3666 162.3301 707.5441)" fill="#DD386A" stroke="#C42052" stroke-miterlimit="10" cx="322.01" cy="298.516" rx="2.115" ry="3.825"/>
<path fill="#F05581" stroke="#C42052" stroke-width="2" stroke-miterlimit="10" d="M301.848,271.927c0,0,20.979,1.195,33.658-5.94
	c12.68-7.135,22.827-22.095,27.813-39.3c4.984-17.205,5.759-16.315,9.688-17.544c-2.928,2.011-5.382,5.264-7.252,21.453
	s-9.147,30.986-13.955,34.723c-4.809,3.736-35.442,19.738-53.698,12.545C300.704,273.615,301.848,271.927,301.848,271.927z"/>
<ellipse transform="matrix(-0.3666 -0.9304 0.9304 -0.3666 170.3656 667.6187)" fill="#DD386A" stroke="#C42052" stroke-miterlimit="10" cx="312.431" cy="275.819" rx="3.047" ry="4.416"/>
<ellipse transform="matrix(-0.3665 -0.9304 0.9304 -0.3665 190.4322 677.6146)" fill="#DD386A" stroke="#C42052" stroke-miterlimit="10" cx="325.895" cy="273.979" rx="3.224" ry="3.809"/>
<ellipse transform="matrix(-0.3667 -0.9304 0.9304 -0.3667 209.5766 682.6346)" fill="#DD386A" stroke="#C42052" stroke-miterlimit="10" cx="337.138" cy="269.983" rx="2.82" ry="3.918"/>
<ellipse transform="matrix(-0.3666 -0.9304 0.9304 -0.3666 232.5003 685.9879)" fill="#DD386A" stroke="#C42052" stroke-miterlimit="10" cx="349.761" cy="263.851" rx="3.11" ry="2.985"/>
<ellipse transform="matrix(-0.3664 -0.9304 0.9304 -0.3664 253.2794 679.5107)" fill="#DD386A" stroke="#C42052" stroke-miterlimit="10" cx="357.992" cy="253.521" rx="2.985" ry="3.856"/>
<ellipse transform="matrix(-0.3666 -0.9304 0.9304 -0.3666 271.6339 667.64)" fill="#DD386A" stroke="#C42052" stroke-miterlimit="10" cx="363.093" cy="241.351" rx="2.736" ry="3.481"/>
<path fill="#F05581" stroke="#C42052" stroke-width="2" stroke-miterlimit="10" d="M320.539,151.028c0,0-12.107,11.589-9.745,20.685
	c2.362,9.096,10.442,9.923,14.279,18.305c3.837,8.381-6.8,27.258-12.323,33.054c0.266,3.635,0.359,5.76,0.359,5.76
	s8.912-3.644,12.597-9.087c3.685-5.444,8.489-16.193,8.666-23.49s-2.411-9.094-5.154-13.691c-2.743-4.596-7.776-3.801-10.974-11.915
	c-2.736-6.943,4.748-11.363,6.322-16.528C324.011,149.66,321.092,150.474,320.539,151.028z"/>
<ellipse transform="matrix(-0.3666 -0.9304 0.9304 -0.3666 233.3574 604.8004)" fill="#DD386A" stroke="#C42052" stroke-miterlimit="10" cx="322.555" cy="222.965" rx="2.861" ry="3.608"/>
<ellipse transform="matrix(-0.3666 -0.9304 0.9304 -0.3666 252.737 596.5314)" fill="#DD386A" stroke="#C42052" stroke-miterlimit="10" cx="329.432" cy="212.232" rx="2.488" ry="2.479"/>
<ellipse transform="matrix(-0.3664 -0.9304 0.9304 -0.3664 265.6487 590.3896)" fill="#DD386A" stroke="#C42052" stroke-miterlimit="10" cx="333.828" cy="204.752" rx="3.358" ry="2.239"/>
<ellipse transform="matrix(-0.3666 -0.9304 0.9304 -0.3666 273.6235 573.6077)" fill="#DD386A" stroke="#C42052" stroke-miterlimit="10" cx="332.066" cy="193.663" rx="3.873" ry="2.425"/>
<ellipse transform="matrix(-0.3665 -0.9304 0.9304 -0.3665 277.9873 560.6412)" fill="#DD386A" stroke="#C42052" stroke-miterlimit="10" cx="329.858" cy="185.683" rx="3.135" ry="2.799"/>
<ellipse transform="matrix(-0.3666 -0.9304 0.9304 -0.3666 276.3679 547.2692)" fill="#DD386A" stroke="#C42052" stroke-miterlimit="10" cx="324.471" cy="179.561" rx="2.488" ry="1.897"/>
<ellipse transform="matrix(-0.3666 -0.9304 0.9304 -0.3666 271.5484 534.7549)" fill="#DD386A" stroke="#C42052" stroke-miterlimit="10" cx="317.804" cy="174.943" rx="2.464" ry="1.741"/>
<ellipse transform="matrix(-0.3666 -0.9304 0.9304 -0.3666 278.8414 521.7902)" fill="#DD386A" stroke="#C42052" stroke-miterlimit="10" cx="317.03" cy="165.982" rx="3.172" ry="1.944"/>
<ellipse transform="matrix(-0.3667 -0.9303 0.9303 -0.3667 289.1726 513.9345)" fill="#DD386A" stroke="#C42052" stroke-miterlimit="10" cx="319.5" cy="158.55" rx="2.013" ry="1.99"/>
<path fill="#EE2D68" stroke="#C42052" stroke-width="4" stroke-miterlimit="10" d="M150.053,258.85
	c-11.794-28.915-5.843-94.228,52.482-117.208c58.324-22.981,91.279,22.992,97.309,36.258s43.123,93.167-41.064,126.339
	C174.591,337.41,150.053,258.85,150.053,258.85z"/>
<ellipse transform="matrix(-0.3666 -0.9304 0.9304 -0.3666 35.3942 519.2297)" fill="#28131B" stroke="#C42052" stroke-width="2" stroke-miterlimit="10" cx="194.444" cy="247.567" rx="36.01" ry="36.662"/>
<path fill="#F9D4E8" d="M184.021,258.027c7.873,0.924,15.955,3.339,16.797,8.021c0.842,4.683-1.562,7.233-10.778,7.255
	c-9.216,0.022-11.105-3.244-10.942-7.921C179.26,260.705,181.278,257.706,184.021,258.027z"/>
<path fill="#F9D4E8" d="M181.058,234.73c6.112-0.931,19.247-3.573,23.372,2.823c4.125,6.396,12.614-0.558,12.498-4.925
	c-0.116-4.366-0.921-9.463-10.743-13.013c-9.821-3.55-27.154-1.734-30.189,2.269C172.961,225.887,170.275,236.372,181.058,234.73z"
	/>
<ellipse transform="matrix(-0.3666 -0.9304 0.9304 -0.3666 170.8837 543.8114)" fill="#28131B" stroke="#C42052" stroke-width="2" stroke-miterlimit="10" cx="270.555" cy="213.737" rx="36.01" ry="36.664"/>
<path fill="#F9D4E8" d="M260.132,224.2c7.873,0.924,15.955,3.339,16.798,8.021c0.842,4.682-1.563,7.233-10.779,7.255
	c-9.215,0.022-11.104-3.245-10.941-7.921C255.371,226.878,257.389,223.878,260.132,224.2z"/>
<path fill="#F9D4E8" d="M257.168,200.902c6.111-0.931,19.247-3.573,23.372,2.823s12.614-0.558,12.498-4.925
	c-0.116-4.366-0.921-9.463-10.743-13.013c-9.82-3.55-27.154-1.734-30.189,2.269C249.072,192.06,246.386,202.544,257.168,200.902z"/>
<path fill="#F05581" d="M284.702,169.457c0,0-24.606-44.793-80.159-23.228c-55.552,21.565-49.9,59.09-52.643,67.604
	c12.108-12.85,39.465-40.501,60.69-47.182C233.815,159.97,266.551,162.521,284.702,169.457z"/>
<path fill="#D82E66" d="M185.455,299.932c0,0,33.144,9.371,69.919-8.027c36.774-17.398,53.967-37.745,53.967-37.745
	s-15.291,37.718-51.134,49.567C222.364,315.577,197.09,312.344,185.455,299.932z"/>
<path fill="#F05581" d="M159.368,285.788c-4.559-5.579-11.53-4.951-16.911-0.774c-3.41,2.646-9.734,6.94-7.74,11.922
	c2.746-3.758,5.188-9.131,10.332-9.621c4.983-0.477,10.012,1.399,15.027,1.321c0.07-1.28-1.172-1.964-1.923-2.854"/>
<path fill="#F05581" d="M211.685,315.834c-13.375,2.432-29.799,5.12-36.507,18.64c-5.036,10.149-3.435,23.152,1.251,33.138
	c1.809,3.854,4.282,7.227,7,10.48c-3.549-10.645-7.891-22.611-4.744-33.896c3.092-11.09,13.149-17.156,23.608-20.193
	c7.214-2.095,14.712-3.038,22.141-4.013c-3.569-4.073-9.054-7.267-14.173-4.079"/>
<path fill="#F05581" d="M296.438,284.864c3.144,3.452,4.955,5.079,9.457,3.708c4.049-1.233,8.193-1.785,12.154-3.35
	c3.098-1.225,6.773-3.117,10.211-2.955c2.414,0.114,3.563,1.717,5.338,3.207c-3.923-5.592-18.145,8.967-21.146,11.227
	c-7.617,5.734-14.742,3.441-23.544,4.249c-3.462,0.317-7.084,0.601-10.425,1.616c-0.605-0.617-1.219-1.367-1.385-2.284
	c3.139-3.267,7.211-5.9,10.74-8.726c1.543-1.236,9.584-5.158,8.809-6.775"/>
<path fill="#F05581" d="M316.844,241.919c6.584,2.841,13.613,5.579,20.861,3.69c6.031-1.572,11.079-6.066,13.086-11.995
	c1.529-4.516,0.645-9.188,1.557-13.768c0.801-4.011,3.366-6.983,6.561-9.391c2.619-1.975,5.541-3.508,8.482-4.94
	c-4.297,2.977-7.865,6.162-9.643,11.222c-2.215,6.305-2.212,13.169-4.408,19.501c-4.41,12.711-20.49,22.659-33.666,15.861
	c-4.374-2.257-4.514-5.877-3.04-10.096"/>
<path fill="#F05581" d="M310.01,154.444c-3.046,1.72-4.32,5.217-5.697,8.25c-1.345,2.963-0.395,4.382,0.701,7.261
	c1.008-1.004-0.011-2.039,0.053-3.262c0.068-1.313,0.891-2.284,1.59-3.261c1.603-2.243,3.748-5.074,2.051-7.989"/>
<path fill="#F05581" d="M313.744,185.452c-0.186,5.041-0.549,10.074-0.736,15.114c-0.047,1.262-0.706,5.278,1.109,4.24
	c1.994-1.141,1.875-7.815,1.814-9.651c-0.113-3.493-1.105-6.658-2.689-9.748"/>
</svg>
