<?xml version="1.0" encoding="utf-8"?>
<!-- Generator: Adobe Illustrator 16.0.0, SVG Export Plug-In . SVG Version: 6.00 Build 0)  -->
<!DOCTYPE svg PUBLIC "-//W3C//DTD SVG 1.1//EN" "http://www.w3.org/Graphics/SVG/1.1/DTD/svg11.dtd">
<svg version="1.1"
	 id="svg12211" xmlns:dc="http://purl.org/dc/elements/1.1/" xmlns:cc="http://creativecommons.org/ns#" xmlns:rdf="http://www.w3.org/1999/02/22-rdf-syntax-ns#" xmlns:svg="http://www.w3.org/2000/svg" xmlns:sodipodi="http://sodipodi.sourceforge.net/DTD/sodipodi-0.dtd" xmlns:inkscape="http://www.inkscape.org/namespaces/inkscape" inkscape:export-ydpi="72.021774" inkscape:export-xdpi="72.021774" inkscape:export-filename="C:\Users\Zealotlee\Dropbox\Small Projects\Steves Fuzzballs\fuschia-fuzzle.png" sodipodi:docname="acc-hat-ballcap.svg" inkscape:version="0.91 r13725"
	 xmlns="http://www.w3.org/2000/svg" xmlns:xlink="http://www.w3.org/1999/xlink" x="0px" y="0px" width="481.524px"
	 height="342.613px" viewBox="13.376 86.6 481.524 342.613" enable-background="new 13.376 86.6 481.524 342.613"
	 xml:space="preserve">
<sodipodi:namedview  showguides="true" showgrid="false" inkscape:cy="171.5403" inkscape:cx="385.24156" inkscape:zoom="1.4142136" borderopacity="1.0" bordercolor="#666666" pagecolor="#ffffff" id="base" inkscape:window-maximized="1" inkscape:window-y="-8" inkscape:window-x="-8" inkscape:window-height="988" inkscape:window-width="1680" inkscape:pageshadow="2" inkscape:current-layer="layer1" inkscape:pageopacity="0.0" inkscape:document-units="px">
	</sodipodi:namedview>
<g>
	<g>
		<path fill="#C21517" stroke="#931919" stroke-width="5" stroke-miterlimit="10" d="M100.804,381.112
			c6.507-4.254,66.667-47,107.667-59s72.667-17.001,100-8c27.334,9,43.668,11.667,69,23.667c25.333,12,41.667,28.333,44,29.333
			s2.667-4,8.333-6.667c5.667-2.667,8.667-9.667,8-11.333c-0.667-1.667-74.333-43.333-101.333-52.667s-40.666-8.334-86-11
			c-45.333-2.668-149.667,27-180.333,64c-4,6,2.333,9,6,10s7.333,5.333,10.667,9.333C90.138,372.778,96.859,383.691,100.804,381.112
			z"/>
		<path fill="#FE2123" stroke="#C7201F" stroke-width="3" stroke-miterlimit="10" d="M83.804,363.778c0,0-12.667,0.333-20.333,9
			c-7.667,8.667-17.667,24.333-19.333,31c-1.667,6.667,3,13,12.667,10.667s32.333-15,35.667-38
			C95.804,353.445,83.804,363.778,83.804,363.778z"/>
		<path fill="#C7201F" stroke="#931919" stroke-width="3" stroke-miterlimit="10" d="M73.804,426.778
			c-6.988-9.919-11.667-22.333-10.333-35.333s13.768-28.773,21.551-30.554c7.783-1.779,14.449,17.066,14.783,25.31
			c0.333,8.244,3.17,25.244-6.748,32.577C83.138,426.112,75.722,429.5,73.804,426.778z"/>
		<path fill="none" stroke="#931919" stroke-width="3" stroke-linecap="round" stroke-miterlimit="10" d="M111.138,348.112
			c7.702-7.978,15.605-16.346,25.963-20.822c7.919-3.423,16.62-4.388,24.852-6.809c7.737-2.275,15.084-5.655,22.899-7.693
			c11.554-3.014,23.584-4.298,35.434-5.527c8.328-0.863,16.796-1.879,25.184-1.481"/>
		<path fill="none" stroke="#931919" stroke-width="3" stroke-linecap="round" stroke-miterlimit="10" d="M403.138,341.445
			c-5.038-5.891-12.323-9.185-19.228-12.362c-14.758-6.791-30.034-12.419-45.053-18.595c-8.096-3.329-16.603-6.459-23.914-11.352
			c-1.821-1.22-2.043-1.725-4.279-2.316c-11.047-2.926-24.93-2.645-36.303-2.34c-5.538,0.149-11.033,0.908-16.557,1.299"/>
	</g>
	<path fill="#1C1104" d="M93.622,261.92c0,0,3-33,75.5-58s213-30.5,244,61.5S402.622,205.92,93.622,261.92z"/>
	<path fill="#49351D" stroke="#1C1104" stroke-width="5" stroke-miterlimit="10" d="M69.4,350.266c0,0-52.5-59-53.5-91.5
		c-1-32.5,30-85.5,67.5-76c-2,21-4,50,20.5,63c24.5,13,40,1,40,1s-8.5-21-25-40s-20-46.5-19-55.5s22-47,73.5-57.5s82,0,82,0
		s68-12.5,104,8.5s54,33.5,50.5,57s-9,35.5-18,49s-24,28.5-23.5,39c11.5,6.5,26,12.5,45.5-7.5c19.5-20,18-34,13-56.5
		c15.5-3.5,65.5,12,65.5,69c0,57-51.5,98-51.5,98s-92-64.5-182.5-64.5C167.9,285.766,69.4,350.266,69.4,350.266z"/>
	<g>
		<g>
			<path fill="none" stroke="#EAC81F" stroke-width="3" stroke-linecap="round" stroke-miterlimit="10" d="M68.206,334.264
				c2.442,2.877,3.951,4.513,3.951,4.513s1.5-1.489,4.447-4.022"/>
			
				<path fill="none" stroke="#EAC81F" stroke-width="3" stroke-linecap="round" stroke-miterlimit="10" stroke-dasharray="11.9143,2.9786" d="
				M78.878,332.838c19.695-16.305,82.016-60.561,178.279-60.561c98.241,0,161.479,46.094,179.901,61.53"/>
			<path fill="none" stroke="#EAC81F" stroke-width="3" stroke-linecap="round" stroke-miterlimit="10" d="M438.196,334.77
				c2.955,2.524,4.461,4.008,4.461,4.008s1.362-1.769,3.597-4.796"/>
			
				<path fill="none" stroke="#EAC81F" stroke-width="3" stroke-linecap="round" stroke-miterlimit="10" stroke-dasharray="11.8554,2.9639" d="
				M448.005,331.592c11.316-15.536,36.652-52.228,36.652-69.314c0-20.609-5.704-53.503-38.896-66.624"/>
			<path fill="none" stroke="#EAC81F" stroke-width="3" stroke-linecap="round" stroke-miterlimit="10" d="M444.368,195.121
				c-1.823-0.675-3.726-1.291-5.711-1.844c0.473,1.989,0.901,3.941,1.278,5.863"/>
			
				<path fill="none" stroke="#EAC81F" stroke-width="3" stroke-linecap="round" stroke-miterlimit="10" stroke-dasharray="11.9317,2.9829" d="
				M440.47,202.075c2.889,17.096,1.108,31.782-11.313,47.202c-14.5,18-46,24.5-63.5,9c-17.5-15.5-13.5-32,4.5-47.5
				s30.5-35,25.5-57.5s-43-59.5-138.5-44.5c-77.5-18.5-131.5,17.5-138.5,40s16,50,27.5,61.5s21,38.5-4.5,52
				c-25.5,13.5-54-2-66.5-27.5c-7.673-15.653-7.064-28.039-5.449-35.272"/>
			<path fill="none" stroke="#EAC81F" stroke-width="3" stroke-linecap="round" stroke-miterlimit="10" d="M70.061,198.058
				c0.961-3.632,2.077-5.613,2.077-5.613s-2.278,0.32-5.766,1.615"/>
			
				<path fill="none" stroke="#EAC81F" stroke-width="3" stroke-linecap="round" stroke-miterlimit="10" stroke-dasharray="11.7577,2.9394" d="
				M63.655,195.174c-12.134,5.454-32.998,21.277-32.998,65.602c0,25.932,25.625,59.272,36.603,72.366"/>
		</g>
	</g>
	<g>
		<path fill="#FFFFFF" stroke="#000000" stroke-width="3" stroke-linejoin="bevel" stroke-miterlimit="10" d="M289.088,167.586
			l13.75-13.375c0,0-0.75-5.375,1.625-8.375s9.375-3,11.25,0s0,7.5-3.125,11.375c12.875-9.125,18-1.375,10.875,5
			c-4.379,3.918-11.375,3.625-11.375,3.625l-12.375,10.75L289.088,167.586z"/>
		<path fill="#FFFFFF" stroke="#000000" stroke-width="3" stroke-linejoin="bevel" stroke-miterlimit="10" d="M232.531,168.834
			l-13.75-13.375c0,0,0.75-5.375-1.625-8.375s-9.375-3-11.25,0s0,7.5,3.125,11.375c-12.875-9.125-18-1.375-10.875,5
			c4.379,3.918,11.375,3.625,11.375,3.625l12.375,10.75L232.531,168.834z"/>
		<path fill="#FFFFFF" stroke="#000000" stroke-width="3" stroke-linejoin="bevel" stroke-miterlimit="10" d="M289.088,215.253
			l13.75,13.375c0,0-0.75,5.375,1.625,8.375s9.375,3,11.25,0s0-7.5-3.125-11.375c12.875,9.125,18,1.375,10.875-5
			c-4.379-3.918-11.375-3.625-11.375-3.625l-12.375-10.75L289.088,215.253z"/>
		<path fill="#FFFFFF" stroke="#000000" stroke-width="3" stroke-linejoin="bevel" stroke-miterlimit="10" d="M232.531,214.005
			l-13.75,13.375c0,0,0.75,5.375-1.625,8.375s-9.375,3-11.25,0s0-7.5,3.125-11.375c-12.875,9.125-18,1.375-10.875-5
			c4.379-3.918,11.375-3.625,11.375-3.625l12.375-10.75L232.531,214.005z"/>
		<g>
			<path fill="#FFFFFF" stroke="#000000" stroke-width="3" stroke-miterlimit="10" d="M262.38,219.574
				c-4.679,0-53,2.489-48.333-27.344s26.333-31.667,47.167-31.667c33.667,0,45.235,17.629,46.402,31.129
				C307.615,191.693,315.047,219.574,262.38,219.574z"/>
			<g>
				<path d="M225.88,193.907c0-11.167,7.333-20.333,17.833-20.333s11.5,9.833,11.5,16s-6.333,16.833-16.333,16.833
					S225.88,199.741,225.88,193.907z"/>
				<path d="M296.57,193.907c0-11.167-7.332-20.333-17.832-20.333s-11.5,9.833-11.5,16s6.332,16.833,16.332,16.833
					S296.57,199.741,296.57,193.907z"/>
				<path fill="#FFFFFF" stroke="#000000" stroke-width="3" stroke-miterlimit="10" d="M250.38,211.741v8.833
					c0,0,3.333,1.833,5.833,1.667c0-5.667,0-9.668,0-9.668"/>
				<path fill="#FFFFFF" stroke="#000000" stroke-width="3" stroke-miterlimit="10" d="M256.9,212.572l0.5,9.375
					c0,0,4.5,0.688,5.688,0c0-5.875,0-9.063,0-9.063"/>
				<path fill="#FFFFFF" stroke="#000000" stroke-width="3" stroke-miterlimit="10" d="M270.65,212.074v8.5
					c0,0-3.332,1.833-5.832,1.667c0-5.667,0-9.417,0-9.417"/>
			</g>
		</g>
	</g>
</g>
</svg>
