<?xml version="1.0" encoding="utf-8"?>
<!-- Generator: Adobe Illustrator 16.0.0, SVG Export Plug-In . SVG Version: 6.00 Build 0)  -->
<!DOCTYPE svg PUBLIC "-//W3C//DTD SVG 1.1//EN" "http://www.w3.org/Graphics/SVG/1.1/DTD/svg11.dtd">
<svg version="1.1"
	 id="svg12211" xmlns:dc="http://purl.org/dc/elements/1.1/" xmlns:cc="http://creativecommons.org/ns#" xmlns:rdf="http://www.w3.org/1999/02/22-rdf-syntax-ns#" xmlns:svg="http://www.w3.org/2000/svg" xmlns:sodipodi="http://sodipodi.sourceforge.net/DTD/sodipodi-0.dtd" xmlns:inkscape="http://www.inkscape.org/namespaces/inkscape" inkscape:export-ydpi="72.021774" inkscape:export-xdpi="72.021774" inkscape:export-filename="C:\Users\Zealotlee\Dropbox\Small Projects\Steves Fuzzballs\fuschia-fuzzle.png" sodipodi:docname="acc-hat-ballcap.svg" inkscape:version="0.91 r13725"
	 xmlns="http://www.w3.org/2000/svg" xmlns:xlink="http://www.w3.org/1999/xlink" x="0px" y="0px" width="407.763px"
	 height="345.719px" viewBox="46.804 79.321 407.763 345.719" enable-background="new 46.804 79.321 407.763 345.719"
	 xml:space="preserve">
<sodipodi:namedview  showguides="true" showgrid="false" inkscape:cy="171.5403" inkscape:cx="385.24156" inkscape:zoom="1.4142136" borderopacity="1.0" bordercolor="#666666" pagecolor="#ffffff" id="base" inkscape:window-maximized="1" inkscape:window-y="-8" inkscape:window-x="-8" inkscape:window-height="988" inkscape:window-width="1680" inkscape:pageshadow="2" inkscape:current-layer="layer1" inkscape:pageopacity="0.0" inkscape:document-units="px">
	</sodipodi:namedview>
<g>
	<path fill="#382D1E" d="M94.103,372.599c0,0-17.315-0.332-25.731-36.364c-8.416-36.033,0.255-91.278,16.829-104.554
		c16.574-13.276,31.96-35.107,38.667-37.737c6.707-2.63-7.364,22.882-10.784,31.299c-3.419,8.416-23.832,52.076-21.648,75.748
		C93.621,324.661,94.103,372.599,94.103,372.599z"/>
	<path fill="#826941" stroke="#59472D" stroke-width="3" stroke-linecap="round" stroke-miterlimit="10" d="M94.103,372.599
		c0,0-8.504-30.184-8.898-70.819c-0.395-40.637,27.617-93.502,45.37-110.466c17.753-16.964,35.113-33.929,61.151-43.003
		c26.038-9.074,46.554-16.175,68.647-10.258c22.093,5.918,70.62,18.543,110.861,72.987c40.24,54.443-3.156,72.197-10.258,78.115
		c-15.004-0.055-44.457,1.123-65.25,5.009c-20.793,3.885-78.767,16.87-106.189,25.182c-27.423,8.313-64.458,17.837-73.966,25.812
		C106.063,353.13,94.103,372.599,94.103,372.599z"/>
	<path fill="#8E7049" d="M368.918,283.723c0,0,33.539-106.657-120.879-144.707c-31.59,3.243-44.477,8.561-50.001,11.031
		c-5.523,2.47-14.597,58.887-5.129,99.654c9.469,40.767,69.618,50.878,69.618,50.878s86.744-16.029,98.449-11.427
		C372.68,293.757,368.918,283.723,368.918,283.723z"/>
	<path fill="none" stroke="#59472D" stroke-width="5" stroke-linecap="round" stroke-miterlimit="10" d="M92.649,362.374
		c0,0,10.309-17.198,24.512-26.272c14.203-9.073,45.37-19.726,58.389-23.671c13.019-3.944,100.209-22.487,120.724-25.249
		c20.516-2.761,53.858-5.746,76.442-3.07"/>
	<path fill="#8E7049" stroke="#59472D" stroke-width="5" stroke-linecap="round" stroke-miterlimit="10" d="M360.977,289.154
		c0,0,14.597,2.762,30.772,2.367c16.175-0.396,43.792-2.615,51.682-2.492c7.891,0.125,9.47-2.189,8.285-9.12
		c-1.184-6.931-9.266-38.466-13.605-44.778c-4.341-6.312-20.12-33.57-31.363-45.565c-6.809-7.265-35.119-25.87-45.771-30.999
		c-10.652-5.129-30.773-12.973-46.949-17.138c-16.174-4.166-34.322-9.688-45.369-9.688s-21.308,0.003-25.251,4.144
		c-3.944,4.141,6.314,2.563,11.837,3.746c5.523,1.184,55.148,9.714,80.82,34.597c25.674,24.883,40.644,38.793,45.976,54.302
		C387.372,244.037,396.483,267.455,360.977,289.154z"/>
	<path fill="#826941" stroke="#59472D" stroke-width="5" stroke-linecap="round" stroke-miterlimit="10" d="M89.914,380.408
		c0,0-23.121-7.616-31.274-41.02c-8.153-33.402,3.945-82.324,9.995-95.211c6.05-12.887,33.14-38.137,43.924-48.658
		c10.784-10.521,30.51-31.562,44.976-37.348c14.466-5.786,15.233-6.615,15.781-4.208c0.548,2.407-33.182,28.223-37.961,32.786
		s-25.426,25.604-33.579,31.653c-8.153,6.049-22.093,24.46-26.302,41.82c-4.208,17.358-8.153,39.451-8.153,55.232
		s7.748,32.614,13.606,43.134c5.858,10.521,10.636,14.009,11.907,14.009S89.914,380.408,89.914,380.408z"/>
	<path fill="#826941" stroke="#59472D" stroke-width="3" stroke-linecap="round" stroke-miterlimit="10" d="M46.804,214.721"/>
	<path fill="#826941" stroke="#59472D" stroke-width="5" stroke-linecap="round" stroke-miterlimit="10" d="M360.977,289.154
		c0,0,0.789,15.781-3.945,21.304c-4.734,5.523-24.855,27.617-79.299,45.37c-54.444,17.754-119.146,36.69-140.45,44.187
		c-21.304,7.496-36.296,18.938-41.425,20.516s-18.937,8.285-13.808-16.57c5.129-24.854,15.781-35.902,20.91-46.159
		c5.129-10.258,18.937-16.964,31.562-21.304s83.639-26.828,118.357-33.929C287.596,295.466,319.945,287.971,360.977,289.154z"/>
	<path fill="#59472D" stroke="#382D1E" stroke-width="3" stroke-miterlimit="10" d="M195.079,142.391c0,0-58.587-8.482-76.34-5.918
		c-17.753,2.564-34.718,11.638-32.745,23.08c1.973,11.441,24.263,15.979,49.315,8.482c25.052-7.496,36.493-15.584,42.214-17.951
		s9.666-3.551,14.4-2.762C196.657,148.112,203.956,145.35,195.079,142.391z M120.909,162.118
		c-3.945,0.197-27.222-0.395-21.107-4.537c6.115-4.142,30.576-3.551,40.439-5.326c9.863-1.775,28.603-2.207,28.603-2.207
		C162.137,154.745,124.854,161.92,120.909,162.118z"/>
	<path fill="#59472D" stroke="#382D1E" stroke-width="3" stroke-miterlimit="10" d="M292.921,127.4
		c-8.877,2.17-20.91,5.523-31.167,5.326c8.285-3.156,22.686-5.326,30.576-9.469c7.891-4.142,23.869-18.345,23.475-23.869
		c-0.396-5.524-2.171-18.148-14.203-18.543c-29.59-0.986-53.063,28.997-63.125,35.902c-10.06,6.904-17.162,22.882-26.038,21.107
		s-7.496-1.578-12.033-1.864c-4.537-0.286-4.142,8.768-4.142,8.768c-0.093,2.633,1.578,7.299,5.721,4.34s20.91-5.326,31.956-7.89
		s29.786-6.312,46.554-4.34c16.767,1.973,32.153-1.973,32.153-1.973s2.367-11.244,1.381-17.556
		C313.041,118.128,301.798,125.23,292.921,127.4z M227.825,135.991c0,0,21.699-14.509,36.493-22.991
		c14.795-8.482,25.052-20.121,34.125-19.923c1.185,6.312-1.184,13.019-5.721,17.162c-4.537,4.142-26.236,19.529-38.071,22.488
		C242.816,135.685,227.825,135.991,227.825,135.991z"/>
	<path fill="#59472D" stroke="#382D1E" stroke-width="3" stroke-miterlimit="10" d="M109.073,176.123c0,0-0.986,4.734-1.973,5.326
		c8.679,1.775,30.576,3.01,47.145-9.739c16.57-12.749,31.956-22.489,43.792-21.663c11.836,0.826,6.115-2.984,0-3.446
		c-6.115-0.462-27.419,4.272-35.902,13.346c-8.483,9.074-21.107,15.188-29.195,15.781
		C124.852,176.32,109.073,176.123,109.073,176.123z"/>
	<path fill="#59472D" stroke="#382D1E" stroke-width="3" stroke-miterlimit="10" d="M100.389,157.228c0,0-9.6,2.258-2.559,8.177
		c7.04,5.919,32.219,1.841,45.37-3.288c13.151-5.129,27.354-12.756,27.354-12.756s-33.701,12.098-48.412,12.624
		S95.058,160.755,100.389,157.228z"/>
	<path fill="#59472D" stroke="#382D1E" stroke-width="3" stroke-miterlimit="10" d="M298.443,93.076c0,0,20.227-3.851,15.998,10.239
		"/>
	<path fill="none" stroke="#663229" stroke-linecap="round" stroke-miterlimit="10" stroke-dasharray="8,3" d="M85.201,295.072
		c0,0,29.238-30.895,81.69-48.718c52.452-17.824,183.505-40.561,205.825-33.27"/>
	<path fill="none" stroke="#663229" stroke-linecap="round" stroke-miterlimit="10" stroke-dasharray="8,3" d="M113.023,214.721
		c0,0,32.755-22.202,52.967-29.052c20.212-6.85,120.925-33.119,147.501-26.823"/>
	<path fill="none" stroke="#424D5E" stroke-linecap="round" stroke-miterlimit="10" stroke-dasharray="8,3" d="M228.958,308.273
		c0,0-16.911-47.881-16.617-96.625c0.294-48.743,0.916-65.079,0.916-65.079"/>
	<path fill="none" stroke="#424D5E" stroke-linecap="round" stroke-miterlimit="10" stroke-dasharray="8,3" d="M271.79,143.3
		c0,0,44.604,59.059,52.495,147.433"/>
	<path fill="none" stroke="#424D5E" stroke-linecap="round" stroke-miterlimit="10" stroke-dasharray="8,3" d="M188.839,149.361
		c0,0-82.053,70.574-46.29,184.482"/>
	<path fill="none" stroke="#424D5E" stroke-linecap="round" stroke-miterlimit="10" stroke-dasharray="8,3" d="M256.57,137.159
		c0,0,65.875,6.989,101.382,46.658s45.239,60.006,38.663,82.738c-6.576,22.73-12.637,24.932-12.637,24.932"/>
	<path fill="none" stroke="#424D5E" stroke-linecap="round" stroke-miterlimit="10" stroke-dasharray="8,3" d="M277.995,135.991
		c0,0,71.014,16.527,98.368,40.987c27.354,24.46,38.663,37.611,44.976,62.072c6.313,24.46,6.838,46.569,1.841,49.979"/>
	<path fill="none" stroke="#663229" stroke-linecap="round" stroke-miterlimit="10" stroke-dasharray="8,3" d="M296.795,151.133
		c0,0,30.604-6.239,42.035-1.771"/>
	<path fill="none" stroke="#663229" stroke-linecap="round" stroke-miterlimit="10" stroke-dasharray="8,3" d="M364.014,201.971
		c0,0,31.506-8.002,49.938-3.61"/>
	<path fill="none" stroke="#663229" stroke-linecap="round" stroke-miterlimit="10" stroke-dasharray="8,3" d="M378.775,274.284
		c0,0,41.126,3.856,71.171-2.407"/>
	<path fill="#8E7049" d="M258.532,302.568c0,0-77.458,36.296-128.614,99.156c70.389-26.762,79.092-26.147,91.891-30.114
		c12.799-3.969,99.116-30.237,121.414-50.763c11.573-10.651,17.096-21.173,15.387-30.51
		C336.91,289.68,305.874,292.18,258.532,302.568z"/>
	<path fill="none" stroke="#424D5E" stroke-linecap="round" stroke-miterlimit="10" stroke-dasharray="8,3" d="M308.12,293.564
		c0,0-49.142,44.562-60.674,71.955"/>
	<path fill="none" stroke="#424D5E" stroke-linecap="round" stroke-miterlimit="10" stroke-dasharray="8,3" d="M210.51,313.291
		c0,0-31.132,30.044-37.188,44.97c-6.056,14.926-12.141,33.989-12.141,33.989"/>
	<path fill="none" stroke="#424D5E" stroke-linecap="round" stroke-miterlimit="10" stroke-dasharray="8,3" d="M115.588,345.141
		c0,0-10.262,18.577-14.208,37.12c-3.945,18.543-3.407,37.373-3.407,37.373"/>
	<path fill="none" stroke="#663229" stroke-linecap="round" stroke-miterlimit="10" stroke-dasharray="8,3" d="M358.914,307.1
		c0,0-40.152-3.601-94.596,6.191c-54.444,9.792-119.909,28.078-138.663,39.48c-18.753,11.401-36.669,29.616-36.669,29.616"/>
	<path fill="none" stroke="#663229" stroke-linecap="round" stroke-miterlimit="10" stroke-dasharray="8,3" d="M80.992,415.028
		c0,0,43.315-31.183,86.887-42.43c43.572-11.247,116.49-24.233,127.374-23.066"/>
</g>
</svg>
