<?xml version="1.0" encoding="utf-8"?>
<!-- Generator: Adobe Illustrator 16.0.0, SVG Export Plug-In . SVG Version: 6.00 Build 0)  -->
<!DOCTYPE svg PUBLIC "-//W3C//DTD SVG 1.1//EN" "http://www.w3.org/Graphics/SVG/1.1/DTD/svg11.dtd">
<svg version="1.1"
	 id="svg12211" xmlns:dc="http://purl.org/dc/elements/1.1/" xmlns:cc="http://creativecommons.org/ns#" xmlns:rdf="http://www.w3.org/1999/02/22-rdf-syntax-ns#" xmlns:svg="http://www.w3.org/2000/svg" xmlns:sodipodi="http://sodipodi.sourceforge.net/DTD/sodipodi-0.dtd" xmlns:inkscape="http://www.inkscape.org/namespaces/inkscape" inkscape:export-ydpi="72.021774" inkscape:export-xdpi="72.021774" inkscape:export-filename="C:\Users\Zealotlee\Dropbox\Small Projects\Steves Fuzzballs\fuschia-fuzzle.png" sodipodi:docname="acc-face-mustache.svg" inkscape:version="0.91 r13725"
	 xmlns="http://www.w3.org/2000/svg" xmlns:xlink="http://www.w3.org/1999/xlink" x="0px" y="0px" width="502.369px"
	 height="376.366px" viewBox="4.901 67.934 502.369 376.366" enable-background="new 4.901 67.934 502.369 376.366"
	 xml:space="preserve">
<sodipodi:namedview  showguides="true" showgrid="false" inkscape:cy="193.02625" inkscape:cx="369.48506" inkscape:zoom="0.71220416" borderopacity="1.0" bordercolor="#666666" pagecolor="#ffffff" id="base" inkscape:window-maximized="1" inkscape:window-y="-8" inkscape:window-x="-8" inkscape:window-height="988" inkscape:window-width="1680" inkscape:pageshadow="2" inkscape:current-layer="layer1" inkscape:pageopacity="0.0" inkscape:document-units="px">
	</sodipodi:namedview>
<path fill="#875D21" stroke="#59420E" stroke-width="3" stroke-miterlimit="10" d="M480.521,250.63L317.654,440.641
	c0,0-0.448-4.748-4.33-4.095C309.441,437.199,474.27,250.63,474.27,250.63H480.521z"/>
<path fill="#875D21" stroke="#59420E" stroke-width="3" stroke-miterlimit="10" d="M26.268,250.63l162.867,190.011
	c0,0,0.448-4.748,4.33-4.095c3.882,0.653-160.946-185.916-160.946-185.916H26.268z"/>
<path fill="#FFE98D" stroke="#CCB646" stroke-width="5" stroke-miterlimit="10" d="M272.827,71.059L11.743,254.373
	c0,0,157.391,17.627,261.085,17.627c103.693,0,228.372-17.627,228.372-17.627L272.827,71.059z"/>
<path fill="#F9F1B9" d="M271.563,74.938L492.558,250.63c0,0-157.335,22.744-225.258,18.115
	c54.332-26.689,74.039-50.612,44.412-109.557S271.563,74.938,271.563,74.938z"/>
<line fill="none" stroke="#CCB646" stroke-width="3" stroke-linecap="round" stroke-miterlimit="10" x1="271.718" y1="75.223" x2="47.85" y2="249.632"/>
<polyline fill="none" stroke="#CCB646" stroke-width="3" stroke-linecap="round" stroke-miterlimit="10" points="108.492,250.63 
	273.693,75.223 396.889,255.689 "/>
<line fill="none" stroke="#CCB646" stroke-width="3" stroke-linecap="round" stroke-miterlimit="10" x1="273.693" y1="72.908" x2="473.733" y2="249.632"/>
<path fill="none" stroke="#CCB646" stroke-width="3" stroke-linecap="round" stroke-miterlimit="10" d="M194.595,256.688"/>
<polyline fill="none" stroke="#CCB646" stroke-width="3" stroke-linecap="round" stroke-linejoin="round" stroke-miterlimit="10" points="
	200.954,259.918 273.693,75.223 271.563,262.393 "/>
<line fill="none" stroke="#CCB646" stroke-width="3" stroke-linecap="round" stroke-miterlimit="10" x1="158.719" y1="250.63" x2="269.432" y2="76.967"/>
<polyline fill="none" stroke="#CCB646" stroke-width="3" stroke-linecap="round" stroke-miterlimit="10" points="74.7,247.1 
	273.693,75.223 326.166,256.688 "/>
<line fill="none" stroke="#CCB646" stroke-width="3" stroke-linecap="round" stroke-miterlimit="10" x1="451.976" y1="247.1" x2="273.693" y2="75.223"/>
</svg>
