<?xml version="1.0" encoding="utf-8"?>
<!-- Generator: Adobe Illustrator 16.0.0, SVG Export Plug-In . SVG Version: 6.00 Build 0)  -->
<!DOCTYPE svg PUBLIC "-//W3C//DTD SVG 1.1//EN" "http://www.w3.org/Graphics/SVG/1.1/DTD/svg11.dtd">
<svg version="1.1"
	 id="svg12211" xmlns:dc="http://purl.org/dc/elements/1.1/" xmlns:cc="http://creativecommons.org/ns#" xmlns:rdf="http://www.w3.org/1999/02/22-rdf-syntax-ns#" xmlns:svg="http://www.w3.org/2000/svg" xmlns:sodipodi="http://sodipodi.sourceforge.net/DTD/sodipodi-0.dtd" xmlns:inkscape="http://www.inkscape.org/namespaces/inkscape" inkscape:export-ydpi="72.021774" inkscape:export-xdpi="72.021774" inkscape:export-filename="C:\Users\Zealotlee\Dropbox\Small Projects\Steves Fuzzballs\fuschia-fuzzle.png" sodipodi:docname="acc-hat-tophat-purple.svg" inkscape:version="0.91 r13725"
	 xmlns="http://www.w3.org/2000/svg" xmlns:xlink="http://www.w3.org/1999/xlink" x="0px" y="0px" width="328.176px"
	 height="289.503px" viewBox="93.058 102.024 328.176 289.503" enable-background="new 93.058 102.024 328.176 289.503"
	 xml:space="preserve">
<sodipodi:namedview  showguides="true" showgrid="false" inkscape:cy="277.06173" inkscape:cx="244.89768" inkscape:zoom="1.2263755" borderopacity="1.0" bordercolor="#666666" pagecolor="#ffffff" id="base" inkscape:window-maximized="1" inkscape:window-y="-8" inkscape:window-x="-8" inkscape:window-height="988" inkscape:window-width="1680" inkscape:pageshadow="2" inkscape:current-layer="layer1" inkscape:pageopacity="0.0" inkscape:document-units="px">
	</sodipodi:namedview>
<g id="layer1" transform="translate(0,-540.36218)" inkscape:label="Layer 1" inkscape:groupmode="layer">
	
		<path id="path6332-4" sodipodi:nodetypes="scscsccs" inkscape:connector-curvature="0" fill="#242526" stroke="#0A0B0B" stroke-width="5.0265" stroke-linejoin="round" d="
		M359.963,783.221c-3.475,38.892,11.16,88.386,11.16,88.386s13.093,36.288-107.075,22.286
		c-120.168-14.003-113.332-53.955-113.332-53.955s24.083-31.879,27.847-74.012c3.764-42.133-4.77-98.977-23.646-113.187
		l244.648,22.401C366.121,702.099,363.438,744.329,359.963,783.221L359.963,783.221z"/>
	<path id="path6339-3" inkscape:connector-curvature="0" fill="#3B3D3E" stroke="#242526" stroke-width="5.0265" d="
		M204.369,879.306c0,0,29.356-66.526,32.686-103.798c3.33-37.272-9.429-95.582-13.075-103.53c0,0,74.746,10.489,126.545,9.671
		c0,0,37.85-3.152,47.274-5.033c0,0-29.817,22.927-35.173,82.886c-5.357,59.958,13.971,111.777,13.971,111.777
		S314.957,921.309,204.369,879.306L204.369,879.306z"/>
	
		<path id="path6322-2" inkscape:connector-curvature="0" fill="#FF00FF" stroke="#DC00DC" stroke-width="5.0957" stroke-linecap="round" stroke-linejoin="round" d="
		M167.262,800.343c0,0,34.742,24.863,89.651,30.857c54.909,5.993,110.009-2.685,110.009-2.685s6.408,34.845,10.227,42.259
		c3.817,7.413-64.373,24.713-100.247,18.788s-108.105-24.89-129.416-49.643C147.485,839.92,165.742,811.087,167.262,800.343
		L167.262,800.343z"/>
	
		<path id="path6326-3" inkscape:connector-curvature="0" fill="none" stroke="#DC00DC" stroke-width="5.0957" stroke-linecap="round" stroke-linejoin="round" d="
		M168.594,816.782c46.148,30.354,114.688,44.021,165.623,26.764"/>
	
		<path id="path6330-0" inkscape:connector-curvature="0" fill="none" stroke="#DC00DC" stroke-width="5.0957" stroke-linecap="round" stroke-linejoin="round" d="
		M187.707,847.321c48.561,26.141,120.721,34.081,169.606,13.521"/>
	
		<path id="path6318-7" inkscape:connector-curvature="0" fill="#3B3D3E" stroke="#242526" stroke-width="5.0265" stroke-linecap="round" stroke-linejoin="round" d="
		M281.125,648.009c61.953,5.535,120.082,17.068,122.12,24.911s-58.513,11.151-122.638,5.422
		c-64.126-5.729-128.355-22.562-127.747-29.375C153.469,642.152,251.78,645.387,281.125,648.009L281.125,648.009z"/>
	
		<path id="path6312-3" inkscape:connector-curvature="0" fill="#242526" stroke="#0A0B0B" stroke-width="5.0265" stroke-linecap="round" stroke-linejoin="round" d="
		M268.312,888.829c64.917,4.711,93.083-5.84,118.241-25.372c25.157-19.531,27.539-3.528,29.459-0.635
		c1.919,2.894,9.654,19.919-14.433,33.558c-24.087,13.638-64.948,38.301-135.71,31.979c-70.762-6.322-133.43-48.4-157.128-69.574
		s-8.689-30.723-6.143-34.852c2.547-4.128,18.105-7.639,31.436,7.709S205.652,883.231,268.312,888.829L268.312,888.829z"/>
	<path id="path6341-7" sodipodi:nodetypes="zssssssz" inkscape:connector-curvature="0" fill="#3B3D3E" d="M372.141,878.504
		c23.078-10.606,33.758-23.593,37.63-18.962c14.651,17.526-25.36,31.264-35.739,34.377c-53.716,16.111-92.537,19.632-157.258,5.007
		c-13.85-3.129-121.481-61.176-98.259-70.304c7.035-2.766,25.808,21.999,31.02,24.55c32.145,15.732,83.175,36.273,116.82,39.294
		C324.819,897.716,349.063,889.11,372.141,878.504z"/>
</g>
</svg>
