<?xml version="1.0" encoding="utf-8"?>
<!-- Generator: Adobe Illustrator 16.0.0, SVG Export Plug-In . SVG Version: 6.00 Build 0)  -->
<!DOCTYPE svg PUBLIC "-//W3C//DTD SVG 1.1//EN" "http://www.w3.org/Graphics/SVG/1.1/DTD/svg11.dtd">
<svg version="1.1"
	 id="svg12211" xmlns:dc="http://purl.org/dc/elements/1.1/" xmlns:cc="http://creativecommons.org/ns#" xmlns:rdf="http://www.w3.org/1999/02/22-rdf-syntax-ns#" xmlns:svg="http://www.w3.org/2000/svg" xmlns:sodipodi="http://sodipodi.sourceforge.net/DTD/sodipodi-0.dtd" xmlns:inkscape="http://www.inkscape.org/namespaces/inkscape" inkscape:export-ydpi="72.021774" inkscape:export-xdpi="72.021774" inkscape:export-filename="C:\Users\Zealotlee\Dropbox\Small Projects\Steves Fuzzballs\fuschia-fuzzle.png" sodipodi:docname="acc-face-beard.svg" inkscape:version="0.91 r13725"
	 xmlns="http://www.w3.org/2000/svg" xmlns:xlink="http://www.w3.org/1999/xlink" x="0px" y="0px" width="166.069px"
	 height="161.89px" viewBox="194.112 175.019 166.069 161.89" enable-background="new 194.112 175.019 166.069 161.89"
	 xml:space="preserve">
<sodipodi:namedview  showguides="true" showgrid="false" inkscape:cy="193.02625" inkscape:cx="369.48506" inkscape:zoom="0.71220416" borderopacity="1.0" bordercolor="#666666" pagecolor="#ffffff" id="base" inkscape:window-maximized="1" inkscape:window-y="-8" inkscape:window-x="-8" inkscape:window-height="988" inkscape:window-width="1680" inkscape:pageshadow="2" inkscape:current-layer="layer1" inkscape:pageopacity="0.0" inkscape:document-units="px">
	</sodipodi:namedview>
<g>
	<path fill="none" d="M243.239,252.417"/>
	<path fill="#DC00DC" stroke="#C800C8" stroke-width="4" stroke-miterlimit="10" d="M261.4,220.465c0,0-24.209-9.687-45.548-7.411
		c-9.143,0.975-16.992,0.094-18.494,3.946s-2.631,17.355,2.712,32.402c5.343,15.048,12.816,33.19,26.251,45.448
		c-3.23,6.646-8.739,17.387-6.847,22.716c1.892,5.328,5.356,7.937,7.954,8.891c2.598,0.954,9.964,0.041,20.622,5.484
		c10.658,5.442,19.306,1.997,27.039,0.622c7.733-1.377,11.31-1.66,11.122-5.552c-0.188-3.891,3.463-3.79,3.568-10.876
		c0.104-7.086,0.813-13.451,0.813-13.451s9.907,7.238,15.152,12.663s12.303,4.64,16.026,1.846
		c3.725-2.794,12.842-6.636,14.818-11.402s8.241-7.294,10.377-13.578c2.137-6.284,5.895-7.506,9.915-11.435
		c4.021-3.93-2.411-10.73-4.204-11.84c-1.792-1.111-17.543-10.541-17.543-10.541s1.904,1.428,1.95-2.873
		c0.046-4.3,0.147-23.202-7.178-43.834c-7.325-20.632-16.496-31.701-19.505-33.777c-3.008-2.076-5.989-0.144-8.973,1.788
		C298.447,181.633,278.285,191.761,261.4,220.465z"/>
	<path fill="#FF00FF" d="M262.352,226.59c-0.746,3.077-8.092-5.861-16.686-6.304c-8.594-0.443-35.321-0.211-38.407-0.164
		c-3.086,0.048-4.137-0.453-6.149-2.184c-2.012-1.731-1.392-1.952,1.986-2.277c3.378-0.325,25.672-4.223,39.861,0.696
		C257.146,221.276,263.557,221.62,262.352,226.59z"/>
	<path fill="#C800C8" d="M213.517,279.047c0,0,7.737,4.583,9.773,8.053c2.036,3.471,2.293,2.506,3.692-0.088
		c1.4-2.593,3.401-8.894,3.401-8.894s-7.101-7.437-8.952-12.718c-1.851-5.282,8.914,2.076,8.914,2.076l4.529,10.795l-8.553,16.578
		C226.321,294.85,215.645,282.668,213.517,279.047z"/>
	<path fill="none" stroke="#DC00DC" stroke-width="6" stroke-miterlimit="10" d="M215.645,282.668"/>
	<path fill="#FF00FF" d="M232.776,282.727c0,0-13.028,24.609-13.51,30.14s4.345,11.174,7.468,11.638s-2.929-3.873-1.641-7.824
		c1.288-3.951,7.306-16.635,8.063-20.103c0.757-3.468,2.388-7.89,4.417-10.706C239.602,283.055,232.776,282.727,232.776,282.727z"/>
	<path fill="#C800C8" d="M246.67,299.586c-2.55,2.184-1.65,8.383,6.843,11.849c8.492,3.466,19.211-5.322,14.282-8.95
		C262.865,298.857,249.386,297.261,246.67,299.586z"/>
	<path fill="#C800C8" d="M278.122,300.63c0,0,1.142,7.04-1.366,10.924c-2.507,3.885-8.449,5.276-9.247,5.412
		c-0.797,0.136,4.728,5.976,9.787,3.093s7.224-13.284,5.101-20.229C280.275,292.884,278.122,300.63,278.122,300.63z"/>
	<path fill="#FF00FF" d="M267.51,316.965c0,0-3.968,2.029-7.529-2.592c4.113-2.437,10.02-4.536,12.307-7.268
		c2.287-2.732,4.369-4.082,6.055-1.416C280.027,308.356,274.27,317.532,267.51,316.965z"/>
	<path fill="none" d="M292.594,234.894"/>
	<path fill="#FF00FF" d="M261.475,226.902c2.52,1.918,2.584-9.652,8.975-15.414c6.39-5.763,27.279-22.438,29.705-24.347
		c2.425-1.909,2.925-2.96,3.395-5.573c0.471-2.612-0.15-2.392-2.979-0.515c-2.826,1.877-22.586,12.911-30.496,25.676
		C262.163,219.495,257.404,223.805,261.475,226.902z"/>
	<path fill="#C800C8" d="M332.455,236.819c0,0-3.115,8.436-2.507,12.413s-0.2,3.39-2.921,2.26c-2.723-1.13-8.248-4.758-8.248-4.758
		s0.822-10.249-1.072-15.516c-1.895-5.267-5.609,7.232-5.609,7.232l3.293,11.234l17.092,7.473
		C332.482,257.157,333.087,240.971,332.455,236.819z"/>
	<path fill="none" stroke="#DC00DC" stroke-width="6" stroke-miterlimit="10" d="M333.087,240.971"/>
	<path fill="#FF00FF" d="M319.828,251.819c0,0,25.63,10.884,29.49,14.873c3.861,3.988,3.675,11.414,1.543,13.742
		c-2.131,2.33-0.168-4.853-3.659-7.106s-16.16-8.304-18.935-10.517s-6.828-4.617-10.18-5.524
		C314.738,256.379,319.828,251.819,319.828,251.819z"/>
	<path fill="#C800C8" d="M319.677,273.666c3.356,0.086,6.567,5.466,2.161,13.511c-4.406,8.046-18.268,7.983-16.729,2.06
		C306.646,283.314,316.102,273.574,319.677,273.666z"/>
	<path fill="#C800C8" d="M295.924,294.309c0,0,3.553,6.184,7.948,7.617s9.885-1.234,10.589-1.631s0.1,7.618-5.646,8.572
		c-5.744,0.954-13.982-5.756-16.715-12.484C289.366,289.654,295.924,294.309,295.924,294.309z"/>
	<path fill="#FF00FF" d="M314.462,300.295c0,0,4.358-0.927,4.21-6.761c-4.729,0.704-10.637,2.798-14.135,2.12
		s-5.964-0.413-5.592,2.72C299.316,301.507,309.572,304.998,314.462,300.295z"/>
</g>
<g>
	<path fill="#DEDEDE" d="M225.586,268.376c0,0-12.66-0.619-15.937-14.519s5.963-23.683,16.909-27.496
		c10.946-3.813,19.471,3.903,21.075,6.254C249.237,234.965,226.472,268.477,225.586,268.376z"/>
	<path fill="#474747" d="M225.264,264.348c0,0-7.93-0.505-10.806-8.604c-2.876-8.1-2.76-14.636,5.163-21.595
		s20.26-5.068,25.297,0.442C249.954,240.1,225.264,264.348,225.264,264.348z"/>
	<path fill="#DEDEDE" d="M316.831,236.383c0,0,9.435-8.464,3.213-21.318s-19.563-14.62-30.462-10.677
		c-10.898,3.943-12.65,15.308-12.413,18.143C277.407,225.367,316.207,237.019,316.831,236.383z"/>
	<path fill="#474747" d="M314.541,233.054c0,0,5.837-5.392,2.961-13.492s-7.088-13.099-17.625-13.504
		c-10.537-0.405-18.92,8.843-19.354,16.295C280.089,229.805,314.541,233.054,314.541,233.054z"/>
	<path fill="#EBEBEB" d="M228.681,278.7c-4.096-11.537-7.329-19.232,7.73-36.187c15.059-16.955,38.047-23.827,57.173-20.299
		c19.126,3.528,24.244,14.831,27.288,23.405c3.044,8.574,10.808,29.402-5.449,40.701c-16.257,11.301-26.008,21.347-56.354,20.009
		C234.646,305.253,230.636,284.207,228.681,278.7z"/>
	<path fill="#EC98D6" d="M254.296,293.975c0.876,2.467,3.664,3.121,6.169,1.125c2.506-1.994,3.688-2.438,3.125-4.023
		s-4.068-1.998-6.126-1.682C255.407,289.71,253.468,291.643,254.296,293.975z"/>
	<path fill="none" stroke="#7F2DA5" stroke-width="3" stroke-linecap="round" stroke-linejoin="round" stroke-miterlimit="10" d="
		M278.747,283.773c0,0,2.86,1.887,4.153-1.476c2.31,2.222,4.174-1.481,4.174-1.481"/>
	<path fill="#3A2F3D" d="M261.787,285.997c12.432-4.414,10.164-21.37,9.292-23.824c-0.871-2.454-5.399-16.601-17.962-12.141
		c-12.562,4.46-19.739,17.721-16.961,25.544C238.932,283.398,247.391,291.107,261.787,285.997z"/>
	<path fill="#F3F1F8" d="M260.809,279.363c5.687-2.02,9.063-7.016,6.307-14.779s-8.947-10.679-15.695-8.283
		c-6.747,2.396-10.53,11.201-8.722,16.295C244.506,277.688,250.63,282.977,260.809,279.363z"/>
	<path fill="#D08B00" d="M259.516,275.952c6.25-2.22,5.033-7.591,4.379-9.433c-0.653-1.84-4.084-6.287-9.521-4.357
		c-5.437,1.93-7.36,6.002-6.239,9.161C249.256,274.482,253.266,278.171,259.516,275.952z"/>
	<path fill="#E09600" d="M259.189,275.309c5.641-2.004,4.543-6.853,3.953-8.515c-0.591-1.662-3.688-5.676-8.596-3.935
		c-4.907,1.742-6.644,5.418-5.631,8.27S253.548,277.311,259.189,275.309z"/>
	<path fill="#3A2F3D" d="M258.746,274.434c4.814-1.709,3.878-5.849,3.375-7.268c-0.504-1.418-3.148-4.846-7.337-3.357
		c-4.189,1.486-5.671,4.625-4.807,7.059C250.841,273.301,253.931,276.143,258.746,274.434z"/>
	<path fill="#F7F7F8" d="M250.913,266.154c1.198-1.825,4.938-2.721,7.345-1.641c2.407,1.081,2.364,1.721,1.646,2.631
		c-0.717,0.908-2.838,0.143-4.222,0.84c-1.384,0.699-0.992,1.804-2.32,2.345C252.034,270.87,248.594,269.686,250.913,266.154z"/>
	<path fill="#F7F7F8" d="M254.68,271.865c1.217-1.074,3.429-0.361,3.833,0.449c0.402,0.811,0.379,1.232-1.113,2.039
		C255.907,275.16,252.847,273.482,254.68,271.865z"/>
	<path fill="#EC98D6" d="M312.486,273.314c0.877,2.467-0.875,4.732-4.077,4.764s-4.4,0.434-4.964-1.152
		c-0.563-1.585,1.898-4.117,3.693-5.169C308.936,270.705,311.659,270.982,312.486,273.314z"/>
	<path fill="#3A2F3D" d="M301.643,271.848c-12.432,4.413-21.363-10.177-22.234-12.631c-0.871-2.453-6.277-16.289,6.285-20.749
		c12.562-4.46,26.494,1.307,29.271,9.129C317.741,255.418,316.038,266.736,301.643,271.848z"/>
	<path fill="#F3F1F8" d="M298.219,266.08c-5.687,2.02-11.457,0.271-14.214-7.493c-2.757-7.764,0.21-13.93,6.957-16.326
		c6.747-2.396,15.236,2.053,17.045,7.146C309.814,254.501,308.396,262.467,298.219,266.08z"/>
	<path fill="#F7F7F8" d="M297.568,249.59c-2.082-0.66-5.549,1.003-6.735,3.358c-1.187,2.356-0.75,2.826,0.38,3.08
		c1.13,0.254,2.293-1.68,3.809-2.01c1.515-0.33,1.906,0.774,3.277,0.356C299.672,253.956,301.596,250.868,297.568,249.59z"/>
	<path fill="#F7F7F8" d="M298.246,256.397c-1.622-0.066-2.891,1.882-2.691,2.766c0.198,0.883,0.483,1.196,2.15,0.882
		C299.372,259.729,300.689,256.497,298.246,256.397z"/>
	<path fill="#D08B00" d="M297.76,262.374c-6.248,2.219-8.693-2.718-9.347-4.56c-0.654-1.84-0.795-7.457,4.642-9.386
		c5.436-1.93,9.496,0.017,10.618,3.176S304.009,260.154,297.76,262.374z"/>
	<path fill="#E09600" d="M297.607,261.668c-5.642,2.003-7.848-2.453-8.438-4.115c-0.59-1.662-0.718-6.73,4.189-8.473
		c4.908-1.742,8.574,0.015,9.586,2.867C303.957,254.798,303.248,259.665,297.607,261.668z"/>
	<path fill="#3A2F3D" d="M297.4,260.71c-4.815,1.71-6.698-2.094-7.202-3.513c-0.505-1.418-0.612-5.746,3.575-7.233
		c4.189-1.487,7.318,0.013,8.183,2.447C302.82,254.846,302.215,259,297.4,260.71z"/>
	<path fill="#F7F7F8" d="M298.258,249.345c-2.081-0.66-5.548,1.003-6.734,3.358c-1.187,2.356-0.75,2.826,0.379,3.08
		c1.131,0.254,2.293-1.679,3.809-2.01s1.907,0.774,3.278,0.356C300.359,253.711,302.285,250.623,298.258,249.345z"/>
	<path fill="#F7F7F8" d="M298.936,256.152c-1.621-0.066-2.89,1.882-2.69,2.766c0.198,0.883,0.483,1.197,2.149,0.882
		S301.378,256.252,298.936,256.152z"/>
</g>
</svg>
