<?xml version="1.0" encoding="utf-8"?>
<!-- Generator: Adobe Illustrator 16.0.0, SVG Export Plug-In . SVG Version: 6.00 Build 0)  -->
<!DOCTYPE svg PUBLIC "-//W3C//DTD SVG 1.1//EN" "http://www.w3.org/Graphics/SVG/1.1/DTD/svg11.dtd">
<svg version="1.1"
	 id="svg12211" xmlns:dc="http://purl.org/dc/elements/1.1/" xmlns:cc="http://creativecommons.org/ns#" xmlns:rdf="http://www.w3.org/1999/02/22-rdf-syntax-ns#" xmlns:svg="http://www.w3.org/2000/svg" xmlns:sodipodi="http://sodipodi.sourceforge.net/DTD/sodipodi-0.dtd" xmlns:inkscape="http://www.inkscape.org/namespaces/inkscape" inkscape:export-ydpi="72.021774" inkscape:export-xdpi="72.021774" inkscape:export-filename="C:\Users\Zealotlee\Dropbox\Small Projects\Steves Fuzzballs\fuschia-fuzzle.png" sodipodi:docname="acc-face-beard.svg" inkscape:version="0.91 r13725"
	 xmlns="http://www.w3.org/2000/svg" xmlns:xlink="http://www.w3.org/1999/xlink" x="0px" y="0px" width="166.331px"
	 height="134.74px" viewBox="170.13 189.099 166.331 134.74" enable-background="new 170.13 189.099 166.331 134.74"
	 xml:space="preserve">
<sodipodi:namedview  showguides="true" showgrid="false" inkscape:cy="193.02625" inkscape:cx="369.48506" inkscape:zoom="0.71220416" borderopacity="1.0" bordercolor="#666666" pagecolor="#ffffff" id="base" inkscape:window-maximized="1" inkscape:window-y="-8" inkscape:window-x="-8" inkscape:window-height="988" inkscape:window-width="1680" inkscape:pageshadow="2" inkscape:current-layer="layer1" inkscape:pageopacity="0.0" inkscape:document-units="px">
	</sodipodi:namedview>
<path id="path3964-1_1_" sodipodi:nodetypes="ssssssss" inkscape:connector-curvature="0" fill="#8B1C00" d="M273.875,189.967
	c31.546,0,46.701,6.495,49.793,9.278c3.092,2.783,12.68,11.443,12.68,22.577c0,11.134-8.35,59.381-24.123,72.989
	c-15.773,13.608-38.916,29.028-54.689,29.028c-15.773,0-41.814-22.479-59.125-36.141c-14.827-11.702-28.763-57.835-28.144-61.237
	C170.886,223.059,224.391,189.967,273.875,189.967z"/>
<circle fill="#FFE0E0" cx="260.421" cy="253.924" r="48.617"/>
<circle fill="#8B1C00" cx="260.421" cy="253.924" r="37.441"/>
<circle fill="#FFE0E0" cx="260.421" cy="253.924" r="26.013"/>
<circle fill="#DC0000" cx="260.421" cy="253.924" r="12.05"/>
<path fill="#FFFFFF" fill-opacity="0.1" d="M170.13,225.594c0,0,56.523,26.845,84.051,25.292
	c27.528-1.553,82.03-29.932,82.03-29.932s7.955-31.855-65.841-31.855C217.042,189.1,170.13,225.594,170.13,225.594z"/>
</svg>
