<?xml version="1.0" encoding="utf-8"?>
<!-- Generator: Adobe Illustrator 16.0.0, SVG Export Plug-In . SVG Version: 6.00 Build 0)  -->
<!DOCTYPE svg PUBLIC "-//W3C//DTD SVG 1.1//EN" "http://www.w3.org/Graphics/SVG/1.1/DTD/svg11.dtd">
<svg version="1.1"
	 id="svg12211" xmlns:dc="http://purl.org/dc/elements/1.1/" xmlns:cc="http://creativecommons.org/ns#" xmlns:rdf="http://www.w3.org/1999/02/22-rdf-syntax-ns#" xmlns:svg="http://www.w3.org/2000/svg" xmlns:sodipodi="http://sodipodi.sourceforge.net/DTD/sodipodi-0.dtd" xmlns:inkscape="http://www.inkscape.org/namespaces/inkscape" inkscape:export-ydpi="72.021774" inkscape:export-xdpi="72.021774" inkscape:export-filename="C:\Users\Zealotlee\Dropbox\Small Projects\Steves Fuzzballs\fuschia-fuzzle.png" sodipodi:docname="acc-eyes-sunglasses.svg" inkscape:version="0.91 r13725"
	 xmlns="http://www.w3.org/2000/svg" xmlns:xlink="http://www.w3.org/1999/xlink" x="0px" y="0px" width="349.79px"
	 height="102.706px" viewBox="96.095 207.91 349.79 102.706" enable-background="new 96.095 207.91 349.79 102.706"
	 xml:space="preserve">
<path id="path4331-34" sodipodi:nodetypes="csssssssc" inkscape:connector-curvature="0" opacity="0.2" fill="#7AC2E2" enable-background="new    " d="
	M122.677,246.019c-2.772-8.663-1.386-10.395,2.772-12.128c4.158-1.733,48.511-16.286,68.262-16.286s55.441,11.088,61.678,18.365
	c6.237,7.277,4.158,16.286,2.425,25.295c-1.731,9.008-5.197,38.809-37.769,41.58c-9.72,0.827-58.514,3.63-72.347-2.429
	c-6.387-2.798-17.745-17.321-20.864-32.222C123.716,253.296,122.677,246.019,122.677,246.019L122.677,246.019z"/>
<path id="path4331-3-6" sodipodi:nodetypes="csssssssc" inkscape:connector-curvature="0" opacity="0.2" fill="#7AC2E2" enable-background="new    " d="
	M419.517,246.019c2.772-8.663,1.387-10.395-2.771-12.128s-48.511-16.286-68.263-16.286c-19.75,0-55.44,11.088-61.678,18.365
	c-6.236,7.277-4.158,16.286-2.425,25.295c1.733,9.008,5.198,38.809,37.769,41.58c9.721,0.827,58.515,3.63,72.348-2.429
	c6.388-2.798,17.745-17.321,20.864-32.222C418.477,253.296,419.517,246.019,419.517,246.019z"/>
<sodipodi:namedview  showguides="true" showgrid="false" inkscape:cy="193.02625" inkscape:cx="369.48506" inkscape:zoom="0.71220416" borderopacity="1.0" bordercolor="#666666" pagecolor="#ffffff" id="base" inkscape:window-maximized="1" inkscape:window-y="-8" inkscape:window-x="-8" inkscape:window-height="988" inkscape:window-width="1680" inkscape:pageshadow="2" inkscape:current-layer="layer1" inkscape:pageopacity="0.0" inkscape:document-units="px">
	</sodipodi:namedview>
<path id="path4333-5" sodipodi:nodetypes="ssss" inkscape:connector-curvature="0" opacity="0.2" fill="#FFFFFF" enable-background="new    " d="
	M196.509,236.29c-9.409-25.326,64.554,1.32,44.474,16.227c-9.586,7.117-18.134-10.217-32.154-10.217
	C202.384,242.3,196.509,236.29,196.509,236.29z"/>
<path id="path4335-3" sodipodi:nodetypes="zsz" inkscape:connector-curvature="0" opacity="0.2" fill="#FFFFFF" enable-background="new    " d="
	M149.33,270.247c9.608-4.62,42.74,34.742,5.71,16.228C147.817,282.863,139.721,274.866,149.33,270.247z"/>
<g>
	<polygon fill="#FF00FF" stroke="#DC00DC" stroke-width="2.0651" points="191.975,208.943 191.976,208.943 191.978,208.943 	"/>
	<path fill="#FF00FF" stroke="#DC00DC" stroke-width="2.0651" d="M444.313,227.887h0.353
		C444.665,227.887,444.536,227.882,444.313,227.887z"/>
	<path fill="#FF00FF" stroke="#DC00DC" stroke-width="2.0651" d="M438.654,229.69c2.177-1.572,4.739-1.781,5.658-1.803h-13.834
		c-1.756-0.64-52.152-18.944-80.071-18.944c-28.414,0-61.332,15.247-66.183,18.365c-4.852,3.119-0.347,6.584-13.033,6.584
		c-12.688,0-8.183-3.465-13.033-6.584c-4.851-3.119-37.768-18.365-66.182-18.365c-27.92,0.001-78.314,18.304-80.069,18.944h-14.24
		c0.919,0.022,3.482,0.231,5.659,1.803c0,0-6.762,0.752-6.161,4.208l14.767,0.281l0.004,0.058c0,0,3.464,0.347,3.118,3.466
		c-0.346,3.119,3.812,44.699,15.246,57.865c11.435,13.168,21.83,13.861,29.8,13.861c23.563,0,64.103,1.387,75.884-4.158
		c11.781-5.545,22.524-12.82,25.295-23.217c2.772-10.395,5.544-22.522,5.891-24.602c0.348-2.079,0.331-4.504,4.025-4.504
		c3.693,0,3.678,2.425,4.023,4.504c0.348,2.079,3.118,14.207,5.891,24.602c2.771,10.396,13.514,17.672,25.295,23.217
		c11.781,5.544,52.322,4.158,75.885,4.158c7.97,0,18.365-0.693,29.8-13.861c11.436-13.166,15.593-54.746,15.246-57.865
		s3.118-3.466,3.118-3.466v-0.067l14.361-0.273C445.416,230.442,438.654,229.69,438.654,229.69z M257.814,261.266
		c-1.732,9.008-5.198,38.809-37.77,41.58c-9.72,0.827-58.514,3.63-72.347-2.429c-6.387-2.798-17.745-17.321-20.864-32.222
		s-4.158-22.176-4.158-22.176l0,0c-2.772-8.663-1.386-10.395,2.772-12.128c4.158-1.733,48.511-16.286,68.262-16.286
		s55.441,11.088,61.678,18.365C261.626,243.247,259.547,252.256,257.814,261.266z M419.517,246.019c0,0-1.038,7.277-4.157,22.176
		c-3.119,14.9-14.477,29.424-20.864,32.222c-13.833,6.059-62.626,3.256-72.347,2.429c-32.572-2.771-36.037-32.572-37.77-41.58
		c-1.732-9.01-3.813-18.019,2.426-25.296c6.236-7.277,41.926-18.365,61.678-18.365c19.75,0,64.104,14.553,68.262,16.286
		C420.903,235.624,422.289,237.356,419.517,246.019z"/>
	<path fill="#FF00FF" stroke="#DC00DC" stroke-width="2.0651" d="M97.315,227.887h0.352
		C97.444,227.882,97.315,227.887,97.315,227.887z"/>
</g>
<path id="path4333-2-2" sodipodi:nodetypes="ssss" inkscape:connector-curvature="0" opacity="0.2" fill="#FFFFFF" enable-background="new    " d="
	M355.475,236.29c-9.408-25.326,64.555,1.32,44.475,16.227c-9.586,7.117-18.135-10.217-32.154-10.217
	C361.35,242.3,355.475,236.29,355.475,236.29L355.475,236.29z"/>
<path id="path4335-9-8" sodipodi:nodetypes="zsz" inkscape:connector-curvature="0" opacity="0.2" fill="#FFFFFF" enable-background="new    " d="
	M308.296,270.247c9.608-4.62,42.74,34.742,5.709,16.228C306.783,282.863,298.688,274.866,308.296,270.247z"/>
</svg>
