<svg xmlns="http://www.w3.org/2000/svg" width="512" height="512" xmlns:xlink="http://www.w3.org/1999/xlink"><g transform="translate(0-540.36)"><g style="stroke-width:3.361"><path d="m257.16 1029.56c0 0-11.882 18.11-21.501 20.369 0 0-23.713-16.448-31.686-28.29 0 0-8.573-.572-16.409 9.05 0 0-17.54-5.092-22.633-19.238 0 0-2.366 6.75-9.619 13.01 0 0-9.05-6.224-11.882-20.37 0 0-18.729 4.51-24.896 11.882 0 0-7.921-15.277-8.487-25.462.206.052 2.725 3.793-8.487 7.922 0 0-10.185-10.751-7.921-16.13 0 0-17.626 4.787-27.725 8.77 0 0-3.395-28.857 1.132-39.04 0 0-13.331 3.802-30.724 15.11 0 0-5.04-28.574 5.149-43.29 0 0-11.373 2.789-22.07 6.903 0 0 2.959-21.705 12.561-27.386 0 0-2.308-5.415-17.06-5.839 0 0 9.138-14.53 13.664-15.662 0 0-2.309-8.504-13.534-12.963 0 0 3.395-10.768 14.711-12.465 0 0-6.23-10.219-14.15-9.09 0 0 5.335-12.674 11.559-21.16 0 0-12.754-8.215-13.885-4.821 0 0 8.453-20.811 19.77-24.21 0 0-10.694-5.828-15.221-5.262 0 0 8.204-21.16 19.521-21.727 0 0-8.747-7.04-14.406-10.999 0 0 9.376-16.16 22.893-13.388 0 0-12.07-10.468-20.556-16.692 0 0 9.522-5.658 17.444-7.922 0 0 3.378-16.38-4.544-20.341 0 0 13.597-3.423 27.18-2.292 0 0 .566-8.487-5.092-11.316 0 0 10.185-2.263 20.935 2.263 0 0 55.45-2.829 55.45-62.806 0 0 .566-9.619 3.395-9.619 0 0-11.882 1.697-9.619-24.33 2.263-26.03 17.54-23.2 17.54-23.2 0 0-10.739 7.619-10.453 22.1 0 0 4.795-10.179 9.888-7.384 0 0-12.448 9.05.566 18.672 0 0 49.721 29.352 59.27 30.979 9.548 1.627 15.701 5.234 20.511 5.517 4.809.283 5.255-1.023 7.356-2.546 5.557-4.03 5.658-12.448 12.448-16.409 0 0 5.092 11.316 10.75 9.05 0 0 6.79-7.356 10.751-10.75 0 0-.566 5.658 2.829 10.185 0 0 12.448-13.01 19.804-16.975 0 0 7.356 15.843 13.01 27.16 0 0 22.633-17.54 30.554-19.238 0 0-2.829 16.409-1.132 21.501 0 0 27.725-11.882 35.647-13.01 0 0 0 10.75 1.698 15.843 0 0 8.487-2.263 12.448-3.395 0 0-1.132 6.224 4.527 12.448 0 0 14.15-9.05 22.633-9.05 0 0-.566 19.804 3.395 23.2 0 0 17.54-6.79 24.33-5.658 0 0-6.224 13.01-2.263 16.975 0 0 13.01-3.961 16.974 0 0 0-3.961 16.975-3.395 20.935 0 0 26.03 3.395 27.16 7.922 0 0-9.619 16.974-8.487 20.935 0 0 14.15-.566 17.54 3.395 0 0-6.224 17.54-6.224 21.501 0 0 13.58 5.658 15.277 8.487 0 0-11.882 12.448-10.751 19.238 0 0 16.409 13.58 17.54 19.804 0 0-8.487 6.79-8.487 9.619 0 0 8.487 13.58 9.619 21.501 0 0-10.185 5.092-10.185 9.619 0 0 7.356 13.58 6.79 19.804 0 0-18.672 3.961-18.672 9.619 0 0 10.185 10.75 10.185 16.975 0 0-13.58 0-13.58 3.395 0 0 11.316 10.185 11.882 19.238 0 0-18.11 0-18.11 3.961 0 0 10.185 6.79 10.185 12.448 0 0-22.07 0-22.07 3.961 0 0 5.092 18.672 5.092 23.2 0 0-13.58-3.395-15.277-.566 0 0 5.092 9.619 5.092 13.58 0 0-15.277-6.79-15.277-2.829 0 0 7.921 14.15 7.921 22.07 0 0-18.672-6.224-24.33-2.829 0 0 4.527 11.882 4.527 15.843 0 0-19.238-12.448-21.501-8.487 0 0 7.921 10.751 7.921 19.238 0 0-23.2-5.092-27.16-3.395 0 0 5.092 12.448 3.395 15.277 0 0-12.448-6.79-14.711-9.619 0 0-3.961 13.01-2.263 15.843 0 0-14.15-10.185-24.33-11.316.525-.63-.127 8.955-5.664 20.805 0 0-9.613-17.975-11.311-20.239 0 0-5.715 14.12-10.745 22.04 0 0-10.219-4.521-17.546-12.985 0 0-3.944 12.391-1.68 16.918 0 0-9.636-2.206-14.728-18.615 0 0-6.824 9.02-9.319 15.237 0 0-4.261-1.092-20.669-10.711z" style="fill:#f5d;stroke:#d400aa"/><path d="m155.78 673.56c0 0 21.285 24.646 46.49 24.646 25.21 0 35.29-22.965 35.29-28.01 0-5.04-17.924-30.25-17.924-30.25 0 0 18.484-16.244 18.484-59.934 0-43.69-48.17-34.17-53.21-30.25-5.04 3.921-29.687 26.886-38.09 73.937 0 0-42.01-38.09-75.62-35.29-33.608 2.801-19.749 43.516-15.12 53.21 4.625 9.697 26.886 29.687 31.367 31.928 4.481 2.241-2.801 10.08-2.801 10.08 0 0-6.722 27.446 16.804 31.367 23.526 3.921 47.611-12.323 54.33-41.45z" style="fill:#fae;stroke:#bc5fd3"/></g><path d="m83.05 619.86c0 0 27.329 24.953 27.725 33.27.396 8.318-10.827 31.715-3.961 35.25 6.866 3.535 24.16-19.804 30.498-34.458 0 0-5.149-19.408-31.686-35.25-9.631-5.75-17.823-9.506-21.388-6.733-3.565 2.773-2.773 6.733-1.188 7.922" style="fill:#f4d7ee"/><path d="m138.1 651.55c0 0-6.733 16.635-15.05 19.804-8.318 3.169-8.318-9.11-5.149-12.674 0 0-8.714-5.545-3.961-13.862 4.753-8.318 21.784 4.357 24.16 6.733" style="fill:#f06"/><path d="m167.41 641.64c0 0 20.992-60.2 31.29-63.768 10.298-3.565 7.525 20.596 5.941 27.329-1.584 6.733-5.941 19.804-5.545 24.16.396 4.357 7.921 19.408 9.11 22.972 1.188 3.565 2.376 8.318-.792 9.902-3.169 1.584-27.725-7.129-40-20.596" style="fill:#f4d7ee"/><path d="m165.96 642c0 0 16.05 13.689 26.36 12.383 10.311-1.307 3.59-14.176-1.628-16.15 0 0 5.95-10.66-3.504-16.733-9.454-6.074-20.08 16.686-21.23 20.499" style="fill:#f06"/><path d="m360.97801 589.56079a11.313708 11.313708 0 1 1 -22.62741 0 11.313708 11.313708 0 1 1 22.62741 0" transform="matrix(.56 0 0 .56-108.1 286.41)" id="0" style="fill:#aa00d4"/><use transform="translate(112.53-35.599)" xlink:href="#0"/><g style="fill:none;stroke-linecap:round"><path d="m238.57 917.31c0 0-.792 9.704 6.139 12.476 6.931 2.773 10.892-4.555 10.892-4.555 0 0 1.188 9.704 5.743 11.09 4.555 1.386 11.288-6.337 11.288-6.337" style="stroke:#94108d;stroke-linejoin:round;stroke-width:5.601"/><g style="stroke:#d400aa;stroke-width:3.361"><path d="m427.39 934.82c0 0 2.118 12.821-4.918 21.989 0 0-4.03-9.589-8.393-11.401 0 0 1.764 10.164-4.221 17.432 0 0-3.774-10.774-7.734-13.271 0 0 1.32 11.444-1.168 14.488 0 0-5.837-10.304-8.707-11.467"/><path d="m68.5 923.58c0 0-6.856 11.04-3.857 22.2 0 0 7.392-7.32 12.11-7.329 0 0-5.513 8.719-2.76 17.722 0 0 7.604-8.514 12.218-9.309 0 0-5.592 10.07-4.456 13.835 0 0 9.331-7.292 12.427-7.27"/><path d="m242.72 694.07c0 0-7.762-37.21 47.29-56.03 0 0-34.896 35.519 1.032 56.03 0 0 .792-8.714 7.921-14.259 0 0-1.584 9.506 1.584 13.466 0 0 .604-4.049 4.565-8.01 0 0-2.525 6.05 3.02 9.546"/></g></g><g transform="matrix(1.12 0 0 1.12-771.18-48.888)"><path d="m877.54 751.29c0 25.389-20.582 45.971-45.971 45.971-25.389 0-45.971-20.582-45.971-45.971 0-25.389 20.582-45.971 45.971-45.971 25.389 0 45.971 20.582 45.971 45.971" id="1" style="fill:#ce31a5;stroke-width:.988"/><path d="m875.33 751.18c0 24.11-19.546 43.656-43.656 43.656-24.11 0-43.656-19.546-43.656-43.656 0-24.11 19.546-43.656 43.656-43.656 24.11 0 43.656 19.546 43.656 43.656" id="2" style="fill:#ae207b;stroke-width:.938"/><path d="m870.92 750.3c0 22.16-17.818 40.13-39.798 40.13-21.98 0-39.798-17.966-39.798-40.13 0-22.16 17.818-40.13 39.798-40.13 21.98 0 39.798 17.966 39.798 40.13" id="3" style="fill:#84004a"/><path d="m865.19 750.08c0 18.387-14.906 33.29-33.29 33.29-18.387 0-33.29-14.906-33.29-33.29 0-18.387 14.906-33.29 33.29-33.29 18.387 0 33.29 14.906 33.29 33.29" id="4" style="fill:#730042"/><path d="m859.68 750.08c0 16.317-12.636 29.545-28.22 29.545-15.587 0-28.22-13.228-28.22-29.545 0-16.317 12.636-29.545 28.22-29.545 15.587 0 28.22 13.228 28.22 29.545" id="5" style="fill:#6b003a"/><path d="m862.32 732.77c0 8.585-6.959 15.544-15.544 15.544-8.585 0-15.544-6.959-15.544-15.544 0-8.585 6.959-15.544 15.544-15.544 8.585 0 15.544 6.959 15.544 15.544" id="6" style="fill:#e6cede;fill-opacity:.533;stroke-width:2.203"/><path d="m860.01 732.66c0 7-5.676 12.678-12.678 12.678-7 0-12.678-5.676-12.678-12.678 0-7 5.676-12.678 12.678-12.678 7 0 12.678 5.676 12.678 12.678" id="7" style="fill:#e6cede;fill-opacity:.793;stroke-width:1.797"/><path d="m855.82 732.66c0 4.566-3.702 8.268-8.268 8.268-4.566 0-8.268-3.702-8.268-8.268 0-4.566 3.702-8.268 8.268-8.268 4.566 0 8.268 3.702 8.268 8.268" id="8" style="fill:#e6cede;stroke-width:1.172"/><path d="m819.66 764.41c0 4.566-3.702 8.268-8.268 8.268-4.566 0-8.268-3.702-8.268-8.268 0-4.566 3.702-8.268 8.268-8.268 4.566 0 8.268 3.702 8.268 8.268" id="9" style="fill:#e6cede;fill-opacity:.787;stroke-width:1.172"/></g><g transform="matrix(1.12 0 0 1.12-567.53-50.49)"><use xlink:href="#1"/><use xlink:href="#2"/><use xlink:href="#3"/><use xlink:href="#4"/><use xlink:href="#5"/><use xlink:href="#6"/><use xlink:href="#7"/><use xlink:href="#8"/><use xlink:href="#9"/></g><g style="fill:none;stroke:#d400aa;stroke-linecap:round;stroke-width:3.361"><path d="m186.78 866.42c0 0-10.339-8.658-20.748-13.308 0 0 6.659 11.09 6.31 15.635 0 0-25.15-11.702-27.421-12.925 0 0 4.891 11.702 4.891 13.1 0 0-12.05-5.065-15.894-5.24"/><path d="m334.89 865.59c0 0 10.339-8.658 20.748-13.308 0 0-6.659 11.09-6.31 15.635 0 0 25.15-11.702 27.421-12.925 0 0-4.891 11.702-4.891 13.1 0 0 12.05-5.065 15.894-5.24"/></g></g></svg>