<svg xmlns="http://www.w3.org/2000/svg" width="498.36" height="452.74" viewBox="7.852 55.105 498.355 452.739" style="enable-background:new 7.852 55.105 498.355 452.739"><defs><linearGradient id="0" gradientUnits="userSpaceOnUse" x1="259.53" y1="646.12" x2="255.38" y2="1027.06"><stop offset="0" style="stop-color:#5ad94a"/><stop offset=".597" style="stop-color:#63df56"/><stop offset="1" style="stop-color:#52cb4a"/></linearGradient></defs><g transform="translate(0-540.36)"><path d="m447.15 1006.35c0 0-13.244-7.864-13.244-4.553 0 0 7.04 10.761 4.966 16.97 0 0-13.244-9.106-15.313-7.04 0 0-1.655 5.794 3.312 6.622 0 0-10.762 9.934-26.08 8.277 0 0-2.069 8.692-9.105 13.245 0 0-9.105-8.278-14.07-8.691 0 0-9.52 8.691-12.417 9.105 0 0-8.691-5.795-12.417-6.623 0 0-8.277 12-13.244 12 0 0-10.348-14.486-16.14-16.97 0 0-11.589 6.622-18.212 12.83 0 0-7.863-13.244-17.797-13.658 0 0-1.242 7.45 0 9.934 0 0-24.834-4.553-37.25-8.692 0 0-.414 9.105-4.139 10.762 0 0-11.589-4.967-24.419-5.795 0 0 2.897 8.278.828 11.589 0 0-20.695-9.933-28.559-10.761 0 0-.828 4.553-4.967 5.794 0 0-10.347-7.449-19.04-6.208 0 0-3.725 6.622-7.864 6.622 0 0-6.622-12-11.589-15.313 0 0-4.139 12-8.278 13.244 0 0-9.105-15.728-12-18.625 0 0-18.211 8.278-24.419 7.04 0 0 3.311-13.244 2.069-17.797 0 0-4.553 2.896-6.208 3.725 0 0-1.656-2.897-3.311-4.553 0 0-7.04 6.208-10.761 6.622 0 0-1.656-14.07-4.967-19.04 0 0-12 10.348-16.14 9.934 0 0 1.242-15.314-2.897-19.453 0 0-12.417 5.381-19.453 3.725 0 0 9.105-14.486 7.45-23.18 0 0-12 7.04-16.14 7.04 0 0 8.278-16.97 7.04-24.42 0 0-9.105 7.864-12.417 9.106 0 0 0-11.176-2.069-14.9 0 0-2.483 2.897-5.795 3.932 0 0 4.553-18 2.897-23.385 0 0-3.311.414-6.623 0 0 0 3.725-13.658 2.483-19.04 0 0-6.622 6.208-10.761 6.208 0 0-3.311-17.384 13.659-35.18 0 0-8.278-9.105-8.278-15.314 0 0 23.592-7.449 27.731-19.867 0 0-12.417-.413-18.211-3.725 0 0 29.8-9.52 44.701-18.625 0 0-8.692-23.592-9.52-31.04 0 0 16.969 6.623 22.35 2.069 0 0-10.347-3.725-10.761-16.97 0 0 12 .414 18.211-19.453 0 0-4.553-15.314-4.139-26.08 0 0 14.9 8.278 20.281.828 0 0 10.347-13.659 2.483-31.04 0 0 12.831-4.139 25.25.414 0 0-2.897-11.589 5.38-19.867 0 0 5.381 10.348 12.831 10.348 0 0-6.208-16.556-1.242-22.351 0 0 9.934 12 16.556 9.934 0 0 10.347-2.069 10.347-22.764 0 0 13.245.828 15.728 7.04 0 0 8.278-5.38 5.794-8.278 0 0 10.348 4.967 11.589 12.417 0 0 8.691-2.07-1.656-14.486 0 0 19.867 1.655 22.764 13.244 0 0 10.761-21.522 28.14-29.386 17.384-7.864 39.32-11.589 33.11-32.28 0 0 7.449 6.623 7.449 15.314 0 8.692-17.383 14.9-19.04 25.662-1.655 10.761 6.209 19.867 6.209 19.867s3.311-9.52 1.655-13.245c0 0 9.934 3.725 11.175 10.348 0 0 8.692.414 12.417-10.761 0 0 13.658 13.245 12.417 31.04 0 0 8.691.414 15.728-10.347 0 0 7.45 12 5.795 19.453 0 0 26.489 0 35.18 3.725 0 0-8.277 9.105-8.277 13.659 0 0 14.486-3.311 20.28-12 0 0 4.553 10.347 6.622 19.867 0 0 12-2.069 20.695-.828 0 0-2.483 19.453 2.069 25.661 0 0 23.18-2.069 28.14 4.553 0 0-19.867 9.933-16.556 21.11 0 0 4.967 10.347 14.486 4.553 0 0 1.242 23.592-5.381 35.18 0 0 25.662-4.553 31.87 12.831 0 0-11.589 1.241-11.589 6.622 0 0 20.694 4.139 22.35 14.07 0 0-16.14.828-15.313 5.795 0 0 19.453 8.691 19.867 15.729 0 0-7.864-2.07-7.45 1.654 0 0 3.725 3.312 5.794 7.451 0 0-7.04.827-7.45 3.311 0 0 20.281 2.897 21.522 11.176 0 0-20.694-3.312-18.211 5.38 0 0 16.556 17.384 14.9 31.04 0 0-7.04-8.691-12.831-10.761 0 0-4.553 12.417 6.209 18.625 0 0-2.897 5.381-12.831 2.897 0 0 9.52 10.761 8.277 19.453 0 0-15.313-6.623-17.797-3.312 0 0 12 7.864 11.589 12 0 0-10.348-4.967-9.934-1.241 0 0 2.897 9.105 4.967 12.83 0 0-16.556-2.483-15.728.414 0 0 9.52 8.278 10.347 13.245 0 0-19.04-.828-18.625.827 0-.002 4.553 13.243-7.04 21.935z" style="fill:url(#0);stroke:#56af21;stroke-linecap:round;stroke-width:3.942"/><path d="m230.28 910.66c0 0-.414 14.07 2.483 16.14 2.897 2.069 16.14 1.655 18.625 0s3.725-14.9 2.069-18.212c-4.447-6.104-15.871 1.295-23.18 2.07" style="fill:#defbde"/><g style="fill:none;stroke:#56af21;stroke-linecap:round;stroke-width:4.33"><path d="m181.85 719.52c0 0 3.311-4.553 3.725-9.52 0 0 7.864 7.04 13.245 4.967 5.38-2.069 3.311-10.761 3.311-10.761s5.38 5.794 10.347 5.794 4.553-9.105 4.553-9.105"/><path d="m320.92 735.66c0 0 10.347-8.278 10.761-12.831 0 0 2.069 11.589 5.795 13.245 3.725 1.655 9.52-3.725 9.52-3.725s-.414 12.831 4.139 14.486c4.553 1.656 10.762-4.553 10.762-4.553s-2.897 11.589 2.897 11.589c5.794 0 6.622-2.897 6.622-2.897"/><path d="m82.1 832.92c0 0 10.761-17.383 20.695-17.383 0 0 4.967 13.658 0 21.936 0 0 12.831-2.896 19.453-12"/><path d="m127.22 838.31c0 0 4.967 7.45 7.45 8.691 0 0 8.278-4.967 8.692-8.691 0 0 5.794 6.209 5.794 9.105 0 0 9.52 0 5.794-12.416 0 0 12 6.621 12.417 17.383"/><path d="m175.64 885.49c0 0 21.11-39.32 34.35-44.7 0 0-7.45 12.417-5.794 19.453 0 0 12-14.9 18.625-17.384 6.622-2.483 11.589-3.725 11.589-3.725"/><path d="m247.66 844.51c0 0 .828-12.832 3.311-14.486 0 0 5.794 14.899 13.245 13.658 0 0 9.934-5.795 6.208-17.384 0 0 17.798 4.553 23.18 13.245 0 0 7.04-7.865 7.45-17.385 0 0 17.798 4.14 25.25 4.553 0 0 8.277-7.03 2.483-14.07 0 0 21.936 4.14 30.628-1.241 0 0 .827-2.897-.828-7.04 0 0 14.07 2.069 17.384 6.209 0 0 12-5.795 15.728-10.762 0 0 7.864 4.139 7.45 11.589 0 0 16.14-4.967 17.798-10.761 0 0 8.277 13.658 7.04 17.797 0 0 3.725-5.381 2.483-9.52 0 0 7.04 5.795 8.691 10.348"/><path d="m226.96 896.25c0 0-.828 11.175-2.897 14.9 2.069 0 14.486 3.311 22.764-7.04 0 0 7.45 8.692 14.899 8.278 7.451-.414 13.245-12 13.245-12s5.794 8.691 8.692 10.762c0 0 6.208-12 7.863-13.659 0 0 11.59 9.52 17.384 10.761 0 0 1.655-10.347 7.45-12.83 0 0 9.934 7.864 13.244 7.04 0 0 4.553-13.658 6.209-14.07 0 0 11.175 8.692 13.658 3.726s2.483-10.348 2.483-10.348"/></g><g transform="matrix(.657 0 0 .657-1174.1 528.83)"><path d="m2182.26 368.49c0 31.15-25.26 56.41-56.41 56.41-31.15 0-56.41-25.25-56.41-56.41 0-31.15 25.25-56.41 56.41-56.41 31.15 0 56.41 25.25 56.41 56.41" style="fill:#3a8129"/><path d="m2176.56 367.35c0 28.635-23.02 51.848-51.42 51.848-28.399 0-51.42-23.21-51.42-51.848 0-28.636 23.02-51.849 51.42-51.849 28.399.0001 51.42 23.21 51.42 51.849" style="fill:#295910"/><path d="m2169.16 367.07c0 23.758-19.26 43.02-43.02 43.02-23.757 0-43.02-19.26-43.02-43.02 0-23.757 19.26-43.02 43.02-43.02 23.758 0 43.02 19.26 43.02 43.02" style="fill:#214508"/><path d="m2162.03 367.07c0 21.08-16.325 38.17-36.464 38.17-20.14 0-36.465-17.09-36.465-38.17 0-21.08 16.326-38.17 36.465-38.17 20.14 0 36.465 17.09 36.464 38.17" style="fill:#193d00"/><g style="fill:#e6cede"><path d="m2165.45 344.7c0 11.09-8.992 20.08-20.08 20.08s-20.08-8.992-20.08-20.08c0-11.09 8.992-20.08 20.08-20.08s20.08 8.992 20.08 20.08" style="fill-opacity:.533"/><path d="m2162.46 344.56c0 9.05-7.334 16.38-16.381 16.38s-16.38-7.334-16.38-16.38 7.334-16.38 16.38-16.38 16.381 7.333 16.381 16.38" style="fill-opacity:.793"/><path d="m2157.05 344.56c0 5.9-4.783 10.683-10.683 10.683-5.9 0-10.683-4.783-10.683-10.683 0-5.9 4.783-10.683 10.683-10.683 5.9 0 10.683 4.783 10.683 10.683"/><path d="m2110.33 385.58c0 5.899-4.783 10.682-10.683 10.682s-10.682-4.783-10.682-10.682c0-5.9 4.782-10.683 10.682-10.683s10.683 4.783 10.683 10.683" style="fill-opacity:.787"/></g></g><g transform="matrix(.657 0 0 .657-1175.96 526.04)"><path d="m2326.22 373.54c0 23.342-18.921 42.26-42.26 42.26-23.342 0-42.26-18.923-42.26-42.26s18.923-42.26 42.26-42.26c23.341 0 42.26 18.923 42.26 42.26" style="fill:#3a8129"/><path d="m2321.95 372.69c0 21.456-17.249 38.848-38.528 38.848s-38.53-17.393-38.53-38.848c0-21.456 17.251-38.849 38.53-38.849s38.528 17.393 38.528 38.849" style="fill:#295910"/><path d="m2316.4 372.47c0 17.801-14.429 32.23-32.23 32.23-17.801 0-32.23-14.431-32.23-32.23 0-17.801 14.43-32.23 32.23-32.23 17.802 0 32.23 14.43 32.23 32.23" style="fill:#214508"/><path d="m2311.07 372.47c0 15.796-12.233 28.603-27.323 28.603-15.09 0-27.322-12.807-27.322-28.603 0-15.797 12.233-28.604 27.322-28.604 15.09 0 27.323 12.807 27.323 28.604" style="fill:#193d00"/><g style="fill:#e6cede"><path d="m2313.63 355.72c0 8.311-6.736 15.05-15.05 15.05s-15.05-6.738-15.05-15.05 6.736-15.05 15.05-15.05 15.05 6.738 15.05 15.05" style="fill-opacity:.533"/><path d="m2311.39 355.61c0 6.779-5.495 12.274-12.274 12.274-6.778 0-12.273-5.495-12.273-12.274s5.495-12.274 12.273-12.274c6.779.0001 12.274 5.496 12.274 12.274" style="fill-opacity:.793"/><path d="m2307.33 355.61c0 4.421-3.583 8-8 8-4.422 0-8.01-3.584-8.01-8 0-4.42 3.583-8 8.01-8 4.421 0 8 3.584 8 8"/><path d="m2272.32 386.35c0 4.42-3.584 8-8 8-4.422 0-8.01-3.584-8.01-8 0-4.421 3.583-8 8.01-8 4.42 0 8 3.584 8 8" style="fill-opacity:.787"/></g></g></g></svg>