<svg xmlns="http://www.w3.org/2000/svg" width="500.07" height="473.6" viewBox="6.831 22.726 500.074 473.601" style="enable-background:new 6.831 22.726 500.074 473.601"><g transform="translate(0-540.36)"><path d="m140.52 611.82c0 0 2.836 17.02-1.702 31.2 0 0-26.09-15.883-35.17-17.02 0 0 10.778 19.854 10.778 22.69 0 0-15.315-7.941-19.287-10.21 0 0 .567 20.988-.567 27.23 0 0-19.854-10.778-23.257-10.778 0 0-.567 14.749 13.05 36.871 0 0-20.42-1.702-41.41-12.479 0 0 5.105 21.556 12.479 32.9 0 0-17.585-2.269-22.69-5.105 0 0-1.135 14.749 9.643 24.958 0 0-9.643 7.375-18.719 4.538 0 0 1.702 16.45 11.913 23.257 0 0-15.883 7.941-22.69 6.24 0 0 5.672 13.614 14.181 18.15 0 0-.567 19.287-17.02 27.23 0 0 11.345 17.584 10.21 22.12 0 0-5.105 6.807-8.509 4.537 0 0 11.912 7.375 20.421 10.211 0 0-14.749 11.912-21.555 10.21 0 0 6.807 13.05 15.315 10.778 0 0 87.36 101.54 105.51 122.52 0 0 5.673 21.555 14.182 30.631 0 0 3.403-15.883 5.105-19.286 0 0 17.584 27.795 17.584 32.9 0 0 10.778-21.556 12.479-26.661 0 0 7.942 9.644 9.08 13.614l235.97-89.06c0 0 14.182 1.135 23.258 8.509 0 0 0-12.479 1.701-15.884 0 0 6.807-1.701 6.807 1.135 0 0 2.27-24.392-2.269-36.3l-7.941-242.21-8.509 1.134c0 0 5.105-21.556-6.239-45.38 0 0-13.05 19.287-14.749 22.12 0 0-3.403-26.09-5.672-34.03 0 0-3.971 10.21-8.509 15.883 0 0-5.673-20.988-9.08-27.795 0 0-13.05 19.286-18.72 26.09l-214.99 24.675c.002.002-14.179-16.16-20.419-20.13z" style="fill:#e00;stroke:#900000;stroke-linecap:round;stroke-width:2.547"/><path d="m421.2 785.62c.011 25.444-20.438 46.08-45.672 46.09-25.23.001-45.699-20.608-45.709-46.05 0-.012 0-.024 0-.036-.001-25.444 20.438-46.08 45.672-46.09 25.23-.001 45.699 20.608 45.709 46.05 0 .012 0 .025 0 .037" style="fill:#1b0d00"/><path d="m414.62 785.37c0 21.11-17.11 38.22-38.22 38.22-21.11 0-38.22-17.11-38.22-38.22s17.11-38.22 38.22-38.22c21.11 0 38.22 17.11 38.22 38.22" style="fill:#3c2a00"/><path d="m408.29 785.37c0 18.733-14.507 33.92-32.401 33.92s-32.401-15.188-32.401-33.92c0-18.733 14.507-33.92 32.401-33.92s32.401 15.187 32.401 33.92" style="fill:#4f4500"/><path d="m395.17 782.18c0 6.867-5.567 12.434-12.434 12.434-6.867 0-12.434-5.567-12.434-12.434 0-6.867 5.566-12.434 12.434-12.434 6.867 0 12.434 5.566 12.434 12.434" style="fill:#8c8152;fill-opacity:.505"/><g style="fill:#e00"><path d="m322.8 837.67c0 0 21.538-13.666 28.906-1.783 0 0 16.15-12.52 29.18-1.824" style="stroke:#900000;stroke-linecap:round;stroke-width:2.606"/><g transform="matrix(1.148 0 0 1.148-171.47 204.39)"><path d="m473.92 471.03c0 0 7.422 19.715-10.603 22.18 0 0-6.892 0-9.01-2.957 0 0-12.193 5.915-17.495 1.972 0 0-5.832 14.786-18.02 7.886" style="stroke:#900000;stroke-linecap:round;stroke-width:2.295"/><path d="m433.92 483.44l6.667 6.389 30.557-13.334-12.779-11.667-24.445 18.612"/></g></g><g style="stroke-linecap:round;stroke-width:2.547"><g style="fill:#782c2c;stroke:#4c1313"><path d="m366.29 726.4c0 0-1.135-6.24-5.673-10.778 0 0 21.556-1.702 24.392 5.105 0 0 4.538-20.988-.567-25.526 0 0 17.02 5.105 17.02 8.509 0 0-.567-28.93-4.538-34.602 0 0 17.02 3.404 19.287 9.08 0 0 1.134-22.12-3.404-25.526 0 0 18.15 7.375 19.287 13.614 0 0 14.181-18.719 18.719-22.12 0 0 10.777 21.555 10.777 28.93 0 0 26.09-2.269 27.796 6.807 0 0-21.556 12.479-23.258 31.766 0 0 30.632 1.134 29.497 14.181 0 0-18.15 14.181-17.585 20.14 0 0 25.526 3.687 27.23 7.09 0 0-22.12 14.749-35.736 24.959 0 0 27.23 20.988 27.23 32.33 0 0-22.69-2.836-25.526-.566 0 0 23.257 31.2 20.421 62.964 0 0-13.05-14.749-24.959-22.12 0 0 15.315 26.66 10.778 57.29 0 0-25.526-23.257-36.31-22.12 0 0-2.269 1.135-3.971 7.942 0 0-6.239-15.884-15.883-27.23 0 0-12.479 6.807-12.479 13.05 0 0-2.836-10.778-7.941-13.615 0 0-11.345-2.269-10.777 6.808 0 0-4.68-30.09-10.919-42.573 0 0 10.354-5.863 16.594-1.893 0 0 8.247-21.548 15.05-14.174 0 0 3.751-12.447 8.288-10.178 0 0-2.287-11.02-2.096-17.83 0 0-10.662-9.444-9.117-16.805 0 0-17.893-.293-18.14-7.654 0 0-13.847 1.627-22.354-5.18 0 0-14.482-24.09-34.04-27.23 12.21-3.709 28.359-6.238 32.897-2.835z"/><path d="m423.01 753.06c0 0 5.105-3.403 5.105-6.807 0 0 8.509-.567 9.07-9.644"/></g><path d="m273.26 818.3l-8.508-5.105c0 0 7.374-7.374 10.777-8.508 0 0-6.24-8.509-8.509-9.08 0 0 13.05-3.971 15.883-1.702" style="fill:#e00;stroke:#900000"/></g><g transform="matrix(.637 0 0 .637 48.06 903.25)"><path d="m340.91-244.83c0 0 80.63-20.16 132.29-86.93 51.657-66.777 34.02-107.09 32.758-117.17-1.261-10.08-15.12-16.379-7.56-20.16 7.56-3.78 26.459-7.56 30.24 0 3.781 7.559 6.301 18.899 6.301 27.718 0 8.82-1.261 64.26-52.918 128.51-51.657 64.26-134.81 98.27-134.81 98.27s-10.08 97.01-45.36 146.15c-35.28 49.14-115.91 88.19-125.99 88.19s-124.73-78.11-141.11-97.01-34.02-56.697-34.02-56.697-47.878 27.718-51.657 34.02c-3.78 6.299-21.419-27.718-10.08-34.02 11.34-6.299 50.4-32.758 50.4-32.758s-7.559-27.718-3.78-40.32c3.78-12.599 69.3-62.996 115.91-73.08 46.618-10.08 86.94-18.898 128.51-18.898 41.577 0 95.75 28.978 110.87 54.18" style="fill:#212121"/><path d="m206.1-278.84c64.26 0 95.12 13.229 101.42 18.899 6.3 5.669 25.828 23.308 25.828 45.987 0 22.678-17.01 120.95-49.14 148.67-32.13 27.719-79.27 59.13-111.39 59.13-32.13 0-85.17-45.789-120.43-73.62-30.2-23.834-58.59-117.8-57.33-124.73s110.24-74.34 211.04-74.34" style="fill:#4b4b4b"/><path d="m187.2-205.77c6.93.63 15.12-8.189 15.12-14.489 0 0 8.189 11.969 5.67 20.789l14.489 1.89-.63 10.709 17.01-.63c0 0-.63 15.12-3.78 15.12 0 0 11.969 11.34 11.969 15.12 0 0-10.709 3.781-12.599 9.449 0 0 6.299 19.529 9.449 20.789 0 0-14.489.63-17.01.63 0 0-4.41 13.229-3.779 15.749 0 0-6.93-7.56-9.449-10.08 0 0-3.15 14.488-5.04 17.638l-16.379-9.449c0 0-11.339 15.75-15.749 15.75 0 0-6.93-11.969-7.559-14.491 0 0-10.08 11.341-11.339 13.859 0 0-8.189-10.709-8.82-27.09l-19.529 6.299c0 0 1.89-9.448 1.89-13.229 0 0-13.859.63-14.489 2.52 0 0-1.26-13.859 8.819-25.2l-15.12-5.67c0 0 17.639-10.08 20.16-11.969l-5.04-6.93 8.189-3.78c0 0 1.89-15.12.63-18.899l14.489 3.15c0 0 7.56-11.969 6.3-16.379l15.749 6.3c0 0 4.41-8.189 9.449-10.709.0001 0 .0001 12.599 6.93 13.229" style="fill:#fffeff"/><g style="fill:#4b4b4b;stroke:#000"><path d="m147.2-178.99l8.505 4.41c0 0 5.355-7.874 6.93-7.874 1.575 0 4.41 4.094 4.095 5.669-.315 1.575-4.725 6.93-4.725 6.93s6.299 3.78 6.299 4.725c0 .945-1.89 6.299-3.15 6.299s-9.134-5.354-9.134-5.354-6.614 9.765-8.19 9.133c-1.575-.629-5.355-2.834-5.355-4.408 0-1.575 7.56-9.45 7.56-9.45s-7.874-4.094-7.56-5.04c.315-.947 4.725-5.04 4.725-5.04z"/><path d="m204.74-185.08l-6.558 6.984c0 0-7.666-5.65-9.151-5.127s-2.8 5.327-1.979 6.707c.82 1.381 6.758 4.968 6.758 4.968s-4.687 5.657-4.374 6.548 3.875 5.314 5.063 4.896c1.189-.417 6.838-8.08 6.838-8.08s9.482 7.01 10.758 5.897 4.11-4.453 3.587-5.938c-.523-1.485-10.268-6.403-10.268-6.403s6.068-6.477 5.457-7.264-6.131-3.184-6.131-3.184z"/></g><g style="fill:#fffeff"><path d="m122-171.75l-16.694 6.614-17.639-9.134c0 0-5.04 8.19-14.489 4.725-9.449-3.465-9.765-13.859-5.355-18.584 4.41-4.725 6.615-5.355 6.615-5.355s2.834 1.575 4.094 1.575-3.15-9.765-4.094-14.489c-.946-4.725 2.205-12.914 5.984-13.229 3.78-.315 15.749 2.205 17.639 5.04 1.89 2.835 4.725 9.134 5.04 11.34 0 0 17.639 3.779 19.844 5.67l.945 11.654c0 0-7.244 4.41-6.93 6.614l5.04 7.56"/><path d="m215.23-204.19v-6.299c0 0 17.954-20.16 19.529-20.474 1.574-.315 5.04-.945 3.15-3.78-1.89-2.834-4.095-9.764-2.52-11.02 1.575-1.26 6.614-5.355 10.709-5.355 4.094 0 12.284 5.355 11.969 7.875-.315 2.52-2.205 6.614-3.465 8.504-1.26 1.89 1.574 4.095 4.725 2.52 3.15-1.574 8.773-2.662 11.654-1.89s9.449 3.78 8.819 14.174c-.63 10.394-7.245 14.174-11.969 14.174s-8.504-1.26-8.504-1.26l-10.709 11.969c0 0-16.06-.315-18.584.945 0 0-1.575-4.095-3.465-9.134 0 0-8.819-2.835-11.339-.945"/><path d="m248.62-152.22c0 0-8.505 3.465-8.505 5.04 0 1.575 6.3 15.749 7.874 18.899 1.575 3.149.945 5.983-4.094 5.67-5.04-.316-11.654-.632-11.654-.632l.945 3.781c0 0 20.16 5.985 22.679 7.874 2.519 1.891 11.654 5.985 11.654 5.985s.314 5.354 6.299 5.354 13.545-3.779 13.545-10.709.314-10.08.314-10.08 13.545-.945 13.545-13.859c0-12.914-11.654-14.489-13.859-14.489s-10.709 4.725-11.654 7.876c-.0001 0-25.2-8.821-27.09-10.71"/><path d="m127.04-127.97c0 0-15.434 6.301-18.584 10.709-3.15 4.411-8.189 3.15-10.08 4.726-1.89 1.575-6.584 3.597-6.584 11.405s10.05 6.864 10.05 6.864-.945 12.285 10.394 12.285c11.34 0 11.03-5.67 11.03-5.67s-4.095-5.67 3.15-9.765c7.245-4.094 15.749-11.338 15.749-11.338l2.834 1.259c0 0-1.574-7.56-1.574-9.449s3.15-5.356 3.15-5.356-9.449 5.04-19.214 5.985c-.631-5.354-4.411-4.095-.315-11.655"/></g></g><g style="stroke-linecap:round;stroke-width:2.547"><g style="fill:#782c2c;stroke:#4c1313"><path d="m151.3 681.02c0 0 6.807-22.12 12.479-31.2 0 0-21.556-52.754 34.03-84.52 0 0-.567 33.468 10.778 49.918 0 0 8.509-35.17 20.421-45.947 0 0 11.912 24.392 23.257 35.17 0 0 9.644-26.661 23.257-32.9 0 0 4.538 27.795 14.748 37.438 0 0 15.316-22.12 14.749-32.9 0 0 24.392 20.421 25.526 30.06 0 0 25.525-24.392 31.2-26.09 0 0 0 24.958 8.509 39.14l-7.941 1.702c0 0 0 17.584-.567 22.12 0 0-5.105-4.538-9.644-10.778 0 0-3.403 16.45-6.807 22.69 0 0-5.105-10.21-12.479-19.287 0 0-8.509 21.556-6.239 32.33 0 0-5.105-8.509-7.942-13.05 0 0-1.134 28.362 2.837 39.707 0 0-28.363-6.807-29.497-21.555 0 0-19.854 18.15-19.854 34.03 0 0-27.23-16.45-29.497-23.257 0 0-20.988 13.05-26.09 15.315 0 0-14.181-26.09-17.585-38 0 0-8.508 17.02-9.08 25.526 0 0-3.403-14.181-3.403-27.23 0 .0001-27.23 18.15-35.17 21.556z"/><path d="m243.19 666.84c0 0-9.08-27.795-6.24-42.543 0 0 20.42 22.12 22.69 27.23 0 0 7.374-27.795 17.02-32.33 0 0-1.135 20.421 2.836 23.824"/><path d="m73.02 852.33c0 0-55.59 23.257-62.964 26.09 0 0 5.105 20.42 36.3 20.42 0 0-22.69 20.988-31.2 20.422 0 0 28.93 13.05 36.872 9.643 0 0 0 31.766 2.836 38.573 0 0 12.479-26.661 19.854-29.497 0 0 10.778 5.672-.567 19.854 0 0 6.807 6.807 13.614 2.269 0 0-3.971 30.06-2.269 36.871 0 0 16.45-19.286 22.12-19.854 0 0 4.538 19.854 7.941 24.959 0 0 12.479-21.556 17.585-24.959 0 0 10.777-1.135 10.21 5.105 0 0 15.315-15.883-17.585-35.736 0 0 21.556-9.08 28.362-7.374 0 0-2.836-7.375-10.21-10.778 0 0 15.316-1.134 23.257-9.08 0 0-18.719-5.105-24.392-16.451 0 0-8.509 1.135-10.21 3.971 0 0-6.24-10.21-7.941-13.05l-8.509 9.08c0 0-11.345-14.748-11.912-22.12 0 0-7.941 6.239-8.509 13.05 0 0-7.374-18.719-8.509-27.23 0 0-13.614 4.537-13.614 10.777-.0001-.0001.567-18.721-.568-24.96z"/><path d="m284.04 1010.02c0 0 6.239 17.02 6.239 21.556 0 0 26.09-18.15 26.661-27.23 0 0 17.585 3.971 20.988 12.479 0 0 19.854-21.555 19.854-32.899 0 0 23.257 9.08 23.257 20.42 0 0 13.05-14.748 16.45-45.946 0 0 17.02 10.21 17.02 17.02 0 0 27.795-24.959-7.941-69.771 0 0 19.854-5.673 22.689-2.837 0 0-21.555-14.748-38-19.286 0 0-3.404-7.941-2.837-10.21 0 0-19.854 2.836-22.689 4.537 0 0-3.971-13.05-3.403-15.314 0 0-10.778 5.672-11.345 9.643 0 0-5.673-8.509-6.24-13.614l-15.315 12.479c0 0-3.403-19.286-22.12-31.2 0 0 .567 22.689-2.269 31.2 0 0-18.72-11.912-20.988-15.315 0 0-5.105 19.286-9.08 24.392 0 0-14.748-14.748-18.15-19.287 0 0-2.27 17.02-2.27 22.12 0 0-10.777-4.537-11.912-18.719 0 0-17.02 19.286-17.02 28.362 0 0-7.941-5.673-7.941-9.08 0 0-9.643 12.479-9.643 17.02 0 0-16.45 1.702-23.257 4.538 0 0 5.672 13.613 10.21 19.286 0 0-23.257 10.21-24.392 14.182 0 0 17.585 7.941 19.287 10.777 0 0-26.09 21.556-25.526 27.795 0 0 12.479-3.971 19.854-6.807 0 0 3.971 10.777 1.702 16.45 0 0 14.181-1.702 17.584-8.509 0 0 2.269 32.33-12.479 50.48 0 0 41.977-12.479 44.813-19.286 0 0 5.105 11.345 1.702 18.15 0 0 21.555-3.971 27.794-15.316 0 0 4.539 9.08 2.837 15.883-.002-.0001 15.881-13.615 15.881-18.15z"/><path d="m221.64 957.27c0 0 19.854 16.45 29.497-6.807 0 0 19.286 17.02 30.06-6.807 0 0 19.287 15.883 27.23-6.24 0 0 20.988 10.211 24.959-9.644 0 0 14.748 15.316 23.824-6.239"/></g><path d="m102.92 705.42l-2.42-9.623c0 0 10.429-.014 13.64 1.586 0 0 1.59-10.431.384-12.435 0 0 12.04 6.401 12.448 10.01" style="fill:#e00;stroke:#900000"/></g></g></svg>