<?xml version="1.0" encoding="utf-8"?>
<!-- Generator: Adobe Illustrator 17.0.0, SVG Export Plug-In . SVG Version: 6.00 Build 0)  -->
<!DOCTYPE svg PUBLIC "-//W3C//DTD SVG 1.1//EN" "http://www.w3.org/Graphics/SVG/1.1/DTD/svg11.dtd">
<svg version="1.1"
	 id="svg2" xmlns:cc="http://creativecommons.org/ns#" xmlns:svg="http://www.w3.org/2000/svg" xmlns:dc="http://purl.org/dc/elements/1.1/" xmlns:rdf="http://www.w3.org/1999/02/22-rdf-syntax-ns#"
	 xmlns="http://www.w3.org/2000/svg" xmlns:xlink="http://www.w3.org/1999/xlink" x="0px" y="0px" width="512px" height="512px"
	 viewBox="0 0 512 512" enable-background="new 0 0 512 512" xml:space="preserve">
<g id="layer1" transform="translate(0,-540.36218)">
</g>
<g id="layer11">
	<g id="g33095" transform="matrix(0.85467708,0,0,0.85467708,46.252914,72.417372)">
		<path id="path32266" fill="#B61AD7" stroke="#8D18A4" stroke-width="7" d="M184.962-31.243
			C202.248-20.007,217.806,1.6,217.806,8.515c0,0,19.879-19.015,20.743-31.979c0,0,1.729,7.779,17.286,12.965
			s53.587,21.608,59.637,41.487c0,0,12.1-4.322,14.693-23.336c0,0,7.779,19.879,18.15,28.522c0,0,8.643-15.558,13.829-15.558
			c0,0,1.729,18.15,12.965,21.608c11.236,3.457,58.773,22.472,71.738,46.673c0,0,3.457-18.15,11.236-19.879
			c0,0,4.322,26.794,12.965,33.708c8.643,6.914,27.658,5.186,35.437,75.195c0,0,4.322,0.864,7.779-6.05
			c0,0,6.914,12.965,1.729,39.758c0,0,8.643,0.864,10.372-6.05c0,0,22.472,39.758-5.186,85.567c0,0,4.322,2.593,12.1-1.729
			c0,0-0.864,35.437-28.522,63.095c0,0-0.864,5.186,5.186,5.186c0,0-14.693,35.437-46.673,53.587c0,0-0.864,8.643,11.236,9.507
			c0,0-26.794,19.015-34.572,20.743c0,0,5.186,5.186,12.1,5.186c0,0-42.351,38.894-94.21,40.623c0,0,5.816,4.434,17.428,8.101
			c0,0-13.445,15.279-63.561-3.056c0,0-6.112,5.5-1.222,12.834c0,0-14.057,1.222-23.224-9.779c0,0-26.28,10.39-47.67,10.39
			c0,0-1.528-4.889,0.917-11.001c0,0-10.695,3.667-17.112,3.973s-15.585-2.139-20.168-0.611c-4.584,1.528-18.946,4.584-18.335,10.39
			c0,0-8.251-7.028-3.973-20.168c0,0-38.809,9.779-50.726,10.084c0,0,2.445-1.833,0.917-8.862c0,0-5.806,0.611-7.334-4.278
			c0,0,6.112-8.251,6.112-12.529c0,0-32.086,5.806-51.337,2.139c0,0,15.279-14.362,15.89-23.53c0,0-17.724,9.167-31.475,10.084
			c-13.751,0.917-35.142-1.222-41.253-7.334c0,0,16.196-8.862,21.391-17.724c0,0-18.946,2.445-29.641-9.167
			c0,0,14.057-5.806,18.946-23.53c0,0-16.807-3.973-25.363,3.361c0,0-3.973-23.835,2.445-47.059c0,0-15.89,1.528-22.307-1.833
			c0,0,6.112-9.167,8.556-40.031c0,0-17.112,6.723-22.918,2.75c0,0,10.695-15.279,15.89-33.614c0,0-34.225,7.334-38.503-15.89
			c0,0,11.001,6.112,17.724-4.584s5.806-40.031,11.306-48.893c5.5-8.862,18.946-25.363,32.391-32.391c0,0-11.306-5.806-24.446,3.361
			c0,0-4.278-12.529,11.001-29.336s37.892-14.668,37.892-14.668s-43.698,4.584-51.949-25.363c0,0,16.196,3.056,25.363-10.39
			C17.112,98.19,32.697,76.493,44.615,71.91c0,0-2.139-7.639-0.611-16.807c0,0,13.751,14.362,38.197-1.833
			c0,0-4.278-1.528-1.375-12.223c0,0,13.598,13.14,23.377,11.612c9.779-1.528,27.808-24.446,36.67-40.031
			s25.363-15.279,29.03-20.168s-6.417-18.946-24.42-23.616C145.483-31.157,167.676-42.479,184.962-31.243L184.962-31.243z"/>
		<g id="g32397" transform="matrix(1.3111495,0,0,1.3111495,-462.01747,-41.74832)">
			<path id="path4033-7-2-7" fill="#4ACD27" d="M662.024,192.206c0.019,23.847-19.297,43.194-43.144,43.214
				c-23.847,0.019-43.194-19.297-43.214-43.144c0-0.023,0-0.047,0-0.07c-0.019-23.847,19.297-43.194,43.144-43.214
				c23.847-0.019,43.194,19.297,43.214,43.144C662.024,192.159,662.024,192.182,662.024,192.206z"/>
			<path id="path4031-9-8-9" fill="#52E41F" d="M657.663,191.333c0.009,21.92-17.608,39.697-39.347,39.705
				c-21.739,0.009-39.369-17.754-39.378-39.674c0-0.01,0-0.021,0-0.031c-0.009-21.92,17.608-39.697,39.347-39.705
				c21.739-0.009,39.369,17.754,39.378,39.674C657.663,191.312,657.663,191.323,657.663,191.333z"/>
			<path id="path4029-3-6-25" fill="#62EC36" d="M651.993,191.115c0,18.186-14.743,32.929-32.929,32.929
				c-18.186,0-32.929-14.743-32.929-32.929s14.743-32.929,32.929-32.929C637.25,158.186,651.993,172.929,651.993,191.115z"/>
			<path id="path3246-1-0-5" fill="#71E64F" d="M646.541,191.115c0,16.139-12.497,29.222-27.913,29.222
				c-15.416,0-27.914-13.083-27.914-29.222s12.497-29.222,27.914-29.222C634.044,161.893,646.541,174.977,646.541,191.115z"/>
			<path id="path4053-8-8-4-6" fill="#C1FBAF" d="M646.868,173.887c0,6.925-5.614,12.539-12.539,12.539
				c-6.925,0-12.539-5.614-12.539-12.539l0,0c0-6.925,5.614-12.539,12.539-12.539C641.254,161.348,646.868,166.962,646.868,173.887z
				"/>
			<path id="path4053-8-7-6-8-7" fill="#F7F2EF" d="M642.725,173.887c0,4.516-3.661,8.178-8.178,8.178
				c-4.517,0-8.178-3.661-8.178-8.178l0,0c0-4.516,3.661-8.178,8.178-8.178C639.063,165.71,642.725,169.371,642.725,173.887z"/>
			<path id="path4053-8-7-4-5-6-64" fill="#F5F3F4" d="M600.444,207.215c0,2.472-2.004,4.475-4.475,4.475
				c-2.472,0-4.475-2.004-4.475-4.475l0,0c0-2.472,2.004-4.475,4.475-4.475S600.444,204.744,600.444,207.215z"/>
		</g>
		<path id="path32410" fill="#B61AD7" stroke="#8D18A4" stroke-width="7" stroke-linecap="round" d="M290.974,150.133
			c8.713-14.944,27.065-27.007,43.487-22.627"/>
		<g id="g33000" transform="translate(0,-17)">
			<path id="path4033-7-2-7-6" fill="#4ACD27" d="M227.734,245.622c0.025,31.267-25.301,56.634-56.568,56.659
				c-31.267,0.025-56.634-25.301-56.659-56.568c0-0.03,0-0.061,0-0.091c-0.025-31.267,25.301-56.634,56.568-56.659
				s56.634,25.301,56.659,56.568C227.734,245.561,227.734,245.591,227.734,245.622z"/>
			<path id="path4031-9-8-9-2" fill="#52E41F" d="M222.015,244.478c0.011,28.74-23.086,52.048-51.589,52.059
				c-28.503,0.011-51.619-23.278-51.63-52.018c0-0.014,0-0.027,0-0.041c-0.011-28.74,23.086-52.048,51.589-52.059
				c28.503-0.011,51.619,23.278,51.63,52.018C222.015,244.451,222.015,244.464,222.015,244.478z"/>
			<path id="path4029-3-6-25-5" fill="#62EC36" d="M214.581,244.192c0,23.845-19.33,43.175-43.175,43.175
				s-43.175-19.33-43.175-43.175c0-23.845,19.33-43.175,43.175-43.175S214.581,220.347,214.581,244.192z"/>
			<path id="path3246-1-0-5-3" fill="#71E64F" d="M207.433,244.192c0,21.16-16.386,38.314-36.599,38.314
				c-20.213,0-36.599-17.154-36.599-38.314s16.386-38.314,36.599-38.314C191.047,205.878,207.433,223.032,207.433,244.192z"/>
			<path id="path4053-8-8-4-6-6" fill="#C1FBAF" d="M207.862,239.604c0,9.08-7.361,16.441-16.441,16.441
				c-9.08,0-16.441-7.361-16.441-16.441l0,0c0-9.08,7.361-16.441,16.441-16.441C200.501,223.163,207.862,230.524,207.862,239.604z"
				/>
			<path id="path4053-8-7-6-8-7-6" fill="#F7F2EF" d="M202.429,239.604c0,5.922-4.801,10.722-10.722,10.722
				c-5.922,0-10.722-4.801-10.722-10.722l0,0c0-5.922,4.801-10.722,10.722-10.722C197.628,228.882,202.429,233.682,202.429,239.604z
				"/>
			<path id="path4053-8-7-4-5-6-64-8" fill="#F5F3F4" d="M146.993,265.302c0,3.241-2.627,5.868-5.868,5.868
				c-3.241,0-5.868-2.627-5.868-5.868l0,0c0-3.241,2.627-5.868,5.868-5.868C144.366,259.434,146.993,262.061,146.993,265.302z"/>
		</g>
		<path id="path32991" fill="#B61AD7" d="M133.997,183.72c18.629,22.011,62.56,30.662,90.156,24.749
			C231.756,166.083,147.967,153.453,133.997,183.72z"/>
		<path id="path32408" fill="#B61AD7" stroke="#8D18A4" stroke-width="7" stroke-linecap="round" d="M231.224,130.687
			c-3.994,27.829-16.029,39.466-43.841,37.83"/>
		<path id="path32412" fill="#8D18A4" d="M72.832,214.126c0,0,16.971-18.385,40.305-17.324s36.416,15.91,65.761,19.799
			c29.345,3.889,53.033-1.414,66.115-9.546c13.081-8.132,16.617-16.617,16.617-16.617s-3.889,2.475-6.364,3.889
			c0,0-2.828-4.243-1.414-6.364c0,0-12.021,14.142-31.82,16.617c-19.799,2.475-53.387-1.414-67.882-12.021
			c-14.496-10.607-18.738-26.87-22.274-28.284s-6.718,2.121-6.718,5.303s-2.475,9.899-1.414,11.667c0,0-10.96-9.546-10.253-25.809
			c0,0-8.485,4.95-2.828,28.991c0,0-12.374-2.121-21.213,4.243C80.61,195.034,73.186,208.116,72.832,214.126L72.832,214.126z"/>
		<path id="path33009" fill="#B61AD7" d="M296.631,187.256c24.598-14.927,51.653-22.38,78.135-26.163
			C347.16,128.534,301.713,151.681,296.631,187.256z"/>
		<path id="path32414" fill="#8D18A4" d="M279.661,205.994l13.789-0.354c0,0,2.828-18.385,31.113-27.577
			s49.497-13.789,56.215-12.021c6.718,1.768,13.081,1.768,15.556,5.657c0,0,16.617-10.96,17.324-19.092
			c0.707-8.132,1.414-14.496-0.707-24.042c0,0-5.303,17.678-11.314,25.102c0,0-1.768-20.86-2.828-23.335s-1.768,0.707-6.01,6.01
			s-19.799,19.092-30.759,21.213c-10.96,2.121-50.558,9.9-62.579,20.86C287.439,189.377,278.954,202.105,279.661,205.994
			L279.661,205.994z"/>
		<path id="path32418" fill="none" stroke="#8D18A4" stroke-width="7" stroke-linecap="round" d="M102.5,325.5
			c0,0,15-19.5,22.5-20.5s9.5,9,4.5,15.5c0,0,16.5-17.5,24.5-18.5s14,13,5,23.5c0,0,21.5-24,28-23.5s2.5,20,2.5,20"/>
		<path id="path32420" fill="none" stroke="#8D18A4" stroke-width="7" stroke-linecap="round" d="M340.5,286c0,0,16-17,24.5-15
			s7,21.5,7,21.5s13.5-31.5,21.5-32s7,21,7,21s6-18,11-19s10.5,11,10.5,11"/>
		<path id="path32422" fill="#961F3F" d="M232.285,360.144c0,0,26.163,3.005,35.355-5.127c0,0-1.945,30.229-18.208,33.057
			S232.285,360.144,232.285,360.144z"/>
		<path id="path32932" fill="#FEE2FB" d="M235.25,362.375c0,0,22.125,0.25,28.75-4c0,0,1.207,7.941-16.125,11
			C233,372,235.25,362.375,235.25,362.375z"/>
		<path id="path32422-5" fill="none" stroke="#8D18A4" stroke-width="5" stroke-linecap="round" stroke-linejoin="round" d="
			M232.285,360.144c0,0,26.163,3.005,35.355-5.127c0,0-1.945,30.229-18.208,33.057S232.285,360.144,232.285,360.144z"/>
	</g>
</g>
</svg>
